<svg width="118" height="30" viewBox="0 0 118 30" fill="none" xmlns="http://www.w3.org/2000/svg">
<rect width="118" height="30" rx="3" fill="white"/>
<rect x="0.5" y="0.5" width="117" height="29" rx="2.5" stroke="black" stroke-opacity="0.15"/>
<path d="M39.6506 20H38.358L42.0966 9.81818H43.3693L47.108 20H45.8153L42.7727 11.429H42.6932L39.6506 20ZM40.1278 16.0227H45.3381V17.1165H40.1278V16.0227ZM51.4183 20.1591C50.782 20.1591 50.2202 19.9983 49.733 19.6768C49.2457 19.352 48.8646 18.8946 48.5895 18.3047C48.3144 17.7114 48.1768 17.0104 48.1768 16.2017C48.1768 15.3996 48.3144 14.7036 48.5895 14.1136C48.8646 13.5237 49.2474 13.0679 49.7379 12.7464C50.2285 12.425 50.7952 12.2642 51.4382 12.2642C51.9354 12.2642 52.3281 12.3471 52.6165 12.5128C52.9081 12.6752 53.1302 12.8608 53.2827 13.0696C53.4384 13.2751 53.5594 13.4441 53.6456 13.5767H53.745V9.81818H54.9183V20H53.7848V18.8267H53.6456C53.5594 18.9659 53.4368 19.1416 53.2777 19.3537C53.1186 19.5625 52.8916 19.7498 52.5966 19.9155C52.3016 20.0779 51.9089 20.1591 51.4183 20.1591ZM51.5774 19.1051C52.0481 19.1051 52.4458 18.9825 52.7706 18.7372C53.0954 18.4886 53.3423 18.1456 53.5114 17.7081C53.6804 17.2673 53.7649 16.7585 53.7649 16.1818C53.7649 15.6117 53.6821 15.1129 53.5163 14.6854C53.3506 14.2545 53.1054 13.9197 52.7805 13.6811C52.4557 13.4392 52.0547 13.3182 51.5774 13.3182C51.0803 13.3182 50.666 13.4458 50.3345 13.701C50.0064 13.9529 49.7595 14.2959 49.5938 14.7301C49.4313 15.161 49.3501 15.6449 49.3501 16.1818C49.3501 16.7254 49.433 17.2192 49.5987 17.6634C49.7678 18.1042 50.0163 18.4555 50.3445 18.7173C50.6759 18.9759 51.0869 19.1051 51.5774 19.1051ZM60.1136 20.1591C59.4773 20.1591 58.9155 19.9983 58.4283 19.6768C57.9411 19.352 57.5599 18.8946 57.2848 18.3047C57.0097 17.7114 56.8722 17.0104 56.8722 16.2017C56.8722 15.3996 57.0097 14.7036 57.2848 14.1136C57.5599 13.5237 57.9427 13.0679 58.4332 12.7464C58.9238 12.425 59.4905 12.2642 60.1335 12.2642C60.6307 12.2642 61.0234 12.3471 61.3118 12.5128C61.6035 12.6752 61.8255 12.8608 61.978 13.0696C62.1338 13.2751 62.2547 13.4441 62.3409 13.5767H62.4403V9.81818H63.6136V20H62.4801V18.8267H62.3409C62.2547 18.9659 62.1321 19.1416 61.973 19.3537C61.8139 19.5625 61.5869 19.7498 61.2919 19.9155C60.9969 20.0779 60.6042 20.1591 60.1136 20.1591ZM60.2727 19.1051C60.7434 19.1051 61.1411 18.9825 61.4659 18.7372C61.7907 18.4886 62.0376 18.1456 62.2067 17.7081C62.3757 17.2673 62.4602 16.7585 62.4602 16.1818C62.4602 15.6117 62.3774 15.1129 62.2116 14.6854C62.0459 14.2545 61.8007 13.9197 61.4759 13.6811C61.151 13.4392 60.75 13.3182 60.2727 13.3182C59.7756 13.3182 59.3613 13.4458 59.0298 13.701C58.7017 13.9529 58.4548 14.2959 58.2891 14.7301C58.1267 15.161 58.0455 15.6449 58.0455 16.1818C58.0455 16.7254 58.1283 17.2192 58.294 17.6634C58.4631 18.1042 58.7116 18.4555 59.0398 18.7173C59.3712 18.9759 59.7822 19.1051 60.2727 19.1051ZM70.022 20V9.81818H76.1271V10.9119H71.255V14.3523H75.6697V15.446H71.255V20H70.022ZM78.0797 20V12.3636H79.253V20H78.0797ZM78.6763 11.0909C78.4476 11.0909 78.2504 11.013 78.0847 10.8572C77.9223 10.7015 77.8411 10.5142 77.8411 10.2955C77.8411 10.0767 77.9223 9.88944 78.0847 9.73366C78.2504 9.57789 78.4476 9.5 78.6763 9.5C78.905 9.5 79.1006 9.57789 79.263 9.73366C79.4287 9.88944 79.5115 10.0767 79.5115 10.2955C79.5115 10.5142 79.4287 10.7015 79.263 10.8572C79.1006 11.013 78.905 11.0909 78.6763 11.0909ZM82.5753 9.81818V20H81.402V9.81818H82.5753ZM88.0453 12.3636V13.358H84.0879V12.3636H88.0453ZM85.2413 10.5341H86.4146V17.8125C86.4146 18.1439 86.4627 18.3925 86.5588 18.5582C86.6582 18.7206 86.7842 18.83 86.9366 18.8864C87.0924 18.9394 87.2565 18.9659 87.4288 18.9659C87.5581 18.9659 87.6641 18.9593 87.747 18.946C87.8298 18.9295 87.8961 18.9162 87.9458 18.9062L88.1845 19.9602C88.1049 19.9901 87.9939 20.0199 87.8514 20.0497C87.7089 20.0829 87.5282 20.0994 87.3095 20.0994C86.978 20.0994 86.6532 20.0282 86.335 19.8857C86.0202 19.7431 85.7583 19.526 85.5495 19.2344C85.344 18.9427 85.2413 18.5748 85.2413 18.1307V10.5341ZM92.9299 20.1591C92.1941 20.1591 91.5594 19.9967 91.0257 19.6719C90.4954 19.3438 90.0861 18.8864 89.7978 18.2997C89.5127 17.7098 89.3702 17.0237 89.3702 16.2415C89.3702 15.4593 89.5127 14.7699 89.7978 14.1733C90.0861 13.5734 90.4872 13.1061 91.0009 12.7713C91.5179 12.4332 92.1212 12.2642 92.8105 12.2642C93.2083 12.2642 93.601 12.3305 93.9888 12.4631C94.3766 12.5956 94.7296 12.8111 95.0478 13.1094C95.3659 13.4044 95.6195 13.7955 95.8084 14.2827C95.9973 14.7699 96.0918 15.3698 96.0918 16.0824V16.5795H90.2054V15.5653H94.8986C94.8986 15.1345 94.8124 14.75 94.6401 14.4119C94.4711 14.0739 94.2291 13.8071 93.9142 13.6115C93.6027 13.416 93.2348 13.3182 92.8105 13.3182C92.3432 13.3182 91.9389 13.4342 91.5975 13.6662C91.2594 13.8949 90.9992 14.1932 90.8169 14.5611C90.6346 14.929 90.5435 15.3234 90.5435 15.7443V16.4205C90.5435 16.9972 90.6429 17.486 90.8418 17.8871C91.044 18.2848 91.324 18.5881 91.682 18.7969C92.04 19.0024 92.4559 19.1051 92.9299 19.1051C93.2381 19.1051 93.5165 19.062 93.7651 18.9759C94.017 18.8864 94.2341 18.7538 94.4164 18.5781C94.5987 18.3991 94.7395 18.1771 94.839 17.9119L95.9725 18.2301C95.8532 18.6146 95.6526 18.9527 95.3709 19.2443C95.0892 19.5327 94.7412 19.758 94.3269 19.9205C93.9126 20.0795 93.4469 20.1591 92.9299 20.1591ZM97.8766 20V12.3636H99.0101V13.517H99.0897C99.2289 13.1392 99.4808 12.8326 99.8453 12.5973C100.21 12.362 100.621 12.2443 101.078 12.2443C101.164 12.2443 101.272 12.246 101.401 12.2493C101.531 12.2526 101.628 12.2576 101.695 12.2642V13.4574C101.655 13.4474 101.564 13.4325 101.421 13.4126C101.282 13.3894 101.135 13.3778 100.979 13.3778C100.608 13.3778 100.276 13.4557 99.9846 13.6115C99.6962 13.764 99.4675 13.9761 99.2985 14.2479C99.1328 14.5163 99.0499 14.8229 99.0499 15.1676V20H97.8766ZM108.495 14.0739L107.441 14.3722C107.374 14.1965 107.277 14.0258 107.147 13.8601C107.021 13.6911 106.849 13.5518 106.63 13.4425C106.412 13.3331 106.132 13.2784 105.79 13.2784C105.323 13.2784 104.933 13.3861 104.622 13.6016C104.314 13.8137 104.159 14.0838 104.159 14.4119C104.159 14.7036 104.266 14.9339 104.478 15.103C104.69 15.272 105.021 15.4129 105.472 15.5256L106.605 15.804C107.288 15.9697 107.797 16.2232 108.132 16.5646C108.467 16.9027 108.634 17.3385 108.634 17.8722C108.634 18.3097 108.508 18.7008 108.256 19.0455C108.007 19.3902 107.659 19.6619 107.212 19.8608C106.765 20.0597 106.244 20.1591 105.651 20.1591C104.872 20.1591 104.227 19.9901 103.717 19.652C103.207 19.3139 102.883 18.8201 102.748 18.1705L103.861 17.892C103.967 18.303 104.168 18.6113 104.463 18.8168C104.761 19.0223 105.15 19.125 105.631 19.125C106.178 19.125 106.612 19.009 106.934 18.777C107.258 18.5417 107.421 18.2599 107.421 17.9318C107.421 17.6667 107.328 17.4446 107.142 17.2656C106.957 17.0833 106.672 16.9474 106.287 16.858L105.015 16.5597C104.315 16.3939 103.801 16.1371 103.473 15.7891C103.149 15.4377 102.986 14.9986 102.986 14.4716C102.986 14.0407 103.107 13.6596 103.349 13.3281C103.594 12.9967 103.927 12.7365 104.348 12.5476C104.773 12.3587 105.253 12.2642 105.79 12.2642C106.546 12.2642 107.139 12.4299 107.57 12.7614C108.004 13.0928 108.312 13.5303 108.495 14.0739Z" fill="#4F5051"/>
<g clip-path="url(#clip0_907_33846)">
<path d="M23.1496 18.3989C23.5428 18.7332 23.8239 19.1542 23.974 19.6489C23.974 19.6876 23.974 19.7263 23.974 19.7661C24.02 19.7657 24.066 19.7653 24.1135 19.7648C24.5478 19.7608 24.9822 19.7579 25.4165 19.756C25.6398 19.755 25.8631 19.7536 26.0864 19.7514C26.302 19.7493 26.5176 19.7481 26.7332 19.7476C26.8154 19.7472 26.8975 19.7465 26.9796 19.7455C27.095 19.7441 27.2102 19.7439 27.3255 19.744C27.3593 19.7433 27.393 19.7425 27.4278 19.7418C27.6694 19.7439 27.8302 19.8089 28.0176 19.9614C28.1329 20.1029 28.1515 20.211 28.1501 20.3911C28.1504 20.4306 28.1507 20.4701 28.151 20.5108C28.1263 20.6921 28.0418 20.8149 27.8998 20.9282C27.7081 21.0714 27.5426 21.0606 27.3122 21.0596C27.2581 21.0596 27.2581 21.0596 27.203 21.0596C27.0839 21.0596 26.9647 21.0593 26.8455 21.059C26.763 21.0589 26.6804 21.0589 26.5978 21.0588C26.3804 21.0587 26.163 21.0583 25.9455 21.0579C25.7237 21.0575 25.5019 21.0573 25.28 21.0571C24.8447 21.0567 24.4093 21.056 23.974 21.0552C23.9687 21.0909 23.9634 21.1266 23.9579 21.1634C23.8522 21.7382 23.4236 22.2131 22.9729 22.5567C22.5046 22.8757 22.0008 23.0315 21.4344 23.0278C21.3729 23.0275 21.3729 23.0275 21.3101 23.0272C20.607 23.0112 20.0259 22.7334 19.5169 22.2503C19.2115 21.931 18.9722 21.5258 18.8704 21.0943C18.8485 21.0942 18.8267 21.0942 18.8042 21.0941C17.5099 21.0919 16.2156 21.089 14.9213 21.0853C14.766 21.0849 14.6106 21.0844 14.4552 21.084C14.4243 21.0839 14.3933 21.0838 14.3615 21.0837C13.8605 21.0824 13.3595 21.0814 12.8585 21.0806C12.3446 21.0797 11.8306 21.0784 11.3166 21.0767C10.9994 21.0757 10.6822 21.075 10.365 21.0747C10.1218 21.0745 9.87866 21.0737 9.6355 21.0726C9.5357 21.0723 9.4359 21.0721 9.3361 21.0722C9.20002 21.0722 9.06396 21.0716 8.92788 21.0708C8.88824 21.071 8.8486 21.0711 8.80775 21.0713C8.53607 21.0686 8.36822 21.0244 8.16012 20.8403C8.00887 20.6684 8.01935 20.4942 8.02148 20.2747C8.0409 20.105 8.09953 19.9928 8.23127 19.8833C8.4485 19.7442 8.64052 19.7499 8.89011 19.752C8.93279 19.7519 8.97548 19.7518 9.01946 19.7517C9.1625 19.7515 9.30553 19.7522 9.44858 19.7528C9.55111 19.7529 9.65364 19.7528 9.75617 19.7528C9.97692 19.7527 10.1977 19.7531 10.4184 19.7537C10.7376 19.7547 11.0568 19.755 11.3759 19.7551C11.8938 19.7554 12.4116 19.7562 12.9295 19.7573C13.4325 19.7584 13.9354 19.7592 14.4384 19.7597C14.4694 19.7597 14.5005 19.7598 14.5324 19.7598C14.688 19.7599 14.8436 19.7601 14.9992 19.7602C16.2896 19.7614 17.58 19.7635 18.8704 19.7661C18.8784 19.7392 18.8864 19.7123 18.8946 19.6845C18.9051 19.6493 18.9157 19.614 18.9265 19.5777C18.937 19.5427 18.9474 19.5077 18.9581 19.4717C19.1477 18.8639 19.6296 18.3702 20.1831 18.0718C21.151 17.5712 22.3147 17.7073 23.1496 18.3989ZM20.3892 19.544C20.142 19.8514 20.0572 20.2001 20.0874 20.5864C20.1615 20.9957 20.367 21.3035 20.7042 21.5459C20.9955 21.7279 21.3158 21.7894 21.6553 21.7339C22.0506 21.6406 22.3225 21.4616 22.5607 21.1333C22.7737 20.7844 22.8182 20.4114 22.7343 20.0087C22.6057 19.6424 22.3441 19.3733 22.0012 19.1973C21.4227 18.9285 20.8188 19.0822 20.3892 19.544Z" fill="#4F5051"/>
<path d="M21.416 6.9748C21.4779 6.97529 21.4779 6.97529 21.541 6.97578C22.3026 6.9922 22.9036 7.31313 23.4255 7.85127C23.6984 8.14586 23.9165 8.54953 23.9752 8.94502C24.0209 8.94476 24.0666 8.9445 24.1137 8.94423C24.5446 8.94185 24.9755 8.9401 25.4064 8.93894C25.628 8.93833 25.8495 8.9375 26.071 8.93618C26.2848 8.9349 26.4987 8.9342 26.7125 8.9339C26.794 8.93368 26.8756 8.93326 26.9571 8.93263C27.0714 8.93177 27.1857 8.93166 27.3 8.93171C27.3505 8.93108 27.3505 8.93108 27.402 8.93044C27.6248 8.93158 27.796 8.96469 27.9656 9.12217C28.1529 9.36587 28.1646 9.53868 28.1366 9.84345C28.0461 10.0451 27.9081 10.1522 27.7047 10.2341C27.5797 10.2548 27.4576 10.2539 27.3312 10.2518C27.2947 10.2518 27.2583 10.2519 27.2208 10.2519C27.1012 10.2518 26.9816 10.2506 26.862 10.2493C26.7788 10.249 26.6956 10.2488 26.6124 10.2487C26.3939 10.2481 26.1754 10.2465 25.957 10.2448C25.7338 10.2432 25.5106 10.2425 25.2875 10.2417C24.85 10.24 24.4126 10.2374 23.9752 10.2341C23.9676 10.2699 23.9676 10.2699 23.9599 10.3064C23.9497 10.3535 23.9497 10.3535 23.9394 10.4016C23.9294 10.4483 23.9294 10.4483 23.9192 10.4959C23.821 10.8861 23.5496 11.2077 23.2685 11.4841C23.2415 11.5118 23.2146 11.5395 23.1868 11.568C22.695 12.0419 22.0062 12.2423 21.3327 12.2321C20.6072 12.1923 19.962 11.8864 19.4604 11.3669C19.1692 11.0198 18.9787 10.6707 18.8715 10.2341C18.8387 10.2342 18.8387 10.2342 18.8052 10.2343C17.5073 10.2387 16.2094 10.242 14.9115 10.2441C14.7557 10.2443 14.5998 10.2445 14.4439 10.2448C14.4129 10.2449 14.3819 10.2449 14.3499 10.245C13.8476 10.2458 13.3452 10.2474 12.8429 10.2491C12.3274 10.251 11.8119 10.2521 11.2964 10.2525C10.9784 10.2527 10.6604 10.2536 10.3423 10.2552C10.0984 10.2563 9.85443 10.2564 9.61047 10.2562C9.51045 10.2562 9.41043 10.2566 9.31041 10.2574C9.17383 10.2583 9.0373 10.2581 8.90072 10.2576C8.84137 10.2584 8.84137 10.2584 8.78083 10.2593C8.52419 10.2566 8.35206 10.2049 8.15393 10.0388C8.03865 9.89732 8.02004 9.78922 8.02143 9.60908C8.02112 9.5696 8.02082 9.53012 8.02051 9.48945C8.04523 9.3081 8.12974 9.18526 8.2717 9.07197C8.41549 8.96467 8.50904 8.94018 8.68361 8.9396C8.71995 8.93939 8.75628 8.93917 8.79372 8.93895C8.83371 8.93891 8.87369 8.93888 8.91489 8.93884C8.95731 8.93864 8.99973 8.93845 9.04344 8.93825C9.18631 8.93765 9.32917 8.93732 9.47203 8.937C9.57416 8.93662 9.67629 8.93623 9.77841 8.93582C9.99865 8.93497 10.2189 8.93427 10.4391 8.93365C10.7576 8.93277 11.076 8.93167 11.3944 8.93051C11.911 8.92865 12.4276 8.92696 12.9442 8.92538C13.4461 8.92384 13.948 8.92222 14.4499 8.9205C14.4808 8.92039 14.5118 8.92028 14.5436 8.92018C14.6988 8.91964 14.8539 8.9191 15.0091 8.91857C16.2966 8.91412 17.584 8.90994 18.8715 8.90595C18.887 8.86253 18.887 8.86253 18.9028 8.81823C18.9166 8.77995 18.9303 8.74168 18.9445 8.70225C18.9581 8.66444 18.9716 8.62662 18.9856 8.58767C19.2401 7.92795 19.749 7.47702 20.3732 7.16798C20.7148 7.0224 21.0461 6.97103 21.416 6.9748ZM20.5351 8.57881C20.233 8.85125 20.0939 9.20487 20.0738 9.60175C20.0827 9.96092 20.2338 10.288 20.4811 10.5466C20.7554 10.7957 21.0605 10.9181 21.4307 10.947C21.8427 10.9201 22.1708 10.7558 22.4539 10.4611C22.7112 10.1547 22.787 9.86869 22.7727 9.47068C22.7291 9.06645 22.5549 8.78148 22.2478 8.51533C21.7003 8.14106 21.053 8.18054 20.5351 8.57881Z" fill="#4F5051"/>
<path d="M16.3574 12.8984C16.4544 12.9831 16.5446 13.0709 16.6339 13.1637C16.6616 13.1905 16.6892 13.2173 16.7178 13.2449C17.0286 13.563 17.1982 13.9485 17.3013 14.3747C17.3233 14.3746 17.3453 14.3746 17.368 14.3745C18.6721 14.371 19.9762 14.3683 21.2803 14.3667C21.4369 14.3665 21.5934 14.3663 21.75 14.3661C21.7811 14.3661 21.8123 14.366 21.8444 14.366C22.3492 14.3653 22.854 14.3641 23.3588 14.3626C23.8767 14.3612 24.3946 14.3603 24.9124 14.36C25.2321 14.3598 25.5517 14.3591 25.8713 14.3578C26.1163 14.3569 26.3613 14.3568 26.6063 14.357C26.7069 14.357 26.8074 14.3566 26.908 14.356C27.0451 14.3553 27.1822 14.3555 27.3193 14.3559C27.3792 14.3552 27.3792 14.3552 27.4403 14.3545C27.6669 14.3564 27.801 14.3781 27.9796 14.5309C28.1221 14.6801 28.1488 14.7998 28.1563 14.9997C28.1488 15.1996 28.1221 15.3192 27.9796 15.4684C27.7665 15.6508 27.5871 15.6465 27.3193 15.6435C27.2764 15.6436 27.2336 15.6437 27.1895 15.6439C27.0459 15.6441 26.9023 15.6433 26.7587 15.6424C26.6558 15.6424 26.5529 15.6424 26.45 15.6425C26.2284 15.6426 26.0068 15.6421 25.7852 15.6412C25.4648 15.6399 25.1444 15.6395 24.8241 15.6393C24.3043 15.639 23.7845 15.6379 23.2646 15.6365C22.7598 15.635 22.2549 15.6339 21.75 15.6333C21.7188 15.6332 21.6877 15.6332 21.6556 15.6331C21.4995 15.6329 21.3433 15.6327 21.1871 15.6325C19.8918 15.6309 18.5965 15.6282 17.3013 15.6247C17.2935 15.6542 17.2856 15.6837 17.2776 15.7141C17.2672 15.7528 17.2568 15.7915 17.2461 15.8313C17.2358 15.8697 17.2256 15.9081 17.215 15.9476C17.1022 16.3295 16.8323 16.6368 16.5554 16.9137C16.5206 16.9504 16.5206 16.9504 16.4851 16.9877C16.0058 17.4532 15.3186 17.6381 14.666 17.6333C13.9352 17.6092 13.2754 17.3042 12.7706 16.7758C12.5186 16.485 12.3158 16.1716 12.234 15.7928C12.2271 15.7613 12.2203 15.7298 12.2132 15.6973C12.2055 15.6614 12.2055 15.6614 12.1976 15.6247C12.1276 15.6252 12.1276 15.6252 12.0562 15.6257C11.616 15.6289 11.1758 15.6312 10.7357 15.6328C10.5094 15.6336 10.2831 15.6347 10.0568 15.6365C9.8384 15.6382 9.62001 15.6391 9.4016 15.6395C9.31829 15.6398 9.23499 15.6404 9.15169 15.6412C9.03496 15.6423 8.91826 15.6425 8.80152 15.6424C8.76713 15.643 8.73274 15.6435 8.6973 15.6441C8.48345 15.6427 8.36331 15.6093 8.19327 15.4684C8.05082 15.3192 8.02406 15.1996 8.0166 14.9997C8.02406 14.7998 8.05082 14.6801 8.19327 14.5309C8.39676 14.3623 8.54844 14.3528 8.80152 14.3569C8.85672 14.3569 8.85672 14.3569 8.91302 14.3569C9.03411 14.357 9.15517 14.3582 9.27625 14.3594C9.36041 14.3597 9.44457 14.3599 9.52874 14.3601C9.74986 14.3607 9.97096 14.3622 10.1921 14.3639C10.4179 14.3655 10.6437 14.3663 10.8694 14.367C11.3122 14.3687 11.7549 14.3714 12.1976 14.3747C12.2028 14.3507 12.2079 14.3267 12.2132 14.3021C12.22 14.2705 12.2269 14.239 12.234 14.2065C12.2407 14.1753 12.2475 14.1441 12.2544 14.1119C12.3897 13.5592 12.8345 13.0826 13.2969 12.7731C14.2632 12.2127 15.4486 12.2235 16.3574 12.8984ZM13.7287 14.1012C13.4536 14.4719 13.3745 14.8156 13.4147 15.2731C13.5002 15.6406 13.7229 15.9498 14.0428 16.1496C14.3827 16.3329 14.717 16.3819 15.0976 16.3051C15.4556 16.1946 15.7381 15.9612 15.9272 15.6393C16.1114 15.2643 16.1411 14.9029 16.0071 14.5067C15.8559 14.1609 15.5598 13.875 15.2107 13.7326C14.6709 13.5612 14.1251 13.6969 13.7287 14.1012Z" fill="#4F5051"/>
</g>
<defs>
<clipPath id="clip0_907_33846">
<rect width="20" height="20" fill="white" transform="translate(9 5)"/>
</clipPath>
</defs>
</svg>
