<svg width="24" height="22" viewBox="0 0 24 22" fill="none" xmlns="http://www.w3.org/2000/svg">
<rect width="23.2222" height="22" rx="3" fill="#FFAA00"/>
<path d="M5.01328 7.03903C4.76728 7.09615 4.58278 7.19407 4.39535 7.36816C4.205 7.54496 4.08786 7.73809 4.03514 7.97473C3.98829 8.18146 3.98829 15.6181 4.03514 15.8194C4.1435 16.2845 4.55349 16.6653 5.05135 16.7633C5.27099 16.8068 17.729 16.8068 17.9487 16.7633C18.4465 16.6653 18.8594 16.2791 18.9649 15.8194C19.0117 15.6127 19.0117 8.17602 18.9649 7.97473C18.8565 7.50688 18.4494 7.12879 17.9487 7.03087C17.7114 6.98463 5.21242 6.99279 5.01328 7.03903ZM14.6482 10.4581C13.0843 11.9079 11.7724 13.1157 11.7284 13.1374C11.6259 13.1864 11.3741 13.1864 11.2716 13.1374C11.2276 13.1157 9.91566 11.9079 8.35182 10.4581L5.51113 7.81697H11.5H17.4889L14.6482 10.4581ZM6.77626 13.6569L4.88149 15.4195V11.8971V8.37458L6.77626 10.1372L8.67396 11.8971L6.77626 13.6569ZM18.1185 11.9025V15.4195L16.2237 13.6597L14.326 11.8971L16.215 10.1426C17.2546 9.177 18.1068 8.38818 18.1097 8.38818C18.1156 8.38818 18.1185 9.97126 18.1185 11.9025ZM9.97423 13.1293C10.6039 13.7086 10.6859 13.7739 10.8967 13.8718L11.131 13.9779H11.4971C11.8631 13.9779 11.869 13.9779 12.0974 13.8745C12.3112 13.7793 12.3786 13.7249 13.0287 13.1293L13.7286 12.4846L15.6087 14.2309L17.4889 15.9772H11.5H5.51113L7.3854 14.2363C8.41624 13.2789 9.26552 12.4955 9.27138 12.4955C9.28016 12.4955 9.59645 12.7811 9.97423 13.1293Z" fill="white"/>
</svg>
