<svg width="20" height="20" viewBox="0 0 20 20" fill="none" xmlns="http://www.w3.org/2000/svg">
<path d="M2.6032 9.13493C2.62914 9.13485 2.65508 9.13477 2.6818 9.13468C2.76911 9.13446 2.85641 9.13452 2.94371 9.13457C3.00678 9.13447 3.06986 9.13436 3.13293 9.13422C3.30656 9.13391 3.48019 9.13384 3.65382 9.13381C3.84096 9.13374 4.02811 9.13344 4.21525 9.13318C4.6246 9.13265 5.03395 9.13241 5.44329 9.13224C5.69883 9.13213 5.95436 9.13197 6.2099 9.13179C6.91721 9.13131 7.62453 9.13091 8.33185 9.13078C8.39977 9.13077 8.39977 9.13077 8.46906 9.13075C8.51445 9.13075 8.55984 9.13074 8.6066 9.13073C8.69858 9.13071 8.79055 9.13069 8.88253 9.13068C8.92815 9.13067 8.97378 9.13066 9.02078 9.13065C9.76017 9.1305 10.4996 9.12981 11.2389 9.1289C11.9978 9.12798 12.7567 9.12749 13.5156 9.12745C13.9418 9.12741 14.3679 9.12718 14.7941 9.12648C15.157 9.12587 15.5199 9.12567 15.8828 9.126C16.0679 9.12615 16.2531 9.12611 16.4382 9.12556C16.6078 9.12507 16.7773 9.12511 16.9469 9.12559C17.0082 9.12566 17.0695 9.12554 17.1308 9.1252C17.4856 9.12336 17.7706 9.12993 18.0781 9.32561C18.2698 9.51729 18.3533 9.72234 18.3711 9.98967C18.3672 10.22 18.302 10.3994 18.1538 10.5756C17.8956 10.7918 17.7333 10.8636 17.4007 10.8639C17.3748 10.864 17.3488 10.8641 17.3221 10.8642C17.2348 10.8644 17.1475 10.8644 17.0602 10.8643C16.9971 10.8644 16.934 10.8645 16.871 10.8646C16.6973 10.865 16.5237 10.865 16.3501 10.8651C16.1629 10.8651 15.9758 10.8654 15.7887 10.8657C15.3793 10.8662 14.97 10.8665 14.5606 10.8666C14.3051 10.8667 14.0495 10.8669 13.794 10.8671C13.0867 10.8676 12.3794 10.868 11.6721 10.8681C11.6041 10.8681 11.6041 10.8681 11.5348 10.8681C11.4895 10.8681 11.4441 10.8681 11.3973 10.8681C11.3053 10.8682 11.2134 10.8682 11.1214 10.8682C11.0758 10.8682 11.0301 10.8682 10.9831 10.8682C10.2437 10.8684 9.50435 10.8691 8.76496 10.87C8.00608 10.8709 7.2472 10.8714 6.48832 10.8714C6.06214 10.8715 5.63596 10.8717 5.20978 10.8724C4.8469 10.873 4.48403 10.8732 4.12115 10.8729C3.93598 10.8727 3.75083 10.8728 3.56566 10.8733C3.39612 10.8738 3.22659 10.8738 3.05706 10.8733C2.99575 10.8732 2.93445 10.8733 2.87315 10.8737C2.51827 10.8755 2.23328 10.8689 1.92578 10.6733C1.7341 10.4816 1.65063 10.2765 1.63281 10.0092C1.63669 9.74921 1.7317 9.51969 1.91602 9.33537C2.14554 9.17663 2.32808 9.13522 2.6032 9.13493Z" fill="white"/>
<path d="M2.48825 2.48958C2.51458 2.48943 2.54092 2.48928 2.56805 2.48913C2.6567 2.48872 2.74535 2.48888 2.834 2.48903C2.89804 2.48886 2.96208 2.48865 3.02612 2.48841C3.20242 2.48785 3.37872 2.48779 3.55503 2.48781C3.74504 2.48774 3.93506 2.48723 4.12508 2.48678C4.54072 2.48589 4.95637 2.48558 5.37201 2.48538C5.63147 2.48526 5.89093 2.485 6.15039 2.48472C6.86857 2.48396 7.58674 2.48332 8.30492 2.4832C8.37388 2.48319 8.37388 2.48319 8.44423 2.48318C8.53744 2.48317 8.63064 2.48315 8.72385 2.48314C8.77012 2.48313 8.81639 2.48312 8.86406 2.48312C8.93354 2.48311 8.93354 2.48311 9.00443 2.48309C9.75519 2.48296 10.5059 2.4819 11.2567 2.48044C12.0272 2.47895 12.7978 2.4782 13.5683 2.47818C14.001 2.47816 14.4338 2.47783 14.8665 2.4767C15.2349 2.47574 15.6034 2.47546 15.9718 2.47605C16.1599 2.47633 16.3479 2.47629 16.5359 2.4754C16.708 2.4746 16.8801 2.4747 17.0523 2.47552C17.1145 2.47565 17.1768 2.47546 17.239 2.4749C17.6074 2.47182 17.8712 2.48842 18.1452 2.7514C18.3167 2.93835 18.3802 3.13752 18.372 3.38994C18.333 3.66873 18.2231 3.88098 18.0036 4.05613C17.826 4.16545 17.6778 4.18923 17.4702 4.18948C17.4439 4.18961 17.4177 4.18975 17.3906 4.18989C17.3025 4.19025 17.2144 4.19006 17.1263 4.18987C17.0625 4.19002 16.9988 4.1902 16.935 4.19041C16.7597 4.19089 16.5844 4.19088 16.409 4.19078C16.22 4.19077 16.031 4.1912 15.8419 4.19157C15.4715 4.19222 15.1011 4.19243 14.7307 4.19248C14.4297 4.19251 14.1286 4.19267 13.8276 4.19292C12.9743 4.19361 12.1211 4.19397 11.2678 4.19391C11.2218 4.19391 11.1758 4.19391 11.1284 4.1939C11.0823 4.1939 11.0362 4.1939 10.9888 4.19389C10.2421 4.19386 9.49535 4.19461 8.74864 4.19571C7.98217 4.19683 7.21569 4.19737 6.44922 4.1973C6.0188 4.19728 5.58839 4.19749 5.15798 4.19833C4.79152 4.19904 4.42508 4.19922 4.05862 4.19868C3.87164 4.19843 3.68466 4.19843 3.49768 4.1991C3.32648 4.19972 3.15529 4.19961 2.98409 4.19892C2.92218 4.1988 2.86028 4.19895 2.79837 4.19938C2.41563 4.20189 2.13131 4.19688 1.84379 3.91575C1.68767 3.6838 1.59397 3.4485 1.64115 3.1638C1.72516 2.87029 1.88171 2.69605 2.13699 2.53653C2.25765 2.48726 2.35792 2.48979 2.48825 2.48958Z" fill="white"/>
<path d="M2.58666 15.8099C2.63539 15.8096 2.63539 15.8096 2.68511 15.8094C2.7939 15.8089 2.90268 15.8089 3.01147 15.809C3.0895 15.8088 3.16753 15.8085 3.24556 15.8082C3.4575 15.8075 3.66944 15.8073 3.88139 15.8073C4.05835 15.8072 4.23531 15.8069 4.41227 15.8066C4.82983 15.806 5.24738 15.8058 5.66494 15.8059C6.09556 15.8059 6.52617 15.8051 6.95679 15.8038C7.32659 15.8028 7.69639 15.8024 8.06618 15.8025C8.28701 15.8025 8.50783 15.8023 8.72865 15.8014C8.93638 15.8007 9.14411 15.8007 9.35184 15.8012C9.42799 15.8013 9.50414 15.8011 9.58029 15.8007C9.68445 15.8001 9.78856 15.8004 9.89271 15.801C9.93765 15.8004 9.93765 15.8004 9.98351 15.7998C10.2566 15.8033 10.4587 15.8932 10.6539 16.084C10.81 16.316 10.9037 16.5513 10.8565 16.836C10.772 17.1311 10.6153 17.297 10.3645 17.4632C10.2276 17.5169 10.0933 17.5112 9.94839 17.5107C9.91561 17.5109 9.88284 17.5111 9.84907 17.5114C9.73908 17.5119 9.6291 17.512 9.51911 17.512C9.44031 17.5123 9.36152 17.5126 9.28272 17.513C9.06852 17.5138 8.85432 17.5142 8.64011 17.5144C8.50629 17.5145 8.37246 17.5148 8.23863 17.515C7.77174 17.516 7.30484 17.5165 6.83795 17.5166C6.40277 17.5168 5.96761 17.518 5.53245 17.5196C5.15883 17.5209 4.78522 17.5216 4.41161 17.5216C4.18847 17.5216 3.96534 17.522 3.7422 17.5231C3.53225 17.5241 3.32232 17.5242 3.11238 17.5235C3.03541 17.5235 2.95843 17.5237 2.88147 17.5244C2.77619 17.5252 2.67098 17.5247 2.56571 17.524C2.53541 17.5246 2.50512 17.5251 2.47391 17.5256C2.21831 17.5217 2.03636 17.4226 1.85136 17.2484C1.68174 17.0596 1.61746 16.8628 1.6257 16.6098C1.66461 16.331 1.77459 16.1188 1.99404 15.9436C2.18804 15.8242 2.36275 15.809 2.58666 15.8099Z" fill="white"/>
</svg>
