<svg width="12" height="12" viewBox="0 0 12 12" fill="none" xmlns="http://www.w3.org/2000/svg">
<g clip-path="url(#clip0_3024_121202)">
<path d="M2.58986 0.770967C2.26642 0.850655 1.93595 1.13425 1.80939 1.44362C1.74142 1.60534 1.72033 1.72487 1.65236 2.30847C1.61955 2.59206 1.58674 2.85222 1.5797 2.88737L1.56564 2.953H1.28205C0.958611 2.95534 0.848455 2.97409 0.658611 3.0655C0.473455 3.15456 0.229705 3.40066 0.140642 3.5905C-0.00467028 3.89987 1.72176e-05 3.77097 1.72176e-05 7.14831C1.72176e-05 10.4858 -0.00232653 10.4061 0.12658 10.6616C0.206267 10.8163 0.42658 11.0413 0.574236 11.1163C0.85783 11.2592 0.546111 11.2499 5.11642 11.2499C8.83127 11.2499 9.30236 11.2452 9.42892 11.2124C9.7758 11.1233 10.0758 10.8866 10.2328 10.5796C10.3195 10.4085 10.3242 10.3874 10.3313 10.146L10.3406 9.89284L10.4742 9.853C10.5469 9.83425 10.6758 9.778 10.7625 9.73347C11.0367 9.5905 11.2406 9.28347 11.3086 8.9155C11.3274 8.81472 11.4914 7.39909 11.6766 5.77019C11.993 2.953 12.007 2.803 11.9813 2.64362C11.9063 2.203 11.5758 1.83269 11.1328 1.69206C11.0133 1.65222 3.01408 0.749874 2.82189 0.752217C2.73283 0.754561 2.6297 0.761593 2.58986 0.770967ZM6.92111 1.77878C9.64924 2.09519 10.9945 2.25925 11.0531 2.28503C11.2289 2.35769 11.3742 2.54519 11.4024 2.73503C11.4188 2.83112 10.725 8.88737 10.6875 8.98581C10.643 9.103 10.4461 9.28112 10.3594 9.28112C10.343 9.28112 10.336 8.4655 10.336 6.63269C10.336 4.01003 10.336 3.9819 10.2867 3.83659C10.1438 3.41237 9.82033 3.10534 9.4008 2.99753C9.23439 2.95534 9.08908 2.953 5.69064 2.953H2.15392L2.16799 2.85222C2.17502 2.79831 2.20783 2.52878 2.2383 2.25456C2.30392 1.70378 2.33674 1.59597 2.49377 1.46003C2.5758 1.38503 2.71642 1.32878 2.85002 1.31472C2.86408 1.31472 4.69689 1.52331 6.92111 1.77878ZM9.33283 3.58581C9.48517 3.64206 9.63283 3.78503 9.70783 3.94909C9.76174 4.06628 9.76174 4.06862 9.76877 5.33425L9.7758 6.60222L8.15392 7.54675C7.2633 8.06706 6.49689 8.50534 6.45002 8.52175C6.4008 8.53816 6.2883 8.55222 6.19455 8.55456C5.93205 8.55456 5.85705 8.50534 4.93127 7.68737C4.48595 7.29362 4.06642 6.93269 3.99611 6.88581C3.56017 6.59284 3.00236 6.59519 2.5547 6.8905C2.48439 6.93737 2.01799 7.27253 1.51877 7.63581C1.0172 7.99909 0.604705 8.29675 0.597673 8.29675C0.590642 8.29675 0.585955 7.34284 0.585955 6.178C0.585955 3.81784 0.578924 3.91862 0.74533 3.72409C0.792205 3.67019 0.871892 3.6069 0.923455 3.58347C1.01486 3.54128 1.18595 3.53894 5.11408 3.53894C9.14533 3.53894 9.21095 3.53894 9.33283 3.58581ZM3.56252 7.30769C3.62111 7.33581 4.04299 7.68737 4.51877 8.10691C4.98517 8.51941 5.42111 8.88972 5.48439 8.92956C5.76564 9.11003 6.20392 9.18737 6.50861 9.11003C6.71486 9.05612 6.81096 9.00456 8.35314 8.11159C9.11252 7.67097 9.74299 7.31237 9.75236 7.31237C9.78283 7.31237 9.77814 10.0733 9.74767 10.2163C9.71955 10.3546 9.58361 10.521 9.43596 10.6007L9.33986 10.6522L5.1797 10.6592C2.17267 10.6639 0.993767 10.6592 0.930486 10.6405C0.810955 10.6053 0.65158 10.4436 0.61408 10.3217C0.59533 10.2561 0.585955 10.0358 0.585955 9.63034L0.588298 9.03503L1.5633 8.32019C2.95314 7.30066 2.93205 7.31472 3.04689 7.27722C3.19455 7.228 3.43127 7.24206 3.56252 7.30769Z" fill="black"/>
<path d="M5.79678 4.48677C5.18975 4.63442 4.76787 5.26255 4.871 5.86489C4.94834 6.32661 5.29991 6.7227 5.74287 6.85395C5.89756 6.90083 6.22569 6.90317 6.38741 6.85864C6.79991 6.74848 7.14678 6.40161 7.25694 5.98911C7.30147 5.82973 7.29912 5.49927 7.25225 5.34223C7.16553 5.04223 6.91006 4.7352 6.63116 4.59223C6.371 4.46333 6.06162 4.42348 5.79678 4.48677ZM6.28897 5.07739C6.72256 5.22505 6.85381 5.80161 6.52803 6.12973C6.20225 6.45552 5.62334 6.32192 5.47569 5.89067C5.30225 5.38677 5.78506 4.90395 6.28897 5.07739Z" fill="black"/>
</g>
<defs>
<clipPath id="clip0_3024_121202">
<rect width="12" height="12" fill="white"/>
</clipPath>
</defs>
</svg>
