<svg width="16" height="16" viewBox="0 0 16 16" fill="none" xmlns="http://www.w3.org/2000/svg">
<g clip-path="url(#clip0_3024_121291)">
<path d="M8.72187 0.0921347C9.0165 0.26475 9.26101 0.538723 9.50105 0.778822C9.54107 0.818666 9.54107 0.818666 9.58189 0.859315C9.65499 0.932131 9.72802 1.00501 9.80102 1.07793C9.88012 1.15691 9.95931 1.2358 10.0385 1.31471C10.229 1.50465 10.4195 1.69475 10.6099 1.88486C10.6817 1.95658 10.7535 2.02828 10.8254 2.09999C11.1424 2.4165 11.4595 2.73305 11.7764 3.04973C11.8537 3.12698 11.931 3.20424 12.0083 3.28149C12.0372 3.31029 12.0372 3.31029 12.0666 3.33966C12.3782 3.65105 12.6901 3.96218 13.0022 4.27319C13.3231 4.59311 13.6438 4.91327 13.9643 5.23366C14.144 5.4133 14.3238 5.59284 14.5039 5.77212C14.6571 5.92466 14.8102 6.07742 14.9629 6.23046C15.0407 6.30844 15.1187 6.38632 15.1969 6.46393C15.2818 6.54824 15.3663 6.63304 15.4508 6.71788C15.4753 6.74207 15.4998 6.76626 15.5251 6.79118C15.6828 6.95074 15.7984 7.11599 15.9055 7.31284C15.9244 7.34663 15.9433 7.38043 15.9628 7.41525C16.0776 7.78237 16.0735 8.31332 15.9055 8.66245C15.8447 8.75949 15.8447 8.75949 15.7805 8.84409C15.7606 8.87104 15.7407 8.89799 15.7202 8.92575C15.4696 9.23319 15.135 9.40433 14.7434 9.46127C14.6534 9.46717 14.5661 9.4699 14.4761 9.46957C14.4511 9.4695 14.4261 9.46943 14.4003 9.46936C14.3814 9.46927 14.3625 9.46918 14.343 9.46909C14.3431 9.50597 14.3431 9.50597 14.3431 9.5436C14.3445 10.1433 14.3456 10.743 14.3462 11.3427C14.3465 11.6327 14.347 11.9227 14.3477 12.2127C14.3483 12.4656 14.3487 12.7186 14.3488 12.9715C14.3489 13.1053 14.3491 13.2391 14.3496 13.3728C14.35 13.4991 14.3501 13.6253 14.35 13.7515C14.3501 13.7975 14.3502 13.8436 14.3504 13.8896C14.3535 14.506 14.2529 15.035 13.8273 15.5023C13.359 15.95 12.8278 15.9836 12.2143 15.9815C12.1472 15.9816 12.0801 15.9817 12.013 15.9818C11.873 15.9819 11.733 15.9817 11.593 15.9813C11.4137 15.9808 11.2343 15.9811 11.0549 15.9816C10.9166 15.982 10.7784 15.9819 10.6401 15.9816C10.5739 15.9816 10.5078 15.9816 10.4416 15.9819C10.3493 15.9821 10.257 15.9817 10.1648 15.9812C10.1375 15.9814 10.1103 15.9816 10.0822 15.9818C9.93473 15.9802 9.83787 15.9706 9.71797 15.8753C9.60267 15.744 9.55788 15.6724 9.5574 15.4991C9.55723 15.4658 9.55706 15.4324 9.55689 15.3981C9.55685 15.3614 9.55682 15.3246 9.55679 15.2868C9.55663 15.2482 9.55647 15.2096 9.55631 15.1699C9.55597 15.0859 9.55569 15.0018 9.55549 14.9178C9.55516 14.7847 9.55452 14.6517 9.55383 14.5186C9.5519 14.1402 9.55021 13.7618 9.54917 13.3834C9.5486 13.1744 9.54769 12.9655 9.54642 12.7566C9.54577 12.6462 9.54528 12.5357 9.54521 12.4252C9.54513 12.3017 9.54433 12.1782 9.54348 12.0547C9.54358 12.0184 9.54367 11.9821 9.54377 11.9447C9.54076 11.6501 9.49268 11.3756 9.28047 11.1566C9.11426 11.0337 8.96299 10.9967 8.76011 10.9953C8.72464 10.995 8.68917 10.9947 8.65262 10.9944C8.61441 10.9943 8.57619 10.9941 8.53681 10.994C8.49735 10.9938 8.45789 10.9936 8.41724 10.9934C8.3337 10.9932 8.25017 10.9929 8.16664 10.9928C8.06016 10.9927 7.9537 10.9919 7.84723 10.991C7.74506 10.9903 7.64289 10.9902 7.54072 10.9901C7.50276 10.9897 7.46479 10.9893 7.42568 10.9889C7.17966 10.9896 7.00347 11.0159 6.79023 11.1449C6.61148 11.3285 6.5267 11.5386 6.52636 11.7921C6.52624 11.826 6.52611 11.8598 6.52598 11.8946C6.526 11.9316 6.52602 11.9685 6.52603 12.0066C6.52593 12.0456 6.52582 12.0847 6.5257 12.1249C6.52548 12.2097 6.5253 12.2946 6.5252 12.3794C6.52501 12.5136 6.52449 12.6478 6.5239 12.782C6.52371 12.828 6.52351 12.874 6.52331 12.92C6.52321 12.943 6.52311 12.9661 6.52301 12.9898C6.5217 13.3022 6.52067 13.6146 6.52028 13.927C6.52002 14.1378 6.51932 14.3486 6.51811 14.5595C6.5175 14.671 6.51711 14.7825 6.51726 14.894C6.51744 15.0184 6.51665 15.1428 6.51578 15.2672C6.51599 15.3041 6.51619 15.3409 6.51641 15.3788C6.51423 15.5688 6.51118 15.6996 6.37422 15.8441C6.21774 15.982 6.08908 15.9871 5.89025 15.9853C5.86096 15.9855 5.83166 15.9857 5.80148 15.9859C5.70487 15.9865 5.60828 15.9861 5.51167 15.9857C5.44417 15.9858 5.37668 15.9859 5.30918 15.986C5.16769 15.9862 5.02622 15.986 4.88473 15.9854C4.70421 15.9847 4.52372 15.9851 4.3432 15.9858C4.20373 15.9863 4.06427 15.9861 3.9248 15.9858C3.8583 15.9857 3.7918 15.9858 3.7253 15.9861C3.05941 15.9884 3.05941 15.9884 2.74922 15.8441C2.71332 15.8275 2.67743 15.811 2.64045 15.7939C2.17251 15.5204 1.90424 15.1429 1.74922 14.6253C1.70797 14.3837 1.71379 14.1409 1.71442 13.8966C1.71443 13.8482 1.71442 13.7998 1.7144 13.7515C1.7144 13.6207 1.71458 13.49 1.7148 13.3593C1.71499 13.2224 1.71501 13.0856 1.71505 12.9488C1.71515 12.6899 1.7154 12.431 1.71572 12.1722C1.71607 11.8774 1.71624 11.5825 1.71639 11.2877C1.71672 10.6815 1.71727 10.0753 1.71797 9.46909C1.69674 9.46926 1.67552 9.46944 1.65366 9.46961C1.62569 9.46975 1.59773 9.46988 1.56892 9.47003C1.54125 9.4702 1.51358 9.47037 1.48508 9.47055C1.06497 9.46282 0.713009 9.29711 0.413523 9.01218C0.105152 8.68727 0.0105398 8.32606 0.0158333 7.88678C0.0351065 7.35339 0.319236 7.00919 0.686124 6.64506C0.713298 6.61772 0.740473 6.59038 0.768471 6.56221C0.843028 6.48728 0.917785 6.41257 0.992641 6.33795C1.07367 6.25706 1.15444 6.17591 1.23524 6.09479C1.39319 5.9363 1.55139 5.77807 1.7097 5.61993C1.83841 5.49134 1.96704 5.36267 2.0956 5.23394C2.12313 5.20638 2.12313 5.20638 2.15121 5.17826C2.18849 5.14093 2.22578 5.1036 2.26306 5.06627C2.61203 4.71687 2.9613 4.36777 3.31066 4.01876C3.62991 3.69982 3.94881 3.38052 4.26753 3.06105C4.59536 2.73246 4.92342 2.4041 5.25173 2.076C5.43583 1.89201 5.61984 1.70793 5.80361 1.52362C5.95998 1.36678 6.11657 1.21017 6.27344 1.05384C6.35339 0.974166 6.43323 0.894393 6.5128 0.814343C6.59923 0.727393 6.68615 0.640936 6.77312 0.554519C6.79794 0.529401 6.82276 0.504282 6.84833 0.478403C7.00947 0.319347 7.17542 0.201985 7.37422 0.0940878C7.40801 0.0751547 7.44181 0.0562216 7.47663 0.0367148C7.84235 -0.0776429 8.37342 -0.0741803 8.72187 0.0921347ZM7.38065 1.32575C7.35373 1.35252 7.32682 1.37929 7.29908 1.40688C7.22476 1.48089 7.15066 1.5551 7.07664 1.62941C6.99663 1.70963 6.91635 1.78959 6.8361 1.86958C6.67909 2.02617 6.52233 2.18302 6.36567 2.33995C6.23833 2.4675 6.11091 2.59495 5.98342 2.72234C5.96526 2.74048 5.9471 2.75863 5.9284 2.77732C5.89151 2.81417 5.85462 2.85103 5.81774 2.88789C5.47203 3.23333 5.12661 3.57905 4.78129 3.92488C4.48502 4.22156 4.18851 4.518 3.89183 4.81426C3.54717 5.15841 3.20268 5.50271 2.85842 5.84725C2.82171 5.88399 2.785 5.92073 2.74829 5.95747C2.73023 5.97555 2.71216 5.99362 2.69356 6.01225C2.5663 6.13958 2.43894 6.2668 2.31154 6.39398C2.15629 6.54897 2.00122 6.70412 1.84635 6.85948C1.76734 6.93874 1.68826 7.01792 1.60897 7.09689C1.52303 7.18251 1.43745 7.26848 1.35191 7.35449C1.32679 7.3794 1.30168 7.4043 1.27581 7.42996C1.11881 7.58863 0.985925 7.73216 0.985545 7.96713C0.991114 8.12817 1.0267 8.21577 1.12422 8.34409C1.30088 8.48394 1.42664 8.50377 1.64741 8.50583C1.68846 8.50657 1.72951 8.50732 1.7718 8.50809C1.83667 8.50918 1.90152 8.5101 1.96639 8.51052C2.02934 8.51101 2.09229 8.51232 2.15522 8.51364C2.19272 8.5141 2.23022 8.51455 2.26885 8.51502C2.42245 8.53917 2.51974 8.60078 2.61322 8.72507C2.66637 8.83549 2.66723 8.91587 2.6673 9.03833C2.66744 9.0607 2.66758 9.08307 2.66773 9.10612C2.66809 9.18092 2.66779 9.2557 2.66749 9.3305C2.66762 9.3842 2.66779 9.4379 2.668 9.49161C2.66837 9.6072 2.66844 9.72279 2.6683 9.83838C2.66809 10.0213 2.66858 10.2043 2.66919 10.3873C2.67037 10.7759 2.67077 11.1645 2.67109 11.5531C2.67144 11.9721 2.67192 12.3911 2.6733 12.8101C2.67387 12.9918 2.674 13.1735 2.67377 13.3551C2.67372 13.4685 2.67406 13.5818 2.6745 13.6951C2.67463 13.7475 2.67459 13.7998 2.67438 13.8521C2.67305 14.2145 2.67396 14.5473 2.93806 14.8225C3.15751 15.0121 3.39877 15.0357 3.68213 15.0351C3.71235 15.0351 3.71235 15.0351 3.74319 15.0351C3.80896 15.0351 3.87473 15.0349 3.9405 15.0346C3.98643 15.0346 4.03236 15.0345 4.07829 15.0345C4.19855 15.0344 4.31882 15.0341 4.43908 15.0337C4.56205 15.0334 4.68502 15.0333 4.80799 15.0331C5.04882 15.0328 5.28964 15.0322 5.53047 15.0316C5.53058 15.0051 5.53058 15.0051 5.53069 14.9781C5.53255 14.5466 5.53492 14.1151 5.53783 13.6836C5.53923 13.4749 5.54045 13.2663 5.54129 13.0576C5.54211 12.856 5.54337 12.6544 5.54494 12.4528C5.54546 12.3761 5.54582 12.2994 5.54602 12.2227C5.5479 11.5515 5.58487 10.9883 6.07527 10.478C6.48314 10.1148 6.93891 10.0115 7.47309 10.0161C7.51711 10.0161 7.56113 10.016 7.60515 10.0159C7.69659 10.0159 7.78802 10.0163 7.87947 10.017C7.99559 10.0179 8.11168 10.0178 8.22781 10.0174C8.31843 10.0172 8.40905 10.0174 8.49968 10.0178C8.56295 10.018 8.62623 10.0179 8.68951 10.0178C9.20008 10.0229 9.64772 10.1579 10.0225 10.5164C10.3936 10.9255 10.508 11.4103 10.5092 11.9487C10.5095 11.9822 10.5098 12.0158 10.5101 12.0504C10.5111 12.1601 10.5116 12.2699 10.5122 12.3796C10.5127 12.4562 10.5134 12.5328 10.514 12.6093C10.5156 12.81 10.5168 13.0106 10.518 13.2112C10.5192 13.4163 10.5208 13.6214 10.5224 13.8264C10.5254 14.2282 10.5281 14.6299 10.5305 15.0316C10.7945 15.033 11.0586 15.0341 11.3226 15.0348C11.4453 15.0351 11.5679 15.0356 11.6906 15.0363C11.8091 15.037 11.9276 15.0374 12.0462 15.0375C12.0912 15.0376 12.1362 15.0379 12.1813 15.0382C12.5856 15.0411 12.9089 15.0186 13.2121 14.7289C13.4046 14.4374 13.3874 14.1115 13.3857 13.7755C13.3858 13.7215 13.3859 13.6676 13.3861 13.6137C13.3864 13.4981 13.3863 13.3825 13.3861 13.2669C13.3857 13.0841 13.3861 12.9013 13.3866 12.7185C13.3877 12.2647 13.3879 11.8109 13.3879 11.3571C13.3878 11.0039 13.388 10.6507 13.3891 10.2975C13.3896 10.1158 13.3896 9.93409 13.3891 9.7524C13.3889 9.63944 13.3892 9.52649 13.3897 9.41354C13.3898 9.36121 13.3897 9.30888 13.3894 9.25655C13.389 9.18504 13.3893 9.11358 13.3899 9.04208C13.3899 8.98211 13.3899 8.98211 13.3899 8.92093C13.4125 8.76424 13.4802 8.66536 13.6031 8.56754C13.7066 8.52303 13.7868 8.51956 13.8994 8.51889C13.9402 8.51821 13.981 8.51752 14.023 8.51682C14.0659 8.51648 14.1087 8.51619 14.1516 8.51596C14.5728 8.52429 14.5728 8.52429 14.9309 8.33041C15.0304 8.21385 15.071 8.12889 15.0734 7.97495C15.0743 7.94961 15.0752 7.92427 15.0761 7.89816C15.0346 7.6525 14.8428 7.4869 14.6738 7.31927C14.647 7.29236 14.6203 7.26544 14.5927 7.2377C14.5187 7.16338 14.4445 7.08928 14.3701 7.01526C14.2899 6.93525 14.21 6.85497 14.13 6.77472C13.9734 6.61771 13.8165 6.46095 13.6596 6.30429C13.5321 6.17695 13.4046 6.04953 13.2772 5.92204C13.2591 5.90388 13.2409 5.88573 13.2222 5.86702C13.1854 5.83013 13.1485 5.79324 13.1117 5.75636C12.7662 5.41065 12.4205 5.06523 12.0747 4.71991C11.778 4.42365 11.4816 4.12714 11.1853 3.83045C10.8411 3.4858 10.4968 3.1413 10.1523 2.79704C10.1156 2.76033 10.0788 2.72362 10.0421 2.68691C10.024 2.66885 10.0059 2.65079 9.98731 2.63218C9.85997 2.50492 9.73275 2.37756 9.60557 2.25016C9.45059 2.09491 9.29543 1.93984 9.14007 1.78497C9.06082 1.70596 8.98164 1.62688 8.90266 1.5476C8.81705 1.46165 8.73107 1.37607 8.64506 1.29053C8.62016 1.26542 8.59525 1.2403 8.5696 1.21443C8.41092 1.05743 8.26739 0.924547 8.03242 0.924166C7.99526 0.923259 7.99526 0.923259 7.95735 0.922335C7.71286 0.967929 7.5484 1.15659 7.38065 1.32575Z" fill="#4F5051"/>
</g>
<defs>
<clipPath id="clip0_3024_121291">
<rect width="16" height="16" fill="white"/>
</clipPath>
</defs>
</svg>
