<svg width="18" height="18" viewBox="0 0 18 18" fill="none" xmlns="http://www.w3.org/2000/svg">
<path d="M2.95769 1.46765C3.01182 1.46752 3.06596 1.46736 3.1201 1.46717C3.26813 1.46674 3.41616 1.46675 3.5642 1.46683C3.72414 1.46685 3.88409 1.46646 4.04403 1.46613C4.35714 1.46554 4.67025 1.46535 4.98336 1.46531C5.238 1.46528 5.49264 1.46513 5.74728 1.46491C6.46996 1.46429 7.19263 1.46397 7.91531 1.46402C7.9737 1.46402 7.9737 1.46402 8.03327 1.46403C8.07225 1.46403 8.11122 1.46403 8.15138 1.46404C8.78275 1.46406 9.41412 1.46339 10.0455 1.4624C10.6945 1.46139 11.3435 1.46091 11.9925 1.46097C12.3566 1.46099 12.7206 1.4608 13.0847 1.46004C13.3947 1.4594 13.7048 1.45925 14.0148 1.45972C14.1728 1.45995 14.3308 1.45996 14.4888 1.45935C14.6338 1.45879 14.7788 1.4589 14.9238 1.45951C14.9759 1.45961 15.028 1.45949 15.0801 1.4591C15.6973 1.45473 16.2624 1.58049 16.7242 2.01539C17.0504 2.36395 17.26 2.81832 17.2606 3.29918C17.2607 3.34041 17.2609 3.38165 17.261 3.42414C17.261 3.4693 17.2609 3.51446 17.2609 3.56099C17.261 3.60957 17.2611 3.65814 17.2612 3.70672C17.2615 3.84019 17.2616 3.97366 17.2616 4.10713C17.2617 4.25109 17.2619 4.39505 17.2622 4.53901C17.2626 4.85383 17.2628 5.16865 17.263 5.48346C17.2631 5.68011 17.2633 5.87675 17.2634 6.07339C17.2638 6.61803 17.2642 7.16266 17.2643 7.7073C17.2643 7.74215 17.2643 7.77701 17.2643 7.81292C17.2643 7.84786 17.2644 7.88279 17.2644 7.91879C17.2644 7.98959 17.2644 8.06038 17.2644 8.13118C17.2644 8.16629 17.2644 8.20141 17.2644 8.23759C17.2646 8.80632 17.2652 9.37505 17.266 9.94379C17.2668 10.5279 17.2673 11.1121 17.2673 11.6962C17.2674 12.0241 17.2676 12.352 17.2682 12.6799C17.2687 12.9591 17.2689 13.2384 17.2686 13.5177C17.2685 13.6601 17.2685 13.8024 17.269 13.9448C17.2695 14.0754 17.2694 14.206 17.269 14.3366C17.2689 14.4057 17.2693 14.4748 17.2697 14.5439C17.2666 15.1155 17.1035 15.5693 16.7082 15.9864C16.2201 16.4485 15.6805 16.5348 15.0308 16.5333C14.9767 16.5335 14.9225 16.5336 14.8684 16.5338C14.7204 16.5342 14.5723 16.5342 14.4243 16.5342C14.2644 16.5341 14.1044 16.5345 13.9445 16.5349C13.6314 16.5354 13.3182 16.5356 13.0051 16.5357C12.7505 16.5357 12.4959 16.5359 12.2412 16.5361C11.5185 16.5367 10.7959 16.537 10.0732 16.537C10.0148 16.537 10.0148 16.537 9.95522 16.537C9.91625 16.537 9.87727 16.537 9.83712 16.537C9.20574 16.5369 8.57437 16.5376 7.943 16.5386C7.29401 16.5396 6.64501 16.5401 5.99602 16.54C5.63194 16.54 5.26787 16.5402 4.90379 16.5409C4.59376 16.5416 4.28373 16.5417 3.9737 16.5413C3.8157 16.541 3.65771 16.541 3.49972 16.5416C3.35471 16.5422 3.20972 16.5421 3.06472 16.5415C3.01262 16.5414 2.96053 16.5415 2.90843 16.5419C2.2912 16.5463 1.72605 16.4205 1.26427 15.9856C0.938111 15.637 0.7285 15.1827 0.727907 14.7018C0.727772 14.6606 0.727637 14.6193 0.727498 14.5769C0.727529 14.5317 0.727559 14.4865 0.727591 14.44C0.7275 14.3914 0.727394 14.3428 0.727274 14.2943C0.726991 14.1608 0.726927 14.0273 0.726902 13.8939C0.726836 13.7499 0.726571 13.6059 0.726334 13.462C0.725857 13.1472 0.725645 12.8323 0.72549 12.5175C0.725393 12.3209 0.725244 12.1242 0.725086 11.9276C0.724657 11.383 0.724295 10.8383 0.724176 10.2937C0.724168 10.2588 0.724161 10.224 0.724153 10.1881C0.724145 10.1531 0.724137 10.1182 0.724129 10.0822C0.724114 10.0114 0.724098 9.94061 0.724082 9.86981C0.724074 9.8347 0.724067 9.79958 0.724059 9.7634C0.72392 9.19467 0.723306 8.62593 0.722488 8.0572C0.721653 7.47305 0.721216 6.88889 0.721175 6.30474C0.721143 5.97686 0.720941 5.64898 0.720302 5.3211C0.71976 5.04184 0.719581 4.76258 0.719871 4.48332C0.720008 4.34093 0.719977 4.19855 0.719482 4.05617C0.719033 3.92558 0.719078 3.79501 0.719503 3.66443C0.719604 3.5953 0.719189 3.52618 0.71875 3.45705C0.721912 2.88545 0.885033 2.43171 1.28033 2.01456C1.76839 1.55253 2.30802 1.46615 2.95769 1.46765ZM1.84929 2.56978C1.60602 2.83036 1.5018 3.07726 1.50135 3.4356C1.50121 3.47591 1.50108 3.51621 1.50094 3.55773C1.50097 3.60184 1.501 3.64596 1.50103 3.69141C1.50094 3.73888 1.50083 3.78634 1.50071 3.83381C1.50043 3.96421 1.50037 4.09461 1.50034 4.225C1.50027 4.36566 1.50001 4.50631 1.49977 4.64697C1.49929 4.95451 1.49908 5.26206 1.49893 5.56961C1.49883 5.76168 1.49868 5.95376 1.49852 6.14583C1.49809 6.67774 1.49773 7.20965 1.49761 7.74156C1.49761 7.77559 1.4976 7.80963 1.49759 7.8447C1.49758 7.87882 1.49757 7.91294 1.49757 7.94809C1.49755 8.01723 1.49754 8.08636 1.49752 8.1555C1.49751 8.18979 1.4975 8.22409 1.4975 8.25942C1.49736 8.81502 1.49674 9.37061 1.49593 9.9262C1.49509 10.4968 1.49465 11.0673 1.49461 11.6379C1.49458 11.9582 1.49438 12.2785 1.49374 12.5988C1.4932 12.8715 1.49302 13.1443 1.49331 13.417C1.49345 13.5561 1.49341 13.6952 1.49292 13.8343C1.49247 13.9618 1.49252 14.0893 1.49294 14.2168C1.49304 14.2845 1.49263 14.3521 1.49219 14.4198C1.49439 14.8064 1.55724 15.1085 1.82237 15.3989C2.7606 16.3163 5.63258 15.7505 5.97081 15.7505C5.97081 11.2955 5.97081 6.84049 5.97081 2.25049C4.30161 1.9848 4.30161 1.9848 1.84929 2.56978ZM6.74425 2.25049C6.74425 6.70549 6.74425 11.1605 6.74425 15.7505C8.22925 15.7505 9.71425 15.7505 11.2442 15.7505C11.2442 11.2955 11.2442 6.84049 11.2442 2.25049C9.75925 2.25049 8.27425 2.25049 6.74425 2.25049ZM12.0177 2.25049C12.0177 6.70549 12.0177 11.1605 12.0177 15.7505C13.8498 16.0262 13.8498 16.0262 16.1689 15.4015C16.3966 15.1552 16.4867 14.9005 16.4872 14.5654C16.4874 14.5049 16.4874 14.5049 16.4876 14.4433C16.4875 14.3991 16.4875 14.355 16.4875 14.3096C16.4876 14.2621 16.4877 14.2146 16.4878 14.1672C16.4881 14.0368 16.4881 13.9064 16.4882 13.776C16.4882 13.6353 16.4885 13.4947 16.4887 13.354C16.4892 13.0465 16.4894 12.7389 16.4896 12.4314C16.4897 12.2393 16.4898 12.0472 16.49 11.8552C16.4904 11.3232 16.4908 10.7913 16.4909 10.2594C16.4909 10.2254 16.4909 10.1914 16.4909 10.1563C16.4909 10.1222 16.4909 10.088 16.4909 10.0529C16.4909 9.98376 16.491 9.91463 16.491 9.84549C16.491 9.81119 16.491 9.7769 16.491 9.74157C16.4911 9.18597 16.4918 8.63038 16.4926 8.07478C16.4934 7.50422 16.4938 6.93365 16.4939 6.36308C16.4939 6.04279 16.4941 5.7225 16.4948 5.40221C16.4953 5.12945 16.4955 4.8567 16.4952 4.58395C16.495 4.44484 16.4951 4.30575 16.4956 4.16665C16.496 4.03915 16.496 3.91166 16.4956 3.78416C16.4955 3.71652 16.4959 3.64888 16.4963 3.58124C16.4941 3.19463 16.4313 2.89253 16.1661 2.60206C15.2279 1.68468 12.3559 2.25049 12.0177 2.25049Z" fill="white"/>
<path d="M13.5337 10.4696C13.5686 10.4691 13.6034 10.4687 13.6394 10.4682C13.6769 10.468 13.7144 10.4677 13.753 10.4674C13.7918 10.4672 13.8307 10.4669 13.8707 10.4666C13.953 10.4661 14.0352 10.4657 14.1174 10.4654C14.2426 10.4648 14.3677 10.4633 14.4929 10.4617C14.5729 10.4614 14.6529 10.4611 14.733 10.4608C14.7701 10.4602 14.8073 10.4596 14.8455 10.459C15.105 10.4597 15.3387 10.4946 15.5337 10.679C15.7071 10.8708 15.7597 11.0191 15.7594 11.2786C15.7595 11.3053 15.7597 11.3319 15.7598 11.3593C15.76 11.4155 15.76 11.4717 15.7599 11.5279C15.7598 11.6135 15.7606 11.699 15.7615 11.7846C15.7616 11.8393 15.7616 11.8941 15.7616 11.9488C15.7619 11.9742 15.7622 11.9996 15.7625 12.0257C15.7606 12.2388 15.7014 12.3748 15.5664 12.5369C15.3096 12.7537 15.0843 12.7821 14.7534 12.7797C14.7124 12.7798 14.6713 12.7799 14.629 12.7801C14.5425 12.7802 14.4559 12.7799 14.3694 12.7793C14.2375 12.7786 14.1056 12.7793 13.9737 12.7802C13.8894 12.7801 13.805 12.7799 13.7207 12.7797C13.6815 12.7799 13.6423 12.7802 13.602 12.7805C13.3125 12.7771 13.117 12.7283 12.9077 12.5237C12.7096 12.2294 12.709 11.965 12.7122 11.6184C12.7118 11.5734 12.7114 11.5284 12.7109 11.482C12.7119 11.1616 12.7335 10.8895 12.9715 10.6516C13.1547 10.5249 13.3132 10.4721 13.5337 10.4696ZM13.4988 11.2493C13.4988 11.4929 13.4988 11.7365 13.4988 11.9875C13.9861 11.9875 14.4733 11.9875 14.9754 11.9875C14.9754 11.7439 14.9754 11.5003 14.9754 11.2493C14.4881 11.2493 14.0008 11.2493 13.4988 11.2493Z" fill="white"/>
<path d="M13.4763 7.47774C13.5316 7.4769 13.5316 7.4769 13.588 7.47604C13.6275 7.47585 13.6671 7.47566 13.7078 7.47547C13.7488 7.47515 13.7899 7.47483 13.8322 7.47451C13.919 7.474 14.0059 7.47369 14.0927 7.47356C14.2248 7.47314 14.3569 7.47141 14.489 7.46963C14.5735 7.4693 14.6581 7.46905 14.7427 7.46888C14.8014 7.46785 14.8014 7.46785 14.8613 7.4668C15.1209 7.46828 15.3224 7.51379 15.5377 7.6643C15.782 7.92083 15.7585 8.20424 15.7609 8.53408C15.7615 8.59112 15.7625 8.64816 15.7638 8.70519C15.7772 9.27725 15.7772 9.27725 15.6209 9.4782C15.605 9.49449 15.5892 9.51079 15.5728 9.52758C15.5561 9.54494 15.5393 9.5623 15.5221 9.58018C15.2929 9.79171 15.0419 9.7845 14.748 9.78425C14.6898 9.78447 14.6898 9.78447 14.6304 9.7847C14.5484 9.7849 14.4664 9.78492 14.3845 9.78477C14.2595 9.78466 14.1347 9.78548 14.0098 9.78638C13.9299 9.78646 13.8501 9.78648 13.7703 9.78644C13.7331 9.78677 13.696 9.78709 13.6578 9.78743C13.3661 9.78561 13.1162 9.74278 12.901 9.52758C12.7034 9.24185 12.7167 8.98159 12.7142 8.64428C12.7127 8.57671 12.7127 8.57671 12.7111 8.50777C12.7091 8.21463 12.7215 7.9292 12.9274 7.70177C13.0909 7.54998 13.2518 7.48035 13.4763 7.47774ZM13.4986 8.26195C13.4986 8.50559 13.4986 8.74922 13.4986 9.00023C13.9859 9.00023 14.4731 9.00023 14.9752 9.00023C14.9752 8.7566 14.9752 8.51297 14.9752 8.26195C14.4879 8.26195 14.0006 8.26195 13.4986 8.26195Z" fill="white"/>
<path d="M3.24349 7.46961C3.3051 7.46941 3.3051 7.46941 3.36795 7.4692C3.45447 7.46911 3.54098 7.46937 3.6275 7.46996C3.75943 7.47071 3.89131 7.46996 4.02324 7.46906C4.10756 7.46916 4.19188 7.46934 4.2762 7.46961C4.33499 7.46919 4.33499 7.46919 4.39497 7.46875C4.68438 7.47221 4.8799 7.52095 5.08919 7.72559C5.28728 8.01989 5.28789 8.28431 5.28475 8.63087C5.28516 8.67587 5.28556 8.72087 5.28598 8.76724C5.28509 9.05621 5.27745 9.28946 5.0848 9.51856C4.8782 9.69153 4.73107 9.77664 4.46322 9.77967C4.41092 9.78035 4.41092 9.78035 4.35757 9.78104C4.32007 9.7813 4.28257 9.78156 4.24393 9.78182C4.20508 9.78211 4.16624 9.78239 4.12621 9.78268C4.04397 9.78317 3.96173 9.78355 3.87949 9.78382C3.75433 9.78443 3.62921 9.78597 3.50407 9.78752C3.42403 9.78788 3.34399 9.78818 3.26395 9.78841C3.22681 9.78903 3.18966 9.78965 3.15139 9.79028C2.89195 9.78953 2.6582 9.75468 2.46324 9.57026C2.28979 9.37851 2.23723 9.23014 2.23755 8.97062C2.2374 8.94401 2.23725 8.9174 2.2371 8.88998C2.2369 8.83377 2.23688 8.77757 2.23703 8.72137C2.23714 8.6358 2.23632 8.55027 2.23542 8.4647C2.23534 8.40995 2.23532 8.3552 2.23536 8.30045C2.23487 8.26238 2.23487 8.26238 2.23438 8.22353C2.23631 8.01043 2.29547 7.87444 2.4305 7.71241C2.68734 7.49552 2.91258 7.46721 3.24349 7.46961ZM3.02157 8.26173C3.02157 8.50536 3.02157 8.74899 3.02157 9.00001C3.50883 9.00001 3.9961 9.00001 4.49813 9.00001C4.49813 8.75638 4.49813 8.51274 4.49813 8.26173C4.01086 8.26173 3.5236 8.26173 3.02157 8.26173Z" fill="white"/>
<path d="M13.4496 4.48946C13.4888 4.4889 13.528 4.48834 13.5684 4.48776C13.6106 4.48757 13.6528 4.48738 13.6963 4.48719C13.7617 4.48671 13.7617 4.48671 13.8285 4.48623C13.9208 4.48572 14.0131 4.4854 14.1054 4.48527C14.1998 4.48512 14.2941 4.48439 14.3884 4.48311C14.5246 4.48139 14.6609 4.48085 14.7971 4.4806C14.8391 4.47991 14.881 4.47922 14.9242 4.47852C15.1749 4.47987 15.347 4.50856 15.5393 4.67602C15.7164 4.86708 15.7615 5.01413 15.7645 5.27189C15.7649 5.29903 15.7653 5.32617 15.7657 5.35414C15.7664 5.41155 15.7668 5.46897 15.7671 5.52638C15.7678 5.61338 15.77 5.70025 15.7722 5.78721C15.7789 6.29143 15.7789 6.29143 15.5957 6.51929C15.428 6.68318 15.2704 6.75387 15.0346 6.75702C14.9961 6.75758 14.9576 6.75814 14.918 6.75873C14.7417 6.76029 14.5655 6.76173 14.3892 6.76254C14.2964 6.76312 14.2035 6.76408 14.1107 6.76543C13.9766 6.76736 13.8426 6.76812 13.7085 6.76864C13.6673 6.76943 13.626 6.77023 13.5834 6.77105C13.3007 6.77033 13.1251 6.71946 12.9196 6.52372C12.7008 6.28324 12.7137 6.01072 12.7137 5.70344C12.7136 5.63236 12.7123 5.56137 12.711 5.49031C12.7101 5.19843 12.7199 4.93628 12.93 4.7158C13.0927 4.56739 13.2261 4.49189 13.4496 4.48946ZM13.5002 5.27367C13.5002 5.5057 13.5002 5.73773 13.5002 5.9768C13.9875 5.9768 14.4747 5.9768 14.9768 5.9768C14.9768 5.74477 14.9768 5.51273 14.9768 5.27367C14.4895 5.27367 14.0022 5.27367 13.5002 5.27367Z" fill="white"/>
<path d="M8.20784 4.49351C8.24656 4.49318 8.28529 4.49284 8.32519 4.49249C8.38798 4.49227 8.38798 4.49227 8.45203 4.49204C8.51661 4.49174 8.51661 4.49174 8.58248 4.49143C8.67365 4.4911 8.76482 4.49087 8.85599 4.49073C8.99534 4.49039 9.13467 4.4893 9.27402 4.48819C9.36257 4.48796 9.45112 4.48778 9.53968 4.48764C9.60215 4.48699 9.60215 4.48699 9.66587 4.48633C9.92529 4.48703 10.0864 4.51151 10.2905 4.68155C10.5203 4.95378 10.538 5.19927 10.5348 5.54424C10.5344 5.61942 10.5356 5.69444 10.5369 5.76961C10.5385 6.05482 10.515 6.30143 10.3388 6.53824C10.1749 6.69306 10.0208 6.75327 9.79788 6.75484C9.73979 6.75535 9.73979 6.75535 9.68053 6.75587C9.61774 6.75609 9.61774 6.75609 9.55369 6.75632C9.51064 6.75652 9.46759 6.75672 9.42324 6.75693C9.33207 6.75726 9.24089 6.75749 9.14972 6.75762C9.01038 6.75797 8.87105 6.75906 8.7317 6.76017C8.64315 6.7604 8.55459 6.76058 8.46604 6.76071C8.4244 6.76115 8.38275 6.76158 8.33984 6.76203C8.08043 6.76133 7.91931 6.73684 7.71526 6.56681C7.48538 6.29458 7.46776 6.04909 7.47088 5.70412C7.47136 5.62894 7.47016 5.55392 7.46882 5.47875C7.4672 5.19354 7.49077 4.94693 7.66692 4.71012C7.83083 4.55529 7.98488 4.49508 8.20784 4.49351ZM8.26458 5.27262C8.26458 5.50465 8.26458 5.73668 8.26458 5.97574C8.75184 5.97574 9.23911 5.97574 9.74114 5.97574C9.74114 5.74371 9.74114 5.51168 9.74114 5.27262C9.25388 5.27262 8.76661 5.27262 8.26458 5.27262Z" fill="white"/>
<path d="M2.94258 4.48946C2.98179 4.4889 3.02099 4.48834 3.06138 4.48776C3.1036 4.48757 3.14583 4.48738 3.18933 4.48719C3.25475 4.48671 3.25475 4.48671 3.32149 4.48623C3.41381 4.48572 3.50613 4.4854 3.59845 4.48527C3.69278 4.48512 3.78707 4.48439 3.88138 4.48311C4.01765 4.48139 4.15388 4.48085 4.29016 4.4806C4.3321 4.47991 4.37404 4.47922 4.41725 4.47852C4.70168 4.48005 4.8787 4.52971 5.08554 4.72674C5.30436 4.96718 5.29148 5.23977 5.29141 5.54703C5.29156 5.61811 5.29284 5.6891 5.29417 5.76016C5.29504 6.05204 5.28521 6.31419 5.07518 6.53467C4.91378 6.6819 4.78061 6.75869 4.55881 6.76045C4.50106 6.76112 4.50106 6.76112 4.44215 6.76181C4.4007 6.76189 4.35924 6.76196 4.31653 6.76205C4.27369 6.76228 4.23086 6.76251 4.18673 6.76275C4.09607 6.76311 4.0054 6.76328 3.91474 6.76326C3.77647 6.76342 3.63823 6.76469 3.49997 6.76603C3.4118 6.76623 3.32364 6.76637 3.23547 6.76644C3.1943 6.76694 3.15313 6.76745 3.11071 6.76797C2.83767 6.76645 2.63103 6.73813 2.42866 6.53806C2.40467 6.50278 2.40467 6.50278 2.38019 6.46679C2.35524 6.43137 2.35524 6.43137 2.32979 6.39524C2.20973 6.19294 2.24434 5.93317 2.24263 5.70467C2.24205 5.64763 2.2411 5.59059 2.23975 5.53356C2.22634 4.96152 2.22634 4.96152 2.38394 4.75883C2.55501 4.58456 2.69711 4.49213 2.94258 4.48946ZM3.02838 5.27367C3.02838 5.5057 3.02838 5.73773 3.02838 5.9768C3.51565 5.9768 4.00291 5.9768 4.50494 5.9768C4.50494 5.74477 4.50494 5.51273 4.50494 5.27367C4.01768 5.27367 3.53041 5.27367 3.02838 5.27367Z" fill="white"/>
<path d="M13.2132 2.97796C13.2376 2.97772 13.262 2.97749 13.2871 2.97724C13.3677 2.97657 13.4482 2.97644 13.5288 2.97636C13.5849 2.97614 13.641 2.9759 13.6971 2.97565C13.8148 2.97523 13.9324 2.9751 14.0501 2.97514C14.2006 2.97515 14.351 2.97419 14.5015 2.97298C14.6174 2.9722 14.7333 2.97205 14.8492 2.97209C14.9047 2.97201 14.9602 2.9717 15.0156 2.97115C15.0934 2.97046 15.1711 2.97067 15.2489 2.97109C15.3151 2.97094 15.3151 2.97094 15.3827 2.97079C15.5259 2.99141 15.6024 3.03889 15.7144 3.1288C15.7797 3.25939 15.7702 3.40849 15.7496 3.55067C15.6726 3.64996 15.6149 3.70589 15.5035 3.76161C15.4244 3.76557 15.3451 3.76721 15.2659 3.76783C15.2415 3.76806 15.2171 3.76829 15.1919 3.76853C15.111 3.76923 15.03 3.76964 14.9491 3.76999C14.9215 3.77013 14.8938 3.77027 14.8653 3.77042C14.719 3.77115 14.5727 3.77166 14.4264 3.77199C14.2753 3.77238 14.1242 3.77358 13.9731 3.77498C13.8569 3.7759 13.7407 3.77619 13.6245 3.77632C13.5688 3.77649 13.5131 3.7769 13.4575 3.77755C13.3794 3.77841 13.3015 3.77838 13.2234 3.77813C13.1791 3.77834 13.1347 3.77854 13.089 3.77876C12.9516 3.75857 12.8947 3.71704 12.7965 3.62098C12.716 3.50605 12.7096 3.40759 12.7261 3.26942C12.8558 3.03702 12.9509 2.97955 13.2132 2.97796Z" fill="white"/>
<path d="M2.73339 2.98163C2.7578 2.9814 2.78222 2.98117 2.80738 2.98093C2.88833 2.98023 2.96928 2.97982 3.05023 2.97947C3.07787 2.97933 3.10551 2.97919 3.13399 2.97904C3.28031 2.97831 3.42663 2.9778 3.57295 2.97747C3.72404 2.97708 3.8751 2.97588 4.02619 2.97448C4.14239 2.97356 4.2586 2.97327 4.37481 2.97314C4.4305 2.97297 4.48618 2.97256 4.54187 2.97191C4.61989 2.97105 4.69786 2.97108 4.77588 2.97133C4.84243 2.97102 4.84243 2.97102 4.91032 2.9707C5.04776 2.99089 5.10461 3.03242 5.20286 3.12848C5.28332 3.24341 5.28976 3.34187 5.27318 3.48004C5.20146 3.60863 5.14998 3.67936 5.02708 3.76129C4.91972 3.77069 4.91972 3.77069 4.7861 3.7715C4.74955 3.77186 4.74955 3.77186 4.71226 3.77222C4.63167 3.77289 4.55108 3.77302 4.47049 3.7731C4.41439 3.77332 4.3583 3.77356 4.3022 3.77381C4.18455 3.77423 4.0669 3.77436 3.94925 3.77432C3.79875 3.77431 3.64828 3.77527 3.49779 3.77648C3.38189 3.77726 3.26598 3.77741 3.15007 3.77737C3.09461 3.77745 3.03915 3.77776 2.98369 3.77831C2.90593 3.779 2.82822 3.77879 2.75047 3.77837C2.68419 3.77852 2.68419 3.77852 2.61658 3.77867C2.47337 3.75805 2.39691 3.71057 2.28489 3.62066C2.2196 3.49007 2.22917 3.34097 2.24974 3.19879C2.39935 3.00587 2.49781 2.98347 2.73339 2.98163Z" fill="white"/>
<path d="M7.9727 2.98139C7.99706 2.9811 8.02142 2.98082 8.04652 2.98052C8.1273 2.97965 8.20808 2.97907 8.28887 2.97856C8.31647 2.97837 8.34406 2.97818 8.3725 2.97799C8.51863 2.97705 8.66476 2.97637 8.81089 2.97586C8.96166 2.97528 9.11241 2.97371 9.26317 2.97191C9.37923 2.97073 9.49528 2.97032 9.61134 2.97013C9.66691 2.96989 9.72247 2.96935 9.77802 2.96851C9.85596 2.9674 9.93382 2.9674 10.0118 2.96766C10.0561 2.96737 10.1003 2.96709 10.146 2.9668C10.3063 2.99513 10.3632 3.05019 10.4779 3.16395C10.5346 3.27746 10.534 3.39282 10.513 3.51552C10.452 3.62187 10.3782 3.70599 10.267 3.76161C10.188 3.76575 10.109 3.76758 10.03 3.76839C10.0056 3.76868 9.98124 3.76897 9.95614 3.76926C9.87536 3.77013 9.79458 3.77072 9.71379 3.77122C9.6862 3.77141 9.6586 3.7716 9.63016 3.77179C9.48403 3.77273 9.3379 3.77341 9.19177 3.77392C9.041 3.7745 8.89025 3.77608 8.73949 3.77787C8.62343 3.77905 8.50738 3.77946 8.39132 3.77966C8.33575 3.77989 8.28019 3.78043 8.22464 3.78127C8.1467 3.78238 8.06884 3.78238 7.9909 3.78212C7.92447 3.78255 7.92447 3.78255 7.85669 3.78298C7.69634 3.75466 7.63942 3.69959 7.52477 3.58583C7.46802 3.47232 7.46867 3.35696 7.48961 3.23427C7.61377 3.01791 7.7348 2.98383 7.9727 2.98139Z" fill="white"/>
</svg>
