<svg width="83" height="30" viewBox="0 0 83 30" fill="none" xmlns="http://www.w3.org/2000/svg">
<rect width="83" height="30" rx="3" fill="white"/>
<rect x="0.5" y="0.5" width="82" height="29" rx="2.5" stroke="black" stroke-opacity="0.15"/>
<path d="M11.3951 8.03125C9.04551 8.26855 6.9756 9.54883 5.72129 11.5352C4.28737 13.8027 4.20198 16.7412 5.50046 19.0879C6.43089 20.7725 7.95314 22.0264 9.79928 22.6328C10.5825 22.8877 11.2155 22.9844 12.1312 22.9844C13.0116 22.9814 13.6299 22.8906 14.3984 22.6475C15.5202 22.293 16.4978 21.7041 17.3546 20.875C18.0289 20.2217 18.4617 19.6328 18.871 18.8096C20.0634 16.416 19.8838 13.5918 18.394 11.3564C18.1231 10.9463 17.8493 10.6123 17.4665 10.2285C16.2917 9.04492 14.8371 8.31543 13.1618 8.06934C12.8026 8.0166 11.7573 7.99316 11.3951 8.03125ZM12.9616 8.80469C13.7418 8.90723 14.4249 9.1123 15.1051 9.44922C15.85 9.81543 16.4153 10.2256 16.9924 10.8174C18.2261 12.0889 18.8886 13.7207 18.8886 15.499C18.8886 16.7529 18.55 17.9688 17.914 19L17.7639 19.2461L17.5372 18.9473C17.1043 18.3672 16.4271 17.7344 15.8117 17.3389C15.4172 17.0811 14.7135 16.7441 14.2807 16.6035C14.0716 16.5361 13.8949 16.4717 13.889 16.457C13.8861 16.4453 13.9656 16.3662 14.0657 16.2812C15.1434 15.373 15.4378 13.8145 14.7665 12.5781C14.6222 12.3086 14.4926 12.1416 14.2424 11.8838C13.4974 11.1279 12.3639 10.8232 11.3215 11.1074C10.5 11.3301 9.7875 11.9219 9.40767 12.7012C9.20451 13.1143 9.13973 13.3779 9.12207 13.873C9.1044 14.3447 9.14857 14.6465 9.29284 15.042C9.45773 15.499 9.78161 15.9561 10.1732 16.2871C10.2792 16.375 10.3617 16.4541 10.3587 16.46C10.3558 16.4688 10.1762 16.5332 9.96122 16.6035C9.22512 16.8467 8.4478 17.2715 7.82948 17.7695C7.47321 18.0596 6.96971 18.5811 6.69588 18.9473L6.46917 19.2461L6.319 19.0029C5.83612 18.2207 5.5034 17.2627 5.38563 16.3223C5.33263 15.8887 5.33263 15.1064 5.38563 14.6787C5.70951 12.0947 7.49676 9.91797 9.96711 9.10352C10.4147 8.9541 10.8122 8.86328 11.2479 8.80469C11.666 8.75195 12.5405 8.75195 12.9616 8.80469ZM12.5523 11.7959C13.4179 11.9717 14.0863 12.6074 14.313 13.4629C14.3896 13.7617 14.3867 14.2686 14.3013 14.5703C14.1158 15.2207 13.6977 15.7246 13.1029 16.0117C12.7496 16.1846 12.5022 16.2402 12.1018 16.2373C11.7072 16.2373 11.4187 16.167 11.0889 15.9971C9.88761 15.376 9.49306 13.8877 10.2321 12.7656C10.7327 12.0039 11.666 11.6143 12.5523 11.7959ZM12.6318 17.0225C14.4455 17.1865 16.0738 18.1357 17.0926 19.6152C17.2221 19.8057 17.2604 19.8848 17.2398 19.9199C17.1868 20.0195 16.4772 20.6787 16.2063 20.8809C15.2287 21.6104 14.0716 22.0703 12.8673 22.208C12.5199 22.2461 11.719 22.2461 11.3569 22.2051C10.1762 22.0762 9.00724 21.6104 8.02675 20.8809C7.75587 20.6787 7.04627 20.0195 6.99327 19.9229C6.97266 19.8848 7.00799 19.8115 7.14049 19.6152C8.36241 17.834 10.4912 16.8291 12.6318 17.0225Z" fill="#4F5051"/>
<path d="M29.233 21V10.8182H32.6733C33.4721 10.8182 34.125 10.9624 34.6321 11.2507C35.1425 11.5357 35.5204 11.9219 35.7656 12.4091C36.0109 12.8963 36.1335 13.4399 36.1335 14.0398C36.1335 14.6397 36.0109 15.1849 35.7656 15.6754C35.5237 16.166 35.1491 16.5571 34.642 16.8487C34.1349 17.1371 33.4853 17.2812 32.6932 17.2812H30.2273V16.1875H32.6534C33.2003 16.1875 33.6394 16.093 33.9709 15.9041C34.3023 15.7152 34.5426 15.46 34.6918 15.1385C34.8442 14.8137 34.9205 14.4474 34.9205 14.0398C34.9205 13.6321 34.8442 13.2675 34.6918 12.946C34.5426 12.6245 34.3007 12.3726 33.9659 12.1903C33.6312 12.0047 33.187 11.9119 32.6335 11.9119H30.4659V21H29.233ZM41.0803 21.1591C40.3445 21.1591 39.7098 20.9967 39.1761 20.6719C38.6458 20.3438 38.2365 19.8864 37.9482 19.2997C37.6631 18.7098 37.5206 18.0237 37.5206 17.2415C37.5206 16.4593 37.6631 15.7699 37.9482 15.1733C38.2365 14.5734 38.6375 14.1061 39.1513 13.7713C39.6683 13.4332 40.2715 13.2642 40.9609 13.2642C41.3587 13.2642 41.7514 13.3305 42.1392 13.4631C42.527 13.5956 42.88 13.8111 43.1982 14.1094C43.5163 14.4044 43.7699 14.7955 43.9588 15.2827C44.1477 15.7699 44.2422 16.3698 44.2422 17.0824V17.5795H38.3558V16.5653H43.049C43.049 16.1345 42.9628 15.75 42.7905 15.4119C42.6214 15.0739 42.3795 14.8071 42.0646 14.6115C41.7531 14.416 41.3852 14.3182 40.9609 14.3182C40.4936 14.3182 40.0893 14.4342 39.7479 14.6662C39.4098 14.8949 39.1496 15.1932 38.9673 15.5611C38.785 15.929 38.6939 16.3234 38.6939 16.7443V17.4205C38.6939 17.9972 38.7933 18.486 38.9922 18.8871C39.1944 19.2848 39.4744 19.5881 39.8324 19.7969C40.1903 20.0024 40.6063 20.1051 41.0803 20.1051C41.3885 20.1051 41.6669 20.062 41.9155 19.9759C42.1674 19.8864 42.3845 19.7538 42.5668 19.5781C42.7491 19.3991 42.8899 19.1771 42.9893 18.9119L44.1229 19.2301C44.0036 19.6146 43.803 19.9527 43.5213 20.2443C43.2396 20.5327 42.8916 20.758 42.4773 20.9205C42.063 21.0795 41.5973 21.1591 41.0803 21.1591ZM46.027 21V13.3636H47.1605V14.517H47.2401C47.3793 14.1392 47.6312 13.8326 47.9957 13.5973C48.3603 13.362 48.7713 13.2443 49.2287 13.2443C49.3149 13.2443 49.4226 13.246 49.5518 13.2493C49.6811 13.2526 49.7789 13.2576 49.8452 13.2642V14.4574C49.8054 14.4474 49.7143 14.4325 49.5717 14.4126C49.4325 14.3894 49.285 14.3778 49.1293 14.3778C48.758 14.3778 48.4266 14.4557 48.1349 14.6115C47.8466 14.764 47.6179 14.9761 47.4489 15.2479C47.2831 15.5163 47.2003 15.8229 47.2003 16.1676V21H46.027ZM56.6451 15.0739L55.5911 15.3722C55.5248 15.1965 55.427 15.0258 55.2978 14.8601C55.1718 14.6911 54.9995 14.5518 54.7807 14.4425C54.562 14.3331 54.2819 14.2784 53.9405 14.2784C53.4732 14.2784 53.0837 14.3861 52.7722 14.6016C52.464 14.8137 52.3098 15.0838 52.3098 15.4119C52.3098 15.7036 52.4159 15.9339 52.628 16.103C52.8401 16.272 53.1716 16.4129 53.6223 16.5256L54.7559 16.804C55.4386 16.9697 55.9474 17.2232 56.2821 17.5646C56.6169 17.9027 56.7843 18.3385 56.7843 18.8722C56.7843 19.3097 56.6583 19.7008 56.4064 20.0455C56.1578 20.3902 55.8098 20.6619 55.3624 20.8608C54.915 21.0597 54.3946 21.1591 53.8013 21.1591C53.0224 21.1591 52.3778 20.9901 51.8674 20.652C51.3569 20.3139 51.0338 19.8201 50.8979 19.1705L52.0115 18.892C52.1176 19.303 52.3181 19.6113 52.6131 19.8168C52.9114 20.0223 53.3008 20.125 53.7814 20.125C54.3283 20.125 54.7625 20.009 55.084 19.777C55.4088 19.5417 55.5712 19.2599 55.5712 18.9318C55.5712 18.6667 55.4784 18.4446 55.2928 18.2656C55.1072 18.0833 54.8221 17.9474 54.4377 17.858L53.165 17.5597C52.4656 17.3939 51.9519 17.1371 51.6238 16.7891C51.2989 16.4377 51.1365 15.9986 51.1365 15.4716C51.1365 15.0407 51.2575 14.6596 51.4995 14.3281C51.7447 13.9967 52.0778 13.7365 52.4988 13.5476C52.923 13.3587 53.4036 13.2642 53.9405 13.2642C54.6962 13.2642 55.2895 13.4299 55.7203 13.7614C56.1545 14.0928 56.4628 14.5303 56.6451 15.0739ZM61.6527 21.1591C60.9633 21.1591 60.3584 20.995 59.8381 20.6669C59.321 20.3388 58.9167 19.8797 58.625 19.2898C58.3366 18.6998 58.1925 18.0104 58.1925 17.2216C58.1925 16.4261 58.3366 15.7318 58.625 15.1385C58.9167 14.5452 59.321 14.0845 59.8381 13.7564C60.3584 13.4283 60.9633 13.2642 61.6527 13.2642C62.3421 13.2642 62.9453 13.4283 63.4624 13.7564C63.9827 14.0845 64.3871 14.5452 64.6754 15.1385C64.9671 15.7318 65.1129 16.4261 65.1129 17.2216C65.1129 18.0104 64.9671 18.6998 64.6754 19.2898C64.3871 19.8797 63.9827 20.3388 63.4624 20.6669C62.9453 20.995 62.3421 21.1591 61.6527 21.1591ZM61.6527 20.1051C62.1764 20.1051 62.6072 19.9709 62.9453 19.7024C63.2834 19.4339 63.5336 19.081 63.696 18.6435C63.8584 18.206 63.9396 17.732 63.9396 17.2216C63.9396 16.7112 63.8584 16.2356 63.696 15.7947C63.5336 15.3539 63.2834 14.9976 62.9453 14.7259C62.6072 14.4541 62.1764 14.3182 61.6527 14.3182C61.129 14.3182 60.6982 14.4541 60.3601 14.7259C60.022 14.9976 59.7718 15.3539 59.6094 15.7947C59.447 16.2356 59.3658 16.7112 59.3658 17.2216C59.3658 17.732 59.447 18.206 59.6094 18.6435C59.7718 19.081 60.022 19.4339 60.3601 19.7024C60.6982 19.9709 61.129 20.1051 61.6527 20.1051ZM68.0772 16.4062V21H66.9039V13.3636H68.0375V14.5568H68.1369C68.3159 14.169 68.5877 13.8575 68.9522 13.6222C69.3168 13.3835 69.7875 13.2642 70.3642 13.2642C70.8812 13.2642 71.3336 13.3703 71.7214 13.5824C72.1092 13.7912 72.4108 14.1094 72.6262 14.5369C72.8417 14.9612 72.9494 15.4981 72.9494 16.1477V21H71.7761V16.2273C71.7761 15.6274 71.6203 15.16 71.3088 14.8253C70.9972 14.4872 70.5697 14.3182 70.0261 14.3182C69.6516 14.3182 69.3168 14.3994 69.0218 14.5618C68.7302 14.7242 68.4998 14.9612 68.3308 15.2727C68.1618 15.5843 68.0772 15.9621 68.0772 16.4062Z" fill="#4F5051"/>
</svg>
