<svg width="16" height="16" viewBox="0 0 16 16" fill="none" xmlns="http://www.w3.org/2000/svg">
<g clip-path="url(#clip0_3024_121190)">
<path d="M2.59702 -0.0162144C2.64582 -0.0163588 2.69461 -0.0165576 2.74341 -0.0168053C2.87613 -0.0173225 3.00884 -0.0170713 3.14156 -0.016682C3.28522 -0.0163974 3.42888 -0.0168366 3.57255 -0.0171795C3.85345 -0.0177336 4.13434 -0.0176161 4.41524 -0.017253C4.64365 -0.0169699 4.87207 -0.0169327 5.10048 -0.0170684C5.13307 -0.0170876 5.16565 -0.0171067 5.19923 -0.0171265C5.26543 -0.0171664 5.33164 -0.017207 5.39785 -0.017248C6.0178 -0.017604 6.63775 -0.0171955 7.25769 -0.016523C7.78893 -0.0159646 8.32017 -0.0160616 8.8514 -0.0166378C9.46923 -0.0173077 10.087 -0.0175696 10.7049 -0.0171863C10.7708 -0.0171465 10.8368 -0.0171072 10.9027 -0.0170684C10.9514 -0.0170395 10.9514 -0.0170395 11.0011 -0.01701C11.229 -0.0169023 11.457 -0.0170836 11.685 -0.0173784C11.9631 -0.01773 12.2411 -0.0176319 12.5192 -0.0169683C12.6609 -0.0166411 12.8026 -0.0165088 12.9443 -0.0169244C13.0743 -0.0173 13.2043 -0.0170872 13.3343 -0.0164272C13.381 -0.0162889 13.4278 -0.0163557 13.4745 -0.0166617C13.8856 -0.0191444 14.2718 0.0484435 14.6383 0.243799C14.6591 0.254527 14.6798 0.265255 14.7012 0.276308C14.9351 0.400484 15.1337 0.555698 15.3141 0.749659C15.3349 0.770324 15.3558 0.790989 15.3772 0.812281C15.6852 1.13075 15.8648 1.50886 15.9704 1.93716C15.9759 1.95906 15.9814 1.98097 15.987 2.00354C16.0068 2.12533 16.0065 2.24591 16.0066 2.36893C16.0068 2.39669 16.0069 2.42444 16.0071 2.45304C16.0076 2.54604 16.0079 2.63905 16.0081 2.73205C16.0084 2.79873 16.0087 2.86542 16.0091 2.9321C16.01 3.15107 16.0107 3.37004 16.0113 3.58901C16.0114 3.62628 16.0115 3.66355 16.0116 3.70194C16.0125 4.05342 16.0134 4.40491 16.0139 4.75639C16.0146 5.20582 16.0159 5.65524 16.0181 6.10467C16.0195 6.42079 16.0203 6.7369 16.0205 7.05301C16.0207 7.24178 16.0211 7.43054 16.0224 7.6193C16.0235 7.79691 16.0238 7.97449 16.0234 8.1521C16.0234 8.21719 16.0237 8.28228 16.0244 8.34736C16.0302 8.94164 16.0302 8.94164 15.8635 9.14084C15.6754 9.31725 15.5218 9.33605 15.2658 9.32815C15.1039 9.30416 14.9883 9.24409 14.8766 9.12466C14.763 8.95619 14.7334 8.84005 14.7358 8.63892C14.7356 8.61284 14.7354 8.58675 14.7352 8.55988C14.7348 8.4729 14.7351 8.38594 14.7355 8.29895C14.7354 8.23641 14.7351 8.17387 14.7349 8.11134C14.7344 7.97683 14.7343 7.84234 14.7345 7.70783C14.7349 7.49492 14.7343 7.28202 14.7336 7.06911C14.7327 6.73211 14.7323 6.39512 14.7322 6.05813C14.732 5.45526 14.7311 4.8524 14.7296 4.24954C14.7291 4.03814 14.7289 3.82674 14.729 3.61534C14.729 3.48346 14.7288 3.35159 14.7285 3.21971C14.7284 3.15884 14.7284 3.09797 14.7285 3.0371C14.7297 2.51084 14.7249 2.02683 14.346 1.61904C13.9724 1.28236 13.5324 1.27615 13.0565 1.27673C13.0111 1.27667 12.9658 1.2766 12.9205 1.27652C12.7964 1.27632 12.6722 1.27633 12.5481 1.27637C12.4141 1.27637 12.28 1.2762 12.146 1.27605C11.8836 1.27579 11.6211 1.27571 11.3587 1.27569C11.1453 1.27567 10.9319 1.27561 10.7185 1.27551C10.1132 1.27523 9.50782 1.27509 8.90248 1.27511C8.85356 1.27512 8.85356 1.27512 8.80364 1.27512C8.77099 1.27512 8.73833 1.27512 8.70468 1.27512C8.17551 1.27513 7.64633 1.27484 7.11715 1.27439C6.57346 1.27395 6.02978 1.27373 5.48609 1.27376C5.18098 1.27377 4.87588 1.27368 4.57077 1.27335C4.31099 1.27306 4.05121 1.27299 3.79143 1.2732C3.65898 1.27331 3.52653 1.27331 3.39408 1.27304C3.27263 1.27279 3.15119 1.27284 3.02975 1.27311C2.98601 1.27316 2.94227 1.2731 2.89853 1.27293C2.41466 1.27112 1.98879 1.31356 1.621 1.6553C1.28431 2.02883 1.2781 2.46885 1.27868 2.9448C1.27862 2.99012 1.27855 3.03544 1.27847 3.08077C1.27828 3.20489 1.27828 3.32902 1.27832 3.45315C1.27832 3.58719 1.27815 3.72122 1.278 3.85526C1.27774 4.11771 1.27766 4.38016 1.27764 4.64261C1.27763 4.856 1.27756 5.06939 1.27746 5.28278C1.27719 5.88811 1.27704 6.49345 1.27707 7.09879C1.27707 7.14771 1.27707 7.14771 1.27707 7.19763C1.27707 7.24661 1.27707 7.24661 1.27707 7.29659C1.27709 7.82576 1.27679 8.35494 1.27635 8.88412C1.2759 9.42781 1.27568 9.97149 1.27571 10.5152C1.27572 10.8203 1.27564 11.1254 1.2753 11.4305C1.27501 11.6903 1.27495 11.9501 1.27516 12.2098C1.27526 12.3423 1.27526 12.4747 1.27499 12.6072C1.27474 12.7286 1.27479 12.8501 1.27506 12.9715C1.27511 13.0153 1.27505 13.059 1.27488 13.1027C1.27307 13.5866 1.31552 14.0125 1.65725 14.3803C1.98102 14.6721 2.36352 14.7237 2.78248 14.7221C2.80968 14.7221 2.83687 14.7221 2.86489 14.7222C2.95545 14.7222 3.046 14.722 3.13655 14.7218C3.20171 14.7218 3.26687 14.7219 3.33203 14.7219C3.47207 14.7219 3.61211 14.7219 3.75216 14.7218C3.97371 14.7217 4.19525 14.7219 4.4168 14.7223C4.45424 14.7224 4.49167 14.7225 4.53023 14.7225C4.60676 14.7226 4.68328 14.7228 4.75981 14.7229C5.27538 14.7238 5.79095 14.7244 6.30652 14.7239C6.65462 14.7235 7.00272 14.7238 7.35082 14.7249C7.5349 14.7254 7.71897 14.7256 7.90306 14.725C8.07618 14.7244 8.24927 14.7247 8.42239 14.7257C8.48582 14.7259 8.54924 14.7258 8.61267 14.7253C9.19159 14.7214 9.19159 14.7214 9.39223 14.8878C9.5431 15.0466 9.57266 15.1535 9.58364 15.3708C9.57803 15.5527 9.54469 15.6691 9.43899 15.8163C9.25838 15.9853 9.10539 16.018 8.86659 16.0155C8.83789 16.0157 8.8092 16.0159 8.77963 16.0161C8.6838 16.0166 8.58799 16.0162 8.49215 16.0158C8.4233 16.016 8.35445 16.0162 8.28559 16.0165C8.09873 16.0171 7.91186 16.0168 7.72499 16.0164C7.52911 16.0161 7.33322 16.0164 7.13733 16.0166C6.78703 16.0169 6.43673 16.0165 6.08643 16.0158C5.76966 16.0153 5.4529 16.0154 5.13613 16.016C4.76763 16.0166 4.39912 16.0169 4.03061 16.0165C3.8358 16.0163 3.64099 16.0163 3.44618 16.0167C3.26273 16.0171 3.07929 16.0168 2.89584 16.0161C2.82881 16.0159 2.76179 16.016 2.69476 16.0162C2.21984 16.018 1.79247 15.9836 1.36489 15.7555C1.344 15.7447 1.3231 15.7338 1.30158 15.7226C1.13443 15.6334 0.98538 15.5342 0.845362 15.4059C0.817123 15.3802 0.788885 15.3544 0.75979 15.3279C0.302009 14.8912 0.00800052 14.3032 -0.0141185 13.6651C-0.0152435 13.5781 -0.0148306 13.4912 -0.0142613 13.4042C-0.0144057 13.3555 -0.0146044 13.3067 -0.0148521 13.2579C-0.0153693 13.1251 -0.0151181 12.9924 -0.0147288 12.8597C-0.0144442 12.716 -0.0148835 12.5724 -0.0152264 12.4287C-0.0157804 12.1478 -0.015663 11.8669 -0.0152998 11.586C-0.0150168 11.3576 -0.0149795 11.1292 -0.0151153 10.9008C-0.0151345 10.8682 -0.0151535 10.8356 -0.0151732 10.802C-0.0152132 10.7358 -0.0152537 10.6696 -0.0152948 10.6034C-0.0156507 9.98347 -0.0152423 9.36352 -0.0145698 8.74358C-0.0140114 8.21234 -0.0141085 7.6811 -0.0146847 7.14987C-0.0153546 6.53204 -0.0156164 5.91422 -0.0152331 5.2964C-0.0151933 5.23044 -0.0151541 5.16449 -0.0151153 5.09853C-0.015096 5.06608 -0.0150768 5.03364 -0.0150569 5.00021C-0.0149492 4.77223 -0.0151305 4.54425 -0.0154252 4.31627C-0.0157768 4.03821 -0.0156788 3.76015 -0.0150152 3.48208C-0.014688 3.34038 -0.0145556 3.19868 -0.0149713 3.05697C-0.0153468 2.92697 -0.0151342 2.79698 -0.0144742 2.66698C-0.0143359 2.62024 -0.0144025 2.57349 -0.0147086 2.52675C-0.0171914 2.11561 0.0504265 1.72949 0.245752 1.36294C0.26181 1.3318 0.26181 1.3318 0.278192 1.30004C0.36673 1.13302 0.471618 0.986303 0.595362 0.843409C0.614013 0.818634 0.632664 0.79386 0.65188 0.768335C1.13288 0.198161 1.87701 -0.0209283 2.59702 -0.0162144Z" fill="#4F5051"/>
<path d="M14.0623 10.0019C14.1383 10.0616 14.2108 10.1237 14.2831 10.1879C14.3145 10.2127 14.3145 10.2127 14.3466 10.2379C14.8411 10.6364 15.1678 11.2826 15.2518 11.9066C15.3084 12.5622 15.2415 13.1494 14.9192 13.7259C14.8677 13.8155 14.8677 13.8155 14.8768 13.9379C14.9135 13.992 14.9135 13.992 14.9667 14.0404C14.9863 14.0597 15.0059 14.079 15.0261 14.0989C15.0476 14.1195 15.0691 14.14 15.0912 14.1612C15.1131 14.1827 15.135 14.2042 15.1576 14.2263C15.2278 14.2952 15.2984 14.3637 15.369 14.432C15.4392 14.5001 15.5093 14.5683 15.5792 14.6368C15.6226 14.6794 15.6663 14.7217 15.7102 14.7639C15.8609 14.9115 15.9831 15.0498 16.0206 15.2638C16.0224 15.5185 15.9966 15.6899 15.8143 15.8754C15.6472 16.0182 15.489 16.0167 15.2736 16.0231C15.0096 15.9712 14.813 15.7625 14.6306 15.5758C14.6088 15.5539 14.587 15.532 14.5646 15.5094C14.4959 15.4402 14.4276 15.3707 14.3593 15.3012C14.3124 15.2538 14.2655 15.2065 14.2186 15.1592C14.1044 15.044 13.9906 14.9285 13.8768 14.8129C13.8436 14.8278 13.8103 14.8427 13.7761 14.8581C13.7314 14.8779 13.6868 14.8977 13.6421 14.9175C13.6094 14.9322 13.6094 14.9322 13.576 14.9472C12.9291 15.2332 12.1429 15.2671 11.4751 15.0265C11.1445 14.8978 10.8619 14.7368 10.5956 14.5004C10.5747 14.4839 10.5537 14.4674 10.5321 14.4503C10.0376 14.0519 9.7109 13.4057 9.62685 12.7816C9.56038 12.0111 9.67216 11.2622 10.1601 10.641C10.2008 10.5939 10.2418 10.547 10.2831 10.5004C10.2996 10.4795 10.3161 10.4585 10.3331 10.4369C11.2099 9.34855 12.9511 9.22658 14.0623 10.0019ZM11.7831 10.9379C11.7563 10.9515 11.7295 10.9651 11.7019 10.9792C11.3957 11.1482 11.1908 11.3777 11.0331 11.6879C11.0201 11.7124 11.0072 11.737 10.9938 11.7622C10.8439 12.0971 10.8505 12.5396 10.9745 12.8813C11.1537 13.2745 11.398 13.5521 11.7831 13.7504C11.82 13.7699 11.82 13.7699 11.8576 13.7898C12.1925 13.9395 12.6348 13.9331 12.9765 13.809C13.3697 13.6298 13.6473 13.3855 13.8456 13.0004C13.8651 12.9635 13.8651 12.9635 13.885 12.9259C14.0267 12.6087 14.0311 12.1686 13.9198 11.8402C13.8967 11.7887 13.872 11.7378 13.8456 11.6879C13.832 11.6611 13.8184 11.6343 13.8043 11.6067C13.6353 11.3005 13.4058 11.0956 13.0956 10.9379C13.0711 10.9249 13.0465 10.912 13.0213 10.8986C12.6519 10.7333 12.1393 10.7496 11.7831 10.9379Z" fill="#4F5051"/>
<path d="M6.90133 7.26473C6.93691 7.26437 6.93691 7.26437 6.97322 7.26401C7.05222 7.26337 7.13119 7.26361 7.21019 7.26386C7.26703 7.26359 7.32387 7.26326 7.38071 7.26289C7.53477 7.26206 7.68882 7.26202 7.84288 7.26218C7.97164 7.26224 8.10039 7.26194 8.22915 7.26164C8.53299 7.26095 8.83683 7.26092 9.14067 7.2613C9.45379 7.26167 9.76689 7.2609 10.08 7.25957C10.3491 7.25847 10.6183 7.2581 10.8874 7.2583C11.048 7.25841 11.2086 7.25825 11.3692 7.25738C11.5203 7.25659 11.6714 7.25672 11.8225 7.25753C11.8778 7.25768 11.9331 7.25751 11.9884 7.25699C12.4925 7.25262 12.4925 7.25262 12.7004 7.41917C12.8559 7.5739 12.8836 7.68605 12.8945 7.90212C12.8889 8.08409 12.8556 8.20044 12.7499 8.34768C12.5884 8.49875 12.4418 8.54969 12.2237 8.54732C12.1881 8.54768 12.1881 8.54768 12.1518 8.54804C12.0728 8.54869 11.9938 8.54844 11.9148 8.54819C11.858 8.54846 11.8011 8.54879 11.7443 8.54916C11.5902 8.55 11.4362 8.55003 11.2821 8.54988C11.1534 8.54981 11.0246 8.55011 10.8959 8.55041C10.592 8.55111 10.2882 8.55113 9.98433 8.55076C9.67121 8.55038 9.35811 8.55115 9.04499 8.55248C8.77585 8.55358 8.50671 8.55395 8.23757 8.55375C8.07696 8.55364 7.91636 8.5538 7.75575 8.55467C7.60466 8.55546 7.4536 8.55533 7.30252 8.55452C7.2472 8.55437 7.19189 8.55454 7.13658 8.55506C6.63249 8.55943 6.63249 8.55943 6.42458 8.39288C6.26913 8.23815 6.24139 8.126 6.23047 7.90993C6.23608 7.72796 6.26942 7.61161 6.37512 7.46438C6.53663 7.3133 6.68316 7.26237 6.90133 7.26473Z" fill="#4F5051"/>
<path d="M6.90133 3.51473C6.93691 3.51437 6.93691 3.51437 6.97322 3.51401C7.05222 3.51337 7.13119 3.51361 7.21019 3.51386C7.26703 3.51359 7.32387 3.51326 7.38071 3.51289C7.53477 3.51206 7.68882 3.51202 7.84288 3.51218C7.97164 3.51224 8.10039 3.51194 8.22915 3.51164C8.53299 3.51095 8.83683 3.51092 9.14067 3.5113C9.45379 3.51167 9.76689 3.5109 10.08 3.50957C10.3491 3.50847 10.6183 3.5081 10.8874 3.5083C11.048 3.50841 11.2086 3.50825 11.3692 3.50738C11.5203 3.50659 11.6714 3.50672 11.8225 3.50753C11.8778 3.50768 11.9331 3.50751 11.9884 3.50699C12.4925 3.50262 12.4925 3.50262 12.7004 3.66917C12.8559 3.8239 12.8836 3.93605 12.8945 4.15212C12.8889 4.33409 12.8556 4.45044 12.7499 4.59768C12.5884 4.74875 12.4418 4.79969 12.2237 4.79732C12.1881 4.79768 12.1881 4.79768 12.1518 4.79804C12.0728 4.79869 11.9938 4.79844 11.9148 4.79819C11.858 4.79846 11.8011 4.79879 11.7443 4.79916C11.5902 4.8 11.4362 4.80003 11.2821 4.79988C11.1534 4.79981 11.0246 4.80011 10.8959 4.80041C10.592 4.80111 10.2882 4.80113 9.98433 4.80076C9.67121 4.80038 9.35811 4.80115 9.04499 4.80248C8.77585 4.80358 8.50671 4.80395 8.23757 4.80375C8.07696 4.80364 7.91636 4.8038 7.75575 4.80467C7.60466 4.80546 7.4536 4.80533 7.30252 4.80452C7.2472 4.80437 7.19189 4.80454 7.13658 4.80506C6.63249 4.80943 6.63249 4.80943 6.42458 4.64288C6.26913 4.48815 6.24139 4.376 6.23047 4.15993C6.23608 3.97796 6.26942 3.86161 6.37512 3.71438C6.53663 3.5633 6.68316 3.51237 6.90133 3.51473Z" fill="#4F5051"/>
<path d="M6.95666 11.2312C6.98481 11.2309 7.01297 11.2307 7.04198 11.2304C7.10128 11.23 7.16059 11.23 7.21989 11.2303C7.30997 11.2305 7.39992 11.229 7.48998 11.2274C8.01021 11.2239 8.01021 11.2239 8.20569 11.388C8.38161 11.5767 8.40072 11.7296 8.39282 11.9858C8.36882 12.1477 8.30876 12.2633 8.18932 12.375C8.01308 12.496 7.88349 12.5193 7.67199 12.5188C7.62976 12.5192 7.62976 12.5192 7.58667 12.5196C7.52737 12.52 7.46806 12.52 7.40876 12.5197C7.31868 12.5195 7.22873 12.521 7.13867 12.5226C6.61844 12.5261 6.61844 12.5261 6.42296 12.362C6.24704 12.1733 6.22793 12.0204 6.23583 11.7642C6.25982 11.6023 6.31989 11.4867 6.43932 11.375C6.61557 11.254 6.74516 11.2308 6.95666 11.2312Z" fill="#4F5051"/>
<path d="M3.77345 11.2315C3.79605 11.2312 3.81866 11.231 3.84195 11.2307C3.88948 11.2303 3.93702 11.2303 3.98455 11.2306C4.05654 11.2308 4.12836 11.2293 4.20033 11.2277C4.46587 11.2254 4.67421 11.2428 4.8733 11.4378C5.01657 11.6055 5.021 11.7688 5.01429 11.9861C4.9903 12.148 4.93024 12.2636 4.8108 12.3753C4.65429 12.479 4.53765 12.5196 4.34815 12.5191C4.32555 12.5194 4.30294 12.5196 4.27965 12.5199C4.23212 12.5203 4.18458 12.5203 4.13705 12.52C4.06506 12.5198 3.99324 12.5213 3.92127 12.5229C3.65573 12.5251 3.44739 12.5078 3.2483 12.3128C3.10503 12.1451 3.1006 11.9818 3.10731 11.7645C3.1313 11.6026 3.19137 11.487 3.3108 11.3753C3.46731 11.2716 3.58395 11.231 3.77345 11.2315Z" fill="#4F5051"/>
<path d="M3.77345 7.26275C3.79605 7.26248 3.81866 7.26221 3.84195 7.26193C3.88948 7.26158 3.93702 7.26154 3.98455 7.26182C4.05654 7.26201 4.12836 7.26055 4.20033 7.25896C4.46587 7.2567 4.67421 7.27408 4.8733 7.46905C5.01657 7.63677 5.021 7.80003 5.01429 8.01739C4.9903 8.17928 4.93024 8.29482 4.8108 8.40655C4.65429 8.51027 4.53765 8.55085 4.34815 8.55034C4.32555 8.55061 4.30294 8.55088 4.27965 8.55116C4.23212 8.55151 4.18458 8.55155 4.13705 8.55127C4.06506 8.55108 3.99324 8.55254 3.92127 8.55413C3.65573 8.55639 3.44739 8.53901 3.2483 8.34405C3.10503 8.17632 3.1006 8.01307 3.10731 7.79571C3.1313 7.63381 3.19137 7.51827 3.3108 7.40655C3.46731 7.30282 3.58395 7.26224 3.77345 7.26275Z" fill="#4F5051"/>
<path d="M3.77345 3.51275C3.79605 3.51248 3.81866 3.51221 3.84195 3.51193C3.88948 3.51158 3.93702 3.51154 3.98455 3.51182C4.05654 3.51201 4.12836 3.51055 4.20033 3.50896C4.46587 3.5067 4.67421 3.52408 4.8733 3.71905C5.01657 3.88677 5.021 4.05003 5.01429 4.26739C4.9903 4.42928 4.93024 4.54482 4.8108 4.65655C4.65429 4.76027 4.53765 4.80085 4.34815 4.80034C4.32555 4.80061 4.30294 4.80088 4.27965 4.80116C4.23212 4.80151 4.18458 4.80155 4.13705 4.80127C4.06506 4.80108 3.99324 4.80254 3.92127 4.80413C3.65573 4.80639 3.44739 4.78901 3.2483 4.59405C3.10503 4.42632 3.1006 4.26307 3.10731 4.04571C3.1313 3.88381 3.19137 3.76827 3.3108 3.65655C3.46731 3.55282 3.58395 3.51224 3.77345 3.51275Z" fill="#4F5051"/>
</g>
<defs>
<clipPath id="clip0_3024_121190">
<rect width="16" height="16" fill="white"/>
</clipPath>
</defs>
</svg>
