<svg width="24" height="22" viewBox="0 0 24 22" fill="none" xmlns="http://www.w3.org/2000/svg">
<rect width="23.2222" height="22" rx="3" fill="#1C75BB"/>
<path d="M13.5419 3.01933C15.3706 3.1878 16.4938 4.08985 16.9079 5.71493L16.9992 6.08347L17.28 6.14314C18.8419 6.48009 19.7966 7.58219 20.0212 9.30906C20.1019 9.93382 20.0774 13.9281 19.9896 14.423C19.9159 14.8266 19.7439 15.3917 19.6246 15.6339C19.0595 16.7465 17.9609 17.266 16.1603 17.266C15.8128 17.266 15.6444 17.28 15.6057 17.3116C15.5777 17.3327 15.3565 17.6135 15.1214 17.9329C14.5984 18.6349 14.4264 18.8209 14.1702 18.9508C13.7736 19.1543 13.3419 19.1613 12.9312 18.9753C12.6574 18.849 12.5486 18.7331 11.966 17.975L11.4325 17.2765L10.8463 17.2555C9.82143 17.2204 9.07383 17.0028 8.43502 16.5465C8.19284 16.3745 7.85238 16.027 7.68391 15.7813C7.48384 15.4865 7.25219 14.9565 7.16093 14.5669L7.06967 14.1948L6.74325 14.1176C5.51128 13.8263 4.63731 13.0541 4.25825 11.9134C4.02659 11.2184 4.01957 11.1658 4.00553 8.8949C3.98798 6.65909 4.00553 6.32214 4.15646 5.71493C4.53553 4.21269 5.45512 3.39138 7.11881 3.06496C7.37855 3.01231 7.77516 3.00529 10.3128 2.99827C11.9063 2.99125 13.3594 3.00178 13.5419 3.01933ZM7.62775 4.13898C6.08339 4.2864 5.32526 5.00944 5.14976 6.50817C5.12519 6.71174 5.11817 7.55762 5.1287 8.8598C5.13923 10.5726 5.15327 10.9306 5.1989 11.1237C5.38492 11.8748 5.66922 12.3346 6.15359 12.668C6.31856 12.7804 6.84153 13.0155 6.93279 13.019C6.96087 13.019 6.97491 12.5557 6.98544 11.2184C7.00299 9.20728 7.01703 9.0739 7.2557 8.3649C7.42417 7.85597 7.63828 7.49094 7.95768 7.15048C8.47714 6.59591 9.04575 6.29055 9.92673 6.09751C10.2461 6.0238 10.3655 6.02029 13.0435 6.00976L15.8234 5.99572L15.8023 5.90095C15.7602 5.71844 15.5882 5.34288 15.4583 5.14633C15.0863 4.58825 14.3843 4.23024 13.4893 4.14249C13.026 4.10038 8.09105 4.09687 7.62775 4.13898ZM10.2953 7.17505C9.64594 7.28034 9.22826 7.47339 8.8527 7.84193C8.43502 8.25258 8.2139 8.80364 8.13317 9.62846C8.1086 9.87767 8.10158 10.6849 8.11211 11.8783C8.12966 13.886 8.14019 14.0264 8.32973 14.5739C8.59297 15.3215 9.14753 15.8094 9.98991 16.0235C10.2602 16.0937 10.4708 16.1183 10.9973 16.1393C12.0257 16.185 12.0467 16.1955 12.7768 17.1783C13.0821 17.5889 13.3454 17.9048 13.405 17.9364C13.6051 18.0487 13.6578 18.0031 14.2088 17.2765C14.7985 16.4938 14.8616 16.4271 15.0793 16.3078C15.3074 16.185 15.5777 16.1428 16.1287 16.1428C18.0697 16.1428 18.7436 15.6163 18.9121 13.9667C18.9401 13.6894 18.9472 12.9137 18.9366 11.4747C18.9261 9.64601 18.9156 9.35469 18.8629 9.12304C18.5962 7.9753 17.9188 7.36107 16.7184 7.17154C16.2761 7.10485 10.72 7.10485 10.2953 7.17505Z" fill="white"/>
<path d="M16.2254 11.2568C16.808 11.534 16.8045 12.3378 16.2183 12.6151C16.1271 12.6572 16.0323 12.6712 15.8709 12.6607C15.4637 12.6361 15.1899 12.3413 15.1899 11.9307C15.1899 11.6779 15.2987 11.4603 15.4988 11.3164C15.6919 11.183 16.0113 11.155 16.2254 11.2568Z" fill="white"/>
<path d="M13.8418 11.257C13.9191 11.2921 14.0349 11.3798 14.0946 11.45C14.5122 11.9274 14.1683 12.668 13.526 12.668C12.7994 12.668 12.5151 11.7414 13.1153 11.3202C13.3083 11.1833 13.6277 11.1552 13.8418 11.257Z" fill="white"/>
<path d="M11.3993 11.2324C11.7433 11.3692 11.9398 11.7483 11.8556 12.1028C11.7152 12.6925 10.9711 12.8715 10.5639 12.4082C10.4551 12.2853 10.3814 12.0923 10.3814 11.9343C10.3814 11.6711 10.578 11.3692 10.8166 11.2604C10.9711 11.1902 11.2589 11.1762 11.3993 11.2324Z" fill="white"/>
</svg>
