<svg width="15" height="15" viewBox="0 0 15 15" fill="none" xmlns="http://www.w3.org/2000/svg">
<path d="M0.797852 1.87622C0.499023 1.94067 0.232422 2.15747 0.0917969 2.45923C0.0273438 2.59692 0.015625 2.66138 0.015625 2.87231C0.0185547 3.08325 0.0302734 3.14771 0.0976562 3.28833C0.279297 3.66333 0.692383 3.8977 1.09668 3.85669C1.95508 3.7688 2.3125 2.73755 1.69434 2.13403C1.47461 1.92017 1.10547 1.81177 0.797852 1.87622Z" fill="#333333"/>
<path d="M3.98242 2.09473C3.68652 2.18848 3.48438 2.47266 3.48438 2.80078C3.48438 2.90039 3.50488 3.0293 3.52832 3.08789C3.5957 3.24902 3.75977 3.41309 3.92383 3.4834L4.06738 3.54492L9.27637 3.53906C14.1924 3.53027 14.4912 3.52734 14.5791 3.47754C14.8428 3.33398 14.9834 3.09668 14.9834 2.79785C14.9805 2.50195 14.8428 2.27344 14.5732 2.12988L14.4561 2.06543L9.28516 2.05957C4.91992 2.05664 4.09375 2.05957 3.98242 2.09473Z" fill="#333333"/>
<path d="M0.73291 6.53036C0.460449 6.61532 0.214355 6.82626 0.0913086 7.087C-0.0200195 7.32431 -0.0200195 7.67587 0.0913086 7.91317C0.255371 8.26181 0.562988 8.46981 0.952637 8.49032C1.25732 8.50497 1.45947 8.43466 1.6792 8.23251C1.89893 8.03036 2.00146 7.80185 2.00146 7.50009C2.00146 7.31845 1.98389 7.24228 1.91943 7.09286C1.81689 6.86435 1.58838 6.65048 1.36279 6.56552C1.1958 6.50106 0.882324 6.48642 0.73291 6.53036Z" fill="#333333"/>
<path d="M4.0791 6.76855C3.71875 6.8418 3.48438 7.12598 3.48438 7.50098C3.48438 7.81152 3.63965 8.05469 3.92383 8.18652L4.05566 8.24805H9.24121C14.0752 8.24805 14.4326 8.24512 14.5322 8.19824C14.6904 8.125 14.8135 8.01074 14.9043 7.85547C14.9717 7.74121 14.9834 7.68848 14.9834 7.50098C14.9834 7.31348 14.9717 7.26074 14.9043 7.14648C14.8135 6.99121 14.6904 6.87695 14.5322 6.80371C14.4326 6.75684 14.0752 6.75391 9.31445 6.74805C6.50195 6.74805 4.14648 6.75684 4.0791 6.76855Z" fill="#333333"/>
<path d="M0.683594 11.1924C0.449219 11.2686 0.211914 11.4824 0.0976563 11.7139C0.0302734 11.8545 0.0185547 11.9189 0.015625 12.1299C0.015625 12.3555 0.0244141 12.3994 0.112305 12.5752C0.326172 13.0088 0.783203 13.2285 1.2373 13.1113C1.70605 12.9941 1.99902 12.6191 1.99902 12.1445C2.00195 11.4561 1.33984 10.9785 0.683594 11.1924Z" fill="#333333"/>
<path d="M3.90918 11.5238C3.63672 11.6527 3.48438 11.8929 3.48438 12.2005C3.48438 12.4232 3.58398 12.6429 3.74219 12.7748C3.96777 12.9623 3.63672 12.9505 9.2998 12.9447L14.4561 12.9359L14.5732 12.8714C14.8428 12.7279 14.9805 12.4994 14.9834 12.2035C14.9834 11.9046 14.8428 11.6673 14.5791 11.5238C14.4912 11.474 14.1924 11.4711 9.27051 11.4652L4.05566 11.4564L3.90918 11.5238Z" fill="#333333"/>
</svg>
