<svg width="15" height="15" viewBox="0 0 15 15" fill="none" xmlns="http://www.w3.org/2000/svg">
<g clip-path="url(#clip0_1726_276384)">
<path opacity="0.971" fill-rule="evenodd" clip-rule="evenodd" d="M6.83984 -0.015625C7.26954 -0.015625 7.69921 -0.015625 8.12891 -0.015625C11.0664 0.351781 13.1611 1.87522 14.4131 4.55469C14.7147 5.2925 14.9052 6.05422 14.9844 6.83984C14.9844 7.26954 14.9844 7.69921 14.9844 8.12891C14.617 11.0664 13.0935 13.1611 10.4141 14.4131C9.67625 14.7147 8.91453 14.9052 8.12891 14.9844C7.69921 14.9844 7.26954 14.9844 6.83984 14.9844C3.90236 14.617 1.80764 13.0935 0.555664 10.4141C0.254021 9.67625 0.0635917 8.91453 -0.015625 8.12891C-0.015625 7.69921 -0.015625 7.26954 -0.015625 6.83984C0.351781 3.90236 1.87522 1.80764 4.55469 0.555664C5.2925 0.254021 6.05422 0.0635917 6.83984 -0.015625ZM7.13281 1.15625C9.71718 1.13206 11.6752 2.21604 13.0068 4.4082C14.1135 6.54881 14.0744 8.66797 12.8896 10.7656C11.3866 13.0135 9.28212 14.0047 6.57617 13.7393C4.54528 13.3861 3.0072 12.3266 1.96191 10.5605C0.855231 8.41994 0.894295 6.30078 2.0791 4.20312C3.26428 2.36752 4.94885 1.35189 7.13281 1.15625Z" fill="#333333"/>
<path opacity="0.976" fill-rule="evenodd" clip-rule="evenodd" d="M7.42729 3.44141C7.74384 3.44059 7.95381 3.58707 8.05717 3.88086C8.06692 4.99414 8.07671 6.10743 8.08647 7.22071C8.80913 7.76759 9.53177 8.31445 10.2544 8.86133C10.4528 9.11786 10.4626 9.38153 10.2837 9.65235C10.0308 9.88221 9.75249 9.9164 9.44877 9.75489C8.6773 9.1787 7.90579 8.60255 7.13432 8.02637C7.04839 7.96004 6.9849 7.87702 6.94389 7.77735C6.89552 6.48026 6.88576 5.18141 6.91459 3.88086C6.99234 3.62223 7.16326 3.47575 7.42729 3.44141Z" fill="#333333"/>
</g>
<defs>
<clipPath id="clip0_1726_276384">
<rect width="15" height="15" fill="white"/>
</clipPath>
</defs>
</svg>
