<svg width="24" height="22" viewBox="0 0 24 22" fill="none" xmlns="http://www.w3.org/2000/svg">
<rect width="23.2222" height="22" rx="3" fill="#3D937B"/>
<g clip-path="url(#clip0_3091_120453)">
<path d="M10.7071 3.51258C7.48156 3.91101 4.94445 6.50086 4.61047 9.73523C4.56066 10.2128 4.58996 11.121 4.67199 11.5809C4.79797 12.3046 5.00891 12.9432 5.33703 13.5966L5.50109 13.9247L5.01183 15.7147C4.7423 16.702 4.52551 17.5106 4.53137 17.5136C4.53723 17.5194 5.35754 17.3055 6.35656 17.0419C7.80969 16.6581 8.18762 16.5673 8.24621 16.5907C8.28723 16.6054 8.47766 16.6903 8.67101 16.7782C9.29797 17.0624 9.95715 17.2499 10.6515 17.3436C11.1349 17.4081 11.9816 17.4081 12.4503 17.3436C13.9913 17.1268 15.3654 16.4471 16.4493 15.3632C17.0177 14.7977 17.3956 14.2792 17.753 13.5731C18.0753 12.9374 18.3038 12.243 18.4327 11.5106C18.506 11.0829 18.506 9.82019 18.4327 9.37195C18.3068 8.61316 18.1105 8.00672 17.7794 7.33582C16.8331 5.42859 15.087 4.06922 12.9982 3.61512C12.3478 3.47449 11.378 3.43055 10.7071 3.51258ZM12.5382 4.72547C13.379 4.88074 14.0763 5.16199 14.7648 5.62195C15.9425 6.41004 16.8068 7.63172 17.1495 8.98523C17.4015 9.98133 17.381 11.1122 17.0968 12.0702C16.6339 13.6171 15.5353 14.9208 14.0939 15.6239C13.256 16.0341 12.4825 16.2128 11.5421 16.2128C10.464 16.2128 9.51184 15.952 8.53625 15.3895L8.37219 15.2958L7.29406 15.58C6.70226 15.7352 6.21008 15.8583 6.20715 15.8524C6.20129 15.8466 6.32141 15.3837 6.47668 14.8212C6.62902 14.2587 6.75793 13.7782 6.75793 13.7548C6.76086 13.7284 6.68469 13.5819 6.59094 13.4296C5.20812 11.1796 5.57141 8.21473 7.45519 6.33973C8.39269 5.40808 9.58215 4.83387 10.9122 4.6698C11.2726 4.62586 12.1691 4.65808 12.5382 4.72547Z" fill="white"/>
<path d="M8.80537 7.2832C8.63838 7.36523 8.32783 7.73145 8.19893 8.00098C7.94405 8.52832 7.94991 9.19629 8.21358 9.81152C8.53584 10.5703 9.38252 11.6484 10.2175 12.3633C10.8034 12.8643 11.2927 13.1602 12.0105 13.4414C12.7458 13.7285 12.8864 13.7607 13.3728 13.7607C13.7565 13.7607 13.8181 13.7549 13.9939 13.6875C14.2868 13.5762 14.5065 13.4385 14.7233 13.2246C14.8933 13.0576 14.9284 13.0049 14.9841 12.8291C15.0515 12.6064 15.0925 12.252 15.0603 12.1289C15.0456 12.0645 14.9606 12.0117 14.5446 11.8037C13.7829 11.4229 13.4753 11.291 13.3464 11.291C13.238 11.291 13.2204 11.3027 13.0915 11.4727C12.7956 11.8623 12.5231 12.1641 12.4528 12.1816C12.3679 12.2021 12.2009 12.1406 11.8171 11.9473C11.1931 11.6367 10.6862 11.2178 10.2497 10.6582C10.0124 10.3535 9.79854 10.0078 9.79854 9.92578C9.79854 9.89355 9.90987 9.7207 10.0446 9.54492C10.3083 9.20215 10.3845 9.07324 10.3845 8.97656C10.3845 8.94434 10.3259 8.7832 10.2585 8.61621C10.1882 8.45215 10.0476 8.1123 9.94502 7.86328C9.81612 7.55273 9.72823 7.37988 9.66377 7.3125L9.57002 7.21875H9.25362C8.98701 7.21875 8.91377 7.23047 8.80537 7.2832Z" fill="white"/>
</g>
<defs>
<clipPath id="clip0_3091_120453">
<rect width="15" height="15" fill="white" transform="translate(4 3)"/>
</clipPath>
</defs>
</svg>
