<svg width="8" height="6" viewBox="0 0 8 6" fill="none" xmlns="http://www.w3.org/2000/svg">
<path d="M7.93806 1.07135C7.86496 1.19834 7.76421 1.30234 7.66747 1.40874C7.5991 1.4852 7.53526 1.56381 7.47201 1.64512C7.39369 1.74556 7.31356 1.84284 7.22975 1.93808C7.14542 2.03392 7.06472 2.13182 6.9858 2.23279C6.88782 2.35814 6.78559 2.47778 6.68093 2.59673C6.61786 2.67022 6.55772 2.74567 6.4979 2.8222C6.39992 2.94755 6.29769 3.06719 6.19303 3.18615C6.12996 3.25964 6.06982 3.33508 6.01 3.41162C5.91202 3.53697 5.80979 3.65661 5.70513 3.77556C5.64206 3.84905 5.58192 3.9245 5.5221 4.00104C5.42412 4.12639 5.32189 4.24603 5.21723 4.36498C5.15416 4.43847 5.09402 4.51392 5.0342 4.59045C4.93628 4.71572 4.8342 4.83535 4.72944 4.95406C4.66525 5.02907 4.60492 5.10662 4.54455 5.18517C4.39665 5.37379 4.24593 5.56075 4.00693 5.59413C3.8143 5.59619 3.67154 5.56299 3.51901 5.43347C3.41938 5.32525 3.33321 5.20476 3.24645 5.08477C3.1829 4.99777 3.11659 4.9133 3.05041 4.8286C3.02436 4.79501 2.99833 4.7614 2.97231 4.72779C2.95942 4.71115 2.94653 4.69452 2.93326 4.67738C2.79007 4.49256 2.64689 4.30774 2.50371 4.12291C2.48437 4.09796 2.48437 4.09796 2.46465 4.0725C2.43864 4.03892 2.41262 4.00534 2.38661 3.97176C2.32124 3.88736 2.25584 3.80298 2.19039 3.71865C2.05247 3.54089 1.9151 3.36268 1.77852 3.18373C1.6524 3.01861 1.52512 2.85452 1.39779 2.69046C1.33252 2.60634 1.26732 2.52215 1.20212 2.43797C1.17608 2.40436 1.15005 2.37076 1.12402 2.33716C0.967818 2.13553 0.811618 1.93391 0.655418 1.73228C0.642514 1.71563 0.629611 1.69899 0.616317 1.68183C0.590425 1.6484 0.564562 1.61493 0.538729 1.58145C0.471698 1.49464 0.404142 1.4084 0.335642 1.32291C0.321608 1.30523 0.307573 1.28756 0.293114 1.26934C0.266568 1.23592 0.23985 1.20267 0.21292 1.1696C0.0486007 0.961716 -0.0111076 0.786858 0.00220521 0.51268C0.0229867 0.334104 0.101932 0.230152 0.229701 0.118378C0.390566 0.00198906 0.545918 -0.0192659 0.736359 0.0127941C0.993549 0.0987143 1.14564 0.350179 1.30356 0.567376C1.36088 0.64459 1.4202 0.718884 1.48118 0.792789C1.58333 0.916742 1.67886 1.04512 1.77398 1.17528C1.83083 1.25129 1.88961 1.32465 1.94978 1.39766C2.02857 1.49336 2.10413 1.59066 2.17758 1.69111C2.31319 1.87646 2.45508 2.05588 2.59675 2.23591C2.66401 2.32161 2.73076 2.40776 2.79746 2.49397C2.81024 2.51049 2.82302 2.527 2.83618 2.54402C2.86192 2.57729 2.88766 2.61057 2.9134 2.64385C2.97829 2.72775 3.04326 2.81158 3.10822 2.89542C3.13426 2.92902 3.16029 2.96262 3.18632 2.99623C3.19921 3.01286 3.2121 3.0295 3.22537 3.04663C3.26442 3.09704 3.30347 3.14745 3.34252 3.19785C3.35543 3.21451 3.36834 3.23117 3.38164 3.24834C3.40746 3.28167 3.43326 3.31501 3.45904 3.34837C3.52733 3.43668 3.59594 3.52467 3.66502 3.61226C3.6866 3.63975 3.6866 3.63975 3.70861 3.6678C3.73625 3.703 3.76398 3.73812 3.79183 3.77314C3.84827 3.84522 3.88776 3.89855 3.91441 3.98927C4.05048 3.88454 4.14987 3.75999 4.2564 3.62204C4.31633 3.54581 4.37827 3.47293 4.44217 3.4005C4.52649 3.30467 4.6072 3.20677 4.68612 3.1058C4.7841 2.98044 4.88633 2.8608 4.99099 2.74185C5.05406 2.66836 5.1142 2.59291 5.17402 2.51638C5.272 2.39103 5.37423 2.27139 5.47889 2.15244C5.54196 2.07894 5.6021 2.0035 5.66192 1.92696C5.74084 1.82599 5.82155 1.72809 5.90587 1.63226C5.98771 1.53915 6.06638 1.44435 6.14304 1.34633C6.25528 1.20287 6.37105 1.06324 6.48812 0.924301C6.56357 0.834733 6.63856 0.744842 6.71244 0.653788C6.72667 0.636321 6.7409 0.618853 6.75556 0.600856C6.78221 0.568096 6.80874 0.535234 6.83513 0.502245C6.97476 0.331087 7.12181 0.162654 7.34249 0.139443C7.54182 0.141748 7.66942 0.162062 7.8208 0.310387C7.9912 0.525069 8.0556 0.799796 7.93806 1.07135Z" fill="#656462"/>
</svg>
