<svg width="16" height="15" viewBox="0 0 16 15" fill="none" xmlns="http://www.w3.org/2000/svg">
<path d="M6.81214 0.0195312C4.46251 0.256836 2.39259 1.53711 1.13828 3.52344C-0.29564 5.79102 -0.381027 8.72949 0.917452 11.0762C1.84788 12.7607 3.37013 14.0146 5.21627 14.6211C5.99948 14.876 6.63253 14.9727 7.54823 14.9727C8.42861 14.9697 9.04693 14.8789 9.81542 14.6357C10.9372 14.2812 11.9148 13.6924 12.7716 12.8633C13.4459 12.21 13.8787 11.6211 14.288 10.7979C15.4804 8.4043 15.3008 5.58008 13.811 3.34473C13.5401 2.93457 13.2663 2.60059 12.8835 2.2168C11.7087 1.0332 10.2541 0.303711 8.57877 0.0576172C8.21956 0.00488281 7.1743 -0.0185547 6.81214 0.0195312ZM8.37856 0.792969C9.15882 0.895508 9.84192 1.10059 10.5221 1.4375C11.267 1.80371 11.8323 2.21387 12.4094 2.80566C13.6431 4.07715 14.3056 5.70898 14.3056 7.4873C14.3056 8.74121 13.967 9.95703 13.331 10.9883L13.1809 11.2344L12.9541 10.9355C12.5213 10.3555 11.8441 9.72266 11.2287 9.32715C10.8342 9.06934 10.1305 8.73242 9.69765 8.5918C9.48859 8.52441 9.31193 8.45996 9.30604 8.44531C9.3031 8.43359 9.38259 8.35449 9.4827 8.26953C10.5604 7.36133 10.8548 5.80273 10.1835 4.56641C10.0392 4.29688 9.90964 4.12988 9.65937 3.87207C8.91444 3.11621 7.78084 2.81152 6.73853 3.0957C5.91704 3.31836 5.20449 3.91016 4.82467 4.68945C4.6215 5.10254 4.55673 5.36621 4.53906 5.86133C4.52139 6.33301 4.56556 6.63477 4.70984 7.03027C4.87472 7.4873 5.19861 7.94434 5.59021 8.27539C5.69621 8.36328 5.77865 8.44238 5.77571 8.44824C5.77276 8.45703 5.59315 8.52148 5.37821 8.5918C4.64211 8.83496 3.86479 9.25977 3.24647 9.75781C2.8902 10.0479 2.38671 10.5693 2.11288 10.9355L1.88616 11.2344L1.73599 10.9912C1.25311 10.209 0.920396 9.25098 0.80262 8.31055C0.749621 7.87695 0.749621 7.09473 0.80262 6.66699C1.1265 4.08301 2.91375 1.90625 5.3841 1.0918C5.83165 0.942383 6.22915 0.851562 6.66492 0.792969C7.08302 0.740234 7.95751 0.740234 8.37856 0.792969ZM7.96928 3.78418C8.83494 3.95996 9.50331 4.5957 9.73003 5.45117C9.80659 5.75 9.80364 6.25684 9.71826 6.55859C9.53276 7.20898 9.11465 7.71289 8.51989 8C8.16656 8.17285 7.91923 8.22852 7.51879 8.22559C7.12424 8.22559 6.83569 8.15527 6.50592 7.98535C5.3046 7.36426 4.91005 5.87598 5.6491 4.75391C6.14965 3.99219 7.08302 3.60254 7.96928 3.78418ZM8.04878 9.01074C9.86253 9.1748 11.4908 10.124 12.5095 11.6035C12.6391 11.7939 12.6774 11.873 12.6568 11.9082C12.6038 12.0078 11.8942 12.667 11.6233 12.8691C10.6457 13.5986 9.48859 14.0586 8.28433 14.1963C7.9369 14.2344 7.13602 14.2344 6.77386 14.1934C5.59315 14.0645 4.42423 13.5986 3.44374 12.8691C3.17286 12.667 2.46326 12.0078 2.41026 11.9111C2.38965 11.873 2.42498 11.7998 2.55748 11.6035C3.77941 9.82227 5.90821 8.81738 8.04878 9.01074Z" fill="#4F5051"/>
</svg>
