<svg width="109" height="30" viewBox="0 0 109 30" fill="none" xmlns="http://www.w3.org/2000/svg">
<rect width="109" height="30" rx="2" fill="#C81C1F"/>
<path d="M34.5859 12.4929C34.5329 12.0223 34.3142 11.6577 33.9297 11.3991C33.5452 11.1373 33.0613 11.0064 32.478 11.0064C32.0604 11.0064 31.6991 11.0727 31.3942 11.2053C31.0893 11.3345 30.8523 11.5135 30.6832 11.7422C30.5175 11.9676 30.4347 12.2244 30.4347 12.5128C30.4347 12.7547 30.491 12.9635 30.6037 13.1392C30.7197 13.3149 30.8705 13.4624 31.0561 13.5817C31.245 13.6977 31.4472 13.7955 31.6626 13.875C31.8781 13.9512 32.0852 14.0142 32.2841 14.0639L33.2784 14.3224C33.6032 14.402 33.9363 14.5097 34.2777 14.6456C34.6191 14.7815 34.9356 14.9605 35.2273 15.1825C35.5189 15.4046 35.7543 15.6797 35.9332 16.0078C36.1155 16.3359 36.2067 16.7287 36.2067 17.1861C36.2067 17.7628 36.0575 18.2749 35.7592 18.7223C35.4643 19.1697 35.035 19.5227 34.4716 19.7812C33.9115 20.0398 33.2337 20.169 32.4382 20.169C31.6759 20.169 31.0163 20.0481 30.4595 19.8061C29.9027 19.5642 29.4669 19.2211 29.152 18.777C28.8371 18.3295 28.6631 17.7992 28.63 17.1861H30.1712C30.201 17.554 30.3203 17.8606 30.5291 18.1058C30.7412 18.3478 31.0114 18.5284 31.3395 18.6477C31.6709 18.7637 32.0339 18.8217 32.4283 18.8217C32.8625 18.8217 33.2486 18.7538 33.5866 18.6179C33.928 18.4787 34.1965 18.2865 34.392 18.0412C34.5876 17.7926 34.6854 17.5026 34.6854 17.1712C34.6854 16.8696 34.5992 16.6226 34.4268 16.4304C34.2578 16.2382 34.0275 16.0791 33.7358 15.9531C33.4474 15.8272 33.121 15.7161 32.7564 15.62L31.5533 15.2919C30.7379 15.0698 30.0916 14.7434 29.6143 14.3125C29.1404 13.8816 28.9034 13.3116 28.9034 12.6023C28.9034 12.0156 29.0625 11.5036 29.3807 11.0661C29.6989 10.6286 30.1297 10.2888 30.6733 10.0469C31.2169 9.80161 31.83 9.67898 32.5128 9.67898C33.2022 9.67898 33.8104 9.79995 34.3374 10.0419C34.8677 10.2839 35.2853 10.617 35.5902 11.0412C35.8951 11.4621 36.0542 11.946 36.0675 12.4929H34.5859ZM39.4096 15.4659V20H37.9231V9.81818H39.3897V13.6065H39.4842C39.6632 13.1955 39.9366 12.8691 40.3045 12.6271C40.6724 12.3852 41.153 12.2642 41.7463 12.2642C42.2699 12.2642 42.7273 12.3719 43.1184 12.5874C43.5128 12.8028 43.8178 13.1243 44.0332 13.5518C44.252 13.9761 44.3613 14.5064 44.3613 15.1428V20H42.8748V15.3217C42.8748 14.7616 42.7306 14.3274 42.4423 14.0192C42.1539 13.7076 41.7529 13.5518 41.2392 13.5518C40.8878 13.5518 40.573 13.6264 40.2946 13.7756C40.0195 13.9247 39.8024 14.1435 39.6433 14.4318C39.4875 14.7169 39.4096 15.0616 39.4096 15.4659ZM49.5616 20.1541C48.8457 20.1541 48.2209 19.9901 47.6873 19.6619C47.1537 19.3338 46.7394 18.8748 46.4444 18.2848C46.1494 17.6948 46.002 17.0054 46.002 16.2166C46.002 15.4245 46.1494 14.7318 46.4444 14.1385C46.7394 13.5452 47.1537 13.0845 47.6873 12.7564C48.2209 12.4283 48.8457 12.2642 49.5616 12.2642C50.2775 12.2642 50.9023 12.4283 51.4359 12.7564C51.9695 13.0845 52.3838 13.5452 52.6788 14.1385C52.9738 14.7318 53.1213 15.4245 53.1213 16.2166C53.1213 17.0054 52.9738 17.6948 52.6788 18.2848C52.3838 18.8748 51.9695 19.3338 51.4359 19.6619C50.9023 19.9901 50.2775 20.1541 49.5616 20.1541ZM49.5666 18.9062C50.0306 18.9062 50.4151 18.7836 50.72 18.5384C51.0249 18.2931 51.2503 17.9666 51.3961 17.5589C51.5453 17.1513 51.6199 16.7022 51.6199 16.2116C51.6199 15.7244 51.5453 15.277 51.3961 14.8693C51.2503 14.4583 51.0249 14.1286 50.72 13.88C50.4151 13.6314 50.0306 13.5071 49.5666 13.5071C49.0993 13.5071 48.7115 13.6314 48.4032 13.88C48.0983 14.1286 47.8713 14.4583 47.7221 14.8693C47.5763 15.277 47.5034 15.7244 47.5034 16.2116C47.5034 16.7022 47.5763 17.1513 47.7221 17.5589C47.8713 17.9666 48.0983 18.2931 48.4032 18.5384C48.7115 18.7836 49.0993 18.9062 49.5666 18.9062ZM56.2037 20L53.9565 12.3636H55.4927L56.9892 17.9716H57.0637L58.5652 12.3636H60.1014L61.5929 17.9467H61.6674L63.1539 12.3636H64.6902L62.448 20H60.9316L59.3805 14.4865H59.2662L57.715 20H56.2037ZM69.9252 9.81818H71.7896L75.0311 17.733H75.1504L78.3919 9.81818H80.2562V20H78.7946V12.6321H78.7001L75.6973 19.9851H74.4842L71.4814 12.6271H71.3869V20H69.9252V9.81818ZM85.587 20.1541C84.8711 20.1541 84.2463 19.9901 83.7127 19.6619C83.1791 19.3338 82.7648 18.8748 82.4698 18.2848C82.1748 17.6948 82.0273 17.0054 82.0273 16.2166C82.0273 15.4245 82.1748 14.7318 82.4698 14.1385C82.7648 13.5452 83.1791 13.0845 83.7127 12.7564C84.2463 12.4283 84.8711 12.2642 85.587 12.2642C86.3029 12.2642 86.9277 12.4283 87.4613 12.7564C87.9949 13.0845 88.4092 13.5452 88.7042 14.1385C88.9992 14.7318 89.1467 15.4245 89.1467 16.2166C89.1467 17.0054 88.9992 17.6948 88.7042 18.2848C88.4092 18.8748 87.9949 19.3338 87.4613 19.6619C86.9277 19.9901 86.3029 20.1541 85.587 20.1541ZM85.592 18.9062C86.056 18.9062 86.4405 18.7836 86.7454 18.5384C87.0503 18.2931 87.2757 17.9666 87.4215 17.5589C87.5707 17.1513 87.6452 16.7022 87.6452 16.2116C87.6452 15.7244 87.5707 15.277 87.4215 14.8693C87.2757 14.4583 87.0503 14.1286 86.7454 13.88C86.4405 13.6314 86.056 13.5071 85.592 13.5071C85.1246 13.5071 84.7369 13.6314 84.4286 13.88C84.1237 14.1286 83.8967 14.4583 83.7475 14.8693C83.6017 15.277 83.5288 15.7244 83.5288 16.2116C83.5288 16.7022 83.6017 17.1513 83.7475 17.5589C83.8967 17.9666 84.1237 18.2931 84.4286 18.5384C84.7369 18.7836 85.1246 18.9062 85.592 18.9062ZM90.8059 20V12.3636H92.2427V13.5767H92.3223C92.4615 13.1657 92.7067 12.8426 93.0581 12.6072C93.4127 12.3686 93.8137 12.2493 94.2612 12.2493C94.354 12.2493 94.4634 12.2526 94.5893 12.2592C94.7186 12.2659 94.8197 12.2741 94.8926 12.2841V13.706C94.8329 13.6894 94.7269 13.6712 94.5744 13.6513C94.4219 13.6281 94.2695 13.6165 94.117 13.6165C93.7657 13.6165 93.4525 13.6911 93.1774 13.8402C92.9056 13.986 92.6902 14.1899 92.5311 14.4517C92.372 14.7102 92.2924 15.0052 92.2924 15.3366V20H90.8059ZM99.1967 20.1541C98.4444 20.1541 97.7964 19.9934 97.2528 19.6719C96.7126 19.3471 96.295 18.8913 96 18.3047C95.7083 17.7147 95.5625 17.0237 95.5625 16.2315C95.5625 15.4493 95.7083 14.7599 96 14.1634C96.295 13.5668 96.706 13.1011 97.233 12.7663C97.7633 12.4316 98.383 12.2642 99.0923 12.2642C99.5232 12.2642 99.9408 12.3355 100.345 12.478C100.75 12.6205 101.112 12.8442 101.434 13.1491C101.755 13.4541 102.009 13.8501 102.195 14.3374C102.38 14.8213 102.473 15.4096 102.473 16.1023V16.6293H96.4027V15.5156H101.016C101.016 15.1245 100.937 14.7782 100.778 14.4766C100.619 14.1716 100.395 13.9313 100.107 13.7557C99.8215 13.58 99.4867 13.4922 99.1023 13.4922C98.6847 13.4922 98.3201 13.5949 98.0085 13.8004C97.7003 14.0026 97.4616 14.2678 97.2926 14.5959C97.1269 14.9207 97.044 15.2737 97.044 15.6548V16.5249C97.044 17.0353 97.1335 17.4695 97.3125 17.8274C97.4948 18.1854 97.7483 18.4588 98.0732 18.6477C98.398 18.8333 98.7775 18.9261 99.2116 18.9261C99.4934 18.9261 99.7502 18.8864 99.9822 18.8068C100.214 18.724 100.415 18.6013 100.584 18.4389C100.753 18.2765 100.882 18.076 100.972 17.8374L102.379 18.0909C102.266 18.5052 102.064 18.8681 101.772 19.1797C101.484 19.4879 101.121 19.7282 100.683 19.9006C100.249 20.0696 99.7536 20.1541 99.1967 20.1541Z" fill="white"/>
<path d="M16 15.0312C16.051 14.9018 16.1451 14.8152 16.242 14.7192C16.2606 14.7006 16.2792 14.682 16.2983 14.6628C16.3606 14.6004 16.423 14.5383 16.4855 14.4761C16.5302 14.4315 16.5749 14.3868 16.6195 14.3421C16.7408 14.2208 16.8623 14.0997 16.9838 13.9786C17.1108 13.852 17.2375 13.7253 17.3643 13.5986C17.6045 13.3586 17.8448 13.1188 18.0851 12.8791C18.3588 12.6062 18.6322 12.3331 18.9056 12.06C19.4681 11.4981 20.0309 10.9365 20.5938 10.375C20.6287 10.4048 20.6637 10.4347 20.6986 10.4646C20.7181 10.4812 20.7376 10.4978 20.7577 10.515C20.8229 10.5715 20.8852 10.6304 20.9468 10.6908C20.9707 10.7142 20.9946 10.7375 21.0191 10.7616C21.1256 10.8666 21.232 10.9717 21.3381 11.0771C21.3942 11.1328 21.4505 11.1882 21.507 11.2435C21.5887 11.3235 21.6699 11.404 21.751 11.4846C21.7764 11.5094 21.8019 11.5341 21.8281 11.5596C21.8512 11.5828 21.8742 11.6059 21.898 11.6298C21.9185 11.65 21.939 11.6703 21.9601 11.6911C22 11.75 22 11.75 21.9944 11.8079C21.961 11.8952 21.9138 11.9415 21.8475 12.0075C21.8084 12.0468 21.8084 12.0468 21.7685 12.0869C21.7397 12.1154 21.7109 12.1438 21.6812 12.1732C21.6507 12.2037 21.6202 12.2342 21.5898 12.2647C21.507 12.3475 21.424 12.43 21.3409 12.5124C21.2541 12.5986 21.1675 12.6851 21.081 12.7715C20.917 12.9352 20.7529 13.0986 20.5886 13.2619C20.4016 13.4479 20.2149 13.6341 20.0281 13.8203C19.6441 14.2034 19.2596 14.5862 18.875 14.9688C18.9209 15.0748 18.9796 15.1433 19.0615 15.2242C19.0874 15.25 19.1133 15.2757 19.14 15.3023C19.1684 15.3303 19.1969 15.3582 19.2262 15.3871C19.2565 15.4171 19.2867 15.447 19.3169 15.477C19.3819 15.5416 19.447 15.606 19.5122 15.6703C19.6152 15.772 19.7179 15.874 19.8206 15.976C20.1125 16.2661 20.4047 16.5559 20.6973 16.8452C20.859 17.0051 21.0205 17.1652 21.1816 17.3257C21.2836 17.4272 21.386 17.5285 21.4886 17.6294C21.5523 17.6922 21.6156 17.7553 21.6788 17.8185C21.7224 17.8619 21.7663 17.9048 21.8102 17.9477C21.8359 17.9735 21.8615 17.9993 21.8879 18.0258C21.9217 18.0593 21.9217 18.0593 21.9562 18.0934C22 18.1562 22 18.1562 21.9948 18.2228C21.9581 18.3051 21.9058 18.3554 21.8419 18.4188C21.8015 18.4591 21.8015 18.4591 21.7603 18.5003C21.7311 18.529 21.7019 18.5578 21.6718 18.5874C21.6417 18.6173 21.6116 18.6473 21.5815 18.6772C21.5024 18.756 21.4231 18.8344 21.3437 18.9127C21.2627 18.9928 21.1819 19.0731 21.1011 19.1534C20.9427 19.3109 20.7839 19.468 20.625 19.625C20.4814 19.5048 20.3447 19.3804 20.2127 19.2477C20.1854 19.2204 20.1854 19.2204 20.1576 19.1927C20.0973 19.1324 20.0371 19.0721 19.9769 19.0117C19.9335 18.9683 19.8901 18.9249 19.8466 18.8814C19.7291 18.7639 19.6117 18.6463 19.4943 18.5287C19.3715 18.4057 19.2485 18.2827 19.1256 18.1598C18.893 17.9271 18.6605 17.6943 18.428 17.4615C18.1633 17.1964 17.8984 16.9314 17.6336 16.6664C17.089 16.1215 16.5444 15.5764 16 15.0312Z" fill="white"/>
<path d="M6.00561 18.1921C6.03904 18.1048 6.08628 18.0585 6.15251 17.9925C6.17859 17.9663 6.20466 17.9401 6.23153 17.9131C6.26034 17.8846 6.28916 17.8562 6.31885 17.8268C6.34935 17.7963 6.37984 17.7658 6.4103 17.7353C6.49306 17.6525 6.5761 17.57 6.65919 17.4876C6.74598 17.4014 6.83251 17.3149 6.91907 17.2285C7.08301 17.0648 7.24719 16.9014 7.41146 16.7381C7.59846 16.5521 7.78519 16.3659 7.97191 16.1797C8.356 15.7966 8.74041 15.4138 9.12505 15.0312C9.0792 14.9252 9.02046 14.8567 8.93856 14.7758C8.91266 14.75 8.88677 14.7243 8.86008 14.6977C8.83162 14.6697 8.80316 14.6418 8.77384 14.6129C8.74359 14.5829 8.71336 14.553 8.68314 14.523C8.61812 14.4584 8.55301 14.394 8.48783 14.3297C8.38484 14.228 8.28214 14.126 8.17949 14.024C7.88759 13.7339 7.59538 13.4441 7.30271 13.1548C7.14101 12.9949 6.9796 12.8348 6.81849 12.6743C6.71645 12.5728 6.61407 12.4715 6.51144 12.3706C6.44779 12.3078 6.38446 12.2447 6.32123 12.1815C6.27769 12.1381 6.23376 12.0952 6.18982 12.0523C6.15137 12.0136 6.15137 12.0136 6.11214 11.9742C6.08961 11.9519 6.06708 11.9296 6.04386 11.9066C6.00005 11.8438 6.00005 11.8438 6.00525 11.7772C6.04192 11.6949 6.09426 11.6446 6.1582 11.5812C6.1851 11.5543 6.21201 11.5274 6.23972 11.4997C6.28357 11.4566 6.28357 11.4566 6.3283 11.4126C6.3584 11.3827 6.38849 11.3527 6.41855 11.3228C6.49761 11.244 6.57696 11.1656 6.65636 11.0873C6.73738 11.0072 6.81814 10.9269 6.89892 10.8466C7.05737 10.6891 7.21612 10.532 7.37505 10.375C7.51869 10.4952 7.65536 10.6196 7.78739 10.7523C7.80557 10.7705 7.82375 10.7886 7.84248 10.8073C7.90277 10.8676 7.96294 10.9279 8.02312 10.9883C8.06655 11.0317 8.11 11.0751 8.15345 11.1186C8.27095 11.2361 8.38835 11.3537 8.50573 11.4713C8.62859 11.5943 8.75153 11.7173 8.87446 11.8402C9.10705 12.0729 9.33955 12.3057 9.57203 12.5385C9.83678 12.8036 10.1016 13.0686 10.3665 13.3336C10.9111 13.8785 11.4556 14.4236 12.0001 14.9688C11.949 15.0982 11.855 15.1848 11.758 15.2808C11.7395 15.2994 11.7209 15.318 11.7018 15.3372C11.6395 15.3996 11.577 15.4617 11.5145 15.5239C11.4698 15.5685 11.4252 15.6132 11.3806 15.6579C11.2592 15.7792 11.1378 15.9003 11.0162 16.0214C10.8893 16.148 10.7625 16.2747 10.6357 16.4014C10.3956 16.6414 10.1553 16.8812 9.91491 17.1209C9.64129 17.3938 9.36784 17.6669 9.09441 17.94C8.53191 18.5019 7.96918 19.0635 7.4063 19.625C7.37132 19.5952 7.33636 19.5653 7.3014 19.5354C7.28193 19.5188 7.26246 19.5022 7.2424 19.485C7.17717 19.4285 7.11485 19.3696 7.05322 19.3092C7.01743 19.2742 7.01743 19.2742 6.98092 19.2384C6.87447 19.1334 6.76809 19.0283 6.66198 18.9229C6.60583 18.8672 6.54951 18.8118 6.49304 18.7565C6.41134 18.6765 6.33016 18.596 6.24908 18.5154C6.22363 18.4906 6.19818 18.4659 6.17196 18.4404C6.14889 18.4172 6.12581 18.3941 6.10204 18.3702C6.08154 18.35 6.06103 18.3297 6.03991 18.3089C6.00005 18.25 6.00005 18.25 6.00561 18.1921Z" fill="white"/>
</svg>
