<svg width="35" height="35" viewBox="0 0 35 35" fill="none" xmlns="http://www.w3.org/2000/svg">
<rect width="35" height="35" rx="3" fill="#EE443F"/>
<path d="M17.5614 8.03328C17.2219 8.08159 16.8983 8.19429 16.5228 8.3875C16.2392 8.53643 16.0874 8.64914 15.7998 8.93895C15.2765 9.46223 15.0089 9.9694 14.885 10.6698C14.8092 11.1126 14.8092 11.3138 14.885 11.7566C15.1008 13.0044 16.0395 14.0147 17.2818 14.3367C17.6613 14.4333 18.3803 14.4333 18.7598 14.3367C19.9262 14.0348 20.821 13.1332 21.1206 11.9578C21.2165 11.5754 21.2165 10.8509 21.1206 10.4685C20.7052 8.84235 19.1713 7.7958 17.5614 8.03328ZM18.656 8.61694C19.3151 8.77392 20.0381 9.34549 20.3497 9.9533C20.7611 10.7463 20.7571 11.6841 20.3497 12.4731C20.1459 12.8675 19.6626 13.3546 19.2711 13.5599C18.4842 13.9745 17.5574 13.9745 16.7705 13.5599C16.3431 13.3345 15.8877 12.8635 15.672 12.4207C15.4283 11.9216 15.3724 11.6519 15.3924 11.0924C15.4083 10.7181 15.4323 10.5732 15.5242 10.3276C15.8318 9.48638 16.5508 8.8182 17.3697 8.62096C17.6813 8.54448 18.3404 8.54448 18.656 8.61694Z" fill="white"/>
<path d="M18.2903 10.8883L17.5673 11.6088L17.3037 11.3512C17.0121 11.0654 16.8922 11.0251 16.7484 11.17C16.5886 11.331 16.6366 11.4357 17.06 11.8624C17.3756 12.1804 17.4754 12.2568 17.5673 12.2568C17.6672 12.2568 17.815 12.124 18.534 11.3995C19.4408 10.4858 19.4847 10.4254 19.305 10.2442C19.1332 10.0712 19.0573 10.1154 18.2903 10.8883Z" fill="white"/>
<path d="M11.7745 13.683C11.7106 13.7152 11.6067 13.7876 11.5508 13.852C11.4309 13.9849 8.18732 18.4126 8.07148 18.5977C7.9796 18.7507 7.97561 19.0606 8.06349 19.2458C8.15137 19.435 9.66932 20.6546 9.89302 20.715C10.1127 20.7754 10.3404 20.723 10.5042 20.5781C10.636 20.4614 10.648 20.4574 10.7479 20.5177C10.8078 20.554 10.8957 20.6425 10.9476 20.711C11.0275 20.8317 11.0355 20.8921 11.0355 21.3308V21.8179L10.7519 22.1801C10.3484 22.6954 10.2685 22.8725 10.2445 23.2669C10.2326 23.5326 10.2445 23.6332 10.3204 23.8305C10.4323 24.1324 10.7279 24.4544 11.0315 24.6033C11.2232 24.6999 11.3031 24.716 11.5987 24.716H11.9462L11.9702 24.9132C12.0181 25.3359 12.3457 25.7746 12.7332 25.9477C12.9769 26.0564 13.3643 26.0846 13.6 26.0121L13.7878 25.9517L13.8157 26.0806C13.8876 26.4307 14.1832 26.7769 14.5547 26.946C14.7664 27.0466 15.2418 27.0587 15.4415 26.9741L15.5733 26.9218L15.6452 27.1231C15.7371 27.3847 16.0207 27.6826 16.3044 27.8235C16.4881 27.916 16.58 27.9362 16.8277 27.9321C17.2111 27.9321 17.5107 27.7953 17.7544 27.5135L17.9262 27.3163L18.1459 27.425C18.4375 27.5699 18.9048 27.5779 19.1885 27.437C19.6239 27.2277 19.8915 26.8494 19.9315 26.3945L19.9554 26.157L20.1991 26.1289C20.8263 26.0645 21.2537 25.6217 21.2936 24.9938L21.3096 24.708L21.5293 24.6838C22.1644 24.6154 22.6758 24.0478 22.6797 23.4038V23.1341L22.9114 23.114C23.223 23.0858 23.5346 22.9248 23.7543 22.6793C23.966 22.4418 24.0579 22.1922 24.0579 21.8541V21.6005L24.1897 21.5764C24.2576 21.5643 24.4893 21.5321 24.697 21.5039C25.0645 21.4556 25.0805 21.4596 25.2563 21.5482C25.3841 21.6166 25.48 21.6367 25.5958 21.6247C25.7915 21.6045 27.657 20.7754 27.8168 20.6385C27.9806 20.5016 28.0525 20.3447 28.0525 20.1273C28.0525 19.8536 25.7156 14.0372 25.5279 13.84C25.3761 13.683 25.1804 13.6105 24.9806 13.6387C24.8169 13.6588 22.8795 14.5242 22.7636 14.6249C22.6558 14.7255 22.5399 14.9912 22.5399 15.1602C22.5399 15.2931 22.524 15.3092 22.2723 15.4541C21.7929 15.7197 21.8968 15.7237 19.8835 15.4219C18.8969 15.277 17.9941 15.1562 17.8862 15.1562C17.4268 15.1562 16.9435 15.3615 16.588 15.7036L16.3603 15.921H15.3696H14.379L14.2471 15.8204C14.1233 15.7237 14.1153 15.7076 14.1393 15.5225C14.1792 15.1562 14.0953 15.0475 13.2085 14.3471C12.7811 14.005 12.3817 13.7071 12.3217 13.679C12.1779 13.6146 11.9223 13.6186 11.7745 13.683ZM12.8171 14.7175C13.2085 15.0274 13.5521 15.3132 13.58 15.3494C13.62 15.4058 13.62 15.438 13.58 15.5104C13.5521 15.5587 12.7771 16.6334 11.8544 17.8933C10.4842 19.765 10.1607 20.1837 10.0848 20.1877C10.0208 20.1877 9.73723 19.9864 9.24989 19.6C8.6467 19.117 8.51488 18.9922 8.52686 18.9238C8.54284 18.8392 11.8823 14.2385 11.9702 14.1821C11.9942 14.166 12.0341 14.1499 12.0581 14.1499C12.0821 14.1499 12.4216 14.4035 12.8171 14.7175ZM25.1684 14.2385C25.2643 14.3592 27.5372 20.1072 27.5172 20.1756C27.4932 20.2561 25.6997 21.0732 25.5479 21.0732C25.4999 21.0732 25.444 21.041 25.42 21.0008C25.4001 20.9645 24.9207 19.7811 24.3575 18.3763C23.7942 16.9716 23.271 15.6714 23.1951 15.4863C23.0912 15.2407 23.0672 15.1361 23.0952 15.0837C23.1391 15.0073 24.9087 14.1942 25.0406 14.1942C25.0885 14.1902 25.1444 14.2143 25.1684 14.2385ZM19.7477 15.9451C21.8609 16.2631 21.8888 16.2631 22.3961 15.9894C22.7397 15.8043 22.7437 15.8043 22.7796 15.8928C22.8835 16.1303 24.8089 20.9323 24.8049 20.9404C24.8009 20.9404 24.5892 20.9766 24.3375 21.0128C23.6025 21.1215 23.0992 21.0491 22.6478 20.7633C22.5639 20.711 21.733 20.0548 20.8063 19.3062C19.6399 18.3643 19.0566 17.9215 18.9208 17.8692C18.785 17.8168 18.6252 17.7927 18.3855 17.7927C18.054 17.7927 18.034 17.7967 17.5667 18.0221C16.9954 18.2958 16.7717 18.3522 16.3123 18.328C15.7092 18.2958 15.3097 18.0865 15.3097 17.8048C15.3097 17.6679 15.3696 17.5995 16.4002 16.6093C16.7438 16.2752 17.0993 15.9572 17.1872 15.9009C17.3549 15.7922 17.6905 15.6875 17.8702 15.6835C17.9302 15.6795 18.777 15.8002 19.7477 15.9451ZM13.9795 16.2913L14.1593 16.4241L14.9542 16.4362C15.3896 16.4443 15.7491 16.4563 15.7491 16.4684C15.7491 16.4765 15.5694 16.6616 15.3457 16.875C14.8104 17.3942 14.7065 17.6075 14.7944 18.0262C14.9302 18.6702 16.0407 19.0526 17.0673 18.8111C17.1672 18.7869 17.4468 18.6742 17.6905 18.5575C18.5693 18.1389 18.4295 18.0785 20.5107 19.761C21.4294 20.4976 22.2683 21.1618 22.3802 21.2342C22.6039 21.3791 23.0313 21.5401 23.2989 21.5804C23.5066 21.6126 23.5386 21.6448 23.5386 21.8461C23.5386 22.1198 23.3828 22.3734 23.1311 22.5062C23.0113 22.5706 22.6758 22.5827 22.5319 22.5263C22.48 22.5062 21.8569 22.0554 21.1418 21.52C19.7317 20.4654 19.6998 20.4493 19.532 20.6788C19.3882 20.872 19.4561 20.9444 20.6345 21.8179C21.2297 22.2607 21.789 22.6873 21.8768 22.7638C22.0686 22.9369 22.1405 23.1019 22.1405 23.3676C22.1405 23.8909 21.6491 24.2692 21.1538 24.1364C21.0539 24.1082 20.5706 23.7862 19.8476 23.2669C18.6652 22.4176 18.5733 22.3653 18.4175 22.5102C18.3336 22.5867 18.3216 22.7598 18.3975 22.8524C18.4215 22.8886 18.8969 23.2388 19.4441 23.6332C19.9954 24.0277 20.4987 24.4061 20.5706 24.4745C20.982 24.8851 20.6904 25.5814 20.1112 25.5814C20.0193 25.5814 19.9075 25.5653 19.8556 25.5452C19.8036 25.5251 19.2963 25.1427 18.7251 24.6959C18.1539 24.2491 17.6465 23.8627 17.5946 23.8385C17.4668 23.7781 17.291 23.915 17.275 24.0881C17.2591 24.241 17.1952 24.1807 18.3416 25.0863C18.813 25.4566 19.2324 25.8109 19.2803 25.8712C19.3922 26.0282 19.4162 26.4066 19.3243 26.6038C19.1805 26.9017 18.817 27.0707 18.4894 26.9862C18.2298 26.9218 18.2138 26.8816 18.3136 26.624C18.5094 26.1128 18.3576 25.509 17.9421 25.1789C17.6985 24.9857 17.5147 24.9213 17.2031 24.9213L16.9555 24.9173L16.9355 24.708C16.8796 24.1565 16.4082 23.7057 15.845 23.6574L15.6013 23.6373L15.5813 23.3917C15.5414 22.8926 15.2698 22.4861 14.8383 22.2727C14.6146 22.16 14.5308 22.1399 14.2871 22.1399H13.9995L13.9755 21.9386C13.9356 21.5965 13.8357 21.3671 13.62 21.1296C13.3444 20.8277 13.0967 20.7029 12.7052 20.6788C12.3257 20.6546 12.0461 20.7391 11.7585 20.9565L11.5548 21.1135V20.9203C11.5548 20.6425 11.395 20.3406 11.1513 20.1555L10.9596 20.0106L11.1074 19.8093C11.1873 19.6966 11.5588 19.1854 11.9343 18.6782C12.3098 18.167 12.877 17.3942 13.1926 16.9595C13.5121 16.5207 13.7798 16.1625 13.7838 16.1625C13.7918 16.1625 13.8796 16.2229 13.9795 16.2913ZM12.877 21.2423C13.0887 21.3107 13.2245 21.4234 13.3404 21.6247C13.4682 21.8501 13.4842 22.1842 13.3723 22.4015C13.2645 22.6189 12.2498 23.915 12.102 24.0277C11.5588 24.4463 10.7798 24.0478 10.7758 23.3475C10.7758 23.0415 10.8238 22.961 11.5228 22.0634C11.9343 21.5321 12.094 21.359 12.2299 21.2866C12.4256 21.1859 12.6653 21.1658 12.877 21.2423ZM14.6306 22.7638C14.9821 22.9449 15.1379 23.3072 15.0301 23.6936C14.9861 23.8546 13.8996 25.2433 13.7159 25.3761C13.3364 25.6499 12.7771 25.4969 12.5534 25.0582C12.4735 24.9052 12.4895 24.5751 12.5854 24.394C12.6972 24.1766 13.7039 22.8886 13.8357 22.792C14.0474 22.635 14.355 22.6269 14.6306 22.7638ZM16.0128 24.2491C16.2045 24.3376 16.3323 24.4866 16.3962 24.708C16.4681 24.9455 16.3843 25.1266 15.9049 25.7787C15.4535 26.3905 15.3137 26.5072 15.0061 26.5072C14.7744 26.5072 14.4908 26.314 14.3909 26.0926C14.2991 25.8873 14.2911 25.7465 14.371 25.5613C14.4269 25.4204 15.1299 24.5228 15.3217 24.3417C15.5054 24.1686 15.7611 24.1324 16.0128 24.2491ZM17.5107 25.5251C17.6465 25.5935 17.8183 25.7988 17.8503 25.9276C17.9102 26.1691 17.8423 26.4146 17.6266 26.7568C17.3549 27.1835 17.275 27.268 17.1193 27.3364C16.7038 27.5175 16.2085 27.272 16.1166 26.8373C16.0807 26.6682 16.1046 26.4509 16.1725 26.3422C16.2844 26.157 16.7318 25.6056 16.8117 25.5533C17.0114 25.4244 17.287 25.4124 17.5107 25.5251Z" fill="white"/>
</svg>
