<svg width="35" height="35" viewBox="0 0 35 35" fill="none" xmlns="http://www.w3.org/2000/svg">
<rect width="35" height="35" rx="3" fill="#3D937B"/>
<g clip-path="url(#clip0_3419_74823)">
<path d="M9.72266 8.02344C9.45312 8.10938 9.21484 8.30859 9.07422 8.57422C9.00391 8.70703 9 8.90625 9 13.6523C9 18.4609 9.00391 18.5977 9.07422 18.7461C9.17188 18.9414 9.35547 19.125 9.55078 19.2227C9.68359 19.2891 9.80469 19.2969 10.5156 19.3086L11.3242 19.3203V23.6562V27.9883H18.9805H26.6367V25.6641V23.3398H26.3047H25.9727V25.332V27.3242H18.9805H11.9883V23.3203V19.3164H14.7344C17.7852 19.3164 17.707 19.3242 17.9805 19.0586C18.0586 18.9844 18.1602 18.8477 18.2109 18.7578L18.2969 18.5938L18.3086 14.2852L18.3164 9.98047H20.1523H21.9883V11.9922V14.0039H23.9805H25.9727V16.3281V18.6523H26.3047H26.6367V16.0859V13.5156L24.5391 11.418L22.4375 9.31641H20.3828H18.3281L18.3086 9.01172C18.2812 8.57031 18.1016 8.27734 17.7305 8.08203C17.6016 8.01172 17.4141 8.00781 13.707 8C11.5703 7.99609 9.77734 8.00781 9.72266 8.02344ZM17.5391 8.76562L17.6523 8.87891V13.6523V18.4258L17.5391 18.5391L17.4258 18.6523H13.6484H9.87109L9.75781 18.5391L9.64453 18.4258V13.6523V8.87891L9.75781 8.76562L9.87109 8.65234H13.6484H17.4258L17.5391 8.76562ZM25.4648 13.3086C25.4648 13.3281 24.832 13.3398 24.0586 13.3398H22.6523V11.9062V10.4688L24.0586 11.875C24.832 12.6484 25.4648 13.293 25.4648 13.3086Z" fill="white"/>
<path d="M9.99609 10.1562V11.3086H13.6484H17.3008V10.1562V9.00391H13.6484H9.99609V10.1562ZM16.6367 10.1562V10.6445H13.6484H10.6602V10.1562V9.66797H13.6484H16.6367V10.1562Z" fill="white"/>
<path d="M10.7188 11.7148C10.5742 11.7812 10.4063 11.957 10.3516 12.1016C10.2969 12.2422 10.2969 13 10.3477 13.1836C10.3906 13.3438 10.586 13.5508 10.75 13.6094C10.8125 13.6328 11.0703 13.6523 11.3281 13.6523C11.8594 13.6523 12.0274 13.5977 12.1914 13.3711C12.2774 13.25 12.2813 13.207 12.2813 12.6523C12.2813 12.0742 12.2813 12.0625 12.1758 11.9258C12.0039 11.7031 11.8711 11.6602 11.3164 11.6602C11.0039 11.6641 10.7969 11.6797 10.7188 11.7148ZM11.6367 12.6562V12.9883H11.3047H10.9727V12.6562V12.3242H11.3047H11.6367V12.6562Z" fill="white"/>
<path d="M12.9844 11.75C12.8984 11.8008 12.793 11.9062 12.7422 11.9922C12.6641 12.1328 12.6523 12.2031 12.6523 12.6523C12.6523 13.1211 12.6602 13.168 12.75 13.3242C12.9062 13.5859 13.082 13.6523 13.6562 13.6523C14.2266 13.6523 14.4062 13.582 14.5547 13.3008C14.6328 13.1523 14.6445 13.0781 14.6445 12.6562C14.6445 12.2344 14.6328 12.1602 14.5547 12.0078C14.4023 11.7188 14.2539 11.6602 13.6484 11.6602C13.1953 11.6602 13.125 11.6719 12.9844 11.75ZM13.9805 12.6562V12.9883H13.6484H13.3164V12.6562V12.3242H13.6484H13.9805V12.6562Z" fill="white"/>
<path d="M15.3673 11.7227C15.0353 11.8945 14.9884 12.0195 15.0041 12.6992C15.0158 13.1953 15.0236 13.2539 15.1056 13.3711C15.2697 13.5977 15.4377 13.6523 15.9728 13.6523C16.2853 13.6523 16.4845 13.6328 16.5705 13.5977C16.7306 13.5312 16.8869 13.3555 16.9455 13.1875C17.0002 13.0234 17.0041 12.3164 16.9494 12.1289C16.9064 11.9687 16.7111 11.7617 16.547 11.7031C16.3673 11.6328 15.508 11.6484 15.3673 11.7227ZM16.3244 12.6562V12.9883H15.9923H15.6603V12.6562V12.3242H15.9923H16.3244V12.6562Z" fill="white"/>
<path d="M10.664 14.0698C10.5937 14.1049 10.4883 14.2026 10.4297 14.2885C10.3359 14.433 10.3281 14.4877 10.3164 14.8979C10.3008 15.394 10.3359 15.5776 10.4883 15.7573C10.6523 15.9526 10.8594 16.0073 11.3906 15.9916C11.9219 15.9721 12.0664 15.9135 12.2148 15.6518C12.2929 15.5112 12.3008 15.4408 12.3008 14.9721C12.3008 14.4877 12.2929 14.433 12.2109 14.3119C12.164 14.2416 12.0625 14.1401 11.9922 14.0932C11.8711 14.0112 11.8164 14.0033 11.3281 14.0033C10.914 14.0033 10.7695 14.019 10.664 14.0698ZM11.6367 14.9994V15.3315H11.3047H10.9726V14.9994V14.6674H11.3047H11.6367V14.9994Z" fill="white"/>
<path d="M12.9804 14.0781C12.914 14.1172 12.8163 14.2109 12.7655 14.2852C12.6835 14.3984 12.6718 14.4648 12.6601 14.8789C12.6405 15.4648 12.664 15.5742 12.8358 15.7617C13.0077 15.9531 13.1522 15.9961 13.6522 15.9961C14.0937 15.9961 14.2616 15.9531 14.4257 15.8047C14.6093 15.6406 14.6444 15.5 14.6444 14.9805C14.6444 14.4453 14.5897 14.2773 14.3632 14.1133C14.246 14.0312 14.1874 14.0234 13.6679 14.0117C13.164 14.0039 13.0897 14.0078 12.9804 14.0781ZM13.9804 15V15.332H13.6483H13.3163V15V14.668H13.6483H13.9804V15Z" fill="white"/>
<path d="M15.3047 14.0945C15.2344 14.1413 15.1328 14.2429 15.0859 14.3132C15.0039 14.4343 14.9961 14.489 14.9961 14.9695C14.9961 15.5827 15.0352 15.7116 15.2812 15.8718C15.4258 15.9695 15.4805 15.9773 15.8867 15.9929C16.3828 16.0085 16.5703 15.9695 16.75 15.8171C16.9453 15.6531 17 15.446 16.9844 14.9148C16.9688 14.489 16.9609 14.4343 16.8633 14.2898C16.7031 14.0437 16.5742 14.0046 15.9609 14.0046C15.4805 14.0046 15.4258 14.0124 15.3047 14.0945ZM16.3242 15.0007V15.3327H15.9922H15.6602V15.0007V14.6687H15.9922H16.3242V15.0007Z" fill="white"/>
<path d="M10.7656 16.3629C10.4102 16.4918 10.3086 16.7027 10.3086 17.3238C10.3086 17.8629 10.3711 18.0426 10.6133 18.2027C10.7344 18.2848 10.832 18.3082 11.0977 18.3277C11.7227 18.3707 12.0156 18.2809 12.2109 17.9918C12.293 17.8707 12.3008 17.816 12.3008 17.3355C12.3008 16.7691 12.2773 16.6832 12.0781 16.4996C12.0195 16.441 11.9102 16.3785 11.8359 16.3512C11.6523 16.2926 10.9492 16.3004 10.7656 16.3629ZM11.6367 17.3043V17.6363H11.3047H10.9727V17.3316C10.9727 17.1637 10.9844 17.0113 11 16.9996C11.0117 16.984 11.1641 16.9723 11.332 16.9723H11.6367V17.3043Z" fill="white"/>
<path d="M13.1094 16.3672C12.7461 16.4961 12.6523 16.6875 12.6523 17.3203C12.6523 17.8125 12.6836 17.9492 12.8203 18.0977C13 18.293 13.1055 18.3203 13.6484 18.3203C14.2227 18.3203 14.3281 18.2852 14.5156 18.0391C14.6211 17.9023 14.625 17.875 14.6367 17.4062C14.6445 17.1211 14.6328 16.8555 14.6094 16.7734C14.5547 16.5977 14.3477 16.4062 14.1484 16.3516C13.9375 16.293 13.2891 16.3008 13.1094 16.3672ZM13.9805 17.3047V17.6367H13.6484H13.3164V17.3047V16.9727H13.6484H13.9805V17.3047Z" fill="white"/>
<path d="M15.4453 16.3512C15.2969 16.398 15.1797 16.4957 15.0781 16.6637C15.0078 16.7809 14.9961 16.859 14.9961 17.3277C14.9961 17.816 15.0039 17.8707 15.0859 17.9918C15.2812 18.2809 15.5742 18.3707 16.1992 18.3277C16.4648 18.3082 16.5625 18.2848 16.6836 18.2027C16.9258 18.0426 16.9883 17.8629 16.9883 17.3238C16.9883 16.7027 16.8867 16.4918 16.5312 16.3629C16.3633 16.3043 15.6289 16.2965 15.4453 16.3512ZM16.3164 17.3121L16.3281 17.6363H15.9922H15.6602V17.3043V16.9684L15.9844 16.9801L16.3047 16.9918L16.3164 17.3121Z" fill="white"/>
<path d="M19.6445 15.3125V15.6445H19.9766H20.3086V15.3125V14.9805H19.9766H19.6445V15.3125Z" fill="white"/>
<path d="M20.9727 15.3125V15.6445H22.9844H25L24.9883 15.3203L24.9766 15L22.9766 14.9883L20.9727 14.9805V15.3125Z" fill="white"/>
<path d="M19.6445 16.6406V16.9727H19.9766H20.3086V16.6406V16.3086H19.9766H19.6445V16.6406Z" fill="white"/>
<path d="M20.9727 16.6406V16.9727H22.9844H25L24.9883 16.6484L24.9766 16.3281L22.9766 16.3164L20.9727 16.3086V16.6406Z" fill="white"/>
<path d="M19.6603 17.6875C19.6486 17.7188 19.6447 17.8711 19.6525 18.0312L19.6642 18.3203L19.9884 18.332L20.3088 18.3438V17.9883V17.6367H19.9963C19.7697 17.6367 19.6759 17.6523 19.6603 17.6875Z" fill="white"/>
<path d="M20.9884 17.6875C20.9767 17.7188 20.9728 17.8711 20.9806 18.0312L20.9923 18.3203H22.9845H24.9767V17.9883V17.6562L22.9923 17.6445C21.3556 17.6367 21.008 17.6445 20.9884 17.6875Z" fill="white"/>
<path d="M27.6133 18.4025C27.4648 18.4572 27.0039 18.8986 24.4688 21.4298L21.5 24.3947L21.082 25.3048C20.8281 25.8517 20.6602 26.2697 20.6602 26.3439C20.6602 26.4142 20.6914 26.4962 20.7383 26.5431C20.8984 26.7033 20.9727 26.6916 21.7266 26.3478C22.1172 26.1681 22.5508 25.965 22.6914 25.8947C22.918 25.7814 23.2539 25.4572 25.9023 22.8048C28.7695 19.9337 28.8594 19.8361 28.918 19.633C28.9961 19.3673 28.9961 19.3048 28.918 19.047C28.8477 18.8087 28.6445 18.5666 28.418 18.4494C28.2109 18.3439 27.8438 18.3205 27.6133 18.4025ZM28.1836 19.0978C28.3555 19.2423 28.3359 19.4337 28.1289 19.6408L27.9648 19.8048L27.7305 19.5705L27.4922 19.3361L27.668 19.1681C27.875 18.9728 28.0195 18.9533 28.1836 19.0978ZM27.2734 20.0509L27.4961 20.2775L27.3789 20.3908L27.2617 20.5041L27.0273 20.2736L26.793 20.0431L26.8984 19.9337C26.957 19.8751 27.0117 19.8244 27.0273 19.8244C27.0391 19.8244 27.1484 19.9259 27.2734 20.0509ZM26.5703 20.7541L26.793 20.9767L24.6523 23.1134L22.5156 25.2501L22.0977 25.4455C21.8633 25.5509 21.6758 25.633 21.6758 25.6212C21.6758 25.6134 21.7578 25.4259 21.8594 25.2072L22.0391 24.8048L24.1719 22.6642C25.3438 21.4884 26.3125 20.5275 26.3242 20.5275C26.3359 20.5275 26.4453 20.6291 26.5703 20.7541Z" fill="white"/>
<path d="M19.6445 19.3359V19.668H19.9766H20.3086V19.3359V19.0039H19.9766H19.6445V19.3359Z" fill="white"/>
<path d="M20.9727 19.3359V19.668L22.9766 19.6602L24.9766 19.6484L24.9883 19.3242L25 19.0039H22.9844H20.9727V19.3359Z" fill="white"/>
<path d="M16.1874 20.0165C15.7264 20.0946 15.3475 20.2275 14.9374 20.4657C14.5585 20.6884 13.9725 21.2821 13.7577 21.661C13.0233 22.9735 13.2186 24.536 14.246 25.6142C15.328 26.747 16.9608 26.9774 18.3319 26.1923C19.3436 25.6142 19.9686 24.5165 19.9647 23.3212C19.9647 21.5165 18.578 20.079 16.7733 20.0009C16.5585 19.9931 16.2968 20.0009 16.1874 20.0165ZM17.3202 20.7431C18.2538 20.9853 19.0194 21.7665 19.2343 22.6962C19.5663 24.1181 18.7147 25.5282 17.3007 25.9071C16.9569 25.997 16.3124 25.997 15.9725 25.9032C15.1132 25.6689 14.3905 24.9853 14.1132 24.1376C14.0116 23.8251 13.9999 23.7392 14.0038 23.3017C14.0038 22.872 14.0155 22.7743 14.1132 22.5009C14.4413 21.5439 15.2694 20.8407 16.246 20.6845C16.5233 20.6415 17.0233 20.6689 17.3202 20.7431Z" fill="white"/>
<path d="M16.3242 21.5039C16.3242 21.6641 16.3125 21.6992 16.2578 21.6992C16.1367 21.6992 15.7227 21.918 15.5898 22.0508C15.3945 22.2422 15.332 22.3945 15.332 22.6562C15.332 23.2031 15.793 23.5742 16.5625 23.6484C16.9648 23.6875 17.0312 23.707 17.1953 23.8164C17.4844 24.0195 17.1523 24.3125 16.6367 24.3125C16.4023 24.3164 16.1562 24.2227 16.0352 24.0859C15.9688 24.0156 15.918 24.0039 15.6328 24.0039H15.3008L15.3281 24.1289C15.3672 24.3125 15.4453 24.4453 15.5898 24.5898C15.7227 24.7227 16.1367 24.9414 16.2578 24.9414C16.3125 24.9414 16.3242 24.9766 16.3242 25.1367V25.332H16.6562H16.9883V25.1367C16.9883 25.0273 17.0039 24.9414 17.0273 24.9414C17.1406 24.9414 17.5039 24.7656 17.6523 24.6406C18.1992 24.1719 18.0039 23.3789 17.2695 23.1055C17.1523 23.0586 16.8906 23.0078 16.6914 22.9883C16.3203 22.9531 16.2109 22.918 16.0625 22.7812C15.9453 22.6758 15.9492 22.625 16.0898 22.5039C16.3867 22.2578 16.9766 22.2656 17.2305 22.5234C17.3398 22.6289 17.3672 22.6367 17.6562 22.6367C17.9492 22.6367 17.9648 22.6328 17.9648 22.5469C17.9609 22.3906 17.8242 22.1484 17.6523 22C17.5039 21.875 17.1406 21.6992 17.0273 21.6992C17.0039 21.6992 16.9883 21.6094 16.9883 21.5039V21.3086H16.6562H16.3242V21.5039Z" fill="white"/>
</g>
<defs>
<clipPath id="clip0_3419_74823">
<rect width="20" height="20" fill="white" transform="translate(9 8)"/>
</clipPath>
</defs>
</svg>
