<svg width="35" height="35" viewBox="0 0 35 35" fill="none" xmlns="http://www.w3.org/2000/svg">
<rect width="35" height="35" rx="3" fill="#1C75BB"/>
<path d="M16.1758 12.1211C15.5605 12.2934 14.9863 12.7732 14.7279 13.3311L14.5926 13.6182H13.8092C12.9027 13.6182 12.3121 13.6674 11.8445 13.7863C10.651 14.0898 9.6707 14.7912 8.98164 15.8412C8.82168 16.0873 8.67402 16.2842 8.65352 16.2842C8.57148 16.2842 8.05879 16.5098 7.90703 16.6123C7.16465 17.125 6.7791 18.0561 6.95957 18.9092C7.12773 19.7049 7.68965 20.3365 8.46074 20.599C8.63301 20.6605 8.73555 20.7221 8.77656 20.7918C9.33027 21.7064 9.97012 22.3299 10.7904 22.7564C11.1514 22.9451 11.418 23.0477 11.9061 23.183C12.1809 23.2609 12.3531 23.2691 13.5959 23.2855L14.9781 23.3061L15.1463 23.6547C15.5277 24.4381 16.2865 24.9139 17.1561 24.9098C18.0379 24.9098 18.7844 24.4381 19.1658 23.6506L19.3381 23.2979H21.4668C22.6357 23.2979 23.5955 23.3102 23.5914 23.3266C23.5914 23.3471 23.4232 23.4947 23.2223 23.6588L22.849 23.9623L22.9311 24.0484C22.9721 24.0977 23.1525 24.315 23.3289 24.5283C23.5053 24.7416 23.6693 24.918 23.6898 24.918C23.7596 24.918 25.9252 23.1092 25.999 22.9902C26.1057 22.8139 26.0975 22.4734 25.9908 22.3258C25.8965 22.2027 23.7391 20.4268 23.6857 20.4309C23.6488 20.435 22.8982 21.3578 22.8982 21.4029C22.8982 21.4234 23.0541 21.567 23.2469 21.7188C23.4396 21.8746 23.5955 22.0059 23.5955 22.0141C23.5955 22.0223 22.6316 22.0264 21.4545 22.0264L19.3094 22.0223L19.1494 21.6859C18.8418 21.0338 18.2061 20.5703 17.476 20.4637C16.5244 20.3242 15.5646 20.8328 15.1586 21.6941L15.0027 22.0223L13.8953 22.0264C13.2883 22.0264 12.6689 22.0059 12.5213 21.9854C11.902 21.8869 11.3154 21.6285 10.815 21.2348C10.5361 21.0092 10.0973 20.5293 10.1465 20.4965C10.1547 20.4883 10.2613 20.4227 10.3762 20.3488C10.9791 19.9715 11.377 19.2373 11.3811 18.499C11.3852 17.8387 11.1883 17.3588 10.7207 16.8994C10.5484 16.7271 10.3475 16.5631 10.2736 16.5344C10.2039 16.5057 10.1424 16.4646 10.1424 16.4441C10.1424 16.4236 10.2408 16.2924 10.3598 16.1529C10.7822 15.6525 11.459 15.2301 12.1357 15.0496C12.4187 14.9717 12.591 14.9553 13.5262 14.943L14.5926 14.9266L14.7525 15.267C15.134 16.075 15.9953 16.5836 16.8895 16.518C17.4309 16.477 17.8861 16.2801 18.2799 15.9191C18.5137 15.7018 18.7762 15.3121 18.8459 15.0865L18.891 14.9307H20.2896L21.6883 14.9348L21.8482 15.2711C22.2297 16.0791 23.091 16.5795 23.9852 16.518C24.9982 16.4482 25.8268 15.7264 26.0359 14.7461C26.1098 14.3852 26.1098 14.2047 26.0359 13.8438C25.876 13.0768 25.3264 12.4369 24.6004 12.1744C24.2969 12.0678 23.7104 12.0309 23.374 12.1006C22.7301 12.2318 22.1066 12.7322 21.8154 13.3475L21.6678 13.6592H20.2979H18.9279L18.7639 13.3188C18.5055 12.7896 18.0502 12.3754 17.5047 12.1744C17.1848 12.0596 16.4998 12.0309 16.1758 12.1211ZM17.1889 13.45C17.7508 13.7371 17.8615 14.5205 17.398 14.9594C17.2135 15.1357 17.0002 15.2178 16.7377 15.2178C16.4588 15.2137 16.225 15.107 16.0445 14.8938C15.782 14.5902 15.7328 14.2252 15.9092 13.8725C16.1471 13.3885 16.709 13.2039 17.1889 13.45ZM24.2846 13.45C24.8465 13.7371 24.9572 14.5205 24.4937 14.9594C24.3092 15.1357 24.0959 15.2178 23.8334 15.2178C23.5545 15.2137 23.3207 15.107 23.1402 14.8938C22.8777 14.5902 22.8285 14.2252 23.0049 13.8725C23.2428 13.3885 23.8047 13.2039 24.2846 13.45ZM9.38359 17.5598C10.0604 17.7402 10.3229 18.5729 9.86758 19.0773C9.6543 19.3111 9.45742 19.4014 9.15801 19.4014C8.0834 19.4014 7.85371 17.8961 8.8791 17.5762C9.10059 17.5064 9.17852 17.5023 9.38359 17.5598ZM17.5539 21.8254C18.1281 22.1043 18.2717 22.8631 17.841 23.3348C17.7057 23.4824 17.3693 23.626 17.1561 23.626C16.9428 23.626 16.6064 23.4824 16.4711 23.3348C16.2496 23.0928 16.1635 22.7154 16.2537 22.3914C16.307 22.1945 16.5613 21.9074 16.7623 21.8172C16.992 21.7146 17.3283 21.7188 17.5539 21.8254Z" fill="white"/>
</svg>
