<svg width="19" height="19" viewBox="0 0 19 19" fill="none" xmlns="http://www.w3.org/2000/svg">
<g clip-path="url(#clip0_1054_11592)">
<path d="M8.72032 -0.00637725C8.7761 -0.00709171 8.7761 -0.00709171 8.833 -0.00782061C8.87305 -0.00809473 8.91309 -0.00836886 8.95435 -0.00865129C8.99592 -0.00895082 9.03748 -0.00925036 9.08031 -0.00955898C9.1684 -0.0100722 9.25649 -0.0104703 9.34458 -0.0107622C9.43412 -0.0111886 9.52366 -0.0119456 9.61319 -0.0130453C9.74303 -0.0146398 9.87284 -0.0152307 10.0027 -0.0156093C10.0619 -0.0165839 10.0619 -0.0165839 10.1222 -0.0175781C10.6336 -0.0161219 11.0243 0.170334 11.3933 0.517693C11.7529 0.901417 11.8801 1.37456 11.8756 1.89045C11.8754 1.91583 11.8752 1.9412 11.875 1.96735C11.8746 2.02908 11.874 2.09081 11.8732 2.15253C11.9137 2.15968 11.9137 2.15968 11.9551 2.16697C12.0539 2.18858 12.1404 2.21781 12.234 2.2556C12.2663 2.26854 12.2985 2.28148 12.3317 2.29481C12.3648 2.30833 12.398 2.32184 12.4322 2.33576C12.4655 2.34913 12.4988 2.3625 12.5332 2.37628C12.7831 2.47717 12.7831 2.47717 12.8812 2.52839C12.9482 2.567 12.9482 2.567 13.0244 2.55537C13.1179 2.51495 13.1662 2.46214 13.2347 2.38679C13.5904 2.02062 14.0178 1.84561 14.5266 1.80927C15.2413 1.82294 15.6799 2.17863 16.161 2.664C16.2424 2.74586 16.325 2.82647 16.4077 2.90704C16.8728 3.36775 17.1378 3.78259 17.1915 4.44868C17.1744 4.97023 16.9736 5.3854 16.6138 5.74809C16.4856 5.87865 16.4856 5.87865 16.4377 6.04902C16.4617 6.13719 16.4617 6.13719 16.5045 6.22746C16.5268 6.27823 16.5268 6.27823 16.5495 6.33002C16.5654 6.36511 16.5813 6.4002 16.5977 6.43635C16.6285 6.50588 16.6593 6.57541 16.6901 6.64494C16.7039 6.67568 16.7177 6.70641 16.732 6.73807C16.8459 6.99714 16.8459 6.99714 16.8459 7.12519C16.8818 7.12433 16.9176 7.12347 16.9546 7.12258C17.5656 7.11411 18.0591 7.21265 18.5158 7.64472C18.7924 7.93857 19.0002 8.31326 19.0048 8.72286C19.0053 8.76017 19.0058 8.79747 19.0062 8.83591C19.0067 8.89615 19.0067 8.89615 19.0071 8.95761C19.0074 8.99926 19.0077 9.04092 19.008 9.08383C19.0085 9.17208 19.0089 9.26033 19.0092 9.34857C19.0096 9.43837 19.0104 9.52816 19.0115 9.61794C19.0131 9.74806 19.0137 9.87815 19.014 10.0083C19.0147 10.0479 19.0153 10.0875 19.016 10.1284C19.0147 10.5784 18.8501 11.0025 18.5434 11.3352C18.1307 11.7265 17.6729 11.8825 17.108 11.8775C17.0826 11.8773 17.0572 11.8772 17.0311 11.877C16.9693 11.8766 16.9076 11.8759 16.8459 11.8752C16.8411 11.9022 16.8364 11.9292 16.8315 11.957C16.8099 12.0559 16.7806 12.1423 16.7428 12.236C16.7299 12.2682 16.7169 12.3004 16.7036 12.3336C16.6901 12.3668 16.6766 12.4 16.6627 12.4342C16.6426 12.4841 16.6426 12.4841 16.6222 12.5351C16.5213 12.785 16.5213 12.785 16.47 12.8831C16.4314 12.9501 16.4314 12.9501 16.4431 13.0263C16.4835 13.1199 16.5363 13.1682 16.6116 13.2366C16.9778 13.5923 17.1528 14.0198 17.1892 14.5285C17.1755 15.2432 16.8198 15.6819 16.3344 16.163C16.2526 16.2444 16.172 16.3269 16.0914 16.4096C15.6537 16.8515 15.2167 17.1782 14.5685 17.1827C14.0007 17.1591 13.5645 16.9675 13.1767 16.5487C13.1493 16.5159 13.1493 16.5159 13.1213 16.4824C13.0611 16.4296 13.0611 16.4296 12.9745 16.4514C12.8811 16.4752 12.7978 16.5047 12.7094 16.5427C12.6638 16.5621 12.6638 16.5621 12.6173 16.5819C12.5861 16.5954 12.5548 16.6089 12.5227 16.6229C12.4311 16.662 12.3396 16.7012 12.2481 16.7403C12.1861 16.7668 12.1242 16.7934 12.0623 16.8202C11.9846 16.8478 11.9846 16.8478 11.8732 16.8478C11.8741 16.8837 11.875 16.9196 11.8758 16.9566C11.8843 17.5676 11.7858 18.0611 11.3537 18.5178C11.0599 18.7944 10.6852 19.0022 10.2756 19.0068C10.2383 19.0072 10.201 19.0077 10.1625 19.0082C10.1224 19.0085 10.0822 19.0088 10.0408 19.009C9.99916 19.0093 9.95751 19.0096 9.9146 19.0099C9.82635 19.0105 9.7381 19.0109 9.64985 19.0111C9.56006 19.0116 9.47027 19.0123 9.38049 19.0134C9.25037 19.015 9.12028 19.0156 8.99016 19.016C8.95052 19.0166 8.91088 19.0173 8.87005 19.018C8.42 19.0167 7.99597 18.8521 7.66321 18.5453C7.27191 18.1327 7.11592 17.6748 7.12092 17.1099C7.12109 17.0846 7.12125 17.0592 7.12143 17.033C7.12186 16.9713 7.12252 16.9096 7.12324 16.8478C7.10152 16.8433 7.0798 16.8387 7.05743 16.8339C6.78055 16.7674 6.53239 16.6598 6.27699 16.5363C6.24938 16.5234 6.22177 16.5104 6.19333 16.497C6.15642 16.4792 6.15642 16.4792 6.11876 16.4609C6.03047 16.4347 5.98415 16.4447 5.89863 16.4768C5.82837 16.5377 5.82837 16.5377 5.76179 16.6136C5.39341 16.9928 4.96363 17.162 4.43585 17.1853C3.73172 17.1669 3.30801 16.8131 2.83546 16.3364C2.75403 16.2545 2.67149 16.1739 2.58879 16.0933C2.1237 15.6326 1.85872 15.2178 1.805 14.5517C1.8221 14.0301 2.02283 13.615 2.38266 13.2523C2.4786 13.1545 2.54177 13.0886 2.55878 12.9514C2.53902 12.8776 2.53902 12.8776 2.50138 12.8051C2.48842 12.7775 2.47545 12.7499 2.4621 12.7214C2.44808 12.6925 2.43407 12.6635 2.41962 12.6336C2.30383 12.3853 2.20753 12.1445 2.15058 11.8752C2.1147 11.8761 2.07883 11.8769 2.04186 11.8778C1.43083 11.8863 0.937332 11.7877 0.48066 11.3557C0.204038 11.0618 -0.00375725 10.6871 -0.00833037 10.2775C-0.00880668 10.2402 -0.00928299 10.2029 -0.00977373 10.1645C-0.0100479 10.1243 -0.010322 10.0842 -0.0106044 10.0428C-0.0109039 10.0011 -0.0112035 9.95946 -0.0115121 9.91655C-0.0120253 9.8283 -0.0124234 9.74006 -0.0127154 9.65181C-0.013142 9.56202 -0.0138996 9.47223 -0.0149985 9.38244C-0.0165908 9.25232 -0.0171835 9.12224 -0.0175624 8.99211C-0.0182121 8.95247 -0.0188618 8.91284 -0.0195312 8.872C-0.0182497 8.42196 0.146362 7.99792 0.453118 7.66516C0.865763 7.27386 1.32359 7.11787 1.8885 7.12287C1.92656 7.12312 1.92656 7.12312 1.9654 7.12338C2.02713 7.12381 2.08885 7.12448 2.15058 7.12519C2.15747 7.09261 2.15747 7.09261 2.1645 7.05938C2.23101 6.7825 2.33859 6.53434 2.4621 6.27894C2.48154 6.23753 2.48154 6.23753 2.50138 6.19528C2.5133 6.17067 2.52523 6.14606 2.53751 6.12071C2.56371 6.03243 2.55368 5.9861 2.52168 5.90058C2.46071 5.83032 2.46071 5.83032 2.38483 5.76374C2.01867 5.40805 1.84366 4.98063 1.80732 4.47187C1.82099 3.75716 2.17667 3.31849 2.66205 2.83741C2.74391 2.75598 2.82451 2.67344 2.90509 2.59074C3.3658 2.12565 3.78063 1.86067 4.44672 1.80695C4.96828 1.82405 5.38345 2.02479 5.74614 2.38461C5.8767 2.51282 5.8767 2.51282 6.04707 2.56074C6.13344 2.53672 6.13344 2.53672 6.2216 2.49391C6.25494 2.47906 6.28828 2.46421 6.32263 2.4489C6.35722 2.433 6.3918 2.41709 6.42744 2.4007C6.65777 2.29591 6.87517 2.20523 7.12324 2.15253C7.12238 2.11666 7.12152 2.08078 7.12063 2.04382C7.1118 1.40695 7.2297 0.923833 7.67147 0.448983C7.94796 0.182993 8.33432 -0.00205288 8.72032 -0.00637725ZM8.46381 1.3083C8.21706 1.62763 8.25751 1.96552 8.25732 2.35359C8.25056 2.80702 8.25056 2.80702 8.08808 3.00605C8.01589 3.05606 8.01589 3.05606 7.93501 3.08259C7.90224 3.09402 7.86947 3.10545 7.83571 3.11723C7.77284 3.13696 7.70997 3.15667 7.64706 3.17625C7.13697 3.33583 6.61916 3.52335 6.16724 3.81419C6.06568 3.86967 5.99523 3.87445 5.88007 3.87348C5.84601 3.87377 5.81195 3.87406 5.77686 3.87435C5.49208 3.83262 5.30785 3.56984 5.11824 3.37316C4.85817 3.09747 4.85817 3.09747 4.51167 2.96894C4.48612 2.96511 4.46058 2.96129 4.43426 2.95734C4.17864 2.98881 3.98227 3.15558 3.80702 3.3325C3.77593 3.36325 3.77593 3.36325 3.7442 3.39462C3.70083 3.43773 3.65765 3.48102 3.61465 3.52449C3.54923 3.59043 3.48296 3.65543 3.41658 3.72041C3.37427 3.76268 3.33201 3.80501 3.28981 3.84739C3.27021 3.8665 3.25061 3.8856 3.23042 3.90529C3.05386 4.08633 2.9704 4.2716 2.96235 4.52522C3.03011 4.87622 3.38711 5.13916 3.63244 5.37584C3.65614 5.3989 3.67983 5.42195 3.70425 5.4457C3.72572 5.46631 3.74719 5.48693 3.76932 5.50816C3.88534 5.64062 3.87226 5.8093 3.87053 5.97611C3.84885 6.16075 3.76356 6.29957 3.66975 6.45722C3.42394 6.89659 3.25901 7.3458 3.11079 7.82563C3.05485 7.99728 3.00095 8.09333 2.85566 8.20136C2.73243 8.24244 2.63697 8.24433 2.50718 8.2463C2.46016 8.24735 2.41313 8.24841 2.36469 8.24949C2.26582 8.25152 2.16698 8.25306 2.0681 8.25442C1.7617 8.26187 1.55317 8.27504 1.30634 8.46577C1.08556 8.74788 1.09392 9.07592 1.09701 9.42064C1.0976 9.50005 1.09701 9.57938 1.0963 9.65878C1.09579 9.98149 1.10157 10.273 1.30634 10.5346C1.62567 10.7814 1.96357 10.7409 2.35164 10.7411C2.80506 10.7479 2.80506 10.7479 3.0041 10.9103C3.05411 10.9825 3.05411 10.9825 3.08064 11.0634C3.09778 11.1126 3.09778 11.1126 3.11528 11.1627C3.13501 11.2256 3.15472 11.2885 3.1743 11.3514C3.33388 11.8615 3.5214 12.3793 3.81224 12.8312C3.86772 12.9327 3.8725 13.0032 3.87153 13.1184C3.87182 13.1524 3.8721 13.1865 3.8724 13.2216C3.83066 13.5064 3.56789 13.6906 3.3712 13.8802C3.07818 14.1626 3.07818 14.1626 2.96336 14.5448C2.97571 14.8052 3.11928 14.9871 3.29793 15.1624C3.31931 15.184 3.34068 15.2055 3.36271 15.2277C3.40774 15.2729 3.453 15.3178 3.49849 15.3625C3.56752 15.4306 3.63551 15.4995 3.70345 15.5687C3.74758 15.6127 3.79176 15.6566 3.83601 15.7005C3.85605 15.7209 3.87608 15.7413 3.89673 15.7624C4.08018 15.9404 4.2623 16.0278 4.52326 16.0361C4.87427 15.9683 5.13721 15.6113 5.37389 15.366C5.39694 15.3423 5.42 15.3186 5.44375 15.2942C5.47467 15.262 5.47467 15.262 5.50621 15.2291C5.63866 15.1131 5.80735 15.1262 5.97415 15.1279C6.15879 15.1496 6.29762 15.2349 6.45527 15.3287C6.89464 15.5745 7.34385 15.7394 7.82368 15.8876C7.99533 15.9436 8.09137 15.9975 8.19941 16.1428C8.24049 16.266 8.24237 16.3615 8.24435 16.4912C8.2454 16.5383 8.24645 16.5853 8.24754 16.6337C8.24956 16.7326 8.2511 16.8314 8.25246 16.9303C8.25992 17.2367 8.27309 17.4453 8.46381 17.6921C8.74593 17.9129 9.07397 17.9045 9.41869 17.9014C9.49809 17.9008 9.57742 17.9014 9.65682 17.9021C9.97954 17.9026 10.271 17.8969 10.5327 17.6921C10.7794 17.3728 10.739 17.0349 10.7392 16.6468C10.7459 16.1934 10.7459 16.1934 10.9084 15.9943C10.9806 15.9443 10.9806 15.9443 11.0615 15.9178C11.0942 15.9064 11.127 15.8949 11.1608 15.8831C11.2236 15.8634 11.2865 15.8437 11.3494 15.8241C11.8595 15.6646 12.3773 15.477 12.8292 15.1862C12.9308 15.1307 13.0012 15.1259 13.1164 15.1269C13.1505 15.1266 13.1845 15.1263 13.2196 15.126C13.5044 15.1678 13.6886 15.4305 13.8782 15.6272C14.1607 15.9202 14.1607 15.9202 14.5429 16.0351C14.8032 16.0227 14.9851 15.8791 15.1605 15.7005C15.182 15.6791 15.2036 15.6577 15.2258 15.6357C15.2709 15.5907 15.3159 15.5454 15.3606 15.4999C15.4286 15.4309 15.4976 15.3629 15.5667 15.295C15.6107 15.2508 15.6547 15.2067 15.6985 15.1624C15.7292 15.1324 15.7292 15.1324 15.7604 15.1017C15.9384 14.9182 16.0258 14.7361 16.0341 14.4752C15.9664 14.1242 15.6094 13.8612 15.364 13.6245C15.3403 13.6015 15.3166 13.5784 15.2922 13.5547C15.2708 13.5341 15.2493 13.5135 15.2272 13.4922C15.1111 13.3598 15.1242 13.1911 15.1259 13.0243C15.1476 12.8396 15.2329 12.7008 15.3267 12.5432C15.5725 12.1038 15.7375 11.6546 15.8857 11.1748C15.9416 11.0031 15.9955 10.9071 16.1408 10.799C16.264 10.7579 16.3595 10.7561 16.4893 10.7541C16.5363 10.753 16.5833 10.752 16.6318 10.7509C16.7307 10.7489 16.8295 10.7473 16.9284 10.746C17.2348 10.7385 17.4433 10.7253 17.6901 10.5346C17.9109 10.2525 17.9026 9.92446 17.8995 9.57974C17.8989 9.50034 17.8995 9.42101 17.9002 9.34161C17.9007 9.01889 17.8949 8.72742 17.6901 8.46577C17.3708 8.21901 17.0329 8.25947 16.6448 8.25927C16.1914 8.25252 16.1914 8.25252 15.9924 8.09003C15.9424 8.01785 15.9424 8.01785 15.9158 7.93696C15.9044 7.90419 15.893 7.87142 15.8812 7.83766C15.8615 7.7748 15.8418 7.71193 15.8222 7.64902C15.6626 7.13892 15.4751 6.62111 15.1842 6.16919C15.1288 6.06763 15.124 5.99718 15.1249 5.88203C15.1247 5.84797 15.1244 5.81391 15.1241 5.77882C15.1658 5.49403 15.4286 5.3098 15.6253 5.1202C15.9183 4.83776 15.9183 4.83776 16.0331 4.45557C16.0208 4.19523 15.8772 4.01333 15.6985 3.83797C15.6772 3.81641 15.6558 3.79486 15.6338 3.77265C15.5887 3.72749 15.5435 3.68256 15.498 3.63786C15.429 3.56982 15.361 3.50085 15.293 3.43172C15.2489 3.38772 15.2047 3.34377 15.1605 3.29988C15.1304 3.26927 15.1304 3.26927 15.0997 3.23803C14.9163 3.06003 14.7342 2.97259 14.4732 2.9643C14.1222 3.03206 13.8593 3.38906 13.6226 3.63439C13.5995 3.65809 13.5765 3.68179 13.5527 3.7062C13.5218 3.73841 13.5218 3.73841 13.4903 3.77127C13.3578 3.8873 13.1891 3.87421 13.0223 3.87249C12.8377 3.8508 12.6989 3.76551 12.5412 3.6717C12.1018 3.4259 11.6526 3.26096 11.1728 3.11274C11.0011 3.0568 10.9051 3.0029 10.7971 2.85761C10.756 2.73438 10.7541 2.63892 10.7521 2.50913C10.7511 2.46211 10.75 2.41509 10.7489 2.36664C10.7469 2.26777 10.7454 2.16893 10.744 2.07005C10.7366 1.76366 10.7234 1.55512 10.5327 1.3083C10.2505 1.08751 9.92251 1.09588 9.57778 1.09896C9.49838 1.09956 9.41905 1.09896 9.33965 1.09825C9.01694 1.09775 8.72546 1.10353 8.46381 1.3083Z" fill="#4F5051"/>
<path d="M9.30945 5.33798C10.3446 5.31027 11.3923 5.60179 12.1717 6.30862C12.2018 6.33402 12.232 6.35942 12.2631 6.38559C13.0302 7.04393 13.5744 8.05415 13.6526 9.07225C13.6543 9.11868 13.6543 9.11868 13.656 9.16604C13.6579 9.21345 13.6599 9.26085 13.6618 9.3097C13.6895 10.3448 13.398 11.3926 12.6912 12.1719C12.6658 12.2021 12.6404 12.2323 12.6142 12.2634C11.9527 13.0342 10.9487 13.5719 9.92828 13.6529C8.79659 13.6929 7.703 13.4537 6.82791 12.6914C6.79743 12.6659 6.76696 12.6403 6.73557 12.614C5.96955 11.954 5.42523 10.9466 5.34701 9.9278C5.34586 9.89685 5.34471 9.8659 5.34353 9.83401C5.34162 9.7866 5.3397 9.7392 5.33773 9.69036C5.31003 8.65523 5.60155 7.60748 6.30838 6.82815C6.33378 6.79797 6.35918 6.76778 6.38535 6.73668C7.04369 5.96961 8.0539 5.42542 9.07201 5.34725C9.15116 5.34432 9.23031 5.34117 9.30945 5.33798ZM7.27322 7.45901C6.69868 8.12333 6.43758 8.92385 6.49392 9.7969C6.59906 10.6273 6.99045 11.3588 7.64895 11.8797C8.31262 12.3834 9.1165 12.592 9.94205 12.4875C10.7652 12.3365 11.4882 11.9081 11.9767 11.2226C12.4375 10.5417 12.6083 9.73055 12.4639 8.92251C12.3499 8.42062 12.153 8.01306 11.8377 7.60745C11.8022 7.56167 11.8022 7.56167 11.7659 7.51496C11.278 6.92863 10.5472 6.58149 9.79666 6.49417C8.82658 6.44027 7.95373 6.75276 7.27322 7.45901Z" fill="#4F5051"/>
</g>
<defs>
<clipPath id="clip0_1054_11592">
<rect width="19" height="19" fill="white"/>
</clipPath>
</defs>
</svg>
