<svg width="35" height="35" viewBox="0 0 35 35" fill="none" xmlns="http://www.w3.org/2000/svg">
<rect width="35" height="35" rx="3" fill="#F74875"/>
<g clip-path="url(#clip0_3419_75026)">
<path d="M16.4219 8.5625C15.9648 8.66015 15.5625 8.94922 15.3047 9.37109L15.1602 9.60156H14.3242C13.4883 9.60156 13.4883 9.60156 13.3945 9.69922C13.3281 9.76172 13.2969 9.83594 13.2969 9.92969V10.0664L11.7461 10.0781C10.2617 10.0898 10.1836 10.0937 10.0117 10.1719C9.76562 10.2891 9.55859 10.4805 9.4375 10.7109L9.33203 10.9102V18.7812V26.6523L9.4375 26.8516C9.55859 27.082 9.76562 27.2734 10.0117 27.3906L10.1914 27.4727H17.0859C23.6562 27.4727 24 27.4687 24.3711 27.3984C26.2852 27.043 27.8398 25.6914 28.4258 23.8789C28.6172 23.2969 28.668 22.9531 28.668 22.2578C28.668 21.7266 28.6523 21.543 28.5742 21.2031C28.4336 20.5625 28.2383 20.0859 27.8438 19.418L27.7695 19.293L27.9102 19.1445C28.0898 18.9609 28.1406 18.8594 28.1406 18.7031C28.1406 18.5195 28.0625 18.4023 27.6836 18.0352C27.293 17.6523 27.2305 17.6094 27.0195 17.6094C26.8594 17.6094 26.7539 17.6641 26.5508 17.8555L26.4297 17.9687L26.1992 17.832C25.6602 17.5078 25.0352 17.2617 24.5117 17.1641L24.2539 17.1172L24.2422 16.9727C24.2305 16.8359 24.2344 16.8281 24.3516 16.8281C24.5 16.8281 24.6523 16.7539 24.7812 16.6133C24.8711 16.5195 24.8789 16.4727 24.8906 16.0859C24.9023 15.7539 24.8906 15.6406 24.8398 15.543C24.7578 15.3828 24.5664 15.2656 24.3828 15.2656H24.2344V13.1641C24.2344 10.7969 24.2344 10.8008 23.9609 10.4883C23.8711 10.3867 23.7031 10.2617 23.5781 10.1992L23.3555 10.0898L21.8047 10.0781L20.25 10.0664V9.92969C20.25 9.83594 20.2188 9.76172 20.1523 9.69922C20.0586 9.60156 20.0586 9.60156 19.2188 9.60156H18.3828L18.2656 9.39453C18.0273 8.97265 17.5586 8.64062 17.0703 8.55078C16.7891 8.5 16.6992 8.5 16.4219 8.5625ZM17.2695 9.27344C17.5195 9.39453 17.6875 9.58984 17.7969 9.88672C17.918 10.2187 17.9453 10.2266 18.8633 10.2266H19.625V10.9687V11.7109H16.7734H13.9219V10.9687V10.2266H14.6836C15.5859 10.2266 15.6367 10.2109 15.7344 9.92578C15.9648 9.2539 16.6367 8.96875 17.2695 9.27344ZM13.2969 10.9687V11.2422H11.9727C10.7266 11.2422 10.6445 11.2461 10.5586 11.3164L10.4648 11.3906V18.7812V26.1719L10.5586 26.2461C10.6484 26.3164 10.7812 26.3203 15.4141 26.3203H20.1797L20.5742 26.5859L20.9688 26.8477L15.7227 26.8594C12.3594 26.8633 10.4219 26.8555 10.332 26.8281C10.2539 26.8086 10.1367 26.7344 10.0742 26.6719L9.95703 26.5508L9.94531 18.8672C9.94141 14.6406 9.94531 11.1445 9.95703 11.0977C9.98828 10.9648 10.168 10.7773 10.3008 10.7383C10.3711 10.7187 11.0703 10.6992 11.8633 10.6992L13.2969 10.6953V10.9687ZM23.2227 10.7344C23.2969 10.7539 23.4102 10.8281 23.4766 10.8945L23.5898 11.0117L23.6016 13.1406L23.6094 15.2656H23.3594H23.1055L23.0938 13.3281L23.082 11.3906L22.9883 11.3164C22.9023 11.2461 22.8203 11.2422 21.5742 11.2422H20.25V10.9687V10.6953H21.668C22.4766 10.6953 23.1406 10.7109 23.2227 10.7344ZM13.2969 12C13.2969 12.0742 13.332 12.1758 13.3789 12.2344L13.457 12.3359H16.7734H20.0898L20.168 12.2344C20.2148 12.1758 20.25 12.0742 20.25 12V11.8672H21.3633H22.4766V13.5547V15.2461L22.3242 15.332C22.1094 15.457 22.0469 15.6133 22.0469 16.0547C22.0469 16.3477 22.0625 16.4414 22.125 16.543C22.2227 16.7031 22.3555 16.7891 22.5547 16.8164C22.7031 16.8359 22.7109 16.8437 22.7109 16.9727C22.7109 17.043 22.6875 17.1094 22.6641 17.1172C22.6367 17.1211 22.4297 17.1719 22.2031 17.2266C21.7383 17.3398 21.1992 17.5625 20.793 17.8047L20.5195 17.9727L20.375 17.8359C20.1875 17.6562 20.0938 17.6094 19.918 17.6094C19.7461 17.6094 19.6055 17.6797 19.4531 17.8398L19.3359 17.9609H17.8516C16.3828 17.9609 16.3672 17.9609 16.2773 18.0469C16.1641 18.1523 16.1602 18.3477 16.2617 18.4727L16.3359 18.5664L17.5703 18.5781L18.8047 18.5898V18.6836C18.8047 18.8398 18.8789 18.9883 19.043 19.1523C19.1875 19.3047 19.1914 19.3164 19.1328 19.3984C19.0742 19.4844 19.0742 19.4844 17.7266 19.4844H16.3789L16.2852 19.582C16.2227 19.6406 16.1875 19.7227 16.1875 19.7969C16.1875 19.8711 16.2227 19.9531 16.2852 20.0117L16.3789 20.1094H17.5586C18.6641 20.1094 18.7344 20.1133 18.7031 20.1758C18.5156 20.5977 18.3555 21.2539 18.2734 21.9141L18.2539 22.1016H17.3125C16.3984 22.1016 16.3672 22.1055 16.2773 22.1875C16.1641 22.293 16.1602 22.4883 16.2617 22.6133C16.3359 22.707 16.3398 22.707 17.3164 22.7187L18.2969 22.7305V22.8359C18.2969 22.8945 18.3281 23.0937 18.3672 23.2812L18.4375 23.625H17.4141C16.4414 23.625 16.3867 23.6289 16.2891 23.707C16.1523 23.8164 16.1484 24.0195 16.2852 24.1523L16.3789 24.25H17.5117H18.6484L18.8086 24.5703C18.9805 24.9141 19.1992 25.2578 19.418 25.5273L19.5508 25.6953H15.3125H11.0703V18.7812V11.8672H12.1836H13.2969V12ZM24.2734 16.0469V16.2031H23.4727H22.6719V16.0469V15.8906H23.4727H24.2734V16.0469ZM23.6094 16.9453C23.6094 17.0547 23.5977 17.0625 23.4727 17.0625C23.3477 17.0625 23.3359 17.0547 23.3359 16.9453C23.3359 16.8359 23.3477 16.8281 23.4727 16.8281C23.5977 16.8281 23.6094 16.8359 23.6094 16.9453ZM24.2188 17.7461C25.6914 17.9961 26.9102 18.9023 27.582 20.2461C28.8789 22.8242 27.418 25.9883 24.5977 26.707C22.5508 27.2305 20.3477 26.2344 19.4141 24.3711C19.0352 23.6172 18.9062 23.082 18.9102 22.2578C18.9102 20.9883 19.3672 19.8984 20.2734 19C21.2969 17.9844 22.8086 17.5078 24.2188 17.7461ZM19.7969 18.5898C19.6172 18.7695 19.5586 18.8086 19.5195 18.7734C19.4766 18.7383 19.5078 18.6875 19.6875 18.5039C19.8672 18.3242 19.9258 18.2852 19.9648 18.3203C20.0078 18.3555 19.9766 18.4062 19.7969 18.5898ZM27.2773 18.4844C27.4609 18.6719 27.4844 18.707 27.4375 18.7617C27.3906 18.8164 27.3594 18.8008 27.1602 18.6016C26.9844 18.4297 26.9414 18.3633 26.9766 18.3242C27.0391 18.25 27.0508 18.2539 27.2773 18.4844Z" fill="white"/>
<path d="M16.6328 9.64148C16.5078 9.69227 16.4219 9.8368 16.4219 9.99695C16.4219 10.2509 16.7148 10.4188 16.9414 10.2977C17.0742 10.2274 17.1211 10.1415 17.125 9.96961C17.125 9.85242 17.1016 9.78992 17.0352 9.72742C16.9297 9.62977 16.75 9.5907 16.6328 9.64148Z" fill="white"/>
<path d="M13.3201 13.2422C12.8514 13.3047 12.3787 13.6172 12.1365 14.0195C11.6248 14.8789 11.9568 15.9844 12.8592 16.4102C13.1053 16.5273 13.1443 16.5352 13.5701 16.5352C13.9998 16.5352 14.031 16.5313 14.285 16.4063C15.3318 15.8906 15.5701 14.5508 14.7615 13.7188C14.3865 13.3359 13.8709 13.1641 13.3201 13.2422ZM14.0115 13.9492C14.3475 14.0898 14.6248 14.5078 14.6248 14.875C14.6248 15.2734 14.3748 15.6719 14.0232 15.8359C13.6131 16.0273 13.0818 15.9258 12.8006 15.6016C12.5779 15.3516 12.535 15.2383 12.535 14.8945C12.535 14.5273 12.6131 14.3477 12.867 14.1172C13.1912 13.8242 13.5779 13.7656 14.0115 13.9492Z" fill="white"/>
<path d="M14.0001 14.2767C13.9689 14.2884 13.8244 14.4017 13.6798 14.5267C13.5392 14.6556 13.4064 14.7571 13.3869 14.7571C13.3673 14.7571 13.3087 14.7142 13.2579 14.6595C13.0665 14.4564 12.7345 14.6009 12.7423 14.8782C12.7462 14.9759 12.797 15.0579 12.9884 15.2493C13.1212 15.3821 13.2736 15.5032 13.3244 15.5189C13.4572 15.5501 13.5626 15.4798 14.0001 15.0774C14.3439 14.7571 14.3908 14.6985 14.3908 14.5814C14.3908 14.3704 14.1837 14.2064 14.0001 14.2767Z" fill="white"/>
<path d="M16.2891 13.9023C16.1524 14.0117 16.1485 14.2148 16.2852 14.3477L16.3789 14.4453H18.9219H21.4649L21.5586 14.3477C21.6211 14.2891 21.6563 14.207 21.6563 14.1328C21.6563 14.0586 21.6211 13.9766 21.5586 13.918L21.4649 13.8203H18.9297C16.4219 13.8203 16.3906 13.8203 16.2891 13.9023Z" fill="white"/>
<path d="M16.2852 15.4414C16.2227 15.5 16.1875 15.582 16.1875 15.6562C16.1875 15.7305 16.2227 15.8125 16.2852 15.8711L16.3789 15.9688H18.9219H21.4648L21.5586 15.8711C21.6211 15.8125 21.6562 15.7305 21.6562 15.6562C21.6562 15.582 21.6211 15.5 21.5586 15.4414L21.4648 15.3438H18.9219H16.3789L16.2852 15.4414Z" fill="white"/>
<path d="M13.2854 17.3757C12.84 17.4538 12.3674 17.778 12.1369 18.1608C11.676 18.9304 11.8947 19.9225 12.6369 20.4186C12.9729 20.6413 13.2229 20.7077 13.6643 20.6882C13.965 20.6765 14.0588 20.653 14.2775 20.5475C15.2541 20.0788 15.5471 18.8405 14.883 17.9968C14.5119 17.5241 13.8674 17.2741 13.2854 17.3757ZM14.0236 18.0866C14.3557 18.239 14.6252 18.6608 14.6252 19.0163C14.6252 19.7858 13.8166 20.3015 13.1174 19.9772C12.4689 19.6765 12.3166 18.7663 12.8361 18.2897C13.0432 18.0983 13.0979 18.0671 13.2893 18.0163C13.5158 17.9499 13.7971 17.9772 14.0236 18.0866Z" fill="white"/>
<path d="M13.7773 18.5773C13.6523 18.6827 13.5273 18.796 13.4961 18.8312C13.4219 18.921 13.3633 18.9132 13.2578 18.7999C13.1445 18.6788 12.957 18.671 12.8359 18.7804C12.75 18.8585 12.7344 18.921 12.75 19.0734C12.7578 19.1749 13.2031 19.628 13.3242 19.6593C13.457 19.6905 13.5547 19.6241 13.9961 19.2179C14.3633 18.878 14.3906 18.8429 14.3906 18.7023C14.3906 18.5851 14.3672 18.5343 14.2891 18.4718C14.1328 18.3468 14.0273 18.3702 13.7773 18.5773Z" fill="white"/>
<path d="M13.2187 21.5312C12.1523 21.7617 11.582 22.9414 12.0664 23.9062C12.3594 24.4883 12.918 24.8359 13.5547 24.8359C14.3984 24.8359 15.0742 24.2656 15.2187 23.4297C15.3711 22.5469 14.7578 21.6836 13.8633 21.5195C13.5859 21.4688 13.4961 21.4688 13.2187 21.5312ZM13.9844 22.1992C14.0547 22.2266 14.1914 22.3242 14.2891 22.4141C14.9805 23.0547 14.5195 24.2109 13.5703 24.2109C12.9453 24.2109 12.4687 23.6953 12.5273 23.0781C12.5703 22.6016 12.8867 22.2539 13.3945 22.125C13.5117 22.0977 13.8398 22.1367 13.9844 22.1992Z" fill="white"/>
<path d="M13.8984 22.6169C13.8359 22.6638 13.7031 22.777 13.6015 22.8747L13.4219 23.0466L13.2851 22.945C13.1562 22.8434 13.0156 22.82 12.8867 22.8669C12.8008 22.902 12.7187 23.0974 12.7383 23.2145C12.7617 23.3278 13.2148 23.7731 13.3164 23.7809C13.4922 23.8005 13.5508 23.7653 13.9609 23.3864C14.3672 23.0192 14.3906 22.9841 14.3906 22.8434C14.3906 22.7263 14.3672 22.6755 14.289 22.613C14.1562 22.5075 14.039 22.5075 13.8984 22.6169Z" fill="white"/>
<path d="M22.957 18.1608C21.289 18.3756 19.914 19.5866 19.4648 21.2389C19.3476 21.6647 19.3203 22.5475 19.4062 23.0163C19.7656 24.9147 21.3476 26.3014 23.2617 26.3874C24.4726 26.4421 25.4804 26.0671 26.3476 25.2389C27.4414 24.1921 27.875 22.5905 27.4531 21.1374C26.8828 19.1686 24.9648 17.8991 22.957 18.1608ZM24.3398 18.86C24.6718 18.946 25.1914 19.1803 25.4648 19.3678C26.4101 20.0163 26.9804 21.11 26.9804 22.2585C26.9804 22.985 26.7968 23.61 26.4218 24.1842C25.3242 25.8561 23.0664 26.2819 21.4375 25.1296C21.1406 24.9186 20.664 24.4069 20.4922 24.1217C20.289 23.7858 20.1054 23.3249 20.039 22.9928C19.9609 22.6139 19.957 21.9186 20.0351 21.5631C20.3398 20.0983 21.4961 19.0241 23.0156 18.7819C23.332 18.7311 23.9843 18.7702 24.3398 18.86Z" fill="white"/>
<path d="M23.3477 18.9374C23.2227 18.9882 23.1797 19.0976 23.1797 19.3866C23.1797 19.6913 23.2148 19.7695 23.3711 19.8359C23.4648 19.871 23.5078 19.871 23.5938 19.8281C23.7578 19.7538 23.8086 19.621 23.793 19.332C23.7813 19.1171 23.7656 19.0702 23.6719 18.9921C23.5586 18.8945 23.4883 18.8827 23.3477 18.9374Z" fill="white"/>
<path d="M21.1249 19.8873C20.9452 20.0435 20.9764 20.1959 21.2342 20.4459C21.4764 20.6802 21.5819 20.7076 21.7499 20.5748C21.828 20.5123 21.8514 20.4615 21.8514 20.3482C21.8514 20.2193 21.8241 20.1724 21.6405 19.9966C21.3983 19.7701 21.2889 19.7466 21.1249 19.8873Z" fill="white"/>
<path d="M25.3008 20.0039C25.1367 20.1719 25.0938 20.2422 25.0938 20.3398C25.0938 20.5 25.2422 20.6562 25.3984 20.6562C25.5938 20.6562 25.9531 20.2891 25.9531 20.0898C25.9531 20.0547 25.9023 19.9727 25.8398 19.9102C25.6641 19.7383 25.5508 19.7578 25.3008 20.0039Z" fill="white"/>
<path d="M24.2266 21.0736L23.8399 21.4564H23.5117C23.2149 21.4564 23.1719 21.4642 23.0156 21.5736C22.582 21.8821 22.5195 22.4407 22.875 22.8275C23.2774 23.265 23.9531 23.1634 24.2149 22.6321C24.3125 22.4368 24.3203 22.3821 24.2969 22.1712L24.2734 21.929L24.6641 21.5345C24.9961 21.1986 25.0547 21.1165 25.0547 21.0111C25.0547 20.8431 24.9063 20.6946 24.7383 20.6946C24.6328 20.6946 24.5547 20.7532 24.2266 21.0736ZM23.6172 22.1282C23.7852 22.2806 23.6016 22.554 23.3945 22.4603C23.2656 22.4017 23.2266 22.2376 23.3164 22.14C23.4024 22.0462 23.5195 22.0384 23.6172 22.1282Z" fill="white"/>
<path d="M20.301 21.9844C20.1174 22.0586 20.0744 22.3438 20.2229 22.4844C20.301 22.5547 20.3596 22.5703 20.5979 22.5703C20.8439 22.5703 20.8908 22.5586 20.9729 22.4727C21.1252 22.3242 21.0783 22.0742 20.8869 21.9883C20.7775 21.9375 20.4221 21.9336 20.301 21.9844Z" fill="white"/>
<path d="M25.9844 22.0625C25.8867 22.1641 25.8711 22.2031 25.8906 22.3086C25.9297 22.5078 26.0391 22.5703 26.3438 22.5703C26.4922 22.5703 26.6406 22.5586 26.6758 22.5469C26.7695 22.5078 26.8555 22.3125 26.8281 22.1992C26.7852 22.0234 26.6367 21.9453 26.3555 21.9453C26.125 21.9453 26.0938 21.957 25.9844 22.0625Z" fill="white"/>
<path d="M21.4373 23.918C21.2928 23.9805 21.0389 24.2461 21.031 24.3477C21.0076 24.5898 21.1131 24.7188 21.3279 24.7188C21.449 24.7188 21.5037 24.6875 21.6599 24.5273C21.8592 24.332 21.9021 24.1836 21.8123 24.0156C21.7537 23.9063 21.574 23.8594 21.4373 23.918Z" fill="white"/>
<path d="M25.3281 23.8906C25.2031 23.9297 25.0938 24.0703 25.0938 24.1914C25.0938 24.3633 25.4531 24.7188 25.6289 24.7188C25.7852 24.7188 25.9062 24.6133 25.9375 24.457C25.9609 24.3477 25.9414 24.3086 25.7617 24.1211C25.5664 23.9141 25.4492 23.8516 25.3281 23.8906Z" fill="white"/>
<path d="M23.2812 24.7624C23.1875 24.8367 23.1797 24.864 23.1797 25.1453C23.1797 25.4109 23.1914 25.4578 23.2695 25.532C23.3672 25.6218 23.5273 25.6413 23.6484 25.5788C23.7852 25.5046 23.8516 25.1218 23.7656 24.8913C23.6836 24.6765 23.4648 24.6179 23.2812 24.7624Z" fill="white"/>
</g>
<defs>
<clipPath id="clip0_3419_75026">
<rect width="20" height="20" fill="white" transform="translate(9 8)"/>
</clipPath>
</defs>
</svg>
