<svg width="35" height="35" viewBox="0 0 35 35" fill="none" xmlns="http://www.w3.org/2000/svg">
<rect width="35" height="35" rx="3" fill="#00CFF4"/>
<path d="M13.4807 7.7957C13.0746 7.91875 12.8654 8.0418 12.5496 8.35762C12.1805 8.72266 11.9631 9.25996 11.9631 9.81367V10.0639L11.3807 10.0844C10.7162 10.1049 10.3635 10.1992 9.97792 10.4576C9.35859 10.8719 9.01405 11.4297 8.92382 12.1844C8.89921 12.3936 8.88691 14.8955 8.89511 18.9355L8.90741 25.3545L8.99765 25.6211C9.26835 26.4045 9.88769 26.9992 10.6506 27.2002C10.8434 27.2535 11.84 27.2617 17.4961 27.2617C23.4023 27.2617 24.1406 27.2535 24.3662 27.1961C25.1209 27.0033 25.7525 26.3881 26.0027 25.6006L26.093 25.3135V18.6895V12.0654L25.9945 11.7414C25.7689 11.0195 25.1988 10.433 24.4769 10.1869C24.2062 10.0967 24.1898 10.0967 21.1137 10.0844C18.0498 10.0721 18.0211 10.0721 17.8488 10.1582C17.7176 10.2238 17.6478 10.2936 17.5863 10.4207C17.5371 10.515 17.5002 10.6258 17.5002 10.6627C17.5002 10.8063 17.6396 11.0646 17.7627 11.1549L17.8898 11.2451L20.9865 11.2656C24.0791 11.2861 24.0832 11.2861 24.2514 11.3764C24.5098 11.5158 24.6492 11.6471 24.7805 11.8891L24.9035 12.1064V18.6689V25.2314L24.8092 25.4242C24.682 25.6867 24.3662 25.9615 24.116 26.0354C23.8166 26.1215 11.1797 26.1215 10.8762 26.0354C10.7244 25.9902 10.6096 25.9164 10.4373 25.7441C10.0435 25.3463 10.0723 25.9902 10.0846 18.5828L10.0969 12.1064L10.1871 11.9383C10.3266 11.6799 10.4578 11.5404 10.6998 11.4092L10.9172 11.2861L12.8982 11.2738L14.8752 11.2615V12.3279V13.3902L14.7685 13.5174C14.6373 13.6773 14.4404 13.7184 14.26 13.624C14.0754 13.5256 14.0139 13.3492 14.0139 12.8857C14.0139 12.4551 13.9687 12.3156 13.7842 12.1721C13.5422 11.9834 13.2059 12.0285 12.9885 12.2787L12.8572 12.4264L12.8736 13.0662C12.8859 13.665 12.8941 13.7225 13.0008 13.9357C13.1402 14.2229 13.4684 14.5551 13.7432 14.6904C14.6414 15.1293 15.716 14.6535 15.999 13.6896C16.0934 13.3697 16.0975 9.69883 16.0031 9.30508C15.8514 8.66524 15.3633 8.09922 14.7521 7.85723C14.465 7.74649 13.7637 7.70957 13.4807 7.7957ZM14.4568 9.03848C14.7275 9.19434 14.8506 9.41172 14.867 9.77676L14.8834 10.0762H14.018H13.1525V9.81777C13.1525 9.1 13.8457 8.68574 14.4568 9.03848Z" fill="white"/>
<path d="M12.7873 17.2047C12.5658 17.3154 12.4756 17.4713 12.4756 17.7256C12.4756 17.9799 12.5617 18.1234 12.7832 18.2424C12.9186 18.3162 13.1277 18.3203 17.5 18.3203C21.8723 18.3203 22.0814 18.3162 22.2168 18.2424C22.4383 18.1234 22.5244 17.9799 22.5244 17.7256C22.5244 17.4713 22.4342 17.3154 22.2127 17.2047C22.0814 17.135 21.7738 17.1309 17.5 17.1309C13.2262 17.1309 12.9186 17.135 12.7873 17.2047Z" fill="white"/>
<path d="M12.7834 19.9691C12.3528 20.1947 12.3528 20.7771 12.7875 20.9945C12.9188 21.0643 13.2264 21.0684 17.5002 21.0684C21.774 21.0684 22.0817 21.0643 22.2129 20.9945C22.4057 20.9002 22.5082 20.7443 22.5328 20.5311C22.5574 20.285 22.4467 20.0881 22.217 19.9691L22.0365 19.8789H17.5002H12.9639L12.7834 19.9691Z" fill="white"/>
<path d="M12.8779 22.6721C12.4924 22.7869 12.3365 23.2709 12.5867 23.5908C12.7672 23.8205 12.6975 23.8164 15.2937 23.8164C17.607 23.8164 17.6891 23.8123 17.8203 23.7344C18.2017 23.5006 18.21 22.951 17.8285 22.7295C17.6891 22.6516 17.6152 22.6475 15.3471 22.6393C13.9894 22.6352 12.9559 22.6475 12.8779 22.6721Z" fill="white"/>
</svg>
