<svg width="35" height="35" viewBox="0 0 35 35" fill="none" xmlns="http://www.w3.org/2000/svg">
<rect width="35" height="35" rx="3" fill="#4FAB52"/>
<g clip-path="url(#clip0_3419_75396)">
<path d="M19.3047 11.2347C19.3345 11.2593 19.3643 11.2839 19.395 11.3092C19.8775 11.72 19.8775 11.72 19.9638 12.016C19.8846 12.2876 19.6566 12.4855 19.4609 12.68C19.5355 12.6805 19.5355 12.6805 19.6117 12.681C20.0796 12.684 20.5475 12.6874 21.0154 12.6913C21.2559 12.6932 21.4965 12.695 21.7371 12.6965C21.9691 12.6979 22.2011 12.6997 22.4331 12.7018C22.5218 12.7025 22.6105 12.7031 22.6991 12.7036C22.823 12.7042 22.9468 12.7054 23.0707 12.7066C23.1076 12.7067 23.1446 12.7068 23.1827 12.7069C23.2163 12.7073 23.25 12.7078 23.2846 12.7082C23.3139 12.7084 23.3433 12.7086 23.3735 12.7089C23.4453 12.7191 23.4453 12.7191 23.5234 12.7972C23.5312 12.9159 23.5341 13.0311 23.5336 13.1499C23.5337 13.1869 23.5339 13.2238 23.534 13.262C23.5345 13.3867 23.5343 13.5114 23.5341 13.6361C23.5343 13.7252 23.5345 13.8143 23.5347 13.9034C23.5353 14.146 23.5353 14.3886 23.5352 14.6313C23.5352 14.8335 23.5353 15.0357 23.5355 15.2379C23.536 15.7421 23.536 16.2463 23.5357 16.7505C23.5355 17.1887 23.5359 17.6268 23.5367 18.065C23.5374 18.5146 23.5378 18.9642 23.5376 19.4137C23.5375 19.6663 23.5377 19.9188 23.5382 20.1714C23.5387 20.4088 23.5386 20.6462 23.5381 20.8836C23.538 20.9709 23.5381 21.0583 23.5384 21.1456C23.5388 21.2644 23.5385 21.3832 23.538 21.5021C23.5383 21.537 23.5386 21.5718 23.5389 21.6078C23.5386 21.6395 23.5383 21.6713 23.5381 21.704C23.5381 21.7314 23.5381 21.7589 23.5381 21.7871C23.5189 21.8822 23.4813 21.9174 23.4062 21.9769C23.3253 21.9913 23.3253 21.9913 23.2305 21.991C23.1945 21.9911 23.1585 21.9913 23.1214 21.9915C23.082 21.9911 23.0427 21.9906 23.0021 21.9902C22.9605 21.9902 22.919 21.9902 22.8762 21.9903C22.7386 21.9902 22.601 21.9893 22.4634 21.9883C22.3681 21.9881 22.2728 21.988 22.1775 21.9878C21.9265 21.9874 21.6754 21.9862 21.4244 21.9849C21.1684 21.9837 20.9123 21.9832 20.6562 21.9826C20.1536 21.9814 19.651 21.9793 19.1484 21.9769C19.1484 22.3249 19.1484 22.673 19.1484 23.0316C19.4756 23.027 19.4756 23.027 19.8028 23.021C19.8641 23.0206 19.8641 23.0206 19.9266 23.0201C19.9683 23.0195 20.0101 23.0189 20.0531 23.0183C20.1791 23.0334 20.2324 23.058 20.3203 23.1488C20.349 23.3787 20.349 23.3787 20.2766 23.4884C20.1674 23.5641 20.08 23.554 19.9481 23.554C19.9221 23.5542 19.896 23.5543 19.8692 23.5545C19.7819 23.5549 19.6945 23.5544 19.6072 23.5539C19.5446 23.554 19.4821 23.5542 19.4195 23.5544C19.2494 23.5547 19.0794 23.5544 18.9094 23.5539C18.7316 23.5534 18.5538 23.5536 18.376 23.5536C18.0775 23.5537 17.7789 23.5532 17.4803 23.5525C17.1349 23.5517 16.7895 23.5516 16.4441 23.5518C16.1121 23.552 15.7801 23.5518 15.4482 23.5514C15.3067 23.5512 15.1653 23.5512 15.0239 23.5512C14.8574 23.5513 14.691 23.551 14.5245 23.5504C14.4633 23.5502 14.4021 23.5502 14.341 23.5503C14.2576 23.5504 14.1743 23.5501 14.0909 23.5496C14.0442 23.5495 13.9976 23.5494 13.9494 23.5493C13.8359 23.5394 13.8359 23.5394 13.7187 23.4613C13.6821 23.3514 13.6821 23.3514 13.6797 23.2269C13.7423 23.1226 13.7423 23.1226 13.8359 23.0316C13.9505 23.0094 13.9505 23.0094 14.0819 23.0125C14.1243 23.013 14.1668 23.0135 14.2105 23.014C14.2641 23.0158 14.3178 23.0175 14.373 23.0194C14.5438 23.0234 14.7146 23.0274 14.8906 23.0316C14.8906 22.6835 14.8906 22.3355 14.8906 21.9769C14.7624 21.9777 14.6343 21.9785 14.5022 21.9794C14.0792 21.982 13.6562 21.9837 13.2332 21.985C12.9767 21.9858 12.7202 21.9869 12.4637 21.9887C12.2163 21.9904 11.9688 21.9913 11.7214 21.9917C11.6269 21.992 11.5323 21.9926 11.4378 21.9934C11.3057 21.9945 11.1735 21.9947 11.0414 21.9946C11.0021 21.9952 10.9629 21.9958 10.9224 21.9963C10.8864 21.9961 10.8504 21.9959 10.8132 21.9957C10.782 21.9958 10.7507 21.996 10.7185 21.9961C10.5911 21.9676 10.5505 21.9287 10.4765 21.8206C10.4536 21.701 10.4556 21.5831 10.457 21.4616C10.4567 21.4248 10.4565 21.3881 10.4563 21.3502C10.4558 21.2268 10.4564 21.1034 10.4569 20.98C10.4568 20.8917 10.4566 20.8033 10.4563 20.715C10.4558 20.4748 10.4562 20.2346 10.4568 19.9945C10.4574 19.7434 10.4571 19.4924 10.457 19.2414C10.4569 18.8198 10.4574 18.3983 10.4583 17.9768C10.4592 17.5429 10.4595 17.109 10.4591 16.6751C10.4586 16.1524 10.4587 15.6297 10.4593 15.107C10.4596 14.9073 10.4596 14.7075 10.4594 14.5078C10.4592 14.2727 10.4596 14.0377 10.4604 13.8026C10.4606 13.7162 10.4607 13.6297 10.4605 13.5433C10.4602 13.4257 10.4607 13.308 10.4614 13.1904C10.4612 13.1559 10.4609 13.1214 10.4607 13.0858C10.4631 12.8527 10.4631 12.8527 10.5313 12.769C10.6113 12.7051 10.656 12.7041 10.7576 12.7035C10.791 12.703 10.8243 12.7025 10.8587 12.702C10.8952 12.7021 10.9316 12.7021 10.9692 12.7022C11.0269 12.7016 11.0269 12.7016 11.0859 12.701C11.2133 12.6998 11.3408 12.6994 11.4682 12.6991C11.5565 12.6984 11.6448 12.6977 11.7331 12.697C11.9656 12.6951 12.1981 12.6939 12.4307 12.6929C12.6679 12.6918 12.9051 12.6899 13.1423 12.6882C13.6079 12.6848 14.0735 12.6822 14.539 12.68C14.515 12.6545 14.491 12.6291 14.4663 12.6028C14.4347 12.5687 14.4031 12.5345 14.3706 12.4994C14.3393 12.4658 14.308 12.4323 14.2758 12.3977C14.1857 12.2873 14.1243 12.1868 14.0703 12.055C14.1198 11.7843 14.3136 11.6192 14.5 11.43C14.5295 11.4 14.559 11.37 14.5894 11.3391C15.8737 10.1106 17.9591 10.1006 19.3047 11.2347ZM14.6953 11.9769C14.8306 12.3899 15.3084 12.6434 15.6719 12.8363C16.4114 13.1708 17.2087 13.2459 17.9839 12.9852C18.4797 12.791 18.8532 12.5443 19.2265 12.1722C19.2502 12.1486 19.2739 12.1251 19.2983 12.1008C19.3208 12.0781 19.3208 12.0781 19.3437 12.055C19.1278 11.5867 18.5462 11.2709 18.0815 11.098C17.9819 11.0632 17.8821 11.0314 17.7812 11.0003C17.7317 10.9848 17.7317 10.9848 17.6811 10.9689C16.5586 10.6844 15.4598 11.1748 14.6953 11.9769ZM10.9844 13.2269C10.9844 15.9468 10.9844 18.6667 10.9844 21.4691C14.9676 21.4691 18.9508 21.4691 23.0547 21.4691C23.0547 18.7492 23.0547 16.0292 23.0547 13.2269C22.336 13.2229 21.6174 13.2188 20.8769 13.2147C20.6508 13.2129 20.4246 13.2111 20.1915 13.2093C19.9872 13.2086 19.9872 13.2086 19.7829 13.2083C19.6926 13.208 19.6022 13.2073 19.5118 13.2063C18.8146 13.1872 18.8146 13.1872 18.1719 13.4222C17.4631 13.6818 16.5363 13.6981 15.8281 13.4222C15.7975 13.4066 15.7669 13.3911 15.7354 13.3751C15.4636 13.2368 15.247 13.1994 14.9444 13.2047C14.9006 13.2047 14.8568 13.2047 14.8117 13.2047C14.6714 13.2048 14.5312 13.2063 14.3909 13.2078C14.3037 13.2081 14.2165 13.2083 14.1292 13.2084C13.8077 13.2094 13.4861 13.2122 13.1645 13.2147C12.0853 13.2207 12.0853 13.2207 10.9844 13.2269ZM15.3594 21.9769C15.3594 22.3249 15.3594 22.673 15.3594 23.0316C16.4422 23.0316 17.525 23.0316 18.6406 23.0316C18.6406 22.6835 18.6406 22.3355 18.6406 21.9769C17.5578 21.9769 16.475 21.9769 15.3594 21.9769Z" fill="white"/>
<path d="M19.5929 14.7523C19.903 14.831 20.0947 15.1561 20.2538 15.4198C20.7715 16.3206 20.9283 17.2969 20.6719 18.3038C20.5005 18.9048 20.2001 19.4135 19.7734 19.8663C19.653 19.9266 19.5543 19.917 19.4219 19.9054C19.3438 19.8419 19.3438 19.8419 19.3047 19.7491C19.3159 19.5433 19.3838 19.451 19.522 19.3024C20.0692 18.6811 20.2778 17.9167 20.2475 17.0954C20.1991 16.3628 19.8597 15.7334 19.3682 15.2063C19.3047 15.1007 19.3047 15.1007 19.3071 14.9561C19.3576 14.7787 19.4099 14.7479 19.5929 14.7523Z" fill="white"/>
<path d="M14.3439 14.75C14.6017 14.7734 14.6017 14.7734 14.6954 14.8672C14.7198 14.9868 14.7198 14.9868 14.6954 15.1406C14.6279 15.2292 14.552 15.3064 14.4751 15.3869C13.8766 16.0706 13.7434 16.9158 13.797 17.7969C13.8674 18.3948 14.1887 18.9527 14.5782 19.3984C14.6938 19.5385 14.6938 19.5385 14.7076 19.6743C14.6954 19.7891 14.6954 19.7891 14.6173 19.9062C14.4812 19.9403 14.4338 19.9491 14.3048 19.9062C13.8477 19.5431 13.5375 18.9289 13.3673 18.3828C13.3549 18.344 13.3424 18.3053 13.3296 18.2653C13.0769 17.3173 13.2637 16.3398 13.7237 15.4922C13.8917 15.2108 14.1132 14.9806 14.3439 14.75Z" fill="white"/>
<path d="M18.5625 15.6094C18.9683 15.9405 19.2184 16.4727 19.2935 16.9833C19.3652 17.6942 19.1932 18.3343 18.7441 18.8942C18.7228 18.9188 18.7016 18.9434 18.6797 18.9688C18.6605 18.9911 18.6412 19.0134 18.6214 19.0364C18.5625 19.086 18.5625 19.086 18.4258 19.1006C18.2891 19.086 18.2891 19.086 18.2134 19.042C18.1516 18.933 18.1592 18.8584 18.1719 18.7344C18.2433 18.6213 18.2433 18.6213 18.3379 18.5073C18.6651 18.0963 18.8027 17.659 18.7578 17.1328C18.6962 16.7378 18.5481 16.3806 18.2744 16.0855C18.1875 15.9906 18.173 15.968 18.1523 15.834C18.1719 15.7266 18.1719 15.7266 18.25 15.6094C18.3836 15.5649 18.4303 15.5653 18.5625 15.6094Z" fill="white"/>
<path d="M15.75 15.6094C15.8257 15.6753 15.8257 15.6753 15.8672 15.7656C15.873 15.8937 15.853 15.9697 15.7711 16.0694C15.748 16.094 15.725 16.1187 15.7012 16.144C15.3498 16.5206 15.2573 17.0128 15.2691 17.5117C15.291 17.9273 15.4754 18.2564 15.7317 18.5741C15.823 18.6903 15.8672 18.7525 15.8672 18.9028C15.8281 19.0078 15.8281 19.0078 15.711 19.0859C15.6035 19.1079 15.6035 19.1079 15.4766 19.0859C15.0656 18.7897 14.8742 18.2945 14.7494 17.8229C14.65 17.1304 14.7625 16.5017 15.1641 15.9219C15.4661 15.534 15.4661 15.534 15.75 15.6094Z" fill="white"/>
<path d="M17.4687 11.3118C17.6583 11.4836 17.8 11.6622 17.8333 11.9217C17.8369 12.1676 17.8198 12.3641 17.664 12.5618C17.4272 12.78 17.2369 12.8502 16.916 12.846C16.6805 12.8234 16.5197 12.7203 16.3603 12.5496C16.2121 12.3591 16.1703 12.1784 16.182 11.9393C16.2139 11.701 16.3011 11.5191 16.4909 11.3677C16.7977 11.1674 17.1417 11.1183 17.4687 11.3118ZM16.7655 11.8197C16.6973 11.9127 16.6865 11.9581 16.6923 12.0736C16.7352 12.1963 16.7776 12.2507 16.8827 12.3275C16.9982 12.3568 16.9982 12.3568 17.1171 12.3275C17.2485 12.2304 17.3046 12.1746 17.3344 12.0125C17.3073 11.871 17.2718 11.8259 17.1562 11.7415C16.9883 11.677 16.9047 11.7105 16.7655 11.8197Z" fill="white"/>
<path d="M17.3206 16.6905C17.5236 16.7971 17.6322 16.9587 17.7032 17.1716C17.7252 17.3939 17.716 17.5689 17.586 17.7576C17.4164 17.9283 17.2794 18.0349 17.0318 18.0432C16.8361 18.0407 16.6911 17.9868 16.5313 17.8748C16.3331 17.6663 16.3223 17.4865 16.325 17.2087C16.3448 17.0015 16.4442 16.9015 16.5948 16.7688C16.804 16.6202 17.0763 16.6148 17.3206 16.6905ZM16.8438 17.2498C16.8308 17.3474 16.8308 17.3474 16.8438 17.4451C16.8696 17.4709 16.8954 17.4966 16.9219 17.5232C17.043 17.5106 17.043 17.5106 17.1563 17.4841C17.1828 17.3708 17.1828 17.3708 17.1954 17.2498C17.124 17.1619 17.124 17.1619 17.0196 17.1619C16.9152 17.1619 16.9152 17.1619 16.8438 17.2498Z" fill="white"/>
<path d="M14.383 9.04607C14.4791 9.15238 14.5459 9.27394 14.6174 9.39763C14.6458 9.44281 14.6744 9.48792 14.703 9.53297C14.7323 9.58059 14.7616 9.62825 14.7907 9.67595C14.805 9.69834 14.8194 9.72073 14.8341 9.7438C14.9088 9.87 14.9299 9.94528 14.9264 10.0931C14.8908 10.2179 14.8908 10.2179 14.7736 10.2961C14.6397 10.2961 14.6397 10.2961 14.5002 10.257C14.412 10.1545 14.412 10.1545 14.3391 10.0226C14.3261 9.99966 14.3132 9.97669 14.2999 9.95303C14.2619 9.8854 14.2248 9.8173 14.1877 9.74919C14.1669 9.71545 14.146 9.68172 14.1245 9.64696C14.0161 9.46989 13.9539 9.33779 13.9924 9.12419C14.1083 8.98149 14.2177 8.97995 14.383 9.04607Z" fill="white"/>
<path d="M19.9299 9.04623C20.0031 9.09017 20.0031 9.09017 20.0471 9.16341C20.0391 9.42073 19.9288 9.60079 19.7981 9.81771C19.7787 9.85089 19.7594 9.88408 19.7395 9.91827C19.569 10.2069 19.569 10.2069 19.4612 10.2962C19.3394 10.3115 19.2615 10.3159 19.1535 10.2547C19.0852 10.137 19.084 10.0358 19.1096 9.9056C19.1795 9.74988 19.2668 9.60651 19.3562 9.46127C19.391 9.40212 19.391 9.40212 19.4266 9.34179C19.6544 8.96357 19.6544 8.96357 19.9299 9.04623Z" fill="white"/>
<path d="M17.1955 8.57725C17.3247 8.77101 17.2881 8.99169 17.2883 9.21934C17.2892 9.2678 17.2902 9.31627 17.2912 9.3662C17.2913 9.41275 17.2915 9.45931 17.2916 9.50727C17.292 9.54989 17.2923 9.59251 17.2926 9.63643C17.2692 9.77541 17.2285 9.82111 17.1174 9.90537C16.9964 9.92266 16.9214 9.93126 16.8181 9.86165C16.7407 9.75291 16.7513 9.66538 16.7516 9.53306C16.7517 9.48285 16.7517 9.43265 16.7517 9.38093C16.752 9.35481 16.7524 9.3287 16.7527 9.30179C16.7536 9.22205 16.7535 9.14237 16.7532 9.06263C16.7554 8.67101 16.7554 8.67101 16.844 8.53818C16.9802 8.47713 17.0669 8.50957 17.1955 8.57725Z" fill="white"/>
</g>
<defs>
<clipPath id="clip0_3419_75396">
<rect width="21" height="21" fill="white" transform="translate(6 8)"/>
</clipPath>
</defs>
</svg>
