<svg width="35" height="35" viewBox="0 0 35 35" fill="none" xmlns="http://www.w3.org/2000/svg">
<rect width="35" height="35" rx="3" fill="#8A38F5"/>
<path d="M13.4787 7.7957C13.0726 7.91875 12.8635 8.0418 12.5476 8.35762C12.1785 8.72266 11.9611 9.25996 11.9611 9.81367V10.0639L11.3787 10.0844C10.7142 10.1049 10.3615 10.1992 9.97597 10.4576C9.35663 10.8719 9.0121 11.4297 8.92187 12.1844C8.89726 12.3936 8.88495 14.8955 8.89316 18.9355L8.90546 25.3545L8.99569 25.6211C9.2664 26.4045 9.88573 26.9992 10.6486 27.2002C10.8414 27.2535 11.8381 27.2617 17.4941 27.2617C23.4004 27.2617 24.1387 27.2535 24.3643 27.1961C25.1189 27.0033 25.7506 26.3881 26.0008 25.6006L26.091 25.3135V18.6895V12.0654L25.9926 11.7414C25.767 11.0195 25.1969 10.433 24.475 10.1869C24.2043 10.0967 24.1879 10.0967 21.1117 10.0844C18.0478 10.0721 18.0191 10.0721 17.8469 10.1582C17.7156 10.2238 17.6459 10.2936 17.5844 10.4207C17.5351 10.515 17.4982 10.6258 17.4982 10.6627C17.4982 10.8063 17.6377 11.0646 17.7607 11.1549L17.8879 11.2451L20.9846 11.2656C24.0771 11.2861 24.0812 11.2861 24.2494 11.3764C24.5078 11.5158 24.6473 11.6471 24.7785 11.8891L24.9016 12.1064V18.6689V25.2314L24.8072 25.4242C24.6801 25.6867 24.3643 25.9615 24.1141 26.0354C23.8146 26.1215 11.1777 26.1215 10.8742 26.0354C10.7225 25.9902 10.6076 25.9164 10.4353 25.7441C10.0416 25.3463 10.0703 25.9902 10.0826 18.5828L10.0949 12.1064L10.1851 11.9383C10.3246 11.6799 10.4559 11.5404 10.6978 11.4092L10.9152 11.2861L12.8963 11.2738L14.8732 11.2615V12.3279V13.3902L14.7666 13.5174C14.6353 13.6773 14.4385 13.7184 14.258 13.624C14.0734 13.5256 14.0119 13.3492 14.0119 12.8857C14.0119 12.4551 13.9668 12.3156 13.7822 12.1721C13.5402 11.9834 13.2039 12.0285 12.9865 12.2787L12.8553 12.4264L12.8717 13.0662C12.884 13.665 12.8922 13.7225 12.9988 13.9357C13.1383 14.2229 13.4664 14.5551 13.7412 14.6904C14.6394 15.1293 15.7141 14.6535 15.9971 13.6896C16.0914 13.3697 16.0955 9.69883 16.0012 9.30508C15.8494 8.66524 15.3613 8.09922 14.7502 7.85723C14.4631 7.74649 13.7617 7.70957 13.4787 7.7957ZM14.4549 9.03848C14.7256 9.19434 14.8486 9.41172 14.865 9.77676L14.8814 10.0762H14.016H13.1506V9.81777C13.1506 9.1 13.8437 8.68574 14.4549 9.03848Z" fill="white"/>
<path d="M12.7844 17.2047C12.5629 17.3154 12.4727 17.4713 12.4727 17.7256C12.4727 17.9799 12.5588 18.1234 12.7803 18.2424C12.9156 18.3162 13.1248 18.3203 17.4971 18.3203C21.8693 18.3203 22.0785 18.3162 22.2139 18.2424C22.4354 18.1234 22.5215 17.9799 22.5215 17.7256C22.5215 17.4713 22.4312 17.3154 22.2098 17.2047C22.0785 17.135 21.7709 17.1309 17.4971 17.1309C13.2232 17.1309 12.9156 17.135 12.7844 17.2047Z" fill="white"/>
<path d="M12.7795 19.9691C12.3489 20.1947 12.3489 20.7771 12.7836 20.9945C12.9149 21.0643 13.2225 21.0684 17.4963 21.0684C21.7701 21.0684 22.0778 21.0643 22.209 20.9945C22.4018 20.9002 22.5043 20.7443 22.5289 20.5311C22.5535 20.285 22.4428 20.0881 22.2131 19.9691L22.0326 19.8789H17.4963H12.96L12.7795 19.9691Z" fill="white"/>
<path d="M12.8774 22.6721C12.4919 22.7869 12.336 23.2709 12.5862 23.5908C12.7667 23.8205 12.697 23.8164 15.2933 23.8164C17.6065 23.8164 17.6886 23.8123 17.8198 23.7344C18.2013 23.5006 18.2095 22.951 17.828 22.7295C17.6886 22.6516 17.6147 22.6475 15.3466 22.6393C13.989 22.6352 12.9554 22.6475 12.8774 22.6721Z" fill="white"/>
</svg>
