<svg width="35" height="35" viewBox="0 0 35 35" fill="none" xmlns="http://www.w3.org/2000/svg">
<rect width="35" height="35" rx="3" fill="#4E56A6"/>
<path d="M17.5443 9.24231C17.5948 9.2419 17.5948 9.2419 17.6464 9.24148C19.0298 9.23272 19.0298 9.23272 19.6408 9.36743C19.679 9.3754 19.7171 9.38337 19.7564 9.39158C21.2244 9.70213 22.5657 10.3379 23.7033 11.3206C23.7389 11.351 23.7744 11.3815 23.8111 11.4129C23.9073 11.4975 24.001 11.584 24.094 11.6721C24.1133 11.6904 24.1327 11.7087 24.1526 11.7276C24.4786 12.0378 24.7632 12.3659 25.0315 12.7268C25.048 12.7486 25.0646 12.7704 25.0816 12.7928C26.4572 14.6046 27.0051 16.9784 26.7038 19.2185C26.3747 21.4391 25.2237 23.575 23.407 24.9334C23.3849 24.9496 23.3628 24.9659 23.3401 24.9826C23.2738 25.0314 23.2083 25.0811 23.1427 25.1308C22.7898 25.3949 22.4145 25.61 22.0237 25.8127C21.9798 25.8356 21.9798 25.8356 21.935 25.859C20.7117 26.4893 19.3815 26.768 18.0124 26.7625C17.9762 26.7624 17.94 26.7623 17.9026 26.7622C17.38 26.7605 16.8719 26.7455 16.3596 26.6331C16.3263 26.6261 16.2931 26.6192 16.2588 26.6121C14.5855 26.2607 13.1009 25.47 11.8674 24.2893C11.848 24.2709 11.8285 24.2526 11.8085 24.2337C11.4958 23.9369 11.2265 23.619 10.969 23.2737C10.9441 23.2409 10.9441 23.2409 10.9186 23.2075C10.1202 22.1559 9.63581 20.925 9.36741 19.6409C9.36035 19.6088 9.35328 19.5768 9.34601 19.5438C9.13423 18.5521 9.15095 17.3486 9.36741 16.3596C9.37874 16.304 9.37874 16.304 9.3903 16.2472C9.69332 14.7742 10.3375 13.4352 11.3205 12.2971C11.351 12.2616 11.3815 12.226 11.4128 12.1894C11.4975 12.0932 11.5839 11.9995 11.6721 11.9065C11.6904 11.8871 11.7087 11.8678 11.7275 11.8478C12.0378 11.5218 12.3659 11.2373 12.7268 10.969C12.7486 10.9524 12.7704 10.9359 12.7928 10.9188C14.1148 9.91509 15.8759 9.25143 17.5443 9.24231ZM16.3596 10.6956C16.3244 10.7039 16.2891 10.7123 16.2528 10.7209C14.758 11.0886 13.2646 11.9393 12.2971 13.1565C12.2672 13.1937 12.2373 13.2308 12.2065 13.2691C11.439 14.236 10.9028 15.3431 10.6565 16.5549C10.6501 16.5859 10.6437 16.6168 10.6371 16.6487C10.268 18.5202 10.7108 20.5341 11.7469 22.1242C12.2406 22.854 12.8401 23.4911 13.5471 24.0159C13.5682 24.0315 13.5893 24.0472 13.611 24.0633C15.1953 25.226 17.1921 25.6972 19.133 25.4221C19.9843 25.2841 20.7987 25.0163 21.5549 24.6018C21.6004 24.5778 21.6458 24.5539 21.6927 24.5292C22.1844 24.2615 22.6286 23.9238 23.0379 23.5425C23.1041 23.4813 23.1712 23.4247 23.2419 23.3689C23.3853 23.2446 23.5032 23.1061 23.6252 22.9612C23.6551 22.9269 23.6849 22.8927 23.7157 22.8574C24.6771 21.7381 25.3015 20.3297 25.4612 18.8596C25.4676 18.8067 25.4676 18.8067 25.4741 18.7527C25.5752 17.7785 25.4682 16.7883 25.1877 15.8518C25.1795 15.8243 25.1713 15.7968 25.1629 15.7684C24.8743 14.8258 24.3867 13.9413 23.7424 13.1956C23.7158 13.1646 23.6891 13.1337 23.6617 13.1019C23.573 13.0013 23.4825 12.9028 23.3908 12.8049C23.3568 12.7683 23.3228 12.7317 23.2877 12.694C22.6215 11.9937 21.7794 11.4591 20.8908 11.0862C20.8444 11.0663 20.798 11.0464 20.7502 11.0259C20.4329 10.8956 20.1081 10.806 19.7751 10.7249C19.7359 10.7152 19.6967 10.7056 19.6563 10.6957C19.112 10.5685 18.5789 10.5232 18.0222 10.5247C17.9763 10.5247 17.9763 10.5247 17.9295 10.5247C17.3942 10.5264 16.8817 10.5709 16.3596 10.6956Z" fill="white"/>
<path d="M21.0589 14.7807C21.2383 14.9434 21.3266 15.1213 21.3421 15.3642C21.3156 15.7412 20.9958 15.9973 20.7415 16.2456C20.7078 16.2791 20.674 16.3127 20.6392 16.3473C20.4952 16.4895 20.3508 16.6295 20.1967 16.7607C19.9458 16.9766 19.7172 17.217 19.4842 17.4516C19.4348 17.5012 19.3855 17.5508 19.3361 17.6003C19.2161 17.7207 19.0962 17.8413 18.9764 17.9619C19.0275 18.0747 19.0821 18.1554 19.1696 18.2427C19.1928 18.266 19.2161 18.2894 19.24 18.3135C19.2651 18.3383 19.2902 18.3631 19.3161 18.3887C19.3421 18.4147 19.3681 18.4407 19.3949 18.4675C19.4501 18.5225 19.5053 18.5774 19.5606 18.6323C19.6444 18.7154 19.7279 18.7988 19.8114 18.8822C19.8652 18.9358 19.919 18.9894 19.9728 19.043C19.9974 19.0676 20.0221 19.0921 20.0474 19.1175C20.1963 19.2647 20.3496 19.4048 20.508 19.5417C20.651 19.6659 20.7866 19.7975 20.9222 19.9297C20.9515 19.9572 20.9808 19.9846 21.0109 20.013C21.228 20.2256 21.3496 20.4202 21.3646 20.7283C21.3122 20.9972 21.1931 21.1293 20.9686 21.2822C20.8744 21.3293 20.81 21.3291 20.7049 21.331C20.6557 21.3325 20.6557 21.3325 20.6054 21.3341C20.3611 21.3044 20.2005 21.1559 20.0345 20.9864C20.0127 20.9646 19.991 20.9429 19.9686 20.9205C19.8973 20.8491 19.8264 20.7774 19.7555 20.7056C19.706 20.6558 19.6564 20.606 19.6068 20.5563C19.4767 20.4258 19.3469 20.2949 19.2172 20.1639C19.0847 20.0301 18.9518 19.8967 18.8189 19.7633C18.5586 19.5017 18.2986 19.2397 18.0389 18.9775C17.9261 19.0286 17.8454 19.0832 17.7581 19.1707C17.7348 19.1939 17.7114 19.2172 17.6873 19.2411C17.6625 19.2662 17.6377 19.2913 17.6121 19.3172C17.5861 19.3432 17.5601 19.3692 17.5333 19.396C17.4783 19.4512 17.4234 19.5064 17.3685 19.5617C17.2854 19.6455 17.202 19.729 17.1186 19.8125C17.065 19.8663 17.0114 19.9201 16.9578 19.9739C16.9332 19.9985 16.9087 20.0232 16.8833 20.0485C16.7359 20.1975 16.5959 20.3511 16.4588 20.5096C16.3394 20.6466 16.2113 20.7748 16.0833 20.9038C16.0567 20.9312 16.0301 20.9586 16.0027 20.9869C15.8106 21.1805 15.6348 21.337 15.3485 21.3408C15.137 21.3338 14.9922 21.267 14.8358 21.1259C14.7037 20.9526 14.7038 20.781 14.6992 20.5705C14.7389 20.3478 14.903 20.1898 15.0599 20.0362C15.0952 20.0013 15.1305 19.9665 15.1668 19.9306C15.2034 19.8948 15.24 19.8591 15.2777 19.8222C15.5594 19.5489 15.5594 19.5489 15.8239 19.2592C16.0386 19.0082 16.2789 18.7803 16.513 18.5478C16.5626 18.4984 16.6122 18.4491 16.6617 18.3997C16.7821 18.2797 16.9027 18.1598 17.0233 18.04C16.9616 17.8885 16.8587 17.7873 16.7439 17.6749C16.7132 17.6443 16.7132 17.6443 16.6819 17.6132C16.6376 17.5692 16.5931 17.5252 16.5486 17.4814C16.4782 17.4119 16.408 17.3422 16.3379 17.2725C16.189 17.1245 16.0397 16.9767 15.8905 16.8291C15.7175 16.6579 15.5446 16.4867 15.3721 16.3151C15.303 16.2464 15.2336 16.1781 15.1642 16.1097C15.1218 16.0676 15.0794 16.0254 15.037 15.9833C15.0177 15.9644 14.9984 15.9454 14.9785 15.926C14.7979 15.7454 14.7312 15.6017 14.7186 15.3447C14.7523 15.1523 14.8083 15.0232 14.9408 14.8784C15.1356 14.7571 15.3087 14.6962 15.5389 14.7368C15.9085 14.8578 16.1961 15.2546 16.4654 15.5252C16.5088 15.5686 16.5521 15.612 16.5955 15.6554C16.7086 15.7687 16.8215 15.882 16.9345 15.9954C17.0502 16.1115 17.166 16.2275 17.2818 16.3435C17.5082 16.5703 17.7345 16.7973 17.9608 17.0244C18.1134 16.9626 18.2145 16.8581 18.327 16.742C18.3475 16.7213 18.368 16.7005 18.3891 16.6791C18.4334 16.634 18.4777 16.5889 18.5219 16.5437C18.592 16.4721 18.6624 16.4007 18.7329 16.3295C18.9332 16.1268 19.1332 15.9239 19.3326 15.7203C19.4547 15.5957 19.5772 15.4715 19.7001 15.3477C19.7467 15.3005 19.7931 15.2532 19.8393 15.2057C19.9042 15.139 19.9696 15.073 20.0353 15.0071C20.054 14.9876 20.0727 14.968 20.092 14.9479C20.372 14.6703 20.7071 14.6148 21.0589 14.7807Z" fill="white"/>
</svg>
