<svg width="35" height="35" viewBox="0 0 35 35" fill="none" xmlns="http://www.w3.org/2000/svg">
<rect width="35" height="35" rx="3" fill="#F74875"/>
<g clip-path="url(#clip0_3419_74507)">
<path d="M9.5629 7.40831C9.64025 7.42004 9.71759 7.43176 9.79494 7.44345C10.0039 7.4751 10.2128 7.50698 10.4217 7.53891C10.642 7.57254 10.8624 7.60596 11.0828 7.6394C11.5011 7.7029 11.9194 7.76659 12.3376 7.83036C12.8084 7.90214 13.2793 7.9737 13.7502 8.04525C14.2851 8.12652 14.82 8.20781 15.3549 8.28927C15.4377 8.30187 15.5204 8.31446 15.6031 8.32705C15.8005 8.3571 15.9979 8.38721 16.1952 8.41748C16.5139 8.46628 16.8326 8.51482 17.1518 8.56009C17.2763 8.57776 17.4009 8.59576 17.5254 8.61377C17.6082 8.62557 17.691 8.63683 17.7739 8.64807C18.2405 8.71563 18.6862 8.83664 18.9967 9.21469C19.2449 9.56723 19.2627 9.87214 19.2601 10.2938C19.2601 10.3451 19.2602 10.3964 19.2602 10.4492C19.2602 10.5891 19.2597 10.729 19.2591 10.869C19.2586 11.0155 19.2586 11.1619 19.2585 11.3084C19.2582 11.5855 19.2576 11.8626 19.2567 12.1397C19.2558 12.4552 19.2554 12.7708 19.255 13.0864C19.2541 13.7353 19.2527 14.3841 19.2509 15.033C19.2771 15.0348 19.3033 15.0366 19.3304 15.0384C19.634 15.0622 19.9271 15.1127 20.2254 15.1735C20.2761 15.1836 20.3269 15.1938 20.3792 15.2042C20.5176 15.2319 20.6559 15.2599 20.7942 15.2879C20.9413 15.3176 21.0885 15.3471 21.2357 15.3765C21.5159 15.4327 21.7961 15.4892 22.0763 15.5457C22.4493 15.6209 22.8223 15.6958 23.1953 15.7707C23.5267 15.8373 23.8582 15.9039 24.1896 15.9709C24.3061 15.9944 24.4227 16.018 24.5392 16.0415C24.5675 16.0472 24.5958 16.0529 24.6249 16.0588C25.0059 16.1356 25.3871 16.2105 25.7688 16.2836C25.8952 16.3081 26.0216 16.3326 26.148 16.3571C26.2609 16.3787 26.3738 16.3998 26.4868 16.4207C26.9682 16.5126 27.408 16.6216 27.7222 17.0287C27.8874 17.3021 27.9319 17.5318 27.9319 17.8504C27.932 17.8892 27.9322 17.9279 27.9323 17.9678C27.9328 18.0982 27.9329 18.2286 27.9331 18.3589C27.9333 18.4522 27.9336 18.5454 27.9339 18.6387C27.9346 18.8925 27.935 19.1463 27.9354 19.4001C27.9356 19.5587 27.9358 19.7172 27.9361 19.8758C27.9368 20.315 27.9374 20.7542 27.9377 21.1934C27.9377 21.3074 27.9378 21.4213 27.9379 21.5353C27.9379 21.5636 27.9379 21.592 27.938 21.6211C27.9383 22.0796 27.9393 22.5381 27.9407 22.9966C27.942 23.4676 27.9427 23.9386 27.9429 24.4097C27.943 24.674 27.9433 24.9383 27.9443 25.2027C27.9453 25.4515 27.9455 25.7003 27.9451 25.9491C27.945 26.0403 27.9453 26.1315 27.9458 26.2226C27.9466 26.3474 27.9463 26.4722 27.9457 26.597C27.9464 26.6507 27.9464 26.6507 27.9471 26.7055C27.9435 27.0587 27.8311 27.3766 27.588 27.637C27.3038 27.8925 27.0053 27.9971 26.6244 27.9949C26.5923 27.995 26.5602 27.9952 26.5272 27.9953C26.4196 27.9957 26.312 27.9955 26.2043 27.9953C26.1265 27.9955 26.0486 27.9957 25.9707 27.9959C25.7566 27.9964 25.5425 27.9964 25.3284 27.9963C25.0975 27.9963 24.8666 27.9967 24.6357 27.9971C24.1833 27.9978 23.7309 27.998 23.2785 27.998C22.9108 27.9981 22.5431 27.9982 22.1754 27.9985C21.3028 27.9991 20.4302 27.9996 19.5576 27.9996C19.5157 27.9996 19.5157 27.9996 19.473 27.9996C19.3316 27.9995 19.1902 27.9995 19.0487 27.9995C19.0206 27.9995 18.9925 27.9995 18.9636 27.9995C18.9068 27.9995 18.85 27.9995 18.7932 27.9995C17.9095 27.9995 17.0257 28.0001 16.142 28.0012C15.1491 28.0024 14.1562 28.0031 13.1632 28.0031C12.6375 28.003 12.1118 28.0033 11.5861 28.0041C11.1385 28.0049 10.6909 28.0051 10.2434 28.0045C10.015 28.0042 9.78661 28.0042 9.55824 28.0049C9.34912 28.0056 9.14001 28.0055 8.93088 28.0048C8.85529 28.0046 8.7797 28.0048 8.70411 28.0052C8.22044 28.0079 7.79272 27.9939 7.42076 27.6465C7.16612 27.3633 7.06066 27.0652 7.06283 26.6854C7.06268 26.6537 7.06254 26.6219 7.06239 26.5891C7.06201 26.4824 7.06222 26.3758 7.06241 26.2691C7.06226 26.1919 7.06207 26.1147 7.06185 26.0375C7.06135 25.8252 7.06137 25.6129 7.06146 25.4007C7.06148 25.1718 7.06103 24.9429 7.06064 24.714C7.05997 24.2656 7.05974 23.8171 7.0597 23.3686C7.05966 23.0041 7.05949 22.6396 7.05923 22.2751C7.05863 21.41 7.05813 20.5449 7.05817 19.6799C7.05817 19.6522 7.05818 19.6245 7.05818 19.596C7.05818 19.4558 7.05819 19.3156 7.0582 19.1754C7.0582 19.1475 7.0582 19.1197 7.05821 19.091C7.05821 19.0347 7.05821 18.9784 7.05822 18.9221C7.05827 18.046 7.05765 17.1699 7.05654 16.2939C7.05529 15.3095 7.05459 14.3252 7.05466 13.3409C7.05469 12.8197 7.05447 12.2986 7.05359 11.7774C7.05285 11.3337 7.05267 10.89 7.05322 10.4463C7.05349 10.2199 7.05349 9.99349 7.05279 9.76709C7.05215 9.55978 7.05226 9.35248 7.05297 9.14516C7.0531 9.07023 7.05295 8.9953 7.0525 8.92036C7.04981 8.4443 7.06259 8.01112 7.40629 7.64492C8.04795 7.08296 8.79399 7.29024 9.5629 7.40831ZM8.08895 8.2875C7.96532 8.455 7.96346 8.56933 7.96396 8.77154C7.96388 8.80252 7.96379 8.8335 7.96371 8.86541C7.96348 8.9703 7.96354 9.07518 7.96359 9.18007C7.96349 9.25559 7.96337 9.33111 7.96323 9.40664C7.9629 9.61502 7.96283 9.82341 7.9628 10.0318C7.96272 10.2562 7.96241 10.4806 7.96214 10.705C7.96158 11.1961 7.96134 11.6872 7.96116 12.1783C7.96105 12.4847 7.96088 12.7911 7.96069 13.0975C7.9602 13.9453 7.95977 14.793 7.95964 15.6408C7.95963 15.6957 7.95962 15.7505 7.95961 15.8053C7.9596 15.8603 7.95959 15.9153 7.95958 15.9703C7.95957 16.0806 7.95955 16.1909 7.95953 16.3012C7.95953 16.3285 7.95952 16.3559 7.95952 16.384C7.95937 17.271 7.95872 18.1579 7.95777 19.0449C7.95677 19.9822 7.95621 20.9195 7.95616 21.8568C7.95612 22.3679 7.95589 22.879 7.95515 23.3901C7.95452 23.8253 7.95431 24.2604 7.95465 24.6956C7.95481 24.9177 7.95477 25.1399 7.9542 25.362C7.95368 25.5653 7.95373 25.7685 7.95422 25.9717C7.9543 26.0454 7.95418 26.119 7.95382 26.1927C7.95338 26.2926 7.95367 26.3924 7.95417 26.4923C7.95386 26.5211 7.95355 26.55 7.95323 26.5797C7.95511 26.7561 7.9848 26.8659 8.0915 27.007C8.21874 27.0968 8.32905 27.0984 8.48227 27.0977C8.52792 27.0977 8.57357 27.0977 8.6206 27.0976C8.66965 27.0972 8.7187 27.0968 8.76923 27.0964C8.81962 27.0963 8.87002 27.0961 8.92194 27.096C9.05558 27.0956 9.18922 27.0949 9.32286 27.094C9.45937 27.0932 9.59587 27.0928 9.73238 27.0924C9.99997 27.0915 10.2676 27.0901 10.5352 27.0884C10.5354 27.0372 10.5356 26.986 10.5359 26.9332C10.5382 26.4496 10.5412 25.966 10.5448 25.4825C10.5466 25.2339 10.5482 24.9853 10.5493 24.7367C10.5503 24.4967 10.552 24.2566 10.554 24.0166C10.5547 23.9252 10.5552 23.8337 10.5554 23.7423C10.5558 23.6139 10.557 23.4855 10.5583 23.3571C10.5582 23.3196 10.5582 23.2821 10.5581 23.2434C10.5634 22.8755 10.6573 22.5721 10.8923 22.2859C11.1959 22.0025 11.5622 21.9116 11.9651 21.9094C12.0077 21.9091 12.0077 21.9091 12.0511 21.9088C12.1446 21.9082 12.238 21.908 12.3315 21.9077C12.3636 21.9076 12.3957 21.9075 12.4288 21.9074C12.5988 21.9068 12.7688 21.9064 12.9388 21.9062C13.1135 21.906 13.2881 21.905 13.4628 21.9039C13.5979 21.9031 13.7331 21.9029 13.8682 21.9028C13.9325 21.9027 13.9969 21.9024 14.0612 21.9018C14.5629 21.8979 15.0001 21.9206 15.3818 22.2825C15.6949 22.6127 15.7666 22.993 15.7659 23.4358C15.7665 23.4954 15.7665 23.4954 15.7672 23.5563C15.7684 23.6863 15.7688 23.8163 15.7691 23.9463C15.7698 24.0371 15.7706 24.1278 15.7714 24.2185C15.7733 24.4562 15.7745 24.6939 15.7756 24.9316C15.777 25.2174 15.7793 25.5032 15.7815 25.7889C15.7847 26.2221 15.7867 26.6552 15.789 27.0884C16.6358 27.0884 17.4825 27.0884 18.3549 27.0884C18.3586 24.9082 18.3615 22.728 18.3632 20.5479C18.3634 20.2906 18.3636 20.0334 18.3638 19.7761C18.3639 19.6993 18.3639 19.6993 18.364 19.6209C18.3647 18.7911 18.3659 17.9613 18.3674 17.1314C18.369 16.2803 18.3699 15.4291 18.3702 14.578C18.3704 14.0526 18.3711 13.5271 18.3725 13.0017C18.3733 12.6417 18.3736 12.2816 18.3734 11.9216C18.3733 11.7137 18.3734 11.5058 18.3743 11.2979C18.3751 11.1077 18.3751 10.9174 18.3746 10.7272C18.3745 10.6583 18.3747 10.5894 18.3752 10.5205C18.3759 10.4269 18.3755 10.3335 18.3749 10.2399C18.375 10.1879 18.375 10.1359 18.3751 10.0824C18.3512 9.91632 18.2955 9.82802 18.192 9.69769C18.0636 9.60748 17.9258 9.5936 17.7724 9.57053C17.7195 9.56244 17.6667 9.55435 17.6122 9.54601C17.5536 9.53733 17.4949 9.52866 17.4363 9.51999C17.3745 9.51063 17.3126 9.50125 17.2507 9.49184C17.0819 9.46624 16.913 9.44099 16.7441 9.41579C16.5646 9.38895 16.3851 9.36179 16.2056 9.33466C15.8626 9.28286 15.5194 9.23134 15.1763 9.17992C14.7595 9.11745 14.3428 9.05463 13.9261 8.9918C13.4819 8.92484 13.0377 8.85794 12.5935 8.79134C11.9292 8.69171 11.2649 8.59164 10.601 8.48912C10.505 8.47431 10.409 8.45954 10.313 8.44479C10.2821 8.44004 10.2512 8.4353 10.2194 8.43041C10.1583 8.42102 10.0972 8.41163 10.0361 8.40224C9.86253 8.37555 9.68898 8.34859 9.51545 8.32142C9.38536 8.30113 9.2552 8.28122 9.12506 8.26125C9.07955 8.25402 9.03403 8.2468 8.98714 8.23935C8.51485 8.14476 8.51485 8.14476 8.08895 8.2875ZM19.2509 15.929C19.2509 19.6116 19.2509 23.2942 19.2509 27.0884C21.0993 27.0922 21.0993 27.0922 22.9851 27.0961C23.3745 27.0972 23.7639 27.0983 24.165 27.0994C24.5135 27.0998 24.5135 27.0998 24.8619 27.1001C25.0174 27.1002 25.1728 27.1007 25.3282 27.1013C25.5264 27.1022 25.7246 27.1024 25.9227 27.1022C25.9955 27.1023 26.0683 27.1025 26.1411 27.103C26.2393 27.1036 26.3376 27.1034 26.4358 27.1031C26.4643 27.1035 26.4929 27.1038 26.5223 27.1042C26.6981 27.1026 26.8105 27.077 26.9484 26.9662C27.0504 26.7967 27.0416 26.6317 27.041 26.439C27.0413 26.4018 27.0415 26.3646 27.0417 26.3262C27.0423 26.2012 27.0423 26.0762 27.0423 25.9512C27.0427 25.8617 27.043 25.7722 27.0434 25.6827C27.0443 25.4394 27.0446 25.196 27.0448 24.9527C27.045 24.8007 27.0452 24.6487 27.0455 24.4967C27.0465 23.9941 27.047 23.4914 27.0472 22.9888C27.0472 22.9617 27.0472 22.9346 27.0472 22.9067C27.0472 22.8796 27.0472 22.8524 27.0472 22.8245C27.0474 22.3848 27.0485 21.9452 27.05 21.5055C27.0515 21.0541 27.0523 20.6026 27.0523 20.1511C27.0524 19.8976 27.0527 19.6442 27.0539 19.3907C27.055 19.1524 27.055 18.914 27.0544 18.6757C27.0543 18.5882 27.0546 18.5007 27.0552 18.4132C27.0561 18.2937 27.0556 18.1744 27.0549 18.055C27.0557 18.0029 27.0557 18.0029 27.0565 17.9499C27.0542 17.7857 27.0415 17.6723 26.9407 17.539C26.8199 17.4303 26.7561 17.3969 26.5987 17.367C26.5317 17.3535 26.5317 17.3535 26.4634 17.3397C26.4152 17.331 26.3671 17.3223 26.3176 17.3134C26.267 17.3034 26.2164 17.2935 26.1643 17.2832C26.0579 17.2623 25.9514 17.2417 25.8448 17.2217C25.6944 17.1932 25.5444 17.1634 25.3945 17.1329C25.0958 17.0721 24.7968 17.0128 24.4978 16.9536C24.3874 16.9317 24.2771 16.9098 24.1668 16.8879C23.9376 16.8424 23.7082 16.797 23.4789 16.7516C23.2179 16.6999 22.9568 16.6481 22.6958 16.5962C22.4397 16.5454 22.1836 16.4946 21.9275 16.4438C21.8208 16.4227 21.7142 16.4015 21.6075 16.3803C20.8229 16.2246 20.0372 16.0765 19.2509 15.929ZM11.5533 22.8935C11.4013 23.0789 11.4146 23.2583 11.4173 23.4866C11.4173 23.5256 11.4173 23.5645 11.4172 23.6047C11.4173 23.7332 11.4183 23.8616 11.4192 23.9901C11.4195 24.0793 11.4196 24.1685 11.4198 24.2577C11.4202 24.4922 11.4214 24.7268 11.4228 24.9613C11.4242 25.2428 11.4248 25.5244 11.4255 25.8059C11.4267 26.2334 11.429 26.6609 11.4312 27.0884C12.5736 27.0884 13.716 27.0884 14.893 27.0884C14.8966 26.4077 14.8966 26.4077 14.899 25.727C14.8997 25.4493 14.9006 25.1716 14.9022 24.8939C14.9036 24.6699 14.9043 24.446 14.9046 24.2221C14.9048 24.1367 14.9053 24.0513 14.9059 23.966C14.9068 23.8463 14.9069 23.7266 14.9069 23.6068C14.9073 23.5717 14.9078 23.5365 14.9082 23.5003C14.9071 23.2809 14.8739 23.1289 14.7708 22.9342C14.5993 22.7682 14.4221 22.7661 14.1918 22.7647C14.1405 22.7643 14.0893 22.7639 14.0365 22.7635C13.9806 22.7633 13.9248 22.7632 13.8689 22.763C13.8114 22.7628 13.7539 22.7625 13.6964 22.7623C13.5758 22.7619 13.4553 22.7616 13.3347 22.7615C13.1808 22.7613 13.0269 22.7603 12.873 22.7591C12.7541 22.7584 12.6353 22.7582 12.5165 22.7581C12.4598 22.758 12.403 22.7577 12.3463 22.7571C11.9301 22.7448 11.9301 22.7448 11.5533 22.8935Z" fill="white"/>
<path d="M22.3419 24.4715C22.3812 24.4712 22.4205 24.4708 22.461 24.4704C22.5242 24.4704 22.5242 24.4704 22.5888 24.4705C22.6324 24.4703 22.6759 24.4701 22.7208 24.47C22.813 24.4697 22.9051 24.4697 22.9972 24.4699C23.1381 24.47 23.2789 24.469 23.4198 24.468C23.5093 24.4679 23.5989 24.4679 23.6884 24.4679C23.7305 24.4676 23.7726 24.4672 23.816 24.4668C24.0738 24.4685 24.2232 24.4936 24.4166 24.6736C24.4879 24.8125 24.4919 24.9428 24.465 25.0936C24.3428 25.3176 24.3428 25.3176 24.2206 25.3787C24.1526 25.3835 24.0845 25.3856 24.0164 25.3866C23.9526 25.3876 23.9526 25.3876 23.8875 25.3886C23.6928 25.3904 23.4981 25.3921 23.3034 25.393C23.2006 25.3937 23.0979 25.3948 22.9952 25.3963C22.8472 25.3986 22.6992 25.3995 22.5512 25.4001C22.5053 25.401 22.4594 25.4019 22.4121 25.4029C22.0931 25.402 22.0931 25.402 21.9318 25.2813C21.8235 25.1247 21.8004 24.997 21.8177 24.8086C21.9395 24.5605 22.0701 24.473 22.3419 24.4715Z" fill="white"/>
<path d="M22.3419 21.8641C22.3812 21.8637 22.4205 21.8633 22.461 21.8629C22.5242 21.863 22.5242 21.863 22.5888 21.8631C22.6324 21.8629 22.6759 21.8627 22.7208 21.8625C22.813 21.8623 22.9051 21.8623 22.9972 21.8625C23.1381 21.8626 23.2789 21.8616 23.4198 21.8606C23.5093 21.8605 23.5989 21.8605 23.6884 21.8605C23.7305 21.8601 23.7726 21.8598 23.816 21.8594C24.0738 21.861 24.2232 21.8861 24.4166 22.0662C24.4879 22.2051 24.4919 22.3354 24.465 22.4862C24.3428 22.7102 24.3428 22.7102 24.2206 22.7713C24.1526 22.776 24.0845 22.7782 24.0164 22.7792C23.9526 22.7802 23.9526 22.7802 23.8875 22.7812C23.6928 22.783 23.4981 22.7846 23.3034 22.7856C23.2006 22.7862 23.0979 22.7874 22.9952 22.7889C22.8472 22.7911 22.6992 22.792 22.5512 22.7926C22.5053 22.7936 22.4594 22.7945 22.4121 22.7954C22.0931 22.7946 22.0931 22.7946 21.9318 22.6739C21.8235 22.5172 21.8004 22.3896 21.8177 22.2011C21.9395 21.953 22.0701 21.8656 22.3419 21.8641Z" fill="white"/>
<path d="M22.3419 19.2567C22.3812 19.2563 22.4205 19.2559 22.461 19.2555C22.5242 19.2556 22.5242 19.2556 22.5888 19.2556C22.6324 19.2555 22.6759 19.2553 22.7208 19.2551C22.813 19.2549 22.9051 19.2549 22.9972 19.255C23.1381 19.2552 23.2789 19.2542 23.4198 19.2532C23.5093 19.2531 23.5989 19.253 23.6884 19.2531C23.7305 19.2527 23.7726 19.2523 23.816 19.252C24.0738 19.2536 24.2232 19.2787 24.4166 19.4588C24.4879 19.5977 24.4919 19.728 24.465 19.8788C24.3428 20.1028 24.3428 20.1028 24.2206 20.1639C24.1526 20.1686 24.0845 20.1708 24.0164 20.1717C23.9526 20.1727 23.9526 20.1727 23.8875 20.1737C23.6928 20.1755 23.4981 20.1772 23.3034 20.1782C23.2006 20.1788 23.0979 20.1799 22.9952 20.1815C22.8472 20.1837 22.6992 20.1846 22.5512 20.1852C22.5053 20.1861 22.4594 20.1871 22.4121 20.188C22.0931 20.1871 22.0931 20.1871 21.9318 20.0665C21.8235 19.9098 21.8004 19.7822 21.8177 19.5937C21.9395 19.3456 22.0701 19.2582 22.3419 19.2567Z" fill="white"/>
<path d="M14.5221 19.2567C14.5614 19.2563 14.6007 19.2559 14.6412 19.2555C14.7044 19.2556 14.7044 19.2556 14.769 19.2556C14.8125 19.2555 14.8561 19.2553 14.901 19.2551C14.9931 19.2549 15.0853 19.2549 15.1774 19.255C15.3183 19.2552 15.4591 19.2542 15.6 19.2532C15.6895 19.2531 15.7791 19.253 15.8686 19.2531C15.9107 19.2527 15.9528 19.2523 15.9961 19.252C16.2539 19.2536 16.4034 19.2787 16.5968 19.4588C16.6681 19.5977 16.6721 19.728 16.6451 19.8788C16.523 20.1028 16.523 20.1028 16.4008 20.1639C16.3328 20.1686 16.2647 20.1708 16.1966 20.1717C16.1328 20.1727 16.1328 20.1727 16.0677 20.1737C15.873 20.1755 15.6783 20.1772 15.4836 20.1782C15.3808 20.1788 15.2781 20.1799 15.1753 20.1815C15.0273 20.1837 14.8794 20.1846 14.7314 20.1852C14.6855 20.1861 14.6396 20.1871 14.5923 20.188C14.2733 20.1871 14.2733 20.1871 14.112 20.0665C14.0037 19.9098 13.9806 19.7822 13.9978 19.5937C14.1196 19.3456 14.2503 19.2582 14.5221 19.2567Z" fill="white"/>
<path d="M14.5221 16.6512C14.5614 16.6508 14.6007 16.6505 14.6412 16.6501C14.7044 16.6501 14.7044 16.6501 14.769 16.6502C14.8125 16.65 14.8561 16.6498 14.901 16.6496C14.9931 16.6494 15.0853 16.6494 15.1774 16.6496C15.3183 16.6497 15.4591 16.6487 15.6 16.6477C15.6895 16.6476 15.7791 16.6476 15.8686 16.6476C15.9107 16.6472 15.9528 16.6469 15.9961 16.6465C16.2539 16.6481 16.4034 16.6733 16.5968 16.8533C16.6681 16.9922 16.6721 17.1225 16.6451 17.2733C16.523 17.4973 16.523 17.4973 16.4008 17.5584C16.3328 17.5631 16.2647 17.5653 16.1966 17.5663C16.1328 17.5673 16.1328 17.5673 16.0677 17.5683C15.873 17.5701 15.6783 17.5717 15.4836 17.5727C15.3808 17.5734 15.2781 17.5745 15.1753 17.576C15.0273 17.5783 14.8794 17.5791 14.7314 17.5797C14.6855 17.5807 14.6396 17.5816 14.5923 17.5825C14.2733 17.5817 14.2733 17.5817 14.112 17.461C14.0037 17.3043 13.9806 17.1767 13.9978 16.9882C14.1196 16.7401 14.2503 16.6527 14.5221 16.6512Z" fill="white"/>
<path d="M14.5221 14.0438C14.5614 14.0434 14.6007 14.043 14.6412 14.0426C14.7044 14.0427 14.7044 14.0427 14.769 14.0427C14.8125 14.0426 14.8561 14.0424 14.901 14.0422C14.9931 14.042 15.0853 14.042 15.1774 14.0421C15.3183 14.0423 15.4591 14.0413 15.6 14.0403C15.6895 14.0402 15.7791 14.0402 15.8686 14.0402C15.9107 14.0398 15.9528 14.0394 15.9961 14.0391C16.2539 14.0407 16.4034 14.0658 16.5968 14.2459C16.6681 14.3848 16.6721 14.5151 16.6451 14.6659C16.523 14.8899 16.523 14.8899 16.4008 14.951C16.3328 14.9557 16.2647 14.9579 16.1966 14.9589C16.1328 14.9598 16.1328 14.9598 16.0677 14.9608C15.873 14.9626 15.6783 14.9643 15.4836 14.9653C15.3808 14.9659 15.2781 14.967 15.1753 14.9686C15.0273 14.9708 14.8794 14.9717 14.7314 14.9723C14.6855 14.9732 14.6396 14.9742 14.5923 14.9751C14.2733 14.9743 14.2733 14.9743 14.112 14.8536C14.0037 14.6969 13.9806 14.5693 13.9978 14.3808C14.1196 14.1327 14.2503 14.0453 14.5221 14.0438Z" fill="white"/>
<path d="M14.5221 11.4383C14.5614 11.438 14.6007 11.4376 14.6412 11.4372C14.7044 11.4372 14.7044 11.4372 14.769 11.4373C14.8125 11.4371 14.8561 11.4369 14.901 11.4367C14.9931 11.4365 15.0853 11.4365 15.1774 11.4367C15.3183 11.4368 15.4591 11.4358 15.6 11.4348C15.6895 11.4347 15.7791 11.4347 15.8686 11.4347C15.9107 11.4344 15.9528 11.434 15.9961 11.4336C16.2539 11.4353 16.4034 11.4604 16.5968 11.6404C16.6681 11.7793 16.6721 11.9096 16.6451 12.0604C16.523 12.2844 16.523 12.2844 16.4008 12.3455C16.3328 12.3502 16.2647 12.3524 16.1966 12.3534C16.1328 12.3544 16.1328 12.3544 16.0677 12.3554C15.873 12.3572 15.6783 12.3589 15.4836 12.3598C15.3808 12.3605 15.2781 12.3616 15.1753 12.3631C15.0273 12.3654 14.8794 12.3663 14.7314 12.3669C14.6855 12.3678 14.6396 12.3687 14.5923 12.3697C14.2733 12.3688 14.2733 12.3688 14.112 12.2481C14.0037 12.0914 13.9806 11.9638 13.9978 11.7753C14.1196 11.5272 14.2503 11.4398 14.5221 11.4383Z" fill="white"/>
<path d="M10.1956 19.2603C10.2339 19.2599 10.2723 19.2595 10.3118 19.2591C10.3738 19.2588 10.3738 19.2588 10.4371 19.2586C10.4798 19.2583 10.5224 19.2581 10.5663 19.2579C10.6566 19.2575 10.7469 19.2572 10.8372 19.2571C10.975 19.2567 11.1128 19.2554 11.2506 19.2541C11.3384 19.2538 11.4261 19.2536 11.5138 19.2535C11.555 19.253 11.5961 19.2525 11.6384 19.252C11.8572 19.2526 12.0187 19.2614 12.2054 19.389C12.3204 19.5615 12.314 19.7159 12.2869 19.9185C12.2137 20.038 12.167 20.1006 12.0425 20.1628C11.9758 20.1674 11.9089 20.1693 11.8421 20.1701C11.8003 20.1706 11.7586 20.1711 11.7156 20.1716C11.6477 20.1721 11.6477 20.1721 11.5784 20.1726C11.532 20.1729 11.4856 20.1732 11.4378 20.1736C11.3394 20.1741 11.2411 20.1746 11.1427 20.1749C10.9923 20.1756 10.8419 20.1774 10.6914 20.1792C10.5959 20.1796 10.5005 20.1799 10.405 20.1802C10.3374 20.1813 10.3374 20.1813 10.2686 20.1824C9.95575 20.1815 9.95575 20.1815 9.79538 20.0854C9.66265 19.9328 9.66441 19.8092 9.66583 19.6124C9.68031 19.5112 9.68031 19.5112 9.77449 19.3865C9.91901 19.2823 10.0221 19.2617 10.1956 19.2603Z" fill="white"/>
<path d="M10.1956 16.6548C10.2339 16.6544 10.2723 16.654 10.3118 16.6536C10.3738 16.6534 10.3738 16.6534 10.4371 16.6531C10.4798 16.6529 10.5224 16.6526 10.5663 16.6524C10.6566 16.652 10.7469 16.6517 10.8372 16.6516C10.975 16.6512 11.1128 16.6499 11.2506 16.6486C11.3384 16.6484 11.4261 16.6482 11.5138 16.648C11.555 16.6475 11.5961 16.647 11.6384 16.6465C11.8572 16.6472 12.0187 16.6559 12.2054 16.7836C12.3204 16.9561 12.314 17.1104 12.2869 17.313C12.2137 17.4325 12.167 17.4952 12.0425 17.5574C11.9758 17.5619 11.9089 17.5639 11.8421 17.5646C11.8003 17.5651 11.7586 17.5656 11.7156 17.5662C11.6477 17.5666 11.6477 17.5666 11.5784 17.5671C11.532 17.5674 11.4856 17.5677 11.4378 17.5681C11.3394 17.5686 11.2411 17.5691 11.1427 17.5694C10.9923 17.5701 10.8419 17.5719 10.6914 17.5737C10.5959 17.5741 10.5005 17.5744 10.405 17.5747C10.3374 17.5758 10.3374 17.5758 10.2686 17.5769C9.95575 17.576 9.95575 17.576 9.79538 17.4799C9.66265 17.3274 9.66441 17.2038 9.66583 17.0069C9.68031 16.9057 9.68031 16.9057 9.77449 16.781C9.91901 16.6768 10.0221 16.6562 10.1956 16.6548Z" fill="white"/>
<path d="M10.1956 14.0474C10.2339 14.047 10.2723 14.0466 10.3118 14.0462C10.3738 14.0459 10.3738 14.0459 10.4371 14.0457C10.4798 14.0454 10.5224 14.0452 10.5663 14.045C10.6566 14.0446 10.7469 14.0443 10.8372 14.0442C10.975 14.0438 11.1128 14.0425 11.2506 14.0412C11.3384 14.041 11.4261 14.0407 11.5138 14.0406C11.555 14.0401 11.5961 14.0396 11.6384 14.0391C11.8572 14.0398 12.0187 14.0485 12.2054 14.1761C12.3204 14.3486 12.314 14.503 12.2869 14.7056C12.2137 14.8251 12.167 14.8877 12.0425 14.95C11.9758 14.9545 11.9089 14.9564 11.8421 14.9572C11.8003 14.9577 11.7586 14.9582 11.7156 14.9588C11.6477 14.9592 11.6477 14.9592 11.5784 14.9597C11.532 14.96 11.4856 14.9603 11.4378 14.9607C11.3394 14.9612 11.2411 14.9617 11.1427 14.962C10.9923 14.9627 10.8419 14.9645 10.6914 14.9663C10.5959 14.9667 10.5005 14.967 10.405 14.9673C10.3374 14.9684 10.3374 14.9684 10.2686 14.9695C9.95575 14.9686 9.95575 14.9686 9.79538 14.8725C9.66265 14.7199 9.66441 14.5963 9.66583 14.3995C9.68031 14.2983 9.68031 14.2983 9.77449 14.1736C9.91901 14.0694 10.0221 14.0488 10.1956 14.0474Z" fill="white"/>
<path d="M10.1956 11.4419C10.2339 11.4415 10.2723 11.4411 10.3118 11.4407C10.3738 11.4405 10.3738 11.4405 10.4371 11.4402C10.4798 11.44 10.5224 11.4397 10.5663 11.4395C10.6566 11.4391 10.7469 11.4389 10.8372 11.4387C10.975 11.4383 11.1128 11.437 11.2506 11.4358C11.3384 11.4355 11.4261 11.4353 11.5138 11.4351C11.555 11.4346 11.5961 11.4341 11.6384 11.4336C11.8572 11.4343 12.0187 11.443 12.2054 11.5707C12.3204 11.7432 12.314 11.8975 12.2869 12.1001C12.2137 12.2196 12.167 12.2823 12.0425 12.3445C11.9758 12.349 11.9089 12.351 11.8421 12.3517C11.8003 12.3522 11.7586 12.3527 11.7156 12.3533C11.6477 12.3537 11.6477 12.3537 11.5784 12.3542C11.532 12.3545 11.4856 12.3549 11.4378 12.3552C11.3394 12.3558 11.2411 12.3562 11.1427 12.3565C10.9923 12.3572 10.8419 12.359 10.6914 12.3608C10.5959 12.3612 10.5005 12.3616 10.405 12.3618C10.3374 12.3629 10.3374 12.3629 10.2686 12.364C9.95575 12.3631 9.95575 12.3631 9.79538 12.267C9.66265 12.1145 9.66441 11.9909 9.66583 11.794C9.68031 11.6928 9.68031 11.6928 9.77449 11.5681C9.91901 11.4639 10.0221 11.4433 10.1956 11.4419Z" fill="white"/>
</g>
<defs>
<clipPath id="clip0_3419_74507">
<rect width="20.8526" height="20.8526" fill="white" transform="translate(7.07373 7.13086)"/>
</clipPath>
</defs>
</svg>
