<svg width="35" height="35" viewBox="0 0 35 35" fill="none" xmlns="http://www.w3.org/2000/svg">
<rect width="35" height="35" rx="3" fill="#9D50DD"/>
<path d="M16.852 13.1671C15.8635 13.4255 15.0884 14.2089 14.8341 15.2015C14.6126 16.071 14.8833 17.0513 15.5272 17.7199L15.7979 17.9988L15.4944 18.1054L15.1868 18.2079L14.9489 17.9824C14.8012 17.847 14.5675 17.6912 14.346 17.5845L13.985 17.4081L14.1409 17.2277C14.8669 16.3869 14.8382 15.1974 14.0794 14.3771C13.5626 13.8193 12.7259 13.5691 12.0081 13.7619C11.2698 13.9546 10.6135 14.6232 10.4495 15.341C10.3962 15.5788 10.3962 16.0874 10.4495 16.3253C10.511 16.6001 10.712 16.9816 10.9171 17.2154L11.0975 17.4204L10.8637 17.5148C10.1132 17.8224 9.52253 18.5197 9.35847 19.3072C9.28464 19.6476 9.27234 20.9642 9.34206 21.0913C9.46511 21.321 11.118 21.9035 11.6512 21.9035C11.8317 21.9035 11.963 21.7599 11.963 21.5671C11.963 21.362 11.8727 21.3005 11.4257 21.2103C10.9417 21.1078 10.5438 20.9847 10.2034 20.8329L9.94499 20.714L9.9614 20.0701C9.97781 19.5245 9.99421 19.3851 10.0721 19.1882C10.2731 18.6755 10.6833 18.2736 11.2042 18.0808C11.4257 17.9988 11.5487 17.9906 12.3649 17.9742C12.9514 17.966 13.378 17.9742 13.5544 18.007C13.8661 18.0603 14.2557 18.2408 14.4567 18.4212L14.5921 18.5443L14.2885 18.8437C13.7266 19.4015 13.3985 20.0742 13.3165 20.8617C13.2919 21.0831 13.2755 21.604 13.2837 22.0142C13.3001 22.896 13.2591 22.8222 13.8702 23.1011C16.204 24.1757 18.7962 24.1798 21.1094 23.1134C21.7452 22.8181 21.7001 22.896 21.7165 22.0142C21.7247 21.604 21.7083 21.0831 21.6837 20.8617C21.6016 20.0742 21.2735 19.4015 20.7075 18.8396L20.3999 18.5361L20.5393 18.4171C20.7526 18.2326 21.1423 18.0603 21.4458 18.007C21.6221 17.9742 22.0487 17.966 22.6352 17.9742C23.4514 17.9906 23.5745 17.9988 23.796 18.0808C24.3169 18.2736 24.727 18.6755 24.928 19.1882C25.0059 19.3851 25.0223 19.5245 25.0387 20.066L25.0551 20.7099L24.8993 20.7878C24.6204 20.9314 24.0544 21.1119 23.6155 21.2021C23.1274 21.3005 23.0372 21.3579 23.0372 21.5753C23.0372 21.7681 23.1725 21.9035 23.3694 21.9035C23.5622 21.8994 24.1446 21.7681 24.5384 21.6369C25.0059 21.481 25.6048 21.1857 25.6581 21.0913C25.7278 20.9642 25.7155 19.6476 25.6417 19.3031C25.4776 18.5279 24.8829 17.8183 24.1364 17.5148L23.9026 17.4204L24.0831 17.2154C24.4194 16.8298 24.5958 16.3581 24.5958 15.8331C24.5917 15.2179 24.4112 14.7831 23.9641 14.3402C23.5171 13.8931 23.0618 13.7003 22.4425 13.7003C21.3022 13.7044 20.3301 14.6847 20.3301 15.8331C20.3301 16.3294 20.5229 16.838 20.8593 17.2277L21.0151 17.4081L20.6542 17.5845C20.4327 17.6912 20.1989 17.847 20.0512 17.9824L19.8134 18.2079L19.4975 18.1013L19.1817 17.9906L19.3253 17.8757C19.6903 17.5722 20.0759 16.9078 20.1866 16.3869C20.4409 15.1851 19.8216 13.93 18.6977 13.3722C18.1276 13.0892 17.4426 13.0154 16.852 13.1671ZM17.9184 13.7865C18.6936 13.9464 19.3868 14.6396 19.5468 15.4148C19.6903 16.1079 19.4852 16.7683 18.9602 17.2933C18.1112 18.1423 16.8889 18.1423 16.0399 17.2933C15.1909 16.4443 15.1909 15.2179 16.0399 14.373C16.569 13.848 17.2253 13.6429 17.9184 13.7865ZM13.1237 14.4714C13.3903 14.5904 13.743 14.9349 13.8784 15.2138C13.9809 15.4148 13.9932 15.4927 13.9932 15.8331C13.9932 16.1818 13.9809 16.2474 13.8743 16.4607C13.7307 16.7396 13.3903 17.0759 13.1237 17.199C12.9637 17.2728 12.853 17.2892 12.5372 17.2892C12.1926 17.2892 12.1188 17.2769 11.9137 17.1744C11.0483 16.7519 10.7899 15.6773 11.3682 14.9185C11.5159 14.7257 11.803 14.5206 12.0696 14.4181C12.3034 14.3279 12.8694 14.3566 13.1237 14.4714ZM23.0864 14.4919C23.3981 14.6437 23.6729 14.9185 23.8083 15.2097C23.9026 15.4107 23.919 15.4968 23.919 15.8331C23.919 16.1777 23.9067 16.2515 23.8042 16.4566C23.6565 16.7601 23.3899 17.0267 23.0864 17.1744C22.8813 17.2769 22.8075 17.2892 22.463 17.2892C22.1471 17.2892 22.0364 17.2728 21.8764 17.199C21.6057 17.0718 21.253 16.7273 21.1218 16.4525C21.0192 16.2515 21.0069 16.1777 21.0069 15.8331C21.011 15.3656 21.0889 15.1605 21.3801 14.8488C21.7329 14.4714 22.0159 14.3525 22.5245 14.3689C22.787 14.3771 22.8977 14.3976 23.0864 14.4919ZM18.9971 18.6427C19.9323 18.8396 20.7321 19.6025 20.9659 20.5294C21.0561 20.8904 21.1012 22.3587 21.0233 22.4203C20.9044 22.5146 20.1251 22.8181 19.6739 22.9494C18.9028 23.1708 18.4106 23.2365 17.5001 23.2365C16.5895 23.2365 16.0973 23.1708 15.3262 22.9494C14.8751 22.8181 14.0958 22.5146 13.9768 22.4203C13.8989 22.3587 13.944 20.8904 14.0343 20.5294C14.268 19.6148 15.0637 18.8437 15.9825 18.6468C16.3721 18.5607 18.5993 18.5607 18.9971 18.6427Z" fill="white"/>
</svg>
