<svg width="35" height="35" viewBox="0 0 35 35" fill="none" xmlns="http://www.w3.org/2000/svg">
<rect width="35" height="35" rx="3" fill="#656462"/>
<g clip-path="url(#clip0_3419_74772)">
<path d="M16.3128 6.79748C16.3409 6.79721 16.369 6.79693 16.3979 6.79665C16.4908 6.79583 16.5837 6.79534 16.6767 6.79492C16.7085 6.79475 16.7403 6.79458 16.773 6.79441C16.9415 6.79354 17.1099 6.79294 17.2784 6.79255C17.4519 6.79209 17.6253 6.79065 17.7988 6.78899C17.9326 6.78789 18.0664 6.78755 18.2002 6.7874C18.2641 6.78719 18.3281 6.78671 18.392 6.78593C18.7849 6.78145 19.0717 6.78714 19.3872 7.06597C19.5715 7.29737 19.7215 7.52092 19.7206 7.83101C19.7206 7.86947 19.7206 7.90794 19.7206 7.94757C19.7204 7.98895 19.7202 8.03034 19.72 8.07298C19.7199 8.1367 19.7199 8.1367 19.7199 8.2017C19.7196 8.33748 19.7191 8.47326 19.7186 8.60904C19.7184 8.70105 19.7182 8.79306 19.7181 8.88507C19.7177 9.11073 19.717 9.33638 19.7162 9.56204C19.7423 9.56707 19.7684 9.57211 19.7953 9.57729C19.9792 9.61416 20.1518 9.65157 20.324 9.73159C20.3592 9.74772 20.3943 9.76384 20.4305 9.78046C20.4658 9.79713 20.501 9.81379 20.5374 9.83097C20.5732 9.84747 20.6091 9.86398 20.646 9.88098C20.793 9.94904 20.9362 10.0176 21.0772 10.0988C21.1948 10.1536 21.2218 10.1502 21.3388 10.1051C21.4252 10.0226 21.5053 9.93988 21.5855 9.85104C21.6341 9.79862 21.6826 9.74621 21.7312 9.69381C21.807 9.61116 21.8827 9.52838 21.9583 9.44547C22.0316 9.36533 22.1053 9.28572 22.1792 9.20613C22.2013 9.18154 22.2234 9.15695 22.2462 9.13161C22.4777 8.88271 22.7476 8.72604 23.0826 8.71348C23.5605 8.72835 23.8544 8.99832 24.1745 9.34158C24.217 9.38617 24.2595 9.43073 24.302 9.47524C24.3905 9.56821 24.4784 9.66169 24.5661 9.75556C24.6776 9.87502 24.7904 9.99311 24.9036 10.1109C24.9914 10.2025 25.0786 10.2948 25.1655 10.3873C25.2068 10.4311 25.2483 10.4747 25.2901 10.518C25.5916 10.8325 25.8026 11.1329 25.8282 11.5934C25.797 12.14 25.466 12.4405 25.1094 12.8043C25.0903 12.8239 25.0711 12.8435 25.0515 12.8636C24.9729 12.9439 24.8943 13.0241 24.8148 13.1034C24.7558 13.1624 24.6975 13.2222 24.6394 13.2822C24.5878 13.3343 24.5878 13.3343 24.5351 13.3875C24.4544 13.4826 24.4544 13.4826 24.4701 13.5967C24.5004 13.6847 24.5311 13.7679 24.5711 13.8515C24.5842 13.8797 24.5974 13.9079 24.611 13.9369C24.6249 13.9666 24.6389 13.9962 24.6533 14.0268C25.0194 14.8241 25.0194 14.8241 25.0194 15.1599C25.0413 15.1594 25.0633 15.159 25.0859 15.1585C25.3157 15.1539 25.5456 15.1507 25.7755 15.1484C25.8611 15.1474 25.9467 15.146 26.0323 15.1442C26.1559 15.1416 26.2794 15.1404 26.403 15.1395C26.4408 15.1384 26.4786 15.1374 26.5175 15.1362C26.8473 15.1361 27.098 15.2456 27.3495 15.4706C27.5546 15.7317 27.636 15.9079 27.6385 16.2463C27.6388 16.2908 27.6388 16.2908 27.6392 16.3361C27.64 16.4342 27.6405 16.5323 27.6409 16.6304C27.641 16.6639 27.6412 16.6975 27.6414 16.7321C27.6422 16.9099 27.6428 17.0877 27.6431 17.2655C27.6436 17.4486 27.6449 17.6317 27.6465 17.8149C27.6475 17.9561 27.6479 18.0973 27.648 18.2386C27.6482 18.3061 27.6487 18.3735 27.6494 18.441C27.6536 18.8557 27.6483 19.1584 27.3841 19.4915C27.1649 19.6861 26.9531 19.8443 26.6593 19.8435C26.6229 19.8435 26.5864 19.8435 26.5489 19.8435C26.5097 19.8432 26.4705 19.843 26.4301 19.8428C26.3697 19.8427 26.3697 19.8427 26.3081 19.8426C26.1795 19.8424 26.0509 19.8419 25.9222 19.8413C25.8351 19.8411 25.7479 19.8409 25.6607 19.8408C25.447 19.8403 25.2332 19.8396 25.0194 19.8387C25.0123 19.8801 25.0123 19.8801 25.005 19.9222C24.97 20.1164 24.9346 20.2986 24.8588 20.4804C24.8435 20.5175 24.8282 20.5546 24.8125 20.5928C24.7967 20.63 24.7809 20.6672 24.7646 20.7056C24.749 20.7434 24.7334 20.7813 24.7172 20.8203C24.6528 20.9754 24.5878 21.1266 24.5109 21.2754C24.459 21.3995 24.4622 21.428 24.5049 21.5515C24.5831 21.6428 24.6615 21.7273 24.7456 21.812C24.7953 21.8632 24.8449 21.9144 24.8946 21.9657C24.9729 22.0457 25.0513 22.1256 25.1298 22.2054C25.2058 22.2828 25.2812 22.3607 25.3566 22.4386C25.3799 22.4619 25.4032 22.4853 25.4272 22.5093C25.663 22.7537 25.8114 23.0385 25.8233 23.3922C25.8096 23.8911 25.5647 24.1948 25.24 24.5309C25.1992 24.5741 25.1583 24.6174 25.1176 24.6607C25.0325 24.7507 24.9471 24.8402 24.8612 24.9293C24.7514 25.0432 24.6429 25.1583 24.5347 25.2738C24.4508 25.3631 24.3664 25.4518 24.2817 25.5402C24.2415 25.5825 24.2014 25.6249 24.1615 25.6675C24.1056 25.7268 24.0489 25.7853 23.9922 25.8438C23.9603 25.8772 23.9283 25.9106 23.8954 25.945C23.7668 26.0406 23.6714 26.0558 23.5155 26.0632C23.3988 26.007 23.3357 25.9761 23.278 25.8544C23.2564 25.7116 23.2475 25.6081 23.3285 25.4858C23.3508 25.46 23.3732 25.4341 23.3963 25.4075C23.4341 25.3637 23.4341 25.3637 23.4728 25.319C23.6124 25.1641 23.7553 25.0129 23.8997 24.8628C23.9651 24.7943 24.0306 24.7257 24.0961 24.6571C24.1983 24.5502 24.3006 24.4434 24.403 24.3367C24.5026 24.2329 24.6018 24.1288 24.7011 24.0247C24.7318 23.9928 24.7626 23.9609 24.7943 23.9281C24.8227 23.8982 24.8511 23.8684 24.8804 23.8376C24.9179 23.7985 24.9179 23.7985 24.9562 23.7586C25.0609 23.6319 25.0979 23.5483 25.101 23.3792C25.0149 23.0582 24.7354 22.8377 24.5139 22.6101C24.4896 22.5851 24.4654 22.5601 24.4404 22.5344C24.3389 22.4299 24.2374 22.3255 24.135 22.2221C24.0596 22.1457 23.9849 22.0686 23.9103 21.9913C23.8756 21.9568 23.8756 21.9568 23.8401 21.9215C23.6916 21.7658 23.6369 21.6561 23.6342 21.4262C23.6753 21.3231 23.7153 21.2406 23.7703 21.1468C24.0638 20.607 24.2623 20.0225 24.4216 19.4247C24.463 19.3026 24.4863 19.2455 24.5841 19.1703C24.7009 19.1292 24.7766 19.1234 24.8984 19.1233C24.9382 19.1231 24.9779 19.123 25.0189 19.1228C25.0833 19.1227 25.0833 19.1227 25.149 19.1227C25.2397 19.1219 25.3303 19.1211 25.421 19.1202C25.5642 19.119 25.7073 19.1181 25.8504 19.1181C25.9885 19.1179 26.1265 19.1165 26.2645 19.1148C26.3073 19.1151 26.35 19.1154 26.3941 19.1157C26.6368 19.1123 26.6368 19.1123 26.8462 18.991C26.9572 18.8187 26.9637 18.6799 26.965 18.4741C26.9656 18.4027 26.9656 18.4027 26.9662 18.33C26.9663 18.2787 26.9665 18.2275 26.9667 18.1747C26.9669 18.1219 26.9671 18.069 26.9674 18.0146C26.9677 17.9027 26.968 17.7909 26.9682 17.6791C26.9684 17.5363 26.9693 17.3937 26.9705 17.2509C26.9714 17.1141 26.9714 16.9773 26.9716 16.8405C26.9724 16.7641 26.9724 16.7641 26.9731 16.6861C26.9725 16.4252 26.968 16.2223 26.8399 15.9954C26.7112 15.9048 26.6745 15.9013 26.5256 15.9005C26.4858 15.9001 26.446 15.8997 26.4051 15.8992C26.3622 15.8992 26.3192 15.8991 26.275 15.899C26.1843 15.8979 26.0936 15.8969 26.0029 15.8958C25.8598 15.8946 25.7167 15.8936 25.5736 15.8928C25.4355 15.8919 25.2975 15.8903 25.1595 15.8885C25.1167 15.8885 25.074 15.8885 25.0299 15.8885C24.6502 15.8832 24.6502 15.8832 24.5049 15.7448C24.4568 15.6316 24.4201 15.5283 24.3862 15.4106C24.366 15.3465 24.3456 15.2826 24.3251 15.2187C24.3146 15.1854 24.3041 15.1522 24.2933 15.118C24.1755 14.7487 24.0394 14.4009 23.8675 14.0561C23.8555 14.0318 23.8434 14.0074 23.831 13.9823C23.8038 13.9289 23.7756 13.8761 23.7465 13.8238C23.7242 13.7818 23.7242 13.7818 23.7015 13.7389C23.6877 13.714 23.6739 13.6891 23.6597 13.6635C23.6185 13.5162 23.6336 13.4283 23.6738 13.28C23.7605 13.1558 23.8634 13.0526 23.9692 12.9466C23.9989 12.9159 24.0285 12.8852 24.059 12.8536C24.1535 12.7558 24.2488 12.6589 24.3441 12.562C24.4392 12.4646 24.5341 12.367 24.6288 12.2691C24.6877 12.2084 24.7469 12.1479 24.8063 12.0877C24.8331 12.0602 24.8599 12.0327 24.8875 12.0044C24.9111 11.9804 24.9347 11.9564 24.9591 11.9317C25.0629 11.8077 25.098 11.7231 25.101 11.5568C25.0092 11.2147 24.6821 10.9539 24.4488 10.7073C24.4179 10.6746 24.3871 10.6418 24.3553 10.6081C24.2906 10.5396 24.2258 10.4712 24.161 10.4028C24.0618 10.298 23.9629 10.1928 23.864 10.0877C23.8009 10.0209 23.7377 9.95415 23.6746 9.88743C23.6304 9.8403 23.6304 9.8403 23.5852 9.79223C23.5576 9.7632 23.53 9.73418 23.5016 9.70427C23.4774 9.67875 23.4533 9.65323 23.4285 9.62693C23.3088 9.51794 23.2293 9.47911 23.0703 9.47588C22.7662 9.56681 22.5573 9.86186 22.3417 10.0957C22.3062 10.134 22.3062 10.134 22.2699 10.1732C22.171 10.2803 22.072 10.3874 21.9741 10.4956C21.9017 10.5752 21.8287 10.654 21.7554 10.7327C21.7336 10.7572 21.7118 10.7816 21.6893 10.8068C21.5418 10.9636 21.4379 11.0213 21.2201 11.0242C21.1224 10.9808 21.0442 10.9386 20.9554 10.8806C20.444 10.5708 19.8903 10.3612 19.3239 10.1931C19.2082 10.1494 19.1541 10.1248 19.0829 10.0216C19.044 9.89823 19.0384 9.8183 19.0384 9.68975C19.0382 9.64778 19.0381 9.60581 19.0379 9.56257C19.0379 9.51726 19.0378 9.47196 19.0378 9.42529C19.0371 9.32956 19.0363 9.23382 19.0355 9.13809C19.0343 8.987 19.0335 8.83594 19.0334 8.68484C19.0333 8.53912 19.0319 8.39346 19.0304 8.24775C19.0308 8.18006 19.0308 8.18006 19.0312 8.11099C19.0279 7.85475 19.0279 7.85475 18.9131 7.63375C18.7498 7.5166 18.6183 7.50973 18.4233 7.50832C18.3783 7.50792 18.3332 7.50752 18.2868 7.50711C18.2383 7.50693 18.1897 7.50675 18.1397 7.50657C18.0897 7.50633 18.0396 7.50609 17.988 7.50585C17.8821 7.50545 17.7761 7.50517 17.6701 7.50502C17.5349 7.50479 17.3998 7.50379 17.2646 7.5026C17.135 7.50163 17.0054 7.50155 16.8758 7.50135C16.8275 7.50083 16.7792 7.50032 16.7295 7.49978C16.4823 7.50047 16.2901 7.50522 16.0751 7.64038C15.9893 7.77629 15.986 7.81502 15.9852 7.9722C15.9848 8.01417 15.9844 8.05614 15.984 8.09938C15.9839 8.14468 15.9838 8.18998 15.9838 8.23666C15.9828 8.33239 15.9818 8.42813 15.9807 8.52386C15.9796 8.67494 15.9787 8.82602 15.9779 8.9771C15.9771 9.12281 15.9755 9.2685 15.9739 9.41419C15.9739 9.45933 15.9738 9.50446 15.9738 9.55096C15.9688 9.95175 15.9688 9.95175 15.8377 10.1051C15.7304 10.1559 15.6326 10.1946 15.521 10.2304C15.4604 10.2518 15.3998 10.2733 15.3392 10.2949C15.3078 10.306 15.2763 10.3171 15.2439 10.3285C14.894 10.4529 14.5646 10.5965 14.2379 10.7779C14.2148 10.7907 14.1917 10.8034 14.168 10.8165C14.1174 10.8451 14.0674 10.875 14.0178 10.9056C13.9913 10.9213 13.9647 10.937 13.9374 10.9532C13.9138 10.9677 13.8902 10.9823 13.8659 10.9973C13.7263 11.0408 13.6431 11.0248 13.5026 10.9824C13.385 10.8909 13.2872 10.7822 13.1868 10.6705C13.1432 10.6236 13.1432 10.6236 13.0986 10.5758C13.006 10.476 12.9142 10.3755 12.8224 10.2748C12.7301 10.1745 12.6376 10.0743 12.545 9.97431C12.4874 9.91213 12.4301 9.8497 12.373 9.78699C12.334 9.74455 12.334 9.74455 12.2941 9.70124C12.2601 9.66386 12.2601 9.66386 12.2253 9.62573C12.1078 9.51612 12.0276 9.47907 11.8701 9.47588C11.546 9.5728 11.299 9.91806 11.0653 10.1644C11.0343 10.1969 11.0033 10.2295 10.9714 10.2631C10.9065 10.3313 10.8416 10.3997 10.7768 10.4681C10.6775 10.5728 10.5779 10.6772 10.4783 10.7816C10.415 10.8482 10.3518 10.9149 10.2886 10.9816C10.244 11.0283 10.244 11.0283 10.1984 11.0759C10.1572 11.1196 10.1572 11.1196 10.1151 11.1642C10.0909 11.1897 10.0667 11.2151 10.0418 11.2414C9.93856 11.3677 9.90177 11.4516 9.89871 11.6195C9.98486 11.9404 10.2644 12.161 10.4859 12.3886C10.5101 12.4135 10.5344 12.4385 10.5593 12.4642C10.6608 12.5687 10.7623 12.6731 10.8647 12.7766C10.9402 12.8529 11.0148 12.93 11.0894 13.0073C11.1126 13.0304 11.1357 13.0534 11.1596 13.0771C11.3081 13.2328 11.3628 13.3425 11.3655 13.5725C11.3245 13.6756 11.2845 13.7581 11.2295 13.8518C10.936 14.3917 10.7374 14.9761 10.5782 15.5739C10.5368 15.696 10.5135 15.7532 10.4157 15.8283C10.2988 15.8694 10.2231 15.8753 10.1013 15.8754C10.0616 15.8755 10.0218 15.8757 9.98084 15.8758C9.93792 15.8759 9.89501 15.8759 9.85079 15.876C9.76009 15.8767 9.6694 15.8775 9.5787 15.8784C9.43556 15.8796 9.29245 15.8805 9.14931 15.8806C9.01126 15.8807 8.87327 15.8821 8.73523 15.8838C8.69247 15.8835 8.64971 15.8832 8.60566 15.8829C8.36291 15.8864 8.36291 15.8864 8.15354 16.0076C8.04256 16.1799 8.03605 16.3187 8.03472 16.5246C8.03434 16.5721 8.03396 16.6197 8.03356 16.6687C8.03331 16.7455 8.03331 16.7455 8.03305 16.8239C8.03272 16.9032 8.03272 16.9032 8.03237 16.9841C8.032 17.0959 8.03172 17.2077 8.03159 17.3196C8.03137 17.4623 8.03042 17.605 8.02929 17.7477C8.02837 17.8845 8.0283 18.0213 8.02811 18.1581C8.02762 18.2091 8.02713 18.26 8.02663 18.3125C8.02727 18.5734 8.03177 18.7763 8.15982 19.0032C8.28858 19.0938 8.32527 19.0973 8.47417 19.0981C8.51394 19.0985 8.5537 19.099 8.59466 19.0994C8.65904 19.0995 8.65904 19.0995 8.72471 19.0997C8.81541 19.1007 8.90611 19.1018 8.9968 19.1029C9.13993 19.1041 9.28306 19.1051 9.42619 19.1058C9.56423 19.1067 9.70225 19.1084 9.84028 19.1101C9.88303 19.1101 9.92579 19.1101 9.96984 19.1101C10.3495 19.1154 10.3495 19.1154 10.4948 19.2539C10.543 19.3671 10.5797 19.4704 10.6136 19.5881C10.6338 19.6521 10.6541 19.7161 10.6746 19.78C10.6851 19.8132 10.6956 19.8464 10.7064 19.8806C10.8243 20.2499 10.9603 20.5977 11.1322 20.9425C11.1443 20.9669 11.1564 20.9912 11.1688 21.0163C11.1959 21.0698 11.2242 21.1225 11.2532 21.1748C11.2681 21.2028 11.283 21.2309 11.2983 21.2597C11.3121 21.2846 11.3258 21.3095 11.3401 21.3352C11.3813 21.4825 11.3661 21.5704 11.3259 21.7186C11.2392 21.8428 11.1363 21.946 11.0305 22.052C10.9861 22.0981 10.9861 22.0981 10.9407 22.1451C10.8462 22.2429 10.751 22.3398 10.6556 22.4366C10.5605 22.5341 10.4656 22.6317 10.3709 22.7295C10.312 22.7903 10.2529 22.8508 10.1935 22.911C10.1666 22.9385 10.1398 22.9659 10.1122 22.9943C10.0886 23.0182 10.065 23.0422 10.0407 23.0669C9.93684 23.1909 9.90174 23.2756 9.89871 23.4418C9.99193 23.7891 10.3259 24.0521 10.5638 24.3005C10.5958 24.3342 10.6278 24.3678 10.6608 24.4024C10.762 24.5088 10.8634 24.615 10.9648 24.7212C11.0992 24.862 11.2335 25.0029 11.3677 25.1439C11.3986 25.1762 11.4296 25.2085 11.4615 25.2418C11.5041 25.2866 11.5041 25.2866 11.5476 25.3323C11.5852 25.3717 11.5852 25.3717 11.6236 25.4119C11.7136 25.5142 11.7216 25.5597 11.7316 25.7029C11.7217 25.8544 11.7217 25.8544 11.6821 25.9536C11.5849 26.0369 11.4965 26.0679 11.3717 26.0779C11.263 26.0592 11.2214 26.0195 11.1412 25.9407C11.1136 25.9139 11.0861 25.8871 11.0578 25.8596C11.0287 25.8303 10.9997 25.801 10.9698 25.7708C10.9254 25.7265 10.9254 25.7265 10.8802 25.6814C10.6716 25.4708 10.4665 25.2565 10.2613 25.0422C10.1862 24.9639 10.1107 24.886 10.0349 24.8084C9.92474 24.6954 9.81549 24.5815 9.7064 24.4673C9.67271 24.4331 9.63903 24.3989 9.60433 24.3637C9.34402 24.088 9.19244 23.7996 9.1715 23.4053C9.20277 22.8586 9.53378 22.5581 9.89037 22.1943C9.91904 22.165 9.91904 22.165 9.94829 22.135C10.0269 22.0547 10.1055 21.9745 10.185 21.8952C10.244 21.8362 10.3022 21.7764 10.3603 21.7165C10.3948 21.6817 10.4292 21.647 10.4646 21.6112C10.5456 21.5159 10.5456 21.5159 10.529 21.4007C10.4837 21.2685 10.4277 21.1449 10.3687 21.0189C10.2594 20.7798 10.1654 20.5382 10.0818 20.2878C10.0715 20.2575 10.0613 20.2271 10.0507 20.1958C10.0101 20.0717 9.98034 19.971 9.98034 19.8387C9.95841 19.8392 9.93648 19.8397 9.91389 19.8401C9.68402 19.8448 9.45417 19.8479 9.22427 19.8502C9.13867 19.8512 9.05308 19.8527 8.96749 19.8545C8.84389 19.857 8.72033 19.8582 8.59671 19.8591C8.54004 19.8607 8.54004 19.8607 8.48223 19.8624C8.15247 19.8625 7.90169 19.753 7.65028 19.528C7.44512 19.2669 7.36375 19.0908 7.36129 18.7523C7.36103 18.7227 7.36077 18.693 7.3605 18.6625C7.35972 18.5644 7.35926 18.4664 7.35886 18.3683C7.35862 18.3179 7.35862 18.3179 7.35837 18.2665C7.35755 18.0887 7.35698 17.9109 7.35661 17.7331C7.35617 17.55 7.35481 17.3669 7.35324 17.1838C7.3522 17.0425 7.35187 16.9013 7.35173 16.7601C7.35154 16.6926 7.35108 16.6251 7.35035 16.5577C7.3461 16.1429 7.35149 15.8402 7.61565 15.5072C7.83486 15.3126 8.04665 15.1543 8.34042 15.1552C8.37686 15.1552 8.4133 15.1552 8.45084 15.1552C8.50965 15.1555 8.50965 15.1555 8.56966 15.1558C8.63002 15.1559 8.63002 15.1559 8.6916 15.156C8.82023 15.1562 8.94887 15.1568 9.0775 15.1573C9.16467 15.1575 9.25183 15.1577 9.339 15.1579C9.55278 15.1583 9.76656 15.159 9.98034 15.1599C9.98511 15.1324 9.98988 15.1048 9.99479 15.0764C10.0297 14.8822 10.0652 14.7 10.141 14.5183C10.1562 14.4812 10.1715 14.4441 10.1873 14.4058C10.2031 14.3686 10.2188 14.3314 10.2351 14.2931C10.2508 14.2552 10.2664 14.2174 10.2825 14.1784C10.347 14.0232 10.412 13.8721 10.4888 13.7232C10.5407 13.5992 10.5375 13.5706 10.4948 13.4471C10.4167 13.3559 10.3383 13.2713 10.2541 13.1867C10.2045 13.1355 10.1548 13.0842 10.1052 13.033C10.0269 12.9529 9.94846 12.873 9.86991 12.7932C9.79398 12.7159 9.71856 12.638 9.64317 12.5601C9.61987 12.5367 9.59657 12.5134 9.57257 12.4893C9.33677 12.2449 9.18834 11.9601 9.17644 11.6064C9.19053 11.1019 9.44629 10.7917 9.77148 10.4538C9.81373 10.409 9.85594 10.3642 9.89811 10.3193C9.98619 10.2259 10.0747 10.1331 10.1637 10.0406C10.2768 9.92278 10.3887 9.80373 10.5003 9.68423C10.5871 9.59155 10.6745 9.49958 10.7622 9.40781C10.8037 9.36421 10.845 9.32039 10.886 9.27635C11.1839 8.958 11.4685 8.73537 11.9047 8.70826C12.4227 8.74127 12.7073 9.09067 13.052 9.46707C13.0705 9.48724 13.0891 9.50742 13.1082 9.52821C13.1842 9.61115 13.2602 9.69412 13.3353 9.77803C13.3912 9.84031 13.4479 9.90177 13.5047 9.96315C13.5376 9.99947 13.5705 10.0358 13.6044 10.0732C13.6947 10.1587 13.6947 10.1587 13.8039 10.1412C13.9291 10.0934 14.0462 10.0343 14.1656 9.97196C14.3921 9.85664 14.621 9.75739 14.8581 9.66909C14.8869 9.65828 14.9157 9.64747 14.9453 9.63634C15.0629 9.59349 15.1583 9.56204 15.2836 9.56204C15.2832 9.53889 15.2827 9.51574 15.2823 9.4919C15.2779 9.24926 15.2749 9.00664 15.2727 8.76397C15.2717 8.67361 15.2704 8.58326 15.2687 8.49292C15.2662 8.36245 15.2651 8.23203 15.2643 8.10154C15.2632 8.06166 15.2622 8.02178 15.2612 7.9807C15.261 7.63262 15.3648 7.36791 15.5779 7.10253C15.8253 6.88597 15.9922 6.80008 16.3128 6.79748Z" fill="white"/>
<path d="M15.4229 20.9476C15.542 21.0679 15.5807 21.1663 15.6373 21.3293C15.6521 21.371 15.6521 21.371 15.6672 21.4136C15.6994 21.5047 15.7307 21.5961 15.7621 21.6875C15.7843 21.7508 15.8065 21.8141 15.8289 21.8773C15.8751 22.0082 15.921 22.1391 15.9668 22.2701C16.0665 22.5541 16.1704 22.8362 16.2745 23.1183C16.325 23.2555 16.3754 23.3927 16.4257 23.5299C16.4543 23.6077 16.4829 23.6854 16.5115 23.7632C16.5383 23.6223 16.5645 23.4813 16.5907 23.3402C16.5982 23.3005 16.6058 23.2608 16.6136 23.2198C16.6243 23.1617 16.6243 23.1617 16.6352 23.1023C16.6418 23.0669 16.6485 23.0314 16.6553 22.9949C16.6902 22.7333 16.6563 22.5743 16.5313 22.3469C16.5025 22.292 16.4736 22.237 16.4448 22.182C16.399 22.0965 16.3532 22.0111 16.3072 21.9258C16.2627 21.8428 16.2189 21.7594 16.1751 21.6759C16.1613 21.6508 16.1474 21.6257 16.1332 21.5998C16.0408 21.4232 16.0067 21.2898 16.0366 21.0896C16.1358 20.9587 16.1958 20.8894 16.3531 20.8542C16.3971 20.854 16.441 20.8539 16.4863 20.8537C16.5364 20.853 16.5865 20.8524 16.638 20.8517C16.6923 20.8521 16.7466 20.8525 16.8009 20.853C16.857 20.8529 16.913 20.8527 16.969 20.8524C17.0863 20.8521 17.2035 20.8525 17.3207 20.8535C17.4707 20.8547 17.6207 20.854 17.7707 20.8528C17.8863 20.852 18.0019 20.8522 18.1176 20.8528C18.1729 20.8529 18.2282 20.8528 18.2834 20.8523C18.3608 20.8517 18.4382 20.8527 18.5156 20.8537C18.5815 20.854 18.5815 20.854 18.6488 20.8542C18.8058 20.8893 18.8657 20.9596 18.9653 21.0896C19.0251 21.3803 18.8664 21.6158 18.7377 21.8625C18.7164 21.9045 18.6951 21.9466 18.6731 21.9899C18.5842 22.1646 18.4939 22.3372 18.3956 22.5062C18.2553 22.7912 18.3787 23.1413 18.4333 23.4448C18.4388 23.4756 18.4443 23.5063 18.45 23.538C18.4634 23.6131 18.4769 23.6881 18.4904 23.7632C18.5063 23.7196 18.5222 23.6759 18.5386 23.6309C18.5492 23.6018 18.5598 23.5726 18.5708 23.5426C18.5949 23.4765 18.6189 23.4103 18.643 23.3442C18.71 23.1603 18.7771 22.9765 18.8443 22.7927C18.9662 22.4591 19.0877 22.1255 19.2046 21.7898C19.2221 21.7401 19.2396 21.6904 19.2576 21.6391C19.2895 21.5483 19.3209 21.4573 19.3517 21.3661C19.4865 20.9849 19.4865 20.9849 19.6777 20.8807C20.3358 20.7979 21.0825 21.2151 21.5996 21.6144C21.6721 21.6752 21.7439 21.7369 21.8148 21.7998C21.8401 21.8223 21.8655 21.8448 21.8916 21.868C22.537 22.4971 22.8663 23.3967 22.9229 24.3063C22.9312 24.5788 22.9304 24.8516 22.931 25.1242C22.9311 25.1631 22.9312 25.2021 22.9313 25.2422C22.9319 25.4478 22.9323 25.6534 22.9324 25.859C22.9327 26.0709 22.9336 26.2828 22.9347 26.4947C22.9355 26.6583 22.9357 26.8219 22.9357 26.9854C22.9359 27.0636 22.9362 27.1417 22.9367 27.2199C22.9374 27.329 22.9373 27.4382 22.937 27.5473C22.9374 27.5794 22.9378 27.6114 22.9381 27.6444C22.9367 27.8435 22.9051 27.981 22.8042 28.1496C22.7112 28.1987 22.6562 28.1968 22.5526 28.197C22.4979 28.1973 22.4979 28.1973 22.4421 28.1976C22.4018 28.1976 22.3615 28.1975 22.3199 28.1975C22.2773 28.1977 22.2347 28.1978 22.1908 28.198C22.047 28.1985 21.9032 28.1986 21.7595 28.1988C21.6568 28.199 21.5541 28.1993 21.4514 28.1996C21.1426 28.2004 20.8337 28.2009 20.5249 28.2012C20.3795 28.2014 20.2342 28.2016 20.0889 28.2019C19.6059 28.2026 19.1229 28.2032 18.6399 28.2035C18.5146 28.2036 18.3892 28.2036 18.2638 28.2037C18.2171 28.2038 18.2171 28.2038 18.1694 28.2038C17.6643 28.2041 17.1592 28.2052 16.6542 28.2065C16.1359 28.2079 15.6177 28.2087 15.0994 28.2088C14.8083 28.2089 14.5172 28.2093 14.2261 28.2103C13.9524 28.2113 13.6787 28.2115 13.405 28.2111C13.3044 28.211 13.2037 28.2113 13.1031 28.2119C12.9661 28.2126 12.8291 28.2123 12.692 28.2118C12.6519 28.2122 12.6117 28.2127 12.5704 28.2132C12.3024 28.2105 12.3024 28.2105 12.1742 28.1144C12.0641 27.9361 12.0731 27.7655 12.0732 27.5604C12.0731 27.5259 12.073 27.4913 12.0728 27.4558C12.0724 27.3413 12.0724 27.2268 12.0723 27.1123C12.0722 27.0323 12.0721 26.9524 12.0719 26.8725C12.0717 26.7046 12.0716 26.5367 12.0716 26.3688C12.0716 26.1551 12.0711 25.9414 12.0704 25.7277C12.07 25.5623 12.0699 25.397 12.0699 25.2317C12.0699 25.153 12.0697 25.0743 12.0694 24.9956C12.065 23.7668 12.3128 22.768 13.1203 21.852C13.5494 21.4255 14.8169 20.5368 15.4229 20.9476ZM16.9469 21.5909C16.9992 21.729 17.0423 21.8361 17.1131 21.9594C17.1371 22.0033 17.1371 22.0033 17.1615 22.0482C17.1946 22.1083 17.2284 22.1681 17.2629 22.2273C17.4677 22.6101 17.3374 23.0334 17.2609 23.4442C17.253 23.4875 17.2452 23.5307 17.2371 23.5753C17.2039 23.7584 17.1701 23.9413 17.1365 24.1243C17.1118 24.2588 17.0874 24.3932 17.063 24.5277C17.0553 24.5689 17.0476 24.61 17.0397 24.6524C16.9799 24.9826 16.9686 25.2162 17.0903 25.5331C17.1009 25.5615 17.1114 25.5899 17.1223 25.6191C17.1558 25.7091 17.1898 25.7988 17.2239 25.8885C17.2468 25.9498 17.2697 26.011 17.2926 26.0723C17.3484 26.2218 17.4048 26.3712 17.4614 26.5204C17.4875 26.5204 17.5136 26.5204 17.5405 26.5204C17.6102 26.3457 17.6785 26.1704 17.7456 25.9946C17.7686 25.9351 17.7919 25.8757 17.8155 25.8165C17.8498 25.7306 17.8827 25.6442 17.9154 25.5576C17.926 25.5319 17.9366 25.5061 17.9475 25.4796C18.0905 25.0905 17.9698 24.6493 17.8941 24.2544C17.8823 24.191 17.8823 24.191 17.8703 24.1263C17.8455 23.993 17.8205 23.8598 17.7953 23.7267C17.77 23.5926 17.7448 23.4585 17.7199 23.3244C17.7045 23.2414 17.6888 23.1584 17.673 23.0755C17.5766 22.5571 17.5766 22.5571 17.7149 22.3057C17.7444 22.2509 17.7444 22.2509 17.7744 22.195C17.7952 22.1576 17.816 22.1203 17.8373 22.0818C17.8783 22.0068 17.9191 21.9317 17.9598 21.8566C17.978 21.8236 17.9963 21.7906 18.0151 21.7567C18.061 21.6775 18.061 21.6775 18.055 21.5909C17.6893 21.5909 17.3236 21.5909 16.9469 21.5909ZM19.9943 21.6327C19.9702 21.7001 19.9702 21.7001 19.9457 21.7688C19.5994 22.739 19.2513 23.7085 18.901 24.6771C18.8835 24.7253 18.8661 24.7736 18.8481 24.8233C18.6681 25.321 18.4876 25.8184 18.3056 26.3153C18.2915 26.354 18.2773 26.3927 18.2627 26.4326C18.1971 26.6117 18.1315 26.7907 18.0655 26.9697C18.0428 27.0317 18.0201 27.0937 17.9974 27.1557C17.987 27.1836 17.9767 27.2115 17.966 27.2402C17.9137 27.3776 17.9137 27.3776 17.8967 27.523C19.3333 27.523 20.77 27.523 22.2501 27.523C22.2526 26.7656 22.2526 26.7656 22.2551 25.993C22.2558 25.8347 22.2565 25.6765 22.2573 25.5134C22.2575 25.3691 22.2575 25.3691 22.2577 25.2247C22.2578 25.1614 22.2581 25.0981 22.2585 25.0349C22.2646 24.0341 22.0969 23.1546 21.424 22.4081C21.2292 22.2138 21.0185 22.0641 20.7858 21.9251C20.759 21.9084 20.7322 21.8917 20.7046 21.8745C20.5488 21.784 20.3945 21.7349 20.2217 21.6908C20.1791 21.6798 20.1364 21.6688 20.0925 21.6575C20.0601 21.6493 20.0277 21.6411 19.9943 21.6327ZM13.5037 22.51C13.4789 22.5346 13.4541 22.5593 13.4286 22.5847C12.7954 23.2712 12.7451 24.2157 12.7479 25.116C12.748 25.1778 12.748 25.2396 12.748 25.3014C12.7482 25.5284 12.7488 25.7555 12.7493 25.9825C12.7501 26.4909 12.7509 26.9992 12.7518 27.523C14.1884 27.523 15.625 27.523 17.1052 27.523C17.0332 27.2697 16.9624 27.0261 16.8714 26.7815C16.8605 26.7516 16.8495 26.7218 16.8383 26.691C16.8145 26.6263 16.7907 26.5616 16.7668 26.497C16.7003 26.3168 16.6343 26.1363 16.5683 25.9559C16.5471 25.8982 16.5471 25.8982 16.5255 25.8393C16.355 25.3735 16.1872 24.9065 16.0193 24.4395C15.9718 24.3074 15.9243 24.1754 15.8769 24.0434C15.8453 23.9556 15.8138 23.8679 15.7822 23.7802C15.6143 23.3131 15.4458 22.8463 15.2772 22.3794C15.2634 22.341 15.2495 22.3026 15.2352 22.263C15.1594 22.0529 15.0835 21.8428 15.0076 21.6327C14.434 21.6327 13.8858 22.115 13.5037 22.51Z" fill="white"/>
<path d="M17.4909 11.8029C17.5188 11.803 17.5467 11.8031 17.5754 11.8032C17.996 11.8056 18.3996 11.82 18.8068 11.9413C18.8384 11.9505 18.87 11.9597 18.9026 11.9692C20.3142 12.3935 21.4665 13.3184 22.2104 14.6567C22.6789 15.5497 22.9008 16.4804 22.8981 17.5C22.898 17.5302 22.898 17.5603 22.898 17.5914C22.8964 18.0904 22.8597 18.5628 22.7249 19.0431C22.7122 19.0888 22.7122 19.0888 22.6992 19.1355C22.5072 19.8028 22.2096 20.5478 21.7355 21.0483C21.6181 21.0884 21.5532 21.0947 21.4337 21.0587C21.2744 20.9702 21.2744 20.9702 21.221 20.8812C21.1951 20.6019 21.2435 20.4712 21.4016 20.2519C21.944 19.4444 22.187 18.5038 22.1857 17.5183C22.1857 17.4908 22.1856 17.4633 22.1856 17.435C22.1839 16.9651 22.1438 16.5268 22.0125 16.077C22.0043 16.0483 21.996 16.0197 21.9875 15.9901C21.6059 14.7148 20.7479 13.6798 19.6335 13.0595C18.5047 12.4638 17.2064 12.3842 16.0099 12.7854C15.2845 13.0463 14.6775 13.461 14.1368 14.03C14.1031 14.0646 14.0695 14.0992 14.0348 14.1348C13.1136 15.1347 12.8081 16.4626 12.8224 17.8151C12.8287 18.1428 12.8592 18.4355 12.9495 18.7506C12.9613 18.7941 12.9613 18.7941 12.9733 18.8385C13.1246 19.391 13.3325 19.8949 13.6619 20.3564C13.749 20.4829 13.7999 20.5721 13.8078 20.7297C13.7806 20.8812 13.7806 20.8812 13.7237 20.9856C13.5967 21.0641 13.5064 21.0879 13.3595 21.0793C13.0324 20.9706 12.8306 20.4391 12.6765 20.1346C12.069 18.8951 11.8992 17.2973 12.2767 15.9517C12.2848 15.9219 12.2928 15.8921 12.3011 15.8615C12.7031 14.4184 13.6458 13.2072 14.8888 12.4844C15.2364 12.2876 15.5898 12.1306 15.9672 12.0092C16.0135 11.9942 16.0135 11.9942 16.0606 11.979C16.5325 11.8354 17.0016 11.8 17.4909 11.8029Z" fill="white"/>
<path d="M19.304 15.0579C19.9233 15.5696 20.3219 16.2999 20.4288 17.124C20.5061 18.0271 20.3008 18.8816 19.7461 19.5861C19.2655 20.165 18.5734 20.5851 17.8379 20.6405C16.9674 20.6868 16.1658 20.4746 15.4997 19.8557C14.9293 19.269 14.5795 18.5064 14.553 17.6617C14.5437 16.7662 14.8277 15.9484 15.4239 15.3033C16.4736 14.2286 18.1401 14.1535 19.304 15.0579ZM15.7282 16.0378C15.3202 16.58 15.1978 17.1971 15.2443 17.8759C15.3391 18.573 15.7031 19.1268 16.2288 19.5443C16.7526 19.9062 17.3994 20.025 18.0123 19.8944C18.6471 19.7171 19.1586 19.2939 19.4935 18.6989C19.7869 18.1245 19.8529 17.4529 19.6778 16.8257C19.4421 16.1307 19.0182 15.6574 18.3906 15.3381C17.4336 14.9048 16.4083 15.2283 15.7282 16.0378Z" fill="white"/>
</g>
<defs>
<clipPath id="clip0_3419_74772">
<rect width="20.2632" height="21.3889" fill="white" transform="translate(7.36865 6.80469)"/>
</clipPath>
</defs>
</svg>
