<svg width="35" height="36" viewBox="0 0 35 36" fill="none" xmlns="http://www.w3.org/2000/svg">
<rect y="0.191406" width="35" height="35" rx="3" fill="#514FC8"/>
<g clip-path="url(#clip0_1510_57033)">
<path d="M25.9493 17.3004C26.156 17.4892 26.3287 17.6996 26.3675 17.9949C26.37 18.2861 26.3597 18.4863 26.1708 18.7049C25.9681 18.8899 25.7386 19.026 25.5052 19.1621C25.4312 19.2058 25.3572 19.2495 25.2833 19.2934C25.2455 19.3157 25.2077 19.3381 25.1688 19.3611C24.9882 19.4689 24.8093 19.5797 24.6305 19.6907C24.2129 19.9496 23.7939 20.2059 23.3746 20.4617C23.1793 20.5809 22.9841 20.7002 22.7888 20.8195C22.7108 20.8672 22.6329 20.9148 22.5549 20.9624C22.5164 20.986 22.4778 21.0096 22.438 21.0338C22.3211 21.1053 22.2041 21.1767 22.0872 21.2482C22.0486 21.2718 22.01 21.2954 21.9702 21.3197C21.8926 21.3671 21.8149 21.4145 21.7372 21.4619C21.5376 21.5838 21.3381 21.7061 21.1391 21.8291C19.7519 22.6852 18.6268 23.0188 17.0184 23.0278C16.8931 23.0286 16.7678 23.0301 16.6425 23.0317C16.5862 23.0317 16.5862 23.0317 16.5287 23.0317C16.0313 23.0387 15.5816 23.1801 15.2108 23.5414C15.0768 23.6924 14.97 23.8568 14.8668 24.032C14.852 24.0566 14.8372 24.0813 14.8219 24.1066C14.776 24.1853 14.776 24.1853 14.7296 24.3059C14.7478 24.3919 14.7478 24.3919 14.8015 24.4583C14.8264 24.509 14.8511 24.5598 14.8758 24.6107C14.888 24.6358 14.9003 24.661 14.913 24.6869C15.0053 24.9035 15.0201 25.1566 14.9571 25.3847C14.8596 25.6399 14.7377 25.8731 14.6037 26.1086C14.5832 26.1452 14.5628 26.1819 14.5417 26.2197C14.2792 26.6858 14.2792 26.6858 14.0797 26.8111C14.0435 26.8344 14.0435 26.8344 14.0065 26.8581C13.7905 26.9803 13.5278 26.9753 13.2904 26.9349C13.0843 26.8587 12.9025 26.747 12.7148 26.6301C12.6505 26.5909 12.5862 26.5517 12.5218 26.5125C12.3764 26.4235 12.2315 26.3335 12.0868 26.2431C11.8418 26.0902 11.5948 25.9409 11.3476 25.7919C10.9983 25.5811 10.6499 25.3687 10.3032 25.153C10.134 25.0478 9.96432 24.9436 9.79305 24.8421C9.72908 24.8042 9.66522 24.7661 9.60139 24.7279C9.52078 24.6798 9.43997 24.6321 9.35892 24.5849C9.09536 24.4271 8.76714 24.218 8.66424 23.8948C8.57288 23.383 8.69746 23.0596 8.93703 22.6294C8.96537 22.5765 8.99366 22.5235 9.02192 22.4706C9.04973 22.4194 9.07764 22.3684 9.10568 22.3174C9.12488 22.2825 9.12488 22.2825 9.14446 22.2468C9.29858 21.9767 9.49662 21.7777 9.77803 21.6673C9.96647 21.626 10.1542 21.6111 10.3402 21.6768C10.3497 21.65 10.3591 21.6231 10.3689 21.5955C10.415 21.4791 10.4694 21.3733 10.5287 21.2638C10.552 21.2206 10.5754 21.1773 10.5994 21.1328C10.6247 21.0863 10.65 21.0398 10.6752 20.9934C10.7013 20.9454 10.7273 20.8975 10.7533 20.8496C10.8061 20.7525 10.859 20.6556 10.9119 20.5586C10.9807 20.4327 11.049 20.3064 11.1173 20.1801C11.6115 19.2726 12.1972 18.4564 13.1836 18.136C13.8102 17.9601 14.4824 17.9663 15.1038 18.1662C15.5145 18.2958 15.9015 18.3125 16.3274 18.31C16.399 18.3103 16.4705 18.3107 16.5421 18.3112C16.7283 18.3123 16.9146 18.3123 17.1008 18.312C17.3999 18.3118 17.6989 18.313 17.998 18.3144C18.1016 18.3147 18.2052 18.3145 18.3087 18.3143C18.8031 18.3145 19.2548 18.317 19.6317 18.6977C19.7708 18.8531 19.9105 19.0149 19.9105 19.2383C19.9416 19.2218 19.9727 19.2053 20.0047 19.1883C20.3005 19.0313 20.5963 18.8744 20.8921 18.7175C21.0441 18.637 21.1961 18.5563 21.3481 18.4756C21.4952 18.3975 21.6424 18.3194 21.7897 18.2414C21.8453 18.2119 21.9009 18.1824 21.9566 18.1529C22.2696 17.9865 22.5838 17.8233 22.9015 17.6672C23.0478 17.5951 23.1921 17.5199 23.3354 17.4414C24.152 16.9951 25.1378 16.6475 25.9493 17.3004ZM23.6642 17.8302C23.6281 17.8486 23.592 17.867 23.5548 17.886C23.4799 17.9243 23.405 17.9626 23.3301 18.001C23.2279 18.0534 23.1255 18.1055 23.0231 18.1575C22.6456 18.3493 22.2692 18.5431 21.8935 18.7385C21.7065 18.8358 21.5192 18.9324 21.3313 19.0277C21.1471 19.1212 20.9636 19.2162 20.7805 19.3123C20.7113 19.3483 20.6418 19.3837 20.5721 19.4186C20.1933 19.5923 20.1933 19.5923 19.9113 19.8928C19.8712 20.012 19.8712 20.012 19.8553 20.1269C19.8129 20.3853 19.607 20.561 19.4183 20.7119C19.203 20.8421 19.0076 20.8938 18.7612 20.8909C18.7208 20.8911 18.7208 20.8911 18.6795 20.8913C18.5915 20.8916 18.5035 20.8911 18.4154 20.8905C18.3539 20.8905 18.2924 20.8905 18.2308 20.8906C18.1024 20.8906 17.974 20.8902 17.8456 20.8895C17.6809 20.8886 17.5161 20.8886 17.3513 20.8889C17.2245 20.889 17.0977 20.8887 16.9709 20.8884C16.9101 20.8882 16.8493 20.8882 16.7885 20.8882C16.7039 20.8882 16.6192 20.8878 16.5346 20.8871C16.5094 20.8872 16.4842 20.8873 16.4582 20.8874C16.2849 20.8854 16.2849 20.8854 16.2047 20.8005C16.185 20.6039 16.185 20.6039 16.2438 20.5083C16.3481 20.4314 16.4354 20.4434 16.5614 20.4435C16.5866 20.4434 16.6118 20.4432 16.6377 20.4431C16.6924 20.4428 16.747 20.4428 16.8017 20.4431C16.8884 20.4434 16.975 20.443 17.0617 20.4424C17.3082 20.4409 17.5547 20.4409 17.8012 20.4409C17.952 20.441 18.1028 20.4402 18.2536 20.4391C18.3387 20.4387 18.4237 20.4391 18.5088 20.4396C18.8182 20.4388 19.0544 20.4247 19.2997 20.2005C19.4556 19.994 19.535 19.8305 19.5282 19.5611C19.4949 19.3284 19.3908 19.1157 19.2134 18.9716C18.9977 18.8185 18.7567 18.8082 18.5063 18.81C18.4747 18.81 18.4431 18.8099 18.4106 18.8098C18.3423 18.8097 18.274 18.8097 18.2058 18.8099C18.097 18.8101 17.9883 18.8097 17.8796 18.8092C17.5705 18.8078 17.2615 18.8071 16.9524 18.8075C16.763 18.8077 16.5735 18.807 16.384 18.8058C16.3125 18.8055 16.2409 18.8055 16.1694 18.8059C15.7412 18.8083 15.3621 18.7686 14.9514 18.6363C14.2728 18.4184 13.5414 18.4645 12.9136 18.8121C12.7238 18.9225 12.5517 19.0458 12.391 19.2002C12.3677 19.2218 12.3443 19.2435 12.3203 19.2658C11.9025 19.6785 11.6418 20.2189 11.3702 20.7424C11.2245 21.0224 11.0699 21.2966 10.9127 21.5695C10.8941 21.6021 10.8756 21.6346 10.8565 21.6682C10.8402 21.6966 10.8238 21.7251 10.8069 21.7544C10.764 21.8324 10.764 21.8324 10.7719 21.9435C10.7925 21.9557 10.813 21.968 10.8342 21.9805C11.2689 22.2392 11.7017 22.5008 12.132 22.7675C12.3976 22.9321 12.664 23.0954 12.9307 23.2581C13.3754 23.5293 13.8188 23.8029 14.2619 24.0773C14.355 23.9845 14.4136 23.8873 14.4761 23.769C14.7705 23.2141 15.184 22.8093 15.7707 22.6318C16.0552 22.5597 16.3298 22.5473 16.6211 22.5451C16.7039 22.5441 16.7867 22.543 16.8695 22.5419C16.9985 22.5403 17.1275 22.5389 17.2564 22.5379C18.6962 22.5256 19.7173 22.1442 20.9491 21.3666C21.1401 21.2467 21.3326 21.1296 21.5251 21.0124C21.6037 20.9644 21.6823 20.9165 21.7609 20.8685C21.7999 20.8447 21.839 20.8209 21.8792 20.7963C22.0745 20.6771 22.2697 20.5578 22.465 20.4385C22.5429 20.3909 22.6209 20.3432 22.6989 20.2956C22.7374 20.272 22.776 20.2485 22.8158 20.2242C24.102 19.4383 24.102 19.4383 24.2191 19.3668C24.2965 19.3195 24.3738 19.2722 24.4511 19.2249C24.6335 19.1133 24.8161 19.002 24.9993 18.8918C25.0857 18.8398 25.1721 18.7876 25.2584 18.7353C25.3193 18.6986 25.3803 18.6621 25.4414 18.6257C25.4783 18.6033 25.5152 18.581 25.5533 18.558C25.602 18.5287 25.602 18.5287 25.6517 18.4988C25.7428 18.4355 25.8125 18.3738 25.883 18.2857C25.9155 18.1162 25.9165 18.0367 25.8284 17.8903C25.6455 17.6588 25.4451 17.5061 25.1634 17.4475C24.6049 17.3955 24.159 17.5756 23.6642 17.8302ZM9.69258 22.2865C9.58571 22.4462 9.49611 22.6125 9.40785 22.7844C9.37177 22.8523 9.33218 22.9182 9.29232 22.9838C9.16462 23.194 9.08869 23.3541 9.09402 23.6066C9.15263 23.8359 9.25933 23.9326 9.44664 24.0521C9.52384 24.0983 9.60135 24.144 9.67909 24.1892C9.7211 24.2141 9.76307 24.2391 9.80502 24.2642C9.89209 24.3162 9.9793 24.3679 10.0666 24.4194C10.267 24.538 10.4654 24.6603 10.664 24.7821C10.742 24.8298 10.8199 24.8774 10.8979 24.925C11.0538 25.0203 11.2097 25.1155 11.3656 25.2108C11.4042 25.2344 11.4429 25.258 11.4827 25.2823C11.5601 25.3297 11.6376 25.377 11.7151 25.4244C11.8958 25.5348 12.0765 25.6452 12.2573 25.7554C12.3208 25.7941 12.3844 25.8329 12.4479 25.8716C12.5272 25.92 12.6066 25.9684 12.686 26.0167C12.7403 26.0499 12.7403 26.0499 12.7957 26.0837C12.8479 26.1155 12.8479 26.1155 12.901 26.1478C12.9689 26.19 13.0361 26.2332 13.1028 26.2774C13.1341 26.2982 13.1654 26.3189 13.1977 26.3403C13.225 26.3589 13.2523 26.3774 13.2804 26.3965C13.4219 26.4709 13.5699 26.4797 13.7222 26.4396C13.9715 26.3195 14.0698 26.0769 14.1989 25.8323C14.2326 25.7703 14.2326 25.7703 14.2669 25.7071C14.4729 25.355 14.4729 25.355 14.5015 24.955C14.4326 24.7301 14.2462 24.5859 14.0566 24.4789C14.0308 24.465 14.0051 24.4512 13.9785 24.4368C13.9205 24.4041 13.8625 24.3713 13.8045 24.3383C13.7737 24.3209 13.7429 24.3035 13.7111 24.2855C13.5387 24.1861 13.3698 24.0802 13.2005 23.9749C13.1266 23.929 13.0527 23.8832 12.9787 23.8373C12.9413 23.8141 12.9038 23.7909 12.8653 23.767C12.6731 23.6482 12.4803 23.5305 12.2875 23.4129C12.2489 23.3893 12.2103 23.3657 12.1705 23.3414C12.0113 23.2443 11.8521 23.1471 11.6929 23.05C11.6112 23.0002 11.5295 22.9504 11.4478 22.9005C11.3683 22.852 11.2889 22.8036 11.2093 22.7553C11.0368 22.6502 10.865 22.5443 10.6953 22.434C10.6677 22.4161 10.64 22.3982 10.6115 22.3798C10.5618 22.3476 10.5124 22.315 10.4634 22.2819C10.2077 22.1166 9.9275 22.0611 9.69258 22.2865Z" fill="white"/>
<path d="M20.882 10.6292C21.3824 11.053 21.7329 11.5777 21.8399 12.258C21.9014 12.8732 21.8126 13.4422 21.4487 13.9406C21.3935 14.0093 21.3382 14.0778 21.283 14.1463C20.8546 14.7156 20.8659 15.4368 20.8663 16.1279C20.8656 16.6258 20.8323 16.9965 20.494 17.3742C20.1971 17.6547 19.8654 17.7367 19.4752 17.7306C19.1617 17.6983 18.8577 17.5541 18.6513 17.2971C18.4458 16.992 18.3534 16.7119 18.3524 16.335C18.3515 16.2742 18.3506 16.2134 18.3497 16.1527C18.3486 16.0585 18.3478 15.9644 18.3471 15.8703C18.3409 15.1519 18.2682 14.5695 17.8234 13.9982C17.3961 13.4471 17.337 12.8864 17.3921 12.1914C17.4714 11.5659 17.8396 11.0329 18.3028 10.6554C19.0586 10.1012 20.1193 10.0703 20.882 10.6292ZM18.2755 11.3558C17.9029 11.8456 17.8039 12.3778 17.8598 12.9915C17.9075 13.3001 18.0658 13.5038 18.2477 13.7384C18.5584 14.1439 18.691 14.5838 18.7952 15.0871C18.9852 15.0871 19.1752 15.0871 19.3709 15.0871C19.3716 15.0266 19.3723 14.966 19.3731 14.9036C19.3758 14.6792 19.379 14.4549 19.3823 14.2306C19.3837 14.1335 19.385 14.0363 19.3861 13.9391C19.3877 13.7996 19.3898 13.6601 19.392 13.5206C19.3924 13.477 19.3928 13.4335 19.3932 13.3886C19.394 13.3481 19.3947 13.3077 19.3954 13.2661C19.3959 13.2304 19.3964 13.1948 19.3969 13.1581C19.4069 13.0677 19.4069 13.0677 19.4788 12.9534C19.6048 12.9415 19.6048 12.9415 19.7307 12.9534C19.8233 13.0514 19.8123 13.0908 19.8141 13.2271C19.8148 13.2683 19.8155 13.3095 19.8163 13.3519C19.8167 13.3966 19.8171 13.4412 19.8175 13.4871C19.8182 13.5327 19.8189 13.5783 19.8197 13.6252C19.8218 13.7712 19.8235 13.9172 19.8251 14.0631C19.8265 14.1619 19.8279 14.2607 19.8293 14.3595C19.8328 14.602 19.8358 14.8446 19.8386 15.0871C20.0286 15.0871 20.2186 15.0871 20.4143 15.0871C20.4261 15.0356 20.4379 14.984 20.4501 14.9309C20.584 14.3764 20.7664 13.9903 21.1114 13.5511C21.2396 13.3867 21.3057 13.2368 21.3497 13.0296C21.3579 12.9919 21.366 12.9542 21.3745 12.9153C21.4232 12.4193 21.3391 11.9216 21.0507 11.5174C21.007 11.4621 20.9628 11.4073 20.918 11.3531C20.8996 11.3296 20.8812 11.3061 20.8622 11.2818C20.5865 10.9565 20.1883 10.7637 19.7816 10.7341C19.2026 10.7085 18.6778 10.8972 18.2755 11.3558ZM18.8312 15.5825C18.8312 15.7711 18.8312 15.9597 18.8312 16.154C19.3418 16.154 19.8523 16.154 20.3783 16.154C20.3783 15.9654 20.3783 15.7768 20.3783 15.5825C19.8678 15.5825 19.3572 15.5825 18.8312 15.5825ZM18.8672 16.6493C19.01 16.9518 19.1072 17.1138 19.4069 17.2209C19.6609 17.2554 19.8823 17.2336 20.0905 17.0684C20.2234 16.936 20.2975 16.8392 20.3423 16.6493C19.8555 16.6493 19.3687 16.6493 18.8672 16.6493Z" fill="white"/>
<path d="M16.9243 9.40865C17.0318 9.48483 17.1205 9.57904 17.2121 9.67537C17.2441 9.70832 17.2762 9.74128 17.3092 9.77524C17.6038 10.0819 17.6038 10.0819 17.6169 10.2445C17.6079 10.3612 17.6079 10.3612 17.5696 10.4326C17.4873 10.4833 17.4182 10.499 17.323 10.4971C17.1499 10.4472 17.0299 10.2839 16.9085 10.1516C16.8788 10.1215 16.849 10.0913 16.8184 10.0603C16.5815 9.80753 16.5815 9.80753 16.5745 9.6194C16.6162 9.40321 16.7333 9.3743 16.9243 9.40865Z" fill="white"/>
<path d="M22.8945 12.3262C22.9356 12.3264 22.9767 12.3265 23.019 12.3267C23.0618 12.3276 23.1045 12.3286 23.1486 12.3295C23.1914 12.3296 23.2341 12.3296 23.2782 12.3297C23.6445 12.3336 23.6445 12.3336 23.7602 12.42C23.7956 12.5548 23.817 12.6423 23.7571 12.7704C23.658 12.8694 23.5879 12.8583 23.4533 12.858C23.3839 12.8581 23.3839 12.8581 23.3132 12.8581C23.2891 12.8577 23.2651 12.8573 23.2403 12.8569C23.1668 12.8558 23.0935 12.8561 23.02 12.8566C22.6648 12.8542 22.6648 12.8542 22.5772 12.7879C22.513 12.6873 22.521 12.6142 22.537 12.4962C22.6451 12.3467 22.7198 12.3248 22.8945 12.3262Z" fill="white"/>
<path d="M16.0631 12.3232C16.1057 12.3231 16.1483 12.323 16.1922 12.3229C16.5526 12.3272 16.5526 12.3272 16.6725 12.4566C16.699 12.6812 16.699 12.6812 16.6318 12.7879C16.5336 12.8605 16.4563 12.8518 16.3375 12.8514C16.2929 12.8514 16.2482 12.8514 16.2023 12.8514C16.1323 12.8504 16.1323 12.8504 16.0609 12.8495C16.0142 12.8496 15.9676 12.8497 15.9195 12.8499C15.5716 12.8478 15.5716 12.8478 15.4492 12.7614C15.4133 12.6542 15.4133 12.6542 15.4133 12.5328C15.5679 12.2733 15.7974 12.3165 16.0631 12.3232Z" fill="white"/>
<path d="M19.6047 8.17188C19.7307 8.18854 19.7307 8.18854 19.7917 8.23171C19.8603 8.33571 19.852 8.41749 19.8517 8.54337C19.8516 8.59062 19.8516 8.63787 19.8516 8.68655C19.851 8.73596 19.8504 8.78537 19.8498 8.83628C19.85 8.88569 19.8501 8.9351 19.8502 8.98601C19.8482 9.35445 19.8482 9.35445 19.7666 9.48402C19.6654 9.52212 19.6654 9.52212 19.5508 9.52212C19.4568 9.45931 19.422 9.43244 19.3709 9.33161C19.3456 9.1653 19.3491 9.00194 19.3529 8.8339C19.3528 8.78879 19.3527 8.74367 19.3526 8.69719C19.3579 8.20455 19.3579 8.20455 19.6047 8.17188Z" fill="white"/>
<path d="M22.4289 9.38281C22.537 9.40856 22.537 9.40856 22.609 9.47048C22.6578 9.59326 22.6398 9.66136 22.609 9.78958C22.5199 9.9226 22.4081 10.0324 22.2987 10.1468C22.27 10.1785 22.2414 10.2102 22.2119 10.2428C21.9731 10.4957 21.9731 10.4957 21.8187 10.5C21.7095 10.4754 21.7095 10.4754 21.6398 10.4111C21.594 10.3055 21.5888 10.2479 21.6016 10.1325C21.6945 9.99318 21.8132 9.87835 21.9276 9.75862C21.9581 9.72496 21.9886 9.69129 22.02 9.6566C22.2747 9.38688 22.2747 9.38688 22.4289 9.38281Z" fill="white"/>
</g>
<defs>
<clipPath id="clip0_1510_57033">
<rect width="18.4211" height="19.5083" fill="white" transform="translate(8.28949 7.80859)"/>
</clipPath>
</defs>
</svg>
