<svg width="35" height="35" viewBox="0 0 35 35" fill="none" xmlns="http://www.w3.org/2000/svg">
<rect width="35" height="35" rx="3" fill="#FDAB3D"/>
<path d="M19.874 9.05693C18.5162 9.63701 17.3389 10.1655 17.2572 10.23C17.1756 10.2944 17.0853 10.4147 17.0553 10.4964C16.9865 10.6812 16.9736 13.8437 17.0381 14.5526C17.1713 16.0394 17.5494 17.221 18.224 18.2608C18.9717 19.4038 20.1318 20.4479 21.7518 21.419C22.4908 21.8616 22.4994 21.8616 23.2385 21.419C25.765 19.8979 27.1486 18.2608 27.6943 16.1339C27.9393 15.1628 27.9951 14.4796 27.9908 12.3612C27.9865 10.4706 27.9822 10.4233 27.733 10.23C27.5182 10.0667 22.667 7.9999 22.4865 7.9999C22.3963 7.9999 21.4424 8.38662 19.874 9.05693ZM24.5877 10.3288L26.6201 11.2011V12.619C26.6201 13.3968 26.5986 14.2476 26.5771 14.5097C26.358 16.8687 25.3869 18.3683 23.101 19.8808C22.7959 20.0827 22.5252 20.246 22.4994 20.246C22.4736 20.246 22.2545 20.1214 22.0182 19.9667C20.5486 19.0128 19.5518 17.9944 19.0361 16.9159C18.7096 16.237 18.499 15.4206 18.4131 14.5097C18.3916 14.2476 18.3701 13.3968 18.3701 12.619V11.2011L20.3811 10.3331C21.4853 9.86045 22.4264 9.46943 22.4736 9.46514C22.5209 9.46084 23.4748 9.85186 24.5877 10.3288Z" fill="white"/>
<path d="M24.2641 12.198C24.1652 12.2453 23.7656 12.7137 23.0051 13.659C22.3949 14.4238 21.8793 15.0469 21.8621 15.0469C21.8449 15.0469 21.6387 14.7547 21.4023 14.398C20.891 13.6246 20.7793 13.5215 20.4313 13.5215C20.0188 13.5215 19.7695 13.7707 19.7695 14.1875V14.4367L20.543 15.5883C21.368 16.8215 21.4754 16.9332 21.802 16.9375C22.1242 16.9375 22.1844 16.8773 23.7098 14.9695C24.5133 13.9684 25.1836 13.1004 25.2094 13.0445C25.4156 12.4945 24.7883 11.9316 24.2641 12.198Z" fill="white"/>
<path d="M6.95506 12.2066C6.64569 12.3098 6.40936 12.4859 6.25467 12.7223C5.97967 13.1348 5.99256 12.7266 6.00546 19.7777L6.01835 26.1973L6.13006 26.4379C6.27186 26.743 6.50389 26.975 6.80897 27.1168L7.0496 27.2285H16.9969H26.9441L27.1848 27.1168C27.4898 26.975 27.7219 26.743 27.8637 26.4379L27.9754 26.1973V23.5031C27.9754 20.852 27.9754 20.809 27.8851 20.693C27.7176 20.4652 27.5801 20.3965 27.3094 20.3965C27.0387 20.3965 26.9012 20.4652 26.7336 20.693C26.6433 20.809 26.6433 20.8605 26.6305 23.3441L26.6219 25.875H16.9969H7.37186V21.75V17.625L11.2734 17.6164L15.1793 17.6035L15.3383 17.4789C15.725 17.1867 15.7078 16.6625 15.3039 16.3617C15.1879 16.2715 15.1492 16.2715 11.2777 16.2586L7.37186 16.25V14.875V13.5L11.2734 13.4914L15.1793 13.4785L15.3383 13.3539C15.725 13.0617 15.7078 12.5375 15.3039 12.2367C15.1879 12.1465 15.1492 12.1465 11.1832 12.1379C7.41913 12.1293 7.16561 12.1336 6.95506 12.2066Z" fill="white"/>
<path d="M9.15485 20.4354C8.86266 20.5643 8.70368 20.8909 8.76813 21.2217C8.80681 21.4237 9.07321 21.6944 9.27087 21.7288C9.34821 21.7417 10.0916 21.7503 10.9209 21.7417L12.4291 21.7288L12.5881 21.6042C12.9748 21.312 12.9576 20.7878 12.5537 20.487C12.442 20.401 12.3775 20.3967 10.8607 20.3881C9.61462 20.3795 9.25798 20.3881 9.15485 20.4354Z" fill="white"/>
</svg>
