<svg width="35" height="35" viewBox="0 0 35 35" fill="none" xmlns="http://www.w3.org/2000/svg">
<rect width="35" height="35" rx="3" fill="#424C5B"/>
<path d="M10.2609 8.30417C10.0107 8.46003 10.0148 8.43132 9.99434 9.68229L9.97383 10.8348L9.27656 10.8553C8.50547 10.88 8.41523 10.9046 8.28809 11.1466C8.23887 11.2491 8.22656 11.3844 8.23887 11.8602C8.25117 12.4221 8.25527 12.455 8.35371 12.5575C8.54648 12.7626 8.62852 12.7831 9.33809 12.7831H9.99434L9.98613 14.6575L9.97383 16.536L9.25195 16.5565C8.46035 16.577 8.42344 16.5893 8.28809 16.8518C8.20605 17.0077 8.20605 17.9921 8.28809 18.1479C8.42344 18.4104 8.46035 18.4227 9.25195 18.4432L9.97383 18.4637L9.98613 20.3382L9.99434 22.2167H9.33809C8.62852 22.2167 8.54648 22.2372 8.35371 22.4423C8.25527 22.5448 8.25117 22.5776 8.23887 23.1395C8.22656 23.6153 8.23887 23.7507 8.28809 23.8532C8.41523 24.0952 8.50547 24.1198 9.27656 24.1444L9.97383 24.1649L9.99434 25.3175C10.0148 26.4003 10.0189 26.4782 10.0969 26.5643C10.2938 26.7817 9.94512 26.7694 16.3805 26.7694C21.6223 26.7694 22.4057 26.7612 22.7297 26.7038C24.7477 26.3551 26.3514 24.7473 26.7082 22.7171C26.7615 22.4053 26.7697 21.4579 26.7697 15.4983C26.7697 7.91862 26.7902 8.48054 26.5113 8.31237C26.3842 8.23034 26.2406 8.23034 18.382 8.23034C10.6957 8.23034 10.3799 8.23444 10.2609 8.30417ZM25.7361 14.0546L25.7443 18.8288L25.367 18.4473C24.6369 17.7132 23.792 17.2579 22.7953 17.061C22.3318 16.9667 21.3721 16.9708 20.9496 17.061C20.7814 17.0979 20.6379 17.1225 20.6297 17.1184C20.6256 17.1102 20.6912 17.0159 20.7814 16.9092C21.3844 16.1792 21.6469 15.1743 21.4623 14.276C20.9701 11.8438 18.0785 10.9005 16.2287 12.5657C15.8104 12.943 15.4412 13.587 15.31 14.1653C15.2238 14.5467 15.2238 15.203 15.31 15.5844C15.4412 16.1628 15.8104 16.8067 16.2287 17.1841L16.4379 17.3727L16.241 17.4589C15.6627 17.7132 14.8752 18.3735 14.424 18.9764C13.7391 19.8993 13.4643 20.8591 13.4889 22.2249C13.5012 22.9303 13.5053 22.9508 13.6037 23.0575C13.6611 23.119 13.7432 23.1887 13.7883 23.2133C13.8457 23.2462 14.3789 23.2708 15.5273 23.2831L17.1844 23.3036L17.2541 23.5087C17.4838 24.1731 17.898 24.8171 18.4477 25.3667L18.8291 25.744L14.9367 25.7358L11.0402 25.7235L11.0279 24.9319L11.0197 24.1444H11.2453C11.5119 24.1444 11.676 24.0706 11.7949 23.9024C11.8729 23.7958 11.8811 23.726 11.8811 23.1928C11.8811 22.6925 11.8688 22.5899 11.8031 22.4792C11.7047 22.3151 11.4873 22.2167 11.2289 22.2167H11.0197L11.0279 20.3382L11.0402 18.4637L11.3191 18.4432C11.5816 18.4227 11.6104 18.4104 11.7416 18.271L11.8811 18.1151V17.4999V16.8846L11.7416 16.7288C11.6104 16.5893 11.5816 16.577 11.3191 16.5565L11.0402 16.536L11.0279 14.6575L11.0197 12.7831H11.2289C11.4873 12.7831 11.7047 12.6846 11.8031 12.5206C11.8688 12.4098 11.8811 12.3073 11.8811 11.7946C11.8811 11.2491 11.8729 11.1835 11.7949 11.085C11.6678 10.9251 11.5037 10.8553 11.2453 10.8553H11.0197V10.0842C11.0197 9.65769 11.032 9.29675 11.0484 9.28444C11.0607 9.26804 14.3707 9.25983 18.3984 9.26394L25.7238 9.27624L25.7361 14.0546ZM18.8742 12.8446C19.592 13.0333 20.1908 13.6116 20.3918 14.313C20.4779 14.6165 20.4779 15.1333 20.3918 15.4368C20.1375 16.3227 19.2803 16.9667 18.3615 16.9667C17.816 16.9667 17.3361 16.7616 16.9219 16.3514C16.5896 16.0274 16.3805 15.6296 16.3025 15.1702C16.1344 14.1776 16.8398 13.1235 17.857 12.8446C18.1277 12.7708 18.583 12.7708 18.8742 12.8446ZM18.4189 18.4104C17.9842 18.8575 17.7381 19.1938 17.5043 19.6655C17.1598 20.3546 16.967 21.1421 16.967 21.8762V22.2167H15.7365H14.5061V22.1018C14.5061 21.7491 14.6045 21.0641 14.6947 20.7688C15.1377 19.3579 16.3559 18.3079 17.8283 18.0618C17.8857 18.0536 18.1236 18.0413 18.3574 18.0372L18.7881 18.0331L18.4189 18.4104ZM22.5533 18.0905C24.1365 18.3981 25.3629 19.6286 25.6664 21.2241C25.7361 21.6014 25.691 22.4874 25.5844 22.8729C25.2193 24.1526 24.1529 25.219 22.8732 25.5841C22.4877 25.6907 21.6018 25.7358 21.2244 25.6661C20.2975 25.4897 19.4607 24.9852 18.8701 24.251C17.693 22.7745 17.7709 20.6663 19.0629 19.2882C19.6617 18.6483 20.4533 18.2135 21.2613 18.0741C21.5854 18.0208 22.2293 18.029 22.5533 18.0905Z" fill="white"/>
<path d="M21.6139 18.8125C21.3596 18.9684 21.3555 18.9889 21.3555 20.5557C21.3555 22.0938 21.3596 22.1143 21.5852 22.2947C21.659 22.3521 21.7533 22.3809 21.8805 22.3809C22.0363 22.3809 22.0855 22.3604 22.2209 22.2209L22.3809 22.0609V20.568C22.3809 19.1119 22.3768 19.0668 22.2947 18.9602C22.1143 18.7305 21.8436 18.673 21.6139 18.8125Z" fill="white"/>
<path d="M21.5852 23.2053C21.4498 23.3119 21.3555 23.4883 21.3555 23.64C21.3555 23.8861 21.618 24.1445 21.8682 24.1445C22.1389 24.1445 22.3809 23.8943 22.3809 23.6113C22.3809 23.4637 22.3563 23.4145 22.2209 23.2791C22.0855 23.1396 22.0363 23.1191 21.8805 23.1191C21.7533 23.1191 21.659 23.1479 21.5852 23.2053Z" fill="white"/>
</svg>
