<svg width="35" height="35" viewBox="0 0 35 35" fill="none" xmlns="http://www.w3.org/2000/svg">
<rect width="35" height="35" rx="3" fill="#008450"/>
<g clip-path="url(#clip0_3419_74824)">
<path d="M27.064 17.2765C27.2979 17.4782 27.4935 17.7031 27.5375 18.0188C27.5402 18.33 27.5285 18.544 27.3147 18.7777C27.0853 18.9755 26.8255 19.121 26.5613 19.2664C26.4775 19.3131 26.3938 19.3599 26.3101 19.4067C26.2673 19.4306 26.2245 19.4545 26.1805 19.4792C25.9761 19.5944 25.7735 19.7128 25.5711 19.8315C25.0984 20.1082 24.6241 20.3822 24.1495 20.6556C23.9284 20.783 23.7073 20.9105 23.4863 21.0381C23.3981 21.089 23.3098 21.1399 23.2216 21.1908C23.1779 21.216 23.1342 21.2412 23.0892 21.2672C22.9569 21.3435 22.8245 21.4199 22.6921 21.4962C22.6484 21.5215 22.6047 21.5467 22.5597 21.5727C22.4718 21.6234 22.3839 21.6741 22.2959 21.7247C22.0699 21.855 21.8442 21.9857 21.6189 22.1172C20.0485 23.0323 18.7749 23.3889 16.9542 23.3985C16.8124 23.3994 16.6706 23.401 16.5287 23.4027C16.4649 23.4027 16.4649 23.4027 16.3999 23.4027C15.8369 23.4101 15.3278 23.5613 14.9081 23.9475C14.7563 24.1089 14.6355 24.2846 14.5186 24.4719C14.5018 24.4982 14.4851 24.5246 14.4678 24.5517C14.4159 24.6358 14.4159 24.6358 14.3633 24.7646C14.3839 24.8566 14.3839 24.8566 14.4448 24.9276C14.4729 24.9818 14.5009 25.0361 14.5288 25.0905C14.5427 25.1173 14.5566 25.1442 14.5709 25.1719C14.6754 25.4034 14.6922 25.674 14.6208 25.9178C14.5105 26.1906 14.3725 26.4398 14.2208 26.6916C14.1976 26.7308 14.1745 26.77 14.1506 26.8103C13.8534 27.3085 13.8534 27.3085 13.6277 27.4425C13.5866 27.4674 13.5866 27.4674 13.5448 27.4928C13.3002 27.6233 13.0029 27.618 12.7342 27.5749C12.5009 27.4934 12.2951 27.374 12.0826 27.249C12.0098 27.2071 11.937 27.1652 11.8641 27.1234C11.6995 27.0282 11.5355 26.932 11.3717 26.8354C11.0943 26.6719 10.8148 26.5123 10.5349 26.353C10.1395 26.1277 9.7451 25.9007 9.3527 25.6701C9.1611 25.5577 8.96905 25.4463 8.77517 25.3378C8.70276 25.2973 8.63048 25.2565 8.55822 25.2158C8.46697 25.1644 8.37549 25.1134 8.28374 25.0629C7.98539 24.8942 7.61385 24.6708 7.49737 24.3252C7.39394 23.7782 7.53497 23.4325 7.80617 22.9726C7.83824 22.9161 7.87027 22.8595 7.90226 22.8029C7.93373 22.7482 7.96534 22.6937 7.99708 22.6392C8.01881 22.6018 8.01881 22.6018 8.04098 22.5637C8.21544 22.275 8.43962 22.0622 8.75818 21.9443C8.97149 21.9001 9.18395 21.8842 9.39455 21.9544C9.40527 21.9257 9.41599 21.897 9.42703 21.8675C9.47923 21.7431 9.54081 21.63 9.60789 21.513C9.63432 21.4667 9.66074 21.4205 9.68797 21.3729C9.71657 21.3232 9.74519 21.2735 9.77382 21.2239C9.80329 21.1727 9.83275 21.1214 9.86222 21.0702C9.92194 20.9665 9.98178 20.8628 10.0417 20.7592C10.1196 20.6245 10.1969 20.4896 10.2742 20.3546C10.8336 19.3845 11.4967 18.5121 12.6133 18.1696C13.3226 17.9816 14.0835 17.9882 14.7869 18.2019C15.2518 18.3404 15.6899 18.3583 16.172 18.3556C16.2531 18.3559 16.3341 18.3564 16.4151 18.3569C16.6259 18.358 16.8367 18.3581 17.0475 18.3578C17.3861 18.3575 17.7246 18.3588 18.0631 18.3603C18.1804 18.3607 18.2976 18.3605 18.4149 18.3602C18.9745 18.3604 19.4858 18.3631 19.9125 18.77C20.0699 18.9362 20.2281 19.1091 20.2281 19.3479C20.2633 19.3302 20.2985 19.3126 20.3348 19.2944C20.6696 19.1266 21.0044 18.9589 21.3392 18.7912C21.5113 18.7051 21.6834 18.6189 21.8554 18.5327C22.022 18.4492 22.1887 18.3657 22.3553 18.2823C22.4183 18.2508 22.4813 18.2192 22.5442 18.1877C22.8986 18.0098 23.2542 17.8354 23.6139 17.6685C23.7795 17.5915 23.9428 17.511 24.105 17.4272C25.0295 16.9501 26.1454 16.5786 27.064 17.2765ZM24.4773 17.8427C24.4364 17.8624 24.3955 17.8821 24.3534 17.9024C24.2686 17.9433 24.1838 17.9843 24.0991 18.0253C23.9833 18.0813 23.8675 18.137 23.7515 18.1926C23.3243 18.3976 22.8981 18.6047 22.4728 18.8137C22.2611 18.9176 22.0491 19.0209 21.8365 19.1228C21.6279 19.2227 21.4202 19.3243 21.2129 19.4269C21.1346 19.4654 21.0559 19.5033 20.977 19.5407C20.5482 19.7262 20.5482 19.7262 20.229 20.0475C20.1836 20.1749 20.1836 20.1749 20.1656 20.2977C20.1176 20.5739 19.8845 20.7617 19.671 20.923C19.4272 21.0622 19.206 21.1174 18.9271 21.1143C18.8813 21.1145 18.8813 21.1145 18.8346 21.1148C18.735 21.1151 18.6353 21.1145 18.5357 21.1139C18.466 21.1139 18.3964 21.1139 18.3267 21.114C18.1814 21.114 18.036 21.1136 17.8907 21.1128C17.7041 21.1119 17.5176 21.1119 17.3311 21.1122C17.1876 21.1123 17.044 21.112 16.9005 21.1116C16.8317 21.1115 16.7629 21.1114 16.694 21.1115C16.5982 21.1115 16.5024 21.111 16.4066 21.1103C16.378 21.1104 16.3495 21.1105 16.3201 21.1106C16.1239 21.1085 16.1239 21.1085 16.0332 21.0177C16.0108 20.8076 16.0108 20.8076 16.0774 20.7054C16.1955 20.6232 16.2943 20.636 16.437 20.6361C16.4655 20.636 16.494 20.6358 16.5233 20.6357C16.5852 20.6354 16.647 20.6354 16.7089 20.6357C16.8071 20.636 16.9052 20.6356 17.0033 20.635C17.2823 20.6334 17.5613 20.6333 17.8403 20.6334C18.0111 20.6334 18.1818 20.6326 18.3525 20.6314C18.4488 20.631 18.5451 20.6314 18.6414 20.632C18.9916 20.6311 19.259 20.616 19.5367 20.3764C19.7131 20.1556 19.8031 19.9809 19.7954 19.6929C19.7576 19.4441 19.6398 19.2169 19.439 19.0628C19.1948 18.8992 18.922 18.8881 18.6385 18.8901C18.6028 18.89 18.567 18.8899 18.5302 18.8899C18.4529 18.8897 18.3756 18.8897 18.2983 18.8899C18.1752 18.8902 18.0522 18.8898 17.9291 18.8892C17.5793 18.8877 17.2294 18.887 16.8796 18.8874C16.6651 18.8877 16.4506 18.8869 16.2361 18.8856C16.1551 18.8852 16.0741 18.8853 15.9932 18.8857C15.5085 18.8882 15.0793 18.8458 14.6144 18.7043C13.8462 18.4715 13.0183 18.5208 12.3077 18.8923C12.0927 19.0103 11.898 19.1421 11.716 19.3071C11.6896 19.3303 11.6632 19.3534 11.636 19.3773C11.1631 19.8184 10.8679 20.3961 10.5605 20.9557C10.3956 21.255 10.2206 21.548 10.0426 21.8397C10.0216 21.8745 10.0006 21.9093 9.97905 21.9452C9.9605 21.9756 9.94195 22.006 9.92283 22.0374C9.87425 22.1207 9.87425 22.1207 9.88328 22.2395C9.90654 22.2526 9.92979 22.2656 9.95376 22.2791C10.4458 22.5555 10.9358 22.8351 11.4229 23.1203C11.7236 23.2963 12.025 23.4708 12.3269 23.6446C12.8304 23.9346 13.3324 24.227 13.8339 24.5203C13.9393 24.4212 14.0057 24.3173 14.0763 24.1908C14.4097 23.5976 14.8777 23.1649 15.5419 22.9752C15.8639 22.8981 16.1748 22.8849 16.5045 22.8826C16.5983 22.8814 16.692 22.8803 16.7857 22.8791C16.9317 22.8774 17.0777 22.8759 17.2237 22.8748C18.8535 22.8617 20.0094 22.454 21.4037 21.6228C21.62 21.4947 21.8379 21.3695 22.0558 21.2442C22.1448 21.193 22.2337 21.1417 22.3227 21.0904C22.3669 21.0649 22.4111 21.0395 22.4566 21.0133C22.6777 20.8859 22.8988 20.7583 23.1198 20.6308C23.208 20.5799 23.2963 20.529 23.3845 20.4781C23.4282 20.4529 23.4719 20.4277 23.5169 20.4017C24.9729 19.5617 24.9729 19.5617 25.1055 19.4852C25.193 19.4347 25.2805 19.3842 25.368 19.3336C25.5745 19.2142 25.7812 19.0953 25.9886 18.9775C26.0864 18.9219 26.1842 18.8661 26.2819 18.8103C26.3508 18.771 26.4199 18.732 26.489 18.693C26.5308 18.6692 26.5726 18.6453 26.6157 18.6207C26.6708 18.5894 26.6708 18.5894 26.7271 18.5575C26.8302 18.4898 26.9091 18.4238 26.9889 18.3297C27.0258 18.1485 27.0269 18.0635 26.9272 17.907C26.7201 17.6595 26.4932 17.4963 26.1744 17.4337C25.5422 17.3781 25.0374 17.5706 24.4773 17.8427ZM8.66145 22.6061C8.54047 22.7769 8.43904 22.9546 8.33913 23.1383C8.29829 23.211 8.25347 23.2813 8.20835 23.3514C8.06379 23.5761 7.97784 23.7473 7.98387 24.0172C8.05022 24.2623 8.171 24.3656 8.38304 24.4934C8.47043 24.5428 8.55817 24.5916 8.64617 24.6399C8.69372 24.6666 8.74124 24.6933 8.78872 24.7201C8.88729 24.7756 8.98601 24.8309 9.08483 24.886C9.31168 25.0128 9.53626 25.1435 9.76109 25.2737C9.84933 25.3247 9.93757 25.3756 10.0258 25.4265C10.2023 25.5283 10.3788 25.6301 10.5553 25.7319C10.599 25.7572 10.6428 25.7824 10.6878 25.8084C10.7755 25.859 10.8632 25.9096 10.9509 25.9602C11.1555 26.0782 11.36 26.1962 11.5647 26.314C11.6366 26.3554 11.7085 26.3969 11.7805 26.4383C11.8703 26.49 11.9601 26.5417 12.05 26.5934C12.1115 26.6289 12.1115 26.6289 12.1742 26.665C12.2332 26.6989 12.2332 26.6989 12.2934 26.7335C12.3702 26.7786 12.4463 26.8248 12.5218 26.872C12.5572 26.8942 12.5927 26.9164 12.6292 26.9393C12.6601 26.9591 12.691 26.979 12.7229 26.9994C12.8831 27.0788 13.0505 27.0882 13.2229 27.0454C13.5052 26.9171 13.6165 26.6577 13.7626 26.3963C13.8007 26.33 13.8007 26.33 13.8396 26.2624C14.0728 25.8861 14.0728 25.8861 14.1051 25.4585C14.0272 25.2181 13.8161 25.0639 13.6015 24.9496C13.5723 24.9348 13.5432 24.9199 13.5131 24.9046C13.4474 24.8697 13.3818 24.8345 13.3162 24.7993C13.2813 24.7807 13.2464 24.7621 13.2104 24.7429C13.0152 24.6366 12.824 24.5235 12.6324 24.4108C12.5487 24.3618 12.465 24.3128 12.3813 24.2638C12.339 24.239 12.2966 24.2142 12.2529 24.1887C12.0354 24.0617 11.8172 23.9359 11.5989 23.8101C11.5552 23.7849 11.5115 23.7597 11.4665 23.7337C11.2863 23.6299 11.106 23.5261 10.9258 23.4223C10.8333 23.369 10.7408 23.3157 10.6483 23.2624C10.5584 23.2106 10.4684 23.1589 10.3784 23.1072C10.1831 22.9949 9.98857 22.8817 9.79657 22.7637C9.76523 22.7446 9.73389 22.7256 9.7016 22.7059C9.64542 22.6715 9.58951 22.6366 9.53398 22.6012C9.24455 22.4245 8.92737 22.3652 8.66145 22.6061Z" fill="white"/>
<path d="M21.3286 10.1434C21.895 10.5964 22.2918 11.1573 22.413 11.8845C22.4825 12.5421 22.382 13.1502 21.9701 13.683C21.9076 13.7564 21.8451 13.8297 21.7825 13.9029C21.2976 14.5114 21.3103 15.2823 21.3108 16.0211C21.31 16.5533 21.2723 16.9495 20.8893 17.3531C20.5533 17.653 20.1778 17.7407 19.7361 17.7342C19.3812 17.6997 19.0371 17.5455 18.8035 17.2707C18.5708 16.9447 18.4663 16.6453 18.4651 16.2424C18.4641 16.1774 18.463 16.1124 18.462 16.0475C18.4608 15.9469 18.4598 15.8463 18.4591 15.7457C18.452 14.9777 18.3697 14.3552 17.8663 13.7446C17.3826 13.1554 17.3156 12.5562 17.378 11.8132C17.4678 11.1446 17.8847 10.575 18.4089 10.1714C19.2645 9.57906 20.4652 9.54597 21.3286 10.1434ZM18.3781 10.9201C17.9563 11.4436 17.8442 12.0125 17.9075 12.6685C17.9615 12.9983 18.1407 13.2161 18.3466 13.4669C18.6982 13.9003 18.8484 14.3705 18.9664 14.9085C19.1814 14.9085 19.3965 14.9085 19.618 14.9085C19.6188 14.8438 19.6196 14.779 19.6205 14.7123C19.6236 14.4725 19.6272 14.2328 19.631 13.993C19.6325 13.8891 19.6339 13.7853 19.6352 13.6814C19.6371 13.5323 19.6394 13.3832 19.6419 13.2341C19.6424 13.1875 19.6428 13.1409 19.6433 13.0929C19.6441 13.0497 19.6449 13.0065 19.6458 12.962C19.6463 12.9239 19.6469 12.8858 19.6474 12.8466C19.6588 12.75 19.6588 12.75 19.7402 12.6278C19.8828 12.615 19.8828 12.615 20.0253 12.6278C20.1301 12.7326 20.1177 12.7746 20.1197 12.9204C20.1206 12.9644 20.1214 13.0084 20.1222 13.0538C20.1227 13.1015 20.1231 13.1491 20.1236 13.1983C20.1244 13.247 20.1252 13.2957 20.126 13.3459C20.1285 13.5019 20.1303 13.6579 20.1322 13.814C20.1338 13.9196 20.1354 14.0251 20.137 14.1307C20.1409 14.39 20.1443 14.6493 20.1475 14.9085C20.3625 14.9085 20.5776 14.9085 20.7991 14.9085C20.8125 14.8534 20.8259 14.7983 20.8397 14.7415C20.9913 14.1488 21.1978 13.7361 21.5882 13.2667C21.7334 13.091 21.8083 12.9307 21.8581 12.7092C21.8673 12.6689 21.8765 12.6286 21.8861 12.587C21.9413 12.0569 21.8461 11.5249 21.5195 11.0928C21.4701 11.0337 21.4201 10.9751 21.3693 10.9172C21.3485 10.8921 21.3276 10.8669 21.3062 10.841C20.9941 10.4933 20.5433 10.2871 20.0829 10.2555C19.4275 10.2282 18.8334 10.4298 18.3781 10.9201ZM19.0071 15.438C19.0071 15.6396 19.0071 15.8412 19.0071 16.0489C19.585 16.0489 20.163 16.0489 20.7584 16.0489C20.7584 15.8473 20.7584 15.6457 20.7584 15.438C20.1805 15.438 19.6026 15.438 19.0071 15.438ZM19.0478 16.5784C19.2095 16.9017 19.3195 17.0749 19.6588 17.1893C19.9463 17.2262 20.1969 17.2029 20.4326 17.0264C20.583 16.8848 20.6669 16.7813 20.7177 16.5784C20.1666 16.5784 19.6156 16.5784 19.0478 16.5784Z" fill="white"/>
<path d="M16.8481 8.84308C16.9699 8.92451 17.0703 9.02521 17.174 9.12818C17.2102 9.16341 17.2465 9.19863 17.2839 9.23493C17.6173 9.56268 17.6173 9.56268 17.6321 9.73655C17.622 9.86128 17.622 9.86128 17.5787 9.93764C17.4855 9.99177 17.4073 10.0085 17.2995 10.0065C17.1035 9.95322 16.9678 9.77859 16.8303 9.63727C16.7966 9.60504 16.763 9.5728 16.7283 9.53959C16.4601 9.26945 16.4601 9.26945 16.4521 9.06836C16.4994 8.83727 16.6319 8.80637 16.8481 8.84308Z" fill="white"/>
<path d="M23.6073 11.963C23.6539 11.9631 23.7004 11.9633 23.7483 11.9634C23.7967 11.9644 23.8451 11.9654 23.895 11.9665C23.9434 11.9665 23.9918 11.9666 24.0417 11.9666C24.4564 11.9708 24.4564 11.9708 24.5874 12.0632C24.6274 12.2073 24.6516 12.3008 24.5838 12.4377C24.4716 12.5435 24.3922 12.5316 24.2399 12.5314C24.1614 12.5314 24.1614 12.5314 24.0813 12.5315C24.0541 12.5311 24.0268 12.5306 23.9988 12.5302C23.9156 12.529 23.8326 12.5294 23.7494 12.5299C23.3473 12.5273 23.3473 12.5273 23.2482 12.4565C23.1755 12.3489 23.1846 12.2707 23.2026 12.1446C23.325 11.9849 23.4096 11.9614 23.6073 11.963Z" fill="white"/>
<path d="M15.8733 11.9545C15.9216 11.9544 15.9698 11.9543 16.0195 11.9542C16.4275 11.9589 16.4275 11.9589 16.5632 12.0971C16.5932 12.3372 16.5932 12.3372 16.517 12.4513C16.4059 12.5289 16.3184 12.5195 16.1839 12.5192C16.1334 12.5191 16.0829 12.5191 16.0308 12.5191C15.9516 12.5181 15.9516 12.5181 15.8708 12.5171C15.818 12.5172 15.7652 12.5174 15.7107 12.5175C15.3169 12.5152 15.3169 12.5152 15.1784 12.4229C15.1377 12.3084 15.1377 12.3084 15.1377 12.1785C15.3128 11.9011 15.5725 11.9473 15.8733 11.9545Z" fill="white"/>
<path d="M19.8828 7.52344C20.0254 7.54126 20.0254 7.54126 20.0945 7.58739C20.1721 7.69856 20.1627 7.78598 20.1624 7.92053C20.1623 7.97104 20.1623 8.02154 20.1623 8.07358C20.1616 8.12639 20.161 8.17921 20.1603 8.23363C20.1604 8.28644 20.1606 8.33926 20.1607 8.39367C20.1584 8.7875 20.1584 8.7875 20.0661 8.926C19.9516 8.96672 19.9516 8.96672 19.8217 8.96672C19.7153 8.89958 19.676 8.87087 19.6181 8.76309C19.5895 8.58532 19.5934 8.4107 19.5977 8.23108C19.5976 8.18286 19.5975 8.13464 19.5974 8.08495C19.6034 7.55837 19.6034 7.55837 19.8828 7.52344Z" fill="white"/>
<path d="M23.0792 8.8125C23.2015 8.84002 23.2015 8.84002 23.283 8.90621C23.3382 9.03745 23.3179 9.11024 23.283 9.2473C23.1821 9.38948 23.0555 9.50682 22.9317 9.62912C22.8993 9.66298 22.8669 9.69685 22.8335 9.73174C22.5632 10.0021 22.5632 10.0021 22.3884 10.0066C22.2648 9.9804 22.2648 9.9804 22.1859 9.91167C22.134 9.79879 22.1281 9.73722 22.1426 9.61385C22.2478 9.46492 22.3822 9.34218 22.5117 9.21421C22.5462 9.17822 22.5807 9.14223 22.6163 9.10515C22.9046 8.81685 22.9046 8.81685 23.0792 8.8125Z" fill="white"/>
</g>
<defs>
<clipPath id="clip0_3419_74824">
<rect width="20.8526" height="20.8526" fill="white" transform="translate(7.07373 7.13086)"/>
</clipPath>
</defs>
</svg>
