<svg width="35" height="35" viewBox="0 0 35 35" fill="none" xmlns="http://www.w3.org/2000/svg">
<rect width="35" height="35" rx="3" fill="#3E456E"/>
<g clip-path="url(#clip0_3419_75085)">
<path d="M17.1478 6.87376C16.7362 6.95758 16.5265 7.11266 15.727 7.92157C15.2244 8.42871 14.9118 8.71371 14.8128 8.75143C14.6743 8.80592 14.5793 8.79754 13.7561 8.68018C13.2575 8.60474 12.7311 8.54187 12.5886 8.54187C11.995 8.53349 11.4567 8.83526 11.1243 9.35497C10.9264 9.6735 10.8829 9.82858 10.6929 10.9854C10.6058 11.5135 10.5069 11.9996 10.4752 12.0709C10.4 12.2176 10.2971 12.2888 9.48581 12.7373C8.38163 13.3492 8.19166 13.5085 7.96212 14.0156C7.83547 14.3006 7.79986 14.5018 7.7959 14.8832C7.7959 15.2353 7.85526 15.4113 8.34601 16.4759C8.66658 17.1758 8.76552 17.4273 8.76552 17.5572C8.76552 17.6871 8.66658 17.9386 8.34601 18.6386C7.85526 19.7031 7.7959 19.8792 7.7959 20.2312C7.79986 20.6126 7.83547 20.8138 7.96212 21.0988C8.19166 21.606 8.38163 21.7652 9.48581 22.3771C10.2971 22.8256 10.4 22.8969 10.4752 23.0435C10.5069 23.1148 10.6058 23.601 10.6929 24.1333C10.78 24.6614 10.8789 25.1811 10.9066 25.2859C11.1203 26.0403 11.7852 26.5642 12.5332 26.5726C12.6876 26.5768 13.2258 26.5139 13.7363 26.4384C14.5793 26.3169 14.6743 26.3085 14.8128 26.363C14.9118 26.4007 15.2244 26.6857 15.727 27.1929C16.3325 27.809 16.5383 27.9892 16.7362 28.0856C17.0726 28.2533 17.4288 28.3119 17.7613 28.2533C18.256 28.1652 18.438 28.0395 19.2731 27.1929C19.7757 26.6857 20.0884 26.4007 20.1873 26.363C20.3258 26.3085 20.4208 26.3169 21.244 26.4343C21.7427 26.5097 22.269 26.5726 22.4115 26.5726C23.0051 26.581 23.5434 26.2792 23.8758 25.7595C24.0737 25.4409 24.1172 25.2859 24.3072 24.1291C24.3943 23.601 24.4932 23.1148 24.5249 23.0435C24.6001 22.8927 24.6871 22.834 25.6172 22.3185C26.4958 21.8281 26.6897 21.6814 26.8995 21.3461C27.1092 21.0192 27.2002 20.709 27.2042 20.2983C27.2042 19.8708 27.1646 19.7492 26.6541 18.6386C26.3335 17.9386 26.2346 17.6871 26.2346 17.5572C26.2346 17.4273 26.3335 17.1758 26.6541 16.4759C27.1646 15.3652 27.2042 15.2437 27.2042 14.8162C27.2002 14.4054 27.1092 14.0953 26.8995 13.7683C26.6897 13.433 26.4958 13.2863 25.6172 12.796C24.6871 12.2805 24.6001 12.2218 24.5249 12.0709C24.4932 11.9996 24.3943 11.5135 24.3072 10.9854C24.1172 9.82858 24.0737 9.6735 23.8758 9.35497C23.5434 8.83526 23.0051 8.53349 22.4115 8.54187C22.269 8.54187 21.7427 8.60474 21.244 8.68018C20.4208 8.79754 20.3258 8.80592 20.1873 8.75143C20.0884 8.71371 19.7757 8.42871 19.2731 7.92157C18.6755 7.31803 18.4578 7.12523 18.2718 7.03303C17.8919 6.84442 17.5357 6.79412 17.1478 6.87376ZM17.7969 8.16466C17.8642 8.21076 18.2401 8.5754 18.6399 8.97776C19.4314 9.78667 19.6411 9.93336 20.1081 10.0088C20.3773 10.0549 20.4683 10.0465 21.6833 9.86211C22.1028 9.79924 22.4669 9.76152 22.5461 9.77828C22.7123 9.81181 22.8943 9.97108 22.9537 10.1262C22.9774 10.1932 23.0724 10.6878 23.1634 11.2285C23.3376 12.293 23.4009 12.5152 23.6186 12.8505C23.8125 13.1522 23.9946 13.2822 24.9642 13.827C25.4193 14.0869 25.823 14.3258 25.8665 14.3635C25.9655 14.4557 26.0486 14.6736 26.0486 14.8371C26.0486 14.9209 25.8784 15.3359 25.5934 15.9604C25.1225 16.9914 25.0592 17.1758 25.0592 17.5572C25.0592 17.9386 25.1225 18.123 25.5934 19.1541C25.8784 19.7786 26.0486 20.1935 26.0486 20.2773C26.0486 20.4408 25.9655 20.6587 25.8665 20.7509C25.823 20.7887 25.4193 21.0276 24.9642 21.2874C23.9946 21.8323 23.8125 21.9622 23.6186 22.264C23.4009 22.5993 23.3376 22.8214 23.1634 23.886C23.0724 24.4267 22.9774 24.9212 22.9537 24.9883C22.8943 25.1434 22.7123 25.3026 22.5461 25.3362C22.4669 25.3529 22.1028 25.3152 21.6833 25.2523C20.4683 25.0679 20.3773 25.0595 20.1081 25.1056C19.6411 25.1811 19.4314 25.3278 18.6399 26.1367C18.2401 26.539 17.8642 26.9037 17.7969 26.9498C17.6623 27.042 17.3694 27.0546 17.2349 26.9749C17.1874 26.9456 16.8273 26.5977 16.4315 26.1995C15.6637 25.4242 15.5054 25.2984 15.165 25.1727C14.8484 25.0595 14.4764 25.0721 13.4751 25.2272C12.9448 25.3068 12.5372 25.3529 12.4541 25.3362C12.2878 25.3026 12.1058 25.1434 12.0464 24.9883C12.0227 24.9212 11.9277 24.4267 11.8367 23.886C11.6625 22.8214 11.5992 22.5993 11.3815 22.264C11.1876 21.9622 11.0056 21.8323 10.0359 21.2874C9.5808 21.0276 9.17712 20.7887 9.13358 20.7509C9.03464 20.6587 8.95153 20.4408 8.95153 20.2773C8.95153 20.1935 9.12171 19.7786 9.40666 19.1541C9.87762 18.123 9.94094 17.9386 9.94094 17.5572C9.94094 17.1758 9.87762 16.9914 9.40666 15.9604C9.12171 15.3359 8.95153 14.9209 8.95153 14.8371C8.95153 14.6736 9.03464 14.4557 9.13358 14.3635C9.17712 14.3258 9.5808 14.0869 10.0359 13.827C11.0056 13.2822 11.1876 13.1522 11.3815 12.8505C11.5992 12.5152 11.6625 12.293 11.8367 11.2285C11.9277 10.6878 12.0227 10.1932 12.0464 10.1262C12.1058 9.97108 12.2878 9.81181 12.4541 9.77828C12.5332 9.76152 12.8973 9.79924 13.3168 9.86211C14.5318 10.0465 14.6228 10.0549 14.892 10.0088C15.359 9.93336 15.5687 9.78667 16.3602 8.97776C16.76 8.5754 17.1399 8.21076 17.2032 8.16466C17.2745 8.11856 17.3932 8.08503 17.5001 8.08503C17.6069 8.08503 17.7256 8.11856 17.7969 8.16466Z" fill="white"/>
<path d="M14.7103 12.0442C13.7288 12.2748 13.0283 13.201 13.0283 14.2572C13.0323 15.2589 13.6734 16.1475 14.6074 16.4409C14.8805 16.5247 15.395 16.5289 15.6918 16.445C16.4754 16.2313 17.1126 15.5104 17.267 14.6722C17.5519 13.1088 16.1786 11.6964 14.7103 12.0442ZM15.6641 13.3854C16.1865 13.7291 16.2855 14.4877 15.866 14.9488C15.4781 15.3763 14.8726 15.3847 14.4768 14.9739C14.2275 14.7099 14.1285 14.2069 14.2631 13.8674C14.4927 13.2932 15.1694 13.0627 15.6641 13.3854Z" fill="white"/>
<path d="M21.1222 12.9117C20.9995 12.9829 13.1911 21.2564 13.1238 21.3821C12.9932 21.642 13.1001 22.0066 13.3533 22.1701C13.4958 22.2623 13.7372 22.2791 13.8718 22.2078C13.9945 22.1408 21.8069 13.8756 21.8781 13.7373C22.0087 13.4775 21.9019 13.1128 21.6486 12.9494C21.5061 12.8572 21.2489 12.8404 21.1222 12.9117Z" fill="white"/>
<path d="M19.2928 18.6658C18.5211 18.8879 17.8879 19.6088 17.7335 20.4387C17.6385 20.9584 17.7612 21.6248 18.0304 22.0607C18.3707 22.6055 18.9406 22.9995 19.5303 23.0959C20.8007 23.3013 21.9761 22.2241 21.9722 20.8536C21.9682 19.8519 21.3271 18.9633 20.3931 18.67C20.1279 18.5861 19.5778 18.5861 19.2928 18.6658ZM20.2664 19.9441C20.5989 20.1201 20.8007 20.4722 20.7967 20.8662C20.7888 21.4697 20.3456 21.9014 19.7717 21.8637C18.9644 21.8092 18.5765 20.7781 19.1345 20.162C19.4353 19.8267 19.8904 19.7387 20.2664 19.9441Z" fill="white"/>
</g>
<defs>
<clipPath id="clip0_3419_75085">
<rect width="20.2632" height="21.4591" fill="white" transform="translate(7.36865 6.82812)"/>
</clipPath>
</defs>
</svg>
