<svg width="35" height="35" viewBox="0 0 35 35" fill="none" xmlns="http://www.w3.org/2000/svg">
<rect width="35" height="35" rx="3" fill="#3E456E"/>
<g clip-path="url(#clip0_3419_75106)">
<path d="M17.6561 9.08405C18.9427 9.7513 19.7845 11.0312 20.2423 12.3744C20.3152 12.6067 20.3783 12.8414 20.4376 13.0775C20.5128 12.8875 20.5729 12.7019 20.6207 12.5033C20.6938 12.2055 20.7602 11.9357 21.0236 11.7494C21.2232 11.6586 21.3986 11.6631 21.6095 11.7103C21.7107 11.7565 21.7972 11.8009 21.8903 11.8593C21.9279 11.8823 21.9279 11.8823 21.9662 11.9059C22.2201 12.0677 22.4353 12.2645 22.6481 12.4762C22.6971 12.5245 22.7474 12.5714 22.7979 12.6181C24.433 14.1575 25.0864 16.9228 25.1602 19.0811C25.2123 21.215 24.3985 23.289 22.9393 24.8384C22.5852 25.2091 22.2213 25.5517 21.8048 25.8509C21.7728 25.8745 21.7728 25.8745 21.7401 25.8985C20.809 26.5775 19.726 27.0238 18.6017 27.2572C18.5725 27.2636 18.5433 27.27 18.5132 27.2766C17.4714 27.4959 16.2753 27.4508 15.2423 27.2181C15.2105 27.2114 15.1787 27.2048 15.1458 27.1979C13.9406 26.941 12.7756 26.3427 11.8439 25.5384C11.7996 25.5005 11.7996 25.5005 11.7543 25.4619C11.6521 25.3721 11.5524 25.2801 11.4533 25.1869C11.4206 25.1562 11.4206 25.1562 11.3872 25.1248C9.95438 23.7679 8.96296 21.7719 8.87097 19.7842C8.86878 19.6899 8.8677 19.5957 8.86721 19.5015C8.86699 19.4666 8.86677 19.4318 8.86654 19.3959C8.86617 19.3224 8.86592 19.2488 8.86577 19.1753C8.86539 19.0657 8.86418 18.9562 8.86294 18.8467C8.85905 18.189 8.931 17.5455 9.09732 16.9081C9.10733 16.8693 9.11735 16.8304 9.12766 16.7904C9.57132 15.1247 10.4861 13.649 11.5314 12.2963C11.5612 12.2572 11.5909 12.2182 11.6216 12.178C11.9824 11.7135 11.9824 11.7135 12.2711 11.6713C12.4559 11.6621 12.5817 11.6908 12.7423 11.7884C12.9588 11.9965 13.0291 12.2475 13.1208 12.5282C13.136 12.5733 13.1512 12.6184 13.1669 12.6648C13.2389 12.8792 13.3079 13.0937 13.3673 13.3119C13.3931 13.3119 13.4189 13.3119 13.4455 13.3119C13.4524 13.26 13.4524 13.26 13.4595 13.2071C13.4835 13.0829 13.517 12.9923 13.573 12.8798C13.5914 12.8426 13.6099 12.8055 13.6288 12.7672C13.6489 12.7278 13.6689 12.6884 13.6896 12.6478C13.7104 12.6066 13.7311 12.5654 13.7525 12.5229C13.9165 12.2019 14.096 11.8921 14.2816 11.5832C14.7038 10.8786 14.9744 10.2332 15.0407 9.40604C15.0681 9.09941 15.1099 8.93923 15.3424 8.72937C15.9365 8.31807 17.0882 8.80188 17.6561 9.08405ZM16.297 9.99157C16.2927 10.0125 16.2885 10.0335 16.2841 10.0551C16.1 10.936 15.7478 11.6869 15.2896 12.4552C14.8212 13.2408 14.4511 13.9805 14.3483 14.903C14.3239 15.0993 14.276 15.2241 14.1486 15.3822C13.9801 15.5026 13.828 15.5139 13.6275 15.5188C13.3631 15.4695 13.1912 15.3025 13.0255 15.1039C13.0057 15.0804 12.9859 15.057 12.9655 15.0328C12.6383 14.6335 12.3699 14.1719 12.1564 13.7025C11.9937 13.8532 11.8765 14.0134 11.7585 14.2006C11.7398 14.2299 11.7212 14.2592 11.702 14.2894C11.6447 14.38 11.588 14.4709 11.5314 14.5619C11.5148 14.5883 11.4982 14.6147 11.4811 14.6419C10.3282 16.4876 9.8297 18.5877 10.311 20.7344C10.5222 21.61 10.8894 22.4609 11.4142 23.1947C11.4437 23.236 11.4732 23.2774 11.5036 23.32C12.5885 24.7993 14.1949 25.7589 16.003 26.0505C16.3354 26.0958 16.6653 26.1008 17.0001 26.1C17.0319 26.1 17.0636 26.0999 17.0963 26.0999C17.6121 26.0983 18.1011 26.0616 18.6017 25.9291C18.635 25.9205 18.6683 25.9119 18.7027 25.9031C19.1562 25.7838 19.5864 25.6264 20.008 25.4213C20.032 25.4097 20.0561 25.3981 20.0809 25.3862C20.6534 25.1078 21.1695 24.7436 21.6284 24.3031C21.7267 24.2103 21.7267 24.2103 21.8296 24.1282C21.971 24.0148 22.0801 23.8809 22.1955 23.7416C22.2278 23.7029 22.2601 23.6642 22.2934 23.6244C23.1845 22.5378 23.8298 21.1082 23.8454 19.6844C23.846 19.641 23.846 19.641 23.8466 19.5967C23.8635 17.9879 23.5331 16.4413 22.84 14.9843C22.8196 14.9413 22.7992 14.8984 22.7783 14.8542C22.5898 14.4698 22.363 14.1111 22.0905 13.7806C22.0629 13.7468 22.0354 13.713 22.007 13.6781C21.9203 13.5834 21.829 13.5064 21.7267 13.4291C21.7162 13.4552 21.7058 13.4813 21.695 13.5083C21.0042 15.201 21.0042 15.201 20.3285 15.5848C20.1578 15.6477 19.9906 15.6462 19.8126 15.6166C19.6115 15.516 19.493 15.3999 19.422 15.1869C19.4159 15.1234 19.4114 15.0598 19.408 14.9962C19.3129 13.451 18.9115 11.9562 17.8205 10.8119C17.797 10.7851 17.7736 10.7583 17.7495 10.7307C17.4172 10.3661 16.9331 10.0993 16.4533 9.99157C16.4017 9.99157 16.3501 9.99157 16.297 9.99157Z" fill="white"/>
<path d="M19.6564 16.9054C19.8203 16.9968 19.9298 17.1152 20.0275 17.274C20.0846 17.5667 20.0451 17.7497 19.8908 17.9991C19.8097 18.1006 19.7208 18.1925 19.6295 18.2848C19.5801 18.3361 19.5309 18.3875 19.4817 18.439C19.4579 18.4639 19.4341 18.4888 19.4096 18.5145C19.3228 18.6077 19.2426 18.7052 19.1632 18.8048C18.9957 19.0145 18.8148 19.2097 18.6319 19.406C18.4638 19.5864 18.3031 19.7728 18.1432 19.9605C18.1032 20.0074 18.0631 20.0543 18.0231 20.1012C18.0029 20.1248 17.9827 20.1485 17.9619 20.1729C17.8367 20.3191 17.709 20.4624 17.5788 20.6041C17.4549 20.739 17.3368 20.8763 17.2223 21.0191C17.0631 21.2167 16.8926 21.4008 16.7188 21.5854C16.5921 21.7206 16.4715 21.8582 16.3556 22.003C16.2195 22.1732 16.0752 22.3327 15.9259 22.4913C15.6892 22.7428 15.4693 23.004 15.2565 23.2762C15.1021 23.4675 14.9583 23.6057 14.7066 23.6375C14.5054 23.644 14.3446 23.6455 14.1876 23.5069C14.0147 23.3261 13.9379 23.1841 13.9426 22.928C13.9746 22.673 14.1252 22.5031 14.306 22.3334C14.3938 22.2462 14.4693 22.1533 14.5465 22.0567C14.6813 21.8891 14.8219 21.7301 14.9689 21.5733C15.1114 21.4212 15.2485 21.2673 15.379 21.1046C15.5486 20.8935 15.7308 20.6964 15.9152 20.4985C16.0834 20.3181 16.244 20.1316 16.404 19.944C16.444 19.8971 16.484 19.8502 16.5241 19.8033C16.5443 19.7796 16.5645 19.7559 16.5853 19.7316C16.7105 19.5854 16.8381 19.442 16.9684 19.3004C17.0923 19.1655 17.2103 19.0282 17.3248 18.8853C17.484 18.6878 17.6545 18.5037 17.8283 18.3192C17.9859 18.1509 18.1323 17.976 18.2765 17.796C18.4539 17.5822 18.6446 17.3799 18.8361 17.1788C18.8697 17.1432 18.9034 17.1077 18.938 17.0711C19.1491 16.8731 19.3755 16.8579 19.6564 16.9054Z" fill="white"/>
<path d="M19.5609 21.8104C19.787 21.9505 19.9468 22.1542 20.0283 22.4071C20.1077 22.7705 20.0107 23.0305 19.827 23.3412C19.6029 23.5536 19.3732 23.6371 19.0653 23.6464C18.7586 23.6337 18.5653 23.5649 18.3549 23.3412C18.169 23.1021 18.107 22.8643 18.1167 22.5622C18.1589 22.2733 18.3057 22.0542 18.5294 21.8727C18.8128 21.695 19.2535 21.6716 19.5609 21.8104Z" fill="white"/>
<path d="M15.3816 16.9669C15.6221 17.1153 15.7867 17.3398 15.8674 17.6089C15.9042 17.9496 15.8569 18.2254 15.6453 18.4976C15.4349 18.7213 15.2416 18.7901 14.9348 18.8028C14.6373 18.7929 14.4049 18.7266 14.1926 18.5112C13.9793 18.2441 13.9204 17.9854 13.9534 17.648C14.0107 17.3794 14.1575 17.1811 14.369 17.0103C14.6496 16.8365 15.0837 16.8342 15.3816 16.9669Z" fill="white"/>
</g>
<defs>
<clipPath id="clip0_3419_75106">
<rect width="20.2632" height="21.4591" fill="white" transform="translate(7.36865 6.82812)"/>
</clipPath>
</defs>
</svg>
