<svg width="35" height="35" viewBox="0 0 35 35" fill="none" xmlns="http://www.w3.org/2000/svg">
<rect width="35" height="35" rx="3" fill="#656462"/>
<path d="M8.24606 10.3742C7.98434 10.4914 7.99606 10.2102 8.00778 14.968L8.0195 19.2649L8.12888 19.3703L8.23434 19.4797L8.99997 19.4914C9.44528 19.4992 9.84763 19.4875 9.96091 19.4641C10.2461 19.4016 10.5468 19.2453 10.7656 19.05L10.9609 18.8742L11.7929 19.5032C12.2539 19.8508 12.8125 20.2883 13.039 20.4758C14.414 21.6164 16.4218 23.1438 16.7851 23.3235C17.5234 23.6985 18.2851 23.7649 18.7968 23.4992C18.9765 23.4094 19.0078 23.4055 19.1836 23.4485C19.7226 23.5774 20.3437 23.3039 20.6875 22.7883L20.7968 22.6164L21.1289 22.6086C21.664 22.5891 22.1367 22.3469 22.3945 21.9563C22.5039 21.7883 22.5234 21.7727 22.7187 21.7532C23.3672 21.6828 23.9218 21.1164 23.9687 20.4758L23.9843 20.2219L24.5 19.9407L25.0156 19.6555L25.2226 19.8547C25.3359 19.9641 25.5468 20.1086 25.6875 20.175L25.9492 20.3L26.8047 20.3117C27.7343 20.3274 27.8242 20.3117 27.9336 20.1282C27.9961 20.0227 28 19.6828 28 15.7492C28 11.8391 27.9961 11.4758 27.9336 11.3742C27.8593 11.2492 27.7343 11.1789 27.5781 11.1789C27.4453 11.1789 23.9765 12.4367 23.7578 12.5657C23.5156 12.7063 23.1718 13.1008 23.0898 13.3274C23.0508 13.4367 23.0078 13.5227 22.9922 13.5227C22.9765 13.5227 22.7031 13.4367 22.3867 13.3313C21.7148 13.1086 21.1093 12.8586 20.2851 12.4758C19.5078 12.1086 19.1718 12.0227 18.5664 12.0227C18.2422 12.0227 18.0117 12.0461 17.8242 12.093C17.4804 12.1828 16.9218 12.4407 16.5937 12.6711L16.3398 12.8469L15.8515 12.8742C15.582 12.8899 14.8633 12.9446 14.25 12.9953C13.6367 13.05 13.1172 13.093 13.0937 13.093C13.0703 13.093 13.039 12.9992 13.0273 12.8899C12.9765 12.4875 12.6679 12.0032 12.3086 11.7727C12.1484 11.6672 8.74606 10.4016 8.46872 10.343C8.41403 10.3313 8.31638 10.3469 8.24606 10.3742ZM10.3242 11.886C11.0976 12.1633 11.7929 12.4367 11.875 12.4875C12.0781 12.6203 12.2343 12.9563 12.2109 13.2024C12.1914 13.4094 10.4179 18.1672 10.2968 18.3352C10.2578 18.3977 10.1406 18.4914 10.039 18.55C9.86325 18.6555 9.832 18.6594 9.34763 18.6594H8.83981L8.82809 15.0149C8.82028 12.0969 8.82809 11.3742 8.87106 11.3742C8.89841 11.3742 9.55075 11.6047 10.3242 11.886ZM27.1797 15.8469V19.4992H26.7265C26.1718 19.4992 25.9961 19.4524 25.7929 19.2453C25.6445 19.0969 25.5742 18.9328 24.707 16.6164C24.0234 14.7961 23.7812 14.1047 23.7812 13.9797C23.7851 13.6438 24.0234 13.3274 24.3711 13.1946C25.1758 12.8938 27.0937 12.1985 27.1328 12.1985C27.1679 12.1946 27.1797 12.9485 27.1797 15.8469ZM18.8437 12.8625C19.207 12.9133 19.5742 13.0383 20.0742 13.2922C20.789 13.6477 22.1601 14.1711 22.8242 14.3391L22.9804 14.3782L23.8164 16.6047C24.2734 17.8313 24.6406 18.8508 24.6328 18.8782C24.625 18.9016 24.4023 19.0422 24.1406 19.1867L23.664 19.4485L22.9687 18.7571C22.4843 18.2727 21.832 17.6946 20.7734 16.8157C19.9453 16.1282 19.1172 15.4211 18.9297 15.2492C18.5156 14.8625 18.4765 14.8586 17.9804 15.0891C17.7734 15.1867 17.5195 15.2688 17.3281 15.3039C17.1562 15.3352 16.9961 15.3703 16.9687 15.386C16.9375 15.4055 16.8281 15.5149 16.7187 15.636C16.4765 15.8977 16.1367 16.0774 15.75 16.1438C15.5078 16.1867 15.4648 16.1828 15.3281 16.1203C15.1211 16.0227 15.0468 15.8469 15.1093 15.593C15.2148 15.1555 15.7656 14.4289 16.414 13.8742C17.1601 13.2336 17.6875 12.9485 18.2734 12.8625C18.3906 12.843 18.5 12.8274 18.5156 12.8235C18.5312 12.8235 18.6758 12.8391 18.8437 12.8625ZM15.0273 14.0969C14.4804 14.7727 14.2812 15.2141 14.2734 15.7492C14.2695 16.0383 14.2851 16.1086 14.3789 16.3039C14.7343 17.0305 15.6679 17.2024 16.6367 16.7219C16.8086 16.636 17.0468 16.4719 17.1718 16.3586C17.3593 16.1828 17.4375 16.1438 17.6679 16.0852C17.8203 16.0461 18.0195 15.9836 18.1133 15.9407C18.207 15.9016 18.3008 15.8664 18.3203 15.8664C18.3437 15.8664 18.5039 15.9914 18.6797 16.1438C18.8515 16.2961 19.6172 16.9407 20.375 17.5735C22.375 19.2375 23.1562 20.0305 23.1562 20.3782C23.1562 20.5578 23.0078 20.7532 22.7929 20.8625C22.6172 20.9485 22.6054 20.9485 22.5 20.886C22.4414 20.8508 21.8398 20.261 21.1601 19.5774C20.4843 18.8899 19.8789 18.3117 19.8164 18.2883C19.5703 18.1946 19.289 18.4055 19.289 18.6867C19.289 18.8313 19.3242 18.8782 19.832 19.4133C20.1328 19.7297 20.6836 20.2961 21.0625 20.6711C21.4414 21.0461 21.75 21.3742 21.75 21.4016C21.75 21.4953 21.5039 21.6867 21.3125 21.7453C20.9297 21.8586 20.9258 21.8508 19.7265 20.6477C19.1406 20.0578 18.6133 19.5578 18.5586 19.5344C18.3203 19.4446 18.039 19.6633 18.039 19.9367C18.039 20.1203 18.0664 20.1516 19.2265 21.3235L20.0859 22.1907L19.9804 22.3469C19.9218 22.4328 19.8281 22.5305 19.7695 22.5578C19.3593 22.7649 19.2851 22.718 18.0117 21.4328C16.9765 20.386 16.9414 20.3586 16.7929 20.3586C16.5039 20.3586 16.2929 20.6477 16.3945 20.9133C16.414 20.968 16.832 21.4211 17.3203 21.9172L18.207 22.8196H18.0117C17.7812 22.8196 17.4726 22.7336 17.1797 22.5852C16.8476 22.4172 15.4765 21.3782 13.7812 20.0071C13.2343 19.5617 12.4609 18.9563 12.0625 18.6594C11.664 18.3625 11.332 18.1164 11.3281 18.1086C11.3008 18.0891 12.8593 13.9719 12.8984 13.9446C12.9218 13.9289 13.0468 13.9133 13.1758 13.9094C13.3047 13.9094 13.7539 13.8782 14.1718 13.8391C14.5898 13.8 15.0156 13.7649 15.1211 13.761L15.3047 13.7571L15.0273 14.0969Z" fill="white"/>
</svg>
