<svg width="35" height="35" viewBox="0 0 35 35" fill="none" xmlns="http://www.w3.org/2000/svg">
<rect width="35" height="35" rx="3" fill="#4F5051"/>
<g clip-path="url(#clip0_3350_433229)">
<path d="M25.9479 17.2936C26.1546 17.4823 26.3273 17.6927 26.3661 17.9881C26.3686 18.2792 26.3583 18.4794 26.1694 18.698C25.9667 18.8831 25.7372 19.0192 25.5038 19.1552C25.4298 19.1989 25.3558 19.2427 25.2819 19.2865C25.2441 19.3089 25.2063 19.3312 25.1674 19.3543C24.9868 19.4621 24.8079 19.5729 24.6291 19.6839C24.2115 19.9428 23.7925 20.1991 23.3732 20.4549C23.1779 20.574 22.9826 20.6934 22.7874 20.8127C22.7094 20.8603 22.6315 20.9079 22.5535 20.9556C22.5149 20.9791 22.4764 21.0027 22.4366 21.027C22.3197 21.0985 22.2027 21.1699 22.0858 21.2413C22.0472 21.2649 22.0086 21.2885 21.9688 21.3128C21.8911 21.3603 21.8135 21.4077 21.7358 21.4551C21.5361 21.5769 21.3367 21.6992 21.1377 21.8222C19.7505 22.6784 18.6254 23.012 17.017 23.0209C16.8917 23.0218 16.7664 23.0233 16.6411 23.0248C16.5848 23.0249 16.5848 23.0249 16.5273 23.0249C16.0299 23.0318 15.5802 23.1732 15.2094 23.5346C15.0754 23.6856 14.9686 23.8499 14.8654 24.0252C14.8506 24.0498 14.8358 24.0744 14.8205 24.0998C14.7746 24.1785 14.7746 24.1785 14.7282 24.299C14.7464 24.3851 14.7464 24.3851 14.8001 24.4514C14.825 24.5022 14.8497 24.553 14.8743 24.6039C14.8866 24.629 14.8989 24.6541 14.9116 24.6801C15.0039 24.8966 15.0187 25.1498 14.9557 25.3779C14.8582 25.633 14.7363 25.8662 14.6023 26.1017C14.5818 26.1384 14.5614 26.1751 14.5403 26.2128C14.2778 26.6789 14.2778 26.6789 14.0783 26.8043C14.0421 26.8275 14.0421 26.8275 14.0051 26.8513C13.7891 26.9734 13.5264 26.9685 13.289 26.9281C13.0829 26.8519 12.9011 26.7402 12.7134 26.6233C12.6491 26.584 12.5848 26.5449 12.5204 26.5057C12.375 26.4166 12.2301 26.3267 12.0854 26.2363C11.8404 26.0834 11.5934 25.934 11.3462 25.785C10.9969 25.5743 10.6485 25.3618 10.3018 25.1461C10.1326 25.0409 9.96292 24.9367 9.79164 24.8352C9.72768 24.7973 9.66382 24.7592 9.59999 24.7211C9.51938 24.673 9.43857 24.6253 9.35752 24.5781C9.09395 24.4203 8.76574 24.2112 8.66284 23.8879C8.57147 23.3761 8.69606 23.0528 8.93563 22.6225C8.96396 22.5696 8.99226 22.5167 9.02052 22.4637C9.04832 22.4126 9.07624 22.3616 9.10428 22.3106C9.12347 22.2756 9.12347 22.2756 9.14306 22.24C9.29718 21.9699 9.49522 21.7708 9.77663 21.6605C9.96507 21.6192 10.1528 21.6043 10.3388 21.67C10.3483 21.6431 10.3577 21.6163 10.3675 21.5886C10.4136 21.4723 10.468 21.3664 10.5273 21.257C10.5506 21.2137 10.574 21.1705 10.598 21.1259C10.6233 21.0795 10.6486 21.033 10.6738 20.9865C10.6999 20.9386 10.7259 20.8907 10.7519 20.8427C10.8047 20.7457 10.8576 20.6487 10.9105 20.5518C10.9793 20.4258 11.0476 20.2996 11.1158 20.1733C11.6101 19.2657 12.1958 18.4495 13.1822 18.1292C13.8088 17.9532 14.481 17.9595 15.1024 18.1593C15.5131 18.2889 15.9001 18.3057 16.326 18.3032C16.3976 18.3035 16.4691 18.3039 16.5407 18.3044C16.7269 18.3054 16.9132 18.3055 17.0994 18.3052C17.3985 18.3049 17.6975 18.3061 17.9966 18.3076C18.1002 18.3079 18.2037 18.3077 18.3073 18.3074C18.8017 18.3076 19.2534 18.3102 19.6303 18.6909C19.7694 18.8463 19.9091 19.0081 19.9091 19.2314C19.9402 19.2149 19.9713 19.1984 20.0033 19.1814C20.2991 19.0244 20.5949 18.8675 20.8907 18.7107C21.0427 18.6301 21.1947 18.5495 21.3467 18.4688C21.4938 18.3907 21.641 18.3126 21.7883 18.2346C21.8439 18.2051 21.8995 18.1756 21.9552 18.146C22.2682 17.9797 22.5824 17.8165 22.9001 17.6604C23.0464 17.5883 23.1907 17.513 23.334 17.4346C24.1506 16.9883 25.1364 16.6407 25.9479 17.2936ZM23.6628 17.8233C23.6267 17.8418 23.5906 17.8602 23.5534 17.8792C23.4785 17.9175 23.4036 17.9558 23.3287 17.9942C23.2264 18.0465 23.1241 18.0987 23.0217 18.1507C22.6442 18.3425 22.2678 18.5362 21.8921 18.7317C21.705 18.8289 21.5178 18.9255 21.3299 19.0209C21.1457 19.1144 20.9622 19.2094 20.7791 19.3054C20.7099 19.3414 20.6404 19.3769 20.5707 19.4118C20.1919 19.5854 20.1919 19.5854 19.9099 19.8859C19.8698 20.0052 19.8698 20.0052 19.8539 20.12C19.8115 20.3784 19.6056 20.5542 19.4169 20.7051C19.2016 20.8353 19.0062 20.8869 18.7598 20.884C18.7194 20.8842 18.7194 20.8842 18.6781 20.8844C18.5901 20.8848 18.5021 20.8842 18.414 20.8837C18.3525 20.8837 18.291 20.8837 18.2294 20.8837C18.101 20.8837 17.9726 20.8833 17.8442 20.8827C17.6795 20.8818 17.5147 20.8818 17.3499 20.882C17.2231 20.8821 17.0963 20.8819 16.9695 20.8815C16.9087 20.8814 16.8479 20.8813 16.7871 20.8814C16.7025 20.8814 16.6178 20.8809 16.5332 20.8803C16.508 20.8804 16.4828 20.8805 16.4568 20.8806C16.2835 20.8786 16.2835 20.8786 16.2033 20.7936C16.1836 20.5971 16.1836 20.5971 16.2424 20.5015C16.3467 20.4246 16.434 20.4366 16.56 20.4367C16.5852 20.4365 16.6104 20.4364 16.6363 20.4362C16.691 20.436 16.7456 20.436 16.8003 20.4362C16.887 20.4366 16.9736 20.4362 17.0603 20.4356C17.3068 20.4341 17.5533 20.434 17.7998 20.4341C17.9506 20.4341 18.1014 20.4334 18.2522 20.4322C18.3373 20.4318 18.4223 20.4323 18.5074 20.4328C18.8168 20.4319 19.053 20.4179 19.2983 20.1937C19.4542 19.9871 19.5336 19.8237 19.5268 19.5543C19.4935 19.3215 19.3894 19.1089 19.212 18.9647C18.9963 18.8117 18.7553 18.8013 18.5049 18.8032C18.4733 18.8031 18.4417 18.803 18.4092 18.803C18.3409 18.8028 18.2726 18.8029 18.2043 18.803C18.0956 18.8032 17.9869 18.8029 17.8782 18.8024C17.5691 18.801 17.2601 18.8003 16.951 18.8007C16.7616 18.8009 16.5721 18.8002 16.3826 18.7989C16.3111 18.7986 16.2395 18.7987 16.168 18.7991C15.7398 18.8015 15.3607 18.7618 14.95 18.6294C14.2714 18.4115 13.54 18.4577 12.9122 18.8053C12.7224 18.9156 12.5503 19.0389 12.3896 19.1933C12.3662 19.215 12.3429 19.2367 12.3189 19.259C11.9011 19.6716 11.6404 20.2121 11.3688 20.7356C11.2231 21.0156 11.0685 21.2898 10.9112 21.5627C10.8927 21.5952 10.8742 21.6278 10.8551 21.6614C10.8388 21.6898 10.8224 21.7183 10.8055 21.7476C10.7626 21.8256 10.7626 21.8256 10.7705 21.9367C10.7911 21.9489 10.8116 21.9611 10.8328 21.9737C11.2675 22.2323 11.7003 22.4939 12.1306 22.7607C12.3962 22.9253 12.6626 23.0886 12.9293 23.2512C13.374 23.5225 13.8174 23.796 14.2605 24.0704C14.3536 23.9777 14.4122 23.8805 14.4747 23.7622C14.7691 23.2072 15.1826 22.8024 15.7693 22.6249C16.0538 22.5528 16.3284 22.5404 16.6197 22.5383C16.7025 22.5372 16.7853 22.5361 16.8681 22.535C16.9971 22.5335 17.1261 22.5321 17.255 22.531C18.6948 22.5187 19.7159 22.1374 20.9477 21.3597C21.1387 21.2399 21.3312 21.1228 21.5236 21.0056C21.6023 20.9576 21.6809 20.9096 21.7595 20.8617C21.7985 20.8378 21.8376 20.814 21.8778 20.7895C22.0731 20.6703 22.2683 20.551 22.4636 20.4317C22.5415 20.384 22.6195 20.3364 22.6975 20.2888C22.736 20.2652 22.7746 20.2416 22.8144 20.2173C24.1006 19.4315 24.1006 19.4315 24.2177 19.3599C24.2951 19.3127 24.3724 19.2654 24.4497 19.2181C24.6321 19.1064 24.8147 18.9951 24.9979 18.8849C25.0843 18.8329 25.1707 18.7807 25.257 18.7285C25.3179 18.6918 25.3789 18.6553 25.44 18.6188C25.4769 18.5965 25.5138 18.5741 25.5518 18.5511C25.6006 18.5219 25.6006 18.5219 25.6503 18.492C25.7414 18.4287 25.8111 18.3669 25.8816 18.2789C25.9141 18.1094 25.9151 18.0299 25.827 17.8834C25.6441 17.6519 25.4437 17.4992 25.162 17.4406C24.6035 17.3886 24.1576 17.5688 23.6628 17.8233ZM9.69118 22.2796C9.58431 22.4394 9.49471 22.6057 9.40644 22.7775C9.37037 22.8455 9.33077 22.9114 9.29092 22.9769C9.16322 23.1871 9.08729 23.3472 9.09261 23.5998C9.15122 23.829 9.25792 23.9257 9.44523 24.0453C9.52244 24.0915 9.59994 24.1372 9.67769 24.1823C9.71969 24.2073 9.76167 24.2323 9.80361 24.2574C9.89069 24.3093 9.97789 24.361 10.0652 24.4126C10.2656 24.5312 10.464 24.6534 10.6626 24.7753C10.7405 24.823 10.8185 24.8706 10.8965 24.9182C11.0524 25.0135 11.2083 25.1087 11.3642 25.204C11.4028 25.2276 11.4415 25.2512 11.4813 25.2755C11.5587 25.3228 11.6362 25.3702 11.7137 25.4175C11.8944 25.5279 12.0751 25.6383 12.2559 25.7485C12.3194 25.7873 12.383 25.826 12.4465 25.8648C12.5258 25.9132 12.6052 25.9616 12.6846 26.0099C12.7389 26.0431 12.7389 26.0431 12.7943 26.0769C12.8465 26.1086 12.8465 26.1086 12.8996 26.141C12.9675 26.1832 13.0347 26.2264 13.1014 26.2706C13.1327 26.2913 13.164 26.3121 13.1963 26.3335C13.2236 26.352 13.2509 26.3706 13.279 26.3897C13.4205 26.464 13.5685 26.4728 13.7208 26.4328C13.9701 26.3127 14.0684 26.0701 14.1975 25.8255C14.2312 25.7635 14.2312 25.7635 14.2655 25.7003C14.4715 25.3482 14.4715 25.3482 14.5001 24.9482C14.4312 24.7232 14.2448 24.579 14.0552 24.4721C14.0294 24.4582 14.0037 24.4443 13.9771 24.43C13.9191 24.3973 13.8611 24.3644 13.8031 24.3315C13.7723 24.3141 13.7415 24.2966 13.7097 24.2787C13.5373 24.1792 13.3684 24.0734 13.1991 23.968C13.1252 23.9222 13.0513 23.8763 12.9773 23.8305C12.9399 23.8073 12.9024 23.7841 12.8639 23.7602C12.6717 23.6414 12.4789 23.5237 12.2861 23.406C12.2475 23.3824 12.2089 23.3589 12.1691 23.3346C12.0099 23.2374 11.8507 23.1403 11.6915 23.0432C11.6097 22.9934 11.5281 22.9435 11.4464 22.8937C11.3669 22.8452 11.2874 22.7968 11.2079 22.7484C11.0354 22.6433 10.8636 22.5375 10.6939 22.4271C10.6663 22.4093 10.6386 22.3914 10.61 22.373C10.5604 22.3408 10.511 22.3082 10.462 22.275C10.2063 22.1097 9.92609 22.0543 9.69118 22.2796Z" fill="white"/>
<path d="M17.2675 10.4244C16.9548 10.4715 16.6568 10.5815 16.3109 10.7699C16.0497 10.9152 15.9099 11.0251 15.645 11.3078C15.163 11.8182 14.9165 12.3129 14.8024 12.9961C14.7325 13.428 14.7325 13.6243 14.8024 14.0562C15.0011 15.2733 15.8657 16.2588 17.01 16.5729C17.3595 16.6671 18.0218 16.6671 18.3713 16.5729C19.4456 16.2784 20.2698 15.3989 20.5457 14.2525C20.634 13.8795 20.634 13.1728 20.5457 12.7998C20.1631 11.2136 18.7503 10.1928 17.2675 10.4244ZM18.2756 10.9937C18.8827 11.1468 19.5487 11.7044 19.8356 12.2972C20.2146 13.0707 20.2109 13.9855 19.8356 14.755C19.648 15.1398 19.2028 15.6149 18.8422 15.8151C18.1174 16.2195 17.2638 16.2195 16.539 15.8151C16.1454 15.5953 15.7259 15.1359 15.5272 14.704C15.3028 14.2171 15.2513 13.9541 15.2697 13.4083C15.2844 13.0432 15.3065 12.9019 15.3911 12.6624C15.6744 11.8418 16.3367 11.19 17.0909 10.9976C17.3779 10.923 17.985 10.923 18.2756 10.9937Z" fill="white"/>
<path d="M17.9393 13.209L17.2733 13.9118L17.0305 13.6605C16.7619 13.3818 16.6516 13.3425 16.5191 13.4839C16.3719 13.6409 16.4161 13.743 16.8061 14.1592C17.0967 14.4693 17.1887 14.5439 17.2733 14.5439C17.3653 14.5439 17.5015 14.4144 18.1637 13.7077C18.9989 12.8164 19.0394 12.7575 18.8738 12.5808C18.7156 12.412 18.6457 12.4552 17.9393 13.209Z" fill="white"/>
</g>
<defs>
<clipPath id="clip0_3350_433229">
<rect width="18.4211" height="19.5083" fill="white" transform="translate(8.28906 7.80371)"/>
</clipPath>
</defs>
</svg>
