<svg width="35" height="35" viewBox="0 0 35 35" fill="none" xmlns="http://www.w3.org/2000/svg">
<rect width="35" height="35" rx="3" fill="#3E456E"/>
<g clip-path="url(#clip0_3419_74543)">
<path d="M13.6336 7.84963C12.9371 8.05567 12.4068 8.59391 12.1891 9.29615C12.1179 9.54004 12.106 9.70403 12.0862 10.6544L12.0704 11.7308L10.5585 11.7477C9.14171 11.7645 9.03485 11.7729 8.78948 11.857C8.28686 12.0336 7.82381 12.4499 7.59823 12.9251C7.36077 13.4213 7.36868 13.2825 7.36868 17.6641C7.36868 22.0962 7.36077 21.9574 7.61802 22.4788C7.77632 22.7942 8.14834 23.1895 8.43725 23.3451C8.86467 23.5721 9.03485 23.5974 10.2736 23.5974H11.4055V25.3929C11.4055 27.0244 11.4134 27.2052 11.4767 27.3398C11.5598 27.5206 11.7063 27.5837 11.8685 27.5122C11.9398 27.4828 12.6403 26.6964 13.6376 25.5317L15.2879 23.6016L18.2641 23.5847C21.1057 23.5721 21.2482 23.5679 21.4579 23.488C22.1584 23.2189 22.6333 22.7143 22.8193 22.0331C22.855 21.9027 22.8827 21.7303 22.8827 21.6504C22.8827 21.5663 22.8985 21.4906 22.9143 21.478C22.9341 21.4654 23.3101 21.8859 23.7573 22.4073C24.2006 22.9288 24.624 23.4081 24.6953 23.4754C24.8575 23.631 25.0277 23.6352 25.1583 23.4922L25.2573 23.3913V21.5159V19.6447H25.5857C26.5474 19.6447 27.3548 18.9719 27.5725 17.9963C27.6635 17.5884 27.6595 9.83018 27.5685 9.45594C27.3904 8.72006 26.9036 8.165 26.2269 7.92111L25.9498 7.8244L19.8946 7.80337C14.6231 7.78655 13.8117 7.79496 13.6336 7.84963ZM26.0527 8.60653C26.4643 8.75791 26.8284 9.19943 26.9195 9.65357C26.9472 9.80075 26.959 11.1506 26.9511 13.8628L26.9393 17.8575L26.8364 18.093C26.7018 18.3958 26.4564 18.6565 26.1715 18.7952C25.9736 18.8962 25.8905 18.9088 25.3681 18.9298C24.529 18.9592 24.6082 18.7742 24.5845 20.7127L24.5647 22.2854L23.7533 21.3351L22.942 20.3847L22.9222 16.9366C22.8985 13.5642 22.8985 13.4801 22.8154 13.2531C22.7719 13.1227 22.6927 12.9335 22.6452 12.8326C22.5186 12.5718 22.0753 12.1177 21.8141 11.9831C21.3313 11.7308 21.5054 11.7393 16.9581 11.7393H12.7907V10.688C12.7907 9.73767 12.7986 9.61993 12.8698 9.40968C13.0162 8.99759 13.3804 8.66119 13.8078 8.54345C13.9028 8.51822 16.1388 8.50981 19.9184 8.52243C25.1069 8.53925 25.8984 8.55186 26.0527 8.60653ZM21.2402 12.513C21.6439 12.6265 21.9843 12.9461 22.1268 13.354C22.2099 13.5937 22.2099 13.5979 22.2019 17.723L22.1901 21.8523L22.0911 22.0583C21.9605 22.3316 21.7429 22.5587 21.4896 22.6975C21.3036 22.8026 21.2205 22.8152 20.706 22.8447C20.3893 22.8615 18.9923 22.8783 17.5952 22.8783L15.0584 22.8825L14.9357 22.975C14.8684 23.0297 14.2035 23.7908 13.4555 24.6654L12.0981 26.2633L12.0783 24.6444C12.0664 23.7571 12.0506 23.0255 12.0466 23.0213C11.9477 22.9161 11.7775 22.9035 10.4556 22.8825L9.05068 22.8615L8.8251 22.7479C8.54806 22.6134 8.29873 22.3443 8.16417 22.0415L8.06127 21.8102V17.6893V13.5684L8.16417 13.3329C8.30665 13.0134 8.52036 12.7737 8.78552 12.6349C9.00319 12.5214 9.03485 12.5172 9.82243 12.4962C10.2696 12.4793 12.9767 12.4667 15.8381 12.4625C20.0846 12.4583 21.078 12.4667 21.2402 12.513Z" fill="white"/>
<path d="M10.6296 15.3545C10.4119 15.4471 10.3526 15.754 10.5148 15.9222L10.6098 16.0273H12.9369C14.7851 16.0231 15.2799 16.0147 15.3313 15.9685C15.4461 15.8802 15.4936 15.6951 15.4382 15.5564C15.3432 15.3083 15.3748 15.3125 12.9409 15.3167C11.714 15.3167 10.6731 15.3335 10.6296 15.3545Z" fill="white"/>
<path d="M10.6653 17.4874C10.5466 17.5126 10.416 17.6934 10.416 17.8406C10.416 17.9037 10.4595 18.013 10.511 18.0761L10.606 18.1938L15.0267 18.2064C18.0978 18.2148 19.4949 18.2022 19.6017 18.1728C19.7284 18.1349 19.7759 18.0971 19.8194 17.9794C19.8669 17.8574 19.8669 17.8154 19.8194 17.6934C19.7759 17.5799 19.7284 17.5378 19.6096 17.5042C19.4632 17.4579 10.8711 17.4453 10.6653 17.4874Z" fill="white"/>
<path d="M10.5149 19.7472C10.3883 19.8776 10.3883 20.0626 10.511 20.2182L10.6059 20.3359L15.0346 20.3485C18.1928 20.3569 19.5027 20.3485 19.6096 20.3149C19.7244 20.277 19.7758 20.235 19.8193 20.1257C19.8787 19.9659 19.8629 19.8776 19.7442 19.7346L19.665 19.6421H15.1375H10.6099L10.5149 19.7472Z" fill="white"/>
</g>
<defs>
<clipPath id="clip0_3419_74543">
<rect width="20.2632" height="21.4591" fill="white" transform="translate(7.36865 6.82812)"/>
</clipPath>
</defs>
</svg>
