<svg width="35" height="35" viewBox="0 0 35 35" fill="none" xmlns="http://www.w3.org/2000/svg">
<rect width="35" height="35" rx="3" fill="#784BD1"/>
<path d="M8.98937 9.43731C8.38234 9.58906 7.95167 10.0443 7.82042 10.6719C7.79171 10.8113 7.78351 13.0836 7.78761 17.624L7.79992 24.3711L7.89015 24.5926C8.07472 25.0396 8.36183 25.3309 8.8007 25.5072L9.03038 25.6016H17.5821H26.1339L26.4005 25.4744C26.7245 25.3227 26.9255 25.1504 27.0896 24.892C27.3603 24.4695 27.3439 24.9453 27.3439 17.501C27.3439 10.0566 27.3603 10.5324 27.0896 10.11C26.9255 9.85156 26.7245 9.6793 26.4005 9.52754L26.1339 9.40039L17.6642 9.39219C11.0237 9.38809 9.14933 9.39629 8.98937 9.43731ZM26.0601 10.0977C26.3103 10.1715 26.5769 10.4381 26.6425 10.676C26.6671 10.7662 26.6876 11.1354 26.6876 11.5004V12.1689H17.5616H8.43566V11.5209C8.43566 11.1682 8.45617 10.8113 8.47667 10.7293C8.56281 10.4299 8.77199 10.2043 9.0755 10.0977C9.3257 10.0074 25.7566 10.0074 26.0601 10.0977ZM26.6876 18.4936C26.6876 22.4721 26.6753 24.2152 26.6425 24.3301C26.5728 24.5844 26.261 24.8633 25.9862 24.9248C25.8222 24.9576 23.5991 24.9658 17.4386 24.9576C9.40363 24.9453 9.10831 24.9412 8.96886 24.8674C8.76788 24.7607 8.64484 24.6418 8.5464 24.4531L8.45617 24.2891L8.44386 18.6084C8.43976 15.483 8.44386 12.9031 8.45617 12.8785C8.46847 12.8375 10.306 12.8252 17.5821 12.8252H26.6876V18.4936Z" fill="white"/>
<path d="M9.80948 10.8227C9.6003 10.9334 9.55928 11.1877 9.71924 11.3395C9.79717 11.4133 9.8628 11.4297 10.072 11.4297C10.2853 11.4297 10.3427 11.4133 10.4247 11.3271C10.5601 11.1918 10.556 11.04 10.4083 10.8924C10.3058 10.7939 10.2565 10.7734 10.0884 10.7734C9.98174 10.7734 9.8546 10.798 9.80948 10.8227Z" fill="white"/>
<path d="M11.2247 10.8883C11.0729 11.04 11.0647 11.1918 11.2042 11.3271C11.2862 11.4133 11.3395 11.4297 11.5651 11.4297C11.7825 11.4297 11.8399 11.4133 11.9138 11.3354C12.0245 11.2164 12.0327 11.0195 11.9261 10.8924C11.8686 10.8186 11.7989 10.798 11.602 10.7816C11.3642 10.7652 11.3436 10.7693 11.2247 10.8883Z" fill="white"/>
<path d="M12.8243 10.8021C12.6028 10.8842 12.5412 11.1795 12.7135 11.3395C12.7873 11.4092 12.8612 11.4297 13.0375 11.4297C13.3287 11.4297 13.3862 11.4051 13.4641 11.2615C13.5912 11.0113 13.4026 10.7693 13.0745 10.7775C12.9719 10.7775 12.8571 10.7898 12.8243 10.8021Z" fill="white"/>
<path d="M18.1481 10.8965C18.0456 11.0031 18.0292 11.0441 18.0497 11.1549C18.062 11.2287 18.1153 11.3189 18.1604 11.3559C18.2425 11.4256 18.4804 11.4297 21.8642 11.4297H25.4858L25.572 11.3354C25.6827 11.2164 25.6868 11.0195 25.5843 10.8924L25.5063 10.7939L21.8888 10.7816L18.2753 10.7734L18.1481 10.8965Z" fill="white"/>
<path d="M14.1161 15.4288C13.9808 15.5642 13.9849 15.716 14.1325 15.8636C14.2679 15.999 14.4402 16.0195 14.6247 15.921C14.8134 15.8226 14.8503 15.6175 14.7068 15.4329C14.637 15.3427 14.5919 15.3263 14.4196 15.3263C14.2556 15.3263 14.1941 15.3468 14.1161 15.4288Z" fill="white"/>
<path d="M15.2483 15.3979C15.2032 15.4389 15.1499 15.5291 15.1376 15.6029C15.1171 15.7137 15.1335 15.7547 15.236 15.8613L15.3591 15.9844H18.0948C20.9864 15.9844 21.0151 15.9844 21.0849 15.7998C21.1382 15.6604 21.1095 15.5045 21.0151 15.4184L20.9208 15.3281H18.1276C15.5272 15.3281 15.3304 15.3322 15.2483 15.3979Z" fill="white"/>
<path d="M10.1377 16.5369L10.0352 16.6354V17.7592V18.883L10.1418 18.9815L10.2484 19.0799L17.4508 19.0922C21.4129 19.0963 24.7187 19.0922 24.7926 19.0799C24.8664 19.0676 24.9648 19.0184 25.01 18.9733C25.0838 18.8994 25.0879 18.8297 25.0879 17.7551C25.0879 16.6149 25.0879 16.6108 24.9936 16.5246L24.8992 16.4344H17.5656H10.2361L10.1377 16.5369ZM24.4316 17.7674V18.4442H17.5615H10.6914V17.7674V17.0906H17.5615H24.4316V17.7674Z" fill="white"/>
<path d="M15.2073 19.7441C14.9489 19.8343 14.6577 20.1378 14.5675 20.4085C14.5142 20.5767 14.5018 20.7202 14.5142 21.0607C14.5347 21.5734 14.5962 21.7333 14.8874 21.9999C15.2155 22.3034 15.2319 22.3034 17.5862 22.2911C19.5837 22.2788 19.6575 22.2747 19.838 22.1927C20.0554 22.0902 20.2645 21.8892 20.3835 21.6636C20.4491 21.5365 20.4737 21.4052 20.486 21.0853C20.5106 20.5193 20.4368 20.2691 20.1743 20.0066C19.838 19.6702 19.879 19.6743 17.4837 19.6784C15.6913 19.6784 15.3632 19.6908 15.2073 19.7441ZM19.6821 20.4495C19.8134 20.5644 19.8175 20.5849 19.8298 20.9171C19.8421 21.1755 19.8298 21.2945 19.7806 21.3888C19.6493 21.6472 19.6739 21.6431 17.5001 21.6431C15.3263 21.6431 15.3509 21.6472 15.2196 21.3888C15.1704 21.2945 15.1581 21.1755 15.1704 20.9171C15.1827 20.5849 15.1868 20.5644 15.3181 20.4495L15.4493 20.3306H17.5001H19.5509L19.6821 20.4495Z" fill="white"/>
</svg>
