<svg width="35" height="35" viewBox="0 0 35 35" fill="none" xmlns="http://www.w3.org/2000/svg">
<rect width="35" height="35" rx="3" fill="#333333"/>
<path d="M14.9288 7.57939C14.9719 7.57897 15.0149 7.57856 15.0593 7.57812C15.8091 7.57933 16.2541 7.94525 16.7669 8.45466C16.8081 8.49612 16.8494 8.53758 16.8919 8.5803C16.9369 8.62515 16.9819 8.67 17.0282 8.71622C17.1521 8.83965 17.2756 8.96338 17.3991 9.08716C17.5327 9.22101 17.6666 9.35457 17.8005 9.48817C18.0622 9.74943 18.3236 10.011 18.5849 10.2726C18.7973 10.4851 19.0097 10.6975 19.2221 10.9099C19.2524 10.9402 19.2827 10.9705 19.3139 11.0016C19.3754 11.0631 19.4369 11.1246 19.4985 11.1861C20.0745 11.7619 20.6503 12.3379 21.2259 12.9141C21.7201 13.4087 22.2145 13.903 22.7091 14.3972C23.2837 14.9713 23.8581 15.5455 24.4323 16.12C24.4935 16.1812 24.5547 16.2424 24.6158 16.3036C24.6459 16.3337 24.676 16.3638 24.707 16.3949C24.9194 16.6073 25.1318 16.8196 25.3443 17.0318C25.6029 17.2902 25.8614 17.5487 26.1196 17.8075C26.2514 17.9395 26.3833 18.0715 26.5154 18.2033C26.6584 18.3459 26.8009 18.4889 26.9435 18.6319C26.9856 18.6738 27.0277 18.7157 27.0711 18.7589C27.128 18.8161 27.128 18.8161 27.186 18.8746C27.219 18.9076 27.252 18.9405 27.2859 18.9745C27.4167 19.1264 27.4372 19.2982 27.4322 19.4953C27.342 19.928 26.6616 20.4041 26.3546 20.7106C26.282 20.7832 26.2095 20.8558 26.137 20.9284C25.9409 21.1247 25.7446 21.3209 25.5484 21.517C25.3429 21.7224 25.1375 21.9279 24.9321 22.1334C24.5875 22.478 24.2428 22.8226 23.8981 23.1671C23.4992 23.5657 23.1005 23.9646 22.7018 24.3635C22.3595 24.7061 22.017 25.0485 21.6745 25.3909C21.4699 25.5954 21.2654 25.7999 21.0609 26.0046C20.869 26.1966 20.677 26.3885 20.4849 26.5804C20.4143 26.6509 20.3437 26.7215 20.2731 26.7922C20.1772 26.8883 20.0811 26.9842 19.9849 27.0801C19.9568 27.1084 19.9286 27.1366 19.8996 27.1658C19.6965 27.3679 19.6059 27.4164 19.3179 27.4329C18.9697 27.3674 18.703 27.0192 18.4655 26.7807C18.4208 26.7361 18.376 26.6916 18.3299 26.6456C18.2062 26.5224 18.0827 26.3988 17.9592 26.2751C17.8259 26.1417 17.6923 26.0085 17.5587 25.8753C17.2972 25.6144 17.036 25.3533 16.7749 25.0921C16.5626 24.8797 16.3502 24.6674 16.1378 24.4552C16.1076 24.425 16.0773 24.3948 16.0462 24.3636C15.9847 24.3022 15.9233 24.2409 15.8618 24.1795C15.2857 23.6039 14.7099 23.028 14.1342 22.452C13.6078 21.9253 13.0809 21.3989 12.5538 20.8728C12.0124 20.3324 11.4713 19.7916 10.9304 19.2506C10.6269 18.947 10.3232 18.6434 10.0193 18.3402C9.76052 18.082 9.50203 17.8236 9.24385 17.5648C9.11219 17.4328 8.9804 17.301 8.8483 17.1695C8.70495 17.0268 8.56218 16.8835 8.41946 16.7401C8.37781 16.6989 8.33617 16.6576 8.29326 16.615C7.83445 16.152 7.56776 15.6948 7.57033 15.0296C7.57134 14.9855 7.57234 14.9414 7.57338 14.896C7.57394 14.8478 7.57451 14.7997 7.57509 14.7502C7.58476 14.1246 7.61496 13.4996 7.64515 12.8748C7.6498 12.7769 7.65444 12.6789 7.65908 12.5809C7.67356 12.2751 7.68836 11.9693 7.70334 11.6635C7.71872 11.3493 7.7334 11.0351 7.74777 10.7208C7.76024 10.4488 7.77322 10.1768 7.78659 9.90479C7.79452 9.74325 7.80218 9.58171 7.80944 9.42013C7.81756 9.2409 7.82651 9.06172 7.83566 8.88254C7.83788 8.82965 7.84009 8.77677 7.84237 8.72228C7.86865 8.24029 7.86865 8.24029 8.02567 8.0273C8.28261 7.83736 8.57855 7.85003 8.88617 7.83729C8.97152 7.83297 8.97152 7.83297 9.05858 7.82856C9.24679 7.81921 9.43502 7.8108 9.62327 7.80242C9.75493 7.79618 9.88659 7.78975 10.0182 7.78334C10.2947 7.76998 10.5712 7.75712 10.8477 7.74459C11.1645 7.73023 11.4813 7.71526 11.7981 7.6999C12.1381 7.68341 12.4782 7.66732 12.8183 7.65138C12.9148 7.64684 13.0112 7.64223 13.1076 7.63762C13.7146 7.60884 14.3212 7.58265 14.9288 7.57939ZM14.5379 8.66639C14.4065 8.67117 14.2753 8.67727 14.144 8.6837C14.0948 8.686 14.0457 8.6883 13.9951 8.69068C13.8343 8.69824 13.6736 8.70599 13.5129 8.71375C13.4001 8.71912 13.2874 8.72447 13.1746 8.72982C12.9389 8.74103 12.7032 8.75232 12.4675 8.76369C12.1667 8.77818 11.8659 8.79247 11.5651 8.8067C11.3323 8.81772 11.0996 8.82884 10.8669 8.84C10.7561 8.84531 10.6452 8.85058 10.5344 8.85583C9.74298 8.89196 9.74298 8.89196 8.95341 8.95503C8.87969 10.1065 8.81933 11.2583 8.76494 12.4108C8.75404 12.6415 8.74294 12.8722 8.73177 13.103C8.72305 13.2838 8.71445 13.4646 8.70589 13.6454C8.70184 13.7305 8.69775 13.8157 8.69362 13.9008C8.68439 14.0916 8.67557 14.2824 8.66811 14.4733C8.66344 14.5918 8.65799 14.7104 8.65117 14.8288C8.64939 14.8747 8.64761 14.9206 8.64577 14.9679C8.64386 15.0051 8.64195 15.0424 8.63998 15.0808C8.70789 15.4933 8.99305 15.7605 9.27778 16.0412C9.32082 16.0844 9.36386 16.1276 9.4082 16.1721C9.52701 16.2913 9.64643 16.41 9.76595 16.5285C9.89498 16.6567 10.0234 16.7855 10.152 16.9141C10.3745 17.1368 10.5974 17.3591 10.8206 17.5812C11.1432 17.9022 11.4653 18.2238 11.7873 18.5455C12.3097 19.0675 12.8326 19.5891 13.3557 20.1104C13.8638 20.6167 14.3717 21.1231 14.8793 21.6299C14.9106 21.6612 14.9419 21.6924 14.9741 21.7246C15.1312 21.8814 15.2883 22.0382 15.4453 22.195C16.7475 23.4952 18.0504 24.7947 19.3538 26.0937C19.5713 25.9114 19.7795 25.7239 19.9795 25.5227C20.0059 25.4963 20.0324 25.4699 20.0596 25.4428C20.147 25.3554 20.2343 25.2678 20.3216 25.1803C20.3846 25.1172 20.4477 25.0542 20.5108 24.9911C20.6813 24.8206 20.8516 24.65 21.0219 24.4794C21.2002 24.3008 21.3786 24.1224 21.557 23.9439C21.8944 23.6063 22.2318 23.2685 22.5691 22.9308C22.9532 22.5461 23.3375 22.1615 23.7218 21.7769C24.5121 20.9862 25.3021 20.1953 26.0921 19.4043C25.8663 19.1334 25.6262 18.8823 25.3769 18.6331C25.335 18.591 25.2931 18.5489 25.25 18.5056C25.1345 18.3897 25.0189 18.2738 24.9032 18.158C24.7782 18.0328 24.6533 17.9075 24.5285 17.7822C24.2274 17.4802 23.9261 17.1784 23.6248 16.8767C23.4828 16.7344 23.3408 16.5921 23.1988 16.4499C22.7266 15.9769 22.2543 15.5039 21.7819 15.0311C21.6596 14.9087 21.5372 14.7862 21.4148 14.6638C21.3692 14.6181 21.3692 14.6181 21.3227 14.5715C20.8294 14.0779 20.3365 13.5838 19.8438 13.0895C19.3376 12.5816 18.831 12.0742 18.3241 11.5671C18.0396 11.2825 17.7553 10.9977 17.4714 10.7126C17.2298 10.4699 16.9878 10.2276 16.7455 9.98571C16.6219 9.86232 16.4984 9.73878 16.3754 9.61481C16.242 9.48039 16.1078 9.34673 15.9736 9.21314C15.9156 9.15428 15.9156 9.15428 15.8563 9.09424C15.6152 8.85587 15.4186 8.68653 15.0709 8.647C15.0297 8.6485 14.9886 8.65 14.9461 8.65155C14.8999 8.65289 14.8537 8.65422 14.8061 8.65559C14.7167 8.65973 14.6273 8.66338 14.5379 8.66639Z" fill="white"/>
<path d="M14.55 18.3228C14.5885 18.3227 14.6271 18.3225 14.6669 18.3224C14.7969 18.322 14.927 18.3219 15.057 18.3218C15.1499 18.3216 15.2429 18.3213 15.3358 18.3211C15.5889 18.3204 15.8419 18.3201 16.0949 18.3199C16.2529 18.3198 16.4109 18.3196 16.5688 18.3193C17.0628 18.3187 17.5568 18.3182 18.0507 18.318C18.6215 18.3178 19.1923 18.3169 19.763 18.3155C20.2038 18.3145 20.6446 18.314 21.0854 18.3139C21.3489 18.3139 21.6123 18.3136 21.8758 18.3127C22.1236 18.3119 22.3714 18.3118 22.6192 18.3122C22.7102 18.3123 22.8012 18.312 22.8921 18.3116C23.0163 18.3109 23.1404 18.3112 23.2646 18.3117C23.3187 18.3111 23.3187 18.3111 23.3739 18.3105C23.5894 18.3126 23.726 18.3431 23.897 18.4762C24.0115 18.6441 24.044 18.7391 24.0405 18.9431C23.9907 19.1255 23.9302 19.2203 23.7994 19.3551C23.6501 19.4297 23.4942 19.4113 23.3305 19.4114C23.2723 19.4117 23.2723 19.4117 23.213 19.4121C23.0824 19.4127 22.9518 19.413 22.8212 19.4133C22.7279 19.4137 22.6345 19.4141 22.5412 19.4145C22.234 19.4158 21.9268 19.4166 21.6197 19.4173C21.514 19.4175 21.4084 19.4178 21.3027 19.418C20.8633 19.4191 20.4239 19.42 19.9845 19.4206C19.3543 19.4214 18.7241 19.423 18.0939 19.4258C17.6511 19.4276 17.2083 19.4286 16.7654 19.4289C16.5008 19.429 16.2362 19.4296 15.9716 19.4312C15.7226 19.4327 15.4737 19.433 15.2247 19.4324C15.1333 19.4324 15.0419 19.4328 14.9506 19.4337C14.8258 19.4348 14.7011 19.4344 14.5763 19.4336C14.5402 19.4343 14.504 19.4349 14.4668 19.4356C14.1885 19.4314 14.0754 19.3503 13.8873 19.1598C13.8084 19.0021 13.8093 18.8419 13.8384 18.6715C14.02 18.3551 14.2098 18.3224 14.55 18.3228Z" fill="white"/>
<path d="M15.7404 10.957C15.9075 11.0511 16.0071 11.1196 16.0673 11.3066C16.1067 11.5575 16.0815 11.6728 15.9357 11.8847C15.8104 12.0255 15.6779 12.1589 15.545 12.2926C15.4853 12.3533 15.4853 12.3533 15.4244 12.4152C15.2929 12.5486 15.161 12.6817 15.0289 12.8147C14.9838 12.8602 14.9387 12.9057 14.8923 12.9526C14.6782 13.1685 14.464 13.3842 14.2494 13.5995C14.0023 13.8476 13.756 14.0965 13.5103 14.3461C13.32 14.5394 13.1289 14.7319 12.9373 14.9238C12.823 15.0383 12.7092 15.1532 12.5959 15.2688C12.4695 15.3976 12.3418 15.5251 12.2139 15.6524C12.1769 15.6907 12.1399 15.7289 12.1017 15.7683C11.8901 15.976 11.7408 16.0775 11.4406 16.0924C11.2498 16.0754 11.148 15.9805 11.0132 15.855C10.9289 15.6908 10.915 15.5293 10.9552 15.3515C11.1121 15.0833 11.3178 14.8774 11.5372 14.6593C11.5759 14.6203 11.6147 14.5814 11.6546 14.5413C11.7824 14.4131 11.9105 14.2853 12.0386 14.1575C12.1276 14.0684 12.2167 13.9793 12.3057 13.8901C12.492 13.7037 12.6785 13.5173 12.8652 13.3311C13.0808 13.116 13.2961 12.9006 13.5112 12.6849C13.7185 12.4771 13.9261 12.2696 14.1338 12.0622C14.222 11.974 14.3102 11.8858 14.3983 11.7975C14.5212 11.6743 14.6445 11.5514 14.7678 11.4286C14.8043 11.392 14.8407 11.3553 14.8782 11.3176C14.9119 11.2842 14.9456 11.2508 14.9803 11.2164C15.0094 11.1873 15.0385 11.1583 15.0684 11.1283C15.2702 10.9554 15.4782 10.9097 15.7404 10.957Z" fill="white"/>
<path d="M12.0809 10.4195C12.3642 10.6497 12.5273 10.9353 12.5692 11.2984C12.561 11.6959 12.4608 11.9928 12.1786 12.275C11.9272 12.5024 11.6306 12.5537 11.2997 12.5679C10.9368 12.5273 10.6505 12.3624 10.4208 12.0796C10.2386 11.7636 10.1679 11.4628 10.2468 11.1035C10.3511 10.7685 10.5715 10.506 10.8694 10.3249C11.3006 10.162 11.6787 10.1876 12.0809 10.4195ZM11.3485 11.3472C11.3485 11.3795 11.3485 11.4117 11.3485 11.4449C11.3807 11.4449 11.4129 11.4449 11.4461 11.4449C11.4461 11.4127 11.4461 11.3804 11.4461 11.3472C11.4139 11.3472 11.3817 11.3472 11.3485 11.3472Z" fill="white"/>
<path d="M19.6121 20.7983C19.8547 20.9998 20.0181 21.2257 20.0559 21.5449C20.0613 21.9556 19.9935 22.2007 19.7344 22.5174C19.443 22.7558 19.1911 22.8606 18.8095 22.8442C18.4871 22.7935 18.2247 22.6504 18.0132 22.4015C17.8416 22.1431 17.7788 21.8517 17.8013 21.5433C17.8603 21.2516 17.9977 20.9703 18.2403 20.7924C18.6921 20.5308 19.1708 20.489 19.6121 20.7983Z" fill="white"/>
<path d="M19.4871 15.1352C19.7352 15.3968 19.8588 15.6807 19.8716 16.0416C19.8527 16.42 19.7362 16.6496 19.4627 16.9083C19.1918 17.1285 18.921 17.1889 18.5746 17.1586C18.2517 17.0869 18.0138 16.9131 17.7934 16.6703C17.6119 16.381 17.6033 16.0744 17.6469 15.7425C17.7475 15.3959 17.919 15.1995 18.2239 15.013C18.6537 14.8046 19.0913 14.9052 19.4871 15.1352Z" fill="white"/>
</svg>
