<svg width="35" height="35" viewBox="0 0 35 35" fill="none" xmlns="http://www.w3.org/2000/svg">
<rect width="35" height="35" rx="3" fill="#F96332"/>
<g clip-path="url(#clip0_1510_57006)">
<path d="M13.8317 7.82341C13.709 7.8986 10.25 11.5456 10.1867 11.6709C10.1036 11.838 10.1036 15.4557 10.1867 15.627C10.3252 15.9027 10.7289 15.9027 10.8674 15.627C10.911 15.5309 10.9228 15.2134 10.9228 13.8975V12.2892H12.1893C13.6497 12.2892 13.7446 12.2725 14.0652 11.9299C14.3897 11.5915 14.4056 11.4913 14.4056 9.94976V8.61296H19.0993H23.7931L23.9277 8.75499L24.0622 8.89703V12.9785V17.0641L23.7338 17.4233C23.1916 18.0165 22.9264 18.4928 22.7483 19.1904C22.6375 19.6207 22.6296 20.5189 22.7285 20.8949C22.7602 21.0202 22.7879 21.1288 22.7839 21.133C22.78 21.1372 22.6771 21.1079 22.5583 21.0745C22.4119 21.0285 22.1626 21.0077 21.7866 21.0077C21.1257 21.0077 20.7972 21.0828 20.2391 21.3753L19.883 21.5633H19.0004H18.1178L17.9833 21.7053C17.8883 21.8097 17.8487 21.8849 17.8487 21.981C17.8487 22.0771 17.8883 22.1523 17.9833 22.2567L18.1178 22.3988H18.5611H19.0083L18.5967 22.8499C18.3711 23.0964 18.1139 23.4097 18.0268 23.5476C17.6865 24.0907 17.453 24.8886 17.453 25.5152C17.453 25.7909 17.5361 26.4342 17.5954 26.593C17.6192 26.6557 17.358 26.6598 14.4293 26.6598C10.9624 26.6598 11.0732 26.6682 10.9703 26.4301C10.9347 26.3507 10.9228 25.4191 10.9228 22.7079C10.9228 18.7852 10.9308 18.9231 10.7052 18.8145C10.4954 18.7142 10.254 18.7977 10.1748 19.0024C10.1432 19.0902 10.1313 20.0844 10.1392 22.8374C10.1511 26.5178 10.1511 26.5554 10.2342 26.7476C10.3569 27.0233 10.5429 27.2238 10.7962 27.3575L11.0218 27.4744L14.5085 27.4953L17.9991 27.5162L18.1812 27.7752C19.1468 29.1287 21.0426 29.559 22.4713 28.7444C22.8947 28.5063 23.1401 28.2891 23.8287 27.5538C24.6598 26.6598 24.8973 26.2713 25.0991 25.4818C25.21 25.0515 25.2179 24.1533 25.1189 23.7773C25.0873 23.652 25.0596 23.5434 25.0635 23.5392C25.0675 23.535 25.1704 23.5601 25.2891 23.5935C26.1242 23.8233 27.165 23.627 27.9289 23.1006C28.2573 22.875 29.3101 21.8139 29.6425 21.3711C31.0237 19.5497 30.4024 16.7967 28.3959 15.8359C27.3392 15.3304 26.0569 15.4307 25.111 16.0865L24.8736 16.2536L24.8538 12.4855C24.834 8.99729 24.83 8.70486 24.7627 8.55447C24.648 8.27875 24.4343 8.04064 24.1889 7.91531L23.9633 7.79834L18.9371 7.78999C15.3554 7.78163 13.8871 7.79416 13.8317 7.82341ZM13.614 10.2255V11.2114L13.4993 11.3325L13.3845 11.4537H12.4386H11.4967L12.5455 10.3466C13.1233 9.73671 13.5982 9.23958 13.6022 9.23958C13.6101 9.23958 13.614 9.6824 13.614 10.2255ZM27.5252 16.404C27.6795 16.4374 27.9447 16.5377 28.1188 16.6296C28.6729 16.922 29.0528 17.3231 29.3259 17.9079C29.7533 18.8186 29.6781 19.8588 29.1241 20.7152C28.9539 20.9826 27.9843 22.0228 27.6835 22.2609C27.0384 22.7789 26.1123 22.9878 25.4158 22.7664L25.2456 22.7121L25.578 22.3653L25.9105 22.0144L26.1717 21.9977C26.4804 21.9768 26.8168 21.8599 27.0661 21.6886C27.169 21.6217 27.5291 21.2708 27.8655 20.9074C28.5502 20.1763 28.6848 19.9507 28.7758 19.416C28.9816 18.1669 27.8893 17.0098 26.702 17.2145C26.1875 17.3064 25.9738 17.4484 25.2772 18.1753C24.9329 18.5304 24.5965 18.9147 24.5332 19.0233C24.3788 19.2782 24.2641 19.6667 24.2443 19.9842L24.2324 20.2306L23.9 20.5857L23.5675 20.9408L23.5161 20.7612C23.3063 20.0259 23.5042 19.0484 23.995 18.3675C24.2205 18.05 25.206 17.0265 25.4593 16.8468C26.0767 16.404 26.8088 16.2453 27.5252 16.404ZM27.3985 18.1293C27.7626 18.3006 27.9961 18.685 27.9961 19.1194C27.9961 19.5246 27.8932 19.7043 27.2996 20.3392C27.0107 20.6442 26.7653 20.8949 26.7495 20.8949C26.7336 20.8949 26.7218 20.7946 26.7257 20.6734C26.7297 20.3768 26.6545 20.1178 26.4922 19.8839C26.2627 19.5497 25.9421 19.3826 25.5266 19.3868C25.396 19.3868 25.2891 19.3742 25.2891 19.3575C25.2891 19.3032 26.33 18.238 26.4368 18.1795C26.7574 17.9998 27.0859 17.9831 27.3985 18.1293ZM25.8194 20.3392C25.9342 20.4562 25.9579 20.569 25.9144 20.7486C25.8709 20.9241 22.586 24.3914 22.4198 24.4374C22.2536 24.4833 22.1428 24.4541 22.028 24.333C21.9132 24.216 21.8895 24.1032 21.933 23.9236C21.9766 23.7481 25.2614 20.2808 25.4276 20.2348C25.5938 20.1889 25.7047 20.2181 25.8194 20.3392ZM22.4317 21.9058L22.6019 21.9601L22.2694 22.3069L21.937 22.6578L21.6758 22.6745C21.3671 22.6954 21.0307 22.8123 20.7813 22.9836C20.6784 23.0505 20.3183 23.4014 19.9819 23.7648C19.2972 24.4959 19.1627 24.7215 19.0716 25.2562C18.8658 26.5053 19.9582 27.6624 21.1454 27.4577C21.6599 27.3658 21.8737 27.2238 22.5702 26.4969C22.9145 26.1418 23.2509 25.7575 23.3142 25.6489C23.4686 25.394 23.5834 25.0055 23.6031 24.688L23.615 24.4416L23.9475 24.0865L24.2799 23.7314L24.3314 23.911C24.5411 24.6463 24.3432 25.6238 23.8525 26.3047C23.6269 26.6222 22.6414 27.6457 22.3882 27.8254C21.5768 28.4102 20.5914 28.4896 19.7286 28.0426C19.1864 27.7585 18.7906 27.3408 18.5176 26.7643C18.0704 25.8118 18.1812 24.7173 18.8104 23.84C19.0321 23.5267 20.0175 22.5074 20.2748 22.3194C20.5439 22.1272 20.9159 21.9559 21.2365 21.8808C21.5491 21.8056 22.1626 21.8181 22.4317 21.9058ZM21.1217 24.0196C21.1177 24.7549 21.6481 25.3105 22.3486 25.2938C22.4633 25.2896 22.5583 25.3021 22.5583 25.3188C22.5583 25.3356 22.3209 25.5946 22.032 25.8995C21.4304 26.5262 21.2602 26.6348 20.8763 26.6348C20.2985 26.6348 19.8513 26.1627 19.8513 25.5528C19.8513 25.1476 19.9542 24.9679 20.5478 24.333C20.8368 24.028 21.0821 23.7773 21.098 23.7773C21.1138 23.7773 21.1257 23.886 21.1217 24.0196Z" fill="white"/>
<path d="M15.9455 12.3267C15.7951 12.4896 15.7872 12.7319 15.9257 12.9032L16.0207 13.0201L18.9177 13.0327L21.8147 13.041L21.9493 12.899C22.0957 12.7444 22.1194 12.6066 22.0284 12.4186C21.9968 12.3559 21.9255 12.2849 21.8662 12.2556C21.791 12.218 21.039 12.2055 18.9137 12.2055H16.0603L15.9455 12.3267Z" fill="white"/>
<path d="M13.024 14.6038C12.7588 14.7584 12.7667 15.2012 13.0398 15.3307C13.119 15.3683 14.2113 15.3809 17.5159 15.3809H21.8931L22.0276 15.2388C22.2255 15.0299 22.1939 14.7333 21.9603 14.6038C21.802 14.5203 13.1704 14.5161 13.024 14.6038Z" fill="white"/>
<path d="M10.3323 16.9417C9.98796 17.1423 10.1344 17.7188 10.5262 17.7188C10.728 17.7188 10.922 17.5141 10.922 17.3052C10.922 16.9919 10.5935 16.7872 10.3323 16.9417Z" fill="white"/>
<path d="M13.024 16.9417C12.7588 17.0963 12.7667 17.5391 13.0398 17.6686C13.115 17.7062 13.9224 17.7188 16.2455 17.7188C18.5686 17.7188 19.376 17.7062 19.4512 17.6686C19.566 17.6143 19.6689 17.4389 19.6689 17.301C19.6689 17.1631 19.566 16.9877 19.4512 16.9334C19.2929 16.8582 13.1546 16.8665 13.024 16.9417Z" fill="white"/>
<path d="M20.9508 16.9264C20.7292 17.0183 20.6659 17.3776 20.8321 17.5823C20.9271 17.6951 20.9389 17.6993 21.4059 17.7118L21.8848 17.7285L22.0233 17.5823C22.1737 17.4236 22.1975 17.2899 22.1064 17.0977C22.0748 17.035 22.0035 16.964 21.9442 16.9348C21.8254 16.8763 21.0775 16.8721 20.9508 16.9264Z" fill="white"/>
<path d="M13.024 19.2832C12.7588 19.4378 12.7667 19.8806 13.0398 20.0101C13.1902 20.0853 21.149 20.0811 21.2915 20.0059C21.3469 19.9767 21.4221 19.8848 21.4617 19.8012C21.525 19.6634 21.525 19.6341 21.4775 19.5046C21.3548 19.2038 21.6873 19.2247 17.1756 19.2247C13.8828 19.2289 13.0992 19.2373 13.024 19.2832Z" fill="white"/>
<path d="M13.0232 21.6214C12.754 21.7802 12.7699 22.2313 13.0469 22.3525C13.13 22.3859 13.6049 22.3984 14.7764 22.3901L16.3911 22.3775L16.4861 22.2606C16.6167 22.1018 16.6167 21.8595 16.4861 21.7008L16.3911 21.5838L14.7527 21.5755C13.4466 21.5671 13.0984 21.5755 13.0232 21.6214Z" fill="white"/>
</g>
<defs>
<clipPath id="clip0_1510_57006">
<rect width="20.2632" height="21.3889" fill="white" transform="translate(10.1316 7.77734)"/>
</clipPath>
</defs>
</svg>
