<svg width="12" height="14" viewBox="0 0 12 14" fill="none" xmlns="http://www.w3.org/2000/svg">
<g clip-path="url(#clip0_1415_18093)">
<path d="M1.69071 2.57918C1.73332 2.57898 1.77593 2.57875 1.81854 2.57849C1.93349 2.57791 2.04845 2.57782 2.1634 2.57787C2.25962 2.57788 2.35585 2.57765 2.45207 2.57743C2.67911 2.57692 2.90615 2.57684 3.13319 2.57702C3.36698 2.5772 3.60076 2.57658 3.83454 2.5756C4.03578 2.57478 4.23702 2.57448 4.43827 2.57458C4.55824 2.57464 4.6782 2.57449 4.79817 2.57384C4.91095 2.57324 5.02371 2.5733 5.13649 2.57384C5.17774 2.57393 5.21899 2.57379 5.26023 2.57341C5.68028 2.56979 5.68028 2.56979 5.85607 2.7236C5.98924 2.88459 6.0053 3.03546 6.00301 3.24863C5.99225 3.39833 5.95492 3.49544 5.85744 3.59712C5.72994 3.71031 5.64283 3.73949 5.47972 3.73986C5.4543 3.73997 5.4543 3.73997 5.42836 3.74009C5.37142 3.74031 5.31448 3.74034 5.25753 3.74038C5.21676 3.74051 5.17599 3.74064 5.13522 3.74079C5.04733 3.74109 4.95943 3.74132 4.87153 3.74149C4.73245 3.74177 4.59338 3.74231 4.4543 3.7429C4.05877 3.74455 3.66325 3.74599 3.26773 3.74687C3.04935 3.74736 2.83099 3.74814 2.61262 3.74922C2.49709 3.74978 2.38156 3.75019 2.26603 3.75025C2.15726 3.75031 2.04849 3.75074 1.93972 3.75144C1.8999 3.75163 1.86008 3.75168 1.82026 3.75159C1.56111 3.7511 1.34205 3.7556 1.1336 3.94967C1.01289 4.13063 1.01791 4.3316 1.01902 4.54857C1.01891 4.58178 1.0188 4.61501 1.01868 4.64923C1.01845 4.74101 1.01854 4.83277 1.01875 4.92454C1.01891 5.02368 1.01867 5.12282 1.01847 5.22197C1.01816 5.41601 1.01823 5.61006 1.01843 5.8041C1.01859 5.96183 1.01861 6.11957 1.01854 6.2773C1.01853 6.29976 1.01851 6.32223 1.0185 6.34538C1.01848 6.39102 1.01846 6.43666 1.01844 6.4823C1.01823 6.91009 1.01846 7.33787 1.01884 7.76566C1.01916 8.13256 1.0191 8.49947 1.01878 8.86638C1.0184 9.29265 1.01825 9.71893 1.01847 10.1452C1.01849 10.1907 1.01851 10.2361 1.01854 10.2816C1.01855 10.304 1.01856 10.3264 1.01857 10.3494C1.01863 10.5069 1.01853 10.6644 1.01836 10.8219C1.01816 11.0139 1.01822 11.2059 1.01859 11.3979C1.01878 11.4959 1.01885 11.5938 1.01862 11.6917C1.01837 11.7979 1.01867 11.9041 1.01902 12.0103C1.01886 12.0412 1.0187 12.0721 1.01854 12.1039C1.01985 12.3081 1.03395 12.4697 1.15392 12.6312C1.28314 12.7536 1.38227 12.7993 1.54903 12.7996C1.58649 12.7997 1.58649 12.7997 1.62471 12.7999C1.65212 12.7999 1.67953 12.7999 1.70778 12.7998C1.73692 12.7999 1.76605 12.8 1.79608 12.8001C1.87701 12.8003 1.95794 12.8003 2.03887 12.8004C2.12613 12.8004 2.2134 12.8006 2.30066 12.8008C2.49151 12.8011 2.68235 12.8013 2.87319 12.8014C2.99236 12.8015 3.11152 12.8016 3.23068 12.8017C3.56062 12.8021 3.89055 12.8023 4.22049 12.8024C4.24161 12.8024 4.26272 12.8024 4.28448 12.8024C4.30565 12.8024 4.32681 12.8024 4.34862 12.8025C4.39151 12.8025 4.43441 12.8025 4.4773 12.8025C4.49857 12.8025 4.51985 12.8025 4.54177 12.8025C4.88651 12.8026 5.23125 12.8031 5.57599 12.8037C5.92994 12.8043 6.28388 12.8047 6.63783 12.8047C6.83655 12.8047 7.03528 12.8049 7.234 12.8054C7.40322 12.8058 7.57244 12.8059 7.74166 12.8057C7.82798 12.8056 7.9143 12.8056 8.00062 12.806C8.09426 12.8064 8.18788 12.8062 8.28152 12.8059C8.30873 12.8061 8.33593 12.8063 8.36396 12.8065C8.53336 12.8054 8.67606 12.7917 8.81487 12.6701C8.8275 12.6534 8.84013 12.6368 8.85314 12.6196C8.86613 12.6033 8.87912 12.587 8.89251 12.5702C9.00712 12.3427 8.97968 12.0574 8.97887 11.8039C8.9789 11.7575 8.97895 11.7111 8.97901 11.6646C8.97913 11.5651 8.9791 11.4655 8.97897 11.3659C8.97879 11.2083 8.97905 11.0508 8.97938 10.8932C8.98026 10.4453 8.98069 9.99734 8.98042 9.54941C8.98027 9.30174 8.98054 9.05406 8.98127 8.80639C8.98171 8.64985 8.98163 8.49332 8.98117 8.33679C8.98101 8.23933 8.98134 8.14188 8.98181 8.04442C8.98192 7.99935 8.98184 7.95428 8.98154 7.90921C8.97883 7.46721 8.97883 7.46721 9.11388 7.30685C9.26083 7.152 9.37376 7.13453 9.57128 7.13895C9.68013 7.14964 9.7576 7.17095 9.84045 7.25356C9.96054 7.4198 10.008 7.55337 10.0078 7.76775C10.0079 7.79768 10.0079 7.79768 10.008 7.82822C10.0082 7.89529 10.0083 7.96235 10.0083 8.02942C10.0084 8.07744 10.0085 8.12546 10.0086 8.17347C10.0089 8.30413 10.0091 8.4348 10.0092 8.56546C10.0093 8.64717 10.0094 8.72887 10.0095 8.81058C10.0098 9.06644 10.01 9.3223 10.0101 9.57815C10.0102 9.87307 10.0106 10.168 10.0113 10.4629C10.0118 10.6911 10.012 10.9192 10.0121 11.1474C10.0121 11.2835 10.0122 11.4197 10.0127 11.5558C10.013 11.6841 10.0131 11.8124 10.0129 11.9407C10.0129 11.9876 10.013 12.0345 10.0132 12.0813C10.0157 12.6186 9.9207 13.0877 9.58263 13.4889C9.36719 13.7236 9.04686 13.9483 8.74177 13.9488C8.71462 13.9489 8.68748 13.9491 8.65951 13.9493C8.62991 13.9492 8.60031 13.9491 8.56982 13.949C8.53788 13.9491 8.50594 13.9492 8.47401 13.9494C8.38637 13.9497 8.29873 13.9497 8.2111 13.9496C8.11653 13.9496 8.02196 13.9499 7.92739 13.9502C7.74215 13.9506 7.55691 13.9508 7.37166 13.9508C7.22105 13.9508 7.07044 13.9509 6.91982 13.9511C6.49266 13.9516 6.0655 13.9518 5.63834 13.9518C5.6038 13.9518 5.6038 13.9518 5.56857 13.9518C5.54551 13.9518 5.52246 13.9518 5.49871 13.9518C5.12522 13.9517 4.75174 13.9523 4.37825 13.953C3.99461 13.9538 3.61098 13.9541 3.22734 13.9541C3.01202 13.9541 2.79669 13.9542 2.58137 13.9548C2.39801 13.9553 2.21465 13.9554 2.03129 13.955C1.93779 13.9549 1.8443 13.9549 1.7508 13.9553C1.66508 13.9557 1.57936 13.9557 1.49364 13.9552C1.44821 13.9551 1.40279 13.9555 1.35736 13.9559C1.1751 13.9543 1.03041 13.9195 0.863883 13.8353C0.840226 13.8237 0.81657 13.8122 0.792197 13.8002C0.425613 13.5819 0.187115 13.2343 0.0435699 12.7961C-0.00821518 12.6076 -0.0100118 12.4306 -0.00957286 12.234C-0.00967906 12.1991 -0.00978531 12.1641 -0.00989473 12.1281C-0.0101805 12.0315 -0.0101752 11.9349 -0.0101199 11.8382C-0.0101103 11.7339 -0.0103693 11.6295 -0.0105914 11.5251C-0.0109802 11.3208 -0.0111095 11.1164 -0.0111357 10.912C-0.011158 10.7458 -0.0112546 10.5796 -0.011403 10.4134C-0.0118157 9.94176 -0.012032 9.4701 -0.0119969 8.99844C-0.011995 8.97303 -0.0119931 8.94762 -0.0119911 8.92144C-0.0119892 8.896 -0.0119874 8.87056 -0.0119854 8.84434C-0.0119664 8.43226 -0.0124147 8.02019 -0.0130758 7.60811C-0.01375 7.18456 -0.0140728 6.76101 -0.0140323 6.33745C-0.0140168 6.09984 -0.0141442 5.86222 -0.0146499 5.62461C-0.0150779 5.42224 -0.0151779 5.21989 -0.0148606 5.01752C-0.0147081 4.9144 -0.0147027 4.81128 -0.0151114 4.70815C-0.0154827 4.6135 -0.0154104 4.51886 -0.0150043 4.4242C-0.0148995 4.37426 -0.0152505 4.32432 -0.015625 4.27438C-0.0123472 3.81062 0.142101 3.40799 0.41857 3.07001C0.782742 2.67184 1.20474 2.57811 1.69071 2.57918Z" fill="#1C75BB"/>
<path d="M8.63043 2.11072C8.69833 2.14786 8.74709 2.18344 8.80041 2.24427C8.8222 2.26893 8.8222 2.26893 8.84443 2.29409C8.86009 2.31209 8.87575 2.33008 8.89189 2.34863C8.90859 2.36761 8.92529 2.38659 8.9425 2.40614C8.99765 2.46888 9.05263 2.5318 9.10761 2.59473C9.14582 2.63828 9.18405 2.68182 9.22228 2.72534C9.32288 2.83991 9.42333 2.95464 9.52375 3.0694C9.62625 3.18648 9.72889 3.30342 9.83152 3.42037C10.0328 3.64984 10.234 3.87948 10.4351 4.10923C10.4049 4.18478 10.373 4.23982 10.3216 4.29862C10.3011 4.32225 10.3011 4.32225 10.2802 4.34637C10.2652 4.36342 10.2502 4.38047 10.2347 4.39805C10.2108 4.42552 10.2108 4.42552 10.1864 4.45355C10.1328 4.51502 10.079 4.5763 10.0252 4.63759C9.98677 4.68157 9.94835 4.72556 9.90994 4.76956C9.80545 4.88917 9.70081 5.00859 9.59612 5.12796C9.53071 5.20253 9.46533 5.27714 9.39996 5.35175C9.21885 5.55842 9.0377 5.76505 8.85638 5.97148C8.84478 5.98469 8.83318 5.99789 8.82123 6.0115C8.8096 6.02474 8.79797 6.03798 8.78599 6.05162C8.76243 6.07845 8.73887 6.10527 8.7153 6.1321C8.70362 6.14541 8.69193 6.15871 8.67989 6.17242C8.49061 6.38794 8.3017 6.60386 8.11293 6.81996C7.919 7.04196 7.72476 7.26361 7.53021 7.48492C7.42104 7.60913 7.31201 7.73349 7.2033 7.85822C7.10101 7.97558 6.99834 8.09248 6.89536 8.20906C6.85767 8.25187 6.82012 8.29485 6.78272 8.338C6.73155 8.39698 6.6799 8.45536 6.6281 8.51363C6.61349 8.53074 6.59889 8.54785 6.58384 8.56548C6.4729 8.68844 6.36648 8.73467 6.21637 8.77241C6.18659 8.78032 6.1568 8.78823 6.12612 8.79637C6.09757 8.8029 6.06902 8.80943 6.03961 8.81616C6.02361 8.81985 6.00761 8.82354 5.99112 8.82735C5.93919 8.83929 5.88722 8.85104 5.83524 8.86276C5.79866 8.87108 5.76208 8.87939 5.7255 8.8877C5.64926 8.905 5.57301 8.92218 5.49674 8.9393C5.39929 8.96119 5.30191 8.98348 5.20454 9.00588C5.1292 9.02314 5.0538 9.04012 4.9784 9.05703C4.94247 9.06514 4.90656 9.07334 4.87067 9.08164C4.82048 9.09323 4.77024 9.10442 4.71997 9.11552C4.69148 9.12196 4.66299 9.12841 4.63364 9.13505C4.51214 9.15062 4.42134 9.14581 4.32086 9.06386C4.2423 8.94039 4.243 8.81861 4.25768 8.67198C4.26353 8.63702 4.26969 8.60213 4.27612 8.56729C4.27943 8.54803 4.28274 8.52876 4.28616 8.50891C4.29707 8.44588 4.30841 8.38297 4.31977 8.32004C4.32753 8.27593 4.33528 8.23181 4.34301 8.18769C4.35922 8.0955 4.37563 8.00336 4.3922 7.91126C4.41337 7.79349 4.43409 7.67562 4.45468 7.55771C4.47061 7.46669 4.48675 7.37572 4.50294 7.28476C4.51066 7.24132 4.51832 7.19787 4.52593 7.15441C4.5366 7.0936 4.54755 7.03286 4.55856 6.97213C4.56317 6.94546 4.56317 6.94546 4.56787 6.91826C4.60774 6.70228 4.69391 6.5746 4.82833 6.42384C4.84456 6.40531 4.86079 6.38678 4.87752 6.3677C4.93188 6.30577 4.98648 6.24413 5.04108 6.18248C5.08013 6.13811 5.11916 6.09372 5.15818 6.04931C5.26412 5.92885 5.37027 5.80864 5.47645 5.68847C5.57616 5.57555 5.67571 5.46245 5.77526 5.34936C5.9724 5.12539 6.1697 4.90161 6.3671 4.67794C6.55881 4.46071 6.75046 4.24339 6.942 4.02596C6.95381 4.01255 6.96563 3.99914 6.9778 3.98532C7.03706 3.91805 7.09632 3.85077 7.15558 3.7835C7.64698 3.22565 8.13862 2.66809 8.63043 2.11072Z" fill="#1C75BB"/>
<path d="M11.4331 0.51927C11.7007 0.727712 11.8974 1.0101 11.9845 1.36916C12.0477 1.78893 12.0146 2.18725 11.8081 2.54951C11.6506 2.80244 11.4415 3.01617 11.2485 3.23391C11.2213 3.26478 11.194 3.29566 11.1667 3.32655C11.1008 3.40122 11.0348 3.4758 10.9687 3.55034C10.9003 3.51516 10.8517 3.47722 10.7988 3.41679C10.7842 3.40035 10.7697 3.38391 10.7548 3.36697C10.7391 3.34897 10.7234 3.33098 10.7073 3.31243C10.6906 3.29345 10.6739 3.27447 10.6567 3.25492C10.6015 3.19218 10.5466 3.12926 10.4916 3.06633C10.4534 3.02278 10.4151 2.97924 10.3769 2.93572C10.2763 2.82115 10.1759 2.70642 10.0754 2.59166C9.97293 2.47458 9.8703 2.35764 9.76767 2.24069C9.56634 2.01122 9.36515 1.78158 9.16406 1.55183C9.19569 1.47737 9.22557 1.42176 9.27671 1.36272C9.28995 1.34733 9.3032 1.33193 9.31684 1.31607C9.33117 1.29972 9.3455 1.28337 9.36026 1.26652C9.38265 1.2408 9.38265 1.2408 9.4055 1.21455C9.43718 1.17827 9.46892 1.14206 9.50072 1.10591C9.54866 1.05129 9.59621 0.996261 9.64375 0.941195C10.1326 0.380543 10.781 0.0772556 11.4331 0.51927Z" fill="#1C75BB"/>
</g>
<defs>
<clipPath id="clip0_1415_18093">
<rect width="12" height="13.6432" fill="white" transform="translate(0 0.298706)"/>
</clipPath>
</defs>
</svg>
