<svg width="38" height="37" viewBox="0 0 38 37" fill="none" xmlns="http://www.w3.org/2000/svg">
<rect y="0.541016" width="38" height="35.8822" rx="3" fill="#00A9FF"/>
<g clip-path="url(#clip0_1510_57038)">
<path d="M10.685 11.0115C10.7289 11.0113 10.7289 11.0113 10.7738 11.0111C10.872 11.0106 10.9702 11.0109 11.0685 11.0111C11.1396 11.0109 11.2107 11.0107 11.2818 11.0105C11.4773 11.0099 11.6728 11.0099 11.8683 11.01C12.0791 11.01 12.2899 11.0096 12.5008 11.0091C12.9138 11.0084 13.3269 11.0081 13.74 11.0081C14.0758 11.008 14.4115 11.0079 14.7473 11.0076C15.6992 11.0068 16.6511 11.0064 17.6029 11.0064C17.6543 11.0064 17.7056 11.0064 17.7585 11.0064C17.8356 11.0064 17.8356 11.0064 17.9142 11.0065C18.747 11.0065 19.5797 11.0056 20.4125 11.0044C21.2675 11.0031 22.1224 11.0025 22.9774 11.0025C23.4575 11.0026 23.9375 11.0023 24.4176 11.0013C24.8263 11.0005 25.235 11.0003 25.6438 11.0009C25.8523 11.0012 26.0608 11.0012 26.2693 11.0005C26.4604 10.9998 26.6514 10.9999 26.8424 11.0007C26.9113 11.0008 26.9803 11.0006 27.0493 11.0001C27.6322 10.9962 28.0637 11.1084 28.5127 11.5622C28.6972 11.7877 28.8406 12.0391 28.9424 12.3258C28.9557 12.3614 28.9691 12.3969 28.9828 12.4335C29.0363 12.6629 29.0316 12.8825 29.031 13.119C29.0312 13.1721 29.0313 13.2252 29.0315 13.2799C29.0319 13.4268 29.032 13.5738 29.0319 13.7208C29.0319 13.8794 29.0323 14.0381 29.0327 14.1967C29.0333 14.5075 29.0335 14.8182 29.0336 15.1289C29.0336 15.3816 29.0338 15.6343 29.034 15.887C29.0347 16.6038 29.0351 17.3206 29.035 18.0374C29.035 18.0953 29.035 18.0953 29.035 18.1544C29.035 18.1931 29.035 18.2318 29.035 18.2716C29.035 18.8982 29.0357 19.5247 29.0368 20.1512C29.0379 20.7949 29.0385 21.4387 29.0384 22.0824C29.0384 22.4436 29.0386 22.8048 29.0394 23.1661C29.0402 23.4737 29.0403 23.7813 29.0398 24.089C29.0395 24.2458 29.0395 24.4026 29.0402 24.5594C29.0408 24.7298 29.0405 24.9001 29.0398 25.0705C29.0403 25.1196 29.0407 25.1687 29.0411 25.2192C29.0368 25.77 28.8663 26.1994 28.5518 26.611C28.2171 26.9731 27.8204 27.2097 27.3561 27.2065C27.3268 27.2067 27.2975 27.2068 27.2673 27.207C27.1691 27.2074 27.0708 27.2072 26.9726 27.207C26.9015 27.2071 26.8304 27.2074 26.7592 27.2076C26.5637 27.2081 26.3683 27.2081 26.1728 27.208C25.9619 27.208 25.7511 27.2085 25.5403 27.2089C25.1272 27.2097 24.7142 27.2099 24.3011 27.21C23.9653 27.21 23.6295 27.2102 23.2938 27.2105C22.3419 27.2113 21.39 27.2117 20.4381 27.2116C20.3868 27.2116 20.3355 27.2116 20.2826 27.2116C20.2312 27.2116 20.1798 27.2116 20.1269 27.2116C19.2941 27.2116 18.4613 27.2124 17.6286 27.2137C16.7736 27.215 15.9186 27.2156 15.0636 27.2155C14.5836 27.2155 14.1036 27.2157 13.6235 27.2167C13.2148 27.2175 12.806 27.2177 12.3973 27.2171C12.1887 27.2168 11.9802 27.2168 11.7717 27.2176C11.5807 27.2183 11.3897 27.2182 11.1987 27.2174C11.1297 27.2173 11.0607 27.2174 10.9918 27.2179C10.4088 27.2219 9.97736 27.1096 9.52835 26.6559C9.34389 26.4304 9.20043 26.179 9.09866 25.8922C9.08532 25.8567 9.07198 25.8211 9.05824 25.7845C9.0048 25.5552 9.00951 25.3355 9.01009 25.099C9.00991 25.046 9.00973 24.9929 9.00955 24.9382C9.00914 24.7912 9.00908 24.6443 9.00918 24.4973C9.00919 24.3386 9.00876 24.18 9.00839 24.0213C9.00774 23.7106 9.00753 23.3999 9.00748 23.0891C9.00745 22.8365 9.00728 22.5838 9.00704 22.3311C9.00635 21.6143 9.00599 20.8975 9.00605 20.1807C9.00605 20.1421 9.00605 20.1034 9.00606 20.0636C9.00606 20.025 9.00606 19.9863 9.00607 19.9464C9.0061 19.3199 9.00535 18.6934 9.00425 18.0669C9.00313 17.4231 9.00259 16.7794 9.00265 16.1357C9.00268 15.7744 9.00247 15.4132 9.00162 15.052C9.00091 14.7443 9.00074 14.4367 9.00127 14.1291C9.00153 13.9723 9.00154 13.8155 9.00086 13.6586C9.00025 13.4883 9.00062 13.3179 9.00122 13.1475C9.00082 13.0985 9.00041 13.0494 9 12.9989C9.00428 12.448 9.17479 12.0187 9.48928 11.6071C9.82401 11.245 10.2207 11.0084 10.685 11.0115ZM11.0908 12.3707C11.2432 12.5752 11.3937 12.7705 11.5589 12.9597C11.5924 12.9982 11.5924 12.9982 11.6265 13.0376C11.7006 13.1229 11.7747 13.2081 11.8489 13.2932C11.9023 13.3547 11.9557 13.4162 12.0091 13.4777C12.1536 13.6441 12.2983 13.8104 12.443 13.9767C12.5947 14.151 12.7463 14.3255 12.898 14.5C13.1527 14.7929 13.4074 15.0858 13.6622 15.3786C13.9564 15.7166 14.2503 16.0548 14.5442 16.393C14.797 16.6839 15.0499 16.9748 15.3028 17.2655C15.4537 17.4389 15.6045 17.6124 15.7553 17.7859C15.8971 17.9491 16.039 18.1123 16.181 18.2753C16.233 18.3349 16.2849 18.3946 16.3367 18.4544C16.6821 18.8536 16.6821 18.8536 17.0466 19.2294C17.1392 19.3211 17.2221 19.4223 17.3058 19.5246C17.8223 20.1453 18.2622 20.6558 19.0596 20.6813C19.7446 20.6571 20.1927 20.1867 20.6367 19.6481C20.7077 19.5635 20.7789 19.4792 20.8501 19.395C20.8939 19.3431 20.9375 19.2909 20.9808 19.2385C21.0829 19.116 21.1867 19.0004 21.2996 18.8911C21.5511 18.6391 21.7834 18.3638 22.019 18.0924C22.0729 18.0305 22.1268 17.9686 22.1807 17.9066C22.3264 17.7393 22.4719 17.5719 22.6175 17.4044C22.7698 17.229 22.9223 17.0538 23.0748 16.8785C23.3304 16.5846 23.586 16.2906 23.8415 15.9965C24.1373 15.6561 24.4333 15.3158 24.7293 14.9757C24.9835 14.6835 25.2376 14.3913 25.4917 14.0991C25.6434 13.9245 25.7952 13.75 25.947 13.5755C26.0894 13.4118 26.2318 13.248 26.3741 13.0842C26.4264 13.0239 26.4788 12.9636 26.5313 12.9034C26.6025 12.8216 26.6736 12.7397 26.7447 12.6577C26.7658 12.6336 26.7868 12.6095 26.8085 12.5846C26.9066 12.4932 26.9066 12.4932 26.9502 12.3707C21.7166 12.3707 16.483 12.3707 11.0908 12.3707ZM10.1924 13.404C10.1924 17.1841 10.1924 20.9643 10.1924 24.859C10.3623 24.6916 10.5213 24.5313 10.6782 24.3507C10.6977 24.3283 10.7172 24.3059 10.7374 24.2828C10.8019 24.2086 10.8663 24.1343 10.9308 24.0599C10.9774 24.0063 11.024 23.9527 11.0706 23.8992C11.1965 23.7544 11.3223 23.6095 11.448 23.4646C11.5797 23.3129 11.7115 23.1613 11.8432 23.0097C12.0925 22.723 12.3416 22.4361 12.5907 22.1492C12.8744 21.8224 13.1582 21.4958 13.442 21.1692C14.0256 20.4976 14.6091 19.8258 15.1924 19.154C15.1316 18.9869 15.0427 18.8806 14.932 18.7532C14.9133 18.7316 14.8947 18.71 14.8754 18.6877C14.8129 18.6155 14.7501 18.5435 14.6872 18.4715C14.6423 18.4198 14.5974 18.3679 14.5525 18.3161C14.4305 18.1754 14.3082 18.0349 14.1859 17.8945C14.0578 17.7474 13.9298 17.6001 13.8019 17.4528C13.5868 17.2053 13.3716 16.958 13.1562 16.7108C12.9077 16.4255 12.6594 16.1398 12.4113 15.854C12.1981 15.6084 11.9847 15.3629 11.7712 15.1176C11.6438 14.9712 11.5164 14.8248 11.3892 14.6782C11.2694 14.5401 11.1494 14.4023 11.0293 14.2647C10.9854 14.2143 10.9415 14.1639 10.8978 14.1133C10.8377 14.044 10.7773 13.9749 10.717 13.9059C10.6665 13.848 10.6665 13.848 10.6151 13.7889C10.4822 13.6497 10.3362 13.528 10.1924 13.404ZM27.5577 13.6686C27.5303 13.6982 27.5029 13.7279 27.4746 13.7585C27.0567 14.2136 26.6521 14.6845 26.2457 15.153C26.1259 15.291 26.006 15.4289 25.8861 15.5668C25.6601 15.8268 25.4343 16.087 25.2084 16.3471C24.9509 16.6438 24.6932 16.9404 24.4356 17.2369C23.9065 17.8458 23.3775 18.4549 22.8487 19.0641C22.9107 19.2374 23.0068 19.347 23.1213 19.4786C23.1513 19.5132 23.1513 19.5132 23.1818 19.5485C23.2488 19.6258 23.316 19.7027 23.3833 19.7797C23.4313 19.835 23.4794 19.8903 23.5274 19.9457C23.6579 20.096 23.7886 20.246 23.9194 20.3959C24.056 20.5526 24.1925 20.7096 24.329 20.8666C24.5581 21.13 24.7873 21.3933 25.0167 21.6564C25.2822 21.9611 25.5476 22.266 25.8128 22.5711C26.0677 22.8642 26.3226 23.1571 26.5776 23.45C26.6863 23.5748 26.7949 23.6997 26.9036 23.8246C27.0313 23.9715 27.1592 24.1182 27.2871 24.2648C27.3341 24.3188 27.3812 24.3729 27.4282 24.427C27.492 24.5004 27.556 24.5738 27.6201 24.6471C27.6559 24.6882 27.6918 24.7294 27.7287 24.7718C27.7959 24.8642 27.7959 24.8642 27.8487 24.859C27.8487 21.0789 27.8487 17.2987 27.8487 13.404C27.7516 13.404 27.629 13.5915 27.5577 13.6686ZM15.9868 20.2098C15.9615 20.2403 15.9362 20.2708 15.9102 20.3023C15.8124 20.42 15.7118 20.5294 15.6041 20.6349C15.3911 20.8485 15.1928 21.0788 14.9933 21.3088C14.9505 21.3579 14.9078 21.407 14.865 21.4561C14.7497 21.5884 14.6346 21.7209 14.5195 21.8533C14.3989 21.9922 14.2782 22.1309 14.1575 22.2697C13.9551 22.5023 13.7529 22.735 13.5507 22.9677C13.3167 23.2371 13.0825 23.5063 12.8483 23.7754C12.647 24.0067 12.4458 24.238 12.2446 24.4695C12.1246 24.6076 12.0045 24.7458 11.8843 24.8838C11.7716 25.0133 11.659 25.1428 11.5465 25.2725C11.5051 25.3202 11.4636 25.3678 11.4221 25.4154C11.3658 25.4801 11.3096 25.545 11.2534 25.6098C11.206 25.6643 11.206 25.6643 11.1577 25.7199C11.0864 25.7891 11.0864 25.7891 11.0908 25.8473C16.3244 25.8473 21.558 25.8473 26.9502 25.8473C26.8098 25.6589 26.6764 25.4818 26.5252 25.3079C26.4888 25.2659 26.4524 25.224 26.415 25.1808C26.3754 25.1353 26.3358 25.0899 26.2962 25.0444C26.2539 24.9958 26.2117 24.9471 26.1694 24.8984C26.0553 24.767 25.9411 24.6357 25.8268 24.5044C25.7068 24.3666 25.587 24.2286 25.4671 24.0907C25.2657 23.859 25.0643 23.6275 24.8628 23.396C24.6305 23.1291 24.3983 22.862 24.1661 22.5948C23.9663 22.3647 23.7663 22.1347 23.5663 21.9048C23.4471 21.7678 23.3279 21.6307 23.2088 21.4936C23.0967 21.3646 22.9846 21.2357 22.8723 21.1069C22.8313 21.0598 22.7904 21.0127 22.7495 20.9656C22.3691 20.4949 22.3691 20.4949 21.9112 20.1422C21.889 20.1685 21.8668 20.1947 21.8439 20.2217C21.0117 21.2016 20.2427 22.0109 18.9828 22.0302C17.8936 22.0133 17.1584 21.3357 16.4326 20.4904C16.4038 20.4561 16.3749 20.4218 16.3451 20.3864C16.3182 20.3547 16.2913 20.323 16.2636 20.2903C16.2396 20.2618 16.2157 20.2332 16.1911 20.2038C16.1031 20.1153 16.0729 20.1203 15.9868 20.2098Z" fill="white"/>
</g>
<defs>
<clipPath id="clip0_1510_57038">
<rect width="20" height="22.9247" fill="white" transform="translate(9 7.51758)"/>
</clipPath>
</defs>
</svg>
