<svg width="35" height="35" viewBox="0 0 35 35" fill="none" xmlns="http://www.w3.org/2000/svg">
<rect width="35" height="35" rx="3" fill="#00A9FF"/>
<g clip-path="url(#clip0_3419_74512)">
<path d="M8.80908 9.81909C8.85489 9.81887 8.85489 9.81887 8.90163 9.81865C9.00406 9.81827 9.10648 9.81847 9.20891 9.81867C9.28305 9.81852 9.3572 9.81833 9.43134 9.81811C9.63517 9.81761 9.839 9.81762 10.0428 9.81772C10.2626 9.81773 10.4824 9.81728 10.7022 9.8169C11.1329 9.81622 11.5636 9.81599 11.9943 9.81595C12.3444 9.81591 12.6945 9.81574 13.0446 9.81548C14.037 9.81476 15.0295 9.81438 16.0219 9.81445C16.0754 9.81445 16.1289 9.81445 16.1841 9.81445C16.2644 9.81446 16.2644 9.81446 16.3464 9.81447C17.2147 9.8145 18.083 9.81372 18.9512 9.81256C19.8427 9.81139 20.7341 9.81083 21.6255 9.8109C22.126 9.81092 22.6265 9.8107 23.127 9.80982C23.5532 9.80908 23.9794 9.8089 24.4055 9.80945C24.623 9.80972 24.8404 9.80972 25.0578 9.80901C25.2569 9.80837 25.4561 9.80849 25.6552 9.8092C25.7271 9.80933 25.799 9.80918 25.871 9.80872C26.4788 9.80513 26.9286 9.90722 27.3968 10.3199C27.5891 10.5251 27.7387 10.7537 27.8448 11.0146C27.8587 11.0469 27.8726 11.0792 27.8869 11.1126C27.9426 11.3212 27.9377 11.521 27.9371 11.7361C27.9373 11.7844 27.9375 11.8326 27.9377 11.8824C27.9381 12.0161 27.9382 12.1497 27.9381 12.2834C27.9381 12.4278 27.9385 12.5721 27.9389 12.7164C27.9396 12.999 27.9398 13.2817 27.9398 13.5643C27.9399 13.7941 27.94 14.024 27.9403 14.2538C27.941 14.9058 27.9414 15.5578 27.9413 16.2099C27.9413 16.2626 27.9413 16.2626 27.9413 16.3163C27.9413 16.3515 27.9413 16.3867 27.9413 16.423C27.9413 16.9928 27.9421 17.5627 27.9432 18.1326C27.9444 18.7182 27.9449 19.3037 27.9449 19.8893C27.9448 20.2178 27.9451 20.5464 27.9459 20.875C27.9467 21.1548 27.9469 21.4346 27.9463 21.7145C27.946 21.8571 27.946 21.9998 27.9467 22.1424C27.9474 22.2974 27.947 22.4523 27.9464 22.6073C27.9468 22.6519 27.9472 22.6966 27.9476 22.7425C27.9432 23.2436 27.7654 23.6341 27.4375 24.0085C27.0885 24.3379 26.6749 24.5531 26.1908 24.5502C26.1603 24.5504 26.1297 24.5505 26.0983 24.5507C25.9958 24.551 25.8934 24.5508 25.791 24.5506C25.7168 24.5508 25.6427 24.551 25.5685 24.5512C25.3647 24.5517 25.1609 24.5517 24.9571 24.5516C24.7372 24.5516 24.5174 24.552 24.2976 24.5524C23.867 24.5531 23.4363 24.5533 23.0056 24.5534C22.6555 24.5534 22.3054 24.5536 21.9553 24.5538C20.9629 24.5546 19.9704 24.5549 18.978 24.5549C18.9245 24.5549 18.8709 24.5549 18.8158 24.5549C18.7622 24.5549 18.7086 24.5549 18.6534 24.5548C17.7852 24.5548 16.9169 24.5556 16.0486 24.5567C15.1572 24.5579 14.2658 24.5585 13.3744 24.5584C12.8739 24.5584 12.3734 24.5586 11.8729 24.5595C11.4467 24.5602 11.0205 24.5604 10.5943 24.5599C10.3769 24.5596 10.1595 24.5596 9.94212 24.5603C9.74297 24.5609 9.54383 24.5608 9.34468 24.5601C9.27276 24.56 9.20084 24.5601 9.12892 24.5606C8.52112 24.5642 8.07127 24.4621 7.60311 24.0494C7.41079 23.8443 7.26122 23.6156 7.15511 23.3547C7.1412 23.3224 7.12729 23.2901 7.11297 23.2568C7.05725 23.0481 7.06216 22.8483 7.06276 22.6332C7.06258 22.585 7.06239 22.5367 7.0622 22.4869C7.06178 22.3532 7.06172 22.2196 7.06181 22.0859C7.06183 21.9416 7.06138 21.7972 7.06099 21.6529C7.06032 21.3703 7.06009 21.0876 7.06005 20.805C7.06001 20.5752 7.05984 20.3453 7.05958 20.1155C7.05887 19.4635 7.05849 18.8115 7.05855 18.1595C7.05855 18.1243 7.05856 18.0892 7.05856 18.053C7.05856 18.0178 7.05857 17.9826 7.05857 17.9464C7.0586 17.3765 7.05782 16.8066 7.05668 16.2367C7.0555 15.6511 7.05494 15.0656 7.05501 14.4801C7.05504 14.1515 7.05482 13.8229 7.05394 13.4943C7.0532 13.2145 7.05302 12.9347 7.05357 12.6548C7.05384 12.5122 7.05385 12.3696 7.05314 12.2269C7.05251 12.0719 7.05289 11.917 7.05352 11.762C7.0531 11.7174 7.05268 11.6728 7.05225 11.6268C7.05671 11.1257 7.23449 10.7352 7.56239 10.3608C7.91138 10.0314 8.32496 9.81619 8.80908 9.81909ZM9.23222 11.0554C9.39112 11.2414 9.548 11.419 9.72025 11.5911C9.75514 11.6262 9.75514 11.6262 9.79074 11.662C9.86792 11.7396 9.94525 11.8171 10.0226 11.8945C10.0783 11.9505 10.1339 12.0064 10.1896 12.0624C10.3403 12.2137 10.4912 12.365 10.642 12.5162C10.8002 12.6748 10.9583 12.8335 11.1164 12.9922C11.3819 13.2587 11.6476 13.5251 11.9132 13.7914C12.2199 14.0989 12.5264 14.4065 12.8328 14.7141C13.0964 14.9788 13.36 15.2433 13.6238 15.5078C13.7811 15.6655 13.9383 15.8233 14.0955 15.9811C14.2434 16.1296 14.3914 16.278 14.5394 16.4263C14.5935 16.4805 14.6477 16.5348 14.7017 16.5892C15.0619 16.9523 15.0619 16.9523 15.4418 17.2942C15.5384 17.3775 15.6248 17.4696 15.7121 17.5626C16.2506 18.1272 16.7093 18.5916 17.5407 18.6148C18.2549 18.5928 18.7221 18.1649 19.185 17.675C19.259 17.5981 19.3332 17.5214 19.4075 17.4448C19.4532 17.3975 19.4986 17.3501 19.5438 17.3024C19.6502 17.191 19.7584 17.0859 19.8761 16.9864C20.1384 16.7572 20.3806 16.5068 20.6262 16.2599C20.6824 16.2036 20.7386 16.1473 20.7949 16.0909C20.9467 15.9388 21.0985 15.7864 21.2502 15.6341C21.4091 15.4746 21.568 15.3152 21.727 15.1558C21.9936 14.8884 22.26 14.621 22.5265 14.3535C22.8349 14.0438 23.1434 13.7343 23.4521 13.4249C23.7171 13.1592 23.982 12.8934 24.2469 12.6275C24.4051 12.4688 24.5634 12.31 24.7217 12.1513C24.8702 12.0024 25.0186 11.8534 25.1669 11.7044C25.2215 11.6495 25.2762 11.5947 25.3309 11.54C25.4051 11.4656 25.4793 11.391 25.5534 11.3165C25.5754 11.2945 25.5973 11.2726 25.6199 11.25C25.7222 11.1668 25.7222 11.1668 25.7677 11.0554C20.311 11.0554 14.8543 11.0554 9.23222 11.0554ZM8.29549 11.9953C8.29549 15.4337 8.29549 18.8722 8.29549 22.4149C8.47258 22.2626 8.63837 22.1169 8.80195 21.9526C8.82232 21.9322 8.84269 21.9118 8.86367 21.8908C8.93098 21.8233 8.99815 21.7557 9.06532 21.6881C9.11391 21.6393 9.1625 21.5906 9.2111 21.5418C9.34236 21.4101 9.47349 21.2783 9.6046 21.1465C9.74189 21.0085 9.87929 20.8706 10.0167 20.7328C10.2765 20.4719 10.5363 20.211 10.796 19.95C11.0918 19.6528 11.3877 19.3557 11.6836 19.0586C12.2921 18.4477 12.9004 17.8367 13.5086 17.2255C13.4453 17.0736 13.3525 16.9769 13.2371 16.861C13.2177 16.8414 13.1982 16.8217 13.1781 16.8015C13.1129 16.7357 13.0474 16.6703 12.9819 16.6048C12.9351 16.5577 12.8883 16.5106 12.8414 16.4634C12.7142 16.3354 12.5867 16.2076 12.4592 16.0799C12.3256 15.9461 12.1922 15.8121 12.0588 15.6781C11.8346 15.453 11.6102 15.228 11.3856 15.0032C11.1265 14.7437 10.8677 14.4838 10.609 14.2239C10.3867 14.0004 10.1642 13.7772 9.94159 13.554C9.80874 13.4209 9.67594 13.2877 9.54329 13.1543C9.41839 13.0287 9.29328 12.9034 9.16802 12.7782C9.12224 12.7324 9.07654 12.6865 9.03091 12.6405C8.96825 12.5774 8.90535 12.5146 8.84239 12.4519C8.78984 12.3992 8.78984 12.3992 8.73623 12.3454C8.59768 12.2188 8.44541 12.1081 8.29549 11.9953ZM26.4011 12.236C26.3725 12.263 26.3439 12.2899 26.3144 12.3177C25.8787 12.7317 25.4568 13.16 25.0331 13.5862C24.9082 13.7118 24.7832 13.8372 24.6582 13.9626C24.4226 14.1991 24.1871 14.4358 23.9516 14.6724C23.6831 14.9423 23.4145 15.212 23.1458 15.4818C22.5942 16.0356 22.0427 16.5897 21.4913 17.1438C21.5559 17.3014 21.6561 17.4011 21.7755 17.5208C21.8067 17.5523 21.8067 17.5523 21.8386 17.5844C21.9084 17.6547 21.9785 17.7247 22.0486 17.7947C22.0988 17.845 22.1489 17.8953 22.199 17.9457C22.335 18.0824 22.4713 18.2188 22.6076 18.3552C22.7501 18.4978 22.8924 18.6406 23.0347 18.7834C23.2735 19.023 23.5126 19.2624 23.7517 19.5018C24.0286 19.7789 24.3052 20.0563 24.5818 20.3338C24.8475 20.6004 25.1133 20.8668 25.3791 21.1332C25.4925 21.2468 25.6058 21.3604 25.719 21.474C25.8522 21.6076 25.9855 21.7411 26.1189 21.8744C26.1679 21.9236 26.217 21.9727 26.266 22.0219C26.3326 22.0887 26.3993 22.1554 26.466 22.2221C26.5034 22.2596 26.5408 22.297 26.5794 22.3356C26.6494 22.4196 26.6494 22.4196 26.7044 22.4149C26.7044 18.9764 26.7044 15.5379 26.7044 11.9953C26.6032 11.9953 26.4754 12.1659 26.4011 12.236ZM14.3369 18.1859C14.3105 18.2137 14.2842 18.2414 14.257 18.27C14.155 18.3772 14.0502 18.4767 13.9379 18.5726C13.7158 18.7669 13.509 18.9764 13.301 19.1856C13.2564 19.2302 13.2118 19.2749 13.1673 19.3196C13.0471 19.4399 12.9271 19.5604 12.8071 19.6809C12.6813 19.8072 12.5554 19.9334 12.4296 20.0596C12.2186 20.2712 12.0078 20.4828 11.7969 20.6945C11.5529 20.9396 11.3088 21.1845 11.0646 21.4293C10.8547 21.6396 10.6449 21.8501 10.4352 22.0606C10.31 22.1862 10.1848 22.3119 10.0595 22.4375C9.942 22.5552 9.8246 22.6731 9.70728 22.791C9.6641 22.8344 9.62088 22.8777 9.57763 22.921C9.51888 22.9799 9.46026 23.0389 9.40166 23.0978C9.35228 23.1474 9.35228 23.1474 9.30191 23.1979C9.2276 23.2609 9.2276 23.2609 9.23222 23.3139C14.6889 23.3139 20.1456 23.3139 25.7677 23.3139C25.6213 23.1425 25.4821 22.9814 25.3245 22.8232C25.2866 22.785 25.2487 22.7469 25.2096 22.7076C25.1683 22.6662 25.127 22.6249 25.0857 22.5836C25.0417 22.5393 24.9976 22.495 24.9536 22.4508C24.8346 22.3312 24.7155 22.2118 24.5964 22.0924C24.4713 21.967 24.3463 21.8415 24.2213 21.716C24.0114 21.5053 23.8013 21.2947 23.5913 21.0842C23.349 20.8413 23.1069 20.5984 22.8649 20.3553C22.6565 20.146 22.448 19.9369 22.2395 19.7277C22.1152 19.6031 21.9909 19.4784 21.8667 19.3537C21.7499 19.2364 21.6329 19.1191 21.5159 19.0019C21.4732 18.9591 21.4305 18.9163 21.3879 18.8734C20.9912 18.4452 20.9912 18.4452 20.5138 18.1245C20.4907 18.1483 20.4675 18.1722 20.4437 18.1968C19.576 19.0881 18.7742 19.8242 17.4606 19.8418C16.325 19.8265 15.5584 19.2101 14.8017 18.4411C14.7716 18.4099 14.7415 18.3787 14.7105 18.3466C14.6824 18.3177 14.6544 18.2889 14.6255 18.2592C14.6005 18.2332 14.5756 18.2072 14.5498 18.1805C14.4581 18.0999 14.4267 18.1045 14.3369 18.1859Z" fill="white"/>
</g>
<defs>
<clipPath id="clip0_3419_74512">
<rect width="20.8526" height="16.1134" fill="white" transform="translate(7.07373 9.01172)"/>
</clipPath>
</defs>
</svg>
