<svg width="35" height="35" viewBox="0 0 35 35" fill="none" xmlns="http://www.w3.org/2000/svg">
<rect width="35" height="35" rx="3" fill="#F96332"/>
<g clip-path="url(#clip0_3350_433124)">
<path d="M17.5091 7.92486C17.4575 7.92519 17.4575 7.92519 17.4048 7.92552C16.9377 7.93785 16.5682 8.08777 16.2026 8.40114C16.1458 8.44475 16.1458 8.44475 16.0879 8.48925C15.7411 8.84028 15.4905 9.35146 15.4674 9.86301C15.4666 9.93296 15.4666 10.0029 15.4673 10.0729C15.4676 10.1278 15.4676 10.1278 15.4678 10.1838C15.4734 10.4669 15.5151 10.6951 15.627 10.954C15.6511 11.0174 15.6752 11.0809 15.6989 11.1445C15.2885 10.9314 14.9307 10.6972 14.5836 10.3824C14.5509 10.353 14.5509 10.353 14.5176 10.3229C14.3811 10.1993 14.2458 10.0744 14.1109 9.94913C13.8271 9.68638 13.5404 9.42769 13.247 9.17702C13.1697 9.10914 13.0943 9.04033 13.0194 8.96954C12.6949 8.66388 12.4491 8.44338 11.9928 8.46305C11.7013 8.50175 11.5053 8.61294 11.324 8.85822C11.1696 9.0918 11.1123 9.30996 11.1374 9.59362C11.1958 9.93534 11.3873 10.1774 11.6159 10.4144C11.6501 10.4506 11.6501 10.4506 11.6849 10.4874C11.7596 10.5662 11.8346 10.6446 11.9096 10.723C11.962 10.7782 12.0144 10.8334 12.0668 10.8886C12.2043 11.0336 12.342 11.1782 12.4799 11.3227C12.7004 11.5539 12.9204 11.7856 13.1404 12.0174C13.2168 12.0978 13.2935 12.1781 13.3701 12.2585C13.5717 12.4702 13.7701 12.6806 13.9537 12.9102C14.0533 13.0263 14.169 13.1221 14.2831 13.2217C14.9672 13.8208 14.9672 13.8208 15.2495 14.6736C15.2591 14.9736 15.2329 15.2672 15.1952 15.5643C15.3852 15.5643 15.5752 15.5643 15.7709 15.5643C15.7771 15.3312 15.7817 15.0981 15.7847 14.8648C15.786 14.7856 15.7877 14.7063 15.7899 14.6271C15.7929 14.5128 15.7944 14.3987 15.7955 14.2843C15.7968 14.2493 15.7981 14.2142 15.7994 14.178C15.7995 13.9963 15.7843 13.8834 15.6657 13.7478C15.6428 13.7215 15.6199 13.6951 15.5963 13.668C15.4519 13.5092 15.3056 13.3525 15.158 13.197C15.1223 13.1592 15.0865 13.1214 15.0508 13.0837C14.9745 13.0029 14.8981 12.9222 14.8216 12.8416C14.7007 12.7141 14.58 12.5864 14.4592 12.4588C14.2032 12.188 13.947 11.9175 13.6909 11.647C13.4136 11.3542 13.1364 11.0614 12.8593 10.7684C12.7393 10.6415 12.6192 10.5146 12.499 10.3878C12.4244 10.3091 12.3499 10.2303 12.2754 10.1515C12.2243 10.0975 12.1731 10.0437 12.1219 9.98977C12.0765 9.94162 12.0765 9.94162 12.0301 9.89251C11.9905 9.85069 11.9905 9.85069 11.9501 9.80803C11.8501 9.69503 11.8035 9.62173 11.8065 9.468C11.8067 9.44207 11.8069 9.41613 11.8072 9.38941C11.8112 9.3073 11.8112 9.3073 11.8492 9.20128C11.9731 9.1623 12.0802 9.14792 12.209 9.16318C12.3375 9.24112 12.4406 9.34232 12.5479 9.44988C12.6539 9.55466 12.7647 9.65359 12.8746 9.75376C12.9211 9.79662 12.9675 9.83949 13.014 9.88236C13.1527 10.0096 13.2947 10.1321 13.4373 10.2543C13.5606 10.3622 13.6807 10.4734 13.801 10.5849C14.8811 11.5793 16.0142 12.2297 17.4799 12.2256C17.5068 12.2256 17.5337 12.2256 17.5614 12.2256C17.9979 12.2243 18.4079 12.1882 18.8291 12.0589C18.8528 12.052 18.8765 12.0451 18.9009 12.0379C19.7821 11.7753 20.4637 11.2377 21.1469 10.614C21.2679 10.5036 21.3897 10.394 21.5117 10.2848C21.5309 10.2677 21.5501 10.2505 21.5698 10.2328C21.6276 10.1811 21.6855 10.1293 21.7433 10.0776C21.8205 10.0086 21.8978 9.93954 21.9749 9.87045C21.9939 9.85353 22.0128 9.83662 22.0323 9.81919C22.1386 9.72395 22.2445 9.62818 22.3499 9.53185C22.3729 9.51087 22.3959 9.4899 22.4195 9.46829C22.4641 9.42756 22.5087 9.38676 22.5531 9.34589C22.7101 9.19981 22.7101 9.19981 22.9081 9.15127C23.0382 9.15139 23.0382 9.15139 23.124 9.22748C23.1922 9.33021 23.2184 9.37995 23.2184 9.5061C23.1025 9.77718 22.9062 9.96612 22.7087 10.1726C22.6711 10.2123 22.6336 10.252 22.5961 10.2918C22.4946 10.3991 22.3929 10.506 22.291 10.6129C22.1844 10.7249 22.0782 10.8373 21.9719 10.9496C21.7707 11.1622 21.5692 11.3744 21.3676 11.5865C21.0062 11.9669 20.6452 12.3478 20.2844 12.7287C20.1577 12.8624 20.0309 12.996 19.904 13.1295C19.8253 13.2123 19.7466 13.2952 19.668 13.3782C19.6315 13.4167 19.5949 13.4552 19.5582 13.4936C19.5084 13.546 19.4587 13.5985 19.4089 13.6509C19.381 13.6803 19.3531 13.7097 19.3244 13.7399C19.2299 13.8465 19.2204 13.9081 19.2207 14.0504C19.2207 14.084 19.2207 14.1175 19.2207 14.1521C19.2209 14.1884 19.2211 14.2246 19.2213 14.262C19.2214 14.3177 19.2214 14.3177 19.2215 14.3745C19.2217 14.4933 19.2221 14.6121 19.2226 14.7309C19.2228 14.8113 19.2229 14.8917 19.2231 14.9721C19.2235 15.1695 19.2241 15.3669 19.2248 15.5643C19.4148 15.5643 19.6048 15.5643 19.8005 15.5643C19.7872 15.4821 19.774 15.3999 19.7603 15.3152C19.7061 14.8484 19.6891 14.3816 19.9683 13.9905C20.2903 13.5852 20.6703 13.2335 21.0501 12.8905C21.1717 12.7786 21.2755 12.6604 21.3795 12.5304C21.5412 12.3381 21.7178 12.1603 21.8908 11.9796C21.9643 11.9028 22.0376 11.8258 22.1109 11.7488C22.3191 11.53 22.5273 11.3113 22.7361 11.0932C22.8643 10.9593 22.9922 10.825 23.1198 10.6904C23.1682 10.6395 23.2168 10.5887 23.2655 10.538C23.3337 10.4671 23.4014 10.3958 23.4691 10.3243C23.499 10.2935 23.499 10.2935 23.5295 10.2621C23.7267 10.0516 23.8479 9.81502 23.8672 9.51711C23.8628 9.17492 23.7392 8.91453 23.513 8.675C23.2494 8.48341 22.9978 8.43334 22.6788 8.47734C22.3617 8.57179 22.1207 8.83613 21.881 9.06313C21.7741 9.16385 21.6654 9.26232 21.5567 9.36084C21.5356 9.38 21.5145 9.39916 21.4928 9.4189C21.3375 9.55989 21.1793 9.69698 21.0204 9.83339C20.918 9.92326 20.8179 10.0153 20.718 10.1081C20.077 10.739 20.077 10.739 19.2968 11.1064C19.3093 11.0752 19.3219 11.0439 19.3349 11.0117C19.3512 10.9707 19.3676 10.9296 19.3845 10.8873C19.4008 10.8466 19.417 10.806 19.4338 10.7641C19.6107 10.29 19.5604 9.67597 19.3888 9.20917C19.3041 9.02455 19.2026 8.86516 19.0809 8.70596C19.0535 8.66588 19.026 8.6258 18.9977 8.5845C18.605 8.14926 18.0722 7.92067 17.5091 7.92486ZM18.6132 9.12508C18.8814 9.51102 18.9458 9.91087 18.901 10.3824C18.8161 10.8015 18.5773 11.1244 18.2534 11.3731C17.9356 11.5785 17.5664 11.6342 17.2033 11.5636C16.8648 11.4728 16.5589 11.2916 16.3465 10.9921C16.1104 10.5565 16.0245 10.1454 16.118 9.64898C16.2512 9.22459 16.5339 8.90591 16.9014 8.69375C17.519 8.41034 18.1741 8.60293 18.6132 9.12508Z" fill="white"/>
<path d="M17.5064 15.8506C17.4547 15.851 17.4547 15.851 17.4021 15.8513C16.935 15.8636 16.5655 16.0136 16.1999 16.3269C16.1621 16.356 16.1242 16.3851 16.0852 16.415C15.7383 16.7661 15.4878 17.2772 15.4647 17.7888C15.4639 17.8587 15.4639 17.9287 15.4646 17.9987C15.465 18.0538 15.465 18.0538 15.4654 18.1101C15.4715 18.3893 15.5078 18.6266 15.6242 18.8798C15.6412 18.9168 15.6581 18.9539 15.6755 18.9921C15.7723 19.1905 15.8774 19.3631 16.02 19.5275C15.993 19.5335 15.966 19.5396 15.9382 19.5458C15.3888 19.6784 14.9665 19.9493 14.644 20.4469C14.418 20.8385 14.318 21.1984 14.3157 21.6532C14.3153 21.6921 14.315 21.731 14.3147 21.7711C14.3142 21.853 14.3138 21.935 14.3137 22.0169C14.3133 22.1421 14.3115 22.2673 14.3097 22.3926C14.3094 22.4724 14.3091 22.5522 14.3089 22.6319C14.3079 22.688 14.3079 22.688 14.3068 22.7451C14.3079 22.9229 14.3087 23.0052 14.4142 23.1493C15.1095 23.6938 16.1349 23.799 16.975 23.8027C17.0336 23.803 17.0336 23.803 17.0933 23.8033C17.1758 23.8037 17.2583 23.8039 17.3407 23.8041C17.4639 23.8045 17.5871 23.8056 17.7104 23.8068C18.6645 23.8117 19.7254 23.7429 20.5533 23.1853C20.6471 23.0759 20.6748 23.0055 20.6758 22.8585C20.6762 22.8241 20.6767 22.7897 20.6772 22.7543C20.6771 22.7174 20.677 22.6804 20.6769 22.6424C20.677 22.6039 20.6772 22.5655 20.6774 22.5258C20.6777 22.4444 20.6776 22.3629 20.6773 22.2814C20.677 22.158 20.678 22.0348 20.6792 21.9114C20.6817 21.1471 20.6817 21.1471 20.5173 20.7849C20.4996 20.743 20.4819 20.7011 20.4637 20.6579C20.13 20.0241 19.6393 19.7297 19.0062 19.4894C19.031 19.4534 19.031 19.4534 19.0563 19.4168C19.3542 18.9766 19.5316 18.5655 19.5279 18.0153C19.5277 17.9789 19.5275 17.9424 19.5273 17.9048C19.5157 17.4102 19.3741 17.0189 19.0782 16.6317C19.0507 16.5917 19.0233 16.5516 18.995 16.5103C18.6023 16.075 18.0695 15.8465 17.5064 15.8506ZM18.6105 17.0509C18.8787 17.4368 18.9431 17.8367 18.8983 18.3082C18.8134 18.7273 18.5746 19.0502 18.2507 19.2989C17.9329 19.5043 17.5636 19.56 17.2006 19.4894C16.8621 19.3986 16.5562 19.2173 16.3438 18.9179C16.1077 18.4822 16.0218 18.0711 16.1153 17.5748C16.2485 17.1504 16.5312 16.8317 16.8987 16.6195C17.5163 16.3361 18.1713 16.5287 18.6105 17.0509ZM19.7618 20.7087C20.0804 21.1696 20.0914 21.6435 20.0878 22.1947C20.0877 22.2423 20.0875 22.29 20.0874 22.3392C20.0869 22.4561 20.0863 22.573 20.0856 22.69C18.7754 23.415 16.8443 23.3413 15.4466 22.94C15.4209 22.9327 15.3951 22.9253 15.3686 22.9177C15.1977 22.8648 15.0564 22.7887 14.9047 22.69C14.9026 22.528 14.9013 22.3661 14.9002 22.2042C14.8993 22.1363 14.8993 22.1363 14.8984 22.0671C14.8953 21.4765 14.9724 20.9996 15.3637 20.5579C15.7967 20.14 16.3055 20.1311 16.8604 20.1307C16.9106 20.1306 16.9608 20.1305 17.011 20.1304C17.1159 20.1301 17.2207 20.1301 17.3256 20.1301C17.4588 20.1301 17.592 20.1296 17.7252 20.1289C17.8288 20.1285 17.9324 20.1284 18.036 20.1284C18.1086 20.1284 18.1812 20.1279 18.2538 20.1275C18.8525 20.1291 19.3438 20.2228 19.7618 20.7087Z" fill="white"/>
<path d="M12.0439 14.9356C11.9923 14.9359 11.9923 14.9359 11.9396 14.9363C11.4725 14.9486 11.103 15.0985 10.7375 15.4119C10.6996 15.441 10.6618 15.47 10.6228 15.5C10.2759 15.851 10.0254 16.3622 10.0023 16.8738C10.0014 16.9437 10.0014 17.0137 10.0021 17.0836C10.0026 17.1388 10.0026 17.1388 10.003 17.1951C10.0091 17.4743 10.0453 17.7115 10.1618 17.9647C10.1787 18.0018 10.1957 18.0389 10.2131 18.0771C10.3099 18.2755 10.4149 18.4481 10.5576 18.6125C10.5318 18.6176 10.5061 18.6228 10.4796 18.6281C9.92369 18.7553 9.50905 19.0408 9.18532 19.5291C8.95345 19.9176 8.85558 20.2837 8.85322 20.7381C8.85289 20.7771 8.85257 20.816 8.85223 20.8561C8.85171 20.938 8.85139 21.0199 8.85126 21.1018C8.85083 21.2271 8.84906 21.3523 8.84725 21.4776C8.84691 21.5573 8.84665 21.6371 8.84647 21.7169C8.84542 21.7729 8.84542 21.7729 8.84434 21.8301C8.84546 22.0079 8.84626 22.0901 8.9518 22.2342C9.64703 22.7788 10.6725 22.8839 11.5125 22.8876C11.5711 22.888 11.5711 22.888 11.6309 22.8883C11.7133 22.8887 11.7958 22.8889 11.8783 22.8891C12.0015 22.8894 12.1247 22.8906 12.2479 22.8918C12.7721 22.8944 13.2781 22.8538 13.7956 22.7656C13.8386 22.6126 13.8165 22.5112 13.7799 22.356C13.7644 22.2891 13.7644 22.2891 13.7486 22.2209C13.7404 22.1869 13.7321 22.1529 13.7237 22.1179C13.6592 22.1234 13.5948 22.1289 13.5303 22.1345C13.4765 22.1392 13.4765 22.1392 13.4215 22.1439C13.3519 22.1504 13.2823 22.1571 13.2128 22.165C12.0553 22.2965 10.5408 22.3798 9.47821 21.7749C9.47609 21.613 9.47483 21.4511 9.47371 21.2891C9.47281 21.2213 9.47281 21.2213 9.47188 21.1521C9.46897 20.5874 9.53493 20.0991 9.90925 19.6725C10.3426 19.2588 10.8551 19.2541 11.4071 19.2538C11.4582 19.2537 11.5093 19.2535 11.5604 19.2534C11.6671 19.2532 11.7738 19.2531 11.8805 19.2531C12.0162 19.2531 12.1519 19.2526 12.2876 19.252C12.3931 19.2515 12.4985 19.2515 12.6039 19.2515C12.6539 19.2514 12.7039 19.2513 12.7538 19.251C13.2857 19.2481 13.7985 19.2933 14.1982 19.7079C14.2563 19.7744 14.297 19.8268 14.3353 19.9079C14.4894 19.8871 14.5818 19.8308 14.7064 19.7341C14.7381 19.7097 14.7699 19.6853 14.8026 19.6601C14.8265 19.6413 14.8504 19.6225 14.875 19.6031C14.7431 19.2281 14.4459 18.9872 14.1194 18.803C13.9445 18.7233 13.7632 18.6659 13.5798 18.6125C13.5798 18.4783 13.6009 18.4582 13.6787 18.3577C13.9517 17.9841 14.0686 17.5709 14.0655 17.1003C14.0653 17.0638 14.0651 17.0274 14.0649 16.9898C14.0532 16.4952 13.9117 16.1038 13.6157 15.7167C13.5883 15.6766 13.5608 15.6365 13.5325 15.5952C13.1398 15.16 12.6071 14.9314 12.0439 14.9356ZM13.148 16.1358C13.4162 16.5218 13.4806 16.9216 13.4359 17.3932C13.3509 17.8123 13.1121 18.1351 12.7882 18.3838C12.4704 18.5893 12.1012 18.645 11.7381 18.5744C11.3996 18.4835 11.0937 18.3023 10.8814 18.0028C10.6453 17.5672 10.5593 17.1561 10.6529 16.6597C10.7861 16.2353 11.0687 15.9167 11.4362 15.7045C12.0538 15.4211 12.7089 15.6137 13.148 16.1358Z" fill="white"/>
<path d="M22.9751 14.9356C22.9235 14.9359 22.9235 14.9359 22.8708 14.9363C22.4037 14.9486 22.0342 15.0985 21.6687 15.4119C21.6308 15.441 21.593 15.47 21.554 15.5C21.2071 15.851 20.9566 16.3622 20.9335 16.8738C20.9326 16.9437 20.9326 17.0137 20.9333 17.0836C20.9338 17.1388 20.9338 17.1388 20.9342 17.1951C20.9403 17.4743 20.9765 17.7115 21.093 17.9647C21.1099 18.0018 21.1269 18.0389 21.1443 18.0771C21.2411 18.2755 21.3461 18.4481 21.4888 18.6125C21.4618 18.6185 21.4348 18.6245 21.407 18.6308C20.9221 18.7478 20.4936 18.9799 20.1845 19.4078C20.1638 19.4471 20.143 19.4864 20.1216 19.5269C20.1683 19.6755 20.2271 19.6996 20.3509 19.7817C20.4037 19.8173 20.4037 19.8173 20.4575 19.8536C20.5533 19.9079 20.5533 19.9079 20.6613 19.9079C20.7142 19.8493 20.7142 19.8493 20.7714 19.7698C21.0066 19.4722 21.3231 19.314 21.6838 19.2682C21.8891 19.2505 22.0953 19.2539 22.3011 19.2538C22.3521 19.2537 22.4031 19.2535 22.4541 19.2534C22.5606 19.2532 22.6672 19.2531 22.7738 19.2531C22.9091 19.2531 23.0445 19.2526 23.1799 19.252C23.2852 19.2515 23.3904 19.2515 23.4957 19.2515C23.5455 19.2514 23.5954 19.2513 23.6452 19.251C24.2071 19.2479 24.7017 19.2962 25.1291 19.7167C25.5149 20.17 25.5244 20.7014 25.5206 21.2796C25.5205 21.3273 25.5203 21.375 25.5201 21.4241C25.5197 21.5411 25.5191 21.658 25.5184 21.7749C24.3205 22.3269 22.8839 22.331 21.6067 22.1332C21.494 22.1185 21.3863 22.1151 21.2729 22.1179C21.2537 22.1971 21.2351 22.2765 21.2167 22.356C21.2062 22.4002 21.1958 22.4444 21.1851 22.4899C21.166 22.6068 21.1702 22.6563 21.2009 22.7656C21.7506 22.8579 22.2883 22.8982 22.8447 22.8948C22.9638 22.8942 23.0829 22.8948 23.202 22.8955C24.1479 22.8965 25.202 22.8225 26.0221 22.2703C26.1159 22.1609 26.1436 22.0905 26.1445 21.9434C26.145 21.9091 26.1455 21.8747 26.1459 21.8393C26.1458 21.8023 26.1457 21.7654 26.1456 21.7273C26.1458 21.6889 26.146 21.6504 26.1462 21.6108C26.1464 21.5293 26.1464 21.4478 26.1461 21.3664C26.1457 21.243 26.1468 21.1197 26.1479 20.9964C26.1504 20.2321 26.1504 20.2321 25.9861 19.8698C25.9684 19.8279 25.9507 19.786 25.9324 19.7429C25.5987 19.109 25.1081 18.8147 24.475 18.5744C24.4998 18.5384 24.4998 18.5384 24.525 18.5017C24.823 18.0616 25.0003 17.6504 24.9967 17.1003C24.9965 17.0638 24.9963 17.0274 24.9961 16.9898C24.9844 16.4952 24.8428 16.1038 24.5469 15.7167C24.5195 15.6766 24.492 15.6365 24.4637 15.5952C24.071 15.16 23.5383 14.9314 22.9751 14.9356ZM24.0792 16.1358C24.3474 16.5218 24.4118 16.9216 24.3671 17.3932C24.2821 17.8123 24.0433 18.1351 23.7194 18.3838C23.4016 18.5893 23.0324 18.645 22.6693 18.5744C22.3308 18.4835 22.0249 18.3023 21.8126 18.0028C21.5765 17.5672 21.4905 17.1561 21.584 16.6597C21.7173 16.2353 21.9999 15.9167 22.3674 15.7045C22.985 15.4211 23.6401 15.6137 24.0792 16.1358Z" fill="white"/>
</g>
<defs>
<clipPath id="clip0_3350_433124">
<rect width="18.4211" height="19.4444" fill="white" transform="matrix(-1 0 0 1 26.7109 7.77637)"/>
</clipPath>
</defs>
</svg>
