<svg width="18" height="18" viewBox="0 0 18 18" fill="none" xmlns="http://www.w3.org/2000/svg">
<g clip-path="url(#clip0_1077_48530)">
<path d="M9.89877 0.619515C10.0649 0.781355 10.1328 0.878642 10.1411 1.11217C10.141 1.19139 10.1402 1.27062 10.1388 1.34983C10.1386 1.39167 10.1384 1.43351 10.1382 1.47662C10.1374 1.60988 10.1357 1.7431 10.1339 1.87635C10.1332 1.96685 10.1325 2.05735 10.132 2.14785C10.1304 2.36937 10.1281 2.59088 10.1251 2.81239C10.1637 2.81226 10.2022 2.81213 10.242 2.81199C11.1803 2.80887 12.1186 2.80656 13.057 2.8051C13.5107 2.80437 13.9645 2.80339 14.4183 2.80178C14.8137 2.80038 15.2092 2.79947 15.6046 2.79915C15.8141 2.79897 16.0235 2.79854 16.2329 2.79752C16.43 2.79656 16.6271 2.79627 16.8242 2.79648C16.8965 2.79644 16.9689 2.79616 17.0413 2.79562C17.14 2.79492 17.2388 2.79509 17.3375 2.79548C17.3662 2.79507 17.3949 2.79466 17.4244 2.79423C17.6087 2.79617 17.7155 2.82787 17.8595 2.95301C18.0487 3.14838 18.0197 3.37524 18.0179 3.631C18.0181 3.67918 18.0183 3.72736 18.0186 3.77553C18.0192 3.90773 18.0189 4.03992 18.0185 4.17211C18.0182 4.31475 18.0186 4.45739 18.019 4.60003C18.0197 4.87939 18.0195 5.15874 18.0191 5.4381C18.0188 5.66513 18.0188 5.89216 18.0189 6.11918C18.0189 6.15149 18.019 6.18379 18.019 6.21708C18.019 6.2827 18.0191 6.34832 18.0191 6.41395C18.0195 7.0294 18.019 7.64484 18.0183 8.26028C18.0177 8.78844 18.0178 9.31658 18.0184 9.84473C18.0192 10.458 18.0195 11.0712 18.019 11.6844C18.019 11.7498 18.019 11.8152 18.0189 11.8806C18.0189 11.9128 18.0189 11.9449 18.0188 11.9781C18.0187 12.2048 18.0189 12.4316 18.0193 12.6584C18.0197 12.9347 18.0195 13.2111 18.0188 13.4874C18.0184 13.6284 18.0183 13.7694 18.0187 13.9104C18.0192 14.0395 18.0189 14.1685 18.0182 14.2976C18.018 14.3664 18.0184 14.4353 18.0189 14.5041C18.0155 14.8857 18.0155 14.8857 17.8595 15.0468C17.6878 15.196 17.5546 15.2074 17.3375 15.2043C17.3066 15.2044 17.2757 15.2045 17.2439 15.2047C17.1406 15.2049 17.0373 15.2041 16.934 15.2034C16.8598 15.2033 16.7856 15.2033 16.7115 15.2034C16.5103 15.2035 16.3091 15.2026 16.1079 15.2016C15.8976 15.2008 15.6873 15.2007 15.477 15.2005C15.0789 15.2001 14.6807 15.1989 14.2825 15.1975C13.8292 15.1959 13.3759 15.1952 12.9225 15.1945C11.9901 15.193 11.0576 15.1905 10.1251 15.1874C10.1254 15.2107 10.1257 15.234 10.126 15.258C10.1292 15.501 10.1313 15.7439 10.1328 15.9869C10.1335 16.0775 10.1345 16.1682 10.1357 16.2588C10.1374 16.3892 10.1382 16.5196 10.1388 16.6499C10.1395 16.6904 10.1403 16.7308 10.141 16.7725C10.1411 16.9941 10.1348 17.1291 9.98446 17.2968C9.85973 17.4183 9.75971 17.4468 9.59081 17.4503C9.20801 17.4448 8.83334 17.3586 8.45848 17.2874C8.37188 17.2712 8.28528 17.2551 8.19866 17.2391C7.98876 17.2 7.77893 17.1606 7.56912 17.1209C7.32451 17.0747 7.07982 17.029 6.83512 16.9832C6.39849 16.9016 5.96194 16.8195 5.52542 16.7372C5.10229 16.6575 4.67911 16.578 4.25585 16.499C3.79414 16.4127 3.33247 16.3263 2.87085 16.2395C2.82161 16.2302 2.77238 16.221 2.72314 16.2117C2.69892 16.2072 2.6747 16.2026 2.64974 16.1979C2.47936 16.1659 2.30895 16.134 2.13854 16.1022C1.90919 16.0593 1.67991 16.0162 1.45066 15.9728C1.36654 15.9569 1.2824 15.9411 1.19824 15.9255C1.08337 15.9041 0.968579 15.8823 0.853797 15.8605C0.803838 15.8513 0.803838 15.8513 0.75287 15.8419C0.474368 15.7882 0.263661 15.7247 0.0704019 15.5038C-0.0117151 15.3806 -0.00879563 15.3318 -0.00905376 15.1862C-0.00930216 15.1415 -0.00954993 15.0969 -0.00980585 15.0509C-0.0097267 15.0011 -0.00964048 14.9513 -0.00954836 14.9015C-0.00970481 14.8488 -0.00989162 14.7961 -0.0101063 14.7434C-0.0106061 14.5982 -0.0106635 14.453 -0.0106481 14.3078C-0.0107059 14.1514 -0.0111647 13.9949 -0.0115686 13.8385C-0.0123728 13.4962 -0.0126505 13.1539 -0.0128282 12.8117C-0.0129426 12.598 -0.0131728 12.3844 -0.0134268 12.1708C-0.0141148 11.5795 -0.0146905 10.9882 -0.0147926 10.3969C-0.0147992 10.359 -0.0148062 10.3212 -0.014813 10.2822C-0.0148259 10.2054 -0.0148389 10.1287 -0.0148516 10.0519C-0.0148581 10.0138 -0.0148643 9.97572 -0.0148709 9.93647C-0.0148773 9.89832 -0.0148837 9.86018 -0.0148902 9.82088C-0.0150148 9.20269 -0.0159652 8.5845 -0.0172796 7.96631C-0.0186176 7.3319 -0.0192988 6.6975 -0.0193095 6.06309C-0.01933 5.70679 -0.0196297 5.35048 -0.0206452 4.99417C-0.0215059 4.69078 -0.0217638 4.38739 -0.0212342 4.08399C-0.0209817 3.92917 -0.0210145 3.77435 -0.0218114 3.61953C-0.0225341 3.47778 -0.0224442 3.33606 -0.0217095 3.19431C-0.0215864 3.14304 -0.0217607 3.09177 -0.022262 3.0405C-0.0261985 2.61024 -0.0261985 2.61024 0.0783444 2.45282C0.222166 2.30909 0.338013 2.24336 0.536977 2.20618C0.573968 2.19908 0.610958 2.19199 0.649069 2.18469C0.689622 2.17728 0.730175 2.16988 0.771956 2.16224C0.837147 2.1499 0.837147 2.1499 0.903654 2.13731C1.02492 2.11435 1.14626 2.09183 1.26761 2.06938C1.39951 2.04489 1.53132 2.02 1.66315 1.99515C1.86572 1.957 2.06832 1.91899 2.27094 1.88113C2.69671 1.80156 3.12229 1.72098 3.54783 1.6402C4.19385 1.51759 4.83999 1.39559 5.48622 1.27407C5.85903 1.20395 6.23182 1.13366 6.60453 1.06299C6.93697 0.999962 7.26947 0.937221 7.60204 0.874835C7.77598 0.842197 7.94988 0.809423 8.12372 0.776294C8.28543 0.745485 8.4472 0.715069 8.60903 0.684949C8.66788 0.673925 8.72671 0.662763 8.78551 0.651443C9.61794 0.491416 9.61794 0.491416 9.89877 0.619515ZM10.1251 3.93739C10.1251 4.30864 10.1251 4.67989 10.1251 5.06239C10.327 5.06375 10.327 5.06375 10.533 5.06513C10.6635 5.06648 10.7941 5.06807 10.9246 5.06968C11.0152 5.07067 11.1059 5.07142 11.1965 5.07191C11.3269 5.07267 11.4573 5.07431 11.5876 5.07612C11.6281 5.07616 11.6685 5.07621 11.7102 5.07625C11.9298 5.08026 12.0685 5.08854 12.2345 5.23817C12.3771 5.42177 12.3671 5.6127 12.3399 5.83582C12.263 5.99827 12.1816 6.07175 12.0235 6.15223C11.9303 6.16625 11.9303 6.16625 11.8293 6.16743C11.7913 6.16813 11.7533 6.16882 11.7142 6.16954C11.6735 6.16976 11.6329 6.16999 11.5911 6.17022C11.5282 6.17117 11.5282 6.17117 11.4641 6.17213C11.3305 6.17404 11.1969 6.17523 11.0633 6.1764C10.9727 6.17757 10.882 6.17878 10.7913 6.18004C10.5693 6.18311 10.3472 6.18522 10.1251 6.18739C10.1251 6.55864 10.1251 6.92989 10.1251 7.31239C10.2597 7.31329 10.3943 7.3142 10.533 7.31513C10.6635 7.31648 10.7941 7.31807 10.9246 7.31968C11.0152 7.32067 11.1059 7.32142 11.1965 7.32191C11.3269 7.32267 11.4573 7.32431 11.5876 7.32612C11.6281 7.32616 11.6685 7.32621 11.7102 7.32625C11.9298 7.33026 12.0685 7.33854 12.2345 7.48817C12.3771 7.67177 12.3671 7.8627 12.3399 8.08582C12.263 8.24827 12.1816 8.32175 12.0235 8.40223C11.9303 8.41625 11.9303 8.41625 11.8293 8.41743C11.7913 8.41813 11.7533 8.41882 11.7142 8.41954C11.6735 8.41976 11.6329 8.41999 11.5911 8.42022C11.5282 8.42117 11.5282 8.42117 11.4641 8.42213C11.3305 8.42404 11.1969 8.42523 11.0633 8.4264C10.9727 8.42757 10.882 8.42878 10.7913 8.43004C10.5693 8.43311 10.3472 8.43522 10.1251 8.43739C10.1251 8.80864 10.1251 9.17989 10.1251 9.56239C10.2597 9.56329 10.3943 9.5642 10.533 9.56513C10.6635 9.56648 10.7941 9.56807 10.9246 9.56968C11.0152 9.57067 11.1059 9.57142 11.1965 9.57191C11.3269 9.57267 11.4573 9.57431 11.5876 9.57612C11.6281 9.57616 11.6685 9.57621 11.7102 9.57625C11.9298 9.58026 12.0685 9.58854 12.2345 9.73817C12.3771 9.92177 12.3671 10.1127 12.3399 10.3358C12.263 10.4983 12.1816 10.5718 12.0235 10.6522C11.9303 10.6662 11.9303 10.6662 11.8293 10.6674C11.7913 10.6681 11.7533 10.6688 11.7142 10.6695C11.6735 10.6698 11.6329 10.67 11.5911 10.6702C11.5492 10.6709 11.5073 10.6715 11.4641 10.6721C11.3305 10.674 11.1969 10.6752 11.0633 10.6764C10.9727 10.6776 10.882 10.6788 10.7913 10.68C10.5693 10.6831 10.3472 10.6852 10.1251 10.6874C10.1251 11.0586 10.1251 11.4299 10.1251 11.8124C10.2597 11.8133 10.3943 11.8142 10.533 11.8151C10.6635 11.8165 10.7941 11.8181 10.9246 11.8197C11.0152 11.8207 11.1059 11.8214 11.1965 11.8219C11.3269 11.8227 11.4573 11.8243 11.5876 11.8261C11.6281 11.8262 11.6685 11.8262 11.7102 11.8262C11.9298 11.8303 12.0685 11.8385 12.2345 11.9882C12.3771 12.1718 12.3671 12.3627 12.3399 12.5858C12.263 12.7483 12.1816 12.8218 12.0235 12.9022C11.9303 12.9162 11.9303 12.9162 11.8293 12.9174C11.7913 12.9181 11.7533 12.9188 11.7142 12.9195C11.6735 12.9198 11.6329 12.92 11.5911 12.9202C11.5492 12.9209 11.5073 12.9215 11.4641 12.9221C11.3305 12.924 11.1969 12.9252 11.0633 12.9264C10.9727 12.9276 10.882 12.9288 10.7913 12.93C10.5693 12.9331 10.3472 12.9352 10.1251 12.9374C10.1251 13.3086 10.1251 13.6799 10.1251 14.0624C12.3526 14.0624 14.5801 14.0624 16.8751 14.0624C16.8751 10.7211 16.8751 7.37989 16.8751 3.93739C14.6476 3.93739 12.4201 3.93739 10.1251 3.93739ZM6.76327 5.98524C6.7411 6.01241 6.7411 6.01241 6.71849 6.04013C6.57902 6.21281 6.44666 6.39087 6.31441 6.5691C6.17517 6.75634 6.03095 6.93898 5.88445 7.12056C5.73836 7.30184 5.59606 7.48576 5.4548 7.67081C5.40406 7.73681 5.35203 7.80183 5.2988 7.86582C5.23127 7.9379 5.23127 7.9379 5.23837 8.01551C5.21517 8.01551 5.19196 8.01551 5.16806 8.01551C5.15616 7.98676 5.15616 7.98676 5.14403 7.95742C5.08398 7.85034 5.00386 7.76755 4.91977 7.67933C4.79292 7.54387 4.67109 7.40683 4.55502 7.26185C4.41827 7.09196 4.27343 6.93177 4.12449 6.77264C4.02487 6.66617 3.92828 6.55823 3.83432 6.44666C3.72413 6.32171 3.64138 6.23458 3.4693 6.21169C3.26781 6.20177 3.14298 6.22328 2.98837 6.36317C2.85023 6.51585 2.83161 6.63773 2.82907 6.83558C2.87286 7.0468 3.04761 7.21249 3.18612 7.37171C3.20463 7.39316 3.22313 7.41461 3.2422 7.43671C3.38488 7.60142 3.53149 7.76216 3.67886 7.92268C3.7887 8.0456 3.89142 8.17364 3.99431 8.30239C4.05625 8.37609 4.11834 8.44521 4.18519 8.51415C4.20319 8.53287 4.22118 8.55159 4.23972 8.57088C4.2749 8.60714 4.31052 8.64297 4.34662 8.67832C4.41941 8.7536 4.46337 8.80185 4.47084 8.90829C4.41038 9.04315 4.32115 9.14531 4.22543 9.25697C4.18341 9.30725 4.14148 9.3576 4.09964 9.40803C4.07836 9.43366 4.05708 9.45928 4.03516 9.48569C3.93965 9.60305 3.84949 9.72413 3.75961 9.84583C3.61995 10.0345 3.47663 10.2193 3.32895 10.4017C2.96346 10.8203 2.96346 10.8203 2.838 11.3364C2.85737 11.5138 2.95339 11.605 3.08066 11.7201C3.23757 11.7957 3.37967 11.8127 3.55087 11.7772C3.70906 11.6885 3.81533 11.5858 3.9288 11.4454C3.94381 11.427 3.95882 11.4085 3.97429 11.3895C4.10827 11.2237 4.23823 11.0548 4.36743 10.8853C4.48251 10.7344 4.59892 10.5845 4.71542 10.4347C4.74695 10.3942 4.74695 10.3942 4.77912 10.3528C4.93059 10.1583 5.08333 9.96496 5.23837 9.77332C5.42398 9.91944 5.56535 10.079 5.71229 10.2635C5.80808 10.3797 5.90874 10.4897 6.01181 10.5995C6.13942 10.7357 6.26203 10.8733 6.37875 11.0192C6.50676 11.1781 6.64067 11.3303 6.77865 11.4806C6.79805 11.502 6.81744 11.5234 6.83742 11.5454C6.95506 11.6723 7.0429 11.7639 7.22003 11.789C7.42176 11.7922 7.5434 11.7777 7.69931 11.6366C7.83745 11.4839 7.85607 11.362 7.85861 11.1642C7.81482 10.953 7.64007 10.7873 7.50155 10.6281C7.48305 10.6066 7.46455 10.5852 7.44548 10.5631C7.30275 10.3983 7.15611 10.2375 7.00868 10.077C6.92673 9.98522 6.84911 9.89116 6.77206 9.7953C6.63386 9.62396 6.48736 9.46248 6.33726 9.30166C6.21333 9.16885 6.09329 9.03373 5.97665 8.89442C6.02807 8.73989 6.11231 8.62571 6.21396 8.50111C6.24909 8.45722 6.2842 8.41332 6.31929 8.36941C6.33791 8.34621 6.35653 8.32301 6.37571 8.29911C6.47608 8.1733 6.57455 8.04601 6.67318 7.91883C6.71497 7.86504 6.75677 7.81125 6.79857 7.75747C6.81951 7.73051 6.84045 7.70355 6.86203 7.67578C6.94726 7.56612 7.03259 7.45655 7.11792 7.34698C7.19913 7.24263 7.28024 7.1382 7.36134 7.03376C7.41566 6.96391 7.47013 6.89417 7.52463 6.82446C7.55649 6.78349 7.58835 6.74252 7.62021 6.70155C7.64758 6.66647 7.67495 6.63139 7.70315 6.59525C7.84415 6.40123 7.87008 6.24977 7.83993 6.0116C7.75803 5.8415 7.65848 5.74195 7.48837 5.66004C7.15582 5.60696 6.97227 5.72812 6.76327 5.98524Z" fill="#C81C1F"/>
<path d="M14.2051 11.7938C14.2386 11.7937 14.2721 11.7936 14.3067 11.7934C14.3774 11.7933 14.4481 11.7936 14.5187 11.7942C14.6266 11.7949 14.7344 11.7942 14.8423 11.7933C14.9111 11.7934 14.98 11.7936 15.0488 11.7938C15.097 11.7934 15.097 11.7934 15.1461 11.793C15.3423 11.7958 15.4558 11.8222 15.6113 11.9531C15.7389 12.0874 15.7629 12.1951 15.7695 12.375C15.7629 12.5549 15.7389 12.6626 15.6113 12.7969C15.4263 12.9526 15.2801 12.9582 15.0488 12.9562C14.9985 12.9564 14.9985 12.9564 14.9472 12.9566C14.8765 12.9567 14.8058 12.9564 14.7352 12.9558C14.6273 12.9551 14.5195 12.9558 14.4116 12.9567C14.3428 12.9566 14.2739 12.9565 14.2051 12.9562C14.1569 12.9566 14.1569 12.9566 14.1078 12.957C13.9116 12.9542 13.7982 12.9278 13.6426 12.7969C13.515 12.6626 13.4911 12.5549 13.4844 12.375C13.4911 12.1951 13.515 12.0874 13.6426 11.9531C13.8276 11.7974 13.9738 11.7918 14.2051 11.7938Z" fill="#C81C1F"/>
<path d="M14.2051 9.54383C14.2386 9.5437 14.2721 9.54356 14.3067 9.54342C14.3774 9.54333 14.4481 9.54359 14.5187 9.54417C14.6266 9.54493 14.7344 9.54418 14.8423 9.54328C14.9111 9.54337 14.98 9.54356 15.0488 9.54383C15.097 9.5434 15.097 9.5434 15.1461 9.54297C15.3423 9.54584 15.4558 9.57224 15.6113 9.70313C15.7389 9.83741 15.7629 9.94511 15.7695 10.125C15.7629 10.3049 15.7389 10.4126 15.6113 10.5469C15.4263 10.7026 15.2801 10.7082 15.0488 10.7062C14.9985 10.7064 14.9985 10.7064 14.9472 10.7066C14.8765 10.7067 14.8058 10.7064 14.7352 10.7058C14.6273 10.7051 14.5195 10.7058 14.4116 10.7067C14.3428 10.7066 14.2739 10.7065 14.2051 10.7062C14.1569 10.7066 14.1569 10.7066 14.1078 10.707C13.9116 10.7042 13.7982 10.6778 13.6426 10.5469C13.515 10.4126 13.4911 10.3049 13.4844 10.125C13.4911 9.94511 13.515 9.83741 13.6426 9.70313C13.8276 9.54743 13.9738 9.54178 14.2051 9.54383Z" fill="#C81C1F"/>
<path d="M14.2051 7.29383C14.2386 7.2937 14.2721 7.29356 14.3067 7.29342C14.3774 7.29333 14.4481 7.29359 14.5187 7.29417C14.6266 7.29493 14.7344 7.29418 14.8423 7.29328C14.9111 7.29337 14.98 7.29356 15.0488 7.29383C15.097 7.2934 15.097 7.2934 15.1461 7.29297C15.3423 7.29584 15.4558 7.32224 15.6113 7.45313C15.7389 7.58741 15.7629 7.69511 15.7695 7.87501C15.7629 8.05491 15.7389 8.16261 15.6113 8.29688C15.4263 8.45259 15.2801 8.45824 15.0488 8.45618C14.9985 8.45639 14.9985 8.45639 14.9472 8.45659C14.8765 8.45669 14.8058 8.45643 14.7352 8.45584C14.6273 8.45509 14.5195 8.45584 14.4116 8.45673C14.3428 8.45664 14.2739 8.45646 14.2051 8.45618C14.1569 8.45661 14.1569 8.45661 14.1078 8.45705C13.9116 8.45417 13.7982 8.42777 13.6426 8.29688C13.515 8.16261 13.4911 8.05491 13.4844 7.87501C13.4911 7.69511 13.515 7.58741 13.6426 7.45313C13.8276 7.29743 13.9738 7.29178 14.2051 7.29383Z" fill="#C81C1F"/>
<path d="M14.2051 5.04383C14.2386 5.0437 14.2721 5.04356 14.3067 5.04342C14.3774 5.04333 14.4481 5.04359 14.5187 5.04417C14.6266 5.04493 14.7344 5.04418 14.8423 5.04328C14.9111 5.04337 14.98 5.04356 15.0488 5.04383C15.097 5.0434 15.097 5.0434 15.1461 5.04297C15.3423 5.04584 15.4558 5.07224 15.6113 5.20313C15.7389 5.33741 15.7629 5.44511 15.7695 5.62501C15.7629 5.80491 15.7389 5.91261 15.6113 6.04688C15.4263 6.20259 15.2801 6.20824 15.0488 6.20618C14.9985 6.20639 14.9985 6.20639 14.9472 6.20659C14.8765 6.20669 14.8058 6.20643 14.7352 6.20584C14.6273 6.20509 14.5195 6.20584 14.4116 6.20673C14.3428 6.20664 14.2739 6.20646 14.2051 6.20618C14.1569 6.20661 14.1569 6.20661 14.1078 6.20705C13.9116 6.20417 13.7982 6.17777 13.6426 6.04688C13.515 5.91261 13.4911 5.80491 13.4844 5.62501C13.4911 5.44511 13.515 5.33741 13.6426 5.20313C13.8276 5.04743 13.9738 5.04178 14.2051 5.04383Z" fill="#C81C1F"/>
</g>
<defs>
<clipPath id="clip0_1077_48530">
<rect width="18" height="18" fill="white"/>
</clipPath>
</defs>
</svg>
