<svg width="20" height="20" viewBox="0 0 20 20" fill="none" xmlns="http://www.w3.org/2000/svg">
<path d="M17.0284 3.41935C15.2927 1.67955 12.9812 0.722656 10.5248 0.722656C5.45452 0.722656 1.32871 4.84847 1.32871 9.91875C1.32871 11.5384 1.75123 13.1208 2.55485 14.5168L1.25 19.2806L6.12559 18.0006C7.46772 18.7338 8.97969 19.119 10.5207 19.119H10.5248C15.5909 19.119 19.8079 14.9932 19.8079 9.9229C19.8079 7.46646 18.764 5.15915 17.0284 3.41935ZM10.5248 17.5697C9.14953 17.5697 7.80326 17.2011 6.63096 16.5051L6.35342 16.3395L3.46203 17.0975L4.23252 14.2765L4.05025 13.9866C3.28391 12.7687 2.8821 11.3644 2.8821 9.91875C2.8821 5.70595 6.312 2.27605 10.5289 2.27605C12.5711 2.27605 14.4891 3.07139 15.9306 4.51708C17.3722 5.96278 18.2586 7.8807 18.2545 9.9229C18.2545 14.1398 14.7376 17.5697 10.5248 17.5697ZM14.7169 11.845C14.4891 11.729 13.3582 11.1739 13.1469 11.0993C12.9357 11.0206 12.7824 10.9833 12.6291 11.2153C12.4759 11.4473 12.0368 11.961 11.9001 12.1184C11.7675 12.2716 11.6308 12.2923 11.403 12.1764C10.0526 11.5011 9.1661 10.9709 8.27549 9.44238C8.03937 9.03643 8.5116 9.06542 8.9507 8.18724C9.02526 8.03397 8.98798 7.90141 8.92999 7.78543C8.87199 7.66944 8.41219 6.53857 8.22164 6.07876C8.03523 5.63138 7.84468 5.69352 7.70384 5.68524C7.57128 5.67695 7.41801 5.67695 7.26475 5.67695C7.11148 5.67695 6.86293 5.73494 6.65167 5.96278C6.44041 6.19475 5.84805 6.74983 5.84805 7.8807C5.84805 9.01157 6.67238 10.1052 6.78423 10.2584C6.90022 10.4117 8.4039 12.7314 10.7112 13.7298C12.1693 14.3594 12.741 14.4132 13.47 14.3055C13.9133 14.2393 14.8287 13.7505 15.0193 13.212C15.2098 12.6734 15.2098 12.2136 15.1519 12.1184C15.098 12.0148 14.9447 11.9568 14.7169 11.845Z" fill="#00854D"/>
</svg>
