<svg width="35" height="35" viewBox="0 0 35 35" fill="none" xmlns="http://www.w3.org/2000/svg">
<rect width="35" height="35" rx="3" fill="#F96332"/>
<g clip-path="url(#clip0_3419_74573)">
<path d="M11.7 7.04801C11.5773 7.12321 8.11833 10.7702 8.05501 10.8955C7.9719 11.0626 7.9719 14.6803 8.05501 14.8516C8.19353 15.1273 8.59721 15.1273 8.73572 14.8516C8.77926 14.7555 8.79113 14.438 8.79113 13.1221V11.5138H10.0576C11.518 11.5138 11.6129 11.4971 11.9335 11.1545C12.258 10.8161 12.2739 10.7159 12.2739 9.17437V7.83757H16.9676H21.6614L21.796 7.9796L21.9305 8.12164V12.2031V16.2887L21.602 16.6479C21.0598 17.2412 20.7947 17.7174 20.6166 18.415C20.5058 18.8453 20.4979 19.7435 20.5968 20.1195C20.6285 20.2448 20.6562 20.3534 20.6522 20.3576C20.6482 20.3618 20.5453 20.3325 20.4266 20.2991C20.2802 20.2531 20.0309 20.2323 19.6549 20.2323C18.9939 20.2323 18.6655 20.3075 18.1074 20.5999L17.7512 20.7879H16.8687H15.9861L15.8516 20.9299C15.7566 21.0343 15.717 21.1095 15.717 21.2056C15.717 21.3017 15.7566 21.3769 15.8516 21.4813L15.9861 21.6234H16.4294H16.8766L16.465 22.0745C16.2394 22.321 15.9822 22.6343 15.8951 22.7722C15.5548 23.3153 15.3213 24.1132 15.3213 24.7398C15.3213 25.0155 15.4044 25.6589 15.4637 25.8176C15.4875 25.8803 15.2263 25.8844 12.2976 25.8844C8.83071 25.8844 8.94152 25.8928 8.83862 25.6547C8.803 25.5753 8.79113 24.6437 8.79113 21.9325C8.79113 18.0098 8.79905 18.1477 8.57346 18.0391C8.36371 17.9388 8.12229 18.0224 8.04314 18.2271C8.01147 18.3148 7.9996 19.309 8.00752 22.062C8.01939 25.7424 8.01939 25.78 8.1025 25.9722C8.22519 26.2479 8.4112 26.4484 8.66449 26.5821L8.89007 26.6991L12.3768 26.7199L15.8674 26.7408L16.0495 26.9998C17.0151 28.3534 18.9108 28.7836 20.3395 27.969C20.763 27.7309 21.0084 27.5137 21.697 26.7784C22.5281 25.8844 22.7656 25.4959 22.9674 24.7064C23.0782 24.2761 23.0862 23.3779 22.9872 23.002C22.9556 22.8766 22.9278 22.768 22.9318 22.7638C22.9358 22.7597 23.0387 22.7847 23.1574 22.8181C23.9925 23.0479 25.0333 22.8516 25.7971 22.3252C26.1256 22.0996 27.1784 21.0385 27.5108 20.5957C28.892 18.7743 28.2707 16.0213 26.2641 15.0605C25.2075 14.555 23.9252 14.6553 22.9793 15.3111L22.7418 15.4782L22.7221 11.7101C22.7023 8.2219 22.6983 7.92947 22.631 7.77908C22.5163 7.50336 22.3025 7.26525 22.0572 7.13992L21.8316 7.02295L16.8054 7.01459C13.2237 7.00624 11.7554 7.01877 11.7 7.04801ZM11.4823 9.45009V10.436L11.3676 10.5571L11.2528 10.6783H10.3069H9.36499L10.4138 9.57124C10.9916 8.96132 11.4665 8.46419 11.4705 8.46419C11.4784 8.46419 11.4823 8.90701 11.4823 9.45009ZM25.3935 15.6286C25.5478 15.6621 25.813 15.7623 25.9871 15.8542C26.5412 16.1466 26.9211 16.5477 27.1942 17.1325C27.6216 18.0432 27.5464 19.0834 26.9924 19.9398C26.8222 20.2072 25.8526 21.2474 25.5518 21.4855C24.9067 22.0035 23.9806 22.2124 23.284 21.991L23.1139 21.9367L23.4463 21.59L23.7787 21.239L24.0399 21.2223C24.3486 21.2014 24.685 21.0845 24.9344 20.9132C25.0373 20.8464 25.3974 20.4954 25.7338 20.132C26.4185 19.4009 26.5531 19.1753 26.6441 18.6406C26.8499 17.3915 25.7576 16.2344 24.5703 16.4391C24.0558 16.531 23.8421 16.673 23.1455 17.3999C22.8012 17.755 22.4648 18.1393 22.4015 18.2479C22.2471 18.5028 22.1324 18.8913 22.1126 19.2088L22.1007 19.4552L21.7683 19.8103L21.4358 20.1654L21.3844 19.9858C21.1746 19.2505 21.3725 18.273 21.8632 17.5921C22.0888 17.2746 23.0743 16.2511 23.3276 16.0715C23.945 15.6286 24.6771 15.4699 25.3935 15.6286ZM25.2668 17.3539C25.6309 17.5252 25.8644 17.9096 25.8644 18.344C25.8644 18.7492 25.7615 18.9289 25.1679 19.5639C24.879 19.8688 24.6336 20.1195 24.6178 20.1195C24.6019 20.1195 24.5901 20.0192 24.594 19.8981C24.598 19.6015 24.5228 19.3424 24.3605 19.1085C24.131 18.7743 23.8104 18.6072 23.3949 18.6114C23.2642 18.6114 23.1574 18.5988 23.1574 18.5821C23.1574 18.5278 24.1983 17.4626 24.3051 17.4041C24.6257 17.2244 24.9542 17.2077 25.2668 17.3539ZM23.6877 19.5639C23.8025 19.6808 23.8262 19.7936 23.7827 19.9733C23.7392 20.1487 20.4543 23.616 20.2881 23.662C20.1219 23.708 20.0111 23.6787 19.8963 23.5576C19.7815 23.4406 19.7578 23.3278 19.8013 23.1482C19.8448 22.9727 23.1297 19.5054 23.2959 19.4594C23.4621 19.4135 23.5729 19.4427 23.6877 19.5639ZM20.3 21.1304L20.4701 21.1847L20.1377 21.5315L19.8053 21.8824L19.5441 21.8991C19.2354 21.92 18.899 22.0369 18.6496 22.2082C18.5467 22.2751 18.1866 22.626 17.8502 22.9894C17.1655 23.7205 17.031 23.9461 16.9399 24.4808C16.7341 25.7299 17.8264 26.887 19.0137 26.6823C19.5282 26.5904 19.7419 26.4484 20.4385 25.7215C20.7828 25.3664 21.1192 24.9821 21.1825 24.8735C21.3369 24.6187 21.4516 24.2301 21.4714 23.9127L21.4833 23.6662L21.8158 23.3111L22.1482 22.956L22.1996 23.1356C22.4094 23.8709 22.2115 24.8484 21.7208 25.5294C21.4952 25.8468 20.5097 26.8703 20.2564 27.05C19.4451 27.6348 18.4597 27.7142 17.5969 27.2672C17.0547 26.9831 16.6589 26.5654 16.3859 25.9889C15.9386 25.0364 16.0495 23.9419 16.6787 23.0646C16.9004 22.7513 17.8858 21.732 18.1431 21.544C18.4122 21.3518 18.7842 21.1806 19.1048 21.1054C19.4174 21.0302 20.0309 21.0427 20.3 21.1304ZM18.99 23.2442C18.986 23.9795 19.5164 24.5351 20.2169 24.5184C20.3316 24.5142 20.4266 24.5267 20.4266 24.5435C20.4266 24.5602 20.1892 24.8192 19.9002 25.1241C19.2987 25.7508 19.1285 25.8594 18.7446 25.8594C18.1668 25.8594 17.7196 25.3873 17.7196 24.7774C17.7196 24.3722 17.8225 24.1925 18.4161 23.5576C18.705 23.2526 18.9504 23.002 18.9662 23.002C18.9821 23.002 18.9939 23.1106 18.99 23.2442Z" fill="white"/>
<path d="M13.8138 11.5493C13.6634 11.7122 13.6555 11.9545 13.794 12.1258L13.889 12.2428L16.786 12.2553L19.683 12.2637L19.8175 12.1216C19.964 11.9671 19.9877 11.8292 19.8967 11.6412C19.865 11.5786 19.7938 11.5075 19.7344 11.4783C19.6592 11.4407 18.9073 11.4282 16.782 11.4282H13.9286L13.8138 11.5493Z" fill="white"/>
<path d="M10.8923 13.8265C10.6271 13.9811 10.635 14.4239 10.9081 14.5534C10.9872 14.591 12.0796 14.6035 15.3842 14.6035H19.7614L19.8959 14.4615C20.0938 14.2526 20.0621 13.956 19.8286 13.8265C19.6703 13.7429 11.0387 13.7388 10.8923 13.8265Z" fill="white"/>
<path d="M8.20031 16.1644C7.856 16.3649 8.00243 16.9414 8.39424 16.9414C8.59608 16.9414 8.79 16.7367 8.79 16.5278C8.79 16.2145 8.46152 16.0098 8.20031 16.1644Z" fill="white"/>
<path d="M10.8923 16.1644C10.6271 16.319 10.635 16.7618 10.9081 16.8913C10.9833 16.9289 11.7907 16.9414 14.1138 16.9414C16.4369 16.9414 17.2443 16.9289 17.3195 16.8913C17.4343 16.837 17.5372 16.6615 17.5372 16.5237C17.5372 16.3858 17.4343 16.2103 17.3195 16.156C17.1612 16.0808 11.0229 16.0892 10.8923 16.1644Z" fill="white"/>
<path d="M18.8192 16.151C18.5975 16.2429 18.5342 16.6022 18.7004 16.8069C18.7954 16.9197 18.8073 16.9239 19.2743 16.9364L19.7532 16.9531L19.8917 16.8069C20.0421 16.6482 20.0658 16.5145 19.9748 16.3223C19.9431 16.2597 19.8719 16.1886 19.8125 16.1594C19.6938 16.1009 18.9458 16.0967 18.8192 16.151Z" fill="white"/>
<path d="M10.8923 18.5078C10.6271 18.6624 10.635 19.1052 10.9081 19.2347C11.0585 19.3099 19.0173 19.3057 19.1598 19.2305C19.2152 19.2013 19.2904 19.1094 19.33 19.0258C19.3933 18.888 19.3933 18.8587 19.3458 18.7292C19.2231 18.4285 19.5556 18.4493 15.0438 18.4493C11.7511 18.4535 10.9675 18.4619 10.8923 18.5078Z" fill="white"/>
<path d="M10.8914 20.846C10.6223 21.0048 10.6382 21.4559 10.9152 21.5771C10.9983 21.6105 11.4732 21.623 12.6447 21.6147L14.2594 21.6021L14.3544 21.4852C14.485 21.3264 14.485 21.0841 14.3544 20.9254L14.2594 20.8084L12.6209 20.8001C11.3149 20.7917 10.9666 20.8001 10.8914 20.846Z" fill="white"/>
</g>
<defs>
<clipPath id="clip0_3419_74573">
<rect width="20.2632" height="21.3889" fill="white" transform="translate(8 7)"/>
</clipPath>
</defs>
</svg>
