<svg width="20" height="20" viewBox="0 0 20 20" fill="none" xmlns="http://www.w3.org/2000/svg">
<g clip-path="url(#clip0_1054_11615)">
<path d="M15.0378 13.3989C15.4291 13.7332 15.7088 14.1542 15.8581 14.6489C15.8581 14.6876 15.8581 14.7263 15.8581 14.7661C15.9039 14.7657 15.9497 14.7653 15.9969 14.7648C16.4291 14.7608 16.8613 14.7579 17.2935 14.756C17.5157 14.755 17.7379 14.7536 17.96 14.7514C18.1746 14.7493 18.3891 14.7481 18.6036 14.7476C18.6853 14.7472 18.7671 14.7465 18.8488 14.7455C18.9635 14.7441 19.0782 14.7439 19.193 14.744C19.2265 14.7433 19.2601 14.7425 19.2947 14.7418C19.5351 14.7439 19.6951 14.8089 19.8816 14.9614C19.9963 15.1029 20.0148 15.211 20.0134 15.3911C20.0137 15.4306 20.014 15.4701 20.0143 15.5108C19.9897 15.6921 19.9056 15.8149 19.7644 15.9282C19.5736 16.0714 19.4089 16.0606 19.1797 16.0596C19.1259 16.0596 19.1259 16.0596 19.0711 16.0596C18.9525 16.0596 18.8339 16.0593 18.7154 16.059C18.6332 16.0589 18.551 16.0589 18.4689 16.0588C18.2525 16.0587 18.0362 16.0583 17.8198 16.0579C17.5991 16.0575 17.3784 16.0573 17.1577 16.0571C16.7245 16.0567 16.2913 16.056 15.8581 16.0552C15.8529 16.0909 15.8476 16.1266 15.8422 16.1634C15.7369 16.7382 15.3105 17.2131 14.8621 17.5567C14.3961 17.8757 13.8948 18.0315 13.3313 18.0278C13.2701 18.0275 13.2701 18.0275 13.2076 18.0272C12.508 18.0112 11.9298 17.7334 11.4233 17.2503C11.1195 16.931 10.8813 16.5258 10.78 16.0943C10.7583 16.0942 10.7366 16.0942 10.7142 16.0941C9.42636 16.0919 8.13855 16.089 6.85074 16.0853C6.69613 16.0849 6.54153 16.0844 6.38692 16.084C6.35614 16.0839 6.32537 16.0838 6.29365 16.0837C5.79518 16.0824 5.29671 16.0814 4.79824 16.0806C4.28682 16.0797 3.7754 16.0784 3.26398 16.0767C2.94837 16.0757 2.63276 16.075 2.31715 16.0747C2.07519 16.0745 1.83325 16.0737 1.5913 16.0726C1.492 16.0723 1.3927 16.0721 1.2934 16.0722C1.15799 16.0722 1.02261 16.0716 0.887212 16.0708C0.847769 16.071 0.808327 16.0711 0.767689 16.0713C0.497364 16.0686 0.330347 16.0244 0.123286 15.8403C-0.0272059 15.6684 -0.0167769 15.4942 -0.0146531 15.2747C0.00467014 15.105 0.0630016 14.9928 0.194087 14.8833C0.410224 14.7442 0.601289 14.7499 0.849632 14.752C0.892103 14.7519 0.934574 14.7518 0.978333 14.7517C1.12066 14.7515 1.26298 14.7522 1.40531 14.7528C1.50733 14.7529 1.60935 14.7528 1.71137 14.7528C1.93102 14.7527 2.15066 14.7531 2.37031 14.7537C2.68788 14.7547 3.00545 14.755 3.32302 14.7551C3.83829 14.7554 4.35355 14.7562 4.86881 14.7573C5.36928 14.7584 5.86976 14.7592 6.37023 14.7597C6.40109 14.7597 6.43195 14.7598 6.46375 14.7598C6.61856 14.7599 6.77337 14.7601 6.92818 14.7602C8.21213 14.7614 9.49608 14.7635 10.78 14.7661C10.788 14.7392 10.7959 14.7123 10.8041 14.6845C10.8146 14.6493 10.8251 14.614 10.8359 14.5777C10.8463 14.5427 10.8567 14.5077 10.8674 14.4717C11.056 13.8639 11.5355 13.3702 12.0862 13.0718C13.0492 12.5712 14.2072 12.7073 15.0378 13.3989ZM12.2913 14.544C12.0453 14.8514 11.9609 15.2001 11.991 15.5864C12.0647 15.9957 12.2692 16.3035 12.6047 16.5459C12.8945 16.7279 13.2132 16.7894 13.551 16.7339C13.9444 16.6406 14.215 16.4616 14.4519 16.1333C14.6638 15.7844 14.7081 15.4114 14.6246 15.0087C14.4967 14.6424 14.2364 14.3733 13.8953 14.1973C13.3196 13.9285 12.7188 14.0822 12.2913 14.544Z" fill="#4F5051"/>
<path d="M13.3129 1.9748C13.3745 1.97529 13.3745 1.97529 13.4373 1.97578C14.1951 1.9922 14.7931 2.31313 15.3124 2.85127C15.5839 3.14586 15.801 3.54953 15.8593 3.94502C15.9048 3.94476 15.9503 3.9445 15.9971 3.94423C16.4259 3.94185 16.8547 3.9401 17.2834 3.93894C17.5039 3.93833 17.7243 3.9375 17.9447 3.93618C18.1575 3.9349 18.3702 3.9342 18.583 3.9339C18.6641 3.93368 18.7453 3.93326 18.8264 3.93263C18.9401 3.93177 19.0538 3.93166 19.1675 3.93171C19.2178 3.93108 19.2178 3.93108 19.269 3.93044C19.4907 3.93158 19.6611 3.96469 19.8298 4.12217C20.0162 4.36587 20.0279 4.53868 19.9999 4.84345C19.9099 5.04509 19.7726 5.15216 19.5703 5.23408C19.4459 5.25482 19.3244 5.25391 19.1986 5.25182C19.1623 5.25184 19.1261 5.25186 19.0888 5.25189C18.9697 5.25178 18.8508 5.25057 18.7318 5.24934C18.649 5.24905 18.5662 5.24882 18.4834 5.24867C18.266 5.24807 18.0486 5.24654 17.8312 5.24481C17.6092 5.24321 17.3871 5.2425 17.1651 5.24171C16.7298 5.24004 16.2946 5.23737 15.8593 5.23408C15.8518 5.26986 15.8518 5.26986 15.8442 5.30635C15.834 5.35352 15.834 5.35352 15.8237 5.40163C15.8138 5.44828 15.8138 5.44828 15.8037 5.49588C15.706 5.88613 15.4359 6.20772 15.1562 6.48408C15.1294 6.51177 15.1025 6.53947 15.0749 6.568C14.5856 7.04185 13.9002 7.2423 13.2301 7.23207C12.5082 7.19225 11.8662 6.88643 11.3671 6.36689C11.0774 6.01984 10.8878 5.67073 10.7812 5.23408C10.7485 5.23419 10.7485 5.23419 10.7152 5.2343C9.42377 5.23868 8.13237 5.24203 6.84096 5.24405C6.68587 5.2443 6.53078 5.24455 6.37569 5.24481C6.34481 5.24486 6.31394 5.24491 6.28213 5.24496C5.78232 5.24581 5.28251 5.24735 4.7827 5.24915C4.26978 5.25097 3.75686 5.25206 3.24394 5.25246C2.92748 5.25272 2.61104 5.25357 2.29459 5.25516C2.05186 5.25631 1.80913 5.25643 1.56639 5.25617C1.46687 5.25622 1.36735 5.25661 1.26783 5.25736C1.13194 5.25833 0.996091 5.2581 0.860191 5.25757C0.801141 5.25842 0.801141 5.25842 0.740897 5.25929C0.485545 5.25658 0.314273 5.20488 0.117126 5.03877C0.00242445 4.89732 -0.0160881 4.78922 -0.0147095 4.60908C-0.0150116 4.5696 -0.0153137 4.53012 -0.015625 4.48945C0.00897249 4.3081 0.0930658 4.18526 0.234314 4.07197C0.377383 3.96467 0.470466 3.94018 0.644163 3.9396C0.680318 3.93939 0.716474 3.93917 0.753726 3.93895C0.79351 3.93891 0.833295 3.93888 0.874284 3.93884C0.916496 3.93864 0.958707 3.93845 1.0022 3.93825C1.14435 3.93765 1.2865 3.93732 1.42865 3.937C1.53027 3.93662 1.63188 3.93623 1.7335 3.93582C1.95264 3.93497 2.17177 3.93427 2.39091 3.93365C2.70775 3.93277 3.02459 3.93167 3.34143 3.93051C3.85545 3.92865 4.36948 3.92696 4.8835 3.92538C5.38289 3.92384 5.88227 3.92222 6.38165 3.9205C6.41242 3.92039 6.4432 3.92028 6.4749 3.92018C6.62928 3.91964 6.78365 3.9191 6.93802 3.91857C8.21908 3.91412 9.50013 3.90994 10.7812 3.90595C10.7966 3.86253 10.7966 3.86253 10.8123 3.81823C10.826 3.77995 10.8397 3.74168 10.8538 3.70225C10.8673 3.66444 10.8808 3.62662 10.8947 3.58767C11.1479 2.92795 11.6543 2.47702 12.2753 2.16798C12.6153 2.0224 12.9449 1.97103 13.3129 1.9748ZM12.4365 3.57881C12.1358 3.85125 11.9975 4.20487 11.9775 4.60175C11.9863 4.96092 12.1366 5.28796 12.3828 5.54658C12.6556 5.79567 12.9593 5.91808 13.3276 5.94697C13.7376 5.92009 14.0639 5.75582 14.3456 5.46113C14.6017 5.15472 14.6771 4.86869 14.6629 4.47068C14.6195 4.06645 14.4461 3.78148 14.1406 3.51533C13.5959 3.14106 12.9517 3.18054 12.4365 3.57881Z" fill="#4F5051"/>
<path d="M8.27957 7.89839C8.37616 7.98311 8.46589 8.07094 8.55469 8.16374C8.58223 8.19053 8.60977 8.21731 8.63815 8.24491C8.94743 8.56303 9.11618 8.9485 9.21875 9.37468C9.24065 9.37462 9.26254 9.37456 9.28511 9.3745C10.5827 9.371 11.8803 9.36832 13.1779 9.3667C13.3337 9.3665 13.4895 9.3663 13.6452 9.36609C13.6762 9.36605 13.7073 9.36601 13.7392 9.36597C14.2415 9.36529 14.7437 9.36406 15.246 9.36262C15.7613 9.36116 16.2766 9.36029 16.7919 9.35997C17.1099 9.35976 17.4279 9.35908 17.7459 9.35781C17.9897 9.35689 18.2335 9.35679 18.4773 9.357C18.5773 9.35696 18.6774 9.35665 18.7775 9.35605C18.9139 9.35527 19.0503 9.35546 19.1867 9.35589C19.2463 9.3552 19.2463 9.3552 19.3072 9.35451C19.5326 9.35642 19.666 9.37806 19.8438 9.53093C19.9855 9.68012 20.0121 9.79978 20.0195 9.99968C20.0121 10.1996 19.9855 10.3192 19.8438 10.4684C19.6317 10.6508 19.4532 10.6465 19.1867 10.6435C19.1441 10.6436 19.1015 10.6437 19.0575 10.6439C18.9147 10.6441 18.7718 10.6433 18.6289 10.6424C18.5265 10.6424 18.4241 10.6424 18.3217 10.6425C18.1012 10.6426 17.8808 10.6421 17.6603 10.6412C17.3415 10.6399 17.0227 10.6395 16.704 10.6393C16.1868 10.639 15.6696 10.6379 15.1523 10.6365C14.65 10.635 14.1476 10.6339 13.6452 10.6333C13.6143 10.6332 13.5833 10.6332 13.5514 10.6331C13.396 10.6329 13.2406 10.6327 13.0852 10.6325C11.7964 10.6309 10.5076 10.6282 9.21875 10.6247C9.21097 10.6542 9.2032 10.6837 9.19519 10.7141C9.18484 10.7528 9.1745 10.7915 9.16384 10.8313C9.15364 10.8697 9.14345 10.9081 9.13295 10.9476C9.02067 11.3295 8.75208 11.6368 8.47656 11.9137C8.44197 11.9504 8.44197 11.9504 8.40668 11.9877C7.92971 12.4532 7.24595 12.6381 6.59667 12.6333C5.86949 12.6092 5.21301 12.3042 4.71069 11.7758C4.45997 11.485 4.25819 11.1716 4.17678 10.7928C4.16995 10.7613 4.16312 10.7298 4.15608 10.6973C4.14843 10.6614 4.14843 10.6614 4.14062 10.6247C4.07094 10.6252 4.07094 10.6252 3.99984 10.6257C3.56188 10.6289 3.12392 10.6312 2.68595 10.6328C2.46079 10.6336 2.23564 10.6347 2.01048 10.6365C1.79317 10.6382 1.57586 10.6391 1.35854 10.6395C1.27566 10.6398 1.19277 10.6404 1.10989 10.6412C0.99374 10.6423 0.877626 10.6425 0.761471 10.6424C0.727248 10.643 0.693026 10.6435 0.657766 10.6441C0.444988 10.6427 0.325441 10.6093 0.15625 10.4684C0.0145181 10.3192 -0.0121096 10.1996 -0.0195312 9.99968C-0.0121096 9.79978 0.0145181 9.68012 0.15625 9.53093C0.358725 9.3623 0.50965 9.3528 0.761471 9.35694C0.816386 9.3569 0.816386 9.3569 0.872411 9.35687C0.992897 9.35698 1.11335 9.35819 1.23383 9.35942C1.31757 9.35971 1.40131 9.35993 1.48505 9.36009C1.70507 9.36068 1.92507 9.36222 2.14508 9.36395C2.36974 9.36555 2.5944 9.36626 2.81906 9.36705C3.25959 9.36872 3.70011 9.37139 4.14062 9.37468C4.14572 9.35071 4.15082 9.32674 4.15608 9.30205C4.16291 9.27052 4.16974 9.23899 4.17678 9.2065C4.18349 9.17529 4.1902 9.14407 4.19712 9.11191C4.33177 8.55925 4.77427 8.08258 5.23438 7.77311C6.1959 7.21267 7.37534 7.2235 8.27957 7.89839ZM5.66406 9.10124C5.3903 9.47193 5.31162 9.81559 5.35156 10.2731C5.43668 10.6406 5.65825 10.9498 5.97656 11.1496C6.31473 11.3329 6.64743 11.3819 7.02606 11.3051C7.38226 11.1946 7.66341 10.9612 7.85156 10.6393C8.03488 10.2643 8.06437 9.90288 7.93106 9.50666C7.78061 9.1609 7.48597 8.875 7.13867 8.73259C6.60153 8.5612 6.05841 8.69691 5.66406 9.10124Z" fill="#4F5051"/>
</g>
<defs>
<clipPath id="clip0_1054_11615">
<rect width="20" height="20" fill="white"/>
</clipPath>
</defs>
</svg>
