<svg width="13" height="12" viewBox="0 0 13 12" fill="none" xmlns="http://www.w3.org/2000/svg">
<path d="M2.91517 0.0396347C2.79699 0.0869074 0.13788 2.73026 0.0551519 2.87996C0.0236365 2.93905 0 3.06511 0 3.15966C0 3.58905 0.492428 3.90815 0.870612 3.71905C0.945461 3.6836 1.34728 3.31329 1.76486 2.89965L2.52123 2.14329V6.51998V10.8967L2.61184 11.0267C2.7379 11.2158 2.88366 11.3103 3.08063 11.33C3.30911 11.3576 3.54548 11.2394 3.6676 11.0385L3.76215 10.8888L3.78184 6.52392L3.80154 2.16298L4.55003 2.91541C4.96367 3.32905 5.35367 3.69148 5.42458 3.72299C5.60186 3.79784 5.76731 3.7939 5.94853 3.69936C6.21641 3.56148 6.34247 3.27784 6.26368 2.97844C6.22429 2.83268 6.04701 2.64359 4.89276 1.48146C4.16397 0.748731 3.49821 0.114484 3.41942 0.0711498C3.26184 -0.00763893 3.07275 -0.0233965 2.91517 0.0396347Z" fill="#8E8D8B"/>
<path d="M9.55671 0.0834398C9.47005 0.134652 9.36368 0.237077 9.32035 0.311926C9.23762 0.449806 9.23762 0.501019 9.21792 4.81468L9.19823 9.17562L8.44974 8.42319C8.04004 8.00956 7.64609 7.64713 7.57518 7.61561C7.39791 7.54076 7.23245 7.5447 7.05124 7.63925C6.78336 7.77713 6.6573 8.06077 6.73609 8.35622C6.77548 8.50592 6.95276 8.69501 8.10701 9.85714C8.8358 10.5899 9.50156 11.2241 9.58035 11.2675C9.74581 11.3502 9.90732 11.362 10.0728 11.3029C10.1988 11.2556 12.8579 8.62411 12.9446 8.45865C12.9761 8.39956 12.9998 8.2735 12.9998 8.17895C12.9998 7.74955 12.5073 7.43046 12.1292 7.61955C12.0543 7.65501 11.6525 8.02531 11.2388 8.43895L10.4785 9.19532V4.81862V0.441927L10.3919 0.311926C10.1831 0.0085907 9.84429 -0.082016 9.55671 0.0834398Z" fill="#8E8D8B"/>
</svg>
