<svg width="35" height="35" viewBox="0 0 35 35" fill="none" xmlns="http://www.w3.org/2000/svg">
<rect width="35" height="35" rx="3" fill="#4FAB52"/>
<g clip-path="url(#clip0_3521_150883)">
<path d="M17.7393 12.8876C17.9568 12.8925 18.1733 12.8896 18.3906 12.8847C19.7004 12.8593 19.7004 12.8593 20.0094 13.0841C20.2081 13.278 20.3206 13.4948 20.4171 13.7526C20.4864 13.9202 20.5914 14.0572 20.7004 14.2008C20.7386 14.2543 20.7766 14.3079 20.8145 14.3617C21.188 14.885 21.188 14.885 21.5693 15.4026C22.0883 16.0966 22.5786 16.8123 23.0002 17.57C23.0241 17.6124 23.0241 17.6124 23.0486 17.6557C23.4387 18.3498 23.7547 19.0979 23.9377 19.8747C23.9453 19.9064 23.9529 19.9382 23.9607 19.9709C24.261 21.2868 24.2127 22.7599 23.5348 23.9497C22.966 24.853 22.1958 25.4367 21.2423 25.8903C21.2174 25.8637 21.1924 25.8371 21.1667 25.8097C21.0225 25.6648 20.8582 25.5446 20.6955 25.4216C20.8162 25.2901 20.9594 25.2332 21.1203 25.1628C21.5965 24.9459 22.0012 24.6564 22.3752 24.2887C22.4053 24.2591 22.4354 24.2295 22.4664 24.199C23.2908 23.338 23.4199 22.238 23.4002 21.1025C23.3904 20.723 23.3301 20.3589 23.2345 19.9919C23.2274 19.9643 23.2203 19.9367 23.213 19.9082C23.1639 19.7244 23.1047 19.5454 23.0392 19.3669C23.0284 19.3372 23.0175 19.3075 23.0063 19.277C22.5962 18.1757 22.004 17.1893 21.3046 16.2479C21.1979 16.1036 21.0933 15.9578 20.9884 15.8122C20.9461 15.7535 20.9037 15.6948 20.8613 15.6361C20.8404 15.6071 20.8194 15.5781 20.7978 15.5482C20.735 15.4612 20.672 15.3744 20.609 15.2876C20.3163 14.8841 20.0288 14.4771 19.7442 14.0678C19.7229 14.0376 19.7017 14.0074 19.6798 13.9762C19.6706 13.9532 19.6613 13.9302 19.6517 13.9064C19.6058 13.8125 19.5695 13.7652 19.4845 13.7028C19.269 13.6549 19.054 13.6537 18.8339 13.6514C18.7688 13.6501 18.7038 13.6488 18.6387 13.6475C18.5022 13.6452 18.3658 13.644 18.2293 13.6435C18.09 13.6429 17.951 13.6399 17.8118 13.6347C17.016 13.5663 17.016 13.5663 16.3176 13.8504C16.1993 13.9951 16.1171 14.1501 16.0446 14.3217C15.9975 14.43 15.934 14.5204 15.8638 14.615C15.8263 14.6706 15.7889 14.7262 15.7516 14.7819C15.577 15.0397 15.396 15.2912 15.2079 15.5394C13.7666 17.4416 12.2781 19.7119 12.6095 22.2184C12.675 22.6147 12.7859 22.989 12.9611 23.3512C12.9869 23.4052 12.9869 23.4052 13.0133 23.4603C13.2431 23.9105 13.6041 24.3783 14.0355 24.6516C14.3513 24.8524 14.4952 24.9864 14.5984 25.3631C14.6645 25.5762 14.7862 25.7486 14.9142 25.9294C14.6546 25.8539 14.429 25.7491 14.1964 25.612C14.164 25.593 14.1316 25.574 14.0982 25.5545C13.8406 25.4007 13.6144 25.2314 13.3908 25.0309C13.3615 25.0072 13.3322 24.9834 13.302 24.9589C12.4697 24.2698 12.0154 23.2166 11.8956 22.1622C11.6494 19.5174 13.0437 17.2783 14.5532 15.2415C14.7119 15.0271 14.8672 14.8103 15.0213 14.5925C15.0734 14.5189 15.1257 14.4455 15.178 14.3721C15.1956 14.3471 15.2132 14.3221 15.2314 14.2964C15.2705 14.2416 15.3104 14.1873 15.351 14.1336C15.4692 13.9743 15.5559 13.8265 15.6256 13.6405C16.011 12.7378 16.8928 12.8683 17.7393 12.8876Z" fill="white"/>
<path d="M20.9749 8.03253C21.0622 8.08881 21.1184 8.14119 21.165 8.2344C21.1978 8.4307 21.1822 8.58517 21.0747 8.75442C20.9718 8.89585 20.8539 9.01426 20.7305 9.13772C20.2334 9.6538 19.9772 10.384 19.7809 11.0596C19.7588 11.125 19.7588 11.125 19.7197 11.1641C19.6127 11.1678 19.5067 11.169 19.3997 11.1685C19.3662 11.1685 19.3327 11.1685 19.2981 11.1685C19.1867 11.1685 19.0753 11.1682 18.964 11.1679C18.8869 11.1678 18.8099 11.1678 18.7329 11.1677C18.5298 11.1676 18.3267 11.1672 18.1235 11.1668C17.9164 11.1664 17.7093 11.1662 17.5022 11.166C17.0956 11.1656 16.6889 11.1649 16.2822 11.1641C16.269 11.1322 16.2558 11.1003 16.2422 11.0675C16.2248 11.0255 16.2074 10.9835 16.1894 10.9403C16.1722 10.8987 16.155 10.8572 16.1372 10.8144C15.8773 10.1996 15.5453 9.67771 15.0663 9.20746C14.9337 9.0722 14.8588 8.98264 14.8516 8.7886C14.8556 8.68547 14.8642 8.63988 14.9288 8.55865C15.0397 8.47116 15.1587 8.45315 15.2976 8.4552C15.5317 8.49208 15.7547 8.61477 15.9645 8.72055C16.242 8.85811 16.4695 8.92782 16.7717 8.82614C16.9926 8.72592 17.1628 8.58843 17.3366 8.42071C17.4873 8.28795 17.6259 8.2452 17.8247 8.24783C18.0312 8.30177 18.1669 8.47847 18.3135 8.62503C18.4713 8.75472 18.6012 8.79702 18.8083 8.79104C19.1975 8.74933 19.4938 8.52399 19.8017 8.30022C20.1407 8.05666 20.5539 7.86829 20.9749 8.03253ZM17.6885 9.01565C17.6452 9.051 17.6452 9.051 17.601 9.08707C17.1806 9.41831 16.8245 9.54529 16.2822 9.56253C16.303 9.60075 16.3237 9.63897 16.3451 9.67834C16.373 9.73007 16.4008 9.78179 16.4287 9.83353C16.4423 9.85853 16.4559 9.88353 16.4699 9.90929C16.5743 10.1036 16.6608 10.2971 16.751 10.5C17.576 10.5 18.401 10.5 19.251 10.5C19.3283 10.2938 19.4057 10.0875 19.4854 9.87503C19.5468 9.74979 19.6073 9.62953 19.6758 9.50882C19.7895 9.33058 19.7895 9.33058 19.8369 9.13284C19.6512 9.20636 19.4676 9.28438 19.2838 9.36249C18.95 9.49425 18.5867 9.48337 18.2479 9.36951C18.1224 9.31226 18.0201 9.23676 17.9146 9.14856C17.8427 9.09217 17.7713 9.05378 17.6885 9.01565Z" fill="white"/>
<path d="M16.359 18.5473C16.5062 18.6444 16.6012 18.7361 16.6715 18.8989C16.6899 19.0128 16.6848 19.0936 16.6715 19.2114C16.6105 19.292 16.6105 19.292 16.5153 19.3286C16.3835 19.3359 16.3835 19.3359 16.2419 19.2895C16.1748 19.2149 16.1206 19.1358 16.0641 19.053C15.9799 18.94 15.9074 18.9012 15.7731 18.8598C15.5089 18.8247 15.2867 18.8545 15.07 19.0161C14.8795 19.2366 14.8172 19.5033 14.8257 19.7917C14.8552 20.0412 14.9225 20.2855 15.109 20.4614C15.3288 20.6248 15.5897 20.6024 15.8512 20.5786C15.9872 20.5485 16.1104 20.5085 16.2419 20.4614C16.2419 20.3325 16.2419 20.2036 16.2419 20.0708C16.2037 20.0712 16.1656 20.0717 16.1263 20.0722C16.0766 20.0725 16.0269 20.0729 15.9757 20.0732C15.9016 20.0739 15.9016 20.0739 15.8261 20.0746C15.695 20.0708 15.695 20.0708 15.5778 20.0317C15.5509 19.9023 15.5509 19.9023 15.5387 19.7583C15.5834 19.6917 15.5834 19.6917 15.6559 19.6411C15.7528 19.6259 15.7528 19.6259 15.8669 19.6255C15.9288 19.6253 15.9288 19.6253 15.9918 19.6251C16.0349 19.6255 16.0779 19.626 16.1222 19.6265C16.1651 19.626 16.208 19.6255 16.2522 19.6251C16.2934 19.6252 16.3347 19.6254 16.3772 19.6255C16.4149 19.6257 16.4526 19.6258 16.4915 19.6259C16.6128 19.644 16.6658 19.6689 16.7497 19.7583C16.7699 19.8516 16.7699 19.8516 16.7704 19.9608C16.7707 20.0199 16.7707 20.0199 16.771 20.0803C16.7704 20.1215 16.7698 20.1627 16.7692 20.2051C16.7701 20.2666 16.7701 20.2666 16.771 20.3293C16.7708 20.3688 16.7706 20.4084 16.7704 20.4491C16.7702 20.4851 16.7701 20.5212 16.7699 20.5584C16.7437 20.6856 16.692 20.7311 16.5934 20.813C16.1589 21.0717 15.6811 21.1319 15.1872 21.0473C14.8682 20.9643 14.5971 20.8027 14.4227 20.5173C14.2131 20.1064 14.1849 19.6545 14.275 19.2012C14.4053 18.8464 14.641 18.6227 14.9789 18.4657C15.3898 18.3054 15.9808 18.3185 16.359 18.5473Z" fill="white"/>
<path d="M19.4051 23.6247C19.5028 23.6833 19.5028 23.6833 19.5614 23.7809C19.5949 24.0644 19.5122 24.2111 19.3534 24.4409C19.3313 24.4741 19.3092 24.5072 19.2865 24.5414C19.2136 24.6505 19.1397 24.7589 19.0658 24.8674C19.0147 24.9434 18.9636 25.0195 18.9127 25.0956C18.7791 25.2948 18.6447 25.4934 18.5101 25.6918C18.3769 25.8884 18.2445 26.0855 18.1121 26.2826C17.8988 26.5999 17.685 26.9168 17.4704 27.2332C17.3785 27.3689 17.2869 27.5048 17.1971 27.6419C17.1691 27.6846 17.1411 27.7274 17.1122 27.7714C17.077 27.8257 17.077 27.8257 17.0411 27.8811C16.9832 27.9606 16.9832 27.9606 16.9051 27.9997C16.6296 28.0219 16.6296 28.0219 16.495 27.9411C16.4131 27.8047 16.4106 27.6842 16.4364 27.5309C16.4917 27.4053 16.5665 27.2962 16.6443 27.1835C16.6664 27.1503 16.6885 27.1172 16.7113 27.083C16.7842 26.9739 16.858 26.8655 16.932 26.757C16.9831 26.681 17.0341 26.6049 17.085 26.5288C17.2186 26.3296 17.353 26.131 17.4876 25.9326C17.6208 25.736 17.7532 25.5389 17.8856 25.3418C18.099 25.0245 18.3127 24.7076 18.5273 24.3912C18.6193 24.2555 18.7108 24.1196 18.8006 23.9825C18.8286 23.9398 18.8567 23.897 18.8856 23.853C18.909 23.8168 18.9324 23.7806 18.9566 23.7433C19.069 23.5888 19.2278 23.6005 19.4051 23.6247Z" fill="white"/>
<path d="M20.4041 25.8908C20.6864 26.059 20.8577 26.2866 20.9681 26.5939C21.0129 26.9599 21.0038 27.3071 20.7728 27.6095C20.5671 27.8359 20.347 27.9805 20.0372 28.0184C19.6633 28.0214 19.3776 27.9924 19.091 27.7319C18.8379 27.462 18.7584 27.1994 18.7618 26.8309C18.7735 26.498 18.887 26.2748 19.1273 26.0494C19.4704 25.7573 19.9954 25.7052 20.4041 25.8908ZM19.4837 26.672C19.4207 26.7981 19.4214 26.9263 19.4447 27.0626C19.5125 27.1808 19.5945 27.2743 19.7181 27.3361C19.9182 27.3598 19.9182 27.3598 20.1018 27.2952C20.2504 27.1729 20.2996 27.1069 20.3187 26.9161C20.3177 26.7853 20.2945 26.717 20.2113 26.6159C20.0734 26.4813 19.9943 26.4612 19.8003 26.4627C19.655 26.4875 19.5852 26.5681 19.4837 26.672Z" fill="white"/>
<path d="M16.7916 23.7974C17.0505 24.0011 17.196 24.2278 17.2367 24.5568C17.2544 24.8775 17.223 25.16 17.0228 25.4221C16.8171 25.6485 16.597 25.7932 16.2872 25.8311C15.9133 25.834 15.6276 25.805 15.341 25.5445C15.0879 25.2747 15.0084 25.0121 15.0118 24.6436C15.0235 24.3118 15.137 24.0882 15.3748 23.8621C15.7788 23.5443 16.36 23.5058 16.7916 23.7974ZM15.7337 24.4846C15.6707 24.6107 15.6714 24.7389 15.6947 24.8753C15.7625 24.9934 15.8445 25.0869 15.9681 25.1487C16.1682 25.1724 16.1682 25.1724 16.3518 25.1078C16.5004 24.9855 16.5496 24.9195 16.5687 24.7288C16.5677 24.5979 16.5445 24.5296 16.4613 24.4285C16.3234 24.2939 16.2443 24.2739 16.0503 24.2753C15.905 24.3001 15.8352 24.3807 15.7337 24.4846Z" fill="white"/>
<path d="M18.8596 18.5081C19.0155 18.6441 19.1156 18.7665 19.1794 18.9646C19.1721 19.094 19.1721 19.094 19.1135 19.2112C19.0158 19.2893 19.0158 19.2893 18.8864 19.3064C18.6944 19.2315 18.6354 19.1199 18.5306 18.9475C18.4741 18.8484 18.4741 18.8484 18.3518 18.8206C18.1066 18.8005 17.9968 18.8233 17.8049 18.9768C17.7931 19.0897 17.7931 19.0897 17.8439 19.2112C18.0072 19.3162 18.2036 19.3587 18.3885 19.4121C19.0437 19.6035 19.0437 19.6035 19.2177 19.8659C19.3001 20.0876 19.2917 20.3759 19.2174 20.5987C19.0869 20.8285 18.893 20.9617 18.6432 21.0386C18.2637 21.1217 17.883 21.1088 17.5394 20.9159C17.3612 20.7832 17.2452 20.6218 17.198 20.4035C17.1922 20.3107 17.1944 20.2383 17.2189 20.1487C17.302 20.0632 17.302 20.0632 17.4143 20.0315C17.5314 20.0413 17.5314 20.0413 17.6486 20.1096C17.8439 20.3816 17.8439 20.3816 17.8439 20.5393C18.0702 20.6276 18.2524 20.6587 18.4812 20.5637C18.5874 20.5052 18.5874 20.5052 18.6643 20.4221C18.6903 20.2887 18.6903 20.2887 18.6643 20.1487C18.4863 19.9996 18.3084 19.9521 18.0856 19.8997C17.7664 19.8173 17.502 19.7279 17.2946 19.4578C17.2287 19.2248 17.2068 18.9703 17.3166 18.7473C17.616 18.3025 18.4274 18.2519 18.8596 18.5081Z" fill="white"/>
<path d="M16.357 11.7298C16.3964 11.7296 16.4358 11.7293 16.4764 11.729C16.6067 11.7283 16.737 11.7288 16.8673 11.7293C16.9578 11.7292 17.0483 11.729 17.1387 11.7288C17.3284 11.7286 17.5181 11.729 17.7077 11.7297C17.951 11.7306 18.1943 11.7301 18.4376 11.7291C18.6244 11.7286 18.8113 11.7287 18.9981 11.7291C19.0878 11.7292 19.1775 11.7291 19.2672 11.7288C19.3926 11.7284 19.5178 11.729 19.6432 11.7298C19.6989 11.7294 19.6989 11.7294 19.7558 11.7289C20.007 11.7321 20.007 11.7321 20.1325 11.8246C20.2206 11.9552 20.2138 12.067 20.1876 12.2188C20.1195 12.3452 20.091 12.3682 19.9532 12.4141C19.8996 12.4178 19.8459 12.4194 19.7921 12.4196C19.7594 12.4198 19.7267 12.42 19.6929 12.4203C19.6392 12.4203 19.6392 12.4203 19.5844 12.4204C19.5466 12.4206 19.5088 12.4208 19.4699 12.421C19.3446 12.4216 19.2194 12.4218 19.0942 12.422C19.0072 12.4223 18.9203 12.4225 18.8333 12.4227C18.6509 12.4231 18.4686 12.4234 18.2862 12.4235C18.0524 12.4237 17.8186 12.4247 17.5849 12.4258C17.4053 12.4265 17.2256 12.4267 17.046 12.4268C16.9598 12.4269 16.8737 12.4272 16.7875 12.4277C16.6669 12.4284 16.5464 12.4283 16.4259 12.428C16.3902 12.4284 16.3546 12.4288 16.3179 12.4291C16.1309 12.4279 16.0025 12.4205 15.8517 12.2969C15.7905 12.1747 15.7854 12.0387 15.8126 11.9063C15.9509 11.6999 16.1315 11.7279 16.357 11.7298Z" fill="white"/>
<path d="M19.8361 18.3806C19.8967 18.3803 19.8967 18.3803 19.9585 18.3799C20.0242 18.3801 20.0242 18.3801 20.0912 18.3804C20.136 18.3803 20.1808 18.3802 20.2269 18.3801C20.3217 18.3801 20.4166 18.3802 20.5114 18.3806C20.657 18.381 20.8025 18.3806 20.9481 18.3801C21.0401 18.3801 21.132 18.3802 21.224 18.3804C21.2678 18.3802 21.3116 18.38 21.3567 18.3799C21.3971 18.3801 21.4375 18.3804 21.4791 18.3806C21.5326 18.3807 21.5326 18.3807 21.5872 18.3808C21.6732 18.3907 21.6732 18.3907 21.7513 18.4689C21.7635 18.6056 21.7635 18.6056 21.7513 18.7423C21.6302 18.8231 21.6057 18.83 21.4689 18.8281C21.4219 18.8277 21.4219 18.8277 21.3739 18.8273C21.3414 18.8266 21.3088 18.826 21.2753 18.8253C21.2423 18.825 21.2093 18.8246 21.1752 18.8242C21.0938 18.8233 21.0124 18.8219 20.931 18.8204C20.9313 18.8466 20.9316 18.8728 20.9318 18.8997C20.9344 19.1715 20.9362 19.4434 20.9375 19.7152C20.9381 19.8167 20.9389 19.9182 20.9399 20.0197C20.9413 20.1655 20.942 20.3112 20.9425 20.4569C20.9431 20.5025 20.9437 20.548 20.9443 20.5949C20.9443 20.6371 20.9443 20.6794 20.9443 20.7229C20.9446 20.7601 20.9449 20.7973 20.9451 20.8356C20.9285 20.947 20.9027 20.9801 20.8138 21.047C20.7211 21.0812 20.7211 21.0812 20.6185 21.0861C20.5293 21.0415 20.4549 21.0005 20.3842 20.9298C20.3805 20.8639 20.3796 20.7978 20.3797 20.7317C20.3797 20.6895 20.3797 20.6473 20.3797 20.6038C20.3799 20.5578 20.3801 20.5119 20.3803 20.4646C20.3804 20.4178 20.3805 20.371 20.3805 20.3228C20.3807 20.1728 20.3812 20.0227 20.3817 19.8727C20.3819 19.7712 20.3821 19.6698 20.3822 19.5683C20.3827 19.319 20.3833 19.0697 20.3842 18.8204C20.3101 18.8218 20.3101 18.8218 20.2345 18.8232C20.1696 18.8239 20.1048 18.8246 20.0399 18.8253C20.0074 18.826 19.9748 18.8266 19.9413 18.8273C19.9099 18.8275 19.8786 18.8278 19.8463 18.8281C19.803 18.8287 19.803 18.8287 19.7589 18.8293C19.681 18.8204 19.681 18.8204 19.5638 18.7423C19.5516 18.6056 19.5516 18.6056 19.5638 18.4689C19.6632 18.3695 19.6984 18.3809 19.8361 18.3806Z" fill="white"/>
</g>
<defs>
<clipPath id="clip0_3521_150883">
<rect width="20" height="20" fill="white" transform="translate(8 8)"/>
</clipPath>
</defs>
</svg>
