<svg width="35" height="35" viewBox="0 0 35 35" fill="none" xmlns="http://www.w3.org/2000/svg">
<rect width="35" height="35" rx="3" fill="#F74875"/>
<g clip-path="url(#clip0_3350_433126)">
<path d="M10.5944 7.09925C10.6662 7.11077 10.7379 7.12228 10.8097 7.13377C11.0035 7.16486 11.1972 7.19617 11.391 7.22754C11.5954 7.26058 11.7998 7.2934 12.0042 7.32625C12.3922 7.38863 12.7802 7.45119 13.1681 7.51384C13.6049 7.58434 14.0416 7.65464 14.4784 7.72492C14.9746 7.80476 15.4708 7.88461 15.9669 7.96462C16.0436 7.977 16.1204 7.98937 16.1971 8.00174C16.3802 8.03125 16.5633 8.06083 16.7463 8.09057C17.0419 8.13851 17.3375 8.18619 17.6336 8.23066C17.7491 8.24802 17.8646 8.2657 17.9801 8.28338C18.0569 8.29498 18.1338 8.30604 18.2107 8.31708C18.6435 8.38344 19.0569 8.50231 19.3448 8.87368C19.5751 9.21998 19.5916 9.5195 19.5892 9.9337C19.5892 9.98408 19.5892 10.0345 19.5893 10.0864C19.5893 10.2238 19.5888 10.3612 19.5883 10.4987C19.5878 10.6426 19.5878 10.7865 19.5877 10.9304C19.5875 11.2026 19.5868 11.4747 19.5861 11.7469C19.5852 12.0569 19.5848 12.3669 19.5844 12.6769C19.5837 13.3143 19.5823 13.9517 19.5806 14.5891C19.605 14.5908 19.6293 14.5926 19.6544 14.5944C19.9361 14.6177 20.2079 14.6674 20.4846 14.7271C20.5316 14.737 20.5787 14.747 20.6272 14.7573C20.7556 14.7844 20.8839 14.8119 21.0122 14.8394C21.1486 14.8686 21.2852 14.8976 21.4217 14.9265C21.6816 14.9817 21.9415 15.0372 22.2014 15.0927C22.5474 15.1666 22.8934 15.2402 23.2393 15.3137C23.5468 15.3791 23.8542 15.4446 24.1616 15.5104C24.2697 15.5335 24.3778 15.5566 24.4859 15.5797C24.5122 15.5853 24.5384 15.591 24.5654 15.5967C24.9188 15.6722 25.2724 15.7457 25.6264 15.8176C25.7437 15.8416 25.8609 15.8657 25.9782 15.8897C26.0829 15.911 26.1876 15.9316 26.2924 15.9523C26.7389 16.0425 27.1469 16.1496 27.4384 16.5494C27.5916 16.818 27.6329 17.0437 27.6328 17.3567C27.633 17.3947 27.6331 17.4328 27.6332 17.472C27.6337 17.6 27.6338 17.7281 27.634 17.8562C27.6342 17.9478 27.6344 18.0394 27.6347 18.131C27.6354 18.3803 27.6358 18.6296 27.6361 18.8789C27.6363 19.0347 27.6365 19.1904 27.6367 19.3462C27.6374 19.7776 27.6379 20.2091 27.6382 20.6405C27.6383 20.7524 27.6383 20.8644 27.6384 20.9763C27.6384 21.0042 27.6385 21.032 27.6385 21.0607C27.6388 21.5111 27.6397 21.9614 27.641 22.4118C27.6422 22.8745 27.6429 23.3372 27.643 23.7999C27.6431 24.0595 27.6434 24.3192 27.6444 24.5788C27.6453 24.8233 27.6454 25.0677 27.645 25.3121C27.645 25.4016 27.6453 25.4912 27.6458 25.5808C27.6465 25.7034 27.6462 25.8259 27.6457 25.9485C27.6463 26.0013 27.6463 26.0013 27.6469 26.0551C27.6436 26.4021 27.5394 26.7143 27.3138 26.9701C27.0503 27.2211 26.7734 27.3238 26.42 27.3217C26.3903 27.3218 26.3605 27.322 26.3299 27.3221C26.2301 27.3225 26.1303 27.3223 26.0304 27.3221C25.9582 27.3222 25.886 27.3224 25.8137 27.3226C25.6151 27.3231 25.4165 27.3231 25.2179 27.323C25.0037 27.323 24.7896 27.3235 24.5754 27.3238C24.1558 27.3245 23.7362 27.3247 23.3166 27.3248C22.9755 27.3248 22.6344 27.325 22.2934 27.3252C21.484 27.3258 20.6746 27.3263 19.8652 27.3263C19.8263 27.3263 19.8263 27.3263 19.7867 27.3263C19.6555 27.3262 19.5243 27.3262 19.3931 27.3262C19.3671 27.3262 19.341 27.3262 19.3142 27.3262C19.2615 27.3262 19.2088 27.3262 19.1561 27.3262C18.3364 27.3262 17.5167 27.3268 16.697 27.3279C15.776 27.3291 14.855 27.3298 13.934 27.3297C13.4463 27.3297 12.9587 27.3299 12.4711 27.3308C12.0559 27.3315 11.6408 27.3317 11.2256 27.3311C11.0137 27.3309 10.8019 27.3309 10.5901 27.3315C10.3961 27.3322 10.2022 27.3321 10.0082 27.3314C9.93807 27.3312 9.86795 27.3314 9.79784 27.3318C9.3492 27.3345 8.95246 27.3207 8.60745 26.9795C8.37125 26.7013 8.27343 26.4085 8.27544 26.0354C8.27531 26.0042 8.27517 25.9729 8.27504 25.9408C8.27469 25.836 8.27487 25.7312 8.27506 25.6264C8.27491 25.5506 8.27474 25.4747 8.27454 25.3989C8.27407 25.1904 8.27408 24.9819 8.27417 24.7734C8.27419 24.5485 8.27377 24.3237 8.27341 24.0989C8.27279 23.6583 8.27258 23.2178 8.27254 22.7772C8.2725 22.4192 8.27235 22.0611 8.27211 21.703C8.27155 20.8533 8.27108 20.0035 8.27112 19.1537C8.27112 19.1266 8.27113 19.0994 8.27113 19.0714C8.27113 18.9337 8.27114 18.7959 8.27115 18.6582C8.27115 18.6308 8.27115 18.6035 8.27115 18.5753C8.27116 18.52 8.27116 18.4647 8.27116 18.4093C8.27121 17.5488 8.27064 16.6882 8.26961 15.8276C8.26845 14.8607 8.2678 13.8938 8.26787 12.9269C8.26789 12.4149 8.26768 11.903 8.26687 11.3911C8.26618 10.9552 8.26602 10.5193 8.26653 10.0835C8.26678 9.86108 8.26678 9.6387 8.26613 9.41631C8.26553 9.21266 8.26564 9.00902 8.2663 8.80538C8.26642 8.73177 8.26628 8.65816 8.26586 8.58456C8.26336 8.11691 8.27522 7.6914 8.59402 7.33168C9.1892 6.77965 9.88121 6.98327 10.5944 7.09925ZM9.22724 7.96289C9.11256 8.12742 9.11084 8.23973 9.1113 8.43837C9.11122 8.4688 9.11114 8.49923 9.11106 8.53058C9.11085 8.63361 9.11091 8.73664 9.11096 8.83967C9.11086 8.91385 9.11075 8.98804 9.11062 9.06223C9.11031 9.26693 9.11025 9.47162 9.11022 9.67632C9.11015 9.89676 9.10986 10.1172 9.10961 10.3376C9.10909 10.82 9.10887 11.3024 9.1087 11.7848C9.1086 12.0858 9.10844 12.3868 9.10827 12.6878C9.10781 13.5206 9.10742 14.3534 9.10729 15.1861C9.10728 15.24 9.10727 15.2939 9.10726 15.3477C9.10726 15.4017 9.10725 15.4558 9.10724 15.5098C9.10722 15.6181 9.10721 15.7264 9.10719 15.8348C9.10718 15.8617 9.10718 15.8885 9.10718 15.9162C9.10704 16.7875 9.10644 17.6587 9.10556 18.53C9.10463 19.4507 9.10411 20.3714 9.10406 21.2921C9.10403 21.7942 9.10381 22.2963 9.10313 22.7983C9.10255 23.2258 9.10235 23.6533 9.10266 24.0807C9.10281 24.299 9.10277 24.5172 9.10225 24.7354C9.10177 24.935 9.10181 25.1346 9.10227 25.3343C9.10234 25.4066 9.10222 25.479 9.1019 25.5514C9.10148 25.6495 9.10176 25.7475 9.10221 25.8456C9.10193 25.874 9.10164 25.9023 9.10134 25.9315C9.10309 26.1048 9.13063 26.2127 9.2296 26.3512C9.34762 26.4395 9.44995 26.441 9.59206 26.4403C9.63441 26.4403 9.67675 26.4403 9.72038 26.4403C9.76587 26.4399 9.81137 26.4395 9.85824 26.4391C9.90498 26.4389 9.95172 26.4388 9.99988 26.4387C10.1238 26.4383 10.2478 26.4376 10.3718 26.4367C10.4984 26.4359 10.625 26.4356 10.7516 26.4351C10.9998 26.4343 11.248 26.4329 11.4963 26.4312C11.4965 26.3809 11.4967 26.3306 11.4969 26.2787C11.4991 25.8037 11.5018 25.3287 11.5052 24.8537C11.5068 24.6095 11.5083 24.3653 11.5093 24.1211C11.5103 23.8853 11.5118 23.6495 11.5137 23.4137C11.5144 23.3239 11.5148 23.2341 11.515 23.1443C11.5154 23.0182 11.5165 22.8921 11.5177 22.766C11.5176 22.7291 11.5176 22.6922 11.5175 22.6543C11.5224 22.2928 11.6095 21.9948 11.8275 21.7137C12.1091 21.4353 12.4489 21.346 12.8226 21.3439C12.8621 21.3436 12.8621 21.3436 12.9024 21.3433C12.9891 21.3427 13.0758 21.3424 13.1624 21.3422C13.1922 21.3421 13.222 21.342 13.2527 21.3418C13.4104 21.3412 13.5681 21.3409 13.7258 21.3407C13.8878 21.3405 14.0498 21.3395 14.2118 21.3384C14.3372 21.3376 14.4625 21.3374 14.5878 21.3374C14.6475 21.3372 14.7072 21.3369 14.7669 21.3364C15.2322 21.3326 15.6378 21.3548 15.9918 21.7104C16.2822 22.0347 16.3488 22.4083 16.3481 22.8432C16.3487 22.9018 16.3487 22.9018 16.3493 22.9616C16.3504 23.0893 16.3508 23.217 16.3511 23.3447C16.3517 23.4339 16.3524 23.523 16.3532 23.6121C16.355 23.8456 16.3561 24.0791 16.3571 24.3126C16.3584 24.5933 16.3606 24.874 16.3626 25.1547C16.3655 25.5802 16.3674 26.0057 16.3696 26.4312C17.155 26.4312 17.9403 26.4312 18.7495 26.4312C18.753 24.2896 18.7557 22.148 18.7573 20.0064C18.7574 19.7537 18.7576 19.501 18.7578 19.2483C18.7579 19.1728 18.7579 19.1728 18.758 19.0958C18.7586 18.2807 18.7598 17.4655 18.7612 16.6504C18.7626 15.8143 18.7635 14.9782 18.7638 14.1421C18.764 13.626 18.7646 13.1098 18.7658 12.5937C18.7666 12.24 18.7669 11.8863 18.7667 11.5327C18.7666 11.3285 18.7667 11.1242 18.7676 10.92C18.7683 10.7332 18.7683 10.5463 18.7678 10.3594C18.7677 10.2917 18.7679 10.2241 18.7684 10.1564C18.769 10.0645 18.7687 9.97265 18.7681 9.88076C18.7682 9.82969 18.7682 9.77861 18.7683 9.72599C18.7461 9.56289 18.6945 9.47616 18.5984 9.34814C18.4794 9.25951 18.3516 9.24588 18.2093 9.22322C18.1602 9.21527 18.1112 9.20733 18.0606 9.19914C18.0063 9.19061 17.9519 9.18209 17.8975 9.17357C17.8401 9.16438 17.7828 9.15516 17.7254 9.14592C17.5688 9.12078 17.4121 9.09597 17.2554 9.07122C17.0889 9.04485 16.9225 9.01817 16.756 8.99153C16.4378 8.94064 16.1195 8.89003 15.8012 8.83952C15.4146 8.77815 15.0281 8.71645 14.6415 8.65473C14.2295 8.58896 13.8175 8.52324 13.4055 8.45782C12.7893 8.35995 12.1731 8.26165 11.5573 8.16094C11.4683 8.14639 11.3792 8.13188 11.2902 8.11739C11.2615 8.11273 11.2329 8.10807 11.2034 8.10327C11.1467 8.09404 11.0901 8.08482 11.0334 8.0756C10.8723 8.04938 10.7114 8.0229 10.5504 7.99621C10.4297 7.97627 10.309 7.95672 10.1883 7.9371C10.1461 7.93 10.1039 7.9229 10.0604 7.91559C9.62228 7.82268 9.62228 7.82268 9.22724 7.96289ZM19.5806 15.4692C19.5806 19.0867 19.5806 22.7042 19.5806 26.4312C21.2952 26.4349 21.2952 26.4349 23.0444 26.4387C23.4056 26.4398 23.7667 26.4409 24.1388 26.442C24.4621 26.4425 24.4621 26.4425 24.7853 26.4427C24.9294 26.4428 25.0736 26.4433 25.2178 26.4439C25.4016 26.4447 25.5854 26.445 25.7692 26.4448C25.8367 26.4448 25.9043 26.4451 25.9718 26.4455C26.0629 26.4461 26.154 26.446 26.2451 26.4457C26.2716 26.446 26.2981 26.4464 26.3254 26.4467C26.4885 26.4451 26.5927 26.42 26.7206 26.3112C26.8152 26.1447 26.807 25.9826 26.8065 25.7933C26.8067 25.7568 26.8069 25.7202 26.8071 25.6825C26.8077 25.5598 26.8077 25.437 26.8077 25.3142C26.808 25.2263 26.8083 25.1383 26.8087 25.0504C26.8095 24.8114 26.8098 24.5723 26.81 24.3333C26.8102 24.184 26.8104 24.0347 26.8107 23.8854C26.8116 23.3916 26.8121 22.8979 26.8122 22.4041C26.8122 22.3775 26.8122 22.3509 26.8122 22.3235C26.8122 22.2968 26.8122 22.2702 26.8123 22.2427C26.8124 21.8109 26.8134 21.379 26.8148 20.9471C26.8163 20.5036 26.817 20.0601 26.817 19.6166C26.817 19.3676 26.8174 19.1187 26.8184 18.8697C26.8194 18.6356 26.8195 18.4015 26.8189 18.1673C26.8188 18.0814 26.8191 17.9954 26.8197 17.9094C26.8205 17.7921 26.8201 17.6749 26.8194 17.5576C26.8201 17.5065 26.8201 17.5065 26.8209 17.4544C26.8187 17.2931 26.8069 17.1816 26.7135 17.0508C26.6014 16.9439 26.5423 16.9112 26.3962 16.8818C26.3341 16.8685 26.3341 16.8685 26.2707 16.855C26.2261 16.8464 26.1814 16.8379 26.1355 16.8291C26.0885 16.8193 26.0416 16.8095 25.9933 16.7995C25.8946 16.7789 25.7958 16.7587 25.6969 16.7391C25.5574 16.7111 25.4183 16.6818 25.2792 16.6518C25.0021 16.5921 24.7248 16.5338 24.4475 16.4757C24.3451 16.4542 24.2428 16.4327 24.1405 16.4112C23.9278 16.3665 23.7151 16.3218 23.5024 16.2772C23.2603 16.2265 23.0181 16.1756 22.776 16.1246C22.5385 16.0747 22.301 16.0248 22.0634 15.9749C21.9645 15.9542 21.8655 15.9334 21.7665 15.9126C21.0388 15.7595 20.31 15.6141 19.5806 15.4692ZM12.4407 22.3105C12.2996 22.4926 12.3119 22.6689 12.3145 22.8931C12.3145 22.9314 12.3145 22.9697 12.3144 23.0091C12.3145 23.1353 12.3154 23.2615 12.3163 23.3877C12.3165 23.4753 12.3167 23.563 12.3168 23.6506C12.3172 23.881 12.3183 24.1114 12.3196 24.3418C12.3209 24.6183 12.3215 24.8949 12.3221 25.1714C12.3232 25.5914 12.3254 26.0113 12.3274 26.4312C13.387 26.4312 14.4467 26.4312 15.5384 26.4312C15.5417 25.7626 15.5417 25.7626 15.544 25.0939C15.5447 24.8211 15.5455 24.5483 15.547 24.2755C15.5482 24.0555 15.5489 23.8356 15.5492 23.6156C15.5494 23.5317 15.5498 23.4479 15.5504 23.364C15.5513 23.2464 15.5514 23.1288 15.5513 23.0112C15.5517 22.9767 15.5521 22.9422 15.5525 22.9066C15.5515 22.6911 15.5207 22.5418 15.4251 22.3505C15.266 22.1874 15.1016 22.1854 14.888 22.184C14.8405 22.1836 14.7929 22.1833 14.7439 22.1829C14.6921 22.1827 14.6403 22.1825 14.5885 22.1823C14.5352 22.1821 14.4818 22.1819 14.4285 22.1816C14.3167 22.1812 14.2049 22.181 14.093 22.1809C13.9503 22.1806 13.8075 22.1797 13.6647 22.1785C13.5545 22.1778 13.4443 22.1776 13.3341 22.1775C13.2814 22.1774 13.2288 22.1771 13.1762 22.1766C12.7902 22.1644 12.7902 22.1644 12.4407 22.3105Z" fill="white"/>
<path d="M22.452 23.8611C22.4885 23.8607 22.5249 23.8603 22.5624 23.86C22.6211 23.86 22.6211 23.86 22.681 23.8601C22.7214 23.8599 22.7618 23.8597 22.8035 23.8595C22.8889 23.8593 22.9744 23.8593 23.0598 23.8595C23.1905 23.8596 23.3211 23.8587 23.4518 23.8576C23.5349 23.8575 23.6179 23.8575 23.701 23.8576C23.74 23.8572 23.7791 23.8568 23.8193 23.8564C24.0584 23.8581 24.197 23.8827 24.3764 24.0596C24.4426 24.1961 24.4462 24.3241 24.4213 24.4722C24.3079 24.6922 24.3079 24.6922 24.1946 24.7523C24.1316 24.7569 24.0684 24.759 24.0052 24.76C23.946 24.7609 23.946 24.7609 23.8856 24.7619C23.705 24.7637 23.5244 24.7653 23.3438 24.7663C23.2485 24.7669 23.1532 24.768 23.0579 24.7695C22.9207 24.7717 22.7834 24.7726 22.6462 24.7732C22.6036 24.7741 22.561 24.775 22.5171 24.7759C22.2212 24.7751 22.2212 24.7751 22.0716 24.6565C21.9712 24.5027 21.9497 24.3773 21.9657 24.1922C22.0787 23.9484 22.1999 23.8626 22.452 23.8611Z" fill="white"/>
<path d="M22.452 21.3006C22.4885 21.3002 22.5249 21.2998 22.5624 21.2994C22.6211 21.2995 22.6211 21.2995 22.681 21.2995C22.7214 21.2993 22.7618 21.2992 22.8035 21.299C22.8889 21.2988 22.9744 21.2987 23.0598 21.2989C23.1905 21.299 23.3211 21.2981 23.4518 21.2971C23.5349 21.297 23.6179 21.297 23.701 21.297C23.74 21.2966 23.7791 21.2963 23.8193 21.2959C24.0584 21.2975 24.197 21.3222 24.3764 21.4991C24.4426 21.6355 24.4462 21.7635 24.4213 21.9117C24.3079 22.1317 24.3079 22.1317 24.1946 22.1917C24.1316 22.1963 24.0684 22.1985 24.0052 22.1994C23.946 22.2004 23.946 22.2004 23.8856 22.2014C23.705 22.2031 23.5244 22.2048 23.3438 22.2057C23.2485 22.2064 23.1532 22.2075 23.0579 22.209C22.9207 22.2112 22.7834 22.2121 22.6462 22.2126C22.6036 22.2136 22.561 22.2145 22.5171 22.2154C22.2212 22.2146 22.2212 22.2146 22.0716 22.096C21.9712 21.9421 21.9497 21.8168 21.9657 21.6316C22.0787 21.3879 22.1999 21.302 22.452 21.3006Z" fill="white"/>
<path d="M22.452 18.74C22.4885 18.7396 22.5249 18.7393 22.5624 18.7389C22.6211 18.7389 22.6211 18.7389 22.681 18.739C22.7214 18.7388 22.7618 18.7386 22.8035 18.7384C22.8889 18.7382 22.9744 18.7382 23.0598 18.7384C23.1905 18.7385 23.3211 18.7376 23.4518 18.7365C23.5349 18.7365 23.6179 18.7364 23.701 18.7365C23.74 18.7361 23.7791 18.7357 23.8193 18.7354C24.0584 18.737 24.197 18.7617 24.3764 18.9385C24.4426 19.075 24.4462 19.203 24.4213 19.3511C24.3079 19.5712 24.3079 19.5712 24.1946 19.6312C24.1316 19.6358 24.0684 19.6379 24.0052 19.6389C23.946 19.6398 23.946 19.6398 23.8856 19.6408C23.705 19.6426 23.5244 19.6442 23.3438 19.6452C23.2485 19.6458 23.1532 19.6469 23.0579 19.6484C22.9207 19.6506 22.7834 19.6515 22.6462 19.6521C22.6036 19.653 22.561 19.6539 22.5171 19.6549C22.2212 19.654 22.2212 19.654 22.0716 19.5355C21.9712 19.3816 21.9497 19.2562 21.9657 19.0711C22.0787 18.8273 22.1999 18.7415 22.452 18.74Z" fill="white"/>
<path d="M15.1981 18.74C15.2346 18.7396 15.271 18.7393 15.3085 18.7389C15.3672 18.7389 15.3672 18.7389 15.4271 18.739C15.4675 18.7388 15.5079 18.7386 15.5496 18.7384C15.635 18.7382 15.7205 18.7382 15.8059 18.7384C15.9366 18.7385 16.0672 18.7376 16.1979 18.7365C16.281 18.7365 16.364 18.7364 16.4471 18.7365C16.4861 18.7361 16.5252 18.7357 16.5654 18.7354C16.8045 18.737 16.9431 18.7617 17.1225 18.9385C17.1886 19.075 17.1923 19.203 17.1674 19.3511C17.054 19.5712 17.054 19.5712 16.9407 19.6312C16.8777 19.6358 16.8145 19.6379 16.7513 19.6389C16.6921 19.6398 16.6921 19.6398 16.6317 19.6408C16.4511 19.6426 16.2705 19.6442 16.0899 19.6452C15.9946 19.6458 15.8993 19.6469 15.804 19.6484C15.6668 19.6506 15.5295 19.6515 15.3923 19.6521C15.3497 19.653 15.3071 19.6539 15.2632 19.6549C14.9673 19.654 14.9673 19.654 14.8177 19.5355C14.7173 19.3816 14.6958 19.2562 14.7118 19.0711C14.8248 18.8273 14.946 18.7415 15.1981 18.74Z" fill="white"/>
<path d="M15.1981 16.1795C15.2346 16.1791 15.271 16.1787 15.3085 16.1783C15.3672 16.1784 15.3672 16.1784 15.4271 16.1784C15.4675 16.1783 15.5079 16.1781 15.5496 16.1779C15.635 16.1777 15.7205 16.1777 15.8059 16.1778C15.9366 16.178 16.0672 16.177 16.1979 16.176C16.281 16.1759 16.364 16.1759 16.4471 16.1759C16.4861 16.1756 16.5252 16.1752 16.5654 16.1748C16.8045 16.1764 16.9431 16.2011 17.1225 16.378C17.1886 16.5144 17.1923 16.6424 17.1674 16.7906C17.054 17.0106 17.054 17.0106 16.9407 17.0706C16.8777 17.0752 16.8145 17.0774 16.7513 17.0783C16.6921 17.0793 16.6921 17.0793 16.6317 17.0803C16.4511 17.0821 16.2705 17.0837 16.0899 17.0846C15.9946 17.0853 15.8993 17.0864 15.804 17.0879C15.6668 17.0901 15.5295 17.091 15.3923 17.0916C15.3497 17.0925 15.3071 17.0934 15.2632 17.0943C14.9673 17.0935 14.9673 17.0935 14.8177 16.9749C14.7173 16.821 14.6958 16.6957 14.7118 16.5105C14.8248 16.2668 14.946 16.1809 15.1981 16.1795Z" fill="white"/>
<path d="M15.1981 13.6189C15.2346 13.6185 15.271 13.6182 15.3085 13.6178C15.3672 13.6178 15.3672 13.6178 15.4271 13.6179C15.4675 13.6177 15.5079 13.6175 15.5496 13.6174C15.635 13.6171 15.7205 13.6171 15.8059 13.6173C15.9366 13.6174 16.0672 13.6165 16.1979 13.6155C16.281 13.6154 16.364 13.6153 16.4471 13.6154C16.4861 13.615 16.5252 13.6146 16.5654 13.6143C16.8045 13.6159 16.9431 13.6406 17.1225 13.8174C17.1886 13.9539 17.1923 14.0819 17.1674 14.23C17.054 14.4501 17.054 14.4501 16.9407 14.5101C16.8777 14.5147 16.8145 14.5169 16.7513 14.5178C16.6921 14.5187 16.6921 14.5187 16.6317 14.5197C16.4511 14.5215 16.2705 14.5232 16.0899 14.5241C15.9946 14.5247 15.8993 14.5258 15.804 14.5274C15.6668 14.5295 15.5295 14.5304 15.3923 14.531C15.3497 14.5319 15.3071 14.5328 15.2632 14.5338C14.9673 14.5329 14.9673 14.5329 14.8177 14.4144C14.7173 14.2605 14.6958 14.1351 14.7118 13.95C14.8248 13.7063 14.946 13.6204 15.1981 13.6189Z" fill="white"/>
<path d="M15.1981 11.0584C15.2346 11.058 15.271 11.0576 15.3085 11.0572C15.3672 11.0573 15.3672 11.0573 15.4271 11.0573C15.4675 11.0572 15.5079 11.057 15.5496 11.0568C15.635 11.0566 15.7205 11.0566 15.8059 11.0567C15.9366 11.0569 16.0672 11.0559 16.1979 11.0549C16.281 11.0548 16.364 11.0548 16.4471 11.0548C16.4861 11.0545 16.5252 11.0541 16.5654 11.0537C16.8045 11.0553 16.9431 11.08 17.1225 11.2569C17.1886 11.3933 17.1923 11.5213 17.1674 11.6695C17.054 11.8895 17.054 11.8895 16.9407 11.9495C16.8777 11.9542 16.8145 11.9563 16.7513 11.9572C16.6921 11.9582 16.6921 11.9582 16.6317 11.9592C16.4511 11.961 16.2705 11.9626 16.0899 11.9635C15.9946 11.9642 15.8993 11.9653 15.804 11.9668C15.6668 11.969 15.5295 11.9699 15.3923 11.9705C15.3497 11.9714 15.3071 11.9723 15.2632 11.9732C14.9673 11.9724 14.9673 11.9724 14.8177 11.8538C14.7173 11.6999 14.6958 11.5746 14.7118 11.3894C14.8248 11.1457 14.946 11.0598 15.1981 11.0584Z" fill="white"/>
<path d="M11.1831 18.7435C11.2186 18.7431 11.2542 18.7428 11.2908 18.7424C11.3484 18.7421 11.3484 18.7421 11.4071 18.7418C11.4467 18.7416 11.4862 18.7414 11.527 18.7412C11.6107 18.7408 11.6944 18.7405 11.7782 18.7404C11.906 18.74 12.0338 18.7387 12.1617 18.7375C12.2431 18.7372 12.3245 18.737 12.4058 18.7368C12.444 18.7364 12.4821 18.7359 12.5214 18.7354C12.7243 18.736 12.8741 18.7446 13.0473 18.87C13.154 19.0394 13.1481 19.191 13.1229 19.3901C13.055 19.5075 13.0117 19.569 12.8962 19.6301C12.8343 19.6346 12.7723 19.6365 12.7103 19.6372C12.6716 19.6377 12.6329 19.6382 12.593 19.6388C12.53 19.6392 12.53 19.6392 12.4658 19.6397C12.4227 19.64 12.3797 19.6403 12.3353 19.6406C12.2441 19.6412 12.1528 19.6416 12.0616 19.6419C11.922 19.6426 11.7825 19.6444 11.643 19.6462C11.5544 19.6466 11.4659 19.6469 11.3773 19.6472C11.3147 19.6482 11.3147 19.6482 11.2508 19.6493C10.9606 19.6484 10.9606 19.6484 10.8119 19.5541C10.6887 19.4042 10.6904 19.2828 10.6917 19.0894C10.7051 18.99 10.7051 18.99 10.7925 18.8675C10.9265 18.7652 11.0221 18.7449 11.1831 18.7435Z" fill="white"/>
<path d="M11.1831 16.183C11.2186 16.1826 11.2542 16.1822 11.2908 16.1818C11.3484 16.1816 11.3484 16.1816 11.4071 16.1813C11.4467 16.1811 11.4862 16.1808 11.527 16.1806C11.6107 16.1802 11.6944 16.18 11.7782 16.1798C11.906 16.1794 12.0338 16.1782 12.1617 16.1769C12.2431 16.1767 12.3245 16.1765 12.4058 16.1763C12.444 16.1758 12.4821 16.1753 12.5214 16.1748C12.7243 16.1755 12.8741 16.1841 13.0473 16.3095C13.154 16.4789 13.1481 16.6305 13.1229 16.8295C13.055 16.9469 13.0117 17.0085 12.8962 17.0696C12.8343 17.074 12.7723 17.076 12.7103 17.0767C12.6716 17.0772 12.6329 17.0777 12.593 17.0782C12.53 17.0787 12.53 17.0787 12.4658 17.0791C12.4227 17.0794 12.3797 17.0798 12.3353 17.0801C12.2441 17.0807 12.1528 17.0811 12.0616 17.0814C11.922 17.0821 11.7825 17.0838 11.643 17.0856C11.5544 17.086 11.4659 17.0864 11.3773 17.0866C11.3147 17.0877 11.3147 17.0877 11.2508 17.0887C10.9606 17.0879 10.9606 17.0879 10.8119 16.9935C10.6887 16.8436 10.6904 16.7222 10.6917 16.5289C10.7051 16.4295 10.7051 16.4295 10.7925 16.307C10.9265 16.2046 11.0221 16.1844 11.1831 16.183Z" fill="white"/>
<path d="M11.1831 13.6224C11.2186 13.6221 11.2542 13.6217 11.2908 13.6213C11.3484 13.621 11.3484 13.621 11.4071 13.6208C11.4467 13.6205 11.4862 13.6203 11.527 13.6201C11.6107 13.6197 11.6944 13.6194 11.7782 13.6193C11.906 13.6189 12.0338 13.6176 12.1617 13.6164C12.2431 13.6161 12.3245 13.6159 12.4058 13.6158C12.444 13.6153 12.4821 13.6148 12.5214 13.6143C12.7243 13.6149 12.8741 13.6235 13.0473 13.7489C13.154 13.9184 13.1481 14.07 13.1229 14.269C13.055 14.3864 13.0117 14.4479 12.8962 14.509C12.8343 14.5135 12.7723 14.5154 12.7103 14.5161C12.6716 14.5166 12.6329 14.5172 12.593 14.5177C12.53 14.5181 12.53 14.5181 12.4658 14.5186C12.4227 14.5189 12.3797 14.5192 12.3353 14.5196C12.2441 14.5201 12.1528 14.5205 12.0616 14.5209C11.922 14.5215 11.7825 14.5233 11.643 14.5251C11.5544 14.5255 11.4659 14.5258 11.3773 14.5261C11.3147 14.5271 11.3147 14.5271 11.2508 14.5282C10.9606 14.5273 10.9606 14.5273 10.8119 14.433C10.6887 14.2831 10.6904 14.1617 10.6917 13.9683C10.7051 13.8689 10.7051 13.8689 10.7925 13.7464C10.9265 13.6441 11.0221 13.6238 11.1831 13.6224Z" fill="white"/>
<path d="M11.1831 11.0619C11.2186 11.0615 11.2542 11.0611 11.2908 11.0607C11.3484 11.0605 11.3484 11.0605 11.4071 11.0602C11.4467 11.06 11.4862 11.0598 11.527 11.0595C11.6107 11.0591 11.6944 11.0589 11.7782 11.0587C11.906 11.0583 12.0338 11.0571 12.1617 11.0558C12.2431 11.0556 12.3245 11.0554 12.4058 11.0552C12.444 11.0547 12.4821 11.0542 12.5214 11.0537C12.7243 11.0544 12.8741 11.063 13.0473 11.1884C13.154 11.3578 13.1481 11.5094 13.1229 11.7085C13.055 11.8258 13.0117 11.8874 12.8962 11.9485C12.8343 11.9529 12.7723 11.9549 12.7103 11.9556C12.6716 11.9561 12.6329 11.9566 12.593 11.9571C12.53 11.9576 12.53 11.9576 12.4658 11.958C12.4227 11.9584 12.3797 11.9587 12.3353 11.959C12.2441 11.9596 12.1528 11.96 12.0616 11.9603C11.922 11.961 11.7825 11.9627 11.643 11.9645C11.5544 11.9649 11.4659 11.9653 11.3773 11.9655C11.3147 11.9666 11.3147 11.9666 11.2508 11.9677C10.9606 11.9668 10.9606 11.9668 10.8119 11.8724C10.6887 11.7225 10.6904 11.6011 10.6917 11.4078C10.7051 11.3084 10.7051 11.3084 10.7925 11.1859C10.9265 11.0835 11.0221 11.0633 11.1831 11.0619Z" fill="white"/>
</g>
<defs>
<clipPath id="clip0_3350_433126">
<rect width="19.3421" height="20.4837" fill="white" transform="translate(8.28906 6.82812)"/>
</clipPath>
</defs>
</svg>
