<svg width="35" height="35" viewBox="0 0 35 35" fill="none" xmlns="http://www.w3.org/2000/svg">
<rect width="35" height="35" rx="3" fill="#8A38F5"/>
<path d="M10.8477 7.41016C10.7539 7.5 10.75 7.52344 10.75 8.03516V8.5625H10.2227C9.71094 8.5625 9.6875 8.56641 9.59766 8.66016L9.5 8.75391V17.625V26.4961L9.59766 26.5898L9.69141 26.6875H16.375H23.0586L23.1523 26.5898C23.2461 26.5 23.25 26.4766 23.25 25.9648V25.4375H23.7773C24.2891 25.4375 24.3125 25.4336 24.4023 25.3398L24.5 25.2461V16.375V7.50391L24.4023 7.41016L24.3086 7.3125H17.625H10.9414L10.8477 7.41016ZM23.875 16.375V24.8125H23.5625H23.25V18.1836V11.5508L21.7539 10.0586L20.2617 8.5625H15.8164H11.375V8.25V7.9375H17.625H23.875V16.375ZM19.8125 9.72656V10.2695L19.0195 10.7969L18.2266 11.3242L17.6641 11.0391C17.3516 10.8828 17.0469 10.7539 16.9805 10.7539C16.8828 10.75 16.7422 10.875 15.9648 11.6445L15.0664 12.543L14.3633 12.1133C13.8047 11.7734 13.6367 11.6875 13.543 11.6953C13.4688 11.707 12.9023 12.0625 12.0117 12.6562C11.2305 13.1758 10.5938 13.6133 10.5938 13.625C10.5938 13.6367 10.6641 13.75 10.7539 13.8789C10.8516 14.0234 10.9336 14.1055 10.9648 14.0938C10.9922 14.0859 11.5742 13.7031 12.2539 13.25C12.9336 12.7969 13.5156 12.4141 13.543 12.4023C13.5742 12.3945 13.9219 12.5781 14.3203 12.8164C14.7773 13.0938 15.0781 13.25 15.1484 13.25C15.2383 13.25 15.4141 13.0938 16.1641 12.3477L17.0664 11.4453L17.6172 11.7227C17.9219 11.875 18.2109 12 18.2578 12C18.3086 12 18.6758 11.7812 19.082 11.5117L19.8125 11.0234V11.4141C19.8125 11.7812 19.8203 11.8164 19.9102 11.9023L20.0039 12H21.3164H22.625V19.0312V26.0625H16.375H10.125V17.625V9.1875H14.9688H19.8125V9.72656ZM21.3164 10.5156L22.1758 11.375H21.3047H20.4375V10.5156C20.4375 10.043 20.4414 9.65625 20.4492 9.65625C20.4531 9.65625 20.8438 10.043 21.3164 10.5156Z" fill="white"/>
<path d="M13.3086 14.2425C12.457 14.4105 11.7266 14.8988 11.2578 15.6214C10.9102 16.1527 10.7695 16.6332 10.7695 17.3128C10.7695 17.9925 10.9102 18.473 11.2539 19.0003C12.2031 20.4496 14.1328 20.8675 15.5664 19.93C17.0117 18.9886 17.4297 17.0472 16.4961 15.6253C16.0508 14.9457 15.4297 14.5003 14.6172 14.2816C14.3125 14.1957 13.6406 14.18 13.3086 14.2425ZM13.5625 15.1605V15.4691L13.4297 15.4925C13.3555 15.5082 13.1719 15.5785 13.0234 15.6527C12.1992 16.0668 11.793 17.0902 12.1172 17.9457C12.1641 18.0707 12.1914 18.1878 12.1797 18.2035C12.1523 18.2503 11.7461 18.5628 11.7188 18.5628C11.6719 18.5628 11.4609 17.9925 11.418 17.766C11.1914 16.5355 11.9336 15.3089 13.1328 14.9261C13.25 14.8871 13.3945 14.8558 13.457 14.8558L13.5625 14.8519V15.1605ZM14.7266 14.9691C15.3867 15.2035 15.9844 15.8011 16.2188 16.4613C16.2617 16.5824 16.3047 16.7503 16.3203 16.8402L16.3477 17.0003H16.0312H15.7188L15.6953 16.8714C15.6484 16.6293 15.4375 16.2543 15.2148 16.0199C14.9883 15.7816 14.582 15.5433 14.3203 15.4925L14.1875 15.4691V15.1566V14.8402L14.3477 14.8675C14.4375 14.8832 14.6055 14.9261 14.7266 14.9691ZM14.4023 16.1839C15.3281 16.6214 15.3633 17.9066 14.4609 18.4027C14.2266 18.5316 14.1836 18.5433 13.875 18.5433C13.5703 18.5433 13.5195 18.5316 13.2969 18.4105C12.3242 17.8832 12.4375 16.5043 13.4844 16.1253C13.7305 16.0355 14.1484 16.0628 14.4023 16.1839ZM16.3359 17.6918C16.3359 17.9027 16.1602 18.3675 15.9766 18.6527L15.8555 18.8402L15.6328 18.6214L15.4141 18.4027L15.5391 18.1488C15.6133 18.0082 15.6797 17.8324 15.6953 17.7621L15.7188 17.6253H16.0273C16.2969 17.6253 16.3359 17.6332 16.3359 17.6918ZM13.0195 18.9769C13.5781 19.2582 14.2148 19.2503 14.7578 18.9574L14.9609 18.848L15.1836 19.0707L15.4023 19.2933L15.2109 19.4183C14.3047 20.0003 13.0625 19.9144 12.2539 19.2113C12.1016 19.0785 12.1016 19.0746 12.1758 19.0199C12.2188 18.9886 12.332 18.8988 12.4258 18.8246L12.6016 18.6839L12.7148 18.7816C12.7812 18.8363 12.918 18.9222 13.0195 18.9769Z" fill="white"/>
<path d="M18.875 15.125V15.4375H20.4375H22V15.125V14.8125H20.4375H18.875V15.125Z" fill="white"/>
<path d="M17.625 16.375V16.6875H19.8125H22V16.375V16.0625H19.8125H17.625V16.375Z" fill="white"/>
<path d="M17.625 17.625V17.9375H19.8125H22V17.625V17.3125H19.8125H17.625V17.625Z" fill="white"/>
<path d="M17.625 18.875V19.1875H19.8125H22V18.875V18.5625H19.8125H17.625V18.875Z" fill="white"/>
<path d="M10.75 21.375V21.6875H12.3125H13.875V21.375V21.0625H12.3125H10.75V21.375Z" fill="white"/>
<path d="M19.5977 21.1602C19.5078 21.2461 19.5 21.2852 19.5 21.6289V22H18.9727C18.4609 22 18.4375 22.0039 18.3477 22.0977C18.2539 22.1875 18.25 22.2109 18.25 22.7227V23.25H17.7227C17.2109 23.25 17.1875 23.2539 17.0977 23.3477C17 23.4414 17 23.4531 17 24.1289V24.8125H16.6875H16.375V25.125V25.4375H19.1875H22V25.125V24.8125H21.6875H21.375V23.0352V21.2539L21.2773 21.1602C21.1836 21.0625 21.1758 21.0625 20.4375 21.0625C19.6992 21.0625 19.6914 21.0625 19.5977 21.1602ZM20.75 23.25V24.8125H20.4375H20.125V23.25V21.6875H20.4375H20.75V23.25ZM19.5 23.7188V24.8125H19.1875H18.875V23.7188V22.625H19.1875H19.5V23.7188ZM18.25 24.3438V24.8125H17.9375H17.625V24.3438V23.875H17.9375H18.25V24.3438Z" fill="white"/>
<path d="M10.75 22.625V22.9375H13.25H15.75V22.625V22.3125H13.25H10.75V22.625Z" fill="white"/>
<path d="M10.75 23.875V24.1875H13.25H15.75V23.875V23.5625H13.25H10.75V23.875Z" fill="white"/>
<path d="M10.75 25.125V25.4375H13.25H15.75V25.125V24.8125H13.25H10.75V25.125Z" fill="white"/>
</svg>
