<svg width="35" height="35" viewBox="0 0 35 35" fill="none" xmlns="http://www.w3.org/2000/svg">
<rect width="35" height="35" rx="3" fill="#FB70A9"/>
<g clip-path="url(#clip0_3524_151142)">
<path d="M18.0181 8.00907C18.1257 8.04134 18.1793 8.07643 18.2627 8.15042C18.289 8.17317 18.3153 8.19593 18.3424 8.21938C18.3702 8.24375 18.398 8.26812 18.4266 8.29324C19.4304 9.14434 20.7668 9.60171 22.082 9.60977C22.1122 9.61004 22.1424 9.61032 22.1736 9.6106C23.1209 9.61861 23.1209 9.61861 24.0564 9.48464C24.0879 9.47813 24.1193 9.47161 24.1517 9.4649C24.7287 9.34134 25.2645 9.11694 25.8051 8.88599C25.8332 8.87401 25.8614 8.86203 25.8904 8.84968C25.9437 8.82692 25.997 8.80397 26.0501 8.78078C26.1611 8.73332 26.239 8.70339 26.3611 8.70339C26.3629 9.93351 26.3643 11.1636 26.3651 12.3938C26.3652 12.5394 26.3653 12.685 26.3654 12.8307C26.3655 12.8741 26.3655 12.8741 26.3655 12.9185C26.3658 13.3863 26.3664 13.854 26.3672 14.3218C26.3679 14.8027 26.3683 15.2836 26.3685 15.7646C26.3686 16.0607 26.3689 16.3568 26.3696 16.6529C26.37 16.881 26.3701 17.1091 26.37 17.3372C26.37 17.43 26.3701 17.5228 26.3704 17.6156C26.3727 18.3436 26.3464 19.0656 26.1951 19.7801C26.1867 19.8207 26.1782 19.8614 26.1695 19.9034C25.9064 21.1322 25.3947 22.3033 24.6424 23.3128C24.6172 23.347 24.6172 23.347 24.5914 23.382C24.4003 23.6405 24.1989 23.8867 23.9809 24.1233C23.9097 24.2008 23.8413 24.2799 23.7732 24.3601C23.4749 24.7013 23.1507 25.0174 22.7955 25.2987C22.6853 25.3862 22.5788 25.4772 22.472 25.5686C21.3272 26.5206 19.9969 27.2357 18.6268 27.805C18.5603 27.833 18.5603 27.833 18.4926 27.8615C18.4485 27.8795 18.4044 27.8974 18.359 27.9159C18.3195 27.9321 18.28 27.9483 18.2393 27.965C17.9954 28.0365 17.8236 28.0066 17.5995 27.8941C17.5654 27.8771 17.5654 27.8771 17.5305 27.8598C17.4562 27.8226 17.3823 27.7845 17.3084 27.7464C17.2564 27.7199 17.2043 27.6934 17.1523 27.667C16.4197 27.2914 15.7075 26.8709 15.033 26.3987C15.0104 26.3829 14.9877 26.3672 14.9644 26.3509C14.3704 25.9361 13.7938 25.4947 13.2589 25.0056C13.1767 24.9313 13.0936 24.8587 13.0097 24.7863C12.8432 24.641 12.6863 24.4875 12.5306 24.3308C12.5045 24.3049 12.4783 24.2789 12.4514 24.2522C11.7784 23.5778 11.2099 22.8097 10.7361 21.9846C10.718 21.9531 10.6998 21.9216 10.6812 21.8891C9.88763 20.4916 9.62122 19.0169 9.62907 17.4262C9.62911 17.3303 9.62909 17.2343 9.62902 17.1383C9.629 16.934 9.62932 16.7297 9.62999 16.5254C9.63095 16.23 9.63125 15.9346 9.63139 15.6393C9.63165 15.1597 9.63242 14.6802 9.63354 14.2006C9.63462 13.7356 9.63545 13.2705 9.63594 12.8054C9.63597 12.7766 9.636 12.7478 9.63603 12.7181C9.63619 12.5736 9.63634 12.4291 9.63648 12.2846C9.63769 11.0909 9.63976 9.89713 9.64238 8.70339C9.79376 8.73171 9.92461 8.77368 10.0669 8.8334C10.1108 8.85167 10.1548 8.86994 10.2 8.88877C10.2464 8.90816 10.2928 8.92755 10.3406 8.94753C12.2295 9.72531 14.2665 9.86988 16.1976 9.14041C16.7205 8.91939 17.1618 8.63684 17.5945 8.2705C17.6176 8.25103 17.6407 8.23157 17.6644 8.21151C17.7213 8.16257 17.7766 8.11182 17.8316 8.06085C17.9236 8.00027 17.9236 8.00027 18.0181 8.00907ZM17.6893 10.305C16.8244 10.799 15.8991 11.0919 14.9158 11.2425C14.8871 11.247 14.8584 11.2516 14.8288 11.2563C13.6734 11.4331 12.5064 11.3015 11.3611 11.1253C11.3611 12.2854 11.3611 13.4456 11.3611 14.6409C15.7439 14.6409 20.1268 14.6409 24.6424 14.6409C24.6424 13.4807 24.6424 12.3206 24.6424 11.1253C24.2943 11.1768 23.9463 11.2284 23.5877 11.2815C23.2243 11.3118 22.8696 11.33 22.5061 11.3303C22.4781 11.3304 22.45 11.3304 22.4211 11.3304C20.9417 11.3282 19.3537 11.0159 18.1035 10.1847C17.9503 10.0967 17.823 10.2263 17.6893 10.305ZM11.3611 16.3596C11.3096 18.0393 11.3096 18.0393 11.5833 19.6629C11.5982 19.7137 11.5982 19.7137 11.6135 19.7655C11.9436 20.8466 12.5708 21.8078 13.3143 22.6487C13.3553 22.6963 13.3553 22.6963 13.3973 22.7448C13.7711 23.171 14.1721 23.5852 14.6184 23.9356C14.7275 24.0214 14.8324 24.1112 14.9378 24.2014C15.6748 24.8151 16.4933 25.3347 17.3287 25.8029C17.4146 25.8512 17.5001 25.9002 17.5856 25.9493C17.6381 25.9787 17.6905 26.0081 17.743 26.0374C17.7664 26.051 17.7899 26.0646 17.814 26.0785C17.9628 26.1598 18.0359 26.1693 18.1971 26.1253C19.5667 25.5898 20.8781 24.7507 21.9471 23.7425C22.0029 23.6933 22.0591 23.6444 22.1155 23.596C22.3679 23.3758 22.5845 23.1393 22.7942 22.8779C22.8518 22.8065 22.9103 22.7358 22.97 22.6661C24.5488 20.811 24.6424 18.7519 24.6424 16.3596C20.2596 16.3596 15.8768 16.3596 11.3611 16.3596Z" fill="white"/>
</g>
<defs>
<clipPath id="clip0_3524_151142">
<rect width="20" height="20" fill="white" transform="translate(8 8)"/>
</clipPath>
</defs>
</svg>
