<svg width="35" height="36" viewBox="0 0 35 36" fill="none" xmlns="http://www.w3.org/2000/svg">
<rect x="-0.000488281" y="0.732422" width="35" height="35" rx="3" fill="#F96332"/>
<g clip-path="url(#clip0_1510_56916)">
<path d="M17.5112 8.65631C17.4596 8.65663 17.4596 8.65663 17.4069 8.65697C16.9398 8.6693 16.5703 8.81921 16.2048 9.13258C16.148 9.1762 16.148 9.1762 16.0901 9.22069C15.7432 9.57172 15.4927 10.0829 15.4696 10.5945C15.4688 10.6644 15.4687 10.7344 15.4694 10.8043C15.4697 10.8592 15.4697 10.8592 15.4699 10.9153C15.4755 11.1983 15.5173 11.4265 15.6291 11.6854C15.6533 11.7489 15.6773 11.8123 15.7011 11.8759C15.2906 11.6628 14.9329 11.4287 14.5857 11.1139C14.553 11.0844 14.553 11.0844 14.5197 11.0543C14.3833 10.9308 14.248 10.8059 14.113 10.6806C13.8292 10.4178 13.5425 10.1591 13.2492 9.90847C13.1718 9.84058 13.0964 9.77177 13.0215 9.70099C12.697 9.39533 12.4512 9.17483 11.995 9.1945C11.7034 9.2332 11.5074 9.34439 11.3261 9.58966C11.1718 9.82325 11.1144 10.0414 11.1395 10.3251C11.1979 10.6668 11.3894 10.9089 11.618 11.1459C11.6522 11.182 11.6522 11.182 11.6871 11.2189C11.7617 11.2977 11.8367 11.376 11.9118 11.4544C11.9642 11.5096 12.0166 11.5648 12.0689 11.6201C12.2064 11.765 12.3442 11.9096 12.4821 12.0542C12.7025 12.2854 12.9225 12.5171 13.1425 12.7488C13.219 12.8293 13.2956 12.9096 13.3722 12.9899C13.5739 13.2016 13.7722 13.412 13.9558 13.6416C14.0554 13.7577 14.1712 13.8536 14.2852 13.9531C14.9693 14.5522 14.9693 14.5522 15.2516 15.405C15.2612 15.7051 15.235 15.9987 15.1974 16.2958C15.3873 16.2958 15.5773 16.2958 15.773 16.2958C15.7793 16.0626 15.7838 15.8295 15.7868 15.5963C15.7881 15.517 15.7898 15.4378 15.792 15.3586C15.7951 15.2443 15.7965 15.1301 15.7976 15.0158C15.7989 14.9807 15.8002 14.9456 15.8015 14.9094C15.8016 14.7277 15.7865 14.6148 15.6679 14.4792C15.6449 14.4529 15.622 14.4266 15.5984 14.3995C15.454 14.2406 15.3078 14.0839 15.1601 13.9284C15.1244 13.8907 15.0887 13.8529 15.053 13.8151C14.9766 13.7344 14.9002 13.6537 14.8238 13.573C14.7029 13.4455 14.5821 13.3179 14.4614 13.1902C14.2054 12.9195 13.9492 12.6489 13.693 12.3784C13.4157 12.0856 13.1385 11.7928 12.8615 11.4998C12.7414 11.3729 12.6213 11.2461 12.5011 11.1193C12.4265 11.0406 12.352 10.9618 12.2775 10.883C12.2264 10.829 12.1753 10.7751 12.1241 10.7212C12.0786 10.6731 12.0786 10.6731 12.0322 10.624C11.9926 10.5821 11.9926 10.5821 11.9522 10.5395C11.8522 10.4265 11.8056 10.3532 11.8086 10.1994C11.8088 10.1735 11.8091 10.1476 11.8093 10.1209C11.8133 10.0387 11.8133 10.0387 11.8513 9.93273C11.9752 9.89375 12.0823 9.87936 12.2111 9.89463C12.3397 9.97257 12.4427 10.0738 12.55 10.1813C12.656 10.2861 12.7669 10.385 12.8767 10.4852C12.9232 10.5281 12.9697 10.5709 13.0161 10.6138C13.1548 10.7411 13.2968 10.8635 13.4395 10.9857C13.5627 11.0936 13.6828 11.2049 13.8032 11.3163C14.8833 12.3108 16.0163 12.9611 17.482 12.9571C17.5089 12.9571 17.5358 12.9571 17.5635 12.9571C18 12.9558 18.41 12.9196 18.8312 12.7904C18.8549 12.7835 18.8786 12.7765 18.903 12.7694C19.7842 12.5067 20.4658 11.9691 21.149 11.3455C21.2701 11.235 21.3918 11.1255 21.5138 11.0163C21.533 10.9991 21.5522 10.9819 21.5719 10.9643C21.6298 10.9125 21.6876 10.8608 21.7455 10.8091C21.8227 10.74 21.8999 10.671 21.9771 10.6019C21.996 10.585 22.0149 10.5681 22.0344 10.5506C22.1407 10.4554 22.2466 10.3596 22.352 10.2633C22.375 10.2423 22.398 10.2213 22.4217 10.1997C22.4663 10.159 22.5108 10.1182 22.5553 10.0773C22.7122 9.93126 22.7122 9.93126 22.9103 9.88272C23.0403 9.88283 23.0403 9.88283 23.1261 9.95892C23.1943 10.0617 23.2206 10.1114 23.2206 10.2375C23.1046 10.5086 22.9084 10.6976 22.7108 10.9041C22.6733 10.9438 22.6357 10.9835 22.5982 11.0232C22.4968 11.1305 22.395 11.2375 22.2932 11.3444C22.1866 11.4564 22.0803 11.5687 21.974 11.6811C21.7728 11.8936 21.5713 12.1059 21.3698 12.318C21.0083 12.6984 20.6474 13.0792 20.2865 13.4602C20.1598 13.5939 20.033 13.7275 19.9061 13.8609C19.8274 13.9438 19.7488 14.0267 19.6702 14.1096C19.6336 14.1481 19.597 14.1866 19.5604 14.2251C19.5105 14.2774 19.4608 14.3299 19.4111 14.3824C19.3832 14.4118 19.3553 14.4411 19.3265 14.4714C19.232 14.578 19.2225 14.6396 19.2229 14.7818C19.2229 14.8154 19.2229 14.849 19.2229 14.8835C19.2231 14.9198 19.2233 14.9561 19.2234 14.9935C19.2235 15.0491 19.2235 15.0491 19.2236 15.1059C19.2238 15.2247 19.2243 15.3435 19.2247 15.4623C19.2249 15.5427 19.2251 15.6231 19.2252 15.7036C19.2256 15.901 19.2262 16.0984 19.227 16.2958C19.4169 16.2958 19.6069 16.2958 19.8026 16.2958C19.7894 16.2136 19.7761 16.1313 19.7624 16.0466C19.7082 15.5798 19.6913 15.113 19.9704 14.722C20.2925 14.3167 20.6724 13.9649 21.0523 13.622C21.1739 13.51 21.2776 13.3918 21.3816 13.2619C21.5433 13.0695 21.7199 12.8918 21.893 12.711C21.9665 12.6342 22.0398 12.5572 22.113 12.4802C22.3212 12.2614 22.5294 12.0427 22.7382 11.8246C22.8664 11.6907 22.9943 11.5564 23.1219 11.4219C23.1704 11.3709 23.219 11.3201 23.2677 11.2695C23.3359 11.1986 23.4036 11.1272 23.4712 11.0557C23.5011 11.0249 23.5011 11.0249 23.5316 10.9935C23.7288 10.7831 23.85 10.5465 23.8693 10.2486C23.8649 9.90637 23.7413 9.64597 23.5152 9.40644C23.2515 9.21486 23 9.16479 22.6809 9.20879C22.3638 9.30324 22.1229 9.56757 21.8832 9.79457C21.7763 9.8953 21.6675 9.99377 21.5588 10.0923C21.5378 10.1114 21.5167 10.1306 21.495 10.1503C21.3396 10.2913 21.1815 10.4284 21.0225 10.5648C20.9202 10.6547 20.82 10.7467 20.7201 10.8396C20.0791 11.4704 20.0791 11.4704 19.2989 11.8378C19.3115 11.8066 19.3241 11.7754 19.337 11.7432C19.3534 11.7021 19.3697 11.6611 19.3866 11.6187C19.4029 11.5781 19.4192 11.5374 19.4359 11.4955C19.6128 11.0214 19.5625 10.4074 19.391 9.94062C19.3062 9.756 19.2047 9.59661 19.083 9.4374C19.0556 9.39732 19.0281 9.35724 18.9998 9.31595C18.6071 8.88071 18.0744 8.65212 17.5112 8.65631ZM18.6153 9.85652C18.8835 10.2425 18.9479 10.6423 18.9031 11.1139C18.8182 11.533 18.5794 11.8558 18.2555 12.1046C17.9377 12.31 17.5685 12.3657 17.2054 12.2951C16.8669 12.2042 16.561 12.023 16.3487 11.7235C16.1125 11.2879 16.0266 10.8768 16.1201 10.3804C16.2533 9.95603 16.536 9.63736 16.9035 9.4252C17.5211 9.14178 18.1762 9.33438 18.6153 9.85652Z" fill="white"/>
<path d="M17.5113 16.5821C17.4596 16.5824 17.4596 16.5824 17.4069 16.5827C16.9399 16.5951 16.5704 16.745 16.2048 17.0584C16.1669 17.0874 16.1291 17.1165 16.0901 17.1465C15.7432 17.4975 15.4927 18.0087 15.4696 18.5202C15.4688 18.5902 15.4687 18.6601 15.4695 18.7301C15.4699 18.7853 15.4699 18.7853 15.4703 18.8415C15.4764 19.1208 15.5126 19.358 15.6291 19.6112C15.6461 19.6483 15.663 19.6854 15.6804 19.7236C15.7772 19.922 15.8823 20.0946 16.0249 20.2589C15.9979 20.265 15.9709 20.271 15.9431 20.2773C15.3937 20.4099 14.9714 20.6807 14.6489 21.1783C14.4229 21.57 14.3229 21.9298 14.3205 22.3846C14.3202 22.4235 14.3199 22.4625 14.3196 22.5026C14.319 22.5845 14.3187 22.6664 14.3186 22.7483C14.3182 22.8736 14.3164 22.9988 14.3146 23.124C14.3142 23.2038 14.314 23.2836 14.3138 23.3634C14.3127 23.4194 14.3127 23.4194 14.3117 23.4766C14.3128 23.6544 14.3136 23.7366 14.4191 23.8807C15.1144 24.4253 16.1398 24.5304 16.9799 24.5341C17.0385 24.5345 17.0385 24.5345 17.0982 24.5348C17.1807 24.5351 17.2631 24.5354 17.3456 24.5355C17.4688 24.5359 17.592 24.5371 17.7153 24.5383C18.6694 24.5432 19.7303 24.4743 20.5582 23.9168C20.652 23.8074 20.6797 23.7369 20.6807 23.5899C20.6811 23.5555 20.6816 23.5212 20.6821 23.4858C20.682 23.4488 20.6818 23.4119 20.6817 23.3738C20.6819 23.3353 20.6821 23.2969 20.6823 23.2573C20.6825 23.1758 20.6825 23.0943 20.6822 23.0128C20.6819 22.8895 20.6829 22.7662 20.6841 22.6429C20.6865 21.8785 20.6865 21.8785 20.5222 21.5163C20.5045 21.4744 20.4868 21.4325 20.4685 21.3894C20.1349 20.7555 19.6442 20.4612 19.0111 20.2208C19.0359 20.1849 19.0359 20.1849 19.0612 20.1482C19.3591 19.7081 19.5365 19.2969 19.5328 18.7468C19.5326 18.7103 19.5324 18.6739 19.5322 18.6363C19.5205 18.1416 19.379 17.7503 19.0831 17.3632C19.0556 17.3231 19.0282 17.283 18.9999 17.2417C18.6072 16.8065 18.0744 16.5779 17.5113 16.5821ZM18.6154 17.7823C18.8835 18.1682 18.9479 18.5681 18.9032 19.0397C18.8183 19.4587 18.5795 19.7816 18.2556 20.0303C17.9377 20.2357 17.5685 20.2915 17.2054 20.2208C16.8669 20.13 16.5611 19.9488 16.3487 19.6493C16.1126 19.2137 16.0267 18.8026 16.1202 18.3062C16.2534 17.8818 16.5361 17.5631 16.9036 17.351C17.5211 17.0676 18.1762 17.2602 18.6154 17.7823ZM19.7667 21.4401C20.0853 21.9011 20.0963 22.375 20.0927 22.9261C20.0926 22.9738 20.0924 23.0215 20.0922 23.0706C20.0918 23.1876 20.0912 23.3045 20.0905 23.4214C18.7803 24.1464 16.8492 24.0728 15.4515 23.6715C15.4258 23.6641 15.4 23.6568 15.3735 23.6492C15.2026 23.5963 15.0613 23.5201 14.9096 23.4214C14.9074 23.2595 14.9062 23.0976 14.9051 22.9356C14.9042 22.8678 14.9042 22.8678 14.9032 22.7985C14.9002 22.2079 14.9773 21.731 15.3686 21.2893C15.8016 20.8715 16.3104 20.8625 16.8653 20.8622C16.9155 20.8621 16.9657 20.8619 17.0159 20.8618C17.1207 20.8616 17.2256 20.8615 17.3305 20.8615C17.4637 20.8615 17.5969 20.861 17.7301 20.8603C17.8337 20.8599 17.9373 20.8598 18.0409 20.8599C18.1135 20.8598 18.1861 20.8594 18.2587 20.859C18.8574 20.8605 19.3486 20.9542 19.7667 21.4401Z" fill="white"/>
<path d="M12.0425 15.668C11.9908 15.6684 11.9908 15.6684 11.9382 15.6687C11.4711 15.681 11.1016 15.8309 10.736 16.1443C10.6981 16.1734 10.6603 16.2025 10.6213 16.2324C10.2744 16.5834 10.0239 17.0946 10.0008 17.6062C9.99998 17.6761 9.99995 17.7461 10.0007 17.816C10.0011 17.8712 10.0011 17.8712 10.0015 17.9275C10.0076 18.2067 10.0438 18.444 10.1603 18.6971C10.1773 18.7342 10.1942 18.7713 10.2116 18.8095C10.3084 19.0079 10.4135 19.1805 10.5561 19.3449C10.5304 19.35 10.5046 19.3552 10.4781 19.3605C9.92223 19.4877 9.50759 19.7732 9.18385 20.2616C8.95199 20.65 8.85411 21.0161 8.85175 21.4706C8.85143 21.5095 8.8511 21.5484 8.85077 21.5885C8.85025 21.6704 8.84993 21.7523 8.8498 21.8342C8.84937 21.9595 8.84759 22.0847 8.84578 22.21C8.84544 22.2898 8.84518 22.3695 8.84501 22.4493C8.84395 22.5053 8.84395 22.5053 8.84288 22.5625C8.84399 22.7403 8.84479 22.8225 8.95034 22.9666C9.64557 23.5112 10.671 23.6163 11.5111 23.6201C11.5697 23.6204 11.5697 23.6204 11.6294 23.6207C11.7119 23.6211 11.7943 23.6213 11.8768 23.6215C12 23.6218 12.1232 23.623 12.2465 23.6242C12.7706 23.6268 13.2766 23.5863 13.7942 23.498C13.8371 23.3451 13.8151 23.2437 13.7784 23.0884C13.7629 23.0215 13.7629 23.0215 13.7471 22.9533C13.7389 22.9193 13.7307 22.8853 13.7222 22.8503C13.6578 22.8558 13.5933 22.8614 13.5288 22.867C13.475 22.8716 13.475 22.8716 13.4201 22.8763C13.3504 22.8828 13.2808 22.8895 13.2113 22.8974C12.0539 23.0289 10.5393 23.1122 9.47674 22.5074C9.47462 22.3454 9.47336 22.1835 9.47224 22.0216C9.47134 21.9537 9.47134 21.9537 9.47042 21.8845C9.4675 21.3199 9.53347 20.8315 9.90778 20.4049C10.3412 19.9912 10.8536 19.9865 11.4057 19.9862C11.4567 19.9861 11.5078 19.986 11.5589 19.9858C11.6656 19.9856 11.7723 19.9855 11.879 19.9856C12.0148 19.9856 12.1505 19.985 12.2862 19.9844C12.3916 19.984 12.497 19.9839 12.6024 19.9839C12.6524 19.9839 12.7024 19.9837 12.7524 19.9834C13.2842 19.9805 13.797 20.0257 14.1967 20.4403C14.2548 20.5068 14.2956 20.5593 14.3339 20.6404C14.488 20.6195 14.5804 20.5632 14.7049 20.4665C14.7367 20.4421 14.7684 20.4177 14.8012 20.3925C14.825 20.3737 14.8489 20.3549 14.8735 20.3355C14.7416 19.9605 14.4444 19.7197 14.118 19.5354C13.943 19.4557 13.7617 19.3983 13.5783 19.3449C13.5783 19.2107 13.5994 19.1907 13.6772 19.0901C13.9503 18.7166 14.0671 18.3033 14.064 17.8327C14.0638 17.7962 14.0636 17.7598 14.0634 17.7222C14.0518 17.2276 13.9102 16.8363 13.6143 16.4491C13.5868 16.409 13.5594 16.369 13.5311 16.3277C13.1384 15.8924 12.6056 15.6638 12.0425 15.668ZM13.1466 16.8682C13.4147 17.2542 13.4791 17.654 13.4344 18.1256C13.3495 18.5447 13.1107 18.8675 12.7868 19.1163C12.4689 19.3217 12.0997 19.3774 11.7366 19.3068C11.3981 19.216 11.0923 19.0347 10.8799 18.7352C10.6438 18.2996 10.5579 17.8885 10.6514 17.3921C10.7846 16.9678 11.0673 16.6491 11.4348 16.4369C12.0523 16.1535 12.7074 16.3461 13.1466 16.8682Z" fill="white"/>
<path d="M22.98 15.668C22.9284 15.6684 22.9284 15.6684 22.8757 15.6687C22.4086 15.681 22.0391 15.8309 21.6735 16.1443C21.6357 16.1734 21.5978 16.2025 21.5589 16.2324C21.212 16.5834 20.9614 17.0946 20.9384 17.6062C20.9375 17.6761 20.9375 17.7461 20.9382 17.816C20.9386 17.8712 20.9386 17.8712 20.9391 17.9275C20.9451 18.2067 20.9814 18.444 21.0979 18.6971C21.1148 18.7342 21.1317 18.7713 21.1492 18.8095C21.246 19.0079 21.351 19.1805 21.4936 19.3449C21.4667 19.3509 21.4397 19.357 21.4118 19.3632C20.9269 19.4803 20.4985 19.7123 20.1894 20.1403C20.1686 20.1796 20.1479 20.2189 20.1265 20.2593C20.1732 20.4079 20.232 20.432 20.3558 20.5141C20.4086 20.5497 20.4086 20.5497 20.4624 20.586C20.5582 20.6404 20.5582 20.6404 20.6661 20.6404C20.7191 20.5817 20.7191 20.5817 20.7763 20.5022C21.0115 20.2047 21.328 20.0464 21.6887 20.0006C21.894 19.9829 22.1001 19.9863 22.306 19.9862C22.357 19.9861 22.4079 19.986 22.4589 19.9858C22.5655 19.9856 22.6721 19.9855 22.7786 19.9856C22.914 19.9856 23.0494 19.985 23.1848 19.9844C23.29 19.984 23.3953 19.9839 23.5006 19.9839C23.5504 19.9839 23.6003 19.9837 23.6501 19.9834C24.212 19.9804 24.7066 20.0286 25.134 20.4491C25.5198 20.9024 25.5292 21.4338 25.5255 22.012C25.5253 22.0597 25.5252 22.1074 25.525 22.1566C25.5246 22.2735 25.524 22.3904 25.5232 22.5074C24.3254 23.0593 22.8888 23.0634 21.6116 22.8656C21.4989 22.851 21.3911 22.8475 21.2778 22.8503C21.2586 22.9296 21.24 23.009 21.2216 23.0884C21.2111 23.1326 21.2007 23.1768 21.1899 23.2224C21.1709 23.3392 21.1751 23.3887 21.2058 23.498C21.7555 23.5903 22.2932 23.6306 22.8496 23.6272C22.9687 23.6266 23.0878 23.6272 23.2068 23.628C24.1528 23.6289 25.2069 23.5549 26.027 23.0027C26.1207 22.8933 26.1485 22.8229 26.1494 22.6758C26.1499 22.6415 26.1503 22.6071 26.1508 22.5717C26.1507 22.5348 26.1506 22.4978 26.1505 22.4597C26.1507 22.4213 26.1509 22.3828 26.1511 22.3432C26.1513 22.2617 26.1512 22.1803 26.1509 22.0988C26.1506 21.9754 26.1517 21.8521 26.1528 21.7288C26.1553 20.9645 26.1553 20.9645 25.991 20.6023C25.9733 20.5604 25.9555 20.5185 25.9373 20.4753C25.6036 19.8415 25.1129 19.5471 24.4799 19.3068C24.5046 19.2708 24.5046 19.2708 24.5299 19.2341C24.8278 18.794 25.0052 18.3829 25.0016 17.8327C25.0014 17.7962 25.0011 17.7598 25.0009 17.7222C24.9893 17.2276 24.8477 16.8363 24.5518 16.4491C24.5244 16.409 24.4969 16.369 24.4686 16.3277C24.0759 15.8924 23.5432 15.6638 22.98 15.668ZM24.0841 16.8682C24.3523 17.2542 24.4167 17.654 24.3719 18.1256C24.287 18.5447 24.0482 18.8675 23.7243 19.1163C23.4065 19.3217 23.0373 19.3774 22.6742 19.3068C22.3357 19.216 22.0298 19.0347 21.8175 18.7352C21.5813 18.2996 21.4954 17.8885 21.5889 17.3921C21.7221 16.9678 22.0048 16.6491 22.3723 16.4369C22.9899 16.1535 23.645 16.3461 24.0841 16.8682Z" fill="white"/>
</g>
<defs>
<clipPath id="clip0_1510_56916">
<rect width="18.4211" height="19.4444" fill="white" transform="matrix(-1 0 0 1 26.7105 8.50977)"/>
</clipPath>
</defs>
</svg>
