<svg width="215" height="51" viewBox="0 0 215 51" fill="none" xmlns="http://www.w3.org/2000/svg">
<path d="M209.487 25.5007C209.487 23.9944 209.487 20.3361 214.999 15.3867C209.487 19.9056 199.839 19.6905 192.259 18.8298C196.394 21.1969 196.394 24.6399 196.394 25.5007C196.394 26.3615 196.394 29.8045 192.259 32.1717C199.839 31.3109 209.487 31.0957 214.999 35.6146C209.487 30.6653 209.487 27.007 209.487 25.5007Z" fill="#333333"/>
<path d="M189.505 34C190.883 32.4936 190.194 29.6962 190.194 25.5C190.194 21.3038 190.883 18.5063 189.505 16.9999C199.841 19.1519 219.548 16.746 212.245 10.7595C206.732 6.24051 187.437 4.73414 171.588 5.16453C150.947 5.72508 115.081 12.481 107.502 0C99.9214 12.481 64.0561 5.72508 43.415 5.16458C27.5656 4.7342 8.27057 6.24051 2.75789 10.7595C-4.5452 16.746 15.1616 19.1519 25.4983 17C24.1201 18.5064 24.8093 21.3038 24.8093 25.5H24.8095C24.8095 29.6962 24.1203 32.4937 25.4983 34.0001C15.1622 31.8481 -4.54503 34.2541 2.75807 40.2405C8.27075 44.7595 27.5659 46.2659 43.415 45.8355C64.0563 45.275 99.9214 38.519 107.502 51C115.081 38.519 150.947 45.2749 171.588 45.8355C187.438 46.2659 206.732 44.7596 212.245 40.2405C219.548 34.254 199.841 31.8481 189.505 34ZM107.502 4.58922C109.838 6.19372 114.815 8.03667 125.418 8.60758C116.761 8.60758 111.145 7.92087 107.502 6.98531C103.858 7.92087 98.2416 8.60758 89.5849 8.60758C100.188 8.03673 105.165 6.19372 107.502 4.58922ZM107.502 46.4107C105.165 44.8063 100.188 42.9632 89.5853 42.3924C98.2416 42.3924 103.858 43.079 107.502 44.0147C111.145 43.0791 116.761 42.3924 125.418 42.3924C114.815 42.9632 109.838 44.8063 107.502 46.4107ZM168.143 44.5443C142.351 43.1293 128.864 38.9493 107.502 42.3924C86.1394 38.9493 72.6514 43.1293 46.8608 44.5443C21.3637 45.943 -0.424649 41.6913 6.2037 36.905C11.6274 32.9883 27.7225 35.4245 31.5229 37.4511C27.5481 35.232 26.8766 29.7406 26.8766 25.5C26.8766 21.2594 27.5481 15.768 31.5226 13.5489C27.7224 15.5755 11.627 18.0117 6.20316 14.095C-0.425009 9.3086 21.3635 5.05697 46.8602 6.45573C72.6514 7.87058 86.1395 12.0506 107.502 8.60764C128.864 12.0506 142.351 7.87064 168.143 6.45573C193.639 5.05697 215.428 9.3086 208.799 14.095C203.376 18.0117 187.28 15.5755 183.48 13.5489C187.455 15.768 188.126 21.2594 188.126 25.5C188.126 29.7406 187.455 35.2321 183.48 37.4511C187.28 35.4245 203.376 32.9883 208.8 36.905C215.428 41.6913 193.639 45.943 168.143 44.5443Z" fill="#333333"/>
<path d="M22.7405 32.1717C18.6058 29.8045 18.6058 26.3615 18.6058 25.5007H18.6056C18.6056 24.6399 18.6056 21.1968 22.7403 18.8298C15.16 19.6905 5.51286 19.9056 0 15.3867C5.51286 20.3361 5.51268 23.9944 5.51268 25.5007H5.51286C5.51286 27.007 5.51286 30.6653 0 35.6146C5.51286 31.0957 15.1605 31.3108 22.7405 32.1717Z" fill="#333333"/>
<path d="M85.3076 40.5233C93.7943 39.504 104.239 40.3195 107.503 41.7464C110.767 40.3194 121.211 39.504 129.698 40.5233C121.864 38.4847 112.725 37.873 107.503 37.873C102.281 37.873 93.1415 38.4847 85.3076 40.5233Z" fill="#333333"/>
<path d="M107.503 9.25391C104.239 10.6808 93.7945 11.4964 85.3076 10.477C93.1415 12.5156 102.281 13.1272 107.503 13.1272C112.726 13.1272 121.864 12.5156 129.699 10.477C121.211 11.4964 110.767 10.6808 107.503 9.25391Z" fill="#333333"/>
<path d="M48.8125 29.7031C48.8125 30.1094 49.0052 30.3125 49.3906 30.3125H51.1719C51.5365 30.3125 51.7865 30.2448 51.9219 30.1094C52.0573 29.974 52.1615 29.6823 52.2344 29.2344C52.2865 28.901 52.526 28.7552 52.9531 28.7969C53.3906 28.8281 53.6094 28.9948 53.6094 29.2969L53.5 31.7188H46.8438V22.1406C46.8438 21.8073 46.8177 21.5938 46.7656 21.5C46.724 21.3958 46.6667 21.3333 46.5938 21.3125C46.3958 21.2604 46.224 21.1979 46.0781 21.125C45.9323 21.0521 45.8594 20.9167 45.8594 20.7188C45.8594 20.3854 46.0781 20.2188 46.5156 20.2188H48.1719C48.599 20.2188 48.8125 20.3854 48.8125 20.7188V29.7031ZM55.4688 27.9844C55.5104 28.6094 55.7396 29.1823 56.1562 29.7031C56.5729 30.2135 57.1146 30.4948 57.7812 30.5469C58.0104 30.5677 58.2552 30.5625 58.5156 30.5312C58.776 30.4896 59.0312 30.4062 59.2812 30.2812C59.5938 30.1354 59.8281 30.0938 59.9844 30.1562C60.151 30.2083 60.276 30.3177 60.3594 30.4844C60.401 30.6198 60.3958 30.7656 60.3438 30.9219C60.3021 31.0677 60.2083 31.1875 60.0625 31.2812C59.7812 31.4479 59.401 31.5885 58.9219 31.7031C58.4531 31.8177 57.9271 31.8594 57.3438 31.8281C56.25 31.7552 55.3281 31.3281 54.5781 30.5469C53.8281 29.7656 53.4531 28.6875 53.4531 27.3125C53.4531 26.0833 53.7917 25.1146 54.4688 24.4062C55.1458 23.6875 56.0677 23.3281 57.2344 23.3281C58.2344 23.3281 59.0469 23.6562 59.6719 24.3125C60.2969 24.9688 60.6094 25.9688 60.6094 27.3125V27.9844H55.4688ZM55.4688 26.6719H58.6562C58.6562 25.974 58.5 25.4583 58.1875 25.125C57.8854 24.7812 57.5521 24.6094 57.1875 24.6094C56.7708 24.6094 56.3854 24.8021 56.0312 25.1875C55.6875 25.5729 55.5 26.0677 55.4688 26.6719ZM65.9219 31.1719C65.7865 31.276 65.5469 31.4115 65.2031 31.5781C64.8594 31.7448 64.375 31.8281 63.75 31.8281C63.0104 31.8281 62.401 31.6146 61.9219 31.1875C61.4427 30.75 61.2031 30.1927 61.2031 29.5156C61.2031 28.599 61.6094 27.8646 62.4219 27.3125C63.2448 26.7604 64.2396 26.4844 65.4062 26.4844H65.9062V26.1562C65.9062 25.6771 65.7708 25.3021 65.5 25.0312C65.2292 24.75 64.9062 24.6094 64.5312 24.6094C64.1979 24.6094 63.9115 24.6979 63.6719 24.875C63.4427 25.0521 63.3281 25.3958 63.3281 25.9062H61.2969C61.2969 25.0833 61.5938 24.4479 62.1875 24C62.7812 23.5521 63.5781 23.3281 64.5781 23.3281C65.6406 23.3281 66.4479 23.5938 67 24.125C67.5625 24.6458 67.8438 25.349 67.8438 26.2344V31.7188H65.9219V31.1719ZM65.9062 27.8125C65.0625 27.7917 64.3906 27.9219 63.8906 28.2031C63.3906 28.4844 63.1406 28.8698 63.1406 29.3594C63.1406 29.776 63.2396 30.0625 63.4375 30.2188C63.6354 30.3646 63.8594 30.4375 64.1094 30.4375C64.5469 30.4375 64.9531 30.276 65.3281 29.9531C65.7135 29.6302 65.9062 29.2396 65.9062 28.7812V27.8125ZM70.5 27.6719C70.5 28.6094 70.6719 29.3229 71.0156 29.8125C71.3594 30.2917 71.7188 30.5312 72.0938 30.5312C72.5104 30.5312 72.8698 30.3125 73.1719 29.875C73.474 29.4375 73.625 28.7552 73.625 27.8281V26.8281C73.625 26.1302 73.474 25.599 73.1719 25.2344C72.8698 24.8698 72.4896 24.6875 72.0312 24.6875C71.6562 24.6875 71.3073 24.9323 70.9844 25.4219C70.6615 25.901 70.5 26.651 70.5 27.6719ZM73.6406 31.2344C73.2135 31.6302 72.6771 31.8281 72.0312 31.8281C70.875 31.8281 70.0052 31.4271 69.4219 30.625C68.8385 29.8229 68.5469 28.8229 68.5469 27.625C68.5469 26.3333 68.8385 25.2969 69.4219 24.5156C70.0052 23.724 70.8281 23.3281 71.8906 23.3281C72.6094 23.3281 73.1927 23.4896 73.6406 23.8125V21.7656C73.6406 21.4531 73.6146 21.2396 73.5625 21.125C73.5104 21 73.4531 20.9271 73.3906 20.9062C73.2135 20.8646 73.0729 20.8125 72.9688 20.75C72.875 20.6771 72.8281 20.5417 72.8281 20.3438C72.8281 20.0104 73.0521 19.8438 73.5 19.8438H74.8906C75.3385 19.8438 75.5625 20.0156 75.5625 20.3594V31.7188H73.6406V31.2344ZM79.2188 28.0469C78.4583 27.7865 77.8438 27.4583 77.375 27.0625C76.9167 26.6562 76.6875 26.1667 76.6875 25.5938C76.6875 24.8958 76.9375 24.3385 77.4375 23.9219C77.9375 23.4948 78.6771 23.2656 79.6562 23.2344C80.0833 23.2135 80.5052 23.25 80.9219 23.3438C81.349 23.4271 81.7656 23.5677 82.1719 23.7656V25.6562C81.5677 25.1354 81.0781 24.8177 80.7031 24.7031C80.3385 24.5781 80.0104 24.5208 79.7188 24.5312C79.375 24.5312 79.099 24.6042 78.8906 24.75C78.6927 24.8958 78.5833 25.1198 78.5625 25.4219C78.5521 25.6823 78.6979 25.9219 79 26.1406C79.3125 26.349 79.75 26.5625 80.3125 26.7812C81.1562 27.0938 81.7604 27.4479 82.125 27.8438C82.5 28.2396 82.6875 28.7031 82.6875 29.2344C82.6875 30.0365 82.3958 30.6719 81.8125 31.1406C81.2396 31.599 80.4323 31.8281 79.3906 31.8281C78.8802 31.8281 78.401 31.7604 77.9531 31.625C77.5156 31.4792 77.1875 31.3073 76.9688 31.1094C76.7396 30.9115 76.6198 30.7344 76.6094 30.5781C76.599 30.4115 76.6302 30.2708 76.7031 30.1562C76.8594 29.9375 77.0573 29.8229 77.2969 29.8125C77.5365 29.7917 77.7604 29.875 77.9688 30.0625C78.1562 30.1979 78.3854 30.3125 78.6562 30.4062C78.9271 30.4896 79.1719 30.5312 79.3906 30.5312C79.901 30.5104 80.2708 30.375 80.5 30.125C80.7396 29.875 80.8281 29.5677 80.7656 29.2031C80.7448 29.026 80.6302 28.8385 80.4219 28.6406C80.2135 28.4427 79.8125 28.2448 79.2188 28.0469ZM91.2344 20.2031L93.6094 28.7344L96.125 20.2188L98.7656 20.2031V31.7188H96.9219V23.7812L94.6562 30.9844C94.5729 31.2448 94.4531 31.4323 94.2969 31.5469C94.1406 31.6615 93.9375 31.7188 93.6875 31.7188H92.625L90.4219 23.5312V31.7188H88.6875V22.1094C88.6875 21.7865 88.6667 21.5781 88.625 21.4844C88.5833 21.3802 88.5156 21.3125 88.4219 21.2812C88.2448 21.2083 88.1094 21.1354 88.0156 21.0625C87.9219 20.9896 87.875 20.8802 87.875 20.7344C87.875 20.3802 88.099 20.2031 88.5469 20.2031H91.2344ZM104.641 31.1719C104.505 31.276 104.266 31.4115 103.922 31.5781C103.578 31.7448 103.094 31.8281 102.469 31.8281C101.729 31.8281 101.12 31.6146 100.641 31.1875C100.161 30.75 99.9219 30.1927 99.9219 29.5156C99.9219 28.599 100.328 27.8646 101.141 27.3125C101.964 26.7604 102.958 26.4844 104.125 26.4844H104.625V26.1562C104.625 25.6771 104.49 25.3021 104.219 25.0312C103.948 24.75 103.625 24.6094 103.25 24.6094C102.917 24.6094 102.63 24.6979 102.391 24.875C102.161 25.0521 102.047 25.3958 102.047 25.9062H100.016C100.016 25.0833 100.312 24.4479 100.906 24C101.5 23.5521 102.297 23.3281 103.297 23.3281C104.359 23.3281 105.167 23.5938 105.719 24.125C106.281 24.6458 106.562 25.349 106.562 26.2344V31.7188H104.641V31.1719ZM104.625 27.8125C103.781 27.7917 103.109 27.9219 102.609 28.2031C102.109 28.4844 101.859 28.8698 101.859 29.3594C101.859 29.776 101.958 30.0625 102.156 30.2188C102.354 30.3646 102.578 30.4375 102.828 30.4375C103.266 30.4375 103.672 30.276 104.047 29.9531C104.432 29.6302 104.625 29.2396 104.625 28.7812V27.8125ZM109.766 31.7188H107.859V25.4531C107.859 25.1198 107.839 24.9062 107.797 24.8125C107.766 24.7083 107.708 24.6406 107.625 24.6094C107.438 24.5365 107.286 24.4688 107.172 24.4062C107.057 24.3438 107 24.2188 107 24.0312C107 23.6979 107.219 23.5312 107.656 23.5312H109.094C109.542 23.5312 109.766 23.7188 109.766 24.0938V24.375C109.88 24.25 110.016 24.1302 110.172 24.0156C110.661 23.6094 111.25 23.4062 111.938 23.4062C112.688 23.4062 113.292 23.6615 113.75 24.1719C114.219 24.6823 114.453 25.5417 114.453 26.75V31.7188H112.516V26.7188C112.516 25.9896 112.422 25.5052 112.234 25.2656C112.047 25.0156 111.839 24.8906 111.609 24.8906C111.141 24.901 110.677 25.1979 110.219 25.7812C110.042 26.0104 109.891 26.2708 109.766 26.5625V31.7188ZM120.188 31.1719C120.052 31.276 119.812 31.4115 119.469 31.5781C119.125 31.7448 118.641 31.8281 118.016 31.8281C117.276 31.8281 116.667 31.6146 116.188 31.1875C115.708 30.75 115.469 30.1927 115.469 29.5156C115.469 28.599 115.875 27.8646 116.688 27.3125C117.51 26.7604 118.505 26.4844 119.672 26.4844H120.172V26.1562C120.172 25.6771 120.036 25.3021 119.766 25.0312C119.495 24.75 119.172 24.6094 118.797 24.6094C118.464 24.6094 118.177 24.6979 117.938 24.875C117.708 25.0521 117.594 25.3958 117.594 25.9062H115.562C115.562 25.0833 115.859 24.4479 116.453 24C117.047 23.5521 117.844 23.3281 118.844 23.3281C119.906 23.3281 120.714 23.5938 121.266 24.125C121.828 24.6458 122.109 25.349 122.109 26.2344V31.7188H120.188V31.1719ZM120.172 27.8125C119.328 27.7917 118.656 27.9219 118.156 28.2031C117.656 28.4844 117.406 28.8698 117.406 29.3594C117.406 29.776 117.505 30.0625 117.703 30.2188C117.901 30.3646 118.125 30.4375 118.375 30.4375C118.812 30.4375 119.219 30.276 119.594 29.9531C119.979 29.6302 120.172 29.2396 120.172 28.7812V27.8125ZM124.75 27.6562C124.75 28.4792 124.917 29.1042 125.25 29.5312C125.594 29.9479 125.953 30.1562 126.328 30.1562C126.776 30.1562 127.151 29.974 127.453 29.6094C127.755 29.2344 127.906 28.6406 127.906 27.8281V26.8281C127.906 26.1302 127.745 25.599 127.422 25.2344C127.109 24.8698 126.734 24.6875 126.297 24.6875C125.901 24.6875 125.542 24.9167 125.219 25.375C124.906 25.8333 124.75 26.5938 124.75 27.6562ZM127.922 30.9375C127.495 31.2812 126.953 31.4531 126.297 31.4531C125.161 31.4531 124.297 31.0729 123.703 30.3125C123.109 29.5521 122.812 28.6562 122.812 27.625C122.812 26.3333 123.109 25.2969 123.703 24.5156C124.297 23.724 125.115 23.3281 126.156 23.3281C126.917 23.3281 127.521 23.5365 127.969 23.9531C128.083 23.6719 128.354 23.5312 128.781 23.5312H129.938C130.396 23.5312 130.625 23.6979 130.625 24.0312C130.625 24.2083 130.536 24.3281 130.359 24.3906C130.193 24.4531 130.052 24.5 129.938 24.5312C129.927 24.5417 129.906 24.5833 129.875 24.6562C129.854 24.7188 129.844 24.9531 129.844 25.3594V31.2344C129.844 32.1927 129.562 32.9583 129 33.5312C128.438 34.1042 127.557 34.3906 126.359 34.3906C125.214 34.3906 124.401 34.1719 123.922 33.7344C123.443 33.3073 123.188 32.6979 123.156 31.9062H125.094C125.115 32.3542 125.234 32.6719 125.453 32.8594C125.672 33.0469 126 33.1406 126.438 33.1406C126.844 33.1406 127.193 32.9896 127.484 32.6875C127.776 32.3854 127.922 31.901 127.922 31.2344V30.9375ZM132.828 27.9844C132.87 28.6094 133.099 29.1823 133.516 29.7031C133.932 30.2135 134.474 30.4948 135.141 30.5469C135.37 30.5677 135.615 30.5625 135.875 30.5312C136.135 30.4896 136.391 30.4062 136.641 30.2812C136.953 30.1354 137.188 30.0938 137.344 30.1562C137.51 30.2083 137.635 30.3177 137.719 30.4844C137.76 30.6198 137.755 30.7656 137.703 30.9219C137.661 31.0677 137.568 31.1875 137.422 31.2812C137.141 31.4479 136.76 31.5885 136.281 31.7031C135.812 31.8177 135.286 31.8594 134.703 31.8281C133.609 31.7552 132.688 31.3281 131.938 30.5469C131.188 29.7656 130.812 28.6875 130.812 27.3125C130.812 26.0833 131.151 25.1146 131.828 24.4062C132.505 23.6875 133.427 23.3281 134.594 23.3281C135.594 23.3281 136.406 23.6562 137.031 24.3125C137.656 24.9688 137.969 25.9688 137.969 27.3125V27.9844H132.828ZM132.828 26.6719H136.016C136.016 25.974 135.859 25.4583 135.547 25.125C135.245 24.7812 134.911 24.6094 134.547 24.6094C134.13 24.6094 133.745 24.8021 133.391 25.1875C133.047 25.5729 132.859 26.0677 132.828 26.6719ZM140.859 31.7188H138.938V25.4531C138.938 25.1302 138.911 24.9115 138.859 24.7969C138.807 24.6823 138.75 24.6094 138.688 24.5781C138.49 24.5365 138.349 24.4792 138.266 24.4062C138.182 24.3333 138.141 24.2083 138.141 24.0312C138.141 23.6979 138.359 23.5312 138.797 23.5312H140.188C140.635 23.5312 140.859 23.7188 140.859 24.0938V24.2188C140.901 24.1771 140.943 24.1302 140.984 24.0781C141.391 23.651 141.943 23.4271 142.641 23.4062C143.411 23.4062 143.984 23.6667 144.359 24.1875C144.453 24.3125 144.536 24.4583 144.609 24.625C144.703 24.4583 144.818 24.3021 144.953 24.1562C145.411 23.6562 145.984 23.4062 146.672 23.4062C147.464 23.4062 148.042 23.6719 148.406 24.2031C148.781 24.724 148.969 25.5521 148.969 26.6875V31.7188H147.047V26.7344C147.047 26.0156 146.979 25.5208 146.844 25.25C146.719 24.9792 146.542 24.8438 146.312 24.8438C146.01 24.8438 145.656 25.1302 145.25 25.7031C145.104 25.8906 144.995 26.1042 144.922 26.3438V31.7188H143V26.7344C143 26.0052 142.932 25.5104 142.797 25.25C142.672 24.9792 142.505 24.8438 142.297 24.8438C141.995 24.8542 141.63 25.1406 141.203 25.7031C141.057 25.8802 140.943 26.0885 140.859 26.3281V31.7188ZM151.797 27.9844C151.839 28.6094 152.068 29.1823 152.484 29.7031C152.901 30.2135 153.443 30.4948 154.109 30.5469C154.339 30.5677 154.583 30.5625 154.844 30.5312C155.104 30.4896 155.359 30.4062 155.609 30.2812C155.922 30.1354 156.156 30.0938 156.312 30.1562C156.479 30.2083 156.604 30.3177 156.688 30.4844C156.729 30.6198 156.724 30.7656 156.672 30.9219C156.63 31.0677 156.536 31.1875 156.391 31.2812C156.109 31.4479 155.729 31.5885 155.25 31.7031C154.781 31.8177 154.255 31.8594 153.672 31.8281C152.578 31.7552 151.656 31.3281 150.906 30.5469C150.156 29.7656 149.781 28.6875 149.781 27.3125C149.781 26.0833 150.12 25.1146 150.797 24.4062C151.474 23.6875 152.396 23.3281 153.562 23.3281C154.562 23.3281 155.375 23.6562 156 24.3125C156.625 24.9688 156.938 25.9688 156.938 27.3125V27.9844H151.797ZM151.797 26.6719H154.984C154.984 25.974 154.828 25.4583 154.516 25.125C154.214 24.7812 153.88 24.6094 153.516 24.6094C153.099 24.6094 152.714 24.8021 152.359 25.1875C152.016 25.5729 151.828 26.0677 151.797 26.6719ZM159.828 31.7188H157.922V25.4531C157.922 25.1198 157.901 24.9062 157.859 24.8125C157.828 24.7083 157.771 24.6406 157.688 24.6094C157.5 24.5365 157.349 24.4688 157.234 24.4062C157.12 24.3438 157.062 24.2188 157.062 24.0312C157.062 23.6979 157.281 23.5312 157.719 23.5312H159.156C159.604 23.5312 159.828 23.7188 159.828 24.0938V24.375C159.943 24.25 160.078 24.1302 160.234 24.0156C160.724 23.6094 161.312 23.4062 162 23.4062C162.75 23.4062 163.354 23.6615 163.812 24.1719C164.281 24.6823 164.516 25.5417 164.516 26.75V31.7188H162.578V26.7188C162.578 25.9896 162.484 25.5052 162.297 25.2656C162.109 25.0156 161.901 24.8906 161.672 24.8906C161.203 24.901 160.74 25.1979 160.281 25.7812C160.104 26.0104 159.953 26.2708 159.828 26.5625V31.7188ZM168.078 20.3594V23.5312H170.188V24.7969H168.094V29.6406C168.094 30.0156 168.156 30.2604 168.281 30.375C168.417 30.4896 168.62 30.5469 168.891 30.5469C169.036 30.5469 169.177 30.5469 169.312 30.5469C169.458 30.5365 169.797 30.4635 170.328 30.3281V31.6406C169.974 31.7552 169.63 31.8229 169.297 31.8438C168.974 31.8646 168.724 31.875 168.547 31.875C168.016 31.875 167.578 31.8177 167.234 31.7031C166.891 31.5781 166.646 31.401 166.5 31.1719C166.333 30.9635 166.234 30.7031 166.203 30.3906C166.182 30.0677 166.172 29.7344 166.172 29.3906V24.7969H165.047V23.5312H166.172V22.3281L168.078 20.3594Z" fill="#333333"/>
</svg>
