<svg width="215" height="51" viewBox="0 0 215 51" fill="none" xmlns="http://www.w3.org/2000/svg">
<path d="M209.487 25.5007C209.487 23.9944 209.487 20.3361 214.999 15.3867C209.487 19.9056 199.839 19.6905 192.259 18.8298C196.394 21.1969 196.394 24.6399 196.394 25.5007C196.394 26.3615 196.394 29.8045 192.259 32.1717C199.839 31.3109 209.487 31.0957 214.999 35.6146C209.487 30.6653 209.487 27.007 209.487 25.5007Z" fill="#333333"/>
<path d="M189.505 34C190.883 32.4936 190.194 29.6962 190.194 25.5C190.194 21.3038 190.883 18.5063 189.505 16.9999C199.841 19.1519 219.548 16.746 212.245 10.7595C206.732 6.24051 187.437 4.73414 171.588 5.16453C150.947 5.72508 115.081 12.481 107.502 0C99.9214 12.481 64.0561 5.72508 43.415 5.16458C27.5656 4.7342 8.27057 6.24051 2.75789 10.7595C-4.5452 16.746 15.1616 19.1519 25.4983 17C24.1201 18.5064 24.8093 21.3038 24.8093 25.5H24.8095C24.8095 29.6962 24.1203 32.4937 25.4983 34.0001C15.1622 31.8481 -4.54503 34.2541 2.75807 40.2405C8.27075 44.7595 27.5659 46.2659 43.415 45.8355C64.0563 45.275 99.9214 38.519 107.502 51C115.081 38.519 150.947 45.2749 171.588 45.8355C187.438 46.2659 206.732 44.7596 212.245 40.2405C219.548 34.254 199.841 31.8481 189.505 34ZM107.502 4.58922C109.838 6.19372 114.815 8.03667 125.418 8.60758C116.761 8.60758 111.145 7.92087 107.502 6.98531C103.858 7.92087 98.2416 8.60758 89.5849 8.60758C100.188 8.03673 105.165 6.19372 107.502 4.58922ZM107.502 46.4107C105.165 44.8063 100.188 42.9632 89.5853 42.3924C98.2416 42.3924 103.858 43.079 107.502 44.0147C111.145 43.0791 116.761 42.3924 125.418 42.3924C114.815 42.9632 109.838 44.8063 107.502 46.4107ZM168.143 44.5443C142.351 43.1293 128.864 38.9493 107.502 42.3924C86.1394 38.9493 72.6514 43.1293 46.8608 44.5443C21.3637 45.943 -0.424649 41.6913 6.2037 36.905C11.6274 32.9884 27.7225 35.4245 31.5229 37.4511C27.5481 35.232 26.8766 29.7406 26.8766 25.5C26.8766 21.2594 27.5481 15.768 31.5226 13.5489C27.7224 15.5755 11.627 18.0116 6.20316 14.095C-0.425009 9.3086 21.3635 5.05697 46.8602 6.45573C72.6514 7.87058 86.1394 12.0506 107.502 8.60764C128.864 12.0506 142.351 7.87064 168.143 6.45573C193.639 5.05697 215.428 9.3086 208.799 14.095C203.376 18.0116 187.28 15.5755 183.48 13.5489C187.455 15.768 188.126 21.2594 188.126 25.5C188.126 29.7406 187.455 35.2321 183.48 37.4511C187.28 35.4245 203.376 32.9884 208.8 36.905C215.428 41.6913 193.639 45.943 168.143 44.5443Z" fill="#333333"/>
<path d="M22.7405 32.1717C18.6058 29.8045 18.6058 26.3615 18.6058 25.5007H18.6056C18.6056 24.6399 18.6056 21.1968 22.7403 18.8298C15.16 19.6905 5.51286 19.9056 0 15.3867C5.51286 20.3361 5.51268 23.9944 5.51268 25.5007H5.51286C5.51286 27.007 5.51286 30.6653 0 35.6146C5.51286 31.0957 15.1605 31.3108 22.7405 32.1717Z" fill="#333333"/>
<path d="M85.3076 40.5253C93.7943 39.5059 104.239 40.3214 107.503 41.7484C110.767 40.3214 121.211 39.5059 129.698 40.5253C121.864 38.4867 112.725 37.875 107.503 37.875C102.281 37.875 93.1415 38.4867 85.3076 40.5253Z" fill="#333333"/>
<path d="M107.503 9.25391C104.239 10.6808 93.7945 11.4964 85.3076 10.477C93.1415 12.5156 102.281 13.1272 107.503 13.1272C112.726 13.1272 121.864 12.5156 129.699 10.477C121.211 11.4964 110.767 10.6808 107.503 9.25391Z" fill="#333333"/>
<path d="M53.0703 28.4844C53.0391 28.0469 52.8568 27.6615 52.5234 27.3281C52.1901 26.9844 51.6536 26.6146 50.9141 26.2188C50.0599 25.8021 49.4089 25.3281 48.9609 24.7969C48.513 24.2552 48.2943 23.5833 48.3047 22.7812C48.3255 21.9896 48.638 21.3281 49.2422 20.7969C49.8464 20.2656 50.6589 20 51.6797 20C52.2318 20 52.7318 20.0417 53.1797 20.125C53.6276 20.2083 54.0703 20.3281 54.5078 20.4844V22.125C53.9141 21.8125 53.388 21.6042 52.9297 21.5C52.4714 21.3958 52.0755 21.3438 51.7422 21.3438C51.4089 21.3438 51.0911 21.474 50.7891 21.7344C50.487 21.9844 50.3359 22.3542 50.3359 22.8438C50.3359 23.2812 50.5182 23.6719 50.8828 24.0156C51.2578 24.349 51.8516 24.7344 52.6641 25.1719C53.487 25.6094 54.1016 26.099 54.5078 26.6406C54.9245 27.1719 55.1328 27.7969 55.1328 28.5156C55.1328 29.401 54.8151 30.1615 54.1797 30.7969C53.5547 31.4323 52.6276 31.7812 51.3984 31.8438C50.9401 31.8646 50.4557 31.8229 49.9453 31.7188C49.4349 31.6042 49.0182 31.4427 48.6953 31.2344C48.487 31.1094 48.3516 30.9583 48.2891 30.7812C48.2266 30.6042 48.2266 30.4115 48.2891 30.2031C48.3828 29.9948 48.5547 29.8594 48.8047 29.7969C49.0547 29.724 49.3411 29.7865 49.6641 29.9844C49.8828 30.0885 50.1589 30.1875 50.4922 30.2812C50.8255 30.3646 51.112 30.401 51.3516 30.3906C51.9349 30.3385 52.3828 30.1406 52.6953 29.7969C53.0078 29.4531 53.1328 29.0156 53.0703 28.4844ZM60.4453 31.1719C60.3099 31.276 60.0703 31.4115 59.7266 31.5781C59.3828 31.7448 58.8984 31.8281 58.2734 31.8281C57.5339 31.8281 56.9245 31.6146 56.4453 31.1875C55.9661 30.75 55.7266 30.1927 55.7266 29.5156C55.7266 28.599 56.1328 27.8646 56.9453 27.3125C57.7682 26.7604 58.763 26.4844 59.9297 26.4844H60.4297V26.1562C60.4297 25.6771 60.2943 25.3021 60.0234 25.0312C59.7526 24.75 59.4297 24.6094 59.0547 24.6094C58.7214 24.6094 58.4349 24.6979 58.1953 24.875C57.9661 25.0521 57.8516 25.3958 57.8516 25.9062H55.8203C55.8203 25.0833 56.1172 24.4479 56.7109 24C57.3047 23.5521 58.1016 23.3281 59.1016 23.3281C60.1641 23.3281 60.9714 23.5938 61.5234 24.125C62.0859 24.6458 62.3672 25.349 62.3672 26.2344V31.7188H60.4453V31.1719ZM60.4297 27.8125C59.5859 27.7917 58.9141 27.9219 58.4141 28.2031C57.9141 28.4844 57.6641 28.8698 57.6641 29.3594C57.6641 29.776 57.763 30.0625 57.9609 30.2188C58.1589 30.3646 58.3828 30.4375 58.6328 30.4375C59.0703 30.4375 59.4766 30.276 59.8516 29.9531C60.237 29.6302 60.4297 29.2396 60.4297 28.7812V27.8125ZM65.7266 31.7188H63.7734V21.7656C63.7734 21.4427 63.7474 21.2292 63.6953 21.125C63.6536 21.0104 63.5911 20.9375 63.5078 20.9062C63.3411 20.8438 63.2057 20.7812 63.1016 20.7188C63.0078 20.6458 62.9609 20.5156 62.9609 20.3281C62.9609 20.0052 63.1849 19.8438 63.6328 19.8438H65.0547C65.5026 19.8438 65.7266 20.0156 65.7266 20.3594V31.7188ZM68.6797 27.9844C68.7214 28.6094 68.9505 29.1823 69.3672 29.7031C69.7839 30.2135 70.3255 30.4948 70.9922 30.5469C71.2214 30.5677 71.4661 30.5625 71.7266 30.5312C71.987 30.4896 72.2422 30.4062 72.4922 30.2812C72.8047 30.1354 73.0391 30.0938 73.1953 30.1562C73.362 30.2083 73.487 30.3177 73.5703 30.4844C73.612 30.6198 73.6068 30.7656 73.5547 30.9219C73.513 31.0677 73.4193 31.1875 73.2734 31.2812C72.9922 31.4479 72.612 31.5885 72.1328 31.7031C71.6641 31.8177 71.138 31.8594 70.5547 31.8281C69.4609 31.7552 68.5391 31.3281 67.7891 30.5469C67.0391 29.7656 66.6641 28.6875 66.6641 27.3125C66.6641 26.0833 67.0026 25.1146 67.6797 24.4062C68.3568 23.6875 69.2786 23.3281 70.4453 23.3281C71.4453 23.3281 72.2578 23.6562 72.8828 24.3125C73.5078 24.9688 73.8203 25.9688 73.8203 27.3125V27.9844H68.6797ZM68.6797 26.6719H71.8672C71.8672 25.974 71.7109 25.4583 71.3984 25.125C71.0964 24.7812 70.763 24.6094 70.3984 24.6094C69.9818 24.6094 69.5964 24.8021 69.2422 25.1875C68.8984 25.5729 68.7109 26.0677 68.6797 26.6719ZM76.8828 28.0469C76.1224 27.7865 75.5078 27.4583 75.0391 27.0625C74.5807 26.6562 74.3516 26.1667 74.3516 25.5938C74.3516 24.8958 74.6016 24.3385 75.1016 23.9219C75.6016 23.4948 76.3411 23.2656 77.3203 23.2344C77.7474 23.2135 78.1693 23.25 78.5859 23.3438C79.013 23.4271 79.4297 23.5677 79.8359 23.7656V25.6562C79.2318 25.1354 78.7422 24.8177 78.3672 24.7031C78.0026 24.5781 77.6745 24.5208 77.3828 24.5312C77.0391 24.5312 76.763 24.6042 76.5547 24.75C76.3568 24.8958 76.2474 25.1198 76.2266 25.4219C76.2161 25.6823 76.362 25.9219 76.6641 26.1406C76.9766 26.349 77.4141 26.5625 77.9766 26.7812C78.8203 27.0938 79.4245 27.4479 79.7891 27.8438C80.1641 28.2396 80.3516 28.7031 80.3516 29.2344C80.3516 30.0365 80.0599 30.6719 79.4766 31.1406C78.9036 31.599 78.0964 31.8281 77.0547 31.8281C76.5443 31.8281 76.0651 31.7604 75.6172 31.625C75.1797 31.4792 74.8516 31.3073 74.6328 31.1094C74.4036 30.9115 74.2839 30.7344 74.2734 30.5781C74.263 30.4115 74.2943 30.2708 74.3672 30.1562C74.5234 29.9375 74.7214 29.8229 74.9609 29.8125C75.2005 29.7917 75.4245 29.875 75.6328 30.0625C75.8203 30.1979 76.0495 30.3125 76.3203 30.4062C76.5911 30.4896 76.8359 30.5312 77.0547 30.5312C77.5651 30.5104 77.9349 30.375 78.1641 30.125C78.4036 29.875 78.4922 29.5677 78.4297 29.2031C78.4089 29.026 78.2943 28.8385 78.0859 28.6406C77.8776 28.4427 77.4766 28.2448 76.8828 28.0469ZM88.8984 20.2031L91.2734 28.7344L93.7891 20.2188L96.4297 20.2031V31.7188H94.5859V23.7812L92.3203 30.9844C92.237 31.2448 92.1172 31.4323 91.9609 31.5469C91.8047 31.6615 91.6016 31.7188 91.3516 31.7188H90.2891L88.0859 23.5312V31.7188H86.3516V22.1094C86.3516 21.7865 86.3307 21.5781 86.2891 21.4844C86.2474 21.3802 86.1797 21.3125 86.0859 21.2812C85.9089 21.2083 85.7734 21.1354 85.6797 21.0625C85.5859 20.9896 85.5391 20.8802 85.5391 20.7344C85.5391 20.3802 85.763 20.2031 86.2109 20.2031H88.8984ZM102.305 31.1719C102.169 31.276 101.93 31.4115 101.586 31.5781C101.242 31.7448 100.758 31.8281 100.133 31.8281C99.3932 31.8281 98.7839 31.6146 98.3047 31.1875C97.8255 30.75 97.5859 30.1927 97.5859 29.5156C97.5859 28.599 97.9922 27.8646 98.8047 27.3125C99.6276 26.7604 100.622 26.4844 101.789 26.4844H102.289V26.1562C102.289 25.6771 102.154 25.3021 101.883 25.0312C101.612 24.75 101.289 24.6094 100.914 24.6094C100.581 24.6094 100.294 24.6979 100.055 24.875C99.8255 25.0521 99.7109 25.3958 99.7109 25.9062H97.6797C97.6797 25.0833 97.9766 24.4479 98.5703 24C99.1641 23.5521 99.9609 23.3281 100.961 23.3281C102.023 23.3281 102.831 23.5938 103.383 24.125C103.945 24.6458 104.227 25.349 104.227 26.2344V31.7188H102.305V31.1719ZM102.289 27.8125C101.445 27.7917 100.773 27.9219 100.273 28.2031C99.7734 28.4844 99.5234 28.8698 99.5234 29.3594C99.5234 29.776 99.6224 30.0625 99.8203 30.2188C100.018 30.3646 100.242 30.4375 100.492 30.4375C100.93 30.4375 101.336 30.276 101.711 29.9531C102.096 29.6302 102.289 29.2396 102.289 28.7812V27.8125ZM107.43 31.7188H105.523V25.4531C105.523 25.1198 105.503 24.9062 105.461 24.8125C105.43 24.7083 105.372 24.6406 105.289 24.6094C105.102 24.5365 104.951 24.4688 104.836 24.4062C104.721 24.3438 104.664 24.2188 104.664 24.0312C104.664 23.6979 104.883 23.5312 105.32 23.5312H106.758C107.206 23.5312 107.43 23.7188 107.43 24.0938V24.375C107.544 24.25 107.68 24.1302 107.836 24.0156C108.326 23.6094 108.914 23.4062 109.602 23.4062C110.352 23.4062 110.956 23.6615 111.414 24.1719C111.883 24.6823 112.117 25.5417 112.117 26.75V31.7188H110.18V26.7188C110.18 25.9896 110.086 25.5052 109.898 25.2656C109.711 25.0156 109.503 24.8906 109.273 24.8906C108.805 24.901 108.341 25.1979 107.883 25.7812C107.706 26.0104 107.555 26.2708 107.43 26.5625V31.7188ZM117.852 31.1719C117.716 31.276 117.477 31.4115 117.133 31.5781C116.789 31.7448 116.305 31.8281 115.68 31.8281C114.94 31.8281 114.331 31.6146 113.852 31.1875C113.372 30.75 113.133 30.1927 113.133 29.5156C113.133 28.599 113.539 27.8646 114.352 27.3125C115.174 26.7604 116.169 26.4844 117.336 26.4844H117.836V26.1562C117.836 25.6771 117.701 25.3021 117.43 25.0312C117.159 24.75 116.836 24.6094 116.461 24.6094C116.128 24.6094 115.841 24.6979 115.602 24.875C115.372 25.0521 115.258 25.3958 115.258 25.9062H113.227C113.227 25.0833 113.523 24.4479 114.117 24C114.711 23.5521 115.508 23.3281 116.508 23.3281C117.57 23.3281 118.378 23.5938 118.93 24.125C119.492 24.6458 119.773 25.349 119.773 26.2344V31.7188H117.852V31.1719ZM117.836 27.8125C116.992 27.7917 116.32 27.9219 115.82 28.2031C115.32 28.4844 115.07 28.8698 115.07 29.3594C115.07 29.776 115.169 30.0625 115.367 30.2188C115.565 30.3646 115.789 30.4375 116.039 30.4375C116.477 30.4375 116.883 30.276 117.258 29.9531C117.643 29.6302 117.836 29.2396 117.836 28.7812V27.8125ZM122.414 27.6562C122.414 28.4792 122.581 29.1042 122.914 29.5312C123.258 29.9479 123.617 30.1562 123.992 30.1562C124.44 30.1562 124.815 29.974 125.117 29.6094C125.419 29.2344 125.57 28.6406 125.57 27.8281V26.8281C125.57 26.1302 125.409 25.599 125.086 25.2344C124.773 24.8698 124.398 24.6875 123.961 24.6875C123.565 24.6875 123.206 24.9167 122.883 25.375C122.57 25.8333 122.414 26.5938 122.414 27.6562ZM125.586 30.9375C125.159 31.2812 124.617 31.4531 123.961 31.4531C122.826 31.4531 121.961 31.0729 121.367 30.3125C120.773 29.5521 120.477 28.6562 120.477 27.625C120.477 26.3333 120.773 25.2969 121.367 24.5156C121.961 23.724 122.779 23.3281 123.82 23.3281C124.581 23.3281 125.185 23.5365 125.633 23.9531C125.747 23.6719 126.018 23.5312 126.445 23.5312H127.602C128.06 23.5312 128.289 23.6979 128.289 24.0312C128.289 24.2083 128.201 24.3281 128.023 24.3906C127.857 24.4531 127.716 24.5 127.602 24.5312C127.591 24.5417 127.57 24.5833 127.539 24.6562C127.518 24.7188 127.508 24.9531 127.508 25.3594V31.2344C127.508 32.1927 127.227 32.9583 126.664 33.5312C126.102 34.1042 125.221 34.3906 124.023 34.3906C122.878 34.3906 122.065 34.1719 121.586 33.7344C121.107 33.3073 120.852 32.6979 120.82 31.9062H122.758C122.779 32.3542 122.898 32.6719 123.117 32.8594C123.336 33.0469 123.664 33.1406 124.102 33.1406C124.508 33.1406 124.857 32.9896 125.148 32.6875C125.44 32.3854 125.586 31.901 125.586 31.2344V30.9375ZM130.492 27.9844C130.534 28.6094 130.763 29.1823 131.18 29.7031C131.596 30.2135 132.138 30.4948 132.805 30.5469C133.034 30.5677 133.279 30.5625 133.539 30.5312C133.799 30.4896 134.055 30.4062 134.305 30.2812C134.617 30.1354 134.852 30.0938 135.008 30.1562C135.174 30.2083 135.299 30.3177 135.383 30.4844C135.424 30.6198 135.419 30.7656 135.367 30.9219C135.326 31.0677 135.232 31.1875 135.086 31.2812C134.805 31.4479 134.424 31.5885 133.945 31.7031C133.477 31.8177 132.951 31.8594 132.367 31.8281C131.273 31.7552 130.352 31.3281 129.602 30.5469C128.852 29.7656 128.477 28.6875 128.477 27.3125C128.477 26.0833 128.815 25.1146 129.492 24.4062C130.169 23.6875 131.091 23.3281 132.258 23.3281C133.258 23.3281 134.07 23.6562 134.695 24.3125C135.32 24.9688 135.633 25.9688 135.633 27.3125V27.9844H130.492ZM130.492 26.6719H133.68C133.68 25.974 133.523 25.4583 133.211 25.125C132.909 24.7812 132.576 24.6094 132.211 24.6094C131.794 24.6094 131.409 24.8021 131.055 25.1875C130.711 25.5729 130.523 26.0677 130.492 26.6719ZM138.523 31.7188H136.602V25.4531C136.602 25.1302 136.576 24.9115 136.523 24.7969C136.471 24.6823 136.414 24.6094 136.352 24.5781C136.154 24.5365 136.013 24.4792 135.93 24.4062C135.846 24.3333 135.805 24.2083 135.805 24.0312C135.805 23.6979 136.023 23.5312 136.461 23.5312H137.852C138.299 23.5312 138.523 23.7188 138.523 24.0938V24.2188C138.565 24.1771 138.607 24.1302 138.648 24.0781C139.055 23.651 139.607 23.4271 140.305 23.4062C141.076 23.4062 141.648 23.6667 142.023 24.1875C142.117 24.3125 142.201 24.4583 142.273 24.625C142.367 24.4583 142.482 24.3021 142.617 24.1562C143.076 23.6562 143.648 23.4062 144.336 23.4062C145.128 23.4062 145.706 23.6719 146.07 24.2031C146.445 24.724 146.633 25.5521 146.633 26.6875V31.7188H144.711V26.7344C144.711 26.0156 144.643 25.5208 144.508 25.25C144.383 24.9792 144.206 24.8438 143.977 24.8438C143.674 24.8438 143.32 25.1302 142.914 25.7031C142.768 25.8906 142.659 26.1042 142.586 26.3438V31.7188H140.664V26.7344C140.664 26.0052 140.596 25.5104 140.461 25.25C140.336 24.9792 140.169 24.8438 139.961 24.8438C139.659 24.8542 139.294 25.1406 138.867 25.7031C138.721 25.8802 138.607 26.0885 138.523 26.3281V31.7188ZM149.461 27.9844C149.503 28.6094 149.732 29.1823 150.148 29.7031C150.565 30.2135 151.107 30.4948 151.773 30.5469C152.003 30.5677 152.247 30.5625 152.508 30.5312C152.768 30.4896 153.023 30.4062 153.273 30.2812C153.586 30.1354 153.82 30.0938 153.977 30.1562C154.143 30.2083 154.268 30.3177 154.352 30.4844C154.393 30.6198 154.388 30.7656 154.336 30.9219C154.294 31.0677 154.201 31.1875 154.055 31.2812C153.773 31.4479 153.393 31.5885 152.914 31.7031C152.445 31.8177 151.919 31.8594 151.336 31.8281C150.242 31.7552 149.32 31.3281 148.57 30.5469C147.82 29.7656 147.445 28.6875 147.445 27.3125C147.445 26.0833 147.784 25.1146 148.461 24.4062C149.138 23.6875 150.06 23.3281 151.227 23.3281C152.227 23.3281 153.039 23.6562 153.664 24.3125C154.289 24.9688 154.602 25.9688 154.602 27.3125V27.9844H149.461ZM149.461 26.6719H152.648C152.648 25.974 152.492 25.4583 152.18 25.125C151.878 24.7812 151.544 24.6094 151.18 24.6094C150.763 24.6094 150.378 24.8021 150.023 25.1875C149.68 25.5729 149.492 26.0677 149.461 26.6719ZM157.492 31.7188H155.586V25.4531C155.586 25.1198 155.565 24.9062 155.523 24.8125C155.492 24.7083 155.435 24.6406 155.352 24.6094C155.164 24.5365 155.013 24.4688 154.898 24.4062C154.784 24.3438 154.727 24.2188 154.727 24.0312C154.727 23.6979 154.945 23.5312 155.383 23.5312H156.82C157.268 23.5312 157.492 23.7188 157.492 24.0938V24.375C157.607 24.25 157.742 24.1302 157.898 24.0156C158.388 23.6094 158.977 23.4062 159.664 23.4062C160.414 23.4062 161.018 23.6615 161.477 24.1719C161.945 24.6823 162.18 25.5417 162.18 26.75V31.7188H160.242V26.7188C160.242 25.9896 160.148 25.5052 159.961 25.2656C159.773 25.0156 159.565 24.8906 159.336 24.8906C158.867 24.901 158.404 25.1979 157.945 25.7812C157.768 26.0104 157.617 26.2708 157.492 26.5625V31.7188ZM165.742 20.3594V23.5312H167.852V24.7969H165.758V29.6406C165.758 30.0156 165.82 30.2604 165.945 30.375C166.081 30.4896 166.284 30.5469 166.555 30.5469C166.701 30.5469 166.841 30.5469 166.977 30.5469C167.122 30.5365 167.461 30.4635 167.992 30.3281V31.6406C167.638 31.7552 167.294 31.8229 166.961 31.8438C166.638 31.8646 166.388 31.875 166.211 31.875C165.68 31.875 165.242 31.8177 164.898 31.7031C164.555 31.5781 164.31 31.401 164.164 31.1719C163.997 30.9635 163.898 30.7031 163.867 30.3906C163.846 30.0677 163.836 29.7344 163.836 29.3906V24.7969H162.711V23.5312H163.836V22.3281L165.742 20.3594Z" fill="#333333"/>
</svg>
