<svg width="35" height="35" viewBox="0 0 35 35" fill="none" xmlns="http://www.w3.org/2000/svg">
<rect width="35" height="35" rx="3" fill="#F74875"/>
<g clip-path="url(#clip0_3419_74531)">
<path d="M17.2603 6.80868C17.2925 6.80876 17.3247 6.80885 17.3579 6.80894C17.8241 6.81094 18.2733 6.82542 18.728 6.94099C18.7758 6.95226 18.7758 6.95226 18.8246 6.96375C20.608 7.38933 22.139 8.5426 23.1337 10.1365C23.8356 11.3039 24.1857 12.6118 24.1825 13.9861C24.1824 14.0361 24.1824 14.0361 24.1824 14.087C24.1808 14.6476 24.1384 15.1815 24.0149 15.7287C24.0064 15.767 23.998 15.8053 23.9894 15.8447C23.3449 18.726 21.6804 21.2524 20.0689 23.6376C20.0281 23.6982 19.9874 23.7588 19.9466 23.8194C19.7548 24.1041 19.5608 24.387 19.3649 24.6686C19.1205 25.0203 18.8815 25.3758 18.6433 25.7321C18.5736 25.8363 18.5037 25.9404 18.4338 26.0444C18.4107 26.0788 18.3876 26.1132 18.3638 26.1486C18.3182 26.2164 18.2725 26.2842 18.2269 26.352C18.1281 26.4986 18.0301 26.6455 17.9349 26.7947C17.9116 26.8308 17.9116 26.8308 17.8879 26.8677C17.848 26.9301 17.8084 26.9927 17.7689 27.0555C17.6588 27.1976 17.565 27.2627 17.3909 27.2898C17.3333 27.2899 17.3333 27.2899 17.2746 27.29C17.2363 27.2907 17.1981 27.2915 17.1586 27.2923C16.9689 27.26 16.8649 27.1814 16.748 27.0282C16.6761 26.9222 16.6075 26.8145 16.5395 26.7058C16.4886 26.626 16.4375 26.5462 16.3864 26.4664C16.3613 26.427 16.3362 26.3875 16.3103 26.3468C16.2096 26.19 16.1057 26.0357 16.0008 25.8819C15.973 25.8411 15.973 25.8411 15.9447 25.7994C15.9076 25.7451 15.8706 25.6907 15.8336 25.6364C15.7772 25.5535 15.721 25.4704 15.665 25.3873C15.4715 25.1005 15.2765 24.8151 15.079 24.5313C14.8095 24.1439 14.548 23.7507 14.2867 23.3573C14.2071 23.2377 14.1271 23.1184 14.047 22.9993C13.7648 22.5793 13.4873 22.1575 13.2241 21.7243C13.1705 21.6363 13.1166 21.5485 13.0626 21.4608C11.8077 19.4143 10.3831 16.9426 10.3686 14.4335C10.3683 14.4023 10.368 14.3711 10.3678 14.3389C10.3671 14.2388 10.3668 14.1387 10.3668 14.0385C10.3668 14.0044 10.3667 13.9702 10.3667 13.935C10.3673 13.4439 10.3818 12.9728 10.4913 12.4932C10.5002 12.4495 10.5002 12.4495 10.5094 12.4049C10.8905 10.5454 12.039 8.92889 13.5561 7.89965C14.6808 7.16459 15.9368 6.80232 17.2603 6.80868ZM13.1347 9.8569C12.0164 11.0427 11.5428 12.6171 11.5525 14.2481C11.5577 14.7139 11.6096 15.1562 11.7172 15.6088C11.7261 15.6465 11.7349 15.6842 11.744 15.7231C12.3021 18.0315 13.6068 20.1463 14.897 22.0798C14.9473 22.1555 14.9977 22.2312 15.048 22.307C15.4322 22.8845 15.8183 23.4605 16.2139 24.0295C16.3956 24.291 16.575 24.554 16.7526 24.8184C16.7744 24.8507 16.7961 24.883 16.8185 24.9163C16.9448 25.1048 17.0671 25.2951 17.185 25.4895C17.2011 25.5111 17.2173 25.5327 17.2339 25.5549C17.2592 25.5549 17.2845 25.5549 17.3105 25.5549C17.3605 25.4945 17.3605 25.4945 17.4095 25.4142C17.4389 25.3684 17.4389 25.3684 17.469 25.3216C17.5008 25.2715 17.5008 25.2715 17.5332 25.2204C17.5784 25.1502 17.6237 25.0801 17.6691 25.01C17.6923 24.9742 17.7155 24.9384 17.7394 24.9015C17.8435 24.7427 17.9514 24.587 18.06 24.4315C18.2986 24.0892 18.5332 23.7443 18.7663 23.3979C18.7869 23.3674 18.8075 23.3368 18.8287 23.3053C18.9629 23.1059 19.0968 22.9063 19.2306 22.7065C19.3054 22.595 19.3804 22.4836 19.4555 22.3722C19.7644 21.9127 20.0658 21.4494 20.3554 20.9764C20.4122 20.8839 20.4693 20.7917 20.5265 20.6995C21.2343 19.5525 21.8762 18.3522 22.3675 17.0868C22.3802 17.0543 22.3929 17.0218 22.4059 16.9883C22.6038 16.4741 22.7451 15.9484 22.8655 15.4091C22.8725 15.3798 22.8794 15.3505 22.8865 15.3203C23.0759 14.4998 23.0731 13.4679 22.8655 12.653C22.8592 12.6262 22.8528 12.5994 22.8462 12.5717C22.4769 11.0276 21.5205 9.71802 20.2289 8.88124C17.9161 7.441 15.0274 7.91021 13.1347 9.8569Z" fill="white"/>
<path d="M19.1232 11.3095C19.2098 11.3814 19.2924 11.4563 19.3747 11.5335C19.4105 11.5634 19.4105 11.5634 19.447 11.5938C20.0104 12.0737 20.3825 12.852 20.4782 13.6036C20.554 14.5316 20.4266 15.4335 19.8709 16.1817C19.8245 16.2385 19.7778 16.295 19.7307 16.3511C19.7119 16.3763 19.6931 16.4015 19.6737 16.4275C19.2199 17.0232 18.4837 17.4166 17.7728 17.5178C16.8951 17.5979 16.042 17.4632 15.3344 16.8756C15.2807 16.8266 15.2273 16.7772 15.1742 16.7274C15.1503 16.7075 15.1265 16.6876 15.1019 16.6671C14.5385 16.1873 14.1664 15.409 14.0707 14.6574C13.995 13.7294 14.1223 12.8275 14.6781 12.0793C14.7244 12.0225 14.7711 11.966 14.8182 11.9099C14.837 11.8847 14.8559 11.8595 14.8752 11.8335C15.874 10.5226 17.8574 10.3758 19.1232 11.3095ZM15.7371 12.5756C15.3156 13.0441 15.1515 13.5795 15.1574 14.2127C15.1777 14.8551 15.4213 15.3386 15.8506 15.7865C16.2599 16.1768 16.758 16.388 17.3101 16.3887C17.9383 16.3469 18.4485 16.0861 18.8819 15.6054C19.3199 15.056 19.4241 14.4518 19.3747 13.7541C19.3442 13.5813 19.2966 13.4266 19.2323 13.2648C19.2207 13.2327 19.209 13.2005 19.197 13.1674C18.9806 12.6387 18.5122 12.2448 18.022 12.0228C17.1957 11.6854 16.3684 11.9601 15.7371 12.5756Z" fill="white"/>
</g>
<defs>
<clipPath id="clip0_3419_74531">
<rect width="20.2632" height="21.4591" fill="white" transform="translate(7.36865 6.82812)"/>
</clipPath>
</defs>
</svg>
