<svg width="208" height="171" viewBox="0 0 208 171" fill="none" xmlns="http://www.w3.org/2000/svg">
<path d="M83.6225 91.1289C83.6225 91.6367 83.8633 91.8906 84.3451 91.8906H86.5717C87.0274 91.8906 87.3399 91.806 87.5092 91.6367C87.6784 91.4674 87.8087 91.1029 87.8998 90.543C87.9649 90.1263 88.2644 89.944 88.7982 89.9961C89.3451 90.0352 89.6186 90.2435 89.6186 90.6211L89.4818 93.6484H81.1615V81.6758C81.1615 81.2591 81.129 80.9922 81.0639 80.875C81.0118 80.7448 80.9402 80.6667 80.849 80.6406C80.6016 80.5755 80.3868 80.4974 80.2045 80.4062C80.0222 80.3151 79.9311 80.1458 79.9311 79.8984C79.9311 79.4818 80.2045 79.2734 80.7514 79.2734H82.8217C83.3555 79.2734 83.6225 79.4818 83.6225 79.8984V91.1289ZM89.3451 86.3828C89.3451 84.2344 89.879 82.4701 90.9467 81.0898C92.0274 79.6966 93.5574 79 95.5365 79C97.5157 79 99.0456 79.6966 100.126 81.0898C101.207 82.4701 101.747 84.2344 101.747 86.3828C101.747 88.5312 101.207 90.3021 100.126 91.6953C99.0456 93.0755 97.5157 93.7656 95.5365 93.7656C93.5574 93.7656 92.0274 93.0755 90.9467 91.6953C89.879 90.3021 89.3451 88.5312 89.3451 86.3828ZM91.8842 86.3828C91.8842 88.2057 92.2423 89.6055 92.9584 90.582C93.6745 91.5456 94.5339 92.0273 95.5365 92.0273C96.5391 92.0273 97.3985 91.5456 98.1146 90.582C98.8438 89.6055 99.2084 88.2057 99.2084 86.3828C99.2084 84.5599 98.8438 83.1602 98.1146 82.1836C97.3985 81.207 96.5391 80.7188 95.5365 80.7188C94.5339 80.7188 93.6745 81.207 92.9584 82.1836C92.2423 83.1602 91.8842 84.5599 91.8842 86.3828ZM113.056 86.6562V92.5742C112.053 93.2643 110.777 93.6549 109.228 93.7461C107.691 93.8372 106.402 93.5703 105.361 92.9453C104.397 92.3594 103.609 91.5195 102.997 90.4258C102.399 89.332 102.093 87.9648 102.079 86.3242C102.079 84.1497 102.607 82.3854 103.662 81.0312C104.716 79.6771 106.285 79 108.369 79C109.71 79 110.829 79.3581 111.728 80.0742C112.639 80.7904 113.095 81.6367 113.095 82.6133H110.497C110.471 82.0143 110.237 81.5521 109.794 81.2266C109.365 80.901 108.857 80.7383 108.271 80.7383C107.372 80.7383 106.539 81.181 105.771 82.0664C105.016 82.9388 104.638 84.2539 104.638 86.0117C104.638 87.9258 105.042 89.3906 105.849 90.4062C106.656 91.4089 107.646 91.9362 108.818 91.9883C109.065 91.9883 109.352 91.9753 109.677 91.9492C110.016 91.9232 110.322 91.8646 110.595 91.7734V88.8828C110.595 88.1927 110.471 87.7695 110.224 87.6133C109.99 87.444 109.54 87.3529 108.876 87.3398C108.486 87.3398 108.29 87.112 108.29 86.6562C108.29 86.1875 108.44 85.9531 108.74 85.9531H112.314C112.809 85.9531 113.056 86.1875 113.056 86.6562ZM113.818 86.3828C113.818 84.2344 114.352 82.4701 115.419 81.0898C116.5 79.6966 118.03 79 120.009 79C121.988 79 123.518 79.6966 124.599 81.0898C125.68 82.4701 126.22 84.2344 126.22 86.3828C126.22 88.5312 125.68 90.3021 124.599 91.6953C123.518 93.0755 121.988 93.7656 120.009 93.7656C118.03 93.7656 116.5 93.0755 115.419 91.6953C114.352 90.3021 113.818 88.5312 113.818 86.3828ZM116.357 86.3828C116.357 88.2057 116.715 89.6055 117.431 90.582C118.147 91.5456 119.007 92.0273 120.009 92.0273C121.012 92.0273 121.871 91.5456 122.587 90.582C123.316 89.6055 123.681 88.2057 123.681 86.3828C123.681 84.5599 123.316 83.1602 122.587 82.1836C121.871 81.207 121.012 80.7188 120.009 80.7188C119.007 80.7188 118.147 81.207 117.431 82.1836C116.715 83.1602 116.357 84.5599 116.357 86.3828Z" fill="white"/>
<path d="M201.731 85.256C201.731 80.2197 201.731 67.9888 207.039 51.4414C201.731 66.5497 192.44 65.8305 185.141 62.9527C189.122 70.8668 189.122 82.378 189.122 85.256C189.122 88.1338 189.122 99.6451 185.141 107.559C192.441 104.681 201.731 103.962 207.039 119.07C201.731 102.523 201.731 90.2921 201.731 85.256Z" fill="white"/>
<path d="M182.487 113.674C183.814 108.637 183.15 99.2845 183.15 85.2551C183.15 71.2258 183.814 61.8727 182.487 56.8366C192.44 64.0312 211.417 55.9875 204.385 35.9727C199.076 20.8642 180.495 15.8279 165.233 17.2668C145.356 19.1409 110.819 41.7283 103.52 0C96.2201 41.7283 61.6827 19.1409 41.8059 17.267C26.5434 15.8281 7.96281 20.8642 2.65424 35.9728C-4.37844 55.9875 14.5987 64.0314 24.5527 56.8368C23.2255 61.8731 23.8892 71.226 23.8892 85.2553H23.8894C23.8894 99.2847 23.2257 108.638 24.5527 113.674C14.5992 106.479 -4.37827 114.523 2.65441 134.538C7.96297 149.646 26.5437 154.683 41.8059 153.244C61.6829 151.37 96.2201 128.782 103.52 170.51C110.819 128.782 145.356 151.37 165.233 153.244C180.496 154.683 199.076 149.647 204.385 134.538C211.417 114.523 192.44 106.479 182.487 113.674ZM103.52 15.3433C105.769 20.7077 110.562 26.8693 120.772 28.7781C112.436 28.7781 107.028 26.4822 103.52 23.3543C100.011 26.4822 94.6024 28.7781 86.2663 28.7781C96.4769 26.8695 101.27 20.7077 103.52 15.3433ZM103.52 155.167C101.27 149.803 96.4769 143.641 86.2666 141.732C94.6025 141.732 100.011 144.028 103.52 147.156C107.028 144.028 112.436 141.732 120.773 141.732C110.562 143.641 105.77 149.803 103.52 155.167ZM161.915 148.927C137.079 144.196 124.091 130.221 103.52 141.732C82.9484 130.221 69.9598 144.196 45.1241 148.927C20.5711 153.603 -0.410456 139.388 5.97246 123.386C11.1953 110.291 26.6945 118.436 30.3542 125.212C26.5265 117.793 25.8799 99.4329 25.8799 85.2553C25.8799 71.0775 26.5265 52.7177 30.3538 45.2987C26.6943 52.0743 11.195 60.2191 5.97194 47.1244C-0.410803 31.1218 20.571 16.9072 45.1236 21.5837C69.9598 26.314 82.9484 40.2894 103.52 28.7783C124.091 40.2894 137.079 26.3142 161.915 21.5837C186.468 16.9072 207.449 31.1218 201.066 47.1244C195.844 60.2191 180.344 52.0743 176.685 45.2987C180.512 52.7177 181.159 71.0775 181.159 85.2553C181.159 99.4329 180.512 117.793 176.685 125.212C180.344 118.436 195.844 110.291 201.067 123.386C207.45 139.388 186.468 153.603 161.915 148.927Z" fill="white"/>
<path d="M21.8984 107.559C17.9169 99.6451 17.9169 88.1338 17.9169 85.256H17.9167C17.9167 82.378 17.9167 70.8666 21.8983 62.9527C14.5987 65.8305 5.30873 66.5497 0 51.4414C5.30873 67.9888 5.30856 80.2197 5.30856 85.256H5.30873C5.30873 90.2921 5.30873 102.523 0 119.07C5.30873 103.962 14.5992 104.681 21.8984 107.559Z" fill="white"/>
<path d="M82.1465 135.486C90.319 132.078 100.377 134.804 103.52 139.575C106.663 134.804 116.721 132.078 124.894 135.486C117.349 128.67 108.549 126.625 103.52 126.625C98.4911 126.625 89.6903 128.67 82.1465 135.486Z" fill="white"/>
<path d="M103.52 30.9395C100.377 35.71 90.3191 38.4368 82.1465 35.0288C89.6903 41.8444 98.4909 43.8893 103.52 43.8893C108.549 43.8893 117.35 41.8444 124.894 35.0288C116.721 38.4368 106.663 35.71 103.52 30.9395Z" fill="white"/>
</svg>
