<svg width="35" height="35" viewBox="0 0 35 35" fill="none" xmlns="http://www.w3.org/2000/svg">
<rect width="35" height="35" rx="3" fill="#333333"/>
<path d="M13.4721 8.03346C13.1718 8.12615 12.916 8.3523 12.7751 8.65259C12.7009 8.81201 12.6787 8.93064 12.6601 9.23835L12.6416 9.62392H11.7667C11.0919 9.62392 10.8361 9.63875 10.6693 9.68324C10.0057 9.85378 9.49777 10.3431 9.3124 10.9845C9.24567 11.2255 9.24196 11.3886 9.24196 14.5844V17.9358L9.34948 18.0433C9.53855 18.2324 9.85738 18.1657 9.94265 17.921C9.96861 17.8431 9.98343 17.0831 9.98343 15.6261V13.4425H16.6975C21.5689 13.4425 23.43 13.4314 23.4893 13.4017C23.7674 13.2571 23.7674 12.8864 23.4893 12.7418C23.43 12.7121 21.5689 12.701 16.6975 12.701H9.98343V11.9966C9.98343 11.3849 9.99456 11.27 10.0576 11.0957C10.1577 10.8251 10.3505 10.6138 10.6063 10.4877L10.8176 10.3839L11.737 10.3728L12.6527 10.3617V10.5952C12.6564 11.1217 12.8084 11.4924 13.1199 11.7112C13.3534 11.8743 13.4832 11.9151 13.7835 11.9188C14.1023 11.9225 14.3544 11.8187 14.5768 11.5888C14.7882 11.3701 14.8771 11.1106 14.8771 10.6991V10.3654H17.9913H21.1055V10.5952C21.1092 11.1217 21.2649 11.4924 21.5726 11.7112C21.8062 11.8743 21.9359 11.9151 22.2362 11.9188C22.5551 11.9225 22.8072 11.8187 23.0296 11.5888C23.2409 11.3701 23.3299 11.1106 23.3299 10.6953V10.3617L24.3606 10.3728C25.3208 10.3839 25.3986 10.3876 25.558 10.4618C25.7805 10.5656 26.0215 10.8066 26.1253 11.029L26.2031 11.1995L26.2142 18.4474L26.2216 25.6953L26.1401 25.8621C25.9028 26.333 25.2466 26.3515 24.9834 25.8992C24.9167 25.7843 24.9018 25.6879 24.887 25.1132L24.8685 24.4533L24.7647 24.3532L24.6646 24.2494L22.4661 24.2383C21.2612 24.2309 20.2157 24.2383 20.1453 24.2494C19.8079 24.3125 19.7301 24.761 20.0304 24.9168C20.123 24.965 20.4271 24.9724 22.1436 24.9724H24.1455V25.3505C24.1455 25.6879 24.19 25.9585 24.2753 26.1661C24.3012 26.2292 23.9305 26.2329 16.7827 26.2329C9.5645 26.2329 9.25309 26.2292 9.11221 26.1624C8.81562 26.0253 8.72293 25.8288 8.72293 25.3246V24.9724H12.9308H17.1386L17.2573 24.8649C17.3611 24.7722 17.3796 24.7314 17.3759 24.6016C17.3722 24.4867 17.3462 24.42 17.2721 24.3458L17.1757 24.2494L15.259 24.2309C13.5499 24.2161 13.3534 24.2049 13.4127 24.1568C13.5647 24.0344 13.9318 23.5302 14.0504 23.2855C14.2988 22.7665 14.3396 22.5737 14.3359 21.9138C14.3359 21.3725 14.3285 21.2947 14.2358 21.024C13.8243 19.8043 12.7788 18.9887 11.522 18.9034C9.90929 18.7996 8.47454 20.0156 8.32254 21.6246C8.24098 22.4773 8.49679 23.2818 9.0603 23.9343L9.3124 24.2272L8.76001 24.2383C8.21132 24.2494 8.2039 24.2494 8.10381 24.3532L8 24.4533V25.1503C8 25.7175 8.01112 25.877 8.06673 26.029C8.15571 26.2848 8.37074 26.5591 8.61171 26.7222C9.0084 26.9929 8.34478 26.9743 17.4723 26.9743C26.5998 26.9743 25.9362 26.9929 26.3329 26.7222C26.5627 26.5665 26.7852 26.2922 26.8778 26.0475C26.9409 25.8918 26.9446 25.4506 26.9557 18.5957C26.9594 13.5723 26.952 11.2514 26.926 11.1217C26.8185 10.6027 26.4218 10.0799 25.9695 9.85007C25.5617 9.64246 25.4172 9.62392 24.3272 9.62392H23.3373L23.3225 9.20499C23.3151 8.8565 23.2965 8.76381 23.2261 8.62293C23.0148 8.21883 22.6774 8.01493 22.2177 8.01122C21.8989 8.01122 21.6801 8.1002 21.4503 8.32264C21.2278 8.54508 21.1389 8.79347 21.1129 9.23835L21.0944 9.62392H17.9876H14.8846L14.8697 9.20499C14.8586 8.73786 14.7993 8.57103 14.5546 8.31893C14.3099 8.06683 13.802 7.93336 13.4721 8.03346ZM13.9244 8.77493C14.132 8.88245 14.1357 8.89357 14.1357 9.965V10.9512L14.0393 11.0661C13.8502 11.2922 13.4758 11.181 13.4164 10.8807C13.4053 10.814 13.3942 10.3876 13.3942 9.92422C13.3942 9.20128 13.4016 9.06782 13.4609 8.95659C13.5573 8.76011 13.7501 8.68596 13.9244 8.77493ZM22.3771 8.77493C22.5847 8.88245 22.5884 8.89357 22.5884 9.965V10.9512L22.492 11.0661C22.303 11.2922 21.9285 11.181 21.8692 10.8807C21.8581 10.814 21.847 10.3876 21.847 9.92422C21.847 9.20128 21.8544 9.06782 21.9137 8.95659C22.0101 8.76011 22.2029 8.68596 22.3771 8.77493ZM11.8186 19.6894C12.6453 19.8636 13.3423 20.5384 13.5573 21.3651C13.6352 21.6543 13.6352 22.2104 13.5573 22.4996C13.194 23.9009 11.6221 24.6313 10.3356 23.9936C9.53114 23.5932 9.05289 22.8221 9.05289 21.9323C9.05289 20.4679 10.3838 19.3891 11.8186 19.6894Z" fill="white"/>
<path d="M11.5797 21.5759L10.9272 22.221L10.6788 21.9874C10.4119 21.7316 10.271 21.676 10.1042 21.7539C9.96699 21.8169 9.85948 22.0393 9.89284 22.1765C9.9225 22.2951 10.575 22.9847 10.7307 23.0663C10.7863 23.0959 10.8864 23.1182 10.9494 23.1182C11.057 23.1182 11.1608 23.0292 11.8985 22.2951C12.5399 21.6575 12.729 21.4461 12.7475 21.3535C12.7883 21.131 12.614 20.9345 12.3768 20.9308C12.2396 20.9308 12.2025 20.9605 11.5797 21.5759Z" fill="white"/>
<path d="M24.9417 12.7352C24.7193 12.8279 24.6488 13.143 24.8119 13.3135C25.0381 13.5545 25.4422 13.3988 25.4422 13.0726C25.4422 12.813 25.1827 12.6388 24.9417 12.7352Z" fill="white"/>
<path d="M12.5467 15.4669C12.276 15.5374 12.0499 15.6782 11.8571 15.8933C11.6198 16.1565 11.5234 16.4234 11.5234 16.8164C11.5234 17.2168 11.6198 17.48 11.8719 17.7543C12.4169 18.3512 13.3215 18.3698 13.8924 17.7988C14.6599 17.0314 14.3077 15.7375 13.2511 15.4632C12.9953 15.3965 12.8025 15.3965 12.5467 15.4669ZM13.1992 16.2269C13.5217 16.3863 13.6589 16.7719 13.5032 17.0944C13.34 17.4355 12.9434 17.5727 12.6134 17.4022C12.124 17.1501 12.124 16.479 12.6134 16.2306C12.8173 16.1268 12.9878 16.1268 13.1992 16.2269Z" fill="white"/>
<path d="M16.0497 15.4444C14.7558 15.7706 14.5853 17.5168 15.7939 18.0877C16.0126 18.1915 16.0793 18.2063 16.3574 18.2026C16.591 18.2026 16.7281 18.1804 16.8875 18.1174C17.1878 17.9987 17.503 17.6984 17.6401 17.4018C17.7365 17.1942 17.7476 17.1275 17.7476 16.8161C17.7476 16.5047 17.7365 16.4379 17.6401 16.2303C17.4993 15.93 17.1841 15.6297 16.8875 15.5185C16.6429 15.4258 16.2573 15.3924 16.0497 15.4444ZM16.6392 16.2192C16.7244 16.2563 16.8393 16.3527 16.8987 16.4305C16.9913 16.5529 17.0062 16.601 17.0062 16.8161C17.0062 17.0311 16.9913 17.0793 16.8987 17.2016C16.6985 17.4649 16.3648 17.5464 16.0793 17.4093C15.59 17.172 15.5863 16.4676 16.0756 16.2229C16.2647 16.1302 16.4427 16.1302 16.6392 16.2192Z" fill="white"/>
<path d="M19.4914 15.4556C19.0095 15.5816 18.6276 15.945 18.4867 16.4047C18.3792 16.7606 18.4385 17.2425 18.6313 17.5428C19.117 18.3177 20.1773 18.44 20.815 17.8023C21.5008 17.1202 21.2969 15.9598 20.4183 15.552C20.1476 15.4259 19.7658 15.3851 19.4914 15.4556ZM20.0549 16.1896C20.2996 16.2823 20.4813 16.5455 20.4813 16.8162C20.4813 17.0238 20.4108 17.1758 20.2366 17.3278C20.003 17.5317 19.6657 17.5317 19.421 17.3278C19.0947 17.0572 19.091 16.5678 19.4136 16.312C19.6138 16.1526 19.8436 16.1081 20.0549 16.1896Z" fill="white"/>
<path d="M22.9295 15.4669C22.6588 15.5374 22.4327 15.6782 22.2399 15.8933C22.0026 16.1565 21.9062 16.4234 21.9062 16.8164C21.9062 17.2168 22.0026 17.48 22.2547 17.7543C22.7997 18.3512 23.7043 18.3698 24.2752 17.7988C25.0427 17.0314 24.6905 15.7375 23.6339 15.4632C23.3781 15.3965 23.1853 15.3965 22.9295 15.4669ZM23.582 16.2269C23.9045 16.3863 24.0417 16.7719 23.886 17.0944C23.7229 17.4355 23.3262 17.5727 22.9962 17.4022C22.5068 17.1501 22.5068 16.479 22.9962 16.2306C23.2001 16.1268 23.3707 16.1268 23.582 16.2269Z" fill="white"/>
<path d="M16.0497 19.2998C14.7558 19.6261 14.5853 21.3722 15.7939 21.9432C16.0126 22.047 16.0793 22.0618 16.3574 22.0581C16.591 22.0581 16.7281 22.0358 16.8875 21.9728C17.1878 21.8542 17.503 21.5539 17.6401 21.2573C17.7365 21.0497 17.7476 20.983 17.7476 20.6715C17.7476 20.3601 17.7365 20.2934 17.6401 20.0858C17.4993 19.7855 17.1841 19.4852 16.8875 19.374C16.6429 19.2813 16.2573 19.2479 16.0497 19.2998ZM16.6392 20.0747C16.7244 20.1117 16.8393 20.2081 16.8987 20.286C16.9913 20.4083 17.0062 20.4565 17.0062 20.6715C17.0062 20.8866 16.9913 20.9348 16.8987 21.0571C16.6985 21.3203 16.3648 21.4019 16.0793 21.2647C15.59 21.0274 15.5863 20.3231 16.0756 20.0784C16.2647 19.9857 16.4427 19.9857 16.6392 20.0747Z" fill="white"/>
<path d="M19.4914 19.3111C19.0095 19.4371 18.6276 19.8004 18.4867 20.2601C18.3792 20.616 18.4385 21.098 18.6313 21.3983C19.117 22.1731 20.1773 22.2955 20.815 21.6578C21.5008 20.9757 21.2969 19.8153 20.4183 19.4074C20.1476 19.2814 19.7658 19.2406 19.4914 19.3111ZM20.0549 20.0451C20.2996 20.1378 20.4813 20.401 20.4813 20.6717C20.4813 20.8793 20.4108 21.0313 20.2366 21.1833C20.003 21.3872 19.6657 21.3872 19.421 21.1833C19.0947 20.9126 19.091 20.4233 19.4136 20.1675C19.6138 20.008 19.8436 19.9635 20.0549 20.0451Z" fill="white"/>
<path d="M22.9295 19.3224C22.6588 19.3928 22.4327 19.5337 22.2399 19.7487C22.0026 20.0119 21.9062 20.2789 21.9062 20.6719C21.9062 21.0723 22.0026 21.3355 22.2547 21.6098C22.7997 22.2067 23.7043 22.2252 24.2752 21.6543C25.0427 20.8869 24.6905 19.593 23.6339 19.3187C23.3781 19.2519 23.1853 19.2519 22.9295 19.3224ZM23.582 20.0824C23.9045 20.2418 24.0417 20.6274 23.886 20.9499C23.7229 21.291 23.3262 21.4282 22.9962 21.2576C22.5068 21.0055 22.5068 20.3345 22.9962 20.0861C23.2001 19.9823 23.3707 19.9823 23.582 20.0824Z" fill="white"/>
<path d="M18.6577 24.2721C18.3129 24.4093 18.3833 24.9098 18.7503 24.9617C19.0099 24.995 19.2026 24.7615 19.1322 24.5019C19.0803 24.3092 18.8467 24.1979 18.6577 24.2721Z" fill="white"/>
</svg>
