<svg width="35" height="36" viewBox="0 0 35 36" fill="none" xmlns="http://www.w3.org/2000/svg">
<rect y="0.240234" width="35" height="35" rx="3" fill="#3E456E"/>
<g clip-path="url(#clip0_1510_56839)">
<path d="M17.5923 6.88142C17.162 6.96906 16.9427 7.13118 16.1069 7.97686C15.5814 8.50705 15.2545 8.80501 15.1511 8.84445C15.0063 8.90141 14.907 8.89264 14.0464 8.76996C13.5251 8.69108 12.9748 8.62536 12.8258 8.62536C12.2052 8.61659 11.6425 8.93208 11.2949 9.47542C11.088 9.80843 11.0425 9.97055 10.8439 11.1799C10.7529 11.732 10.6495 12.2403 10.6164 12.3148C10.5377 12.4682 10.4302 12.5426 9.58198 13.0115C8.4276 13.6512 8.229 13.8177 7.98902 14.3479C7.85662 14.6459 7.81938 14.8562 7.81525 15.2549C7.81525 15.623 7.87731 15.807 8.39036 16.92C8.72551 17.6518 8.82894 17.9147 8.82894 18.0505C8.82894 18.1863 8.72551 18.4492 8.39036 19.181C7.87731 20.294 7.81525 20.478 7.81525 20.8461C7.81938 21.2448 7.85662 21.4551 7.98902 21.7531C8.229 22.2833 8.4276 22.4498 9.58198 23.0895C10.4302 23.5584 10.5377 23.6328 10.6164 23.7862C10.6495 23.8607 10.7529 24.369 10.8439 24.9255C10.935 25.4776 11.0384 26.0209 11.0674 26.1304C11.2908 26.9192 11.9859 27.4669 12.7679 27.4756C12.9292 27.48 13.492 27.4143 14.0257 27.3354C14.907 27.2083 15.0063 27.1996 15.1511 27.2565C15.2545 27.296 15.5814 27.5939 16.1069 28.1241C16.7399 28.7683 16.9551 28.9567 17.162 29.0574C17.5136 29.2327 17.886 29.2941 18.2336 29.2327C18.7508 29.1407 18.9411 29.0092 19.8141 28.1241C20.3396 27.5939 20.6664 27.296 20.7699 27.2565C20.9147 27.1996 21.014 27.2083 21.8746 27.331C22.3959 27.4099 22.9462 27.4756 23.0952 27.4756C23.7158 27.4844 24.2785 27.1689 24.6261 26.6256C24.833 26.2926 24.8785 26.1304 25.0771 24.9211C25.1681 24.369 25.2715 23.8607 25.3046 23.7862C25.3832 23.6285 25.4743 23.5671 26.4466 23.0282C27.3651 22.5155 27.5679 22.3621 27.7872 22.0116C28.0064 21.6698 28.1016 21.3456 28.1057 20.9162C28.1057 20.4692 28.0644 20.3422 27.5306 19.181C27.1955 18.4492 27.092 18.1863 27.092 18.0505C27.092 17.9147 27.1955 17.6518 27.5306 16.92C28.0644 15.7588 28.1057 15.6318 28.1057 15.1848C28.1016 14.7554 28.0064 14.4312 27.7872 14.0894C27.5679 13.7389 27.3651 13.5855 26.4466 13.0728C25.4743 12.5339 25.3832 12.4725 25.3046 12.3148C25.2715 12.2403 25.1681 11.732 25.0771 11.1799C24.8785 9.97055 24.833 9.80843 24.6261 9.47542C24.2785 8.93208 23.7158 8.61659 23.0952 8.62536C22.9462 8.62536 22.3959 8.69108 21.8746 8.76996C21.014 8.89264 20.9147 8.90141 20.7699 8.84445C20.6664 8.80501 20.3396 8.50705 19.8141 7.97686C19.1893 7.34589 18.9618 7.14433 18.7673 7.04793C18.3701 6.85075 17.9977 6.79817 17.5923 6.88142ZM18.2708 8.231C18.3412 8.2792 18.7342 8.66041 19.1521 9.08106C19.9796 9.92674 20.1989 10.0801 20.6871 10.159C20.9685 10.2072 21.0637 10.1984 22.3339 10.0056C22.7725 9.93988 23.1531 9.90045 23.2359 9.91797C23.4096 9.95303 23.6 10.1195 23.662 10.2817C23.6869 10.3518 23.7862 10.8688 23.8813 11.4341C24.0634 12.547 24.1296 12.7793 24.3571 13.1298C24.5599 13.4453 24.7502 13.5811 25.7639 14.1507C26.2397 14.4224 26.6617 14.6722 26.7073 14.7116C26.8107 14.808 26.8976 15.0359 26.8976 15.2067C26.8976 15.2944 26.7197 15.7282 26.4218 16.3811C25.9294 17.459 25.8632 17.6518 25.8632 18.0505C25.8632 18.4492 25.9294 18.642 26.4218 19.7199C26.7197 20.3728 26.8976 20.8066 26.8976 20.8943C26.8976 21.0651 26.8107 21.293 26.7073 21.3894C26.6617 21.4288 26.2397 21.6786 25.7639 21.9503C24.7502 22.5199 24.5599 22.6557 24.3571 22.9712C24.1296 23.3217 24.0634 23.554 23.8813 24.6669C23.7862 25.2322 23.6869 25.7492 23.662 25.8193C23.6 25.9815 23.4096 26.148 23.2359 26.183C23.1531 26.2005 22.7725 26.1611 22.3339 26.0954C21.0637 25.9026 20.9685 25.8938 20.6871 25.942C20.1989 26.0209 19.9796 26.1743 19.1521 27.0199C18.7342 27.4406 18.3412 27.8218 18.2708 27.87C18.1301 27.9664 17.824 27.9795 17.6833 27.8963C17.6336 27.8656 17.2571 27.5019 16.8434 27.0857C16.0407 26.275 15.8752 26.1436 15.5193 26.0121C15.1883 25.8938 14.7994 25.907 13.7526 26.0691C13.1982 26.1523 12.772 26.2005 12.6851 26.183C12.5114 26.148 12.321 25.9815 12.259 25.8193C12.2341 25.7492 12.1348 25.2322 12.0397 24.6669C11.8576 23.554 11.7914 23.3217 11.5639 22.9712C11.3611 22.6557 11.1708 22.5199 10.1571 21.9503C9.68128 21.6786 9.25925 21.4288 9.21374 21.3894C9.1103 21.293 9.02341 21.0651 9.02341 20.8943C9.02341 20.8066 9.20132 20.3728 9.49923 19.7199C9.99159 18.642 10.0578 18.4492 10.0578 18.0505C10.0578 17.6518 9.99159 17.459 9.49923 16.3811C9.20132 15.7282 9.02341 15.2944 9.02341 15.2067C9.02341 15.0359 9.1103 14.808 9.21374 14.7116C9.25925 14.6722 9.68128 14.4224 10.1571 14.1507C11.1708 13.5811 11.3611 13.4453 11.5639 13.1298C11.7914 12.7793 11.8576 12.547 12.0397 11.4341C12.1348 10.8688 12.2341 10.3518 12.259 10.2817C12.321 10.1195 12.5114 9.95303 12.6851 9.91797C12.7679 9.90045 13.1485 9.93988 13.5871 10.0056C14.8573 10.1984 14.9525 10.2072 15.2339 10.159C15.7221 10.0801 15.9414 9.92674 16.7689 9.08106C17.1868 8.66041 17.584 8.2792 17.6502 8.231C17.7247 8.1828 17.8488 8.14775 17.9605 8.14775C18.0722 8.14775 18.1963 8.1828 18.2708 8.231Z" fill="white"/>
<path d="M15.0436 12.2887C14.0174 12.5297 13.2851 13.4981 13.2851 14.6023C13.2892 15.6495 13.9595 16.5784 14.936 16.8852C15.2215 16.9728 15.7593 16.9772 16.0697 16.8895C16.8889 16.6661 17.555 15.9124 17.7164 15.0361C18.0143 13.4017 16.5786 11.925 15.0436 12.2887ZM16.0407 13.6909C16.5869 14.0502 16.6903 14.8433 16.2517 15.3253C15.8462 15.7722 15.2132 15.781 14.7994 15.3516C14.5388 15.0755 14.4353 14.5497 14.576 14.1948C14.816 13.5945 15.5235 13.3535 16.0407 13.6909Z" fill="white"/>
<path d="M21.7464 13.1902C21.6181 13.2647 13.4547 21.9143 13.3844 22.0457C13.2479 22.3174 13.3596 22.6986 13.6244 22.8695C13.7733 22.9659 14.0257 22.9834 14.1664 22.9089C14.2947 22.8388 22.4622 14.198 22.5366 14.0534C22.6732 13.7818 22.5615 13.4005 22.2967 13.2297C22.1477 13.1333 21.8788 13.1157 21.7464 13.1902Z" fill="white"/>
<path d="M19.8348 19.2113C19.028 19.4435 18.366 20.1972 18.2046 21.0648C18.1053 21.6081 18.2336 22.3048 18.515 22.7605C18.8708 23.3301 19.4666 23.742 20.0831 23.8428C21.4112 24.0575 22.6401 22.9314 22.6359 21.4986C22.6318 20.4513 21.9615 19.5224 20.9851 19.2157C20.7079 19.128 20.1327 19.128 19.8348 19.2113ZM20.8527 20.5477C21.2002 20.7318 21.4112 21.0998 21.4071 21.5117C21.3988 22.1427 20.9354 22.594 20.3355 22.5546C19.4914 22.4976 19.0859 21.4197 19.6693 20.7756C19.9838 20.425 20.4596 20.333 20.8527 20.5477Z" fill="white"/>
</g>
<defs>
<clipPath id="clip0_1510_56839">
<rect width="21.1842" height="22.4345" fill="white" transform="translate(7.36841 6.83398)"/>
</clipPath>
</defs>
</svg>
