<svg width="35" height="35" viewBox="0 0 35 35" fill="none" xmlns="http://www.w3.org/2000/svg">
<rect width="35" height="35" rx="3" fill="#FF7575"/>
<g clip-path="url(#clip0_3419_74844)">
<path d="M23.1554 10.2347C23.1983 10.2722 23.1983 10.2722 23.2419 10.3105C23.2923 10.3527 23.3427 10.3947 23.3932 10.4366C23.4245 10.4629 23.4558 10.4892 23.488 10.5163C23.4648 10.6761 23.3921 10.7532 23.283 10.8686C23.1476 11.015 23.0181 11.1633 22.8933 11.3187C22.774 11.4667 22.6519 11.6102 22.5242 11.7508C22.3631 11.9281 22.2118 12.1118 22.0615 12.2983C21.9264 12.4629 21.785 12.6216 21.6423 12.7796C21.5023 12.7213 21.3959 12.6326 21.2806 12.5354C20.0959 11.5395 18.5393 11.0607 16.9991 11.1874C15.3803 11.345 13.9128 12.1238 12.8648 13.3769C12.1665 14.2467 11.7406 15.2984 11.5935 16.4008C11.5882 16.4376 11.5828 16.4744 11.5773 16.5123C11.5508 16.7261 11.5509 16.9391 11.5517 17.1542C11.5517 17.1847 11.5518 17.2152 11.5519 17.2466C11.552 17.3213 11.5522 17.396 11.5525 17.4707C11.6161 17.4716 11.6161 17.4716 11.681 17.4725C11.8389 17.4749 11.9967 17.4781 12.1546 17.4815C12.2228 17.4829 12.291 17.484 12.3592 17.485C12.4575 17.4863 12.5557 17.4885 12.654 17.4908C12.6995 17.4912 12.6995 17.4912 12.7459 17.4916C12.9869 17.4984 13.1171 17.559 13.2854 17.7279C13.375 17.8692 13.3953 17.9616 13.3982 18.1291C13.3322 18.394 13.1582 18.5558 12.9746 18.7512C12.873 18.8612 12.7788 18.9739 12.6855 19.091C12.527 19.2883 12.3585 19.4734 12.1859 19.6583C12.025 19.8317 11.8757 20.0123 11.7279 20.1971C11.6256 20.3209 11.5181 20.4393 11.4089 20.557C11.2342 20.7454 11.0708 20.9403 10.91 21.141C10.7837 21.2933 10.6505 21.4387 10.5155 21.5833C10.4167 21.6896 10.3242 21.7966 10.24 21.9149C10.1205 21.9013 10.0791 21.8772 9.99502 21.7881C9.96673 21.751 9.93845 21.7139 9.9093 21.6757C9.77261 21.5017 9.63205 21.336 9.4812 21.1742C9.33959 21.0217 9.20372 20.8662 9.07361 20.7036C8.93555 20.5314 8.79084 20.3684 8.64038 20.2072C8.4575 20.0113 8.28609 19.8095 8.11855 19.6001C8.01619 19.4762 7.90875 19.3579 7.79956 19.2402C7.61962 19.046 7.44911 18.8464 7.28478 18.6387C7.20977 18.543 7.20977 18.543 7.13642 18.4734C7.00758 18.3467 6.98324 18.2419 6.97412 18.0674C6.98127 17.9168 6.99674 17.8147 7.08948 17.6945C7.28332 17.5259 7.43675 17.5016 7.69013 17.5038C7.76964 17.5042 7.76964 17.5042 7.85075 17.5046C7.90632 17.5053 7.96189 17.506 8.01746 17.5067C8.07383 17.5071 8.1302 17.5075 8.18657 17.5078C8.32417 17.5088 8.46177 17.5102 8.59937 17.5118C8.59794 17.4619 8.59651 17.4119 8.59504 17.3604C8.55941 15.5285 9.03851 13.6214 10.1169 12.1212C10.1462 12.0799 10.1755 12.0386 10.2057 11.9961C10.7731 11.2176 11.431 10.5098 12.2087 9.94019C12.2434 9.9143 12.2781 9.88842 12.3138 9.86175C15.5017 7.5472 20.1446 7.6565 23.1554 10.2347Z" fill="white"/>
<path d="M24.7598 13.1934C24.8782 13.2071 24.92 13.2305 25.0033 13.3187C25.0312 13.3554 25.0591 13.3922 25.0879 13.43C25.2313 13.6127 25.3802 13.7853 25.5391 13.9546C25.722 14.1505 25.8934 14.3523 26.0609 14.5618C26.1632 14.6856 26.2707 14.804 26.3799 14.9217C26.5215 15.0743 26.6574 15.2297 26.7875 15.3923C26.9255 15.5645 27.0703 15.7275 27.2207 15.8887C27.4369 16.1205 27.6389 16.3602 27.8359 16.6088C27.8659 16.6424 27.8959 16.676 27.9268 16.7106C28.0499 16.8855 28.0349 17.0616 28 17.2672C27.933 17.4067 27.8418 17.4906 27.7027 17.5605C27.5681 17.6034 27.4508 17.6097 27.3096 17.6135C27.2566 17.6151 27.2036 17.6167 27.149 17.6183C27.0934 17.6196 27.0379 17.6209 26.9823 17.6222C26.9259 17.6237 26.8696 17.6253 26.8132 17.627C26.6756 17.6309 26.538 17.6344 26.4004 17.6376C26.3977 17.6653 26.3951 17.6929 26.3923 17.7214C26.2037 19.6356 25.5995 21.4422 24.3086 22.9048C24.2808 22.9372 24.253 22.9696 24.2243 23.0029C23.7882 23.5014 23.3234 23.9517 22.791 24.3451C22.7388 24.3842 22.7388 24.3842 22.6854 24.424C20.7788 25.8058 18.3912 26.3197 16.0773 25.9725C14.8076 25.7619 13.5484 25.3069 12.4961 24.5508C12.4731 24.5344 12.4501 24.518 12.4264 24.5011C12.0261 24.2139 12.0261 24.2139 11.9219 24.057C11.9472 24.0296 11.9725 24.0022 11.9986 23.9739C12.2106 23.7425 12.4135 23.5069 12.6103 23.2622C12.6994 23.1539 12.7915 23.0497 12.8857 22.946C13.046 22.7696 13.1962 22.5867 13.3457 22.4012C13.4943 22.221 13.651 22.0484 13.8086 21.8761C13.9328 21.9335 14.0443 22.0044 14.1578 22.0806C15.0562 22.6806 16.0873 23.0616 17.1719 23.1106C17.2187 23.1128 17.2655 23.1149 17.3137 23.1172C18.9627 23.1557 20.4951 22.5296 21.6853 21.3971C22.1427 20.9481 22.4949 20.4268 22.791 19.8597C22.8159 19.8126 22.8407 19.7654 22.8663 19.7168C23.2032 19.0515 23.3482 18.3303 23.4473 17.5964C23.4063 17.5971 23.3654 17.5977 23.3232 17.5984C23.1704 17.6006 23.0177 17.6021 22.865 17.6032C22.799 17.6038 22.7331 17.6047 22.6671 17.6058C22.572 17.6073 22.4769 17.608 22.3818 17.6085C22.3526 17.6091 22.3234 17.6098 22.2932 17.6104C22.0498 17.6105 21.8862 17.5507 21.7118 17.3804C21.6253 17.239 21.6044 17.1451 21.6016 16.9792C21.6676 16.7143 21.8414 16.5526 22.025 16.3573C22.1275 16.2464 22.2226 16.1327 22.3168 16.0147C22.4668 15.8281 22.6248 15.6517 22.7876 15.4763C22.9094 15.3442 23.0248 15.2086 23.1371 15.0683C23.2947 14.8717 23.4624 14.6875 23.6341 14.5035C23.7947 14.3305 23.9437 14.1503 24.0912 13.9659C24.2169 13.8139 24.3497 13.6691 24.4843 13.525C24.5831 13.4187 24.6756 13.3117 24.7598 13.1934Z" fill="white"/>
</g>
<defs>
<clipPath id="clip0_3419_74844">
<rect width="21" height="21" fill="white" transform="translate(7 7)"/>
</clipPath>
</defs>
</svg>
