<svg width="35" height="35" viewBox="0 0 35 35" fill="none" xmlns="http://www.w3.org/2000/svg">
<rect width="35" height="35" rx="3" fill="#4FAB52"/>
<g clip-path="url(#clip0_3521_150925)">
<path d="M9.82328 10.802C9.85212 10.8019 9.88095 10.8017 9.91065 10.8016C10.0069 10.8012 10.1031 10.8014 10.1993 10.8016C10.2691 10.8015 10.3389 10.8013 10.4088 10.8011C10.6004 10.8006 10.792 10.8006 10.9836 10.8007C11.1904 10.8007 11.3971 10.8003 11.6039 10.7999C12.0089 10.7993 12.4139 10.7991 12.8189 10.799C13.1481 10.799 13.4774 10.7988 13.8066 10.7986C14.7404 10.7979 15.6741 10.7975 16.6078 10.7976C16.6833 10.7976 16.6833 10.7976 16.7603 10.7976C16.8107 10.7976 16.8611 10.7976 16.913 10.7976C17.7296 10.7976 18.5461 10.7969 19.3626 10.7958C20.2013 10.7947 21.0399 10.7941 21.8786 10.7942C22.3493 10.7942 22.8201 10.794 23.2908 10.7932C23.6916 10.7925 24.0925 10.7923 24.4933 10.7928C24.6977 10.7931 24.9021 10.7931 25.1065 10.7924C25.2939 10.7918 25.4812 10.7919 25.6686 10.7926C25.7361 10.7927 25.8037 10.7926 25.8712 10.7921C26.4743 10.7885 26.9776 10.8795 27.439 11.2979C27.4688 11.3309 27.4986 11.364 27.5293 11.398C27.5575 11.426 27.5575 11.426 27.5862 11.4545C27.8307 11.7107 28.0025 12.0945 28.0034 12.4497C28.0036 12.4897 28.0038 12.5296 28.004 12.5707C28.004 12.6367 28.004 12.6367 28.0041 12.7041C28.0042 12.7507 28.0044 12.7973 28.0046 12.8454C28.005 12.9751 28.0053 13.1048 28.0054 13.2345C28.0057 13.3743 28.0061 13.5141 28.0066 13.6539C28.0075 13.9917 28.0081 14.3295 28.0086 14.6674C28.0087 14.7628 28.0089 14.8583 28.009 14.9538C28.01 15.5468 28.0109 16.1398 28.0114 16.7328C28.0115 16.8702 28.0116 17.0076 28.0117 17.145C28.0118 17.1791 28.0118 17.2133 28.0118 17.2485C28.0123 17.801 28.0136 18.3536 28.0152 18.9062C28.0169 19.4738 28.0178 20.0415 28.018 20.6091C28.0181 20.9276 28.0186 21.2462 28.0199 21.5648C28.021 21.8362 28.0214 22.1077 28.021 22.3791C28.0208 22.5175 28.0209 22.6558 28.0219 22.7942C28.0229 22.9446 28.0224 23.095 28.0218 23.2455C28.0223 23.2886 28.0229 23.3317 28.0234 23.3762C28.0182 23.8936 27.8147 24.2977 27.4683 24.6695C27.0936 25.0154 26.686 25.1966 26.1728 25.1971C26.1296 25.1973 26.1296 25.1973 26.0854 25.1975C25.9892 25.1979 25.893 25.1977 25.7968 25.1975C25.727 25.1977 25.6572 25.1978 25.5873 25.1981C25.3957 25.1985 25.2041 25.1985 25.0125 25.1984C24.8057 25.1984 24.599 25.1988 24.3922 25.1992C23.9872 25.1999 23.5822 25.2001 23.1772 25.2001C22.848 25.2002 22.5187 25.2003 22.1895 25.2006C21.2557 25.2013 20.322 25.2016 19.3883 25.2016C19.3128 25.2016 19.3128 25.2016 19.2358 25.2015C19.1854 25.2015 19.135 25.2015 19.0831 25.2015C18.2665 25.2015 17.45 25.2023 16.6335 25.2034C15.7948 25.2045 14.9562 25.205 14.1175 25.205C13.6468 25.2049 13.176 25.2051 12.7053 25.206C12.3045 25.2067 11.9036 25.2069 11.5028 25.2063C11.2984 25.2061 11.094 25.2061 10.8896 25.2068C10.7022 25.2074 10.5149 25.2073 10.3275 25.2066C10.26 25.2065 10.1924 25.2066 10.1249 25.207C9.52181 25.2107 9.01846 25.1196 8.55713 24.7012C8.52732 24.6682 8.49751 24.6352 8.4668 24.6011C8.44802 24.5821 8.42924 24.563 8.40988 24.5433C8.15539 24.2721 7.99368 23.9179 7.9927 23.5446C7.9925 23.5046 7.9923 23.4646 7.9921 23.4234C7.99207 23.3576 7.99207 23.3576 7.99204 23.2904C7.99187 23.2437 7.9917 23.1971 7.99152 23.149C7.99109 23.0194 7.99083 22.8898 7.99065 22.7601C7.99042 22.6204 7.98997 22.4806 7.98955 22.3408C7.98859 22.0032 7.98802 21.6655 7.98751 21.3279C7.98737 21.2325 7.98721 21.1371 7.98705 21.0417C7.98607 20.4488 7.98521 19.856 7.98472 19.2631C7.98461 19.1258 7.98449 18.9885 7.98437 18.8512C7.98434 18.8171 7.98432 18.783 7.98429 18.7478C7.98379 18.1955 7.98249 17.6431 7.98087 17.0908C7.97921 16.5234 7.97829 15.9559 7.97808 15.3885C7.97795 15.07 7.97749 14.7516 7.97621 14.4332C7.97511 14.1619 7.97468 13.8906 7.97512 13.6192C7.97532 13.481 7.97521 13.3427 7.97424 13.2044C7.97319 13.0541 7.97368 12.9037 7.9743 12.7534C7.97376 12.7103 7.97321 12.6672 7.97266 12.6228C7.97788 12.1054 8.1815 11.7013 8.52783 11.3297C8.90252 10.9838 9.31009 10.8026 9.82328 10.802ZM9.33594 12.2452C9.14174 12.4993 9.15868 12.8214 9.16 13.1259C9.15988 13.1693 9.15976 13.2128 9.15963 13.2575C9.15932 13.4027 9.15957 13.5478 9.15982 13.6929C9.15971 13.7971 9.15957 13.9014 9.1594 14.0056C9.15905 14.259 9.15913 14.5125 9.15935 14.7659C9.15953 14.9719 9.15956 15.178 9.15947 15.384C9.15946 15.4133 9.15945 15.4427 9.15943 15.4729C9.15941 15.5326 9.15938 15.5922 9.15936 15.6519C9.15914 16.2107 9.15939 16.7696 9.15981 17.3285C9.16016 17.8077 9.1601 18.2869 9.15974 18.7662C9.15932 19.3231 9.15916 19.88 9.1594 20.4369C9.15942 20.4963 9.15945 20.5557 9.15947 20.6152C9.15948 20.6444 9.15949 20.6736 9.15951 20.7037C9.15957 20.9095 9.15946 21.1152 9.15928 21.3209C9.15906 21.5717 9.15912 21.8225 9.15953 22.0733C9.15974 22.2011 9.15978 22.329 9.15956 22.4569C9.15935 22.5957 9.15961 22.7345 9.16 22.8732C9.15983 22.9134 9.15966 22.9537 9.15948 22.9951C9.16097 23.269 9.16393 23.562 9.35791 23.7759C9.37669 23.7976 9.39548 23.8192 9.41483 23.8416C9.58096 23.9803 9.75105 23.9859 9.961 23.9861C9.98925 23.9862 10.0175 23.9863 10.0466 23.9865C10.1415 23.9868 10.2365 23.9865 10.3314 23.9863C10.4 23.9864 10.4687 23.9866 10.5373 23.9868C10.7261 23.9872 10.915 23.9871 11.1038 23.9869C11.3074 23.9868 11.511 23.9872 11.7145 23.9875C12.1134 23.988 12.5123 23.988 12.9112 23.9879C13.2353 23.9879 13.5595 23.9879 13.8836 23.9881C13.9527 23.9881 13.9527 23.9881 14.0233 23.9882C14.1169 23.9882 14.2105 23.9883 14.3041 23.9883C15.1826 23.9887 16.0611 23.9887 16.9395 23.9884C17.7436 23.9882 18.5477 23.9887 19.3518 23.9894C20.177 23.9902 21.0022 23.9905 21.8274 23.9903C22.2908 23.9903 22.7543 23.9904 23.2178 23.9909C23.6123 23.9914 24.0068 23.9914 24.4014 23.991C24.6027 23.9907 24.8041 23.9907 25.0055 23.9912C25.1897 23.9916 25.374 23.9915 25.5582 23.9909C25.625 23.9908 25.6917 23.9909 25.7585 23.9912C25.849 23.9916 25.9396 23.9913 26.0302 23.9908C26.0805 23.9908 26.1309 23.9908 26.1828 23.9908C26.3891 23.9685 26.513 23.8977 26.6602 23.754C26.8544 23.4998 26.8374 23.1778 26.8361 22.8732C26.8362 22.8298 26.8363 22.7864 26.8365 22.7416C26.8368 22.5965 26.8365 22.4513 26.8363 22.3062C26.8364 22.202 26.8365 22.0978 26.8367 21.9936C26.837 21.7401 26.837 21.4867 26.8367 21.2332C26.8366 21.0272 26.8365 20.8212 26.8366 20.6152C26.8366 20.5711 26.8366 20.5711 26.8367 20.5262C26.8367 20.4666 26.8367 20.4069 26.8367 20.3473C26.837 19.7884 26.8367 19.2295 26.8363 18.6707C26.8359 18.1914 26.836 17.7122 26.8364 17.233C26.8368 16.6761 26.8369 16.1192 26.8367 15.5622C26.8367 15.5028 26.8367 15.4434 26.8366 15.384C26.8366 15.3548 26.8366 15.3255 26.8366 15.2954C26.8365 15.0897 26.8366 14.884 26.8368 14.6783C26.837 14.4275 26.837 14.1767 26.8366 13.9259C26.8364 13.798 26.8363 13.6701 26.8365 13.5422C26.8368 13.4035 26.8365 13.2647 26.8361 13.1259C26.8363 13.0857 26.8364 13.0455 26.8366 13.004C26.8351 12.7301 26.8322 12.4372 26.6382 12.2232C26.6194 12.2016 26.6006 12.1799 26.5813 12.1576C26.4151 12.0188 26.2451 12.0132 26.0351 12.0131C26.0069 12.0129 25.9786 12.0128 25.9495 12.0127C25.8546 12.0124 25.7596 12.0126 25.6647 12.0128C25.5961 12.0127 25.5274 12.0126 25.4588 12.0124C25.2699 12.012 25.0811 12.0121 24.8923 12.0122C24.6887 12.0123 24.4851 12.012 24.2816 12.0117C23.8827 12.0112 23.4838 12.0111 23.0849 12.0112C22.7608 12.0113 22.4366 12.0112 22.1125 12.011C22.0434 12.011 22.0434 12.011 21.9728 12.011C21.8792 12.0109 21.7856 12.0109 21.692 12.0108C20.8135 12.0104 19.935 12.0105 19.0566 12.0107C18.2525 12.0109 17.4484 12.0105 16.6443 12.0097C15.8191 12.009 14.9939 12.0087 14.1687 12.0088C13.7053 12.0089 13.2418 12.0088 12.7783 12.0082C12.3838 12.0078 11.9893 12.0077 11.5947 12.0082C11.3934 12.0084 11.192 12.0085 10.9906 12.008C10.8064 12.0076 10.6221 12.0077 10.4379 12.0082C10.3711 12.0083 10.3044 12.0082 10.2376 12.0079C10.1471 12.0075 10.0565 12.0079 9.96591 12.0084C9.91556 12.0084 9.8652 12.0084 9.81332 12.0084C9.60701 12.0306 9.48306 12.1014 9.33594 12.2452Z" fill="white"/>
<path d="M15.705 16.3532C16.1069 16.7311 16.3728 17.2494 16.4063 17.802C16.4191 18.3231 16.3536 18.7614 16.0598 19.2075C16.0092 19.2846 15.9677 19.362 15.9282 19.4452C15.9604 19.468 15.9925 19.4907 16.0256 19.5142C16.7121 20.0129 17.1483 20.6756 17.318 21.5093C17.3383 21.6616 17.3447 21.8111 17.3467 21.9647C17.3478 21.9934 17.3489 22.022 17.3501 22.0515C17.3525 22.2555 17.3185 22.3734 17.1782 22.5311C16.9281 22.7201 16.6968 22.7096 16.391 22.7076C16.3397 22.7079 16.2883 22.7081 16.2354 22.7084C16.0951 22.7091 15.9549 22.7089 15.8146 22.7084C15.6674 22.708 15.5202 22.7083 15.3731 22.7086C15.1259 22.7089 14.8787 22.7085 14.6316 22.7078C14.3464 22.7069 14.0612 22.7072 13.776 22.708C13.5306 22.7087 13.2852 22.7088 13.0398 22.7084C12.8935 22.7082 12.7472 22.7082 12.6008 22.7087C12.4376 22.7092 12.2743 22.7085 12.1111 22.7076C12.063 22.7079 12.0149 22.7082 11.9653 22.7086C11.6925 22.7059 11.5108 22.68 11.2798 22.5311C11.0935 22.3215 11.1003 22.1076 11.1089 21.8343C11.1775 20.9265 11.6304 20.2021 12.2954 19.6014C12.3719 19.5461 12.4498 19.4956 12.5298 19.4452C12.4807 19.3458 12.43 19.2474 12.3784 19.1493C12.0695 18.5558 11.9477 17.9856 12.1404 17.3254C12.3301 16.7901 12.6834 16.3378 13.1874 16.0649C14.0373 15.6656 14.9666 15.7574 15.705 16.3532ZM13.438 17.4286C13.2783 17.6715 13.237 17.9082 13.272 18.1952C13.3668 18.519 13.5616 18.7271 13.8488 18.8977C14.0638 18.9955 14.282 18.9997 14.5073 18.9349C14.8116 18.8145 15.0191 18.6454 15.1528 18.3426C15.2363 18.0704 15.2228 17.8158 15.1079 17.5555C14.9471 17.2742 14.7126 17.1295 14.4056 17.0416C14.049 16.9589 13.6544 17.143 13.438 17.4286ZM12.7991 20.7985C12.5498 21.1075 12.5498 21.1075 12.4517 21.4764C13.6376 21.4764 14.8235 21.4764 16.0454 21.4764C15.7424 20.8705 15.4886 20.5239 14.8735 20.2655C14.1336 20.0243 13.3341 20.2351 12.7991 20.7985Z" fill="white"/>
<path d="M12.1148 13.2927C12.1677 13.2925 12.2206 13.2923 12.2735 13.292C12.4183 13.2913 12.5631 13.2917 12.7078 13.2921C12.8642 13.2925 13.0206 13.2919 13.1769 13.2915C13.483 13.2908 13.7891 13.291 14.0951 13.2914C14.3439 13.2918 14.5927 13.2918 14.8415 13.2917C14.8946 13.2916 14.8946 13.2916 14.9489 13.2916C15.0208 13.2915 15.0928 13.2915 15.1648 13.2914C15.8394 13.291 16.5141 13.2915 17.1888 13.2923C17.7675 13.293 18.3462 13.2929 18.9249 13.2922C19.5972 13.2914 20.2695 13.291 20.9418 13.2915C21.0135 13.2916 21.0852 13.2916 21.1569 13.2917C21.1922 13.2917 21.2274 13.2917 21.2638 13.2917C21.5122 13.2919 21.7607 13.2916 22.0091 13.2913C22.312 13.2908 22.6148 13.2909 22.9176 13.2918C23.0721 13.2922 23.2266 13.2924 23.381 13.2918C23.5225 13.2914 23.664 13.2916 23.8055 13.2925C23.8807 13.2927 23.956 13.2922 24.0312 13.2917C24.3042 13.2941 24.4874 13.3183 24.7179 13.4688C24.8613 13.634 24.8978 13.7935 24.8867 14.0102C24.8599 14.1895 24.7907 14.297 24.6593 14.4185C24.5122 14.5179 24.4029 14.5284 24.2295 14.5287C24.1846 14.5289 24.1396 14.5291 24.0933 14.5293C24.0436 14.5293 23.994 14.5293 23.9429 14.5292C23.8898 14.5294 23.8367 14.5295 23.7836 14.5297C23.6375 14.5301 23.4913 14.5302 23.3451 14.5303C23.1876 14.5305 23.03 14.5309 22.8725 14.5312C22.4919 14.532 22.1113 14.5324 21.7307 14.5327C21.5516 14.5329 21.3724 14.5331 21.1932 14.5333C20.5978 14.534 20.0023 14.5345 19.4069 14.5348C19.2523 14.5349 19.0978 14.535 18.9432 14.535C18.8856 14.5351 18.8856 14.5351 18.8268 14.5351C18.2043 14.5354 17.5819 14.5364 16.9594 14.5377C16.3206 14.539 15.6817 14.5397 15.0428 14.5398C14.6841 14.5399 14.3253 14.5402 13.9665 14.5412C13.661 14.5421 13.3555 14.5424 13.05 14.542C12.8941 14.5418 12.7382 14.5419 12.5823 14.5427C12.4396 14.5433 12.2968 14.5433 12.1541 14.5427C12.0781 14.5426 12.002 14.5432 11.926 14.5439C11.6632 14.5419 11.4928 14.5274 11.2804 14.3672C11.1325 14.2045 11.1098 14.0471 11.1137 13.834C11.1311 13.6823 11.1811 13.5833 11.2804 13.4688C11.554 13.2903 11.7942 13.2904 12.1148 13.2927Z" fill="white"/>
<path d="M20.1434 18.9559C20.1899 18.9557 20.2364 18.9554 20.2843 18.9551C20.4115 18.9545 20.5386 18.9547 20.6657 18.9552C20.799 18.9556 20.9323 18.9552 21.0656 18.9549C21.2894 18.9547 21.5132 18.955 21.737 18.9558C21.9954 18.9566 22.2538 18.9564 22.5123 18.9555C22.7345 18.9548 22.9567 18.9547 23.179 18.9551C23.3116 18.9553 23.4441 18.9554 23.5767 18.9549C23.7245 18.9545 23.8723 18.9551 24.0202 18.9559C24.0639 18.9556 24.1076 18.9553 24.1526 18.955C24.3926 18.9576 24.5362 18.9712 24.7185 19.1324C24.865 19.2991 24.8885 19.4525 24.8857 19.6683C24.8629 19.8532 24.7524 19.9604 24.6208 20.0821C24.4742 20.1811 24.351 20.192 24.1765 20.1926C24.1191 20.1929 24.1191 20.1929 24.0605 20.1932C24.0187 20.1933 23.977 20.1933 23.934 20.1934C23.8898 20.1936 23.8457 20.1938 23.8002 20.194C23.654 20.1945 23.5077 20.1948 23.3615 20.195C23.2599 20.1952 23.1583 20.1955 23.0568 20.1957C22.8709 20.1961 22.6851 20.1963 22.4992 20.1964C22.2261 20.1966 21.953 20.1973 21.6798 20.1984C21.4429 20.1994 21.206 20.1997 20.969 20.1997C20.8684 20.1998 20.7678 20.2002 20.6672 20.2007C20.5263 20.2013 20.3855 20.2013 20.2447 20.201C20.2032 20.2014 20.1617 20.2017 20.1189 20.2021C19.829 20.2005 19.6359 20.1679 19.4109 19.9722C19.2749 19.8123 19.2753 19.6663 19.278 19.4646C19.2992 19.2733 19.4002 19.1721 19.539 19.0491C19.7225 18.9313 19.9327 18.9544 20.1434 18.9559Z" fill="white"/>
<path d="M19.9885 16.4324C20.046 16.432 20.046 16.432 20.1045 16.4317C20.1463 16.4317 20.188 16.4316 20.231 16.4316C20.2752 16.4314 20.3194 16.4312 20.3649 16.431C20.5111 16.4304 20.6573 16.4301 20.8035 16.4299C20.9051 16.4297 21.0067 16.4295 21.1083 16.4293C21.2941 16.4289 21.48 16.4287 21.6658 16.4285C21.9389 16.4284 22.2121 16.4277 22.4852 16.4265C22.7221 16.4256 22.9591 16.4253 23.196 16.4252C23.2966 16.4251 23.3972 16.4248 23.4979 16.4243C23.6387 16.4236 23.7795 16.4237 23.9203 16.4239C23.9618 16.4236 24.0033 16.4232 24.0461 16.4229C24.2995 16.4243 24.5116 16.4403 24.7099 16.615C24.869 16.8295 24.9007 16.9549 24.8762 17.2191C24.8012 17.4284 24.6842 17.5495 24.4856 17.6488C24.4223 17.6528 24.3588 17.6543 24.2954 17.6546C24.2552 17.6548 24.215 17.6551 24.1736 17.6554C24.1293 17.6555 24.085 17.6556 24.0394 17.6557C23.9929 17.656 23.9464 17.6562 23.8985 17.6565C23.744 17.6573 23.5896 17.6577 23.4352 17.6581C23.382 17.6583 23.3288 17.6584 23.2757 17.6586C23.0258 17.6593 22.7759 17.6599 22.5261 17.6602C22.2377 17.6606 21.9494 17.6616 21.6611 17.6632C21.4382 17.6644 21.2153 17.665 20.9924 17.6651C20.8593 17.6652 20.7262 17.6655 20.5931 17.6665C20.4445 17.6675 20.2959 17.6674 20.1473 17.6672C20.1034 17.6677 20.0594 17.6682 20.0141 17.6687C19.773 17.6671 19.6293 17.655 19.4465 17.4926C19.2927 17.3226 19.2655 17.1833 19.2752 16.9612C19.3055 16.7731 19.4087 16.6681 19.5442 16.5428C19.6909 16.4438 19.814 16.433 19.9885 16.4324Z" fill="white"/>
<path d="M20.0459 21.4693C20.0793 21.469 20.1127 21.4687 20.1472 21.4684C20.2579 21.4674 20.3686 21.4668 20.4793 21.4662C20.5172 21.466 20.5551 21.4658 20.5941 21.4656C20.7945 21.4645 20.995 21.4638 21.1954 21.4632C21.3611 21.4627 21.5268 21.4616 21.6925 21.46C21.8927 21.4581 22.0929 21.4571 22.2931 21.4568C22.3693 21.4566 22.4455 21.456 22.5217 21.455C22.6285 21.4538 22.7353 21.4538 22.8422 21.4541C22.8734 21.4534 22.9046 21.4528 22.9367 21.4521C23.1688 21.4547 23.3281 21.5244 23.5075 21.6722C23.6402 21.8547 23.6578 22.0394 23.6246 22.2581C23.5821 22.3947 23.5214 22.4948 23.4027 22.5772C23.1999 22.6827 23.0361 22.7104 22.8092 22.708C22.7761 22.7083 22.7429 22.7086 22.7088 22.7089C22.6002 22.7096 22.4916 22.7091 22.383 22.7086C22.3071 22.7087 22.2311 22.7088 22.1551 22.709C21.9963 22.7093 21.8375 22.7089 21.6787 22.7082C21.4755 22.7073 21.2724 22.7078 21.0692 22.7087C20.9125 22.7093 20.7558 22.7091 20.599 22.7087C20.5241 22.7086 20.4493 22.7088 20.3744 22.7091C20.2696 22.7095 20.1648 22.7089 20.06 22.708C20.0294 22.7084 19.9987 22.7087 19.9671 22.709C19.7504 22.7057 19.6243 22.654 19.445 22.5316C19.2881 22.3591 19.2753 22.1904 19.2776 21.9655C19.2981 21.7848 19.3932 21.6786 19.5255 21.5623C19.6921 21.4603 19.8572 21.4703 20.0459 21.4693Z" fill="white"/>
</g>
<defs>
<clipPath id="clip0_3521_150925">
<rect width="20" height="20" fill="white" transform="translate(8 8)"/>
</clipPath>
</defs>
</svg>
