<svg width="35" height="35" viewBox="0 0 35 35" fill="none" xmlns="http://www.w3.org/2000/svg">
<rect width="35" height="35" rx="3" fill="#00CFF4"/>
<path d="M16.4839 7.20207C15.2605 7.41492 14.1267 7.98868 13.2528 8.83543C11.6609 10.3809 11.0798 12.6065 11.7128 14.7396C11.9679 15.6002 12.4545 16.4146 13.1206 17.1087C13.3331 17.3262 13.4843 17.5159 13.4559 17.5251C13.2198 17.6038 12.0482 18.2238 11.6656 18.4737C10.3477 19.3343 9.17614 20.5374 8.40143 21.8283C7.45666 23.3923 6.88507 25.3495 7.13071 26.1685C7.37163 26.9922 7.97628 27.5798 8.78406 27.788C9.0297 27.8482 10.0784 27.8574 17.4996 27.8574C24.9207 27.8574 25.9694 27.8482 26.2151 27.788C27.0228 27.5798 27.6275 26.9922 27.8684 26.1685C28.0762 25.4745 27.7125 24.0031 26.9709 22.5131C25.9363 20.4448 24.1366 18.7143 21.9967 17.738C21.7463 17.6223 21.529 17.5205 21.5195 17.5112C21.5101 17.502 21.6754 17.3169 21.888 17.0994C23.017 15.9241 23.6169 14.3509 23.5319 12.7546C23.4044 10.2883 21.7652 8.18764 19.3655 7.41029C18.5105 7.13729 17.3531 7.04938 16.4839 7.20207ZM18.5908 8.74289C19.4174 8.95111 20.0882 9.33053 20.6929 9.9228C21.307 10.5197 21.6802 11.1675 21.9022 12.0004C22.0533 12.5602 22.0533 13.569 21.9022 14.1149C21.666 14.971 21.3211 15.5493 20.6882 16.174C19.852 16.993 18.9167 17.4048 17.7546 17.4788C15.8415 17.5945 14.0086 16.4563 13.3001 14.7118C13.0497 14.0964 12.993 13.7911 12.993 13.0507C12.993 12.5001 13.0119 12.3104 13.1017 11.9865C13.3284 11.1582 13.6685 10.566 14.2637 9.96907C14.9676 9.26575 15.7281 8.8632 16.7201 8.67349C17.1736 8.58557 18.1184 8.62259 18.5908 8.74289ZM15.7045 18.7467C15.7045 18.7698 15.4589 19.3898 15.1565 20.1348L14.6086 21.4859L14.6275 21.8376C14.6416 22.1106 14.6794 22.2448 14.7786 22.4298C14.9487 22.7306 16.5406 24.2853 16.8382 24.438C17.0177 24.5305 17.1216 24.549 17.4996 24.549C18.1326 24.549 18.2318 24.4843 19.3088 23.42C20.0788 22.6612 20.1921 22.527 20.2819 22.291C20.4803 21.7682 20.452 21.6247 19.8379 20.1209C19.5403 19.3852 19.2946 18.7698 19.2946 18.7467C19.2946 18.7282 19.4127 18.668 19.5544 18.6171L19.8095 18.5246L20.3528 18.6958C22.3084 19.3204 23.9712 20.5836 25.1238 22.3142C25.8277 23.3738 26.5174 25.2339 26.4087 25.7937C26.3709 25.9973 26.1725 26.2287 25.9694 26.312C25.7427 26.4091 9.25644 26.4091 9.0297 26.312C8.82185 26.2287 8.62817 25.9973 8.59038 25.7845C8.5148 25.4097 8.86909 24.2159 9.33203 23.2766C10.3996 21.1065 12.308 19.4592 14.6275 18.7004L15.1849 18.5199L15.4447 18.6171C15.5864 18.668 15.7045 18.7282 15.7045 18.7467ZM18.3168 20.38L18.8836 21.7589L18.1892 22.4345L17.4996 23.1146L16.8099 22.4345L16.1155 21.7589L16.6493 20.4494C16.9421 19.7276 17.202 19.0983 17.2256 19.0521C17.2586 18.9873 17.3153 18.9734 17.5137 18.9827L17.7546 18.9965L18.3168 20.38Z" fill="white"/>
</svg>
