<svg width="35" height="35" viewBox="0 0 35 35" fill="none" xmlns="http://www.w3.org/2000/svg">
<rect width="35" height="35" rx="3" fill="#333333"/>
<path d="M10.7256 9.39575C10.7829 9.39562 10.8402 9.39544 10.8975 9.39522C11.054 9.39476 11.2105 9.39498 11.3671 9.39533C11.5363 9.39558 11.7054 9.39519 11.8746 9.39489C12.2057 9.39439 12.5367 9.3945 12.8678 9.39482C13.1369 9.39507 13.406 9.39511 13.6752 9.39499C13.7327 9.39496 13.7327 9.39496 13.7914 9.39493C13.8693 9.3949 13.9472 9.39486 14.0251 9.39483C14.7551 9.39451 15.4851 9.39487 16.2152 9.39547C16.8411 9.39597 17.4671 9.39588 18.0931 9.39537C18.8206 9.39477 19.5481 9.39454 20.2755 9.39488C20.3532 9.39492 20.4308 9.39495 20.5084 9.39499C20.5466 9.395 20.5848 9.39502 20.6241 9.39504C20.8928 9.39513 21.1615 9.39497 21.4302 9.39471C21.7578 9.3944 22.0854 9.39448 22.413 9.39507C22.5801 9.39537 22.7471 9.39548 22.9142 9.39511C23.0673 9.39478 23.2203 9.39497 23.3734 9.39556C23.4286 9.39568 23.4839 9.39562 23.5391 9.39535C24.0423 9.39307 24.5102 9.45545 24.8875 9.8178C25.1816 10.1446 25.1816 10.1446 25.1816 10.3376C25.2115 10.3445 25.2413 10.3514 25.2721 10.3585C25.6272 10.5018 25.8796 10.7837 26.0375 11.1289C26.1468 11.4301 26.152 11.7478 26.1518 12.0651C26.152 12.1157 26.152 12.1157 26.1522 12.1673C26.1526 12.2778 26.1527 12.3883 26.1527 12.4988C26.1528 12.5763 26.1529 12.6538 26.1531 12.7313C26.1533 12.8934 26.1534 13.0555 26.1533 13.2176C26.1533 13.4243 26.1538 13.6311 26.1545 13.8378C26.1549 13.9978 26.155 14.1578 26.1549 14.3178C26.155 14.3939 26.1552 14.4701 26.1554 14.5463C26.1578 15.2186 26.1544 15.7974 25.6677 16.3132C25.32 16.6402 24.9181 16.7007 24.4554 16.6942C24.4122 16.694 24.3691 16.6939 24.3247 16.6937C24.1882 16.6931 24.0517 16.6917 23.9153 16.6903C23.8222 16.6897 23.7291 16.6892 23.6361 16.6888C23.4091 16.6875 23.1821 16.6857 22.9551 16.6833C22.9552 16.7261 22.9553 16.769 22.9555 16.8131C22.9587 17.8297 22.9611 18.8464 22.9626 19.863C22.9628 19.9882 22.963 20.1133 22.9632 20.2384C22.9632 20.2633 22.9633 20.2882 22.9633 20.3139C22.964 20.7173 22.9651 21.1206 22.9665 21.524C22.9679 21.9379 22.9687 22.3518 22.969 22.7657C22.9692 22.9981 22.9697 23.2306 22.9707 23.4631C22.9718 23.6818 22.9721 23.9006 22.9718 24.1193C22.9719 24.1997 22.9722 24.28 22.9727 24.3603C22.9735 24.47 22.9733 24.5795 22.9729 24.6892C22.9733 24.721 22.9738 24.7528 22.9742 24.7857C22.9722 24.9849 22.9384 25.0972 22.8066 25.2556C22.6502 25.3939 22.5399 25.4183 22.3397 25.4147C22.1634 25.3937 22.0125 25.3074 21.8564 25.2268C21.7087 25.1579 21.615 25.1311 21.4569 25.1814C21.3991 25.2049 21.3419 25.2297 21.2851 25.2556C21.2539 25.2691 21.2227 25.2826 21.1905 25.2966C21.0572 25.355 20.9246 25.4149 20.7926 25.4763C20.5996 25.5623 20.4219 25.6399 20.209 25.5896C20.0087 25.5127 19.8153 25.4205 19.6227 25.3261C19.321 25.1655 19.321 25.1655 18.9948 25.1756C18.9411 25.2007 18.8881 25.2275 18.8359 25.2556C18.7718 25.2838 18.7076 25.3118 18.6433 25.3395C18.543 25.3845 18.443 25.43 18.3434 25.4763C18.1504 25.5623 17.9727 25.6399 17.7597 25.5896C17.5595 25.5127 17.366 25.4205 17.1735 25.3261C16.8718 25.1655 16.8718 25.1655 16.5456 25.1756C16.4919 25.2007 16.4389 25.2275 16.3867 25.2556C16.3226 25.2838 16.2584 25.3118 16.194 25.3395C16.0938 25.3845 15.9938 25.43 15.8942 25.4763C15.7012 25.5623 15.5234 25.6399 15.3105 25.5896C15.1102 25.5127 14.9168 25.4205 14.7243 25.3261C14.416 25.1635 14.416 25.1635 14.0834 25.1814C14.034 25.2045 13.9852 25.2291 13.9375 25.2556C13.887 25.277 13.887 25.277 13.8354 25.2989C13.8079 25.3114 13.7803 25.3239 13.7519 25.3368C13.5758 25.4076 13.4209 25.4395 13.2324 25.404C13.0508 25.3149 12.9571 25.2094 12.8613 25.0329C12.8407 24.9181 12.8419 24.8056 12.8435 24.6892C12.8433 24.6549 12.8432 24.6206 12.8431 24.5853C12.8428 24.4706 12.8436 24.3559 12.8445 24.2412C12.8445 24.1589 12.8445 24.0766 12.8444 23.9943C12.8443 23.771 12.8452 23.5477 12.8463 23.3243C12.8472 23.0909 12.8473 22.8575 12.8474 22.6241C12.8479 22.2323 12.8488 21.8405 12.8501 21.4488C12.8515 21.0453 12.8525 20.6419 12.8531 20.2384C12.8532 20.2011 12.8532 20.2011 12.8533 20.163C12.8535 20.0382 12.8536 19.9134 12.8538 19.7885C12.8554 18.7535 12.858 17.7184 12.8613 16.6833C12.8377 16.6836 12.814 16.684 12.7896 16.6843C12.5416 16.6876 12.2935 16.6898 12.0455 16.6915C11.9531 16.6922 11.8608 16.6932 11.7684 16.6945C11.635 16.6963 11.5016 16.6972 11.3682 16.6978C11.3071 16.699 11.3071 16.699 11.2448 16.7001C10.8075 16.7003 10.4314 16.5852 10.1152 16.2751C9.88714 16.0165 9.88714 16.0165 9.82312 15.8643C9.76461 15.7643 9.69135 15.731 9.59104 15.6744C9.22775 15.45 9.00856 15.1667 8.8906 14.7536C8.85499 14.5247 8.84797 14.297 8.8481 14.0658C8.84797 14.0321 8.84785 13.9984 8.84772 13.9638C8.84737 13.8535 8.8473 13.7431 8.84726 13.6328C8.84714 13.5554 8.84701 13.478 8.84688 13.4006C8.84666 13.2386 8.84659 13.0767 8.84661 12.9147C8.84662 12.7083 8.84611 12.5019 8.84547 12.2955C8.84506 12.1357 8.84498 11.9759 8.845 11.8161C8.84496 11.74 8.8448 11.664 8.84451 11.5879C8.84008 10.3015 8.84008 10.3015 9.29866 9.81127C9.71129 9.43725 10.1902 9.39312 10.7256 9.39575ZM9.55857 10.0407C9.538 10.0603 9.51743 10.0798 9.49623 10.0999C9.23492 10.3755 9.16508 10.699 9.16827 11.0683C9.16801 11.1061 9.16775 11.1439 9.16748 11.1828C9.16683 11.3065 9.16726 11.4302 9.16776 11.554C9.16766 11.6406 9.16751 11.7273 9.16733 11.814C9.16711 11.9953 9.16743 12.1765 9.16812 12.3578C9.16897 12.5893 9.16848 12.8208 9.16759 13.0523C9.16705 13.2312 9.16723 13.41 9.16761 13.5889C9.16771 13.6743 9.16759 13.7596 9.16724 13.8449C9.16686 13.9645 9.16744 14.0841 9.16827 14.2037C9.16797 14.2384 9.16767 14.2731 9.16736 14.3089C9.17205 14.68 9.2819 14.9818 9.5332 15.2561C9.59737 15.3187 9.59737 15.3187 9.707 15.3474C9.70721 15.2741 9.70721 15.2741 9.70741 15.1994C9.70879 14.738 9.71093 14.2767 9.71383 13.8154C9.71529 13.5782 9.71649 13.3411 9.71706 13.1039C9.71762 12.8749 9.71891 12.6458 9.72067 12.4167C9.72122 12.3296 9.72152 12.2424 9.72155 12.1552C9.72164 12.0326 9.72264 11.9101 9.72386 11.7875C9.72367 11.7519 9.72348 11.7162 9.72329 11.6795C9.72944 11.2745 9.86574 10.9239 10.1523 10.6345C10.4633 10.3789 10.8057 10.2592 11.2071 10.2583C11.2556 10.258 11.3041 10.2578 11.354 10.2576C11.4077 10.2576 11.4614 10.2576 11.5151 10.2575C11.5722 10.2574 11.6293 10.2572 11.6864 10.257C11.8434 10.2565 12.0004 10.2562 12.1573 10.256C12.3266 10.2557 12.4959 10.2551 12.6651 10.2547C12.9584 10.2539 13.2516 10.2532 13.5449 10.2526C13.9689 10.2518 14.3929 10.2507 14.817 10.2496C15.5049 10.2479 16.1928 10.2462 16.8807 10.2447C17.549 10.2433 18.2173 10.2417 18.8856 10.2401C18.9268 10.24 18.968 10.2399 19.0104 10.2398C19.217 10.2393 19.4236 10.2388 19.6303 10.2383C21.3446 10.234 23.059 10.2301 24.7734 10.2263C24.6949 10.0891 24.6338 10.0078 24.4997 9.92246C24.458 9.89526 24.458 9.89526 24.4154 9.86752C24.1783 9.73321 23.9513 9.70218 23.681 9.70188C23.6334 9.70174 23.5858 9.7016 23.5368 9.70145C23.4842 9.70148 23.4316 9.70151 23.3791 9.70155C23.323 9.70145 23.267 9.70134 23.2109 9.70121C23.057 9.70091 22.9031 9.70085 22.7492 9.70082C22.5831 9.70075 22.4171 9.70047 22.251 9.70022C21.888 9.69972 21.5249 9.69949 21.1619 9.69933C20.9351 9.69923 20.7084 9.69907 20.4816 9.6989C19.8536 9.69845 19.2256 9.69807 18.5975 9.69794C18.5373 9.69793 18.5373 9.69793 18.4758 9.69792C18.4355 9.69791 18.3952 9.6979 18.3537 9.69789C18.2721 9.69788 18.1905 9.69786 18.1088 9.69784C18.0683 9.69783 18.0279 9.69783 17.9861 9.69782C17.3303 9.69767 16.6744 9.69702 16.0185 9.69616C15.3449 9.69528 14.6712 9.69482 13.9976 9.69477C13.6195 9.69474 13.2414 9.69453 12.8632 9.69385C12.5412 9.69328 12.2192 9.69309 11.8972 9.6934C11.733 9.69354 11.5688 9.69351 11.4046 9.69299C11.2541 9.69251 11.1036 9.69256 10.953 9.69301C10.8988 9.69308 10.8445 9.69297 10.7903 9.69264C10.3325 9.69008 9.90396 9.71239 9.55857 10.0407ZM10.2881 10.9163C10.0462 11.2348 9.99273 11.4851 9.9931 11.8761C9.99285 11.9143 9.9926 11.9524 9.99234 11.9918C9.99164 12.1175 9.99149 12.2432 9.99141 12.3689C9.99117 12.4567 9.99092 12.5444 9.99066 12.6322C9.99022 12.816 9.99008 12.9999 9.99013 13.1837C9.99013 13.4186 9.98912 13.6536 9.98784 13.8885C9.98702 14.0698 9.98687 14.251 9.98691 14.4323C9.98682 14.5189 9.98649 14.6055 9.98592 14.6921C9.98519 14.8135 9.9854 14.9348 9.98585 15.0562C9.98543 15.0916 9.98502 15.127 9.98459 15.1634C9.98784 15.5144 10.096 15.8048 10.3383 16.0616C10.6652 16.35 11.0174 16.3978 11.4371 16.3937C11.4914 16.3936 11.4914 16.3936 11.5468 16.3935C11.6812 16.3931 11.8155 16.392 11.9498 16.3911C12.2506 16.3896 12.5514 16.388 12.8613 16.3864C12.8613 15.7741 12.8613 15.1618 12.8613 14.531C12.6041 14.5126 12.6041 14.5126 12.3418 14.4939C11.9985 14.3912 11.7856 14.29 11.6022 13.9768C11.46 13.7024 11.4453 13.3959 11.5254 13.0999C11.6252 12.8368 11.815 12.6266 12.0704 12.5085C12.248 12.4384 12.4188 12.4111 12.6093 12.4109C12.6669 12.4107 12.6669 12.4107 12.7257 12.4104C12.7677 12.4105 12.8096 12.4105 12.8528 12.4105C12.9199 12.4104 12.9199 12.4104 12.9884 12.4102C13.1125 12.4099 13.2366 12.4098 13.3607 12.4098C13.4946 12.4097 13.6285 12.4095 13.7624 12.4092C14.0552 12.4087 14.3479 12.4085 14.6406 12.4083C14.8235 12.4082 15.0064 12.4081 15.1892 12.4079C15.6957 12.4074 16.2021 12.4071 16.7086 12.4069C16.741 12.4069 16.7734 12.4069 16.8068 12.4069C16.8392 12.4069 16.8717 12.4069 16.9052 12.4069C16.971 12.4069 17.0368 12.4068 17.1026 12.4068C17.1353 12.4068 17.1679 12.4068 17.2016 12.4068C17.7304 12.4067 18.2593 12.406 18.7882 12.4051C19.3314 12.4043 19.8746 12.4038 20.4178 12.4038C20.7227 12.4037 21.0276 12.4035 21.3325 12.4028C21.5922 12.4023 21.8519 12.4021 22.1115 12.4024C22.2439 12.4025 22.3763 12.4025 22.5087 12.402C22.6525 12.4014 22.7962 12.4017 22.94 12.4021C22.9815 12.4018 23.023 12.4015 23.0658 12.4012C23.4502 12.4036 23.7871 12.4723 24.0683 12.7497C24.2713 12.9992 24.3559 13.2811 24.3281 13.6032C24.2775 13.9038 24.1491 14.1082 23.9199 14.3083C23.6109 14.5106 23.3367 14.5037 22.9551 14.531C22.9551 15.1433 22.9551 15.7556 22.9551 16.3864C23.2543 16.3887 23.5536 16.391 23.8619 16.3934C24.0027 16.3949 24.0027 16.3949 24.1462 16.3965C24.2215 16.3968 24.2968 16.3971 24.372 16.3973C24.4104 16.3979 24.4487 16.3985 24.4882 16.399C24.868 16.3992 25.1884 16.305 25.4785 16.0525C25.7566 15.7314 25.8237 15.4504 25.8233 15.0369C25.8235 14.9991 25.8238 14.9613 25.824 14.9223C25.8247 14.7978 25.8249 14.6733 25.8249 14.5488C25.8252 14.4619 25.8254 14.3749 25.8257 14.288C25.8261 14.1059 25.8263 13.9239 25.8262 13.7418C25.8262 13.5091 25.8272 13.2764 25.8285 13.0437C25.8293 12.8641 25.8295 12.6846 25.8294 12.5051C25.8295 12.4193 25.8299 12.3336 25.8304 12.2478C25.8312 12.1275 25.8309 12.0073 25.8305 11.8871C25.8309 11.8521 25.8313 11.817 25.8318 11.7809C25.8286 11.4433 25.718 11.1039 25.4785 10.8571C25.1714 10.6149 24.8881 10.5186 24.4966 10.5184C24.4488 10.5183 24.4009 10.5182 24.3517 10.518C24.2989 10.5181 24.2461 10.5181 24.1933 10.5182C24.137 10.5181 24.0808 10.518 24.0245 10.5179C23.8699 10.5177 23.7154 10.5177 23.5608 10.5178C23.3941 10.5178 23.2274 10.5176 23.0606 10.5174C22.734 10.5171 22.4074 10.517 22.0808 10.517C21.8153 10.5169 21.5498 10.5169 21.2843 10.5168C20.5316 10.5164 19.7789 10.5163 19.0262 10.5163C18.9654 10.5163 18.9654 10.5163 18.9033 10.5163C18.8626 10.5163 18.822 10.5163 18.7802 10.5163C18.1217 10.5163 17.4632 10.516 16.8047 10.5154C16.1286 10.5149 15.4525 10.5146 14.7764 10.5147C14.3968 10.5147 14.0172 10.5146 13.6376 10.5142C13.3145 10.5138 12.9913 10.5138 12.6681 10.514C12.5032 10.5141 12.3384 10.5141 12.1735 10.5138C12.0225 10.5135 11.8715 10.5136 11.7205 10.5139C11.666 10.514 11.6114 10.5139 11.5569 10.5137C11.0753 10.512 10.6305 10.5368 10.2881 10.9163ZM11.922 12.9817C11.7981 13.1835 11.7281 13.3665 11.7619 13.6056C11.8255 13.8576 11.9817 14.0247 12.2003 14.1576C12.4429 14.2492 12.574 14.2341 12.8613 14.2341C12.8613 13.732 12.8613 13.2299 12.8613 12.7126C12.2996 12.6975 12.2996 12.6975 11.922 12.9817ZM13.1582 12.7126C13.1528 14.878 13.1528 14.878 13.1491 17.0435C13.1488 17.3352 13.1484 17.6269 13.148 17.9187C13.1479 17.9552 13.1479 17.9918 13.1478 18.0295C13.147 18.6202 13.1456 19.2109 13.1439 19.8016C13.1421 20.4075 13.1411 21.0135 13.1407 21.6195C13.1405 21.9936 13.1397 22.3677 13.1382 22.7418C13.1372 22.9981 13.1369 23.2544 13.1371 23.5108C13.1372 23.6588 13.1371 23.8068 13.1361 23.9548C13.1352 24.0903 13.1351 24.2257 13.1357 24.3611C13.1359 24.4335 13.1351 24.5058 13.1342 24.5781C13.1281 24.8318 13.1281 24.8318 13.2457 25.0447C13.3394 25.1167 13.3394 25.1167 13.4507 25.1073C13.6249 25.0512 13.7861 24.9732 13.9511 24.8948C14.2972 24.7731 14.5124 24.8928 14.8308 25.0438C14.8769 25.0659 14.923 25.0883 14.969 25.1108C15.2708 25.2715 15.2708 25.2715 15.597 25.2614C15.6506 25.2362 15.7036 25.2094 15.7558 25.1814C15.8199 25.1531 15.8842 25.1252 15.9485 25.0974C16.0487 25.0524 16.1487 25.007 16.2483 24.9607C16.4413 24.8747 16.6191 24.7971 16.832 24.8474C17.0323 24.9243 17.2257 25.0164 17.4182 25.1108C17.72 25.2715 17.72 25.2715 18.0462 25.2614C18.0999 25.2362 18.1528 25.2094 18.2051 25.1814C18.2691 25.1531 18.3334 25.1252 18.3977 25.0974C18.4979 25.0524 18.5979 25.007 18.6975 24.9607C18.8905 24.8747 19.0683 24.7971 19.2812 24.8474C19.4815 24.9243 19.6749 25.0164 19.8675 25.1108C20.1692 25.2715 20.1692 25.2715 20.4954 25.2614C20.5491 25.2362 20.602 25.2094 20.6543 25.1814C20.7184 25.1531 20.7826 25.1252 20.8469 25.0974C20.9471 25.0524 21.0471 25.007 21.1468 24.9607C21.3769 24.8581 21.5593 24.7921 21.8096 24.873C21.8921 24.906 21.9724 24.9418 22.0528 24.9796C22.2514 25.0763 22.2514 25.0763 22.4664 25.1058C22.5686 25.0604 22.6004 25.0171 22.6582 24.9216C22.6747 24.8226 22.6747 24.8226 22.6719 24.7127C22.6721 24.6698 22.6723 24.627 22.6725 24.5829C22.6722 24.5358 22.6719 24.4887 22.6716 24.4403C22.6716 24.3898 22.6717 24.3393 22.6719 24.2888C22.6721 24.1499 22.6717 24.0111 22.6711 23.8722C22.6706 23.7225 22.6708 23.5728 22.6709 23.4231C22.6709 23.1637 22.6706 22.9043 22.6699 22.6449C22.669 22.2698 22.6688 21.8947 22.6686 21.5197C22.6684 20.9112 22.6676 20.3027 22.6666 19.6942C22.6656 19.103 22.6648 18.5119 22.6643 17.9207C22.6642 17.8655 22.6642 17.8655 22.6642 17.8092C22.664 17.5214 22.6638 17.2336 22.6635 16.9458C22.6625 15.5347 22.6603 14.1237 22.6582 12.7126C19.5232 12.7126 16.3882 12.7126 13.1582 12.7126ZM22.9551 12.7126C22.9551 13.2147 22.9551 13.7168 22.9551 14.2341C23.3567 14.2341 23.5806 14.2253 23.8651 13.959C24.0311 13.7807 24.0518 13.6063 24.0438 13.3712C24.0197 13.1763 23.9556 13.0395 23.8107 12.906C23.5099 12.6722 23.3996 12.7126 22.9551 12.7126Z" fill="white"/>
<path d="M16.1767 13.7468C16.2098 13.7466 16.2429 13.7463 16.2771 13.746C16.3133 13.7459 16.3496 13.7458 16.3869 13.7457C16.4443 13.7453 16.4443 13.7453 16.5029 13.745C16.6298 13.7442 16.7567 13.7438 16.8835 13.7434C16.9485 13.7432 16.9485 13.7432 17.0149 13.743C17.2443 13.7422 17.4737 13.7417 17.7031 13.7413C17.9399 13.7409 18.1767 13.7396 18.4135 13.7382C18.5957 13.7372 18.7779 13.7369 18.96 13.7368C19.0473 13.7366 19.1346 13.7361 19.2219 13.7355C19.3442 13.7345 19.4665 13.7346 19.5888 13.7348C19.6426 13.7341 19.6426 13.7341 19.6975 13.7334C19.9465 13.7353 20.1497 13.7812 20.3387 13.9518C20.4816 14.1104 20.5341 14.2621 20.5535 14.4713C20.5334 14.7039 20.4813 14.8706 20.303 15.0279C20.1595 15.1428 20.0406 15.2087 19.8543 15.2095C19.8208 15.2098 19.7873 15.2101 19.7528 15.2104C19.6981 15.2104 19.6981 15.2104 19.6423 15.2103C19.6037 15.2106 19.565 15.2108 19.5252 15.2111C19.3973 15.2118 19.2694 15.2119 19.1416 15.212C19.0526 15.2122 18.9637 15.2125 18.8748 15.2128C18.6882 15.2132 18.5017 15.2133 18.3151 15.2133C18.0764 15.2133 17.8376 15.2143 17.5989 15.2156C17.4151 15.2164 17.2314 15.2166 17.0476 15.2165C16.9596 15.2166 16.8716 15.2169 16.7836 15.2175C16.6603 15.2182 16.5371 15.218 16.4138 15.2176C16.3776 15.218 16.3414 15.2184 16.3041 15.2188C16.0781 15.2168 15.9061 15.1806 15.7176 15.0511C15.5093 14.8318 15.4759 14.6533 15.4809 14.356C15.5013 14.1802 15.5596 14.0656 15.6805 13.9378C15.8431 13.811 15.9712 13.7479 16.1767 13.7468ZM15.8336 14.244C15.766 14.4092 15.766 14.5426 15.8336 14.7078C15.9355 14.8301 16.0459 14.8923 16.2059 14.913C16.3025 14.9174 16.3984 14.9181 16.4951 14.9177C16.5316 14.9179 16.5682 14.9182 16.6059 14.9184C16.7266 14.9191 16.8472 14.919 16.9678 14.9188C17.0518 14.9189 17.1358 14.9191 17.2198 14.9193C17.3957 14.9197 17.5717 14.9196 17.7476 14.9192C17.973 14.9188 18.1983 14.9195 18.4237 14.9206C18.5971 14.9213 18.7706 14.9213 18.944 14.9211C19.0271 14.9211 19.1102 14.9213 19.1933 14.9218C19.3095 14.9223 19.4256 14.9219 19.5418 14.9213C19.5932 14.9218 19.5932 14.9218 19.6456 14.9224C19.851 14.92 19.972 14.8935 20.1337 14.7542C20.2334 14.6046 20.2329 14.4847 20.2079 14.3089C20.1202 14.1562 20.04 14.0989 19.8739 14.0492C19.7533 14.0383 19.6333 14.0386 19.5123 14.039C19.4761 14.0388 19.4399 14.0386 19.4025 14.0384C19.2829 14.0379 19.1633 14.0379 19.0437 14.038C18.9605 14.0378 18.8772 14.0377 18.794 14.0375C18.6196 14.0372 18.4452 14.0372 18.2708 14.0374C18.0474 14.0377 17.824 14.037 17.6006 14.0362C17.4287 14.0356 17.2568 14.0356 17.0849 14.0357C17.0026 14.0357 16.9202 14.0355 16.8378 14.0351C16.7226 14.0347 16.6074 14.0349 16.4922 14.0353C16.4583 14.0351 16.4243 14.0348 16.3893 14.0345C16.1638 14.0363 15.9863 14.0608 15.8336 14.244Z" fill="white"/>
<path d="M16.8774 19.1184C16.918 19.118 16.9586 19.1177 17.0004 19.1174C17.0449 19.1176 17.0895 19.1179 17.1354 19.1181C17.2057 19.1178 17.2057 19.1178 17.2775 19.1175C17.4061 19.117 17.5348 19.1172 17.6634 19.1175C17.798 19.1178 17.9325 19.1176 18.0671 19.1174C18.2931 19.1172 18.5191 19.1174 18.7451 19.118C19.0064 19.1186 19.2678 19.1184 19.5291 19.1178C19.7534 19.1173 19.9777 19.1172 20.202 19.1175C20.336 19.1177 20.4701 19.1177 20.6041 19.1173C20.7534 19.1169 20.9028 19.1175 21.0521 19.1181C21.0967 19.1179 21.1412 19.1176 21.1871 19.1174C21.2277 19.1177 21.2683 19.118 21.3101 19.1184C21.3631 19.1184 21.3631 19.1184 21.4171 19.1185C21.5059 19.1325 21.5059 19.1325 21.574 19.1843C21.6172 19.2438 21.6172 19.2438 21.6125 19.3204C21.5801 19.3923 21.5801 19.3923 21.4688 19.4665C21.3812 19.4757 21.3812 19.4757 21.2758 19.4757C21.2358 19.4758 21.1959 19.476 21.1547 19.4761C21.1109 19.4759 21.067 19.4757 21.0218 19.4755C20.9757 19.4756 20.9295 19.4756 20.8819 19.4757C20.7553 19.4758 20.6286 19.4756 20.502 19.4752C20.3695 19.4749 20.237 19.475 20.1045 19.475C19.882 19.4749 19.6595 19.4746 19.437 19.4741C19.1797 19.4735 18.9224 19.4733 18.6651 19.4734C18.4177 19.4734 18.1703 19.4732 17.9228 19.4729C17.8175 19.4728 17.7121 19.4727 17.6068 19.4727C17.4598 19.4726 17.3127 19.4723 17.1657 19.4719C17.1218 19.4719 17.078 19.4719 17.0328 19.4719C16.9928 19.4718 16.9529 19.4716 16.9117 19.4714C16.8595 19.4713 16.8595 19.4713 16.8063 19.4712C16.7188 19.4665 16.7188 19.4665 16.6074 19.4294C16.5819 19.3436 16.5819 19.3436 16.5703 19.2438C16.6561 19.1212 16.7334 19.1185 16.8774 19.1184Z" fill="white"/>
<path d="M16.6445 16.2014C16.7302 16.1877 16.7302 16.1877 16.8394 16.188C16.8807 16.1878 16.9221 16.1877 16.9646 16.1875C17.0329 16.1881 17.0329 16.1881 17.1026 16.1887C17.1743 16.1887 17.1743 16.1887 17.2474 16.1887C17.3787 16.1886 17.5099 16.1893 17.6412 16.1901C17.7783 16.1908 17.9154 16.1908 18.0525 16.191C18.3122 16.1913 18.5719 16.1922 18.8316 16.1933C19.1272 16.1946 19.4228 16.1952 19.7184 16.1957C20.3266 16.1969 20.9348 16.1989 21.543 16.2014C21.5847 16.2872 21.5847 16.2872 21.6172 16.3869C21.5927 16.4236 21.5682 16.4604 21.543 16.4982C21.4573 16.5119 21.4573 16.5119 21.3481 16.5116C21.3068 16.5118 21.2654 16.5119 21.2229 16.5121C21.1546 16.5115 21.1546 16.5115 21.0849 16.5109C21.0371 16.5109 20.9893 16.5109 20.9401 16.5109C20.8088 16.5109 20.6776 16.5103 20.5463 16.5095C20.4092 16.5088 20.2721 16.5088 20.135 16.5086C19.8753 16.5083 19.6156 16.5074 19.3559 16.5062C19.0603 16.505 18.7647 16.5044 18.4691 16.5038C17.8609 16.5027 17.2527 16.5007 16.6445 16.4982C16.6028 16.4124 16.6028 16.4124 16.5703 16.3127C16.5948 16.2759 16.6193 16.2392 16.6445 16.2014Z" fill="white"/>
<path d="M16.8774 20.6027C16.918 20.6024 16.9586 20.6021 17.0004 20.6018C17.0449 20.602 17.0895 20.6022 17.1354 20.6025C17.2057 20.6022 17.2057 20.6022 17.2775 20.6019C17.4061 20.6014 17.5348 20.6016 17.6634 20.6019C17.798 20.6022 17.9325 20.6019 18.0671 20.6018C18.2931 20.6016 18.5191 20.6018 18.7451 20.6024C19.0064 20.603 19.2678 20.6028 19.5291 20.6021C19.7534 20.6016 19.9777 20.6016 20.202 20.6019C20.336 20.602 20.4701 20.6021 20.6041 20.6017C20.7534 20.6013 20.9028 20.6018 21.0521 20.6025C21.0967 20.6022 21.1412 20.602 21.1871 20.6018C21.2277 20.6021 21.2683 20.6024 21.3101 20.6027C21.3631 20.6028 21.3631 20.6028 21.4171 20.6029C21.5059 20.6169 21.5059 20.6169 21.5743 20.6685C21.6172 20.7282 21.6172 20.7282 21.6079 20.8071C21.5801 20.8766 21.5801 20.8766 21.543 20.9137C21.4796 20.9173 21.416 20.9183 21.3525 20.9182C21.3113 20.9183 21.27 20.9183 21.2275 20.9184C21.1818 20.9182 21.1361 20.9181 21.0891 20.918C21.0413 20.918 20.9935 20.918 20.9443 20.918C20.8129 20.918 20.6815 20.9178 20.5501 20.9175C20.4129 20.9173 20.2757 20.9173 20.1385 20.9172C19.8785 20.9171 19.6186 20.9168 19.3586 20.9164C19.0627 20.916 18.7669 20.9158 18.471 20.9156C17.8622 20.9152 17.2533 20.9146 16.6445 20.9137C16.62 20.8525 16.5955 20.7913 16.5703 20.7282C16.664 20.61 16.7297 20.6029 16.8774 20.6027Z" fill="white"/>
<path d="M16.6445 17.6855C18.261 17.6855 19.8775 17.6855 21.543 17.6855C21.5797 17.7774 21.5797 17.7774 21.6172 17.8711C21.5532 17.9518 21.5205 17.9801 21.4171 17.9964C21.3818 17.9965 21.3465 17.9965 21.3101 17.9966C21.2695 17.9969 21.2289 17.9972 21.1871 17.9975C21.1203 17.9972 21.1203 17.9972 21.0521 17.9968C20.9818 17.9971 20.9818 17.9971 20.91 17.9974C20.7814 17.9979 20.6527 17.9977 20.5241 17.9974C20.3895 17.9971 20.255 17.9974 20.1204 17.9975C19.8944 17.9977 19.6684 17.9975 19.4424 17.9969C19.1811 17.9963 18.9197 17.9965 18.6584 17.9971C18.4341 17.9976 18.2098 17.9977 17.9855 17.9974C17.8515 17.9973 17.7174 17.9972 17.5834 17.9976C17.4341 17.998 17.2847 17.9974 17.1354 17.9968C17.0908 17.9971 17.0463 17.9973 17.0004 17.9975C16.9598 17.9972 16.9192 17.9969 16.8774 17.9966C16.8421 17.9965 16.8068 17.9965 16.7704 17.9964C16.667 17.9801 16.6343 17.9518 16.5703 17.8711C16.5948 17.8099 16.6193 17.7486 16.6445 17.6855Z" fill="white"/>
<path d="M18.3164 22.8069C18.4207 22.7963 18.5168 22.7928 18.6212 22.7942C18.6527 22.7942 18.6842 22.7942 18.7167 22.7942C18.8211 22.7943 18.9255 22.7951 19.0299 22.796C19.1022 22.7962 19.1744 22.7964 19.2467 22.7965C19.4372 22.7969 19.6277 22.798 19.8181 22.7992C20.0124 22.8004 20.2066 22.8009 20.4009 22.8014C20.7823 22.8026 21.1636 22.8045 21.5449 22.8069C21.5867 22.8927 21.5867 22.8927 21.6191 22.9924C21.5946 23.0292 21.5702 23.0659 21.5449 23.1038C21.4406 23.1144 21.3445 23.1178 21.2401 23.1164C21.2086 23.1164 21.1771 23.1164 21.1447 23.1164C21.0403 23.1164 20.9359 23.1155 20.8314 23.1146C20.7592 23.1144 20.6869 23.1143 20.6146 23.1142C20.4241 23.1137 20.2337 23.1126 20.0432 23.1114C19.8489 23.1103 19.6547 23.1098 19.4604 23.1092C19.0791 23.108 18.6977 23.1061 18.3164 23.1038C18.2747 23.0179 18.2747 23.0179 18.2422 22.9182C18.2667 22.8815 18.2912 22.8447 18.3164 22.8069Z" fill="white"/>
<path d="M14.5652 19.1177C14.5904 19.1176 14.6155 19.1175 14.6413 19.1174C14.6944 19.1173 14.7474 19.1175 14.8004 19.118C14.8816 19.1186 14.9626 19.118 15.0438 19.1173C15.0953 19.1173 15.1469 19.1175 15.1984 19.1177C15.2453 19.1178 15.2922 19.118 15.3406 19.1181C15.457 19.1325 15.457 19.1325 15.5296 19.1828C15.5684 19.2438 15.5684 19.2438 15.5568 19.3436C15.5483 19.3719 15.5399 19.4002 15.5312 19.4294C15.4058 19.4712 15.3097 19.4713 15.1776 19.4714C15.1299 19.4715 15.0822 19.4715 15.033 19.4715C15.0082 19.4715 14.9834 19.4714 14.9578 19.4713C14.8821 19.4711 14.8064 19.4713 14.7306 19.4715C14.683 19.4715 14.6353 19.4715 14.5861 19.4714C14.5423 19.4714 14.4985 19.4713 14.4534 19.4713C14.3438 19.4665 14.3438 19.4665 14.2324 19.4294C14.2069 19.3436 14.2069 19.3436 14.1953 19.2438C14.2867 19.1001 14.4069 19.1181 14.5652 19.1177Z" fill="white"/>
<path d="M14.5384 20.6095C14.5789 20.6092 14.5789 20.6092 14.6201 20.6089C14.6772 20.6086 14.7343 20.6083 14.7915 20.6082C14.879 20.6078 14.9666 20.6067 15.0541 20.6055C15.1095 20.6052 15.1649 20.605 15.2203 20.6049C15.2466 20.6044 15.2729 20.604 15.3 20.6035C15.3739 20.6039 15.3739 20.6039 15.4941 20.6171C15.5684 20.7284 15.5684 20.7284 15.5568 20.8073C15.5313 20.8768 15.5313 20.8768 15.4941 20.914C15.4042 20.9182 15.3153 20.92 15.2252 20.9202C15.1983 20.9203 15.1713 20.9204 15.1436 20.9206C15.0864 20.9208 15.0293 20.9208 14.9722 20.9208C14.8846 20.9209 14.7971 20.9216 14.7096 20.9223C14.6542 20.9224 14.5988 20.9225 14.5434 20.9225C14.5039 20.9229 14.5039 20.9229 14.4637 20.9233C14.278 20.9224 14.278 20.9224 14.1953 20.8397C14.2259 20.5889 14.3103 20.6109 14.5384 20.6095Z" fill="white"/>
<path d="M14.2349 17.6855C14.6635 17.6855 15.0921 17.6855 15.5337 17.6855C15.5708 17.8711 15.5708 17.8711 15.5336 17.9374C15.4227 18.0047 15.3298 17.9969 15.2009 17.9972C15.1757 17.9973 15.1506 17.9974 15.1248 17.9975C15.0717 17.9976 15.0187 17.9974 14.9657 17.9969C14.8845 17.9963 14.8035 17.9969 14.7223 17.9976C14.6708 17.9976 14.6192 17.9974 14.5677 17.9972C14.5208 17.9971 14.4739 17.997 14.4255 17.9968C14.3091 17.9824 14.3091 17.9824 14.2349 17.9374C14.1977 17.8711 14.1977 17.8711 14.2349 17.6855Z" fill="white"/>
<path d="M14.388 16.1973C14.4396 16.1973 14.4913 16.1975 14.5429 16.1979C14.57 16.1979 14.5972 16.198 14.6251 16.198C14.7121 16.1982 14.799 16.1987 14.886 16.1992C14.9448 16.1993 15.0037 16.1995 15.0625 16.1997C15.207 16.2001 15.3515 16.2007 15.496 16.2015C15.5377 16.2873 15.5377 16.2873 15.5702 16.387C15.5457 16.4238 15.5212 16.4605 15.496 16.4984C15.4021 16.5097 15.3174 16.5139 15.2235 16.5131C15.1966 16.5132 15.1697 16.5134 15.142 16.5135C15.0851 16.5135 15.0282 16.5133 14.9713 16.5129C14.884 16.5123 14.7968 16.5129 14.7096 16.5136C14.6544 16.5135 14.5991 16.5134 14.5439 16.5131C14.5047 16.5135 14.5047 16.5135 14.4646 16.5138C14.3911 16.5128 14.3911 16.5128 14.2714 16.4984C14.1972 16.387 14.1972 16.387 14.2088 16.3082C14.251 16.1929 14.2567 16.202 14.388 16.1973Z" fill="white"/>
</svg>
