<svg width="35" height="35" viewBox="0 0 35 35" fill="none" xmlns="http://www.w3.org/2000/svg">
<rect width="35" height="35" rx="3" fill="#333333"/>
<path d="M20.874 9.05693C19.5162 9.63701 18.3389 10.1655 18.2572 10.23C18.1756 10.2944 18.0853 10.4147 18.0553 10.4964C17.9865 10.6812 17.9736 13.8437 18.0381 14.5526C18.1713 16.0394 18.5494 17.221 19.224 18.2608C19.9717 19.4038 21.1318 20.4479 22.7518 21.419C23.4908 21.8616 23.4994 21.8616 24.2385 21.419C26.765 19.8979 28.1486 18.2608 28.6943 16.1339C28.9393 15.1628 28.9951 14.4796 28.9908 12.3612C28.9865 10.4706 28.9822 10.4233 28.733 10.23C28.5182 10.0667 23.667 7.9999 23.4865 7.9999C23.3963 7.9999 22.4424 8.38662 20.874 9.05693ZM25.5877 10.3288L27.6201 11.2011V12.619C27.6201 13.3968 27.5986 14.2476 27.5771 14.5097C27.358 16.8687 26.3869 18.3683 24.101 19.8808C23.7959 20.0827 23.5252 20.246 23.4994 20.246C23.4736 20.246 23.2545 20.1214 23.0182 19.9667C21.5486 19.0128 20.5518 17.9944 20.0361 16.9159C19.7096 16.237 19.499 15.4206 19.4131 14.5097C19.3916 14.2476 19.3701 13.3968 19.3701 12.619V11.2011L21.3811 10.3331C22.4853 9.86045 23.4264 9.46943 23.4736 9.46514C23.5209 9.46084 24.4748 9.85186 25.5877 10.3288Z" fill="white"/>
<path d="M25.2641 12.198C25.1652 12.2453 24.7656 12.7137 24.0051 13.659C23.3949 14.4238 22.8793 15.0469 22.8621 15.0469C22.8449 15.0469 22.6387 14.7547 22.4023 14.398C21.891 13.6246 21.7793 13.5215 21.4313 13.5215C21.0188 13.5215 20.7695 13.7707 20.7695 14.1875V14.4367L21.543 15.5883C22.368 16.8215 22.4754 16.9332 22.802 16.9375C23.1242 16.9375 23.1844 16.8773 24.7098 14.9695C25.5133 13.9684 26.1836 13.1004 26.2094 13.0445C26.4156 12.4945 25.7883 11.9316 25.2641 12.198Z" fill="white"/>
<path d="M7.95506 12.2066C7.64569 12.3098 7.40936 12.4859 7.25467 12.7223C6.97967 13.1348 6.99256 12.7266 7.00546 19.7777L7.01835 26.1973L7.13006 26.4379C7.27186 26.743 7.50389 26.975 7.80897 27.1168L8.0496 27.2285H17.9969H27.9441L28.1847 27.1168C28.4898 26.975 28.7219 26.743 28.8637 26.4379L28.9754 26.1973V23.5031C28.9754 20.852 28.9754 20.809 28.8851 20.693C28.7176 20.4652 28.5801 20.3965 28.3094 20.3965C28.0387 20.3965 27.9012 20.4652 27.7336 20.693C27.6433 20.809 27.6433 20.8605 27.6305 23.3441L27.6219 25.875H17.9969H8.37186V21.75V17.625L12.2734 17.6164L16.1793 17.6035L16.3383 17.4789C16.725 17.1867 16.7078 16.6625 16.3039 16.3617C16.1879 16.2715 16.1492 16.2715 12.2777 16.2586L8.37186 16.25V14.875V13.5L12.2734 13.4914L16.1793 13.4785L16.3383 13.3539C16.725 13.0617 16.7078 12.5375 16.3039 12.2367C16.1879 12.1465 16.1492 12.1465 12.1832 12.1379C8.41913 12.1293 8.16561 12.1336 7.95506 12.2066Z" fill="white"/>
<path d="M10.1549 20.4354C9.86266 20.5643 9.70368 20.8909 9.76813 21.2217C9.80681 21.4237 10.0732 21.6944 10.2709 21.7288C10.3482 21.7417 11.0916 21.7503 11.9209 21.7417L13.4291 21.7288L13.5881 21.6042C13.9748 21.312 13.9576 20.7878 13.5537 20.487C13.442 20.401 13.3775 20.3967 11.8607 20.3881C10.6146 20.3795 10.258 20.3881 10.1549 20.4354Z" fill="white"/>
</svg>
