<svg width="35" height="35" viewBox="0 0 35 35" fill="none" xmlns="http://www.w3.org/2000/svg">
<rect width="35" height="35" rx="3" fill="#FDAB3D"/>
<path d="M20.8779 9.43193C19.5201 10.012 18.3428 10.5405 18.2611 10.605C18.1795 10.6694 18.0893 10.7897 18.0592 10.8714C17.9904 11.0562 17.9775 14.2187 18.042 14.9276C18.1752 16.4144 18.5533 17.596 19.2279 18.6358C19.9756 19.7788 21.1357 20.8229 22.7557 21.794C23.4947 22.2366 23.5033 22.2366 24.2424 21.794C26.7689 20.2729 28.1525 18.6358 28.6982 16.5089C28.9432 15.5378 28.999 14.8546 28.9947 12.7362C28.9904 10.8456 28.9861 10.7983 28.7369 10.605C28.5221 10.4417 23.6709 8.3749 23.4904 8.3749C23.4002 8.3749 22.4463 8.76162 20.8779 9.43193ZM25.5916 10.7038L27.624 11.5761V12.994C27.624 13.7718 27.6025 14.6226 27.5811 14.8847C27.3619 17.2437 26.3908 18.7433 24.1049 20.2558C23.7998 20.4577 23.5291 20.621 23.5033 20.621C23.4775 20.621 23.2584 20.4964 23.0221 20.3417C21.5525 19.3878 20.5557 18.3694 20.04 17.2909C19.7135 16.612 19.5029 15.7956 19.417 14.8847C19.3955 14.6226 19.374 13.7718 19.374 12.994V11.5761L21.385 10.7081C22.4893 10.2354 23.4303 9.84443 23.4775 9.84014C23.5248 9.83584 24.4787 10.2269 25.5916 10.7038Z" fill="white"/>
<path d="M25.268 12.573C25.1691 12.6203 24.7695 13.0887 24.009 14.034C23.3988 14.7988 22.8832 15.4219 22.866 15.4219C22.8488 15.4219 22.6426 15.1297 22.4062 14.773C21.8949 13.9996 21.7832 13.8965 21.4352 13.8965C21.0227 13.8965 20.7734 14.1457 20.7734 14.5625V14.8117L21.5469 15.9633C22.3719 17.1965 22.4793 17.3082 22.8059 17.3125C23.1281 17.3125 23.1883 17.2523 24.7137 15.3445C25.5172 14.3434 26.1875 13.4754 26.2133 13.4195C26.4195 12.8695 25.7922 12.3066 25.268 12.573Z" fill="white"/>
<path d="M7.95897 12.5816C7.6496 12.6848 7.41327 12.8609 7.25858 13.0973C6.98358 13.5098 6.99647 13.1016 7.00936 20.1527L7.02225 26.5723L7.13397 26.8129C7.27577 27.118 7.5078 27.35 7.81288 27.4918L8.0535 27.6035H18.0008H27.948L28.1887 27.4918C28.4937 27.35 28.7258 27.118 28.8676 26.8129L28.9793 26.5723V23.8781C28.9793 21.227 28.9793 21.184 28.889 21.068C28.7215 20.8402 28.584 20.7715 28.3133 20.7715C28.0426 20.7715 27.9051 20.8402 27.7375 21.068C27.6472 21.184 27.6472 21.2355 27.6344 23.7191L27.6258 26.25H18.0008H8.37577V22.125V18L12.2773 17.9914L16.1832 17.9785L16.3422 17.8539C16.7289 17.5617 16.7117 17.0375 16.3078 16.7367C16.1918 16.6465 16.1531 16.6465 12.2816 16.6336L8.37577 16.625V15.25V13.875L12.2773 13.8664L16.1832 13.8535L16.3422 13.7289C16.7289 13.4367 16.7117 12.9125 16.3078 12.6117C16.1918 12.5215 16.1531 12.5215 12.1871 12.5129C8.42303 12.5043 8.16952 12.5086 7.95897 12.5816Z" fill="white"/>
<path d="M10.1588 20.8104C9.86657 20.9393 9.70759 21.2659 9.77204 21.5967C9.81071 21.7987 10.0771 22.0694 10.2748 22.1038C10.3521 22.1167 11.0955 22.1253 11.9248 22.1167L13.433 22.1038L13.592 21.9792C13.9787 21.687 13.9615 21.1628 13.5576 20.862C13.4459 20.776 13.3814 20.7717 11.8646 20.7631C10.6185 20.7545 10.2619 20.7631 10.1588 20.8104Z" fill="white"/>
</svg>
