<svg width="35" height="35" viewBox="0 0 35 35" fill="none" xmlns="http://www.w3.org/2000/svg">
<rect width="35" height="35" rx="3" fill="#FDAB3D"/>
<g clip-path="url(#clip0_3522_151057)">
<path d="M12.297 8.39071C12.7921 8.77605 13.1664 9.28343 13.2736 9.91415C13.3453 10.7295 13.1659 11.3833 12.6486 12.0235C12.6727 12.0444 12.6968 12.0652 12.7217 12.0867C13.0573 12.382 13.3534 12.6657 13.5592 13.066C13.5714 13.0894 13.5837 13.1127 13.5963 13.1368C13.8239 13.6067 13.8827 14.0828 13.8748 14.5978C13.8745 14.6548 13.8742 14.7118 13.8741 14.7687C13.8735 14.9165 13.872 15.0642 13.8702 15.212C13.8683 15.3904 13.8676 15.5689 13.8667 15.7473C13.8652 16.0165 13.8622 16.2856 13.8595 16.5548C14.2591 16.5548 14.6587 16.5548 15.0704 16.5548C15.0686 16.3755 15.0668 16.1962 15.0649 16.0114C15.0641 15.8966 15.0634 15.7818 15.0628 15.6669C15.0619 15.4854 15.0608 15.3039 15.0586 15.1223C15.0569 14.9757 15.056 14.8291 15.0556 14.6824C15.0553 14.6269 15.0548 14.5715 15.0539 14.5161C15.0464 14.0082 15.1301 13.5265 15.3658 13.0709C15.3789 13.0452 15.392 13.0195 15.4055 12.993C15.6149 12.6033 15.9411 12.3004 16.2814 12.0235C16.2491 11.9848 16.2169 11.9462 16.1837 11.9063C16.0635 11.746 15.9711 11.5768 15.881 11.3985C15.8677 11.3726 15.8543 11.3467 15.8406 11.3199C15.5915 10.8158 15.5646 10.1717 15.7199 9.63339C15.9614 8.98704 16.3801 8.48299 17.0065 8.18319C17.5567 7.93246 18.2577 7.89434 18.8278 8.10735C19.4796 8.39797 19.9203 8.82244 20.2165 9.4724C20.4152 9.99352 20.4316 10.6464 20.2371 11.1712C20.0978 11.4816 19.9328 11.7588 19.7189 12.0235C19.743 12.0444 19.7671 12.0652 19.792 12.0867C20.1276 12.382 20.4237 12.6657 20.6295 13.066C20.6479 13.1011 20.6479 13.1011 20.6666 13.1368C20.8942 13.6067 20.953 14.0828 20.9451 14.5978C20.9448 14.6548 20.9446 14.7118 20.9444 14.7687C20.9438 14.9165 20.9423 15.0642 20.9405 15.212C20.9386 15.3904 20.9379 15.5689 20.937 15.7473C20.9355 16.0165 20.9325 16.2856 20.9298 16.5548C21.3294 16.5548 21.729 16.5548 22.1407 16.5548C22.1389 16.3755 22.1371 16.1962 22.1353 16.0114C22.1345 15.8966 22.1337 15.7818 22.1331 15.6669C22.1322 15.4854 22.1311 15.3039 22.129 15.1223C22.1272 14.9757 22.1263 14.8291 22.1259 14.6824C22.1256 14.6269 22.1251 14.5715 22.1242 14.5161C22.1167 14.0082 22.2004 13.5265 22.4362 13.0709C22.4558 13.0323 22.4558 13.0323 22.4758 12.993C22.6852 12.6033 23.0114 12.3004 23.3517 12.0235C23.3033 11.9655 23.3033 11.9655 23.254 11.9063C23.1338 11.746 23.0414 11.5768 22.9513 11.3985C22.938 11.3726 22.9247 11.3467 22.9109 11.3199C22.6618 10.8158 22.6349 10.1717 22.7902 9.63339C23.0317 8.98704 23.4505 8.48299 24.0768 8.18319C24.627 7.93246 25.328 7.89434 25.8981 8.10735C26.5499 8.39797 26.9906 8.82244 27.2868 9.4724C27.4855 9.99352 27.5019 10.6464 27.3074 11.1712C27.1681 11.4816 27.0031 11.7588 26.7892 12.0235C26.8133 12.0444 26.8374 12.0652 26.8623 12.0867C27.1979 12.382 27.494 12.6657 27.6998 13.066C27.7182 13.1011 27.7182 13.1011 27.7369 13.1368C27.9612 13.5999 28.0234 14.071 28.0189 14.5795C28.019 14.6377 28.0191 14.6959 28.0193 14.7541C28.0197 14.9126 28.019 15.0711 28.0183 15.2296C28.0176 15.4037 28.0178 15.5778 28.0179 15.7519C28.018 16.0892 28.0173 16.4264 28.0163 16.7637C28.0152 17.1541 28.015 17.5446 28.0149 17.9351C28.0141 18.9651 28.0119 19.995 28.0099 21.025C28.0067 23.3268 28.0034 25.6286 28.0001 28.0001C21.4001 28.0001 14.8001 28.0001 8.00012 28.0001C7.9969 25.6983 7.99368 23.3965 7.99036 21.025C7.98894 20.2982 7.98751 19.5714 7.98605 18.8226C7.98534 17.9351 7.98534 17.9351 7.98521 17.5196C7.98507 17.2294 7.98449 16.9392 7.98363 16.6491C7.98263 16.3142 7.98218 15.9792 7.9824 15.6443C7.98249 15.4731 7.98235 15.3019 7.9815 15.1307C7.98073 14.9756 7.9807 14.8204 7.98123 14.6653C7.9813 14.6095 7.98111 14.5537 7.98061 14.498C7.97644 13.9976 8.0635 13.5192 8.29553 13.0709C8.31517 13.0323 8.31517 13.0323 8.33521 12.993C8.54456 12.6033 8.8708 12.3004 9.21106 12.0235C9.17884 11.9848 9.14661 11.9462 9.11341 11.9063C8.99315 11.746 8.90082 11.5768 8.81067 11.3985C8.79069 11.3596 8.79069 11.3596 8.77031 11.3199C8.52122 10.8158 8.49425 10.1717 8.64954 9.63339C8.89108 8.98704 9.30983 8.48299 9.93616 8.18319C10.6984 7.83585 11.6044 7.92764 12.297 8.39071ZM9.99231 9.64071C9.79355 9.95322 9.76867 10.2514 9.797 10.6173C9.8681 10.8956 10.0367 11.1425 10.2767 11.3012C10.6028 11.4864 10.9361 11.5449 11.3078 11.4499C11.6579 11.3042 11.8664 11.0754 12.0236 10.7345C12.1117 10.4701 12.1066 10.1357 11.9991 9.87753C11.8471 9.58954 11.6372 9.36733 11.3297 9.24688C10.812 9.10011 10.3451 9.24481 9.99231 9.64071ZM17.0626 9.64071C16.8639 9.95322 16.839 10.2514 16.8673 10.6173C16.9384 10.8956 17.107 11.1425 17.347 11.3012C17.6731 11.4864 18.0064 11.5449 18.3781 11.4499C18.7282 11.3042 18.9367 11.0754 19.0939 10.7345C19.182 10.4701 19.1769 10.1357 19.0695 9.87753C18.9174 9.58954 18.7075 9.36733 18.4001 9.24688C17.8823 9.10011 17.4154 9.24481 17.0626 9.64071ZM24.1329 9.64071C23.9342 9.95322 23.9093 10.2514 23.9376 10.6173C24.0087 10.8956 24.1774 11.1425 24.4174 11.3012C24.7434 11.4864 25.0768 11.5449 25.4484 11.4499C25.7985 11.3042 26.007 11.0754 26.1642 10.7345C26.2523 10.4701 26.2472 10.1357 26.1398 9.87753C25.9878 9.58954 25.7778 9.36733 25.4704 9.24688C24.9526 9.10011 24.4857 9.24481 24.1329 9.64071ZM9.52402 13.4026C9.18214 13.8607 9.15923 14.4038 9.16437 14.9564C9.16445 14.9974 9.16453 15.0383 9.16461 15.0805C9.16501 15.231 9.1661 15.3814 9.16712 15.5318C9.16873 15.8694 9.17034 16.207 9.172 16.5548C10.3322 16.5548 11.4923 16.5548 12.6876 16.5548C12.6892 16.2172 12.6908 15.8796 12.6925 15.5318C12.6932 15.4263 12.6939 15.3208 12.6947 15.2121C12.6949 15.1269 12.6951 15.0416 12.6953 14.9564C12.6957 14.9135 12.6961 14.8705 12.6965 14.8263C12.6966 14.1725 12.5806 13.6472 12.1182 13.1638C11.9692 13.029 11.8132 12.9314 11.6329 12.8438C11.6072 12.8306 11.5814 12.8173 11.5548 12.8037C10.8193 12.492 10.0114 12.8327 9.52402 13.4026ZM16.5943 13.4026C16.2525 13.8607 16.2295 14.4038 16.2347 14.9564C16.2348 14.9974 16.2348 15.0383 16.2349 15.0805C16.2353 15.231 16.2364 15.3814 16.2374 15.5318C16.239 15.8694 16.2407 16.207 16.2423 16.5548C17.4025 16.5548 18.5626 16.5548 19.7579 16.5548C19.7595 16.2172 19.7612 15.8796 19.7628 15.5318C19.7635 15.4263 19.7642 15.3208 19.765 15.2121C19.7652 15.1269 19.7654 15.0416 19.7656 14.9564C19.766 14.9135 19.7664 14.8705 19.7668 14.8263C19.7669 14.1725 19.6509 13.6472 19.1885 13.1638C19.0395 13.029 18.8835 12.9314 18.7032 12.8438C18.6775 12.8306 18.6517 12.8173 18.6251 12.8037C17.8896 12.492 17.0817 12.8327 16.5943 13.4026ZM23.6646 13.4026C23.3228 13.8607 23.2999 14.4038 23.305 14.9564C23.3051 14.9974 23.3052 15.0383 23.3052 15.0805C23.3056 15.231 23.3067 15.3814 23.3077 15.5318C23.3094 15.8694 23.311 16.207 23.3126 16.5548C24.4728 16.5548 25.6329 16.5548 26.8282 16.5548C26.8299 16.2172 26.8315 15.8796 26.8331 15.5318C26.8338 15.4263 26.8346 15.3208 26.8353 15.2121C26.8355 15.1269 26.8357 15.0416 26.8359 14.9564C26.8363 14.9135 26.8367 14.8705 26.8371 14.8263C26.8372 14.1725 26.7212 13.6472 26.2588 13.1638C26.1098 13.029 25.9538 12.9314 25.7736 12.8438C25.7478 12.8306 25.722 12.8173 25.6954 12.8037C24.96 12.492 24.152 12.8327 23.6646 13.4026ZM9.172 17.7266C9.172 18.1134 9.172 18.5001 9.172 18.8985C14.9986 18.8985 20.8251 18.8985 26.8282 18.8985C26.8282 18.5118 26.8282 18.1251 26.8282 17.7266C21.0017 17.7266 15.1751 17.7266 9.172 17.7266ZM9.172 20.0704C9.172 22.3005 9.172 24.5306 9.172 26.8282C14.9986 26.8282 20.8251 26.8282 26.8282 26.8282C26.8282 24.5981 26.8282 22.3681 26.8282 20.0704C21.0017 20.0704 15.1751 20.0704 9.172 20.0704Z" fill="white"/>
<path d="M10.3438 21.2422C12.677 21.2422 15.0102 21.2422 17.4141 21.2422C17.4141 22.6988 17.4141 24.1555 17.4141 25.6562C15.0809 25.6562 12.7477 25.6562 10.3438 25.6562C10.3438 24.1996 10.3438 22.743 10.3438 21.2422ZM11.5156 22.4141C11.5156 23.0973 11.5156 23.7805 11.5156 24.4844C13.0754 24.4844 14.6352 24.4844 16.2422 24.4844C16.2422 23.8012 16.2422 23.118 16.2422 22.4141C14.6824 22.4141 13.1227 22.4141 11.5156 22.4141Z" fill="white"/>
<path d="M18.5859 24.4844C20.9191 24.4844 23.2523 24.4844 25.6562 24.4844C25.6562 24.8711 25.6562 25.2578 25.6562 25.6562C23.323 25.6562 20.9898 25.6562 18.5859 25.6562C18.5859 25.2695 18.5859 24.8828 18.5859 24.4844Z" fill="white"/>
<path d="M20.9297 22.1406C22.4895 22.1406 24.0492 22.1406 25.6562 22.1406C25.6562 22.5273 25.6562 22.9141 25.6562 23.3125C24.0965 23.3125 22.5367 23.3125 20.9297 23.3125C20.9297 22.9258 20.9297 22.5391 20.9297 22.1406Z" fill="white"/>
</g>
<defs>
<clipPath id="clip0_3522_151057">
<rect width="20" height="20" fill="white" transform="translate(8 8)"/>
</clipPath>
</defs>
</svg>
