<svg width="35" height="35" viewBox="0 0 35 35" fill="none" xmlns="http://www.w3.org/2000/svg">
<rect width="35" height="35" rx="3" fill="#4FAB52"/>
<g clip-path="url(#clip0_3521_150996)">
<path d="M10.9658 9.46305C11.0129 9.46296 11.0599 9.46287 11.1083 9.46278C11.2383 9.46258 11.3683 9.46255 11.4983 9.4626C11.6388 9.4626 11.7792 9.46239 11.9196 9.4622C12.1945 9.46188 12.4694 9.46177 12.7443 9.46175C12.9678 9.46173 13.1913 9.46165 13.4148 9.46153C14.0489 9.46118 14.683 9.461 15.3171 9.46103C15.3513 9.46103 15.3854 9.46103 15.4206 9.46104C15.4719 9.46104 15.4719 9.46104 15.5243 9.46104C16.0786 9.46106 16.6329 9.46068 17.1872 9.46013C17.7567 9.45957 18.3262 9.4593 18.8957 9.45934C19.2153 9.45935 19.5349 9.45924 19.8545 9.45882C20.1266 9.45846 20.3987 9.45838 20.6708 9.45864C20.8096 9.45877 20.9483 9.45878 21.087 9.45844C21.2377 9.45807 21.3883 9.45832 21.5389 9.45862C21.5824 9.45842 21.626 9.45821 21.6708 9.45801C22.2198 9.46043 22.6846 9.58004 23.0933 9.96632C23.4351 10.3317 23.5579 10.7424 23.5544 11.2339C23.5545 11.2862 23.5545 11.2862 23.5546 11.3396C23.5547 11.4558 23.5543 11.5719 23.5539 11.6881C23.5538 11.7717 23.5538 11.8552 23.5539 11.9388C23.5539 12.1652 23.5534 12.3915 23.5529 12.6179C23.5524 12.8546 23.5524 13.0914 23.5523 13.3281C23.552 13.7762 23.5514 14.2243 23.5506 14.6723C23.5497 15.1826 23.5493 15.6928 23.5489 16.203C23.5481 17.2524 23.5467 18.3017 23.545 19.3511C23.5807 19.3683 23.5807 19.3683 23.6171 19.3858C24.4314 19.8061 24.9916 20.7823 25.2699 21.626C25.4373 22.1566 25.5048 22.6722 25.5025 23.2278C25.5025 23.2652 25.5026 23.3026 25.5026 23.3412C25.5025 23.4631 25.5022 23.5851 25.5019 23.707C25.5018 23.7922 25.5018 23.8774 25.5018 23.9627C25.5016 24.1857 25.5012 24.4087 25.5008 24.6317C25.5004 24.8598 25.5002 25.0879 25.5 25.316C25.4996 25.7626 25.4989 26.2092 25.4981 26.6558C25.5312 26.6552 25.5643 26.6545 25.5984 26.6539C25.722 26.6519 25.8456 26.6504 25.9692 26.6493C26.0226 26.6488 26.0759 26.648 26.1293 26.6469C26.2062 26.6455 26.2832 26.6449 26.3602 26.6443C26.4065 26.6437 26.4527 26.6431 26.5003 26.6425C26.6994 26.6628 26.8244 26.7278 26.9581 26.8755C27.0393 27.0442 27.0539 27.1749 27.0215 27.3589C26.927 27.5552 26.8319 27.6327 26.6309 27.7105C26.4954 27.7262 26.3612 27.7244 26.225 27.7224C26.1846 27.7223 26.1442 27.7222 26.1027 27.7221C26.0153 27.7218 25.9278 27.7213 25.8404 27.7205C25.702 27.7195 25.5636 27.7193 25.4252 27.7193C25.0317 27.7195 24.6382 27.7186 24.2447 27.7157C24.0038 27.714 23.763 27.7138 23.5221 27.7146C23.4304 27.7146 23.3387 27.714 23.247 27.7128C23.1187 27.7112 22.9906 27.7116 22.8622 27.7123C22.8245 27.7114 22.7868 27.7104 22.7479 27.7095C22.5914 27.7121 22.4913 27.7161 22.3685 27.8186C22.2999 27.897 22.239 27.9778 22.1778 28.062C21.8087 28.3893 21.3258 28.5473 20.8346 28.539C20.3067 28.4964 19.851 28.2864 19.4825 27.9058C19.4698 27.879 19.4572 27.8523 19.4442 27.8247C19.3116 27.6983 19.1522 27.7283 18.9762 27.7301C18.9163 27.7297 18.9163 27.7297 18.8551 27.7294C18.7682 27.729 18.6813 27.729 18.5944 27.7294C18.4568 27.7298 18.3193 27.7294 18.1817 27.7287C17.939 27.7277 17.6964 27.7275 17.4538 27.7275C17.0659 27.7276 16.6781 27.7271 16.2902 27.7253C16.1548 27.725 16.0194 27.7253 15.8839 27.7257C15.8006 27.7254 15.7173 27.7252 15.6339 27.7249C15.5964 27.7252 15.5588 27.7255 15.5202 27.7258C15.2856 27.724 15.0646 27.7081 14.8904 27.5316C14.8024 27.3644 14.7675 27.2391 14.795 27.0464C14.8527 26.8896 14.909 26.7982 15.0545 26.7112C15.2025 26.6486 15.3048 26.6423 15.4648 26.6443C15.4905 26.6445 15.5162 26.6447 15.5427 26.6448C15.6239 26.6455 15.705 26.647 15.7862 26.6485C15.8416 26.649 15.897 26.6496 15.9524 26.6501C16.0874 26.6512 16.2224 26.6535 16.3575 26.6558C16.3575 26.3851 16.3575 26.1144 16.3575 25.8355C16.2849 25.8356 16.2124 25.8358 16.1377 25.836C15.4537 25.8376 14.7698 25.8387 14.0858 25.8395C13.7342 25.8399 13.3826 25.8405 13.031 25.8414C12.7244 25.8421 12.4178 25.8426 12.1112 25.8428C11.949 25.8429 11.7868 25.8432 11.6245 25.8437C11.4716 25.8443 11.3187 25.8444 11.1657 25.8443C11.1098 25.8443 11.0539 25.8445 10.998 25.8448C10.4407 25.8476 9.96768 25.7785 9.50934 25.4351C9.07188 24.9874 8.95066 24.5122 8.95483 23.8975C8.95465 23.8412 8.9544 23.7849 8.95409 23.7286C8.95344 23.5751 8.95376 23.4217 8.95425 23.2682C8.9546 23.1022 8.95405 22.9362 8.95362 22.7702C8.95293 22.4455 8.95308 22.1208 8.95353 21.7961C8.95389 21.5321 8.95393 21.2681 8.95376 21.0041C8.95374 20.9665 8.95371 20.9288 8.95369 20.8901C8.95364 20.8136 8.95359 20.7371 8.95354 20.6606C8.95309 19.9443 8.9536 19.228 8.95444 18.5117C8.95514 17.8977 8.95502 17.2837 8.9543 16.6696C8.95346 15.9558 8.95314 15.242 8.95361 14.5282C8.95366 14.452 8.95371 14.3758 8.95376 14.2996C8.95379 14.2622 8.95381 14.2247 8.95384 14.1861C8.95397 13.9225 8.95374 13.659 8.95337 13.3954C8.95294 13.0741 8.95306 12.7527 8.95389 12.4313C8.9543 12.2675 8.95446 12.1037 8.95394 11.9399C8.95347 11.7897 8.95374 11.6395 8.95456 11.4893C8.95482 11.4097 8.95431 11.3301 8.95377 11.2506C8.95812 10.7366 9.0934 10.3196 9.44342 9.93702C9.90097 9.5348 10.3794 9.46224 10.9658 9.46305ZM10.0928 10.7964C9.99987 10.968 9.9854 11.0996 9.98516 11.2939C9.98501 11.3399 9.98486 11.3859 9.98471 11.4333C9.98474 11.4839 9.98478 11.5344 9.98481 11.5865C9.98471 11.6408 9.98459 11.695 9.98446 11.7493C9.98414 11.8985 9.98407 12.0477 9.98404 12.1969C9.98397 12.3578 9.98368 12.5186 9.98341 12.6795C9.98288 13.0313 9.98265 13.3831 9.98248 13.7349C9.98237 13.9545 9.9822 14.1741 9.98203 14.3938C9.98155 15.0017 9.98115 15.6097 9.98102 16.2176C9.98101 16.2566 9.981 16.2955 9.98099 16.3356C9.98098 16.3746 9.98097 16.4136 9.98096 16.4538C9.98095 16.5328 9.98093 16.6119 9.98091 16.6909C9.9809 16.7301 9.98089 16.7693 9.98089 16.8097C9.98073 17.4452 9.98005 18.0807 9.97914 18.7161C9.97821 19.3684 9.97773 20.0207 9.97768 20.673C9.97765 21.0393 9.97742 21.4055 9.97671 21.7718C9.97611 22.0837 9.97591 22.3956 9.97623 22.7074C9.97639 22.8666 9.97635 23.0257 9.9758 23.1848C9.9753 23.3305 9.97535 23.4762 9.97582 23.6219C9.97594 23.6996 9.97547 23.7772 9.97499 23.8548C9.97656 24.1369 9.98113 24.3632 10.1746 24.5839C10.1976 24.6022 10.2205 24.6204 10.2442 24.6392C10.2672 24.658 10.2901 24.6768 10.3138 24.6962C10.4509 24.7891 10.5742 24.7856 10.7346 24.7855C10.7841 24.7855 10.8336 24.7856 10.8845 24.7856C10.9394 24.7855 10.9944 24.7854 11.0493 24.7852C11.107 24.7852 11.1648 24.7852 11.2225 24.7852C11.3794 24.7852 11.5363 24.785 11.6932 24.7847C11.8571 24.7845 12.021 24.7845 12.1849 24.7844C12.4953 24.7843 12.8058 24.784 13.1162 24.7836C13.4696 24.7832 13.823 24.7829 14.1764 24.7827C14.9034 24.7823 15.6305 24.7816 16.3575 24.7808C16.3576 24.7541 16.3578 24.7275 16.3579 24.7C16.3594 24.445 16.3617 24.19 16.3647 23.9351C16.3662 23.8041 16.3674 23.6731 16.3681 23.5421C16.3763 22.0829 16.7007 20.8452 17.7442 19.7857C17.9437 19.5889 18.1488 19.4192 18.3887 19.273C18.43 19.2474 18.4713 19.2218 18.5139 19.1954C19.5863 18.5475 20.8017 18.3842 22.0215 18.648C22.1299 18.6764 22.2356 18.7068 22.3414 18.7436C22.4185 18.7708 22.4185 18.7708 22.5294 18.7651C22.5321 17.7723 22.5342 16.7794 22.5354 15.7866C22.536 15.3256 22.5369 14.8646 22.5382 14.4036C22.5394 14.0017 22.5401 13.5999 22.5404 13.1981C22.5405 12.9853 22.5409 12.7726 22.5417 12.5598C22.5425 12.3595 22.5428 12.1592 22.5426 11.9589C22.5426 11.8854 22.5429 11.812 22.5433 11.7386C22.5439 11.6381 22.5438 11.5376 22.5435 11.4371C22.5438 11.4083 22.5441 11.3794 22.5445 11.3496C22.5425 11.1178 22.4976 10.8988 22.345 10.716C22.3221 10.6982 22.2991 10.6804 22.2755 10.6621C22.2525 10.6436 22.2295 10.6252 22.2059 10.6061C22.0808 10.524 21.9725 10.518 21.8273 10.5177C21.7668 10.5175 21.7668 10.5175 21.7051 10.5172C21.6606 10.5172 21.6161 10.5172 21.5703 10.5172C21.5232 10.5171 21.4761 10.5169 21.4275 10.5168C21.2965 10.5164 21.1655 10.5162 21.0344 10.5161C20.8932 10.516 20.752 10.5156 20.6107 10.5153C20.2695 10.5145 19.9283 10.5141 19.5871 10.5138C19.4265 10.5136 19.2659 10.5134 19.1052 10.5132C18.5713 10.5125 18.0373 10.5119 17.5034 10.5117C17.3648 10.5116 17.2263 10.5115 17.0877 10.5114C17.0533 10.5114 17.0188 10.5114 16.9833 10.5114C16.4253 10.5111 15.8672 10.5101 15.3092 10.5088C14.7363 10.5075 14.1635 10.5068 13.5907 10.5067C13.269 10.5066 12.9474 10.5062 12.6257 10.5052C12.3518 10.5044 12.0779 10.5041 11.804 10.5045C11.6642 10.5046 11.5245 10.5046 11.3847 10.5038C11.2332 10.503 11.0816 10.5034 10.9301 10.5039C10.8639 10.5033 10.8639 10.5033 10.7964 10.5026C10.4877 10.5052 10.2929 10.5437 10.0928 10.7964ZM18.1217 20.8826C17.6073 21.5464 17.3653 22.3469 17.3687 23.1791C17.3687 23.2174 17.3687 23.2558 17.3687 23.2953C17.3687 23.4186 17.369 23.5418 17.3693 23.6651C17.3694 23.7415 17.3694 23.818 17.3694 23.8945C17.3696 24.1769 17.3702 24.4593 17.3707 24.7417C17.3715 25.3734 17.3723 26.005 17.3731 26.6558C19.7063 26.6558 22.0395 26.6558 24.4434 26.6558C24.4466 26.0129 24.4499 25.3699 24.4532 24.7075C24.4546 24.5059 24.456 24.3043 24.4575 24.0966C24.458 23.9129 24.458 23.9129 24.4583 23.7293C24.4586 23.6486 24.4591 23.568 24.4599 23.4874C24.4706 22.3555 24.2159 21.4092 23.4307 20.5639C22.7172 19.8598 21.795 19.5284 20.8047 19.5322C19.7221 19.5517 18.8266 20.0793 18.1217 20.8826Z" fill="white"/>
<path d="M15.6586 12.4714C15.7004 12.4712 15.7423 12.471 15.7854 12.4708C15.8315 12.4707 15.8776 12.4707 15.9251 12.4706C15.9735 12.4704 16.0219 12.4702 16.0717 12.47C16.2048 12.4696 16.3378 12.4693 16.4708 12.4691C16.5539 12.469 16.637 12.4688 16.7201 12.4687C16.9802 12.4681 17.2403 12.4677 17.5004 12.4676C17.8005 12.4674 18.1007 12.4667 18.4008 12.4656C18.6329 12.4648 18.8649 12.4644 19.0969 12.4643C19.2355 12.4643 19.374 12.464 19.5126 12.4633C19.6672 12.4626 19.8219 12.4628 19.9766 12.463C20.0453 12.4625 20.0453 12.4625 20.1153 12.4619C20.5076 12.4639 20.5076 12.4639 20.6953 12.5941C20.8261 12.7421 20.8783 12.8614 20.8664 13.062C20.8407 13.1988 20.7949 13.3158 20.6953 13.4144C20.4478 13.5519 20.2216 13.5483 19.9427 13.5468C19.8951 13.547 19.8474 13.5472 19.7983 13.5474C19.6682 13.5478 19.5381 13.5477 19.408 13.5474C19.2715 13.5471 19.135 13.5473 18.9986 13.5475C18.7695 13.5477 18.5404 13.5475 18.3113 13.5469C18.0468 13.5463 17.7822 13.5465 17.5177 13.5471C17.2902 13.5476 17.0626 13.5477 16.8351 13.5474C16.6994 13.5472 16.5637 13.5472 16.4279 13.5476C16.2766 13.548 16.1254 13.5474 15.9741 13.5468C15.9293 13.547 15.8846 13.5473 15.8385 13.5475C15.5656 13.5453 15.3786 13.5244 15.1753 13.3265C15.0929 13.1923 15.073 13.1032 15.0703 12.9457C15.1324 12.7421 15.2059 12.6339 15.3828 12.516C15.4811 12.4668 15.5485 12.4718 15.6586 12.4714Z" fill="white"/>
<path d="M15.9133 15.816C15.9625 15.8158 16.0118 15.8156 16.0625 15.8154C16.1971 15.8149 16.3317 15.8153 16.4663 15.8159C16.6074 15.8165 16.7485 15.8162 16.8896 15.8161C17.1265 15.816 17.3633 15.8165 17.6002 15.8174C17.8738 15.8185 18.1474 15.8185 18.4211 15.8181C18.6846 15.8176 18.9482 15.8179 19.2117 15.8184C19.3237 15.8187 19.4358 15.8187 19.5478 15.8185C19.7042 15.8182 19.8607 15.819 20.0171 15.8199C20.0867 15.8196 20.0867 15.8196 20.1578 15.8193C20.2217 15.8199 20.2217 15.8199 20.287 15.8205C20.3425 15.8206 20.3425 15.8206 20.399 15.8208C20.5746 15.8462 20.6736 15.9256 20.7874 16.0578C20.8672 16.2146 20.8877 16.3273 20.8533 16.4997C20.7719 16.6538 20.6889 16.7599 20.5408 16.8513C20.4423 16.8661 20.4423 16.8661 20.3293 16.8664C20.2649 16.867 20.2649 16.867 20.1992 16.8676C20.1523 16.8674 20.1054 16.8672 20.057 16.867C20.0075 16.8673 19.9579 16.8676 19.9068 16.8679C19.771 16.8686 19.6352 16.8685 19.4993 16.8683C19.3859 16.8682 19.2724 16.8684 19.1589 16.8686C18.8911 16.8692 18.6234 16.8691 18.3556 16.8687C18.0795 16.8682 17.8035 16.8688 17.5275 16.8698C17.2903 16.8707 17.0532 16.871 16.816 16.8707C16.6744 16.8706 16.5329 16.8707 16.3913 16.8714C16.2333 16.8721 16.0754 16.8715 15.9175 16.8709C15.8473 16.8714 15.8473 16.8714 15.7758 16.872C15.5305 16.8698 15.373 16.8648 15.1892 16.695C15.0868 16.5413 15.0524 16.4075 15.0876 16.2226C15.1393 16.0597 15.1943 15.9647 15.3431 15.8691C15.5221 15.7946 15.7226 15.8145 15.9133 15.816Z" fill="white"/>
<path d="M12.3919 12.4598C12.4386 12.4595 12.4386 12.4595 12.4862 12.4592C12.5517 12.459 12.6172 12.459 12.6827 12.4593C12.7823 12.4597 12.8818 12.4585 12.9815 12.4573C13.0454 12.4572 13.1093 12.4573 13.1732 12.4574C13.2174 12.4567 13.2174 12.4567 13.2625 12.4561C13.4776 12.4589 13.604 12.5098 13.7812 12.633C13.8977 12.8021 13.9234 12.9377 13.8984 13.1408C13.8396 13.3105 13.7846 13.3927 13.6214 13.4757C13.4667 13.5397 13.3185 13.5484 13.1526 13.547C13.1086 13.5472 13.1086 13.5472 13.0638 13.5474C13.0022 13.5474 12.9406 13.5472 12.879 13.5467C12.7854 13.5461 12.6919 13.5467 12.5982 13.5475C12.5381 13.5474 12.4779 13.5472 12.4177 13.547C12.3901 13.5473 12.3625 13.5475 12.334 13.5477C12.1349 13.545 12.0018 13.5048 11.8281 13.4143C11.7066 13.2834 11.6615 13.1794 11.6523 13.0041C11.6612 12.8293 11.709 12.7257 11.8281 12.594C12.0143 12.4777 12.1773 12.459 12.3919 12.4598Z" fill="white"/>
<path d="M12.4092 19.1404C12.4376 19.1403 12.4661 19.1401 12.4954 19.14C12.5551 19.1399 12.6149 19.1402 12.6746 19.1407C12.7654 19.1413 12.8561 19.1407 12.9469 19.1399C13.0053 19.14 13.0637 19.1401 13.1221 19.1404C13.1622 19.14 13.1622 19.14 13.2032 19.1396C13.4368 19.143 13.6158 19.1996 13.7959 19.3512C13.9153 19.4981 13.9108 19.6371 13.8984 19.82C13.836 19.9824 13.7755 20.0822 13.625 20.1716C13.4785 20.2204 13.3411 20.2177 13.1884 20.2186C13.1414 20.2189 13.1414 20.2189 13.0934 20.2192C13.0271 20.2196 12.9607 20.2199 12.8943 20.22C12.7933 20.2204 12.6922 20.2216 12.5911 20.2228C12.5266 20.2231 12.462 20.2233 12.3974 20.2234C12.3674 20.2239 12.3374 20.2244 12.3064 20.2249C12.1183 20.2241 11.9915 20.1962 11.8281 20.0934C11.709 19.9617 11.6612 19.858 11.6523 19.6833C11.6615 19.508 11.7066 19.404 11.8281 19.2731C12.0249 19.1711 12.187 19.1384 12.4092 19.1404Z" fill="white"/>
<path d="M12.3613 15.8268C12.3944 15.8265 12.4275 15.8261 12.4616 15.8258C12.5316 15.8253 12.6017 15.8249 12.6717 15.8246C12.7784 15.8239 12.8851 15.8222 12.9919 15.8204C13.06 15.8201 13.1281 15.8197 13.1963 15.8195C13.228 15.8188 13.2598 15.8181 13.2925 15.8174C13.5006 15.8182 13.617 15.8552 13.7827 15.9923C13.8954 16.1276 13.9209 16.2458 13.9136 16.4223C13.8842 16.5886 13.7918 16.6967 13.6622 16.7984C13.5055 16.8717 13.3682 16.8707 13.197 16.8714C13.1464 16.872 13.1464 16.872 13.0947 16.8726C13.0235 16.8732 12.9522 16.8734 12.881 16.8734C12.7725 16.8737 12.6642 16.8758 12.5557 16.878C12.4863 16.8784 12.4168 16.8786 12.3474 16.8787C12.3153 16.8796 12.2831 16.8804 12.25 16.8813C12.0337 16.8787 11.9215 16.8263 11.7633 16.6791C11.6612 16.5553 11.6626 16.4208 11.6646 16.2656C11.6828 16.102 11.7842 15.978 11.9077 15.8751C12.059 15.8247 12.2035 15.8282 12.3613 15.8268Z" fill="white"/>
<path d="M16.0798 19.1467C16.1289 19.1459 16.1781 19.1451 16.2288 19.1442C16.7684 19.142 16.7684 19.142 17.0002 19.3615C17.0795 19.4958 17.1 19.5863 17.1027 19.7424C17.0444 19.9236 16.9778 20.0514 16.8293 20.1721C16.6222 20.2411 16.3989 20.2215 16.1821 20.2227C16.1238 20.2231 16.0656 20.2239 16.0074 20.2251C15.923 20.2267 15.8387 20.2274 15.7543 20.2278C15.7039 20.2283 15.6535 20.2289 15.6016 20.2295C15.4086 20.2041 15.2905 20.1199 15.1569 19.9817C15.0694 19.8251 15.0657 19.7006 15.0934 19.5251C15.1655 19.3528 15.2305 19.2999 15.384 19.1955C15.6029 19.1202 15.8515 19.1476 16.0798 19.1467Z" fill="white"/>
</g>
<defs>
<clipPath id="clip0_3521_150996">
<rect width="20" height="20" fill="white" transform="translate(8 9)"/>
</clipPath>
</defs>
</svg>
