<svg width="35" height="35" viewBox="0 0 35 35" fill="none" xmlns="http://www.w3.org/2000/svg">
<rect width="35" height="35" rx="3" fill="#00854D"/>
<path d="M12.5422 7.14917C12.7103 7.27174 12.8619 7.407 13.0104 7.55469C13.0476 7.59164 13.0476 7.59164 13.0856 7.62934C13.4957 8.03947 13.8941 8.46255 14.2935 8.88428C14.4139 9.01138 14.5346 9.13808 14.6554 9.2647C14.7502 9.36411 14.8446 9.4638 14.939 9.56358C14.9834 9.61036 15.0278 9.65705 15.0724 9.70362C15.3078 9.94982 15.5305 10.2012 15.7362 10.4759C15.7541 10.4996 15.7719 10.5233 15.7903 10.5478C16.1157 10.9931 16.241 11.5133 16.1853 12.069C16.1086 12.5685 15.931 12.9285 15.6144 13.3029C15.5854 13.3381 15.5563 13.3733 15.5265 13.4096C15.2796 13.7021 15.0183 13.9794 14.7567 14.2571C14.7215 14.2946 14.6862 14.332 14.6499 14.3706C14.4506 14.581 14.2476 14.7837 14.0325 14.976C14.3753 15.8027 14.8278 16.544 15.3771 17.2347C15.3942 17.2562 15.4113 17.2778 15.4289 17.3C15.847 17.8263 16.2863 18.3255 16.7439 18.8136C16.778 18.8502 16.8121 18.8868 16.8472 18.9246C17.083 19.1742 17.3312 19.3986 17.5916 19.6188C17.641 19.6626 17.6902 19.7067 17.7391 19.751C18.2998 20.252 18.9135 20.6947 19.559 21.0644C19.5861 21.0801 19.6131 21.0959 19.641 21.1121C19.7753 21.1882 19.7753 21.1882 19.9236 21.1998C20.0244 21.1579 20.0773 21.103 20.1529 21.021C20.1816 20.9903 20.2102 20.9596 20.2398 20.9279C20.2858 20.8776 20.2858 20.8776 20.3328 20.8264C20.3649 20.7919 20.397 20.7575 20.43 20.722C20.5673 20.5748 20.7039 20.4269 20.8405 20.279C20.9404 20.171 21.0407 20.0634 21.141 19.9558C21.1711 19.9229 21.2012 19.89 21.2323 19.8561C21.5103 19.5582 21.8201 19.2716 22.1937 19.1195C22.2315 19.1036 22.2694 19.0877 22.3083 19.0713C22.7829 18.9037 23.3062 18.9534 23.7607 19.1587C24.2085 19.4131 24.5488 19.8004 24.9033 20.1777C24.9667 20.2446 25.0301 20.3115 25.0935 20.3784C25.2257 20.5179 25.3575 20.6577 25.4892 20.7978C25.6572 20.9764 25.8258 21.1543 25.9947 21.3319C26.1255 21.4696 26.256 21.6078 26.3863 21.746C26.4483 21.8117 26.5104 21.8773 26.5727 21.9428C27.1916 22.5944 27.1916 22.5944 27.3989 23.0068C27.4154 23.0383 27.4319 23.0698 27.4489 23.1022C27.694 23.5887 27.6661 24.1682 27.5214 24.6806C27.2916 25.3405 26.7675 25.8232 26.304 26.3032C26.2163 26.3945 26.1287 26.4858 26.0412 26.5773C25.9873 26.6336 25.9333 26.6898 25.8791 26.7459C25.7259 26.9053 25.5817 27.0699 25.4421 27.2427C24.9591 27.823 24.2065 28.1997 23.4839 28.2769C22.4515 28.3296 21.5022 28.1795 20.518 27.8587C20.4862 27.8484 20.4545 27.8381 20.4218 27.8275C18.8304 27.3015 17.2914 26.3959 15.9307 25.3909C15.9083 25.3744 15.8859 25.3579 15.8628 25.3409C15.6995 25.2201 15.5379 25.097 15.3771 24.9726C15.3515 24.9529 15.326 24.9331 15.2997 24.9128C14.9717 24.6585 14.654 24.3958 14.3461 24.115C14.2468 24.0255 14.1458 23.9405 14.0424 23.8564C13.6589 23.5356 13.3099 23.1633 12.9648 22.7976C12.8992 22.7291 12.8334 22.6606 12.7677 22.5921C12.711 22.5327 12.6544 22.4734 12.5977 22.414C12.5594 22.3738 12.521 22.3338 12.4825 22.2938C12.2448 22.0467 12.0227 21.7926 11.8145 21.5169C11.7292 21.4045 11.6397 21.2999 11.5461 21.1951C11.3413 20.9588 11.1541 20.7115 10.9701 20.4569C10.9274 20.3979 10.8845 20.3389 10.8416 20.28C10.4295 19.7148 10.0494 19.1303 9.68255 18.5313C9.66601 18.5043 9.64947 18.4773 9.63243 18.4495C9.54004 18.2978 9.45219 18.1434 9.36619 17.9875C9.34804 17.9549 9.32988 17.9223 9.31118 17.8886C8.20782 15.8961 6.92978 13.1305 7.51613 10.7502C7.68293 10.1203 7.97341 9.64367 8.38961 9.16812C8.41998 9.13341 8.41998 9.13341 8.45096 9.09799C8.69684 8.81877 8.95005 8.54727 9.20477 8.2771C9.28728 8.18941 9.36937 8.10129 9.45146 8.01315C10.1881 7.2277 10.1881 7.2277 10.6712 7.008C10.7128 6.98859 10.7544 6.96918 10.7972 6.94918C11.3613 6.71716 12.0322 6.83768 12.5422 7.14917ZM9.87324 9.2013C9.7741 9.30576 9.67453 9.40976 9.57496 9.51377C9.51096 9.58119 9.44698 9.64864 9.38303 9.71612C9.35369 9.74663 9.32436 9.77715 9.29413 9.80858C8.75586 10.3803 8.46635 11.0193 8.45591 11.8341C8.4671 13.1836 8.92362 14.473 9.44528 15.6871C9.46239 15.7273 9.4795 15.7675 9.49713 15.8089C9.90035 16.7494 10.3878 17.6433 10.948 18.4895C10.9636 18.513 10.9791 18.5366 10.9951 18.5609C11.3677 19.1245 11.7557 19.6776 12.1739 20.2044C12.1908 20.2257 12.2076 20.2471 12.225 20.2692C12.4464 20.5499 12.6718 20.8252 12.9061 21.094C12.9823 21.1825 13.0563 21.272 13.1299 21.3628C13.3027 21.5722 13.488 21.7677 13.6742 21.9637C13.708 21.9996 13.7418 22.0356 13.7767 22.0726C13.9523 22.2581 14.1304 22.4376 14.3188 22.6087C14.4149 22.6963 14.5078 22.7875 14.601 22.8787C14.8005 23.0707 15.0062 23.2498 15.2189 23.425C15.2721 23.4694 15.3252 23.5139 15.3783 23.5583C15.7773 23.8909 16.1829 24.2104 16.603 24.5125C16.6288 24.5311 16.6546 24.5496 16.6811 24.5688C18.4569 25.8369 21.0991 27.5194 23.349 27.1672C23.8111 27.0696 24.1526 26.9268 24.5121 26.6039C24.5732 26.5534 24.5732 26.5534 24.6356 26.5019C24.7206 26.4218 24.786 26.3509 24.8576 26.2598C24.9992 26.087 25.1505 25.9266 25.3044 25.7662C25.3299 25.7395 25.3554 25.7129 25.3817 25.6854C25.4886 25.5739 25.5956 25.4624 25.7029 25.3514C26.2977 24.7785 26.2977 24.7785 26.5462 24.0028C26.5478 23.9668 26.5493 23.9308 26.551 23.8938C26.4922 23.5369 26.2903 23.2672 26.0517 23.0201C26.0107 22.9763 26.0107 22.9763 25.9688 22.9317C25.8793 22.8365 25.789 22.7421 25.6987 22.6476C25.6358 22.5811 25.5729 22.5146 25.5101 22.4481C25.3787 22.3092 25.2469 22.1706 25.115 22.0323C24.9461 21.8554 24.778 21.6778 24.6101 21.4999C24.4804 21.3626 24.3505 21.2257 24.2205 21.0889C24.1584 21.0235 24.0964 20.958 24.0344 20.8925C23.9477 20.8009 23.8607 20.7097 23.7735 20.6186C23.7482 20.5917 23.7229 20.5648 23.6968 20.5371C23.4633 20.2947 23.244 20.139 22.91 20.1165C22.4659 20.1356 22.1621 20.5043 21.8726 20.8174C21.8355 20.8571 21.7983 20.8968 21.7612 20.9364C21.6044 21.104 21.4481 21.272 21.2919 21.4402C21.196 21.5434 21.0998 21.6464 21.0034 21.7491C20.9494 21.8069 20.8957 21.865 20.8421 21.9232C20.6653 22.1116 20.507 22.2632 20.2807 22.3793C20.2546 22.3932 20.2285 22.407 20.2016 22.4212C19.7966 22.4931 19.5188 22.337 19.1777 22.135C19.0954 22.0872 19.0122 22.0423 18.9281 21.9982C18.5063 21.7747 18.1283 21.505 17.7498 21.2082C17.7057 21.174 17.6616 21.1399 17.6174 21.1058C17.3514 20.8977 17.0938 20.6801 16.8403 20.4553C16.8202 20.4379 16.8001 20.4205 16.7795 20.4026C16.4102 20.0822 16.0704 19.7326 15.733 19.3757C15.7115 19.353 15.6901 19.3304 15.668 19.307C15.4306 19.0559 15.1991 18.802 14.9816 18.5313C14.945 18.4874 14.9084 18.4436 14.8716 18.3999C14.1958 17.5866 13.595 16.7036 13.1579 15.7221C13.107 15.61 13.0527 15.4997 12.9984 15.3894C12.8913 15.1382 12.8735 14.8357 12.9616 14.5764C13.068 14.3696 13.2039 14.2183 13.3697 14.0628C13.6503 13.7958 13.9186 13.5164 14.1858 13.2345C14.2679 13.1481 14.3505 13.0621 14.433 12.9761C14.4861 12.9202 14.5392 12.8643 14.5922 12.8084C14.6165 12.7832 14.6408 12.758 14.6659 12.732C14.9083 12.4743 15.102 12.2079 15.1151 11.8338C15.1084 11.4502 14.9296 11.2343 14.6895 10.9623C14.6687 10.9386 14.6479 10.9149 14.6265 10.8905C14.393 10.6261 14.1526 10.3689 13.9111 10.1127C13.8876 10.0877 13.8641 10.0627 13.8399 10.037C13.716 9.90526 13.5919 9.77366 13.4678 9.64217C13.3408 9.5076 13.2141 9.37265 13.0876 9.23761C12.9889 9.13247 12.89 9.02762 12.791 8.92284C12.7442 8.87322 12.6975 8.8235 12.6509 8.77366C12.1476 8.20429 12.1476 8.20429 11.4745 7.97786C10.807 7.98803 10.3116 8.73873 9.87324 9.2013Z" fill="white"/>
</svg>
