<svg width="13" height="13" viewBox="0 0 13 13" fill="none" xmlns="http://www.w3.org/2000/svg">
<path d="M5.87666 0.0425014C4.36084 0.197384 2.97959 0.849923 1.90811 1.91887C-0.636035 4.45793 -0.636035 8.57121 1.90811 11.1103C2.93896 12.1386 4.1958 12.7556 5.69893 12.9689C6.00107 13.012 6.99893 13.0095 7.31123 12.9663C8.78389 12.7632 10.0763 12.1284 11.0919 11.1077C12.27 9.92199 12.9276 8.41379 12.9911 6.74309C13.0571 4.93781 12.3767 3.20617 11.0894 1.91887C10.0915 0.918478 8.82705 0.286251 7.4001 0.0755091C7.09033 0.0298061 6.18896 0.00949383 5.87666 0.0425014ZM7.43818 1.00227C8.61631 1.21555 9.61924 1.7386 10.447 2.56633C11.5108 3.6302 12.0847 5.01399 12.0847 6.51457C12.0847 8.64992 10.8938 10.5644 8.9667 11.5267C8.1999 11.9101 7.37979 12.1005 6.49873 12.1005C5.00068 12.1005 3.61182 11.5241 2.55049 10.4628C1.71006 9.62238 1.18955 8.6093 0.971191 7.39055C0.907715 7.02746 0.907715 6.00168 0.971191 5.6386C1.18955 4.41985 1.71006 3.40676 2.55049 2.56633C3.45693 1.65988 4.55381 1.12922 5.87666 0.954024C6.18896 0.9134 7.10557 0.941329 7.43818 1.00227Z" fill="#727374" fill-opacity="0.9"/>
<path d="M6.48242 3.05455C6.19805 3.13326 6 3.36685 6 3.6233C6 3.95592 6.26152 4.20728 6.63223 4.23267C7.04863 4.25806 7.37871 3.99654 7.37871 3.63853C7.37617 3.22974 6.91914 2.93013 6.48242 3.05455Z" fill="#727374" fill-opacity="0.9"/>
<path d="M6.45957 5.45078C6.28184 5.48125 6.13203 5.56504 6.0584 5.67422L6 5.76309L6.00508 7.48203L6.0127 9.20352L6.09902 9.29238C6.23613 9.43203 6.40625 9.49551 6.66016 9.49805C6.85566 9.49805 6.89375 9.49043 7.04609 9.41426C7.34316 9.26699 7.32031 9.43711 7.32031 7.44648V5.73008L7.2416 5.64121C7.10449 5.48379 6.75918 5.4 6.45957 5.45078Z" fill="#727374" fill-opacity="0.9"/>
</svg>
