<svg width="35" height="35" viewBox="0 0 35 35" fill="none" xmlns="http://www.w3.org/2000/svg">
<rect width="35" height="35" rx="3" fill="#3E456E"/>
<g clip-path="url(#clip0_3419_74886)">
<path d="M12.0465 8.54085C11.7022 8.63693 11.4331 8.7915 11.1244 9.07557C10.9621 9.22179 10.222 9.98627 9.48193 10.7758C7.91075 12.4468 7.90283 12.451 7.90283 13.0484C7.90283 13.3701 7.91866 13.4578 8.00573 13.6583C8.14029 13.9633 8.38567 14.2181 8.67062 14.356C8.84871 14.4437 8.95161 14.4646 9.20886 14.4687C9.71543 14.4687 9.88166 14.3685 10.598 13.6082C10.9225 13.2656 11.1996 12.9857 11.2154 12.9857C11.2312 12.9857 11.251 15.793 11.255 19.2186L11.2668 25.4556L11.3697 25.6896C11.5003 25.9778 11.7299 26.2285 12.0069 26.383C12.1929 26.4833 12.2602 26.5 12.5729 26.5C12.8539 26.5 12.9686 26.4791 13.1151 26.4081C13.3644 26.2869 13.6454 26.0071 13.772 25.748L13.8789 25.5392L13.8908 19.2604C13.8947 15.8097 13.9105 12.9857 13.9264 12.9857C13.9422 12.9857 14.2311 13.274 14.5715 13.6291C15.2997 14.3936 15.4065 14.4604 15.9171 14.4646C16.2139 14.4687 16.2812 14.452 16.487 14.3476C16.7759 14.1972 17.041 13.9257 17.1558 13.6625C17.2271 13.5037 17.2429 13.3868 17.2429 13.0693C17.2429 12.4385 17.2745 12.4844 15.4303 10.5377C13.9145 8.94189 13.8235 8.85417 13.5425 8.71213C13.3802 8.63276 13.1507 8.54503 13.0359 8.51996C12.751 8.4573 12.2998 8.46566 12.0465 8.54085Z" fill="white"/>
<path d="M20.197 9.20658C19.3738 9.63686 19.3777 10.8567 20.2009 11.3246L20.3671 11.4165L23.2523 11.429C26.5806 11.4416 26.4303 11.4541 26.7785 11.0906C27.3207 10.5141 27.198 9.60344 26.5252 9.23164L26.2759 9.09796H23.3393H20.4028L20.197 9.20658Z" fill="white"/>
<path d="M20.2859 13.8852C20.0484 13.9729 19.8149 14.2027 19.6922 14.47C19.4231 15.0465 19.6447 15.7275 20.2028 16.0408L20.369 16.1369L23.2739 16.1494C26.6062 16.1619 26.4281 16.1786 26.7843 15.8068C27.3384 15.2178 27.1801 14.2695 26.4638 13.9186L26.2659 13.8183L23.357 13.8225C20.9151 13.8225 20.4204 13.835 20.2859 13.8852Z" fill="white"/>
<path d="M18.0146 18.6269C17.6347 18.8065 17.3853 19.1783 17.3497 19.6086C17.322 19.9804 17.421 20.2561 17.6743 20.5235C18.0344 20.9036 17.7138 20.8786 22.2335 20.8786C26.1278 20.8786 26.2069 20.8786 26.4207 20.795C26.8639 20.6196 27.1489 20.1308 27.1093 19.6086C27.0737 19.1783 26.8243 18.8065 26.4444 18.6269C26.2703 18.5433 26.203 18.5392 22.2295 18.5392C18.256 18.5392 18.1887 18.5433 18.0146 18.6269Z" fill="white"/>
<path d="M18.1324 23.2985C17.8158 23.403 17.5071 23.7163 17.4042 24.0421C17.2261 24.5852 17.4636 25.2118 17.9504 25.4875L18.1126 25.5794H22.2286C26.8472 25.5794 26.4395 25.6087 26.772 25.2703C27.0253 25.0197 27.0965 24.84 27.0965 24.4306C27.0965 24.0212 27.0253 23.8416 26.772 23.5909C26.4395 23.2567 26.8353 23.2818 22.2879 23.2735C20.0558 23.2693 18.1878 23.2818 18.1324 23.2985Z" fill="white"/>
</g>
<defs>
<clipPath id="clip0_3419_74886">
<rect width="20.2632" height="21.3889" fill="white" transform="translate(7.36865 6.80469)"/>
</clipPath>
</defs>
</svg>
