<svg width="35" height="35" viewBox="0 0 35 35" fill="none" xmlns="http://www.w3.org/2000/svg">
<rect width="35" height="35" rx="3" fill="#FF003C"/>
<g clip-path="url(#clip0_3419_75324)">
<path d="M19.992 12.7619C20.0579 12.8196 20.123 12.8782 20.1873 12.9377C20.2172 12.9644 20.247 12.9912 20.2778 13.0187C20.9304 13.6328 21.3353 14.4899 21.5154 15.3596C21.5225 15.3933 21.5297 15.427 21.537 15.4617C21.6011 15.7984 21.6092 16.1315 21.6082 16.4728C21.6082 16.5021 21.6081 16.5314 21.6081 16.5615C21.6035 17.7617 21.1946 18.7313 20.5585 19.7302C20.137 20.3928 19.8459 21.0582 19.6014 21.8049C19.4471 21.7803 19.3201 21.732 19.179 21.6657C19.1409 21.6479 19.1028 21.6302 19.0635 21.6118C19.0204 21.5914 19.0204 21.5914 18.9764 21.5705C19.0216 21.3022 19.0904 21.0578 19.1936 20.8063C19.2074 20.7726 19.2212 20.7388 19.2353 20.704C19.4317 20.2325 19.6747 19.7976 19.9505 19.3683C20.2966 18.8292 20.6049 18.2861 20.7732 17.6642C20.7918 17.6022 20.7918 17.6022 20.8108 17.539C20.9869 16.8451 20.9715 15.9685 20.7732 15.2814C20.7657 15.2552 20.7581 15.2289 20.7503 15.2019C20.4998 14.3579 20.0166 13.543 19.2347 13.0965C18.6017 12.7599 17.9812 12.6525 17.2814 12.8597C16.4331 13.1643 15.8763 13.7831 15.4881 14.5738C15.2059 15.1774 15.0936 15.7892 15.0945 16.4533C15.0945 16.4799 15.0946 16.5065 15.0946 16.5339C15.0984 17.5715 15.432 18.4179 16.0139 19.2737C16.4334 19.8956 16.732 20.5519 16.9842 21.258C16.9971 20.1107 17.0099 18.9635 17.0232 17.7814C16.8299 17.7814 16.6365 17.7814 16.4373 17.7814C16.1659 17.7211 15.962 17.6675 15.7978 17.4308C15.643 17.1756 15.5895 16.9625 15.6414 16.6682C15.7105 16.3997 15.8505 16.1748 16.0857 16.0236C16.3524 15.8681 16.6627 15.8537 16.961 15.9307C17.2254 16.0451 17.3621 16.2532 17.4717 16.5116C17.6092 16.8733 17.6092 16.8733 17.6092 17.0783C17.867 17.0783 18.1248 17.0783 18.3904 17.0783C18.4033 16.9752 18.4162 16.8721 18.4295 16.7658C18.5346 16.427 18.6743 16.1406 18.9788 15.9479C19.2623 15.8482 19.5846 15.864 19.8553 15.9894C20.0997 16.1301 20.2318 16.3114 20.3435 16.5705C20.3915 16.905 20.3741 17.1911 20.1757 17.4706C20.002 17.6702 19.8197 17.7397 19.5623 17.7814C19.356 17.7814 19.1498 17.7814 18.9373 17.7814C18.9373 19.0189 18.9373 20.2564 18.9373 21.5314C18.4685 21.4533 18.4685 21.4533 18.2732 21.4142C18.2732 20.2025 18.2732 18.9908 18.2732 17.7424C18.0799 17.7424 17.8865 17.7424 17.6873 17.7424C17.6873 18.9541 17.6873 20.1658 17.6873 21.4142C17.3586 21.4916 17.3586 21.4916 17.0232 21.5705C16.8171 21.6609 16.8171 21.6609 16.6146 21.7591C16.5154 21.8049 16.5154 21.8049 16.3982 21.8049C16.3904 21.7797 16.3826 21.7546 16.3745 21.7287C16.1128 20.8966 15.7674 20.1789 15.2877 19.4528C15.0137 19.0361 14.7901 18.6055 14.6282 18.133C14.6192 18.1071 14.6102 18.0813 14.6009 18.0546C14.436 17.545 14.3843 17.0345 14.389 16.5021C14.3891 16.4733 14.3892 16.4445 14.3893 16.4148C14.3919 15.9444 14.4323 15.5005 14.5623 15.0471C14.569 15.0217 14.5757 14.9964 14.5826 14.9703C14.8546 13.9518 15.5263 13.0051 16.4373 12.4689C17.5898 11.8275 18.9619 11.9416 19.992 12.7619ZM16.3201 16.7267C16.2781 16.8005 16.2781 16.8005 16.281 16.883C16.3262 16.9897 16.3262 16.9897 16.3982 17.0783C16.5212 17.1193 16.6087 17.1213 16.7376 17.1198C16.7764 17.1195 16.8152 17.1191 16.8552 17.1187C16.8849 17.1183 16.9145 17.1178 16.9451 17.1174C16.9291 16.9038 16.8559 16.728 16.7107 16.5705C16.5223 16.5243 16.4339 16.575 16.3201 16.7267ZM19.179 16.7121C19.1049 16.8455 19.066 16.9637 19.0545 17.1174C19.3357 17.1319 19.3357 17.1319 19.6087 17.0759C19.6922 17.0007 19.6922 17.0007 19.7015 16.8659C19.6895 16.7274 19.6895 16.7274 19.616 16.6315C19.5247 16.5642 19.5247 16.5642 19.4085 16.5412C19.2699 16.5751 19.255 16.5974 19.179 16.7121Z" fill="white"/>
<path d="M18.0098 9.95201C18.0392 9.95176 18.0686 9.95151 18.099 9.95126C18.6659 9.94828 19.2124 10.0225 19.7554 10.1913C19.7878 10.2012 19.8201 10.2112 19.8534 10.2214C20.6195 10.4655 21.3019 10.8443 21.9063 11.3753C21.9391 11.4034 21.9719 11.4314 22.0056 11.4603C23.0818 12.3997 23.7925 13.7393 23.9375 15.1644C23.9658 15.8243 23.9925 16.515 23.8204 17.1566C23.8128 17.1864 23.8052 17.2162 23.7975 17.2469C23.5335 18.2767 23.0012 19.1135 22.336 19.93C21.6336 20.7936 21.0391 21.6667 20.6172 22.7035C20.5 22.7035 20.5 22.7035 20.4288 22.6379C20.4048 22.6096 20.3807 22.5813 20.356 22.5521C20.3195 22.51 20.3195 22.51 20.2823 22.467C20.2266 22.391 20.2266 22.391 20.2266 22.3128C20.175 22.2871 20.1235 22.2613 20.0704 22.2347C20.3601 21.2615 21.0381 20.4228 21.672 19.6531C22.3086 18.8784 22.8584 18.0589 23.1172 17.0785C23.1304 17.0294 23.1436 16.9803 23.1572 16.9297C23.4487 15.602 23.1738 14.2047 22.4658 13.0573C22.0347 12.3871 21.4541 11.8256 20.7735 11.4144C20.7474 11.3986 20.7213 11.3828 20.6945 11.3665C20.0607 10.9904 19.3567 10.7576 18.625 10.6722C18.5989 10.6691 18.5728 10.666 18.5459 10.6628C17.1701 10.5117 15.7571 10.9359 14.6765 11.7936C13.6465 12.6429 12.8954 13.8554 12.7657 15.2035C12.7251 15.8761 12.7277 16.5454 12.9219 17.1957C12.929 17.2211 12.9361 17.2465 12.9434 17.2728C13.1755 18.0969 13.6358 18.7758 14.191 19.4173C14.6654 19.9668 15.1121 20.5419 15.461 21.18C15.4793 21.2134 15.4977 21.2467 15.5166 21.2811C15.5768 21.3911 15.6362 21.5015 15.6954 21.6122C15.7142 21.6471 15.733 21.6819 15.7524 21.7179C15.9254 22.0477 15.9254 22.0477 15.9297 22.2347C15.8492 22.3299 15.8492 22.3299 15.7344 22.43C15.6723 22.5025 15.6121 22.5763 15.5521 22.6505C15.5349 22.668 15.5177 22.6855 15.5 22.7035C15.4743 22.7035 15.4485 22.7035 15.4219 22.7035C15.4121 22.6809 15.4023 22.6584 15.3923 22.6351C14.9668 21.661 14.4399 20.8103 13.7422 20.0082C13.0753 19.2201 12.5399 18.4072 12.2481 17.4081C12.2385 17.3753 12.2288 17.3426 12.2189 17.3089C12.082 16.819 12.0465 16.3344 12.0479 15.8285C12.0479 15.7984 12.048 15.7684 12.048 15.7374C12.0537 14.2138 12.645 12.8835 13.6641 11.766C13.7037 11.7222 13.7037 11.7222 13.7441 11.6775C14.1136 11.289 14.5658 10.9725 15.0313 10.7113C15.0543 10.6984 15.0773 10.6854 15.1011 10.6721C15.5389 10.4302 15.9959 10.2615 16.4766 10.1253C16.5076 10.1165 16.5386 10.1076 16.5706 10.0984C17.0458 9.96924 17.5205 9.95412 18.0098 9.95201Z" fill="white"/>
<path d="M19.6165 22.5301C20.0617 22.9076 20.4014 23.4496 20.5002 24.0308C20.5633 24.8319 20.4481 25.5515 19.917 26.1779C19.5145 26.6249 18.936 26.9595 18.3287 27.0075C17.5389 27.0358 16.8634 26.9039 16.262 26.3623C15.8114 25.9361 15.5128 25.3383 15.4871 24.7162C15.4806 24.2921 15.4835 23.9166 15.6565 23.523C15.6777 23.4717 15.6777 23.4717 15.6994 23.4195C16.0002 22.7566 16.5567 22.3394 17.2135 22.0711C18.0256 21.8211 18.9575 22.0061 19.6165 22.5301ZM16.8137 23.0689C16.7527 23.1283 16.6924 23.1885 16.6331 23.2495C16.5987 23.2827 16.5987 23.2827 16.5636 23.3165C16.208 23.6866 16.1455 24.1818 16.1535 24.6703C16.1739 25.1701 16.4273 25.5734 16.7817 25.9116C17.2288 26.2886 17.6995 26.3776 18.2686 26.3435C18.7253 26.2991 19.113 26.0349 19.4224 25.708C19.8068 25.2406 19.8934 24.7368 19.8362 24.148C19.7486 23.684 19.4629 23.2675 19.094 22.9761C18.368 22.5405 17.482 22.4816 16.8137 23.0689Z" fill="white"/>
<path d="M19.0939 23.8751C19.1916 23.9337 19.1916 23.9337 19.2502 24.0313C19.2804 24.243 19.2804 24.243 19.2502 24.3438C19.122 24.4849 18.9914 24.5871 18.8287 24.6853C18.7855 24.7116 18.7422 24.738 18.6976 24.7651C18.6523 24.7923 18.607 24.8195 18.5617 24.8467C18.4733 24.9003 18.3849 24.9539 18.2965 25.0076C18.2534 25.0335 18.2104 25.0595 18.166 25.0862C18.0095 25.1824 17.8564 25.2834 17.704 25.386C17.5804 25.4535 17.4743 25.4673 17.335 25.4663C17.1181 25.3855 17.015 25.0928 16.9162 24.898C16.8921 24.853 16.8921 24.853 16.8675 24.807C16.7633 24.6019 16.7288 24.4567 16.7502 24.2266C16.7917 24.1314 16.7917 24.1314 16.8674 24.0704C17.0128 24.03 17.0999 24.0128 17.2392 24.0759C17.3547 24.1625 17.4006 24.2424 17.4655 24.3707C17.4855 24.4095 17.5055 24.4483 17.5261 24.4883C17.5407 24.518 17.5554 24.5476 17.5705 24.5782C17.7218 24.5228 17.8512 24.4517 17.9872 24.3656C18.0285 24.3396 18.0698 24.3136 18.1124 24.2868C18.1551 24.2597 18.1978 24.2326 18.2419 24.2047C18.327 24.1509 18.4122 24.0971 18.4975 24.0434C18.5351 24.0195 18.5727 23.9957 18.6115 23.9711C18.7721 23.8714 18.9059 23.8494 19.0939 23.8751Z" fill="white"/>
<path d="M12.4533 8.95337C12.5211 9.00305 12.5211 9.00305 12.5945 9.06964C12.6219 9.09447 12.6493 9.11931 12.6775 9.14489C12.7067 9.17192 12.7358 9.19895 12.7658 9.2268C12.8106 9.26807 12.8106 9.26807 12.8564 9.31016C12.9502 9.39766 13.0424 9.48659 13.1345 9.57592C13.1663 9.60561 13.1981 9.63529 13.2308 9.66588C13.4849 9.91399 13.4849 9.91399 13.513 10.1011C13.508 10.2424 13.508 10.2424 13.4494 10.3572C13.3209 10.4632 13.2445 10.4797 13.0783 10.4768C12.8483 10.3414 12.6668 10.1619 12.4779 9.97546C12.4216 9.92021 12.3644 9.86596 12.3072 9.81167C12.0038 9.51274 12.0038 9.51274 11.9775 9.32354C11.9878 9.12415 11.9878 9.12415 12.0627 9.03149C12.1899 8.94064 12.3007 8.92695 12.4533 8.95337Z" fill="white"/>
<path d="M23.7812 8.95237C23.8795 8.98512 23.9239 9.01368 23.9888 9.09397C24.0291 9.23317 24.0137 9.36135 23.9766 9.49924C23.8921 9.61595 23.8921 9.61595 23.7817 9.72355C23.7622 9.74286 23.7427 9.76217 23.7226 9.78207C23.6815 9.8225 23.6401 9.8626 23.5983 9.90238C23.5346 9.96314 23.4719 10.0248 23.4093 10.0867C23.0637 10.4247 23.0637 10.4247 22.9219 10.4758C22.7907 10.4689 22.6889 10.461 22.5752 10.3928C22.5046 10.2752 22.4945 10.1827 22.4922 10.0461C22.589 9.87932 22.7041 9.7464 22.8404 9.61078C22.8765 9.5747 22.9127 9.53863 22.95 9.50145C22.9686 9.48307 22.9872 9.46468 23.0064 9.44573C23.0638 9.38905 23.1209 9.33206 23.1779 9.27501C23.5185 8.9366 23.5185 8.9366 23.7812 8.95237Z" fill="white"/>
<path d="M21.125 7.58554C21.2422 7.66122 21.2422 7.66122 21.3203 7.78085C21.3165 8.0991 21.2011 8.36095 21.0762 8.64999C21.0575 8.69521 21.0388 8.74043 21.0196 8.78702C20.8401 9.20809 20.8401 9.20809 20.6562 9.34335C20.5014 9.36781 20.422 9.36911 20.29 9.28232C20.2058 9.15591 20.1969 9.06523 20.1875 8.91366C20.2166 8.8107 20.2469 8.72307 20.2893 8.62619C20.3057 8.58687 20.3057 8.58687 20.3225 8.54676C20.3456 8.49174 20.3691 8.43686 20.3929 8.38211C20.4292 8.29845 20.4642 8.21435 20.4992 8.13013C20.5219 8.07654 20.5447 8.02298 20.5676 7.96945C20.578 7.94443 20.5884 7.9194 20.5992 7.89362C20.7139 7.63311 20.8372 7.54515 21.125 7.58554Z" fill="white"/>
<path d="M15.0117 7.5625C15.1855 7.59354 15.2295 7.64982 15.3438 7.78223C15.4281 7.93833 15.494 8.10174 15.5609 8.26593C15.5927 8.34362 15.6257 8.42072 15.6589 8.49786C15.6795 8.54768 15.7001 8.59752 15.7207 8.6474C15.7393 8.69218 15.7578 8.73697 15.777 8.78311C15.8179 8.93517 15.8089 9.03596 15.7734 9.18848C15.71 9.28369 15.71 9.28369 15.6172 9.34473C15.4829 9.3667 15.4829 9.3667 15.3438 9.34473C15.1845 9.21113 15.1058 9.0814 15.0268 8.89078C15.0167 8.86647 15.0066 8.84215 14.9961 8.81711C14.975 8.76602 14.9541 8.71484 14.9334 8.66356C14.9019 8.58553 14.8694 8.50794 14.8368 8.43034C14.8163 8.38039 14.7958 8.33042 14.7754 8.28043C14.757 8.23544 14.7386 8.19045 14.7196 8.1441C14.6787 8.01345 14.6658 7.91807 14.6797 7.78223C14.7816 7.64022 14.8387 7.5934 15.0117 7.5625Z" fill="white"/>
<path d="M25.5001 11.4917C25.6421 11.5936 25.6889 11.6507 25.7198 11.8237C25.6889 11.9971 25.632 12.0418 25.5001 12.1558C25.3849 12.2168 25.3849 12.2168 25.2586 12.2675C25.2127 12.286 25.1668 12.3046 25.1195 12.3238C25.0719 12.3425 25.0243 12.3611 24.9752 12.3804C24.9278 12.3997 24.8803 12.419 24.8314 12.4388C24.3039 12.6498 24.3039 12.6498 24.1036 12.5952C24.0157 12.5464 24.0157 12.5464 23.9376 12.4292C23.9205 12.2974 23.9205 12.2974 23.9376 12.1558C24.0708 11.9962 24.2011 11.9178 24.3916 11.8388C24.4159 11.8287 24.4402 11.8186 24.4652 11.8082C24.5163 11.787 24.5675 11.7661 24.6188 11.7455C24.6968 11.7139 24.7744 11.6814 24.852 11.6488C24.902 11.6283 24.9519 11.6078 25.0019 11.5874C25.0469 11.569 25.0919 11.5506 25.1383 11.5316C25.2689 11.4907 25.3643 11.4778 25.5001 11.4917Z" fill="white"/>
<path d="M10.7451 11.5075C10.963 11.557 11.1648 11.6484 11.3692 11.7368C11.437 11.7648 11.437 11.7648 11.5062 11.7934C11.9273 11.9728 11.9273 11.9728 12.0626 12.1567C12.0872 12.3129 12.0891 12.3913 11.9991 12.5229C11.8853 12.6008 11.8091 12.6136 11.672 12.6254C11.5607 12.5965 11.5607 12.5965 11.4464 12.5493C11.4045 12.5323 11.3626 12.5152 11.3195 12.4976C11.2763 12.4794 11.2331 12.4611 11.1886 12.4423C11.1242 12.4161 11.1242 12.4161 11.0585 12.3893C10.4127 12.1233 10.4127 12.1233 10.3048 11.9614C10.283 11.7932 10.2876 11.7145 10.3804 11.5707C10.5177 11.4811 10.5862 11.4855 10.7451 11.5075Z" fill="white"/>
<path d="M24.9448 14.4795C24.9947 14.4792 24.9947 14.4792 25.0455 14.479C25.1156 14.4789 25.1858 14.4792 25.2559 14.4799C25.3632 14.4807 25.4703 14.4799 25.5776 14.4789C25.6458 14.479 25.714 14.4792 25.7822 14.4795C25.8143 14.4792 25.8463 14.4788 25.8793 14.4785C26.0288 14.481 26.1015 14.4822 26.2235 14.5748C26.2863 14.6633 26.3027 14.7054 26.301 14.8127C26.3014 14.8385 26.3018 14.8643 26.3022 14.8909C26.2707 15.0098 26.2235 15.0507 26.1252 15.1252C26.011 15.1486 25.8985 15.1471 25.7822 15.146C25.7324 15.1462 25.7324 15.1462 25.6816 15.1464C25.6114 15.1465 25.5413 15.1462 25.4712 15.1456C25.3639 15.1448 25.2567 15.1456 25.1494 15.1466C25.0812 15.1465 25.013 15.1463 24.9448 15.146C24.9128 15.1463 24.8808 15.1466 24.8478 15.1469C24.6982 15.1445 24.6255 15.1432 24.5035 15.0507C24.4407 14.9622 24.4243 14.9201 24.426 14.8127C24.4254 14.7741 24.4254 14.7741 24.4248 14.7346C24.4958 14.4672 24.7147 14.4772 24.9448 14.4795Z" fill="white"/>
<path d="M10.2183 14.4795C10.2681 14.4792 10.2681 14.4792 10.3189 14.479C10.3891 14.4789 10.4592 14.4792 10.5293 14.4799C10.6366 14.4807 10.7438 14.4799 10.851 14.4789C10.9193 14.479 10.9875 14.4792 11.0557 14.4795C11.0877 14.4792 11.1197 14.4788 11.1527 14.4785C11.3022 14.481 11.375 14.4822 11.4969 14.5748C11.5597 14.6633 11.5761 14.7054 11.5745 14.8127C11.5749 14.8385 11.5753 14.8643 11.5757 14.8909C11.5441 15.0098 11.4969 15.0507 11.3987 15.1252C11.2844 15.1486 11.172 15.1471 11.0557 15.146C11.0058 15.1462 11.0058 15.1462 10.955 15.1464C10.8849 15.1465 10.8147 15.1462 10.7446 15.1456C10.6373 15.1448 10.5302 15.1456 10.4229 15.1466C10.3547 15.1465 10.2865 15.1463 10.2183 15.146C10.1862 15.1463 10.1542 15.1466 10.1212 15.1469C9.97168 15.1445 9.89895 15.1432 9.77698 15.0507C9.71418 14.9622 9.69779 14.9201 9.69946 14.8127C9.69886 14.7741 9.69886 14.7741 9.69824 14.7346C9.76926 14.4672 9.98811 14.4772 10.2183 14.4795Z" fill="white"/>
<path d="M18.0002 6.97974C18.026 6.97933 18.0518 6.97893 18.0784 6.97852C18.1973 7.0101 18.2382 7.05727 18.3127 7.15552C18.3361 7.26977 18.3346 7.38223 18.3335 7.49854C18.3336 7.53176 18.3338 7.56498 18.3339 7.59921C18.334 7.66934 18.3337 7.73948 18.3331 7.8096C18.3323 7.91688 18.3331 8.02405 18.3341 8.13132C18.334 8.19952 18.3338 8.26773 18.3335 8.33594C18.3338 8.36796 18.3341 8.39999 18.3344 8.43299C18.332 8.58252 18.3307 8.65525 18.2382 8.77722C18.1497 8.84002 18.1076 8.85641 18.0002 8.85474C17.9616 8.85534 17.9616 8.85534 17.9221 8.85596C17.8032 8.82437 17.7623 8.7772 17.6877 8.67896C17.6643 8.5647 17.6658 8.45224 17.667 8.33594C17.6668 8.30271 17.6667 8.26949 17.6665 8.23526C17.6664 8.16513 17.6667 8.095 17.6674 8.02487C17.6682 7.9176 17.6674 7.81042 17.6664 7.70316C17.6665 7.63495 17.6667 7.56674 17.667 7.49854C17.6667 7.46651 17.6663 7.43448 17.666 7.40148C17.6685 7.25195 17.6697 7.17922 17.7623 7.05725C17.8508 6.99445 17.8929 6.97806 18.0002 6.97974Z" fill="white"/>
</g>
<defs>
<clipPath id="clip0_3419_75324">
<rect width="20" height="20" fill="white" transform="translate(8 7)"/>
</clipPath>
</defs>
</svg>
