<svg width="35" height="35" viewBox="0 0 35 35" fill="none" xmlns="http://www.w3.org/2000/svg">
<rect width="35" height="35" rx="3" fill="#F96332"/>
<path d="M14.0599 9.80835C13.4184 10.0093 12.9299 10.5343 12.7294 11.2193C12.6638 11.4572 12.6529 11.6172 12.6347 12.5441L12.6201 13.5941L11.2276 13.6105C9.92263 13.627 9.82421 13.6352 9.59821 13.7172C9.13527 13.8895 8.70878 14.2955 8.501 14.759C8.28229 15.243 8.28958 15.1076 8.28958 19.3815C8.28958 23.7046 8.28229 23.5693 8.51923 24.0779C8.66504 24.3855 9.00768 24.7711 9.27378 24.9228C9.66747 25.1443 9.82421 25.1689 10.9652 25.1689H12.0077V26.9203C12.0077 28.5117 12.015 28.6881 12.0733 28.8194C12.1498 28.9957 12.2847 29.0573 12.4342 28.9875C12.4998 28.9588 13.145 28.1918 14.0636 27.0557L15.5836 25.173L18.3248 25.1566C20.9421 25.1443 21.0733 25.1402 21.2665 25.0623C21.9117 24.7998 22.3491 24.3076 22.5204 23.6431C22.5533 23.516 22.5788 23.3478 22.5788 23.2699C22.5788 23.1878 22.5934 23.114 22.6079 23.1017C22.6262 23.0894 22.9725 23.4996 23.3844 24.0082C23.7926 24.5168 24.1827 24.9843 24.2483 25.05C24.3977 25.2017 24.5545 25.2058 24.6748 25.0664L24.7659 24.9679V23.1386V21.3134H25.0684C25.9542 21.3134 26.6979 20.6571 26.8983 19.7056C26.9822 19.3077 26.9785 11.7402 26.8947 11.3752C26.7307 10.6574 26.2823 10.116 25.659 9.87807L25.4038 9.78374L19.8266 9.76323C14.9712 9.74682 14.224 9.75503 14.0599 9.80835ZM25.4986 10.5466C25.8777 10.6943 26.213 11.125 26.2969 11.5679C26.3224 11.7115 26.3333 13.0281 26.326 15.6737L26.3151 19.5702L26.2203 19.7999C26.0964 20.0952 25.8704 20.3495 25.6079 20.4849C25.4257 20.5833 25.3491 20.5956 24.868 20.6161C24.0952 20.6448 24.1681 20.4644 24.1462 22.3552L24.128 23.8892L23.3807 22.9622L22.6335 22.0353L22.6152 18.6719C22.5934 15.3824 22.5934 15.3004 22.5168 15.0789C22.4767 14.9518 22.4038 14.7672 22.3601 14.6688C22.2434 14.4145 21.8352 13.9715 21.5946 13.8402C21.1499 13.5941 21.3102 13.6023 17.1219 13.6023H13.2835V12.5769C13.2835 11.65 13.2908 11.5351 13.3564 11.33C13.4913 10.9281 13.8266 10.6 14.2203 10.4851C14.3078 10.4605 16.3673 10.4523 19.8485 10.4646C24.6274 10.481 25.3564 10.4933 25.4986 10.5466ZM21.066 14.357C21.4378 14.4678 21.7513 14.7795 21.8825 15.1774C21.9591 15.4112 21.9591 15.4153 21.9518 19.439L21.9409 23.4667L21.8497 23.6677C21.7294 23.9343 21.529 24.1558 21.2957 24.2912C21.1243 24.3937 21.0478 24.406 20.5739 24.4347C20.2823 24.4511 18.9955 24.4675 17.7088 24.4675L15.3722 24.4716L15.2592 24.5619C15.1972 24.6152 14.5848 25.3576 13.8959 26.2107L12.6456 27.7693L12.6274 26.1902C12.6164 25.3248 12.6019 24.6111 12.5982 24.607C12.5071 24.5045 12.3503 24.4922 11.1328 24.4716L9.83879 24.4511L9.63101 24.3404C9.37585 24.2091 9.1462 23.9466 9.02226 23.6513L8.92749 23.4257V19.4061V15.3866L9.02226 15.1569C9.15349 14.8451 9.35033 14.6113 9.59456 14.476C9.79505 14.3652 9.82421 14.3611 10.5496 14.3406C10.9615 14.3242 13.4548 14.3119 16.0903 14.3078C20.0016 14.3037 20.9166 14.3119 21.066 14.357Z" fill="white"/>
<path d="M11.2929 17.1269C11.0925 17.2172 11.0378 17.5166 11.1872 17.6807L11.2747 17.7832H13.4181C15.1204 17.7791 15.5761 17.7709 15.6234 17.7258C15.7292 17.6396 15.7729 17.4592 15.7219 17.3238C15.6344 17.0818 15.6635 17.0859 13.4217 17.09C12.2917 17.09 11.333 17.1064 11.2929 17.1269Z" fill="white"/>
<path d="M11.3258 19.2082C11.2165 19.2328 11.0962 19.4092 11.0962 19.5528C11.0962 19.6143 11.1363 19.7209 11.1837 19.7825L11.2712 19.8973L15.3429 19.9096C18.1715 19.9178 19.4583 19.9055 19.5567 19.8768C19.6734 19.8399 19.7171 19.803 19.7572 19.6881C19.8009 19.5692 19.8009 19.5282 19.7572 19.4092C19.7171 19.2985 19.6734 19.2575 19.564 19.2246C19.4291 19.1795 11.5154 19.1672 11.3258 19.2082Z" fill="white"/>
<path d="M11.1876 21.4125C11.0709 21.5396 11.0709 21.7201 11.1839 21.8718L11.2714 21.9867L15.3504 21.999C18.2592 22.0072 19.4658 21.999 19.5642 21.9662C19.6699 21.9293 19.7173 21.8883 19.7574 21.7816C19.8121 21.6257 19.7975 21.5396 19.6882 21.4002L19.6153 21.3099H15.4452H11.275L11.1876 21.4125Z" fill="white"/>
</svg>
