<svg width="35" height="35" viewBox="0 0 35 35" fill="none" xmlns="http://www.w3.org/2000/svg">
<rect width="35" height="35" rx="3" fill="#00B582"/>
<g clip-path="url(#clip0_3419_75363)">
<path d="M18.3539 7.04071C18.529 7.16305 18.6092 7.28719 18.6874 7.49414C18.7077 7.67638 18.7084 7.85795 18.7094 8.04128C18.7101 8.09374 18.7109 8.14621 18.7117 8.20026C18.714 8.36731 18.7155 8.53436 18.7169 8.70142C18.7183 8.81489 18.7198 8.92837 18.7214 9.04184C18.725 9.31956 18.7279 9.59727 18.7303 9.875C18.7782 9.8834 18.8261 9.89179 18.8754 9.90044C19.5554 10.0215 19.5554 10.0215 19.8798 10.1249C19.9149 10.136 19.95 10.1472 19.9862 10.1587C20.6098 10.3671 21.2143 10.6761 21.7382 11.0879C21.7739 11.1159 21.8096 11.1438 21.8464 11.1726C22.9434 12.0631 23.7554 13.2041 24.1632 14.603C24.1728 14.6358 24.1823 14.6686 24.1922 14.7024C24.3622 15.331 24.4211 15.9496 24.4212 16.5996C24.4217 16.6736 24.4223 16.7476 24.4229 16.8216C24.4244 17.0145 24.4253 17.2074 24.426 17.4004C24.4346 19.8754 24.5941 22.034 26.3358 23.8906C26.423 23.9734 26.5119 24.0533 26.6017 24.133C26.9183 24.4262 27.1351 24.7791 27.1625 25.2258C27.1751 25.7414 27.124 26.1785 26.8009 26.5928C26.4552 26.9588 26.0603 27.1375 25.5717 27.1446C25.5105 27.1445 25.5105 27.1445 25.4481 27.1444C25.404 27.1449 25.3599 27.1453 25.3145 27.1458C25.1702 27.1472 25.0258 27.1476 24.8814 27.148C24.7808 27.1487 24.6802 27.1496 24.5796 27.1504C24.3158 27.1526 24.0519 27.1539 23.7881 27.1551C23.5185 27.1564 23.2489 27.1585 22.9793 27.1605C22.451 27.1644 21.9227 27.1674 21.3944 27.1699C21.3776 27.2247 21.3609 27.2795 21.3436 27.3359C21.3209 27.4089 21.2981 27.4819 21.2754 27.5549C21.2644 27.5909 21.2535 27.6269 21.2422 27.6639C20.9717 28.5271 20.3267 29.24 19.5602 29.6519C18.7401 30.0663 17.7848 30.1563 16.9053 29.8794C16.0198 29.5339 15.2898 28.9186 14.8632 28.0234C14.6053 27.4201 14.6053 27.4201 14.6053 27.125C14.5492 27.1254 14.4931 27.1258 14.4353 27.1262C13.9056 27.1299 13.3758 27.1325 12.846 27.1343C12.5737 27.1352 12.3014 27.1365 12.029 27.1386C11.766 27.1405 11.503 27.1416 11.24 27.1421C11.1399 27.1424 11.0397 27.143 10.9396 27.144C10.7989 27.1453 10.6582 27.1455 10.5175 27.1454C10.4765 27.146 10.4354 27.1467 10.3932 27.1474C9.91673 27.1443 9.544 26.9444 9.2047 26.6028C8.87134 26.2264 8.79023 25.8088 8.79566 25.3102C8.83125 24.6629 9.19726 24.2751 9.63403 23.8598C10.7415 22.8003 11.4142 21.2284 11.5116 19.668C11.5176 19.4307 11.5192 19.1934 11.5201 18.9561C11.5207 18.836 11.5215 18.7159 11.5224 18.5958C11.5251 18.2546 11.5274 17.9134 11.5288 17.5722C11.5297 17.3625 11.5313 17.1529 11.5332 16.9432C11.5338 16.8643 11.5341 16.7854 11.5343 16.7065C11.5356 16.0026 11.5955 15.3023 11.8016 14.6283C11.8127 14.5913 11.8237 14.5543 11.8351 14.5162C12.1071 13.6304 12.5343 12.8791 13.1014 12.166C13.1294 12.1303 13.1574 12.0947 13.1862 12.0579C13.3563 11.8472 13.5437 11.6686 13.746 11.4922C13.7953 11.4466 13.7953 11.4466 13.8457 11.4001C14.8217 10.5217 15.9761 10.0963 17.2264 9.875C17.2267 9.84634 17.2269 9.81767 17.2272 9.78814C17.2299 9.48934 17.2336 9.19057 17.2377 8.89179C17.2391 8.78034 17.2403 8.66888 17.2413 8.55742C17.2428 8.39706 17.245 8.23672 17.2474 8.07637C17.2477 8.02667 17.248 7.97696 17.2482 7.92575C17.2542 7.59828 17.2921 7.39444 17.5057 7.14319C17.7238 6.94374 18.0879 6.92813 18.3539 7.04071ZM14.4335 12.8848C14.4013 12.9156 14.3692 12.9465 14.3361 12.9783C13.8154 13.4873 13.4457 14.2034 13.2169 14.9034C13.207 14.9334 13.1971 14.9633 13.1869 14.9941C13.0086 15.5744 12.9538 16.1494 12.9549 16.7545C12.9551 16.8711 12.9545 16.9877 12.9537 17.1043C12.9521 17.3524 12.9515 17.6005 12.951 17.8486C12.9465 20.3469 12.9465 20.3469 12.6852 21.3217C12.6742 21.3637 12.6633 21.4057 12.6521 21.449C12.2682 22.8662 11.4473 24.3328 10.3179 25.245C10.2129 25.3198 10.2129 25.3198 10.1957 25.4432C10.213 25.561 10.213 25.561 10.3152 25.6259C10.4549 25.6964 10.545 25.7044 10.6995 25.7045C10.7525 25.7048 10.8056 25.7052 10.8602 25.7055C10.9189 25.7052 10.9776 25.7049 11.0363 25.7046C11.0987 25.7048 11.1612 25.705 11.2236 25.7053C11.3952 25.7058 11.5669 25.7055 11.7385 25.7051C11.9236 25.7048 12.1087 25.7053 12.2938 25.7057C12.6563 25.7063 13.0189 25.7061 13.3815 25.7057C13.6761 25.7054 13.9707 25.7054 14.2653 25.7055C14.3072 25.7056 14.3491 25.7056 14.3923 25.7056C14.4774 25.7056 14.5625 25.7057 14.6476 25.7057C15.446 25.7061 16.2444 25.7057 17.0428 25.7049C17.7282 25.7043 18.4137 25.7045 19.0991 25.7051C19.8947 25.7058 20.6902 25.7061 21.4858 25.7057C21.5706 25.7056 21.6554 25.7056 21.7402 25.7055C21.8028 25.7055 21.8028 25.7055 21.8666 25.7055C22.161 25.7054 22.4553 25.7056 22.7497 25.7059C23.1082 25.7062 23.4668 25.7061 23.8254 25.7054C24.0084 25.7051 24.1914 25.7049 24.3745 25.7054C24.5419 25.7058 24.7093 25.7056 24.8767 25.7048C24.9374 25.7047 24.9981 25.7048 25.0588 25.7051C25.1411 25.7055 25.2233 25.705 25.3056 25.7045C25.3514 25.7044 25.3971 25.7044 25.4443 25.7044C25.5787 25.6852 25.6382 25.6517 25.7342 25.5527C25.76 25.4412 25.76 25.4412 25.7342 25.3281C25.6787 25.2447 25.6787 25.2447 25.5974 25.1762C25.5684 25.149 25.5394 25.1219 25.5094 25.094C25.4625 25.0514 25.4625 25.0514 25.4147 25.0081C25.1344 24.7436 24.8875 24.4764 24.66 24.1602C24.6239 24.1132 24.5877 24.0663 24.5514 24.0194C23.8294 23.0647 23.3693 21.893 23.1561 20.7012C23.1489 20.6621 23.1418 20.623 23.1344 20.5828C23.0701 20.1955 23.057 19.8187 23.0558 19.4271C23.0554 19.3139 23.0545 19.2008 23.0535 19.0876C23.0515 18.8468 23.05 18.606 23.0487 18.3652C23.0498 15.5948 23.0498 15.5948 21.8241 13.1992C21.7924 13.1596 21.7607 13.12 21.7281 13.0792C20.8627 12.0326 19.6243 11.4434 18.3168 11.3209C16.84 11.2325 15.4759 11.8055 14.4335 12.8848ZM16.0663 27.125C16.3877 27.7972 16.6699 28.1705 17.3365 28.4446C17.8634 28.6253 18.3643 28.5812 18.8673 28.3351C19.3042 28.0892 19.6352 27.779 19.8475 27.3047C19.8617 27.2454 19.8759 27.1861 19.8905 27.125C18.6285 27.125 17.3665 27.125 16.0663 27.125Z" fill="white"/>
<path d="M24.7635 8.19592C24.8634 8.28684 24.9558 8.38127 25.047 8.48177C25.0705 8.5076 25.094 8.53343 25.1183 8.56004C25.1975 8.65158 25.2725 8.74602 25.3477 8.84115C25.3883 8.89093 25.4289 8.9407 25.4694 8.99048C27.0402 10.9406 28.0044 13.4282 28.0977 15.9837C28.0991 16.015 28.1005 16.0463 28.102 16.0785C28.1324 16.8169 28.1324 16.8169 27.9259 17.1068C27.7008 17.2941 27.5253 17.356 27.2384 17.3314C27.0118 17.2501 26.854 17.1412 26.7227 16.9271C26.6785 16.7882 26.6699 16.6795 26.6628 16.5337C26.548 14.4057 26.0491 12.3834 24.8321 10.638C24.8147 10.6129 24.7974 10.5879 24.7795 10.562C24.5686 10.2601 24.3422 9.97921 24.0981 9.70622C23.5664 9.11011 23.5664 9.11011 23.5711 8.68024C23.6036 8.44369 23.731 8.26886 23.9083 8.12521C24.1997 7.9957 24.4978 8.00668 24.7635 8.19592Z" fill="white"/>
<path d="M12.1092 8.17288C12.2697 8.30542 12.359 8.43012 12.3856 8.64175C12.3901 8.97656 12.3381 9.18423 12.1154 9.42736C12.0494 9.49558 11.9831 9.56342 11.9165 9.63091C11.7373 9.8191 11.5816 10.0248 11.4259 10.2342C11.4076 10.2586 11.3893 10.283 11.3705 10.3082C11.0296 10.767 10.7465 11.252 10.4806 11.7615C10.4648 11.7915 10.449 11.8214 10.4327 11.8522C9.73349 13.1913 9.37028 14.7275 9.33662 16.2492C9.327 16.6081 9.29018 16.9084 9.04697 17.1787C8.89972 17.3113 8.75678 17.3283 8.56844 17.3459C8.33551 17.3242 8.1897 17.2437 8.03939 17.0595C7.69173 16.5714 7.89105 15.4554 7.97065 14.8729C8.03947 14.4144 8.13469 13.9626 8.24618 13.5135C8.25541 13.4762 8.26465 13.4389 8.27417 13.4004C8.75116 11.5201 9.71951 9.83905 10.9962 8.43732C11.0255 8.40328 11.0548 8.36923 11.085 8.33414C11.369 8.01266 11.7384 7.94606 12.1092 8.17288Z" fill="white"/>
</g>
<defs>
<clipPath id="clip0_3419_75363">
<rect width="22" height="23" fill="white" transform="translate(7 7)"/>
</clipPath>
</defs>
</svg>
