<svg width="35" height="35" viewBox="0 0 35 35" fill="none" xmlns="http://www.w3.org/2000/svg">
<rect width="35" height="35" rx="3" fill="#00854D"/>
<g clip-path="url(#clip0_3350_433187)">
<path d="M9.32697 12.6871C9.36829 12.6869 9.40961 12.6867 9.45219 12.6864C9.52074 12.6864 9.52074 12.6864 9.59067 12.6864C9.63899 12.6862 9.6873 12.686 9.73708 12.6858C9.90006 12.6852 10.063 12.6849 10.226 12.6846C10.3424 12.6842 10.4589 12.6839 10.5753 12.6835C10.9254 12.6824 11.2756 12.6817 11.6257 12.6811C11.7246 12.681 11.8235 12.6808 11.9223 12.6806C12.5361 12.6795 13.1499 12.6785 13.7637 12.6779C13.9059 12.6778 14.0481 12.6777 14.1903 12.6775C14.2256 12.6775 14.261 12.6775 14.2974 12.6774C14.8701 12.6769 15.4427 12.6754 16.0154 12.6735C16.6031 12.6716 17.1908 12.6705 17.7786 12.6703C18.1086 12.6702 18.4387 12.6696 18.7688 12.6681C19.0792 12.6668 19.3897 12.6665 19.7001 12.667C19.8142 12.667 19.9282 12.6667 20.0423 12.6659C20.1978 12.6649 20.3533 12.6652 20.5088 12.666C20.5541 12.6653 20.5994 12.6647 20.6461 12.6641C20.8491 12.6664 20.9911 12.6713 21.1529 12.8017C21.3082 12.9696 21.3163 13.0651 21.3135 13.2935C21.2986 13.5084 21.2473 13.7142 21.1972 13.9232C21.1862 13.9705 21.1753 14.0178 21.164 14.0665C21.1291 14.2162 21.0937 14.3658 21.0582 14.5154C21.0344 14.6174 21.0106 14.7195 20.9868 14.8215C20.9287 15.0705 20.8701 15.3195 20.8111 15.5683C20.8721 15.5678 20.8721 15.5678 20.9342 15.5674C21.3201 15.5646 21.7059 15.5626 22.0917 15.5613C22.29 15.5606 22.4883 15.5596 22.6866 15.5581C22.8786 15.5566 23.0705 15.5558 23.2625 15.5555C23.3351 15.5552 23.4077 15.5548 23.4803 15.554C24.0859 15.5481 24.6849 15.5906 25.25 15.8294C25.2774 15.841 25.3048 15.8525 25.3331 15.8645C25.753 16.0456 26.1221 16.2615 26.4713 16.5565C26.5073 16.586 26.5433 16.6155 26.5804 16.6459C27.348 17.2999 27.8614 18.2506 27.9986 19.2519C28.0372 19.8573 27.9708 20.4315 27.856 21.0245C27.8411 21.1042 27.8264 21.1838 27.8116 21.2635C27.781 21.4284 27.7498 21.5932 27.7182 21.7579C27.6777 21.9685 27.6384 22.1792 27.5994 22.3901C27.5691 22.5537 27.5384 22.7173 27.5075 22.8808C27.4929 22.9585 27.4783 23.0363 27.4639 23.1141C27.4436 23.2223 27.4229 23.3305 27.402 23.4386C27.3932 23.4861 27.3932 23.4861 27.3843 23.5345C27.3353 23.7832 27.2607 24.0307 27.0553 24.1933C26.9329 24.2341 26.8476 24.2464 26.7206 24.2524C26.6826 24.2543 26.6445 24.2562 26.6053 24.2581C26.5657 24.2599 26.5261 24.2616 26.4853 24.2635C26.4452 24.2654 26.4051 24.2673 26.3638 24.2693C26.2649 24.2741 26.1659 24.2787 26.067 24.2831C26.0539 24.3206 26.0408 24.358 26.0273 24.3966C25.7599 25.1308 25.3446 25.6474 24.6295 25.9901C24.0851 26.2284 23.3336 26.2066 22.7824 26.0044C22.0641 25.6763 21.6511 25.1746 21.3502 24.4628C21.3354 24.4035 21.3206 24.3442 21.3053 24.2831C18.4368 24.2609 18.4368 24.2609 15.5104 24.2382C15.4807 24.3568 15.4511 24.4754 15.4205 24.5976C15.1722 25.2341 14.7461 25.6729 14.1276 25.9579C13.7969 26.094 13.5251 26.1341 13.1688 26.1361C13.1082 26.1375 13.1082 26.1375 13.0463 26.1389C12.3993 26.1427 11.855 25.8657 11.3905 25.4248C11.0906 25.1084 10.7936 24.6919 10.7936 24.2382C10.746 24.2391 10.6984 24.2401 10.6494 24.241C10.4721 24.2443 10.2948 24.2464 10.1174 24.2481C10.0408 24.249 9.96423 24.2502 9.88764 24.2517C9.77724 24.2539 9.66688 24.2549 9.55646 24.2557C9.52247 24.2567 9.48849 24.2576 9.45348 24.2585C9.2212 24.2586 9.09097 24.2119 8.90684 24.0585C8.79598 23.8922 8.78642 23.7573 8.817 23.5644C8.95176 23.3173 8.95176 23.3173 9.08653 23.2499C9.2143 23.246 9.34096 23.2447 9.46872 23.2455C9.52536 23.2456 9.52536 23.2456 9.58315 23.2457C9.70399 23.246 9.82482 23.2465 9.94566 23.2471C10.0275 23.2473 10.1093 23.2475 10.1912 23.2477C10.392 23.2482 10.5928 23.249 10.7936 23.2499C10.7998 23.2012 10.806 23.1524 10.8123 23.1022C10.887 22.6261 11.1994 22.1692 11.5572 21.8573C11.8621 21.6361 12.1767 21.4503 12.5455 21.3632C12.5789 21.3551 12.6122 21.347 12.6466 21.3386C13.1549 21.2549 13.6408 21.3062 14.1178 21.498C14.1508 21.5104 14.1838 21.5229 14.2178 21.5357C14.7237 21.7544 15.1275 22.2378 15.3721 22.7189C15.4374 22.8898 15.4707 23.0714 15.5104 23.2499C16.3405 23.2499 17.1707 23.2499 18.026 23.2499C18.0408 23.1165 18.0556 22.9831 18.0709 22.8456C18.0858 22.7644 18.1021 22.6835 18.1206 22.6031C18.1305 22.5594 18.1405 22.5157 18.1507 22.4707C18.1615 22.4241 18.1723 22.3775 18.1835 22.3295C18.195 22.2791 18.2065 22.2288 18.2183 22.1769C18.2565 22.0101 18.2949 21.8433 18.3334 21.6766C18.3606 21.5583 18.3876 21.44 18.4147 21.3217C18.4722 21.0706 18.5298 20.8196 18.5876 20.5686C18.6774 20.1784 18.7669 19.7882 18.8563 19.398C18.8786 19.3005 18.901 19.203 18.9233 19.1055C18.9382 19.0406 18.9531 18.9758 18.9679 18.911C19.0124 18.7169 19.0569 18.5229 19.1014 18.3288C19.2782 17.5582 19.4542 16.7875 19.6284 16.0163C19.6422 15.9551 19.6422 15.9551 19.6563 15.8928C19.7395 15.5249 19.8224 15.1569 19.9052 14.7889C19.934 14.6608 19.9629 14.5328 19.9918 14.4047C20.011 14.3197 20.03 14.2346 20.0491 14.1496C20.0658 14.0757 20.0658 14.0757 20.0828 14.0003C20.0923 13.9579 20.1019 13.9154 20.1117 13.8717C20.1373 13.7714 20.1373 13.7714 20.1822 13.6815C20.0972 13.6819 20.0972 13.6819 20.0104 13.6822C18.6645 13.687 17.3185 13.6907 15.9726 13.693C15.8069 13.6933 15.6413 13.6936 15.4756 13.6939C15.4427 13.6939 15.4097 13.694 15.3757 13.6941C14.8417 13.695 14.3077 13.6968 13.7736 13.6989C13.2257 13.701 12.6778 13.7022 12.1298 13.7027C11.7917 13.703 11.4536 13.704 11.1155 13.7058C10.8562 13.7071 10.597 13.7073 10.3378 13.707C10.2314 13.707 10.125 13.7075 10.0186 13.7083C9.87354 13.7094 9.7285 13.7092 9.58339 13.7086C9.54118 13.7092 9.49897 13.7099 9.45548 13.7105C9.25887 13.7083 9.12753 13.6992 8.97125 13.5732C8.82242 13.4149 8.79926 13.3212 8.80086 13.1023C8.82939 12.9351 8.92211 12.8548 9.04161 12.7382C9.14707 12.6855 9.2094 12.6875 9.32697 12.6871ZM20.5416 16.5565C20.5348 16.5866 20.528 16.6166 20.5209 16.6475C20.3545 17.3802 20.188 18.113 20.0215 18.8457C19.9409 19.2 19.8604 19.5544 19.7799 19.9087C19.7097 20.2178 19.6394 20.5269 19.5692 20.836C19.5321 20.9994 19.4949 21.1629 19.4578 21.3263C19.4227 21.4806 19.3877 21.6349 19.3526 21.7893C19.3338 21.8719 19.315 21.9546 19.2962 22.0373C19.2847 22.088 19.2732 22.1387 19.2613 22.1909C19.2503 22.2395 19.2393 22.2882 19.2279 22.3383C19.2042 22.4415 19.18 22.5446 19.1554 22.6476C19.143 22.6996 19.1306 22.7516 19.1179 22.8052C19.101 22.8751 19.101 22.8751 19.0838 22.9464C19.0534 23.0786 19.0534 23.0786 19.0592 23.2499C19.8004 23.2499 20.5416 23.2499 21.3053 23.2499C21.3498 23.1313 21.3942 23.0127 21.44 22.8905C21.7068 22.2584 22.1047 21.805 22.7414 21.5302C23.3837 21.2885 24.077 21.2795 24.7118 21.5527C25.3156 21.8567 25.7358 22.3215 25.9491 22.9635C25.9624 23.0086 25.9757 23.0536 25.9894 23.1C26.0123 23.2021 26.0123 23.2021 26.067 23.2499C26.1718 23.2517 26.2767 23.2518 26.3815 23.2499C26.5292 22.5729 26.6635 21.8931 26.7943 21.2127C26.8128 21.1173 26.8315 21.0219 26.8503 20.9266C27.0594 19.8696 27.0839 19.036 26.5162 18.0839C26.4063 17.9236 26.2877 17.7781 26.1568 17.6347C26.1336 17.6073 26.1104 17.58 26.0865 17.5518C25.5447 16.9544 24.6962 16.6096 23.9044 16.5492C23.6624 16.5384 23.4204 16.541 23.1781 16.5434C23.1015 16.5436 23.025 16.5438 22.9484 16.544C22.7492 16.5445 22.55 16.5458 22.3509 16.5473C22.1467 16.5487 21.9425 16.5493 21.7383 16.55C21.3394 16.5514 20.9405 16.5537 20.5416 16.5565ZM12.0175 22.8519C11.7594 23.2177 11.6927 23.5704 11.7369 24.0136C11.8171 24.3619 12.0071 24.6348 12.276 24.8671C12.6726 25.1133 13.0459 25.1974 13.5101 25.1175C13.8782 25.0117 14.1598 24.7853 14.362 24.4628C14.5669 24.0871 14.6239 23.7462 14.5108 23.3341C14.394 22.9799 14.1643 22.66 13.8358 22.4729C13.1924 22.1775 12.4806 22.2868 12.0175 22.8519ZM22.5743 22.8372C22.2959 23.2316 22.2425 23.5747 22.2936 24.0585C22.3862 24.4351 22.6497 24.7418 22.9702 24.9513C23.3225 25.1506 23.68 25.2028 24.0778 25.1073C24.4647 24.9682 24.7928 24.6921 24.9889 24.328C25.1277 23.979 25.1425 23.5934 25.0326 23.2336C24.864 22.8661 24.6088 22.5696 24.2364 22.3992C23.583 22.1856 23.0466 22.3542 22.5743 22.8372Z" fill="white"/>
<path d="M5.51573 20.3682C5.56769 20.3678 5.61965 20.3674 5.67318 20.367C5.75912 20.3668 5.75912 20.3668 5.84679 20.3665C5.90751 20.3661 5.96824 20.3657 6.02896 20.3653C6.22866 20.3642 6.42835 20.3635 6.62804 20.3628C6.69676 20.3626 6.76548 20.3624 6.8342 20.3621C7.12002 20.3611 7.40584 20.3603 7.69166 20.3598C8.10142 20.3591 8.51117 20.3576 8.92092 20.355C9.20896 20.3533 9.49699 20.3524 9.78503 20.3522C9.95711 20.352 10.1292 20.3515 10.3012 20.35C10.4631 20.3487 10.625 20.3484 10.7869 20.3489C10.8746 20.3489 10.9623 20.3478 11.0499 20.3467C11.4785 20.3497 11.4785 20.3497 11.6173 20.4828C11.7325 20.6564 11.7587 20.7975 11.7398 21.004C11.6492 21.1887 11.5713 21.2892 11.3805 21.3634C11.265 21.3748 11.265 21.3748 11.1318 21.3751C11.0813 21.3754 11.0307 21.3758 10.9786 21.3761C10.9233 21.376 10.868 21.3759 10.8111 21.3757C10.7527 21.376 10.6943 21.3762 10.6342 21.3764C10.4741 21.377 10.3141 21.3771 10.1541 21.377C10.0205 21.3769 9.88687 21.3771 9.75324 21.3773C9.43797 21.3778 9.1227 21.3779 8.80742 21.3776C8.48228 21.3773 8.15714 21.3779 7.832 21.3788C7.55274 21.3796 7.27347 21.3799 6.99421 21.3797C6.82746 21.3797 6.66072 21.3798 6.49398 21.3804C6.30803 21.3811 6.1221 21.3807 5.93615 21.3801C5.88095 21.3805 5.82576 21.3808 5.76889 21.3812C5.71819 21.3809 5.66749 21.3805 5.61526 21.3802C5.54933 21.3802 5.54933 21.3802 5.48208 21.3802C5.30755 21.356 5.19307 21.2726 5.05613 21.1665C4.9605 21.0392 4.98098 20.9082 4.98524 20.7547C5.00791 20.6018 5.06835 20.523 5.18124 20.42C5.29835 20.3615 5.38453 20.3689 5.51573 20.3682Z" fill="white"/>
<path d="M6.42309 17.4932C6.46711 17.4928 6.51113 17.4924 6.55649 17.492C6.60496 17.4918 6.65343 17.4917 6.70337 17.4915C6.75429 17.4911 6.8052 17.4907 6.85766 17.4903C7.02673 17.4892 7.19579 17.4885 7.36486 17.4878C7.42248 17.4876 7.48011 17.4874 7.53947 17.4871C7.7816 17.4862 8.02372 17.4853 8.26584 17.4848C8.61281 17.4841 8.95976 17.4826 9.30672 17.48C9.58011 17.4781 9.85349 17.4774 10.1269 17.4771C10.2432 17.4768 10.3595 17.4761 10.4758 17.475C10.6384 17.4736 10.8009 17.4736 10.9636 17.4739C11.0118 17.4732 11.06 17.4724 11.1096 17.4717C11.4363 17.4744 11.4363 17.4744 11.6117 17.6078C11.7338 17.7798 11.7588 17.9204 11.7397 18.129C11.6487 18.3143 11.5707 18.4126 11.3803 18.4884C11.2796 18.5 11.2796 18.5 11.1678 18.5004C11.1252 18.5008 11.0826 18.5012 11.0388 18.5016C10.9924 18.5015 10.946 18.5015 10.8982 18.5015C10.8245 18.5019 10.8245 18.5019 10.7494 18.5024C10.5868 18.5032 10.4243 18.5034 10.2618 18.5035C10.1489 18.5038 10.036 18.5041 9.92307 18.5044C9.6863 18.5049 9.44953 18.5051 9.21275 18.5051C8.93941 18.505 8.66608 18.5059 8.39274 18.5074C8.12942 18.5087 7.86612 18.509 7.6028 18.509C7.49093 18.5091 7.37906 18.5095 7.2672 18.5102C7.11073 18.511 6.9543 18.5108 6.79783 18.5102C6.75162 18.5107 6.7054 18.5112 6.65779 18.5118C6.39106 18.5094 6.23693 18.4878 6.03458 18.3087C5.92372 18.1424 5.91415 18.0075 5.94473 17.8146C6.07813 17.57 6.15013 17.495 6.42309 17.4932Z" fill="white"/>
<path d="M7.5727 14.5955C7.61444 14.5951 7.65617 14.5947 7.69917 14.5943C7.8369 14.5933 7.97456 14.594 8.11229 14.5947C8.20812 14.5946 8.30395 14.5943 8.39978 14.5941C8.60053 14.5937 8.80125 14.5942 9.002 14.5953C9.25927 14.5965 9.51648 14.5958 9.77374 14.5945C9.9716 14.5936 10.1694 14.5939 10.3673 14.5945C10.4621 14.5946 10.557 14.5945 10.6519 14.5939C10.7845 14.5934 10.917 14.5942 11.0496 14.5955C11.1083 14.5948 11.1083 14.5948 11.1683 14.5941C11.3659 14.5976 11.4434 14.6055 11.6034 14.7324C11.7326 14.9027 11.7562 15.0425 11.7369 15.2534C11.6469 15.4369 11.5699 15.5442 11.3776 15.6128C11.2443 15.6219 11.1153 15.626 10.9821 15.6259C10.9421 15.6262 10.9022 15.6265 10.8611 15.6268C10.7292 15.6276 10.5973 15.6278 10.4654 15.6279C10.3737 15.6282 10.2819 15.6285 10.1902 15.6288C9.9978 15.6294 9.80544 15.6295 9.61307 15.6295C9.36675 15.6295 9.12044 15.6307 8.87412 15.6322C8.68459 15.6332 8.49507 15.6334 8.30554 15.6334C8.21473 15.6335 8.12393 15.6339 8.03312 15.6346C7.90602 15.6354 7.77897 15.6352 7.65187 15.6346C7.59577 15.6354 7.59577 15.6354 7.53855 15.6362C7.30003 15.6336 7.16492 15.5907 6.97521 15.4331C6.88512 15.3043 6.8734 15.2091 6.88817 15.0541C6.89055 15.0208 6.89292 14.9875 6.89537 14.9532C7.01058 14.6099 7.25958 14.5918 7.5727 14.5955Z" fill="white"/>
</g>
<defs>
<clipPath id="clip0_3350_433187">
<rect width="23" height="23" fill="white" transform="translate(5 6)"/>
</clipPath>
</defs>
</svg>
