<svg width="16" height="16" viewBox="0 0 16 16" fill="none" xmlns="http://www.w3.org/2000/svg">
<g clip-path="url(#clip0_657_46527)">
<path d="M0.600347 2.69469C0.648121 2.71202 0.695738 2.72979 0.743215 2.74792C0.769497 2.75758 0.795779 2.76724 0.822858 2.77719C0.909335 2.80907 0.995585 2.84153 1.08184 2.87402C1.14243 2.89655 1.20304 2.91905 1.26365 2.94152C1.35864 2.97675 1.4536 3.01204 1.5485 3.0475C1.77905 3.13363 2.01029 3.21771 2.24187 3.30102C2.33883 3.33611 2.43576 3.37124 2.53269 3.40641C2.59481 3.42887 2.65697 3.45121 2.71918 3.47342C3.21696 3.65137 3.66286 3.81908 3.93145 4.30566C3.98727 4.42578 4.01542 4.53668 4.03533 4.66748C4.04311 4.71746 4.04311 4.71746 4.05104 4.76846C4.05476 4.79363 4.05848 4.81879 4.06231 4.84472C4.09626 4.84189 4.09626 4.84189 4.13089 4.839C4.34685 4.821 4.56282 4.80307 4.7788 4.78523C4.88976 4.77605 5.00073 4.76685 5.11168 4.75759C5.23999 4.74688 5.36831 4.73627 5.49663 4.7257C5.51747 4.72398 5.53831 4.72226 5.55978 4.72048C5.84789 4.69674 6.13554 4.67756 6.42444 4.66735C6.58297 4.65229 6.71014 4.60778 6.84234 4.52002C6.87567 4.49847 6.87567 4.49847 6.90967 4.47649C6.94462 4.4538 6.94462 4.4538 6.98028 4.43066C7.60163 4.03927 8.29792 3.89234 9.02585 4.03309C9.38463 4.11611 9.71304 4.28086 10.0417 4.44262C10.9859 4.93247 10.9859 4.93247 11.9998 5.15722C12.0101 5.13342 12.0204 5.10961 12.0309 5.08508C12.2774 4.55009 12.6768 4.36407 13.2042 4.16882C13.3782 4.1055 13.5526 4.04314 13.7271 3.98121C13.8643 3.93245 14.0014 3.88325 14.1384 3.8341C14.216 3.80634 14.2936 3.77868 14.3712 3.75113C14.5669 3.6815 14.7615 3.60994 14.955 3.53437C14.993 3.5197 15.031 3.50502 15.0702 3.4899C15.142 3.46206 15.2136 3.43374 15.285 3.40485C15.468 3.33428 15.6527 3.26406 15.8436 3.34472C15.925 3.40728 15.9895 3.45808 16.0143 3.5612C16.02 3.63601 16.0206 3.70944 16.0196 3.78446C16.0199 3.81307 16.0201 3.84167 16.0204 3.87115C16.021 3.96705 16.0205 4.06291 16.02 4.15881C16.0202 4.22754 16.0205 4.29628 16.0209 4.36501C16.0216 4.55174 16.0213 4.73845 16.0208 4.92517C16.0204 5.12046 16.0208 5.31574 16.021 5.51102C16.0213 5.86 16.0208 6.20897 16.02 6.55795C16.0193 6.87432 16.0195 7.19068 16.0202 7.50705C16.021 7.8745 16.0213 8.24194 16.0209 8.6094C16.0206 8.80389 16.0206 8.99837 16.0211 9.19286C16.0216 9.37569 16.0212 9.55851 16.0203 9.74135C16.0201 9.80851 16.0202 9.87567 16.0205 9.94282C16.021 10.0344 16.0204 10.1259 16.0196 10.2175C16.02 10.2442 16.0203 10.2708 16.0207 10.2983C16.0185 10.433 16.0121 10.4853 15.9263 10.5949C15.7846 10.7017 15.6543 10.6935 15.4839 10.6937C15.4577 10.6938 15.4314 10.6939 15.4044 10.694C15.3488 10.6942 15.2931 10.6943 15.2375 10.6943C15.1531 10.6943 15.0688 10.6949 14.9844 10.6955C14.9302 10.6956 14.876 10.6956 14.8218 10.6957C14.7969 10.6959 14.772 10.6961 14.7463 10.6964C14.3298 10.6947 14.0142 10.5534 13.7066 10.275C13.6561 10.2197 13.6561 10.2197 13.6561 10.1572C13.2705 10.3456 13.2705 10.3456 12.9004 10.5625C12.8436 10.5947 12.8436 10.5947 12.7811 10.5947C12.7869 10.6219 12.7927 10.6491 12.7988 10.6771C12.8312 10.9288 12.7326 11.174 12.5851 11.375C12.3709 11.6265 12.1541 11.773 11.824 11.8037C11.6795 11.82 11.6795 11.82 11.5669 11.9033C11.5375 11.952 11.5093 12.0014 11.4824 12.0515C11.3416 12.2842 11.0676 12.4039 10.8194 12.4886C10.7364 12.5034 10.6562 12.5002 10.5721 12.4989C10.3591 12.4962 10.3591 12.4962 10.1783 12.5961C10.1436 12.6504 10.1107 12.7058 10.0796 12.7622C9.96274 12.9608 9.74223 13.09 9.52959 13.1682C9.31809 13.2147 9.06399 13.2202 8.85393 13.1676C8.75569 13.1536 8.71024 13.1831 8.62481 13.2314C8.28915 13.4192 7.83173 13.3784 7.47002 13.2812C6.95307 13.1169 6.55056 12.7938 6.12481 12.4697C6.07065 12.4287 6.01649 12.3876 5.96233 12.3466C5.66679 12.1223 5.37269 11.8963 5.08181 11.666C5.02997 11.6251 4.97793 11.5845 4.92583 11.5439C4.60271 11.2921 4.28722 11.0313 3.97198 10.7698C3.57762 10.4444 3.17149 10.1342 2.7586 9.8328C2.63896 9.74542 2.52076 9.65734 2.40606 9.56347C2.30809 9.60794 2.23264 9.66266 2.1502 9.73144C1.94412 9.89468 1.71836 10.0031 1.45276 10.0065C1.42512 10.0069 1.39748 10.0073 1.369 10.0077C1.32456 10.0081 1.32456 10.0081 1.27923 10.0084C1.24856 10.0087 1.21789 10.0089 1.1863 10.0092C1.1215 10.0096 1.0567 10.01 0.991895 10.0102C0.892855 10.0107 0.793846 10.0121 0.694814 10.0135C0.631806 10.0138 0.568797 10.0141 0.505788 10.0143C0.476227 10.0148 0.446665 10.0154 0.416208 10.0159C0.28172 10.0155 0.207781 10.0136 0.0912299 9.94155C-0.0220199 9.81813 -0.00490994 9.70217 -0.00500256 9.54245C-0.0051395 9.51405 -0.00527643 9.48565 -0.00541752 9.45639C-0.00583689 9.36064 -0.00602923 9.26489 -0.0062204 9.16915C-0.00646722 9.10074 -0.00672562 9.03232 -0.00699478 8.96391C-0.00781503 8.73876 -0.00829257 8.5136 -0.0087381 8.28845C-0.00890555 8.21104 -0.00907359 8.13364 -0.00924224 8.05623C-0.00991822 7.73436 -0.0105038 7.41248 -0.0108554 7.0906C-0.010947 7.00706 -0.0110395 6.92351 -0.0111337 6.83997C-0.011157 6.81921 -0.0111803 6.79844 -0.0112044 6.77705C-0.0115999 6.44059 -0.0126382 6.10414 -0.01394 5.76769C-0.0152652 5.42236 -0.0159893 5.07704 -0.0161654 4.73171C-0.0162798 4.53777 -0.0166577 4.34385 -0.0176687 4.14992C-0.0186058 3.96752 -0.0188069 3.78514 -0.0184379 3.60274C-0.018431 3.53573 -0.0186925 3.46872 -0.0192396 3.40172C-0.0199452 3.31035 -0.0196911 3.21903 -0.0191932 3.12765C-0.019627 3.10104 -0.0200609 3.07442 -0.0205078 3.04699C-0.0186783 2.91106 -0.0129428 2.86059 0.0752131 2.75087C0.240116 2.6236 0.40808 2.63199 0.600347 2.69469ZM0.687307 3.50097C0.687307 5.4191 0.687307 7.33722 0.687307 9.31347C1.30203 9.37141 1.30203 9.37141 1.77739 9.13826C1.92728 8.93379 2.00743 8.70013 2.09368 8.46411C2.11123 8.41705 2.12881 8.37 2.14643 8.32297C2.18338 8.22418 2.22009 8.12532 2.25662 8.02638C2.3109 7.8795 2.36593 7.73291 2.42118 7.58639C2.52128 7.32078 2.62091 7.05499 2.7204 6.78915C2.76674 6.66537 2.81311 6.54161 2.85949 6.41784C2.91187 6.27804 2.96424 6.13823 3.01659 5.99842C3.02445 5.97745 3.0323 5.95648 3.04039 5.93488C3.05584 5.8936 3.07126 5.85231 3.08665 5.81101C3.12652 5.70411 3.167 5.5975 3.20837 5.49118C3.21695 5.46891 3.22553 5.44664 3.23437 5.4237C3.25064 5.3815 3.26709 5.33938 3.28375 5.29734C3.3831 5.03831 3.38839 4.84739 3.28106 4.59472C3.11848 4.307 2.73426 4.22668 2.44329 4.12292C2.40158 4.10792 2.35987 4.09291 2.31817 4.07789C2.20895 4.03859 2.09967 3.99948 1.99037 3.96041C1.90166 3.92865 1.813 3.89676 1.72434 3.86486C1.61765 3.82648 1.51094 3.78817 1.40423 3.74987C1.38425 3.7427 1.36427 3.73553 1.34368 3.72814C1.2863 3.70755 1.22891 3.68702 1.17151 3.66649C1.13902 3.65486 1.10654 3.64324 1.07306 3.63126C0.944946 3.58647 0.816064 3.54389 0.687307 3.50097ZM15.049 4.24574C15.0142 4.25827 14.9794 4.27081 14.9436 4.28372C14.9059 4.29749 14.8682 4.31125 14.8294 4.32544C14.79 4.33971 14.7506 4.35398 14.7113 4.36823C14.6284 4.39824 14.5456 4.42836 14.4629 4.45855C14.3582 4.49674 14.2534 4.53473 14.1486 4.57265C13.9007 4.66238 13.6532 4.75306 13.4061 4.84472C13.3784 4.85494 13.3508 4.86516 13.3223 4.87569C13.2557 4.90052 13.1893 4.92581 13.123 4.95141C13.0729 4.97061 13.0729 4.97061 13.0218 4.99019C12.8453 5.07795 12.7345 5.20896 12.6542 5.38672C12.5508 5.74673 12.7969 6.16918 12.9222 6.50427C12.9389 6.54919 12.9556 6.59412 12.9722 6.63905C13.0164 6.75805 13.0608 6.877 13.1052 6.99592C13.1327 7.06962 13.1602 7.14333 13.1877 7.21705C13.2875 7.48496 13.3876 7.7528 13.4878 8.02057C13.5409 8.16246 13.5939 8.30438 13.6468 8.44633C13.7051 8.60268 13.7636 8.75893 13.8225 8.91506C13.8428 8.96912 13.8631 9.0232 13.8832 9.07732C14.0604 9.58109 14.0604 9.58109 14.4354 9.94433C14.7036 10.05 15.0493 10.001 15.3123 10.001C15.3123 8.08285 15.3123 6.16472 15.3123 4.18847C15.2093 4.18847 15.1456 4.21068 15.049 4.24574ZM6.96856 5.31347C6.95075 5.32816 6.93294 5.34284 6.91459 5.35797C6.46793 5.72803 6.06214 6.11559 5.79278 6.63574C5.78206 6.6559 5.77134 6.67607 5.7603 6.69684C5.68705 6.84595 5.6712 6.95999 5.68731 7.12597C5.77076 7.22919 5.84004 7.30637 5.97527 7.32092C6.31758 7.33025 6.61121 7.22022 6.87481 7.00097C6.93434 6.93778 6.98979 6.87345 7.04339 6.80517C7.1611 6.67801 7.31476 6.66703 7.47832 6.63574C7.72297 6.58645 7.92446 6.5051 8.14263 6.38513C8.2836 6.33198 8.35354 6.3423 8.49981 6.37597C8.56463 6.41369 8.56463 6.41369 8.61504 6.46386C8.63559 6.48348 8.65613 6.5031 8.6773 6.52331C8.70123 6.54688 8.72515 6.57044 8.74981 6.59472C8.81517 6.65635 8.88111 6.71734 8.94707 6.77832C8.96461 6.7946 8.98214 6.81089 9.0002 6.82767C9.13262 6.95001 9.26961 7.06509 9.41021 7.17798C9.5128 7.26156 9.61271 7.3479 9.7127 7.43457C9.85683 7.55918 10.0034 7.67933 10.1541 7.7959C10.333 7.93438 10.5046 8.07993 10.6747 8.22903C10.7891 8.3292 10.9049 8.42697 11.0232 8.52246C11.1682 8.63987 11.3065 8.76331 11.4435 8.88989C11.5107 8.95112 11.5785 9.01062 11.6474 9.06982C11.8001 9.20305 11.9428 9.34567 12.0857 9.48925C12.125 9.52829 12.125 9.52829 12.165 9.56811C12.1902 9.59341 12.2155 9.61871 12.2415 9.64477C12.2641 9.66744 12.2868 9.6901 12.3101 9.71345C12.3778 9.7854 12.4391 9.86056 12.4998 9.93847C12.6589 9.87685 12.8077 9.80057 12.9588 9.72168C12.9859 9.70784 13.013 9.694 13.0409 9.67975C13.0668 9.66623 13.0926 9.65272 13.1193 9.63879C13.1546 9.62049 13.1546 9.62049 13.1907 9.60181C13.259 9.56303 13.259 9.56303 13.3123 9.46972C13.293 9.37925 13.293 9.37925 13.2523 9.27811C13.2451 9.25875 13.2379 9.23938 13.2305 9.21943C13.2065 9.15479 13.1818 9.09041 13.1572 9.026C13.1401 8.98046 13.123 8.93491 13.106 8.88934C13.0604 8.76732 13.0142 8.6455 12.9679 8.52371C12.9204 8.39847 12.8734 8.27306 12.8263 8.14766C12.7519 7.9497 12.6773 7.75184 12.6025 7.55406C12.5155 7.32408 12.4292 7.09384 12.3434 6.8634C12.3216 6.80481 12.2998 6.74623 12.2779 6.68764C12.268 6.66085 12.258 6.63407 12.2477 6.60647C12.2381 6.58068 12.2285 6.55489 12.2186 6.52832C12.2091 6.50282 12.1996 6.47733 12.1898 6.45106C12.1636 6.381 12.1374 6.31098 12.1111 6.24096C12.097 6.20317 12.0829 6.16538 12.0683 6.12645C12.056 6.09535 12.0437 6.06426 12.0311 6.03222C12.0223 6.00845 12.0135 5.98467 12.0044 5.96017C11.9527 5.88386 11.9023 5.87562 11.8144 5.85132C11.7823 5.84207 11.7502 5.83283 11.7172 5.8233C11.6822 5.81361 11.6472 5.80392 11.6111 5.79394C10.9195 5.59037 10.2668 5.33519 9.62041 5.01764C8.64739 4.54264 7.80711 4.61995 6.96856 5.31347ZM5.54153 5.41802C5.50525 5.42115 5.46897 5.42428 5.43159 5.42751C5.39243 5.43108 5.35327 5.43466 5.31292 5.43835C5.27282 5.44186 5.23272 5.44538 5.19141 5.44899C5.0849 5.45833 4.9784 5.46789 4.87191 5.47751C4.76321 5.48728 4.65449 5.49683 4.54577 5.50641C4.33251 5.52521 4.11928 5.54426 3.90606 5.56347C3.80004 5.84059 3.69408 6.11772 3.58816 6.39487C3.54018 6.5204 3.49218 6.64593 3.44412 6.77143C3.34478 7.03086 3.24565 7.29036 3.14705 7.55007C3.10148 7.67009 3.05576 7.79005 3.00977 7.90991C2.96402 8.02915 2.9186 8.14851 2.87342 8.26797C2.85642 8.31274 2.8393 8.35747 2.82206 8.40215C2.79835 8.46364 2.77508 8.52527 2.7519 8.58696C2.73862 8.62178 2.72534 8.6566 2.71166 8.69248C2.68714 8.78284 2.68198 8.82236 2.71856 8.90722C2.9239 9.11606 3.18644 9.28105 3.42235 9.45369C3.80382 9.73332 4.17608 10.0231 4.53521 10.3309C4.63942 10.4197 4.74569 10.5053 4.85296 10.5903C4.91625 10.6405 4.97929 10.691 5.04217 10.7417C5.26993 10.9252 5.49997 11.1053 5.7328 11.2824C5.8709 11.3874 6.00812 11.4935 6.14473 11.6005C6.36527 11.7732 6.58745 11.9434 6.81231 12.1103C6.84759 12.1368 6.84759 12.1368 6.88358 12.1637C7.10204 12.3248 7.32889 12.4852 7.5877 12.5732C7.61497 12.5828 7.64224 12.5923 7.67034 12.6022C7.82536 12.6486 7.96274 12.6604 8.12481 12.6572C7.99668 12.5044 7.86357 12.3608 7.72161 12.2208C7.70158 12.2009 7.68156 12.181 7.66093 12.1605C7.57626 12.0763 7.4914 11.9924 7.40655 11.9084C7.34419 11.8466 7.28192 11.7847 7.21966 11.7228C7.19147 11.695 7.19147 11.695 7.16272 11.6666C6.71019 11.2167 6.71019 11.2167 6.70684 11.0205C6.7099 10.9214 6.71961 10.8738 6.76348 10.7822C6.86018 10.7068 6.92986 10.693 7.04937 10.6776C7.25394 10.7071 7.39534 10.8939 7.52642 11.0388C7.56796 11.0839 7.60956 11.1289 7.65121 11.1739C7.67258 11.197 7.69396 11.2201 7.71598 11.2439C7.88291 11.4223 8.05571 11.5951 8.22822 11.7681C8.29362 11.8339 8.35869 11.8999 8.42376 11.9659C8.46626 12.0086 8.50878 12.0513 8.55132 12.094C8.57975 12.123 8.57975 12.123 8.60875 12.1526C8.76916 12.3122 8.94755 12.4812 9.17559 12.5205C9.32453 12.4929 9.44286 12.4446 9.54131 12.3259C9.57124 12.2815 9.59832 12.2351 9.62481 12.1885C9.58016 12.0865 9.52573 12.0194 9.44681 11.9414C9.41127 11.906 9.41127 11.906 9.37502 11.8699C9.34937 11.8447 9.32372 11.8194 9.29729 11.7935C9.27085 11.7672 9.2444 11.7409 9.21716 11.7138C9.13249 11.6297 9.04761 11.5458 8.9627 11.4619C8.87837 11.3785 8.79409 11.2949 8.70991 11.2113C8.65755 11.1594 8.6051 11.1075 8.55256 11.0557C8.09855 10.6055 8.09855 10.6055 8.03106 10.4072C8.03597 10.2648 8.05368 10.1659 8.15606 10.0635C8.26916 10.0258 8.34957 10.0221 8.46856 10.0322C8.62522 10.1207 8.73495 10.2338 8.85345 10.366C9.08116 10.6147 9.31667 10.8549 9.55514 11.0934C9.62372 11.162 9.69205 11.2309 9.76037 11.2998C9.80464 11.3442 9.84893 11.3885 9.89324 11.4329C9.9133 11.4531 9.93335 11.4734 9.95402 11.4943C10.1764 11.7215 10.1764 11.7215 10.4647 11.8311C10.6429 11.8189 10.8114 11.7482 10.9412 11.626C10.9764 11.5456 10.968 11.52 10.9373 11.4385C10.8822 11.37 10.8822 11.37 10.811 11.302C10.7708 11.262 10.7708 11.262 10.7297 11.2211C10.6859 11.1781 10.6859 11.1781 10.6412 11.1343C10.6109 11.1042 10.5806 11.0742 10.5504 11.0441C10.4706 10.9649 10.3906 10.8859 10.3105 10.8071C10.1829 10.6813 10.0558 10.5552 9.9286 10.4291C9.88446 10.3854 9.8402 10.3418 9.79593 10.2982C9.65402 10.1579 9.51668 10.0161 9.38733 9.86407C9.31299 9.77814 9.22963 9.70206 9.14666 9.62463C9.05447 9.51845 9.02956 9.43559 9.03692 9.2959C9.06167 9.19119 9.08082 9.13871 9.15606 9.06347C9.30091 9.01519 9.41713 9.00708 9.55645 9.07519C9.74646 9.21847 9.91039 9.40132 10.0646 9.58148C10.1979 9.73409 10.3401 9.87697 10.4835 10.02C10.5112 10.0478 10.539 10.0756 10.5676 10.1042C10.6407 10.1774 10.7139 10.2505 10.7872 10.3235C10.8468 10.3831 10.9064 10.4428 10.9659 10.5025C11.0374 10.5742 11.1091 10.6457 11.1807 10.7173C11.2072 10.7439 11.2338 10.7705 11.2611 10.7979C11.2861 10.8227 11.311 10.8475 11.3367 10.8731C11.3584 10.8949 11.3802 10.9166 11.4026 10.939C11.5442 11.0824 11.5442 11.0824 11.7303 11.1299C11.8723 11.0858 11.9613 11.0148 12.0623 10.9072C12.1191 10.7937 12.118 10.6848 12.0936 10.5635C11.9503 10.3091 11.7384 10.1015 11.5313 9.89872C11.484 9.85236 11.437 9.80567 11.3901 9.75891C11.2236 9.59374 11.0536 9.43405 10.8748 9.28222C10.8388 9.25107 10.8028 9.2199 10.7668 9.18872C10.5732 9.02218 10.3783 8.8578 10.18 8.6969C10.0844 8.61844 9.99033 8.53831 9.89629 8.458C9.75767 8.33979 9.61649 8.22582 9.47246 8.11425C9.17306 7.88177 8.88917 7.63135 8.60918 7.37597C8.58457 7.3543 8.55996 7.33263 8.5346 7.3103C8.46856 7.25097 8.46856 7.25097 8.41521 7.1936C8.35856 7.13929 8.32659 7.11259 8.24981 7.09472C8.14209 7.12179 8.04705 7.16167 7.94597 7.20764C7.85188 7.24745 7.77996 7.2636 7.6795 7.27441C7.5118 7.3029 7.44036 7.39641 7.32879 7.51819C6.96536 7.87038 6.46461 7.98955 5.97267 7.98451C5.77479 7.97745 5.6075 7.95232 5.43731 7.84472C5.41737 7.83256 5.39743 7.82039 5.37688 7.80786C5.19823 7.678 5.09588 7.48999 5.03106 7.28222C4.95661 6.80981 5.10694 6.36612 5.38004 5.98074C5.51723 5.7944 5.66366 5.61573 5.81231 5.43847C5.70893 5.40402 5.64939 5.40843 5.54153 5.41802Z" fill="white"/>
</g>
<defs>
<clipPath id="clip0_657_46527">
<rect width="16" height="16" fill="white"/>
</clipPath>
</defs>
</svg>
