<svg width="17" height="17" viewBox="0 0 17 17" fill="none" xmlns="http://www.w3.org/2000/svg">
<path d="M7.32647 0.904487C7.47516 0.904666 7.62385 0.904498 7.77253 0.90439C8.02197 0.904265 8.27141 0.904428 8.52085 0.904761C8.80658 0.905139 9.09231 0.905017 9.37805 0.904635C9.62618 0.904316 9.87431 0.904276 10.1224 0.904457C10.2694 0.904563 10.4164 0.904584 10.5633 0.90435C12.223 0.902072 14.0033 0.968247 15.3314 2.09502C15.366 2.12203 15.366 2.12203 15.4013 2.14958C16.3414 2.90848 16.7 4.24029 16.8365 5.38551C16.9041 6.03213 16.9051 6.67841 16.9041 7.32762C16.9039 7.47641 16.9041 7.62521 16.9042 7.774C16.9043 8.02359 16.9042 8.27317 16.9038 8.52275C16.9035 8.80877 16.9036 9.09477 16.904 9.38079C16.9043 9.62909 16.9043 9.8774 16.9041 10.1257C16.904 10.2728 16.904 10.4199 16.9042 10.567C16.9065 12.2236 16.8378 14.0063 15.7136 15.3314C15.6866 15.366 15.6866 15.366 15.659 15.4013C14.9123 16.3263 13.587 16.7045 12.4558 16.8365C11.7968 16.9025 11.1389 16.9052 10.4775 16.9041C10.3288 16.9039 10.1801 16.9041 10.0313 16.9042C9.78197 16.9043 9.5326 16.9042 9.28322 16.9038C8.99746 16.9035 8.71171 16.9036 8.42596 16.904C8.1778 16.9043 7.92964 16.9043 7.68148 16.9041C7.53449 16.904 7.38751 16.904 7.24052 16.9042C5.58423 16.9065 3.80197 16.8375 2.47717 15.7136C2.44258 15.6866 2.44258 15.6866 2.40728 15.659C1.48228 14.9123 1.10408 13.587 0.972063 12.4558C0.906161 11.7972 0.903432 11.1397 0.904486 10.4786C0.904666 10.33 0.904499 10.1814 0.904391 10.0328C0.904265 9.78359 0.904428 9.53436 0.904762 9.28513C0.90514 8.99965 0.905017 8.71417 0.904634 8.4287C0.904316 8.18071 0.904276 7.93273 0.904457 7.68475C0.904563 7.5379 0.904584 7.39105 0.90435 7.2442C0.90207 5.58487 0.968506 3.80501 2.09502 2.47717C2.11302 2.45411 2.13103 2.43105 2.14958 2.40728C2.90848 1.46724 4.24031 1.10853 5.38553 0.972063C6.03177 0.904579 6.67765 0.903453 7.32647 0.904487ZM3.03303 3.13726C2.02022 4.27687 2.04867 5.89144 2.05095 7.32524C2.05113 7.47423 2.05096 7.62323 2.05085 7.77223C2.05072 8.02217 2.05089 8.27211 2.05122 8.52204C2.0516 8.80859 2.05148 9.09513 2.05109 9.38167C2.05078 9.6303 2.05074 9.87893 2.05092 10.1276C2.05102 10.2749 2.05104 10.4223 2.05081 10.5696C2.04219 12.8102 2.04219 12.8102 3.08677 14.726C4.18082 15.7991 5.87978 15.7599 7.30215 15.7576C7.4533 15.7575 7.60444 15.7576 7.75559 15.7577C8.00915 15.7579 8.26271 15.7577 8.51627 15.7574C8.80714 15.757 9.098 15.7571 9.38887 15.7575C9.64107 15.7578 9.89327 15.7579 10.1455 15.7577C10.295 15.7576 10.4446 15.7576 10.5941 15.7578C12.8219 15.7635 12.8219 15.7635 14.726 14.7218C15.8043 13.6225 15.7599 11.912 15.7576 10.4834C15.7575 10.3344 15.7576 10.1854 15.7577 10.0364C15.7579 9.78643 15.7577 9.53649 15.7574 9.28655C15.757 9.00001 15.7571 8.71347 15.7575 8.42692C15.7578 8.17829 15.7579 7.92966 15.7577 7.68103C15.7576 7.53368 15.7576 7.38633 15.7578 7.23897C15.7664 4.9984 15.7664 4.9984 14.7218 3.08255C13.7873 2.16593 12.3681 2.05474 11.1308 2.05523C11.0773 2.05513 11.0237 2.05501 10.9702 2.05488C10.8262 2.05458 10.6822 2.05449 10.5382 2.05447C10.4477 2.05444 10.3572 2.05437 10.2668 2.05428C9.94983 2.05396 9.63287 2.05381 9.31591 2.05384C9.02274 2.05386 8.72957 2.0535 8.43641 2.05295C8.18289 2.05249 7.92937 2.05231 7.67585 2.05233C7.52525 2.05234 7.37465 2.05224 7.22405 2.05187C4.95222 2.04367 4.95222 2.04367 3.03303 3.13726Z" fill="white"/>
<path d="M9.21236 11.1921C9.24728 11.1919 9.2822 11.1917 9.31817 11.1915C9.35646 11.1914 9.39474 11.1914 9.43418 11.1913C9.49469 11.1911 9.49469 11.1911 9.55643 11.1908C9.69021 11.1903 9.82398 11.1901 9.95776 11.1899C10.0271 11.1897 10.0965 11.1896 10.1659 11.1894C10.3592 11.189 10.5525 11.1888 10.7458 11.1886C10.9956 11.1885 11.2454 11.1879 11.4953 11.1869C11.6885 11.1861 11.8817 11.1858 12.0749 11.1857C12.1903 11.1857 12.3056 11.1854 12.421 11.1849C12.5497 11.1843 12.6784 11.1843 12.8072 11.1846C12.8453 11.1842 12.8833 11.1839 12.9226 11.1836C13.1416 11.1848 13.3097 11.1978 13.4775 11.3545C13.636 11.5618 13.6552 11.7017 13.6288 11.9613C13.5529 12.1159 13.4572 12.211 13.3161 12.3087C13.2143 12.3426 13.1478 12.3481 13.0416 12.3488C13.0065 12.3491 12.9714 12.3494 12.9352 12.3497C12.8968 12.3498 12.8583 12.35 12.8186 12.3501C12.778 12.3504 12.7375 12.3507 12.6957 12.351C12.5611 12.3518 12.4265 12.3524 12.2919 12.3529C12.2455 12.3531 12.1991 12.3533 12.1527 12.3535C11.9596 12.3542 11.7666 12.3549 11.5735 12.3553C11.2971 12.3558 11.0209 12.357 10.7445 12.359C10.55 12.3603 10.3556 12.361 10.1611 12.3612C10.045 12.3613 9.92897 12.3618 9.81292 12.3628C9.68327 12.3639 9.55366 12.3639 9.424 12.3637C9.36678 12.3645 9.36678 12.3645 9.30841 12.3654C9.07168 12.3635 8.91281 12.3251 8.73029 12.1697C8.60939 12.0293 8.58695 11.8645 8.59132 11.6833C8.64837 11.473 8.76212 11.3513 8.93873 11.2317C9.04056 11.1977 9.10629 11.1924 9.21236 11.1921Z" fill="white"/>
<path d="M9.42124 6.00321C9.46223 6.00297 9.50321 6.00272 9.54544 6.00247C9.65728 6.00197 9.76909 6.00208 9.88093 6.00253C9.99831 6.00288 10.1157 6.00255 10.2331 6.00233C10.4301 6.00208 10.6272 6.00241 10.8243 6.00308C11.0517 6.00383 11.279 6.00359 11.5065 6.00282C11.7022 6.00219 11.8979 6.0021 12.0936 6.00247C12.2103 6.00268 12.3269 6.00271 12.4436 6.00225C12.5738 6.0019 12.7039 6.00244 12.834 6.00321C12.8916 6.00279 12.8916 6.00279 12.9503 6.00236C13.1725 6.0048 13.3099 6.02653 13.49 6.16016C13.628 6.33345 13.6513 6.47554 13.6423 6.69566C13.6152 6.87852 13.5266 6.9663 13.3836 7.07428C13.2523 7.14976 13.1597 7.17202 13.0108 7.17253C12.9766 7.17273 12.9423 7.17293 12.9069 7.17313C12.8694 7.17317 12.8318 7.17321 12.7931 7.17325C12.7337 7.17351 12.7337 7.17351 12.673 7.17377C12.5417 7.17428 12.4103 7.17452 12.279 7.17471C12.1878 7.17491 12.0966 7.17511 12.0054 7.17531C11.8386 7.17564 11.6717 7.17585 11.5048 7.17595C11.2595 7.17611 11.0142 7.17672 10.7688 7.17772C10.5561 7.17857 10.3434 7.17883 10.1307 7.17889C10.0404 7.179 9.95 7.17928 9.85963 7.17973C9.73314 7.18033 9.60667 7.18026 9.48017 7.18004C9.44288 7.18036 9.40558 7.18068 9.36716 7.18101C9.10684 7.17955 8.92813 7.15684 8.737 6.96572C8.61489 6.78778 8.57227 6.64811 8.60781 6.43646C8.65163 6.27535 8.73402 6.18313 8.86618 6.08583C9.04249 5.98951 9.22491 6.00177 9.42124 6.00321Z" fill="white"/>
<path d="M7.27979 10.179C7.41323 10.2912 7.50123 10.3795 7.52759 10.5576C7.53843 10.8212 7.47301 10.9831 7.29833 11.1798C7.1991 11.2831 7.09832 11.3846 6.99671 11.4856C6.95922 11.5231 6.92175 11.5607 6.8843 11.5983C6.80603 11.6767 6.72758 11.7549 6.64899 11.833C6.54856 11.9329 6.44861 12.0332 6.3488 12.1336C6.27161 12.2112 6.19418 12.2885 6.11667 12.3657C6.07972 12.4026 6.04286 12.4395 6.00607 12.4766C5.95454 12.5284 5.90269 12.5798 5.85074 12.6312C5.82138 12.6605 5.79202 12.6897 5.76177 12.7199C5.61784 12.8424 5.48125 12.9145 5.29086 12.9127C5.24894 12.9131 5.24894 12.9131 5.20618 12.9135C4.93176 12.8708 4.76012 12.6659 4.57215 12.4784C4.54248 12.45 4.51281 12.4216 4.48224 12.3924C4.27824 12.1898 4.15381 12.0169 4.13965 11.7247C4.17913 11.5221 4.24746 11.4031 4.41269 11.2767C4.5672 11.1895 4.70756 11.1771 4.87993 11.2131C5.0446 11.2663 5.14375 11.3453 5.25612 11.4753C5.36607 11.4268 5.4384 11.3703 5.52181 11.2842C5.55817 11.247 5.55817 11.247 5.59527 11.209C5.62115 11.1822 5.64703 11.1554 5.67369 11.1278C5.72911 11.0714 5.78455 11.0149 5.84 10.9585C5.92709 10.8695 6.01404 10.7803 6.1007 10.6909C6.18452 10.6045 6.26887 10.5187 6.35331 10.433C6.37898 10.4062 6.40465 10.3795 6.43109 10.3519C6.68419 10.0963 6.94636 10.0059 7.27979 10.179Z" fill="white"/>
<path d="M7.20827 4.94846C7.34322 5.03842 7.441 5.14468 7.51443 5.29153C7.52271 5.37458 7.52271 5.37458 7.52528 5.47392C7.52723 5.52255 7.52723 5.52255 7.52922 5.57217C7.49906 5.77916 7.3425 5.92389 7.1998 6.06733C7.18278 6.08453 7.16575 6.10173 7.14821 6.11946C7.09246 6.17569 7.03645 6.23167 6.98042 6.28762C6.9413 6.32687 6.90219 6.36613 6.86309 6.4054C6.78135 6.4874 6.69948 6.56926 6.61753 6.65103C6.51264 6.75572 6.40815 6.86079 6.30377 6.96598C6.22321 7.04705 6.14242 7.12788 6.06155 7.20864C6.02292 7.24728 5.98437 7.28601 5.94591 7.32482C5.89213 7.37904 5.83802 7.43291 5.78382 7.4867C5.73782 7.53274 5.73782 7.53274 5.69088 7.57971C5.54626 7.70278 5.41524 7.74039 5.22455 7.73399C4.94536 7.69327 4.75508 7.48473 4.56794 7.29132C4.5419 7.26523 4.51586 7.23914 4.48903 7.21227C4.28867 7.00869 4.14453 6.84194 4.14453 6.54221C4.177 6.36803 4.22537 6.24948 4.35298 6.12532C4.53572 6.0234 4.67021 6.00167 4.8741 6.02109C5.04132 6.08464 5.15636 6.18509 5.29099 6.29902C5.30655 6.28315 5.32212 6.26728 5.33815 6.25092C5.50062 6.08538 5.66358 5.92033 5.82682 5.75555C5.88764 5.69405 5.94832 5.63241 6.00888 5.57065C6.09608 5.48176 6.18373 5.39332 6.27148 5.30496C6.29834 5.27738 6.3252 5.2498 6.35288 5.22139C6.60343 4.97074 6.84889 4.82162 7.20827 4.94846Z" fill="white"/>
</svg>
