<svg width="16" height="16" viewBox="0 0 16 16" fill="none" xmlns="http://www.w3.org/2000/svg">
<path d="M3.1732 0.00855301C3.2212 0.00842911 3.2692 0.00827664 3.3172 0.00809822C3.44858 0.00769431 3.57996 0.00770162 3.71134 0.00777987C3.85324 0.00779342 3.99514 0.00742746 4.13704 0.00711361C4.41488 0.00656404 4.69271 0.00638131 4.97054 0.00634435C5.19647 0.00631283 5.4224 0.00617654 5.64833 0.00596671C6.28939 0.00538349 6.93046 0.00507771 7.57152 0.00512742C7.60606 0.00513006 7.64059 0.00513271 7.67618 0.00513544C7.71076 0.00513815 7.74534 0.00514085 7.78097 0.00514364C8.34119 0.00517056 8.9014 0.00453684 9.46162 0.00360264C10.0373 0.00265018 10.6131 0.00219365 11.1888 0.00225083C11.5118 0.00227279 11.8348 0.00209216 12.1578 0.00137785C12.4329 0.000773465 12.708 0.000631589 12.983 0.00108037C13.1233 0.00129607 13.2635 0.00130265 13.4037 0.000725747C13.5323 0.000201941 13.6609 0.000302338 13.7895 0.000877059C13.8575 0.00102562 13.9255 0.000528554 13.9935 0C14.5413 0.0040365 15.023 0.182322 15.4251 0.532879C15.8756 0.980468 15.9979 1.47065 15.9951 2.07237C15.9953 2.12566 15.9955 2.17895 15.9957 2.23224C15.9962 2.37787 15.9961 2.5235 15.9958 2.66913C15.9956 2.8265 15.9961 2.98387 15.9964 3.14125C15.997 3.44925 15.9971 3.75724 15.9969 4.06524C15.9967 4.31565 15.9968 4.56606 15.997 4.81647C15.997 4.85215 15.997 4.88783 15.9971 4.92459C15.9971 4.99707 15.9972 5.06956 15.9972 5.14204C15.9977 5.82138 15.9975 6.50071 15.9971 7.18004C15.9968 7.80108 15.9972 8.42212 15.9981 9.04317C15.9989 9.68138 15.9993 10.3196 15.999 10.9578C15.9989 11.3159 15.999 11.674 15.9996 12.0321C16.0001 12.3369 16.0002 12.6418 15.9995 12.9466C15.9992 13.102 15.9992 13.2574 15.9997 13.4129C16.0002 13.5554 16 13.6978 15.9993 13.8403C15.9992 13.8917 15.9993 13.943 15.9997 13.9943C16.0035 14.5589 15.8479 15.041 15.4317 15.4608C14.9818 15.859 14.4806 15.998 13.8704 15.9953C13.8223 15.9954 13.7742 15.9956 13.7261 15.9958C13.595 15.9963 13.4638 15.9962 13.3327 15.9959C13.1909 15.9958 13.049 15.9962 12.9072 15.9965C12.6297 15.9971 12.3523 15.9971 12.0748 15.9969C11.8492 15.9968 11.6236 15.9968 11.3979 15.997C11.3658 15.997 11.3336 15.9971 11.3005 15.9971C11.2351 15.9971 11.1697 15.9972 11.1044 15.9972C10.4921 15.9977 9.87983 15.9975 9.26754 15.9971C8.70801 15.9968 8.14849 15.9972 7.58897 15.998C7.01372 15.9988 6.43848 15.9992 5.86323 15.9989C5.54057 15.9988 5.2179 15.9989 4.89524 15.9995C4.62056 16 4.34588 16 4.07121 15.9994C3.93121 15.9991 3.79123 15.9991 3.65123 15.9996C3.5228 16 3.39439 15.9999 3.26595 15.9992C3.19808 15.999 3.1302 15.9995 3.06233 16C2.5258 15.9958 2.03895 15.8252 1.64669 15.4773C1.25023 15.08 1.06821 14.6353 1.07144 14.0979C1.07149 14.0666 1.07154 14.0352 1.07159 14.0029C1.07179 13.903 1.07223 13.8031 1.07268 13.7032C1.07286 13.6353 1.07302 13.5675 1.07317 13.4996C1.07355 13.3335 1.07416 13.1675 1.07489 13.0014C1.0289 13.0026 0.982911 13.0037 0.935528 13.0049C0.87454 13.0058 0.813552 13.0067 0.752563 13.0076C0.707211 13.0089 0.707211 13.0089 0.660943 13.0101C0.477025 13.0121 0.350626 12.9992 0.191802 12.902C0.0267779 12.7306 0.00289707 12.624 0.00511107 12.3974C0.0226404 12.238 0.10484 12.1497 0.229333 12.0471C0.496136 11.8937 0.718483 11.9746 1.07489 11.9746C1.07489 11.3297 1.07489 10.6848 1.07489 10.0204C0.865069 10.0204 0.655247 10.0204 0.439066 10.0204C0.0940457 9.85863 0.0940457 9.85863 0.0151838 9.68917C-0.0116292 9.51343 -0.0088864 9.37257 0.0725846 9.21096C0.156478 9.12609 0.156478 9.12609 0.368419 8.9936C0.601555 8.9936 0.83469 8.9936 1.07489 8.9936C1.07489 8.33777 1.07489 7.68195 1.07489 7.00625C0.841755 7.00625 0.60862 7.00625 0.368419 7.00625C0.0964592 6.83624 0.0964592 6.83624 0.0151838 6.67502C-0.0118912 6.5012 -0.00710847 6.35858 0.0681691 6.19682C0.156478 6.11194 0.156478 6.11194 0.439066 5.97945C0.648888 5.97945 0.85871 5.97945 1.07489 5.97945C1.07489 5.33456 1.07489 4.68966 1.07489 4.02523C0.853412 4.02523 0.631933 4.02523 0.403743 4.02523C0.205529 3.9323 0.111845 3.87528 0.0151838 3.694C-0.00351649 3.51808 -0.00825818 3.37362 0.077 3.21373C0.19438 3.09143 0.294626 3.004 0.477383 2.99467C0.518726 2.99493 0.518726 2.99493 0.560905 2.9952C0.590844 2.9953 0.620783 2.99541 0.651629 2.99552C0.682751 2.9958 0.713874 2.99608 0.74594 2.99636C0.793239 2.99659 0.793239 2.99659 0.841493 2.99681C0.919294 2.9972 0.997091 2.99775 1.07489 2.99843C1.07434 2.95719 1.07378 2.91596 1.07321 2.87347C1.07128 2.71896 1.07007 2.56445 1.06907 2.40993C1.06854 2.34334 1.06782 2.27675 1.0669 2.21016C1.05728 1.49843 1.05728 1.49843 1.18086 1.20982C1.2034 1.15493 1.2034 1.15493 1.2264 1.09894C1.47766 0.620141 1.88067 0.266408 2.41719 0.0836557C2.6703 0.00918945 2.90918 0.00794048 3.1732 0.00855301ZM2.32018 1.3709C2.18629 1.58485 2.15463 1.77225 2.15957 2.01511C2.1598 2.05756 2.1598 2.05756 2.16003 2.10086C2.16061 2.19029 2.16194 2.27969 2.1633 2.36911C2.16383 2.43013 2.16431 2.49116 2.16475 2.55218C2.16591 2.70094 2.16773 2.84968 2.16992 2.99843C2.23891 3.00029 2.23891 3.00029 2.30928 3.00218C2.37027 3.00436 2.43126 3.00656 2.49225 3.00878C2.5376 3.0099 2.5376 3.0099 2.58387 3.01105C2.76435 3.01821 2.89775 3.03566 3.05301 3.13092C3.18914 3.30224 3.2194 3.41594 3.1943 3.62776C3.14132 3.73955 3.14132 3.73955 3.08833 3.82649C3.08833 3.84835 3.08833 3.87022 3.08833 3.89274C3.04681 3.90811 3.04681 3.90811 3.00444 3.92379C2.91442 3.95662 2.91442 3.95662 2.84107 3.99211C2.50885 4.0085 2.50885 4.0085 2.16992 4.02523C2.16992 4.67012 2.16992 5.31502 2.16992 5.97945C2.46717 5.99585 2.46717 5.99585 2.77042 6.01258C3.05441 6.1267 3.05441 6.1267 3.15898 6.27756C3.21044 6.4223 3.22503 6.56283 3.16892 6.70724C3.08871 6.85007 3.03019 6.8866 2.87639 6.97313C2.52669 6.98952 2.52669 6.98952 2.16992 7.00625C2.16992 7.66207 2.16992 8.3179 2.16992 8.9936C2.51962 9.00999 2.51962 9.00999 2.87639 9.02672C3.13072 9.18571 3.13072 9.18571 3.1943 9.35794C3.2217 9.53635 3.19583 9.66872 3.08833 9.82166C2.81907 10.0612 2.56399 9.99866 2.16992 10.0204C2.16992 10.6653 2.16992 11.3102 2.16992 11.9746C2.3914 11.9855 2.61288 11.9965 2.84107 12.0077C2.89935 12.0405 2.95764 12.0733 3.01769 12.1071C3.041 12.1071 3.06431 12.1071 3.08833 12.1071C3.09926 12.1331 3.11019 12.159 3.12145 12.1858C3.15646 12.2702 3.15646 12.2702 3.1943 12.339C3.21426 12.5221 3.20682 12.6499 3.08833 12.8027C3.08833 12.8245 3.08833 12.8464 3.08833 12.8689C3.06065 12.8792 3.03296 12.8894 3.00444 12.9C2.91442 12.9328 2.91442 12.9328 2.84107 12.9683C2.78997 12.9733 2.73867 12.9765 2.68736 12.9788C2.6573 12.9802 2.62725 12.9815 2.59629 12.983C2.54916 12.9849 2.54916 12.9849 2.50108 12.9869C2.46939 12.9884 2.4377 12.9898 2.40504 12.9913C2.32667 12.9948 2.2483 12.9982 2.16992 13.0014C2.16641 13.1799 2.16385 13.3584 2.16216 13.5369C2.16145 13.5976 2.16049 13.6582 2.15926 13.7188C2.15753 13.8064 2.15674 13.8939 2.15612 13.9815C2.15539 14.0082 2.15466 14.0349 2.15391 14.0625C2.15381 14.3097 2.24344 14.4941 2.38628 14.6989C2.66092 14.9453 2.94503 14.9798 3.31298 14.9767C3.35948 14.9769 3.40598 14.9772 3.45389 14.9775C3.5821 14.9781 3.71028 14.9778 3.8385 14.9773C3.9771 14.9769 4.11569 14.9775 4.25429 14.9779C4.52547 14.9787 4.79664 14.9785 5.06782 14.978C5.28828 14.9777 5.50873 14.9776 5.72919 14.9778C5.77632 14.9778 5.77632 14.9778 5.8244 14.9779C5.88823 14.9779 5.95206 14.978 6.01589 14.978C6.61396 14.9785 7.21202 14.978 7.81008 14.9771C8.32287 14.9763 8.83565 14.9765 9.34843 14.9772C9.94441 14.9781 10.5404 14.9785 11.1364 14.978C11.1999 14.9779 11.2635 14.9779 11.3271 14.9778C11.3584 14.9778 11.3897 14.9777 11.4219 14.9777C11.642 14.9776 11.8621 14.9778 12.0822 14.9782C12.3506 14.9787 12.619 14.9785 12.8873 14.9777C13.0242 14.9772 13.161 14.9771 13.2978 14.9776C13.4463 14.9782 13.5948 14.9775 13.7433 14.9767C13.8078 14.9772 13.8078 14.9772 13.8736 14.9778C14.1685 14.9746 14.4135 14.9236 14.636 14.7319C14.8198 14.5491 14.8996 14.3505 14.8999 14.1011C14.9001 14.0796 14.9003 14.058 14.9005 14.0359C14.9009 13.964 14.9006 13.8922 14.9003 13.8203C14.9005 13.7682 14.9007 13.716 14.901 13.6638C14.9016 13.5207 14.9015 13.3777 14.9013 13.2346C14.9012 13.0801 14.9017 12.9257 14.9021 12.7713C14.9029 12.4689 14.903 12.1664 14.903 11.864C14.9029 11.6181 14.9031 11.3723 14.9033 11.1264C14.9034 11.0556 14.9035 10.9848 14.9036 10.914C14.9036 10.8787 14.9036 10.8435 14.9037 10.8071C14.9043 10.1405 14.9043 9.47382 14.9041 8.80716C14.9039 8.19739 14.9046 7.58763 14.9058 6.97786C14.907 6.35167 14.9075 5.72548 14.9073 5.09928C14.9072 4.74776 14.9074 4.39624 14.9083 4.04471C14.9091 3.74543 14.9092 3.44615 14.9085 3.14687C14.9082 2.99421 14.9082 2.84157 14.9089 2.68891C14.9095 2.54905 14.9094 2.40921 14.9086 2.26935C14.9084 2.21887 14.9086 2.16838 14.9091 2.1179C14.9119 1.79936 14.8883 1.52368 14.6478 1.27932C14.3799 1.04117 14.1101 1.0297 13.7561 1.03114C13.7097 1.03094 13.6633 1.03074 13.6155 1.03053C13.487 1.02999 13.3586 1.03007 13.2301 1.03025C13.0915 1.03033 12.9528 1.02985 12.8141 1.02945C12.5426 1.02875 12.271 1.0286 11.9995 1.02866C11.7787 1.0287 11.5579 1.02858 11.3372 1.02833C11.2736 1.02826 11.2099 1.02819 11.1463 1.02812C11.1147 1.02809 11.083 1.02805 11.0504 1.02802C10.4516 1.02739 9.85282 1.02743 9.25405 1.02765C8.70655 1.02784 8.15906 1.02715 7.61156 1.02605C7.04913 1.02493 6.48671 1.02443 5.92428 1.02458C5.60862 1.02466 5.29297 1.02448 4.97731 1.02366C4.70856 1.02296 4.43981 1.02285 4.17106 1.02347C4.03401 1.02377 3.89698 1.02381 3.75993 1.02313C3.61117 1.02239 3.46245 1.02295 3.31369 1.02362C3.27063 1.02321 3.22757 1.02279 3.18321 1.02237C2.829 1.02581 2.55286 1.11234 2.32018 1.3709Z" fill="white"/>
<path d="M11.361 8.8422C11.466 8.9197 11.5656 9.00035 11.6646 9.08456C11.6839 9.10088 11.7031 9.11719 11.7229 9.134C12.5882 9.8774 13.1112 10.912 13.1754 12.0119C13.1944 12.4852 13.1944 12.4852 13.0157 12.6742C12.8083 12.8094 12.6591 12.8354 12.4097 12.8329C12.376 12.8331 12.3422 12.8333 12.3074 12.8335C12.1948 12.8341 12.0821 12.8336 11.9694 12.8332C11.8884 12.8334 11.8075 12.8336 11.7265 12.8339C11.5069 12.8346 11.2873 12.8343 11.0677 12.8339C10.8378 12.8335 10.6079 12.8339 10.3781 12.8341C9.99201 12.8343 9.60596 12.834 9.21991 12.8333C8.77368 12.8326 8.32745 12.8328 7.88122 12.8336C7.49799 12.8342 7.11477 12.8343 6.73155 12.8339C6.50271 12.8337 6.27387 12.8337 6.04503 12.8342C5.82988 12.8346 5.61474 12.8343 5.39959 12.8335C5.32066 12.8333 5.24173 12.8333 5.1628 12.8337C5.05499 12.834 4.94723 12.8336 4.83943 12.8329C4.80825 12.8332 4.77706 12.8335 4.74494 12.8338C4.53244 12.8311 4.40916 12.7873 4.23342 12.6742C4.07265 12.508 4.06499 12.3022 4.07362 12.0875C4.17257 10.8897 4.69205 9.81315 5.65961 9.01418C7.31461 7.76754 9.62951 7.66319 11.361 8.8422ZM6.00208 10.2558C5.66901 10.6554 5.32183 11.2022 5.32183 11.724C7.50164 11.724 9.68146 11.724 11.9273 11.724C11.8534 11.1001 11.5459 10.5697 11.1016 10.1051C11.0814 10.0832 11.0611 10.0613 11.0402 10.0387C10.4995 9.49085 9.67859 9.14363 8.88847 9.10642C7.75062 9.076 6.75978 9.43369 6.00208 10.2558Z" fill="white"/>
<path d="M10.3861 2.72834C10.4377 2.76922 10.4886 2.81104 10.5386 2.85371C10.5811 2.88944 10.5811 2.88944 10.6246 2.92589C11.1485 3.38913 11.4451 4.03691 11.4845 4.70806C11.4948 5.50704 11.2195 6.19497 10.6337 6.78195C9.99612 7.34296 9.24588 7.53097 8.39252 7.5111C7.66805 7.48038 7.05517 7.17047 6.56024 6.68971C6.53256 6.66485 6.50489 6.63999 6.47638 6.61437C6.00561 6.1661 5.77891 5.47831 5.7627 4.86189C5.78807 4.04105 6.12295 3.37838 6.75669 2.81426C7.12232 2.51916 7.58795 2.30663 8.06149 2.22025C8.09555 2.2139 8.12961 2.20754 8.1647 2.201C8.9649 2.09639 9.73691 2.27391 10.3861 2.72834ZM7.57358 3.62795C7.54107 3.64827 7.50856 3.6686 7.47506 3.68954C7.1444 3.98328 6.95962 4.37109 6.93452 4.79591C6.9395 5.27594 7.12981 5.66888 7.48283 6.01431C7.86898 6.34247 8.29973 6.43647 8.80727 6.4204C9.24257 6.39442 9.62139 6.1685 9.91694 5.87725C10.2092 5.54151 10.3507 5.11378 10.3134 4.68373C10.2421 4.24046 10.0301 3.87798 9.66331 3.58946C9.50224 3.48202 9.33539 3.40904 9.14989 3.34641C9.12449 3.33779 9.09909 3.32917 9.07293 3.32029C8.54163 3.1697 8.00186 3.31956 7.57358 3.62795Z" fill="white"/>
</svg>
