<svg width="16" height="16" viewBox="0 0 16 16" fill="none" xmlns="http://www.w3.org/2000/svg">
<path d="M2.96232 0.492762C2.99883 0.49256 3.03535 0.492359 3.07297 0.492151C3.11296 0.492248 3.15294 0.492345 3.19414 0.492444C3.23715 0.492328 3.28016 0.492184 3.32317 0.492015C3.44134 0.491633 3.5595 0.491641 3.67767 0.491715C3.80512 0.491728 3.93258 0.491383 4.06003 0.491086C4.30973 0.490567 4.55943 0.490396 4.80913 0.490361C5.0121 0.490331 5.21506 0.490203 5.41802 0.490004C5.99342 0.489454 6.56881 0.489166 7.14421 0.489213C7.17523 0.489215 7.20626 0.489218 7.23822 0.48922C7.26928 0.489223 7.30034 0.489225 7.33234 0.489228C7.83575 0.489253 8.33915 0.488655 8.84255 0.487774C9.35939 0.486876 9.87624 0.486445 10.3931 0.486499C10.6833 0.486519 10.9735 0.486347 11.2636 0.485675C11.5107 0.485106 11.7578 0.48497 12.0049 0.485394C12.1309 0.485598 12.2569 0.485602 12.383 0.48506C12.4984 0.484569 12.6139 0.484657 12.7293 0.485202C12.7907 0.485344 12.8521 0.484871 12.9136 0.484375C13.1679 0.486363 13.3417 0.514863 13.5384 0.687203C13.5552 0.707546 13.572 0.727889 13.5894 0.748848C13.6067 0.769111 13.624 0.789373 13.6419 0.81025C13.7359 0.946655 13.7574 1.06464 13.7582 1.2288C13.7588 1.28828 13.7588 1.28828 13.7593 1.34897C13.7594 1.39267 13.7594 1.43638 13.7595 1.48009C13.7598 1.52629 13.7601 1.5725 13.7604 1.6187C13.7613 1.74395 13.7618 1.86919 13.7622 1.99444C13.7627 2.1254 13.7635 2.25636 13.7643 2.38732C13.7658 2.63522 13.7669 2.88313 13.768 3.13104C13.7691 3.41331 13.7707 3.69557 13.7723 3.97784C13.7755 4.55841 13.7783 5.13898 13.7808 5.71955C13.8104 5.71883 13.84 5.7181 13.8704 5.71735C13.9095 5.71679 13.9486 5.71623 13.9888 5.71565C14.0274 5.71492 14.066 5.7142 14.1058 5.71345C14.3024 5.72412 14.4527 5.79512 14.5894 5.93635C14.7276 6.11182 14.7902 6.26564 14.7945 6.49104C14.7957 6.52661 14.797 6.56218 14.7982 6.59882C14.7593 6.86828 14.6368 7.03464 14.427 7.20367C14.0721 7.4939 13.7516 7.76231 13.7001 8.24059C13.6813 8.50426 13.6938 8.76753 13.7101 9.03097C13.7159 9.14027 13.7175 9.24947 13.7191 9.35889C13.7211 9.49092 13.7253 9.62286 13.7298 9.75483C13.7305 9.77936 13.7311 9.8039 13.7319 9.82917C13.7425 10.1386 13.7804 10.3607 13.9995 10.5946C14.0275 10.6247 14.0555 10.6549 14.0844 10.6859C14.1841 10.7909 14.287 10.8926 14.39 10.9942C14.4276 11.0316 14.4651 11.069 14.5026 11.1064C14.6005 11.2039 14.6986 11.3011 14.7968 11.3983C14.8973 11.4978 14.9976 11.5977 15.0979 11.6975C15.294 11.8926 15.4904 12.0874 15.687 12.2821C15.634 12.3956 15.5702 12.4678 15.48 12.5555C15.4545 12.5805 15.4289 12.6054 15.4026 12.6312C15.383 12.65 15.3635 12.6689 15.3433 12.6883C15.224 12.6388 15.1468 12.5632 15.0551 12.4732C15.0393 12.4577 15.0234 12.4422 15.007 12.4262C14.9545 12.3748 14.9023 12.3231 14.8501 12.2714C14.8321 12.2536 14.814 12.2358 14.7955 12.2174C14.6996 12.1227 14.604 12.0278 14.5085 11.9327C14.4304 11.855 14.3519 11.7777 14.2732 11.7006C13.4594 10.9042 13.4594 10.9042 13.1885 10.4041C13.1405 10.3169 13.0865 10.2339 13.0322 10.1505C13.0063 10.1099 13.0063 10.1099 12.9799 10.0684C12.9632 10.0423 12.9465 10.0161 12.9292 9.98908C12.7732 9.7444 12.619 9.49881 12.4683 9.2508C12.3698 9.29435 12.3039 9.34533 12.2285 9.42194C12.2078 9.44289 12.187 9.46384 12.1657 9.48542C12.1444 9.50725 12.1231 9.52909 12.1011 9.55158C12.0684 9.5847 12.0684 9.5847 12.0351 9.61848C11.9814 9.67286 11.9279 9.72739 11.8745 9.78205C11.89 9.80803 11.9054 9.83402 11.9213 9.86079C11.9413 9.89475 11.9613 9.9287 11.982 9.96369C12.0019 9.99741 12.0218 10.0311 12.0424 10.0659C12.155 10.2675 12.1619 10.5097 12.1054 10.7327C12.0172 10.9331 11.8513 11.0469 11.6577 11.1375C11.2443 11.2219 10.9373 11.0227 10.5913 10.8153C10.327 10.6579 10.327 10.6579 10.0607 10.5039C10.0391 10.4916 10.0176 10.4793 9.99536 10.4666C9.90578 10.4231 9.84644 10.4163 9.74953 10.4383C9.64676 10.5143 9.60055 10.5604 9.57375 10.6863C9.62101 10.9179 9.8438 11.0477 10.0249 11.1766C10.0781 11.215 10.1313 11.2534 10.1845 11.2918C10.2244 11.3206 10.2244 11.3206 10.2651 11.3499C10.3388 11.4037 10.4113 11.4587 10.4835 11.5145C10.5054 11.5313 10.5273 11.5481 10.5498 11.5654C10.5903 11.5967 10.6307 11.6282 10.6709 11.6599C11.0682 11.9646 11.509 11.9816 11.9939 11.9763C12.0265 11.9768 12.059 11.9773 12.0926 11.9779C12.1356 11.9777 12.1356 11.9777 12.1795 11.9776C12.4819 12.0468 12.7024 12.2798 12.9128 12.4936C12.9433 12.5241 12.9738 12.5546 13.0043 12.5851C13.0864 12.6671 13.1681 12.7495 13.2497 12.832C13.3353 12.9185 13.4213 13.0045 13.5073 13.0907C13.6697 13.2534 13.8317 13.4165 13.9937 13.5797C14.1782 13.7656 14.3631 13.9512 14.548 14.1368C14.9281 14.5181 15.3077 14.8999 15.687 15.2821C15.634 15.3956 15.5702 15.4678 15.48 15.5555C15.4545 15.5805 15.4289 15.6054 15.4026 15.6312C15.383 15.65 15.3635 15.6689 15.3433 15.6883C15.2303 15.6405 15.1583 15.5734 15.0721 15.4867C15.0434 15.458 15.0146 15.4292 14.985 15.3996C14.9538 15.3681 14.9227 15.3367 14.8916 15.3052C14.8596 15.2731 14.8275 15.241 14.7955 15.2088C14.7113 15.1244 14.6273 15.0398 14.5433 14.9551C14.4576 14.8687 14.3716 14.7825 14.2857 14.6962C14.1172 14.5271 13.9489 14.3578 13.7808 14.1883C13.7769 14.2141 13.773 14.24 13.769 14.2666C13.761 14.3174 13.761 14.3174 13.7528 14.3692C13.7476 14.4028 13.7425 14.4364 13.7371 14.471C13.6946 14.6797 13.5449 14.8207 13.3745 14.9383C13.2637 14.9899 13.177 15.0086 13.0551 15.0085C13.0227 15.0086 12.9902 15.0087 12.9568 15.0089C12.9214 15.0087 12.886 15.0085 12.8495 15.0083C12.7928 15.0084 12.7928 15.0084 12.735 15.0085C12.6303 15.0086 12.5255 15.0084 12.4208 15.0081C12.3078 15.0078 12.1948 15.0079 12.0818 15.0079C11.886 15.008 11.6902 15.0078 11.4945 15.0074C11.2115 15.0069 10.9284 15.0067 10.6454 15.0067C10.1862 15.0065 9.72702 15.0061 9.26782 15.0055C8.82176 15.0049 8.37569 15.0045 7.92963 15.0042C7.90213 15.0042 7.87463 15.0042 7.84631 15.0042C7.70837 15.0041 7.57043 15.004 7.4325 15.0039C6.28818 15.0033 5.14386 15.0022 3.99953 15.0008C3.99953 15.1658 3.99953 15.3308 3.99953 15.5008C3.83453 15.5008 3.66953 15.5008 3.49953 15.5008C3.49589 15.1305 3.49313 14.7602 3.49144 14.3899C3.49063 14.2179 3.48953 14.0459 3.48775 13.874C3.48603 13.7076 3.48511 13.5413 3.48471 13.3749C3.48442 13.3118 3.48386 13.2487 3.48301 13.1856C3.47423 12.5073 3.61779 12.0225 4.08877 11.5154C4.34139 11.2246 4.4412 10.9118 4.46438 10.534C4.49588 10.1595 4.6035 9.94893 4.86196 9.675C4.96462 9.56499 5.05909 9.44928 5.1531 9.33186C5.19357 9.28153 5.23493 9.23189 5.27761 9.18342C5.38791 9.05292 5.43291 8.95671 5.42007 8.78352C5.39771 8.68337 5.35664 8.63096 5.28078 8.5633C5.19365 8.51285 5.13713 8.50108 5.03664 8.49885C4.80168 8.57717 4.64068 8.79701 4.48135 8.97773C4.40001 9.06985 4.31716 9.16042 4.23391 9.2508C4.1061 9.38987 3.97942 9.52989 3.85329 9.67048C3.75642 9.77779 3.65852 9.88415 3.56053 9.99045C3.4791 10.079 3.39967 10.1689 3.3218 10.2606C3.02231 10.5998 3.02231 10.5998 2.81008 10.6297C2.66516 10.6339 2.56262 10.6084 2.43703 10.5321C2.3475 10.4446 2.25426 10.3495 2.2452 10.2202C2.245 10.1947 2.2448 10.1691 2.24459 10.1428C2.24428 10.1136 2.24398 10.0843 2.24366 10.0541C2.24339 10.0058 2.24339 10.0058 2.24312 9.95654C2.24281 9.92269 2.2425 9.88885 2.24218 9.85398C2.24119 9.74171 2.24042 9.62943 2.23965 9.51716C2.239 9.43948 2.23835 9.3618 2.23768 9.28412C2.23613 9.10029 2.23471 8.91646 2.23336 8.73263C2.23167 8.50285 2.22977 8.27306 2.22787 8.04328C2.2245 7.63329 2.22133 7.2233 2.21828 6.8133C2.16737 6.85758 2.11667 6.9021 2.06606 6.94672C2.03781 6.97149 2.00955 6.99626 1.98044 7.02177C1.80491 7.19289 1.78045 7.41153 1.77645 7.64881C1.77609 7.70823 1.7759 7.76764 1.77584 7.82706C1.77569 7.85989 1.77553 7.89272 1.77537 7.92654C1.77489 8.03651 1.77463 8.14649 1.77437 8.25646C1.77407 8.33531 1.77376 8.41415 1.77343 8.493C1.77276 8.66273 1.77218 8.83246 1.77169 9.00219C1.77098 9.2476 1.7701 9.493 1.76918 9.7384C1.76769 10.1366 1.76634 10.5347 1.76507 10.9329C1.76384 11.3197 1.76255 11.7064 1.76117 12.0931C1.76108 12.117 1.761 12.1408 1.76091 12.1654C1.76048 12.285 1.76005 12.4047 1.75962 12.5243C1.75607 13.5165 1.75273 14.5086 1.74953 15.5008C1.58453 15.5008 1.41953 15.5008 1.24953 15.5008C1.24668 14.4517 1.24447 13.4025 1.24315 12.3534C1.24299 12.2295 1.24283 12.1055 1.24267 11.9816C1.24263 11.9569 1.2426 11.9322 1.24257 11.9068C1.24202 11.5076 1.24104 11.1084 1.23989 10.7092C1.23872 10.2994 1.23803 9.88963 1.23777 9.47982C1.2376 9.22709 1.23706 8.97437 1.23604 8.72164C1.2353 8.52761 1.23523 8.33359 1.2354 8.13957C1.23536 8.06014 1.23511 7.98072 1.23463 7.90129C1.23401 7.79261 1.23416 7.68396 1.2345 7.57528C1.23414 7.54406 1.23377 7.51284 1.2334 7.48067C1.23632 7.13373 1.3518 6.8445 1.59328 6.59455C1.70391 6.49532 1.81904 6.40357 1.93703 6.3133C1.96193 6.29372 1.98682 6.27415 2.01247 6.25398C2.17796 6.1258 2.17796 6.1258 2.24953 6.1258C2.24942 6.09978 2.2493 6.07376 2.24918 6.04695C2.24642 5.41341 2.24435 4.77987 2.24306 4.14633C2.24241 3.83995 2.24153 3.53357 2.2401 3.2272C2.23886 2.96012 2.23805 2.69304 2.23777 2.42596C2.23761 2.28458 2.23723 2.1432 2.23632 2.00183C2.23547 1.86865 2.23521 1.73549 2.2354 1.60231C2.23536 1.55353 2.23511 1.50476 2.23463 1.45598C2.23191 1.16484 2.23534 0.94089 2.43594 0.711983C2.45628 0.695145 2.47662 0.678306 2.49758 0.660958C2.51784 0.643636 2.53811 0.626314 2.55898 0.608468C2.69012 0.518111 2.80436 0.492983 2.96232 0.492762ZM2.81203 1.09455C2.75923 1.20197 2.74174 1.28863 2.74184 1.40766C2.74172 1.43866 2.74159 1.46967 2.74147 1.50162C2.74165 1.53545 2.74183 1.56929 2.74202 1.60415C2.74196 1.64027 2.74191 1.67639 2.74186 1.7136C2.74177 1.81373 2.74197 1.91385 2.74228 2.01397C2.74255 2.12199 2.74246 2.23001 2.74241 2.33803C2.74238 2.52514 2.74257 2.71225 2.74293 2.89936C2.74343 3.16989 2.7436 3.44042 2.74367 3.71095C2.74381 4.14986 2.74423 4.58878 2.74482 5.0277C2.74539 5.45406 2.74583 5.88042 2.7461 6.30678C2.74612 6.33306 2.74613 6.35934 2.74615 6.38642C2.74623 6.51827 2.74631 6.65012 2.74639 6.78197C2.74704 7.87575 2.74814 8.96952 2.74953 10.0633C2.78614 10.0267 2.78614 10.0267 2.82349 9.98927C2.87297 9.93984 2.92257 9.89054 2.97243 9.8415C2.99298 9.82124 3.01352 9.80097 3.03469 9.7801C3.0554 9.75975 3.0761 9.73941 3.09743 9.71845C3.19925 9.61131 3.26129 9.54322 3.26107 9.39124C3.26126 9.36301 3.26144 9.33478 3.26163 9.30569C3.26123 9.25937 3.26123 9.25937 3.26081 9.21212C3.26089 9.1793 3.26097 9.14648 3.26105 9.11266C3.26121 9.00197 3.26069 8.8913 3.26018 8.78062C3.26015 8.70019 3.26016 8.61976 3.26021 8.53934C3.26026 8.34545 3.25983 8.15157 3.25923 7.95769C3.25855 7.73345 3.25848 7.50921 3.2584 7.28497C3.25791 6.69285 3.2566 6.10073 3.25539 5.50861C3.25346 4.18604 3.25153 2.86346 3.24953 1.5008C6.38453 1.5008 9.51953 1.5008 12.7495 1.5008C12.7495 3.18174 12.7495 4.86268 12.7495 6.59455C12.8217 6.53268 12.8939 6.4708 12.9683 6.40705C13.0087 6.37583 13.0087 6.37583 13.05 6.34397C13.1647 6.24718 13.2383 6.17135 13.2749 6.02324C13.2848 5.89809 13.2855 5.77468 13.283 5.64934C13.283 5.60157 13.2832 5.55381 13.2835 5.50604C13.284 5.37702 13.2827 5.24807 13.2811 5.11906C13.2797 4.98377 13.2798 4.84848 13.2798 4.71318C13.2794 4.48613 13.278 4.2591 13.2759 4.03206C13.2732 3.74087 13.2722 3.4497 13.2718 3.15849C13.2714 2.90771 13.2703 2.65693 13.269 2.40615C13.2686 2.32572 13.2683 2.24529 13.268 2.16486C13.2676 2.03842 13.2666 1.912 13.2653 1.78557C13.2649 1.73924 13.2646 1.69291 13.2645 1.64657C13.2643 1.58322 13.2635 1.51988 13.2627 1.45653C13.2624 1.42112 13.2621 1.38571 13.2619 1.34922C13.2474 1.2339 13.2197 1.16039 13.1558 1.0633C13.0431 1.00581 12.9502 0.992962 12.8247 0.992849C12.7896 0.992667 12.7546 0.992485 12.7185 0.992297C12.661 0.992474 12.661 0.992474 12.6024 0.992655C12.5615 0.992535 12.5207 0.992416 12.4786 0.992293C12.3653 0.991971 12.252 0.99204 12.1387 0.992173C12.0165 0.99225 11.8943 0.991969 11.7721 0.991735C11.5327 0.991336 11.2933 0.99128 11.0539 0.991353C10.8593 0.991409 10.6648 0.991354 10.4702 0.991221C10.4425 0.991203 10.4148 0.991184 10.3863 0.991165C10.3301 0.991127 10.2739 0.991089 10.2176 0.991051C9.69022 0.990711 9.1628 0.990779 8.63538 0.990969C8.15275 0.991131 7.67012 0.990779 7.18749 0.990185C6.69204 0.98958 6.1966 0.989321 5.70115 0.989439C5.42295 0.989499 5.14474 0.98942 4.86654 0.988979C4.62972 0.988607 4.39289 0.988562 4.15607 0.988941C4.03522 0.989126 3.91438 0.989159 3.79354 0.988785C3.66258 0.988385 3.53163 0.988709 3.40067 0.989107C3.34328 0.988761 3.34328 0.988761 3.28474 0.988409C3.03311 0.986127 3.03311 0.986127 2.81203 1.09455ZM3.74953 2.0008C3.74953 4.30049 3.74953 6.60018 3.74953 8.96955C3.84286 8.87622 3.93487 8.78354 4.02492 8.68732C4.04627 8.66456 4.06762 8.6418 4.08962 8.61835C4.12237 8.58337 4.12237 8.58337 4.15578 8.54768C4.28931 8.40503 4.42285 8.26295 4.56203 8.1258C4.58588 8.10195 4.60973 8.07811 4.6343 8.05354C4.6517 8.03613 4.6691 8.01873 4.68703 8.0008C4.66705 7.9718 4.64707 7.94279 4.62649 7.91291C4.55074 7.79584 4.52696 7.71718 4.52525 7.58092C4.52485 7.55295 4.52445 7.52499 4.52404 7.49617C4.52381 7.466 4.52358 7.43582 4.52334 7.40473C4.52309 7.37355 4.52283 7.34237 4.52257 7.31024C4.52214 7.24418 4.52181 7.17811 4.52156 7.11205C4.52102 7.01149 4.51965 6.91098 4.51827 6.81043C4.51795 6.74616 4.51769 6.68189 4.51748 6.61762C4.51693 6.58776 4.51638 6.5579 4.51582 6.52714C4.51653 6.30519 4.56379 6.13866 4.71035 5.96882C4.73651 5.94791 4.73651 5.94791 4.76321 5.92658C4.78925 5.90495 4.78925 5.90495 4.81582 5.88288C4.94075 5.80132 5.05532 5.77407 5.20327 5.76911C5.23519 5.7679 5.26712 5.7667 5.30001 5.76545C5.33298 5.76448 5.36595 5.76352 5.39992 5.76252C5.4335 5.76131 5.46708 5.7601 5.50167 5.75886C5.58428 5.75592 5.66691 5.75333 5.74953 5.7508C5.74953 5.9158 5.74953 6.0808 5.74953 6.2508C5.51125 6.24494 5.51125 6.24494 5.43732 6.24236C5.29037 6.24062 5.18656 6.25836 5.06203 6.34455C4.96597 6.52576 4.98907 6.73008 4.98967 6.92954C4.98977 6.99853 4.98903 7.06749 4.98824 7.13648C4.98817 7.18073 4.98815 7.22498 4.98818 7.26923C4.98809 7.30915 4.98799 7.34907 4.9879 7.3902C5.00077 7.51253 5.02471 7.58631 5.09328 7.6883C5.26494 7.79257 5.48356 7.76125 5.67827 7.76067C5.74727 7.76057 5.81622 7.7613 5.88521 7.76209C5.92947 7.76216 5.97372 7.76219 6.01797 7.76215C6.05788 7.76225 6.0978 7.76234 6.13893 7.76244C6.25909 7.7498 6.33458 7.72006 6.43703 7.65705C6.51812 7.52848 6.50683 7.38826 6.50344 7.24104C6.50215 7.16176 6.50086 7.08248 6.49953 7.0008C6.66453 7.0008 6.82953 7.0008 6.99953 7.0008C6.99765 7.11544 6.99492 7.22995 6.99172 7.34455C6.99128 7.37674 6.99083 7.40892 6.99038 7.44209C6.98287 7.67769 6.94473 7.85199 6.78872 8.03278C6.77128 8.04672 6.75383 8.06066 6.73586 8.07502C6.70982 8.09665 6.70982 8.09665 6.68325 8.11872C6.56086 8.19862 6.44765 8.2274 6.30263 8.23249C6.27212 8.2337 6.24161 8.23491 6.21017 8.23615C6.16294 8.2376 6.16294 8.2376 6.11477 8.23908C6.08268 8.24029 6.0506 8.2415 6.01754 8.24274C5.93863 8.24568 5.85971 8.24836 5.78078 8.2508C5.81464 8.33743 5.84978 8.41978 5.89211 8.50275C5.96125 8.65988 5.96023 8.83158 5.96828 9.0008C6.00148 9.00161 6.03467 9.00241 6.06887 9.00324C6.57487 9.02107 6.57487 9.02107 6.77248 9.20844C6.95725 9.41036 6.97816 9.58659 6.97878 9.85297C6.97909 9.89961 6.97909 9.89961 6.97941 9.9472C6.97973 10.0129 6.97988 10.0786 6.97987 10.1443C6.98 10.2443 6.98114 10.3442 6.98232 10.4442C6.98251 10.5082 6.98263 10.5722 6.98269 10.6362C6.98314 10.6658 6.98359 10.6955 6.98405 10.7261C6.98255 10.947 6.93461 11.1137 6.78872 11.2828C6.77128 11.2967 6.75383 11.3107 6.73586 11.325C6.70982 11.3467 6.70982 11.3467 6.68325 11.3687C6.5091 11.4824 6.34809 11.4787 6.14626 11.4779C6.1151 11.4779 6.08393 11.478 6.05182 11.478C5.98599 11.4781 5.92017 11.478 5.85435 11.4777C5.75401 11.4774 5.6537 11.4777 5.55337 11.4781C5.48928 11.4781 5.42519 11.478 5.36111 11.4779C5.33128 11.478 5.30146 11.4781 5.27073 11.4782C5.10562 11.4771 4.9683 11.4612 4.81203 11.4071C4.79951 11.4282 4.78698 11.4494 4.77407 11.4713C4.6771 11.63 4.57817 11.7731 4.45071 11.909C3.99855 12.3958 3.99953 12.8499 3.99953 13.5008C6.72203 13.5008 9.44453 13.5008 12.2495 13.5008C12.2495 13.2121 12.2495 12.9233 12.2495 12.6258C12.1161 12.4924 12.0275 12.4972 11.8436 12.4964C11.2147 12.4881 10.7879 12.4209 10.2808 12.0321C10.2446 12.0051 10.2084 11.9782 10.1721 11.9514C10.0829 11.8851 9.99419 11.8182 9.90578 11.7508C9.76706 11.8638 9.64831 11.9781 9.53455 12.116C8.81209 12.9904 8.81209 12.9904 8.33071 13.0443C8.05292 13.0648 7.77443 13.0421 7.49953 13.0008C7.43508 12.5721 7.36437 12.0587 7.63348 11.6886C7.90295 11.3595 8.23252 11.0803 8.56203 10.8133C8.55234 10.7893 8.54264 10.7653 8.53265 10.7406C8.51029 10.6842 8.4893 10.6272 8.46963 10.5698C8.41327 10.495 8.41327 10.495 8.33677 10.4885C8.24794 10.4854 8.1606 10.4872 8.0718 10.491C8.04092 10.4917 8.01005 10.4924 7.97823 10.4932C7.90198 10.495 7.82575 10.4978 7.74953 10.5008C7.74953 10.3358 7.74953 10.1708 7.74953 10.0008C7.9661 10.0008 8.18266 10.0008 8.40578 10.0008C8.50999 9.79325 8.50999 9.79325 8.60036 9.58196C8.61246 9.5513 8.62456 9.52065 8.63703 9.48906C8.64966 9.45676 8.6623 9.42446 8.67531 9.39118C8.70282 9.32164 8.73032 9.2521 8.75783 9.18256C8.8007 9.07384 8.8435 8.96508 8.88619 8.85629C8.92769 8.75065 8.96945 8.64513 9.01125 8.53962C9.02389 8.50719 9.03652 8.47477 9.04954 8.44136C9.11352 8.28029 9.18095 8.14215 9.28078 8.0008C9.28078 7.98018 9.28078 7.95955 9.28078 7.9383C9.32211 7.91681 9.3639 7.8962 9.40578 7.8758C9.4346 7.85928 9.46342 7.84276 9.49311 7.82574C9.67174 7.75014 9.86458 7.78392 10.0535 7.79597C10.1395 7.79973 10.2255 7.80275 10.3115 7.80586C10.4461 7.81087 10.5804 7.81677 10.7147 7.82641C10.8241 7.83418 10.9333 7.83845 11.0431 7.84066C11.1036 7.84275 11.164 7.8483 11.2244 7.854C11.5256 7.85674 11.7271 7.71871 11.9478 7.5242C12.2803 7.1945 12.3236 6.87855 12.3257 6.42566C12.3248 6.29061 12.3207 6.15578 12.316 6.02082C12.3122 5.89298 12.3121 5.76523 12.3116 5.63733C12.3082 5.2656 12.299 4.89394 12.2905 4.52229C12.277 3.6902 12.2635 2.85811 12.2495 2.0008C9.44453 2.0008 6.63953 2.0008 3.74953 2.0008ZM13.6245 6.48518C13.6033 6.50753 13.5821 6.52989 13.5602 6.55293C13.5081 6.60794 13.4567 6.66346 13.4058 6.71955C13.456 6.82613 13.5122 6.89511 13.5972 6.97736C13.6311 7.01048 13.6311 7.01048 13.6658 7.04426C13.6831 7.06086 13.7004 7.07745 13.7183 7.09455C13.8543 7.03193 13.9475 6.94385 14.0542 6.84065C14.073 6.82365 14.0918 6.80665 14.1112 6.78913C14.2086 6.6946 14.2619 6.63139 14.2647 6.49226C14.2576 6.37753 14.2576 6.37753 14.2027 6.29768C13.9472 6.14438 13.7938 6.29837 13.6245 6.48518ZM12.8564 7.26103C12.8331 7.28408 12.8099 7.30713 12.786 7.33088C12.7478 7.3693 12.7478 7.3693 12.7087 7.4085C12.6819 7.43522 12.6551 7.46194 12.6274 7.48948C12.5537 7.56297 12.4801 7.6366 12.4066 7.7103C12.3298 7.78727 12.2529 7.86409 12.1759 7.94093C12.0467 8.07003 11.9176 8.19925 11.7886 8.32855C11.6393 8.4782 11.4898 8.62762 11.3401 8.77694C11.2118 8.90495 11.0837 9.03309 10.9556 9.16133C10.879 9.238 10.8024 9.31463 10.7257 9.39115C10.6402 9.47643 10.5549 9.56196 10.4697 9.64751C10.4441 9.673 10.4185 9.69849 10.3921 9.72476C10.3691 9.74798 10.346 9.77121 10.3223 9.79513C10.3021 9.81536 10.2819 9.83558 10.2611 9.85641C10.2116 9.90396 10.2116 9.90396 10.2183 9.96955C10.2984 10.028 10.2984 10.028 10.398 10.0848C10.4313 10.1049 10.4647 10.125 10.499 10.1457C10.5855 10.1943 10.5855 10.1943 10.6545 10.1818C10.7326 10.1515 10.7739 10.113 10.833 10.0536C10.8552 10.0315 10.8775 10.0094 10.9004 9.98658C10.9366 9.94993 10.9366 9.94993 10.9734 9.91254C10.9991 9.88693 11.0247 9.86132 11.0511 9.83494C11.1358 9.75011 11.2203 9.66495 11.3047 9.57978C11.3634 9.52095 11.422 9.46214 11.4807 9.40336C11.6195 9.26431 11.758 9.12504 11.8964 8.98567C12.054 8.82701 12.2119 8.66861 12.3698 8.51024C12.6946 8.18447 13.0191 7.85837 13.3433 7.53205C13.2936 7.42708 13.2386 7.3564 13.1558 7.27424C13.1339 7.25216 13.112 7.23009 13.0894 7.20734C12.9819 7.11512 12.944 7.1735 12.8564 7.26103ZM9.64065 8.36766C9.58861 8.44527 9.55456 8.52067 9.51953 8.60729C9.50577 8.64109 9.49202 8.67488 9.47784 8.7097C9.46329 8.74607 9.44873 8.78243 9.43374 8.81989C9.41861 8.85742 9.40348 8.89495 9.3879 8.93361C9.35596 9.01294 9.32417 9.09233 9.29248 9.17176C9.25195 9.27326 9.21096 9.37457 9.16984 9.47584C9.13056 9.57283 9.09175 9.67 9.05288 9.76716C9.03813 9.80339 9.02339 9.83963 9.0082 9.87696C8.99474 9.91096 8.98128 9.94495 8.96741 9.97997C8.95548 10.0097 8.94355 10.0395 8.93125 10.0701C8.90289 10.1669 8.89679 10.2442 8.90578 10.3446C8.92641 10.3652 8.94703 10.3858 8.96828 10.4071C9.24544 10.1306 9.52251 9.8541 9.79948 9.57747C9.92807 9.44904 10.0567 9.32064 10.1854 9.19231C10.3095 9.06857 10.4335 8.94476 10.5574 8.8209C10.6048 8.77354 10.6523 8.7262 10.6997 8.6789C10.766 8.61289 10.8321 8.54679 10.8982 8.48067C10.928 8.45103 10.928 8.45103 10.9584 8.42079C11.05 8.34746 11.05 8.34746 11.0933 8.2508C10.9181 8.24925 10.743 8.24812 10.5678 8.24737C10.5082 8.24705 10.4487 8.24663 10.3891 8.24609C10.3034 8.24533 10.2177 8.24497 10.132 8.2447C10.1054 8.24438 10.0789 8.24405 10.0516 8.24372C9.82224 8.24122 9.82224 8.24122 9.64065 8.36766ZM13.1332 8.48908C13.0983 8.52416 13.0635 8.55932 13.0288 8.59455C13.0111 8.61244 12.9933 8.63032 12.9751 8.64875C12.9311 8.69311 12.8872 8.73757 12.8433 8.78205C12.8957 8.934 12.9787 9.06301 13.064 9.19807C13.0783 9.22121 13.0927 9.24435 13.1075 9.2682C13.1435 9.32551 13.1808 9.38199 13.2183 9.4383C13.2286 9.4383 13.2389 9.4383 13.2495 9.4383C13.2495 9.09799 13.2495 8.75768 13.2495 8.40705C13.2023 8.40344 13.2023 8.40344 13.1332 8.48908ZM5.35653 9.90781C5.29196 9.99741 5.22006 10.0793 5.14797 10.1629C5.00527 10.3324 4.98993 10.456 4.99282 10.6734C5.00216 10.781 5.02999 10.851 5.09328 10.9383C5.27487 11.034 5.47861 11.0113 5.67827 11.0107C5.74727 11.0106 5.81622 11.0113 5.88521 11.0121C5.92947 11.0122 5.97372 11.0122 6.01797 11.0122C6.05788 11.0122 6.0978 11.0123 6.13893 11.0124C6.26126 10.9996 6.33504 10.9756 6.43703 10.9071C6.5413 10.7354 6.50998 10.5168 6.5094 10.3221C6.5093 10.2531 6.51003 10.1841 6.51083 10.1151C6.5109 10.0709 6.51092 10.0266 6.51089 9.98237C6.51098 9.94245 6.51107 9.90253 6.51117 9.8614C6.49853 9.74125 6.4689 9.6657 6.40578 9.5633C6.22986 9.45806 5.98587 9.45016 5.78591 9.4791C5.58973 9.54205 5.47 9.74698 5.35653 9.90781ZM11.437 10.1883C11.3442 10.2811 11.2514 10.3739 11.1558 10.4696C11.254 10.5693 11.254 10.5693 11.3745 10.6258C11.4792 10.6158 11.518 10.6073 11.5933 10.5321C11.6115 10.4423 11.6115 10.4423 11.5933 10.3446C11.5191 10.2547 11.5191 10.2547 11.437 10.1883ZM8.9574 11.1549C8.93614 11.1749 8.91487 11.195 8.89296 11.2157C8.79606 11.309 8.69944 11.4025 8.60337 11.4967C8.55265 11.546 8.50155 11.595 8.45005 11.6436C8.37568 11.7137 8.30264 11.7851 8.22976 11.8568C8.20671 11.8781 8.18367 11.8994 8.15993 11.9213C8.02777 12.0546 7.98562 12.1398 7.98514 12.3301C7.9888 12.3871 7.99321 12.4441 7.99953 12.5008C8.23178 12.528 8.23178 12.528 8.4493 12.4596C8.5191 12.3994 8.58132 12.3363 8.64358 12.2684C8.66663 12.2448 8.68968 12.2212 8.71343 12.1969C8.7863 12.122 8.85774 12.0458 8.92922 11.9696C8.97861 11.9183 9.02809 11.8671 9.07766 11.816C9.19848 11.691 9.31817 11.5651 9.43703 11.4383C9.41223 11.4138 9.38742 11.3893 9.36186 11.3641C9.29702 11.2985 9.24693 11.2394 9.1968 11.1629C9.17295 11.13 9.1491 11.0972 9.12453 11.0633C9.0385 11.0633 9.01935 11.0962 8.9574 11.1549ZM12.7495 13.1571C12.7495 13.4355 12.7495 13.7139 12.7495 14.0008C9.86203 14.0008 6.97453 14.0008 3.99953 14.0008C3.99953 14.1658 3.99953 14.3308 3.99953 14.5008C5.14289 14.5029 6.28624 14.5046 7.4296 14.5056C7.56455 14.5057 7.6995 14.5058 7.83445 14.506C7.87475 14.506 7.87475 14.506 7.91586 14.506C8.35101 14.5064 8.78617 14.5072 9.22132 14.508C9.66774 14.5089 10.1142 14.5094 10.5606 14.5096C10.8361 14.5098 11.1116 14.5102 11.3872 14.5109C11.576 14.5114 11.7649 14.5116 11.9538 14.5114C12.0628 14.5114 12.1718 14.5115 12.2808 14.512C12.399 14.5124 12.5171 14.5123 12.6353 14.5121C12.687 14.5125 12.687 14.5125 12.7398 14.5129C12.9115 14.5119 13.0403 14.5074 13.187 14.4071C13.3058 14.2163 13.2988 13.9233 13.2726 13.7068C13.2062 13.4735 12.9725 13.2933 12.7808 13.1571C12.7705 13.1571 12.7602 13.1571 12.7495 13.1571Z" fill="white"/>
<path d="M5.20388 2.49226C5.25176 2.49257 5.25176 2.49257 5.30062 2.49287C5.33359 2.4934 5.36656 2.49392 5.40053 2.49446C5.43411 2.49474 5.46768 2.49503 5.50228 2.49532C5.5849 2.49605 5.66752 2.49717 5.75014 2.49837C5.75014 2.66337 5.75014 2.82837 5.75014 2.99837C5.50991 3.01009 5.50991 3.01009 5.43511 3.01331C5.31182 3.0202 5.20186 3.02682 5.09389 3.09212C5.02643 3.22055 5.02334 3.33338 5.02309 3.47688C5.02303 3.49849 5.02297 3.52009 5.02291 3.54235C5.02287 3.58784 5.02298 3.63333 5.02324 3.67882C5.02358 3.74815 5.02324 3.81746 5.02285 3.8868C5.02289 3.93115 5.02297 3.9755 5.02309 4.01985C5.02316 4.05993 5.02323 4.10002 5.0233 4.14131C5.03123 4.24621 5.04 4.31446 5.09389 4.40462C5.2173 4.47839 5.33743 4.47517 5.47866 4.47542C5.50026 4.47548 5.52186 4.47554 5.54412 4.4756C5.58961 4.47564 5.6351 4.47553 5.68059 4.47527C5.74993 4.47493 5.81923 4.47526 5.88857 4.47566C5.93292 4.47562 5.97727 4.47554 6.02162 4.47542C6.08175 4.47531 6.08175 4.47531 6.14308 4.4752C6.24597 4.46743 6.3155 4.45236 6.40639 4.40462C6.4838 4.27663 6.48215 4.13434 6.48842 3.9886C6.49422 3.86969 6.49422 3.86969 6.50014 3.74837C6.66514 3.74837 6.83014 3.74837 7.00014 3.74837C7.00353 3.86298 7.006 3.97748 7.00795 4.09212C7.009 4.1243 7.01005 4.15649 7.01113 4.18965C7.01425 4.43466 6.97668 4.60124 6.81374 4.78719C6.7934 4.80402 6.77305 4.82086 6.75209 4.83821C6.73183 4.85553 6.71157 4.87286 6.69069 4.8907C6.51625 5.01089 6.35321 5.00839 6.14797 5.00887C6.11687 5.00907 6.08578 5.00928 6.05375 5.0095C5.98805 5.00981 5.92236 5.00996 5.85667 5.00995C5.75667 5.01009 5.65671 5.01122 5.55672 5.01241C5.49273 5.01259 5.42875 5.01271 5.36476 5.01277C5.3351 5.01322 5.30544 5.01367 5.27488 5.01413C5.04899 5.0126 4.88268 4.96213 4.71132 4.81197C4.69448 4.79162 4.67765 4.77128 4.6603 4.75032C4.64297 4.73006 4.62565 4.7098 4.60781 4.68892C4.48761 4.51448 4.49012 4.35143 4.48964 4.14619C4.48943 4.1151 4.48923 4.08401 4.48901 4.05197C4.4887 3.98628 4.48855 3.92059 4.48856 3.8549C4.48842 3.7549 4.48729 3.65494 4.4861 3.55495C4.48592 3.49096 4.48579 3.42698 4.48574 3.36299C4.48506 3.3185 4.48506 3.3185 4.48438 3.2731C4.48591 3.04722 4.53638 2.88091 4.68654 2.70955C4.70688 2.69271 4.72723 2.67587 4.74819 2.65852C4.76845 2.6412 4.78871 2.62388 4.80959 2.60603C4.93781 2.51769 5.04923 2.49054 5.20388 2.49226Z" fill="white"/>
<path d="M7.75 5.75C8.9875 5.75 10.225 5.75 11.5 5.75C11.5 5.915 11.5 6.08 11.5 6.25C10.2625 6.25 9.025 6.25 7.75 6.25C7.75 6.085 7.75 5.92 7.75 5.75Z" fill="white"/>
<path d="M7.75 2.5C8.9875 2.5 10.225 2.5 11.5 2.5C11.5 2.665 11.5 2.83 11.5 3C10.2625 3 9.025 3 7.75 3C7.75 2.835 7.75 2.67 7.75 2.5Z" fill="white"/>
<path d="M7.75 3.5C8.74 3.5 9.73 3.5 10.75 3.5C10.75 3.665 10.75 3.83 10.75 4C9.76 4 8.77 4 7.75 4C7.75 3.835 7.75 3.67 7.75 3.5Z" fill="white"/>
<path d="M7.75 6.75C8.575 6.75 9.4 6.75 10.25 6.75C10.25 6.915 10.25 7.08 10.25 7.25C9.425 7.25 8.6 7.25 7.75 7.25C7.75 7.085 7.75 6.92 7.75 6.75Z" fill="white"/>
<path d="M6.53125 5.8125C6.64478 5.8655 6.71705 5.92931 6.80469 6.01953C6.82966 6.04507 6.85464 6.07061 6.88037 6.09692C6.89922 6.1165 6.91808 6.13608 6.9375 6.15625C6.89316 6.25711 6.83973 6.32414 6.76176 6.40158C6.73862 6.42472 6.71548 6.44786 6.69163 6.4717C6.66666 6.49635 6.64169 6.52099 6.61597 6.54639C6.59039 6.57187 6.56482 6.59736 6.53846 6.62362C6.45678 6.70496 6.37488 6.78607 6.29297 6.86719C6.23753 6.92231 6.18211 6.97744 6.12671 7.03259C5.99089 7.16773 5.85489 7.30268 5.71875 7.4375C5.60522 7.3845 5.53295 7.32069 5.44531 7.23047C5.42034 7.20493 5.39536 7.17939 5.36963 7.15308C5.35078 7.1335 5.33192 7.11392 5.3125 7.09375C5.35684 6.99289 5.41027 6.92586 5.48824 6.84842C5.51138 6.82528 5.53452 6.80214 5.55837 6.7783C5.58334 6.75365 5.60831 6.72901 5.63403 6.70361C5.65961 6.67813 5.68518 6.65264 5.71154 6.62638C5.79322 6.54504 5.87512 6.46393 5.95703 6.38281C6.01247 6.32769 6.06789 6.27256 6.12329 6.21741C6.25911 6.08227 6.39511 5.94732 6.53125 5.8125Z" fill="white"/>
<path d="M6.53125 2.5625C6.64478 2.6155 6.71705 2.67931 6.80469 2.76953C6.82966 2.79507 6.85464 2.82061 6.88037 2.84692C6.89922 2.8665 6.91808 2.88608 6.9375 2.90625C6.89316 3.00711 6.83973 3.07414 6.76176 3.15158C6.73862 3.17472 6.71548 3.19786 6.69163 3.2217C6.66666 3.24635 6.64169 3.27099 6.61597 3.29639C6.59039 3.32187 6.56482 3.34736 6.53846 3.37362C6.45678 3.45496 6.37488 3.53607 6.29297 3.61719C6.23753 3.67231 6.18211 3.72744 6.12671 3.78259C5.99089 3.91773 5.85489 4.05268 5.71875 4.1875C5.60522 4.1345 5.53295 4.07069 5.44531 3.98047C5.42034 3.95493 5.39536 3.92939 5.36963 3.90308C5.35078 3.8835 5.33192 3.86392 5.3125 3.84375C5.35684 3.74289 5.41027 3.67586 5.48824 3.59842C5.51138 3.57528 5.53452 3.55214 5.55837 3.5283C5.58334 3.50365 5.60831 3.47901 5.63403 3.45361C5.65961 3.42813 5.68518 3.40264 5.71154 3.37638C5.79322 3.29504 5.87512 3.21393 5.95703 3.13281C6.01247 3.07769 6.06789 3.02256 6.12329 2.96741C6.25911 2.83227 6.39511 2.69732 6.53125 2.5625Z" fill="white"/>
</svg>
