<svg width="16" height="16" viewBox="0 0 16 16" fill="none" xmlns="http://www.w3.org/2000/svg">
<path d="M8.37156 0.0692045C8.59408 0.18632 8.76317 0.374954 8.93767 0.551996C8.99479 0.608158 9.05345 0.660316 9.11451 0.712115C9.25209 0.830044 9.37798 0.958716 9.50516 1.08756C9.59737 1.18052 9.6904 1.26925 9.79116 1.35308C10.0046 1.53558 10.1631 1.73314 10.1916 2.01912C10.2035 2.28319 10.1236 2.50066 9.9585 2.70575C9.76899 2.90784 9.57854 3.01312 9.29976 3.0227C9.12725 3.026 9.05479 2.98693 8.87466 2.91944C8.89011 6.39116 8.89011 6.39116 8.90586 9.93301C8.97793 9.789 9.05001 9.64499 9.12426 9.49661C9.17743 9.40995 9.2294 9.32764 9.28806 9.24529C9.30265 9.22454 9.31724 9.20379 9.33227 9.18241C10.2042 7.96053 11.4301 7.19973 12.8906 6.88906C12.9673 6.87738 13.0404 6.87636 13.1179 6.87821C13.1044 6.85434 13.1044 6.85434 13.0906 6.82999C12.9768 6.60735 12.9475 6.38865 13.0148 6.14507C13.1285 5.86475 13.3105 5.68989 13.5859 5.56901C13.7962 5.48666 14.0103 5.48667 14.2226 5.56588C14.4253 5.66237 14.56 5.77928 14.7071 5.94697C14.7502 5.99445 14.7934 6.0419 14.8366 6.08931C14.8573 6.1123 14.8781 6.13529 14.8994 6.15897C14.9796 6.24643 15.0631 6.32949 15.1478 6.41259C15.2594 6.52268 15.3643 6.63539 15.4657 6.75474C15.5288 6.82545 15.5963 6.89038 15.6646 6.95614C15.8948 7.18342 15.9914 7.36942 16 7.69257C16.001 7.94584 15.943 8.12506 15.774 8.31539C15.732 8.35758 15.6892 8.39899 15.6457 8.43958C15.5869 8.49512 15.5353 8.55229 15.4832 8.61407C15.3816 8.73239 15.2724 8.84158 15.1615 8.95111C15.0519 9.05936 14.9438 9.16709 14.8436 9.28426C14.3607 9.84812 14.3607 9.84812 14.0077 9.877C13.6641 9.88294 13.4675 9.8089 13.2168 9.56979C13.0519 9.3917 12.9885 9.2212 12.9892 8.98033C12.9891 8.95072 12.989 8.92111 12.9889 8.8906C12.9931 8.81084 12.9931 8.81084 13.0243 8.71733C12.4215 8.83708 11.8993 9.13372 11.4331 9.52778C11.4124 9.5439 11.3917 9.56001 11.3704 9.57661C10.7445 10.0817 10.3628 10.9076 10.2236 11.6838C10.2197 11.7051 10.2158 11.7264 10.2118 11.7484C10.2013 11.8076 10.1917 11.8671 10.1821 11.9265C10.1539 12.0215 10.1539 12.0215 10.0944 12.0808C10.0049 12.1277 9.94163 12.1254 9.84186 12.115C9.72642 12.0714 9.72642 12.0714 9.68586 11.9903C9.58264 11.2876 10.0151 10.3883 10.4217 9.83475C10.486 9.75109 10.5532 9.67024 10.6219 9.59013C10.6361 9.57326 10.6504 9.55639 10.6651 9.53902C11.3539 8.73344 12.3698 8.19224 13.4299 8.0939C13.4702 8.0895 13.4702 8.0895 13.5113 8.08501C13.6432 8.07661 13.6946 8.08275 13.8062 8.16014C13.8787 8.26754 13.8825 8.30957 13.8667 8.43678C13.8074 8.52567 13.8074 8.52567 13.7302 8.61212C13.5632 8.79378 13.5632 8.79378 13.5254 9.02709C13.5459 9.16103 13.6048 9.22446 13.7107 9.30958C13.8139 9.36113 13.912 9.36435 14.0227 9.34075C14.1181 9.27981 14.1936 9.2034 14.2723 9.12255C14.2909 9.10463 14.3096 9.08671 14.3288 9.06825C14.4202 8.97981 14.5056 8.88803 14.5882 8.79136C14.6905 8.67246 14.8004 8.56255 14.9119 8.45237C15.0431 8.32259 15.1719 8.1926 15.2904 8.05091C15.3277 8.00673 15.3682 7.96528 15.4091 7.9244C15.48 7.80834 15.4874 7.69623 15.4579 7.56398C15.366 7.39924 15.2392 7.27697 15.1049 7.14707C14.9659 7.01058 14.8309 6.87427 14.7052 6.7254C14.5731 6.57772 14.4293 6.44052 14.2882 6.30145C14.2433 6.25699 14.1988 6.21212 14.1543 6.16724C14.0686 6.0822 14.0686 6.0822 13.9603 6.03658C13.7954 6.04257 13.7028 6.07565 13.5859 6.19244C13.5145 6.29435 13.5088 6.38165 13.5235 6.50415C13.5871 6.62373 13.6649 6.70766 13.7633 6.79834C13.845 6.87779 13.8666 6.90902 13.9018 7.02238C13.8972 7.14711 13.8932 7.19455 13.8043 7.28344C13.6299 7.33488 13.4453 7.35322 13.2652 7.37497C12.1685 7.51059 11.2028 7.99435 10.4035 8.7485C10.3786 8.77136 10.3537 8.79422 10.328 8.81778C9.47302 9.63126 8.94881 10.8632 8.90279 12.0376C8.90142 12.1194 8.90093 12.2011 8.90083 12.2829C8.90068 12.3137 8.90052 12.3444 8.90036 12.376C8.89991 12.4765 8.8997 12.577 8.89952 12.6774C8.89944 12.712 8.89935 12.7465 8.89926 12.782C8.89879 12.9644 8.8985 13.1468 8.89837 13.3291C8.89819 13.5171 8.89744 13.7052 8.89656 13.8932C8.89598 14.0382 8.89581 14.1832 8.89577 14.3283C8.89567 14.3976 8.89542 14.4669 8.89501 14.5363C8.89448 14.6332 8.89454 14.73 8.89474 14.8269C8.89445 14.8554 8.89417 14.8839 8.89387 14.9132C8.89499 15.0848 8.91756 15.205 8.99946 15.3568C9.1037 15.4491 9.20341 15.4686 9.34266 15.4636C9.4566 15.4394 9.51272 15.3778 9.59226 15.2945C9.62822 15.1867 9.62779 15.1024 9.62838 14.9887C9.62854 14.9672 9.6287 14.9458 9.62886 14.9237C9.6292 14.8772 9.62947 14.8306 9.62968 14.7841C9.63005 14.7105 9.63065 14.6368 9.63134 14.5632C9.63326 14.3539 9.63495 14.1446 9.63599 13.9353C9.63664 13.8072 9.63774 13.6792 9.63913 13.5512C9.63957 13.5023 9.63984 13.4535 9.63994 13.4047C9.6401 13.3365 9.64082 13.2683 9.64167 13.2001C9.64205 13.1419 9.64205 13.1419 9.64243 13.0824C9.65466 12.9878 9.65466 12.9878 9.6957 12.9295C9.78378 12.8705 9.86222 12.8667 9.96667 12.8631C10.0586 12.9051 10.1084 12.9281 10.1539 13.019C10.1572 13.0885 10.1585 13.1581 10.1589 13.2276C10.159 13.2491 10.1592 13.2705 10.1594 13.2926C10.1598 13.3638 10.16 13.435 10.1602 13.5062C10.1604 13.5557 10.1606 13.6053 10.1607 13.6548C10.1611 13.7589 10.1613 13.8631 10.1614 13.9672C10.1615 14.1 10.1623 14.2328 10.1632 14.3656C10.1638 14.4681 10.1639 14.5706 10.164 14.6732C10.1641 14.7221 10.1643 14.771 10.1647 14.8199C10.1676 15.1928 10.1484 15.4793 9.87916 15.7637C9.66111 15.9571 9.42489 15.9909 9.14267 15.9894C8.95926 15.9744 8.8244 15.901 8.66991 15.8069C8.5727 15.7894 8.549 15.8133 8.46711 15.8653C8.4468 15.88 8.42649 15.8947 8.40556 15.9098C8.21559 16.0316 7.91728 16.009 7.70514 15.9637C7.57204 15.9163 7.45935 15.8443 7.34586 15.7621C7.32462 15.7807 7.30338 15.7994 7.28151 15.8186C7.04299 15.996 6.82812 16.0096 6.53465 15.9803C6.30384 15.9226 6.10108 15.771 5.96208 15.5792C5.8783 15.4389 5.84449 15.3192 5.84394 15.1578C5.84377 15.1307 5.8436 15.1035 5.84343 15.0755C5.8434 15.046 5.84336 15.0164 5.84333 14.9859C5.84317 14.9546 5.84301 14.9232 5.84285 14.8909C5.84251 14.8228 5.84225 14.7547 5.84203 14.6865C5.84166 14.5782 5.84106 14.4699 5.84038 14.3616C5.83846 14.0536 5.83678 13.7455 5.83573 13.4375C5.83507 13.249 5.83396 13.0605 5.83258 12.872C5.83215 12.8006 5.83187 12.7292 5.83177 12.6578C5.83098 12.1446 5.81419 11.6336 5.6396 11.1448C5.63169 11.122 5.62378 11.0992 5.61564 11.0758C5.42625 10.5491 5.14019 10.1216 4.75625 9.71481C4.73521 9.69143 4.71418 9.66804 4.6925 9.64395C4.26126 9.18319 3.64182 8.8849 3.04024 8.71733C3.01965 8.71733 2.99906 8.71733 2.97784 8.71733C2.99328 8.76362 2.99328 8.76362 3.00904 8.81084C3.03661 9.08221 2.99984 9.31749 2.82915 9.53594C2.65111 9.72538 2.44471 9.85579 2.18175 9.877C1.84483 9.88277 1.67877 9.80494 1.43392 9.57344C1.40802 9.54809 1.38212 9.52273 1.35543 9.49661C1.31851 9.46099 1.31851 9.46099 1.28085 9.42465C1.1738 9.3197 1.07058 9.21317 0.973232 9.09918C0.872349 8.98143 0.763654 8.87298 0.65343 8.76408C0.506336 8.6186 0.364722 8.47117 0.232229 8.3121C0.209063 8.28574 0.185897 8.25938 0.162029 8.23222C0.037958 8.05957 -0.00308152 7.90151 0.000177992 7.69062C0.000634225 7.65758 0.000634225 7.65758 0.00109967 7.62388C0.0156293 7.19803 0.348166 6.94645 0.634662 6.66415C0.69316 6.60484 0.747704 6.54421 0.801631 6.48078C0.918886 6.34392 1.04704 6.2188 1.17548 6.09256C1.26958 5.99959 1.35779 5.90564 1.44123 5.8028C1.58331 5.63578 1.7639 5.541 1.97944 5.50667C2.26679 5.48415 2.50692 5.5701 2.72678 5.75275C2.93957 5.97144 3.01952 6.2001 3.01842 6.49904C3.00473 6.64292 2.95215 6.75276 2.88424 6.87821C2.90521 6.87954 2.92619 6.88086 2.9478 6.88222C3.15761 6.898 3.35259 6.93268 3.55504 6.98926C3.58459 6.99746 3.61414 7.00567 3.64458 7.01412C5.02159 7.41088 6.19584 8.33803 6.9121 9.57564C6.95568 9.65493 6.99728 9.73414 7.03756 9.81508C7.04861 9.83725 7.05966 9.85942 7.07104 9.88226C7.07936 9.89901 7.08768 9.91576 7.09625 9.93301C7.09637 9.89531 7.09637 9.89531 7.09648 9.85684C7.09832 9.24576 7.10068 8.63468 7.10361 8.0236C7.10501 7.72808 7.10624 7.43257 7.10706 7.13706C7.10778 6.87954 7.10882 6.62203 7.11025 6.36452C7.111 6.22812 7.11159 6.09172 7.11178 5.95532C7.11197 5.82701 7.11259 5.6987 7.11355 5.57039C7.11382 5.52323 7.11394 5.47607 7.11388 5.42891C7.11383 5.36464 7.11435 5.3004 7.11501 5.23614C7.11516 5.20013 7.1153 5.16413 7.11545 5.12704C7.12745 5.0391 7.12745 5.0391 7.16833 4.98161C7.25478 4.92254 7.33661 4.91982 7.43946 4.91441C7.51161 4.93389 7.51161 4.93389 7.56426 4.97676C7.62004 5.09093 7.63448 5.18275 7.63456 5.30908C7.63474 5.34448 7.63491 5.37987 7.63509 5.41634C7.6349 5.47445 7.63491 5.47445 7.63472 5.53372C7.6348 5.57541 7.63492 5.61709 7.63506 5.65877C7.63537 5.77327 7.6353 5.88776 7.63516 6.00226C7.63509 6.12576 7.63537 6.24926 7.63561 6.37275C7.63599 6.58674 7.63615 6.80073 7.63617 7.01472C7.63621 7.32428 7.63668 7.63385 7.63728 7.94341C7.63824 8.44587 7.639 8.94833 7.63955 9.4508C7.6396 9.49591 7.6396 9.49591 7.63965 9.54193C7.64002 9.87755 7.64034 10.2132 7.6406 10.5488C7.6407 10.6705 7.6408 10.7922 7.64089 10.914C7.64093 10.959 7.64093 10.959 7.64097 11.005C7.64137 11.5056 7.64214 12.0061 7.64319 12.5067C7.64383 12.8156 7.64415 13.1244 7.64407 13.4333C7.64404 13.6448 7.64434 13.8563 7.6449 14.0679C7.64521 14.19 7.64537 14.3121 7.64512 14.4342C7.6449 14.546 7.64511 14.6577 7.64565 14.7695C7.64583 14.8291 7.64555 14.8888 7.64525 14.9484C7.64551 14.9838 7.64576 15.0192 7.64603 15.0557C7.64606 15.1015 7.64606 15.1015 7.6461 15.1482C7.66272 15.2669 7.70888 15.3549 7.80411 15.4289C7.91255 15.4611 8.01481 15.4682 8.12586 15.4504C8.25867 15.3805 8.25867 15.3805 8.34426 15.2633C8.34731 15.1936 8.34827 15.1238 8.34832 15.0541C8.34838 15.0322 8.34845 15.0103 8.34851 14.9878C8.34867 14.9138 8.34862 14.8398 8.34857 14.7658C8.34864 14.7125 8.34873 14.6592 8.34883 14.6059C8.34908 14.4588 8.34912 14.3118 8.34915 14.1647C8.3492 14.0063 8.34944 13.848 8.34966 13.6896C8.35002 13.415 8.35028 13.1404 8.35047 12.8658C8.3508 12.4319 8.35144 11.9981 8.35213 11.5642C8.35237 11.4159 8.3526 11.2676 8.35283 11.1193C8.35291 11.0637 8.35291 11.0637 8.353 11.0069C8.35366 10.5847 8.35424 10.1625 8.3548 9.74027C8.35485 9.70166 8.3549 9.66305 8.35496 9.62327C8.35578 8.9974 8.35636 8.37153 8.35688 7.74566C8.35742 7.10363 8.35832 6.46159 8.35953 5.81956C8.36026 5.42325 8.36069 5.02695 8.36075 4.63064C8.36082 4.35915 8.36122 4.08767 8.36189 3.81618C8.36227 3.65941 8.36249 3.50264 8.36231 3.34586C8.36214 3.20244 8.3624 3.05903 8.36301 2.91561C8.36315 2.86363 8.36314 2.81165 8.36295 2.75967C8.36272 2.68917 8.36306 2.61871 8.36354 2.54822C8.36358 2.50901 8.36363 2.46981 8.36367 2.42942C8.37644 2.31866 8.40223 2.2597 8.46906 2.17133C8.57079 2.12051 8.63685 2.12559 8.74986 2.14016C8.84127 2.20421 8.91916 2.2811 8.99946 2.35836C9.11268 2.45462 9.18225 2.49297 9.32901 2.48499C9.42934 2.46758 9.47364 2.44775 9.56106 2.38953C9.64091 2.26987 9.67573 2.15948 9.65466 2.01547C9.5662 1.85311 9.44327 1.74002 9.30756 1.61803C9.26547 1.57956 9.22343 1.54104 9.18142 1.50248C9.15075 1.47436 9.15075 1.47436 9.11946 1.44566C9.04162 1.3732 8.96686 1.29829 8.89221 1.22255C8.78583 1.11486 8.67618 1.01417 8.56095 0.916069C8.47217 0.837163 8.39052 0.751723 8.30867 0.665723C8.19383 0.560873 8.09987 0.542947 7.94475 0.536045C7.76164 0.574458 7.63062 0.726297 7.50576 0.856283C7.40402 0.96017 7.30303 1.06241 7.1918 1.15631C7.05659 1.27109 6.93375 1.39753 6.80927 1.52365C6.69653 1.63731 6.58103 1.74451 6.45629 1.84512C6.38371 1.91649 6.35101 1.98113 6.3405 2.08244C6.35061 2.22275 6.37184 2.30846 6.47615 2.40706C6.56031 2.46879 6.60184 2.48388 6.7082 2.50252C6.86082 2.4748 6.95092 2.40782 7.06213 2.30149C7.22824 2.14416 7.22824 2.14416 7.36926 2.12067C7.47352 2.14071 7.52233 2.1578 7.59546 2.23367C7.62655 2.32685 7.63096 2.38962 7.63168 2.48698C7.63198 2.51955 7.63228 2.55212 7.63259 2.58567C7.63279 2.63842 7.63279 2.63842 7.63299 2.69223C7.63317 2.7284 7.63335 2.76457 7.63353 2.80183C7.63383 2.87839 7.63403 2.95496 7.63415 3.03152C7.63445 3.14865 7.63542 3.26575 7.63641 3.38287C7.63661 3.45723 7.63677 3.53159 7.63689 3.60594C7.63728 3.64098 7.63766 3.67602 7.63806 3.71212C7.63797 3.74489 7.63787 3.77765 7.63778 3.8114C7.63795 3.85449 7.63795 3.85449 7.63812 3.89844C7.62422 3.99644 7.59062 4.05525 7.53306 4.13513C7.44632 4.17845 7.37959 4.17206 7.28346 4.1663C7.16801 4.12266 7.16801 4.12266 7.12745 4.04161C7.12475 3.95748 7.12385 3.87417 7.12441 3.79005C7.12447 3.75282 7.12447 3.75282 7.12454 3.71484C7.12472 3.63543 7.12511 3.55603 7.1255 3.47663C7.12566 3.42285 7.1258 3.36907 7.12593 3.31529C7.12628 3.18334 7.12681 3.05139 7.12745 2.91944C7.11048 2.92604 7.0935 2.93263 7.076 2.93942C7.05365 2.94798 7.03129 2.95654 7.00825 2.96535C6.98613 2.97388 6.964 2.9824 6.9412 2.99118C6.76039 3.05334 6.5639 3.03438 6.3884 2.96425C6.13338 2.8339 5.96154 2.65234 5.84825 2.38953C5.78468 2.18484 5.79315 1.94812 5.86824 1.74783C6.01355 1.49001 6.26443 1.28359 6.48456 1.09129C6.57877 1.00634 6.66787 0.917303 6.75695 0.82706C6.87765 0.704932 7.0006 0.588033 7.13184 0.477234C7.1966 0.419739 7.2551 0.358038 7.31466 0.295197C7.58543 0.0198675 8.00624 -0.080107 8.37156 0.0692045ZM1.65963 6.30349C1.63013 6.33687 1.60055 6.3702 1.57091 6.40346C1.55599 6.42024 1.54107 6.43702 1.52569 6.45431C1.45345 6.53353 1.37726 6.60818 1.30083 6.68339C1.18754 6.7953 1.0808 6.90941 0.977741 7.03066C0.873832 7.14625 0.760749 7.25301 0.648921 7.36088C0.52699 7.49098 0.492349 7.59505 0.497795 7.77147C0.527459 7.91372 0.631058 7.9948 0.731431 8.0939C0.775771 8.14172 0.819515 8.19005 0.863308 8.23838C1.02771 8.41927 1.19834 8.59256 1.37225 8.76433C1.45716 8.85023 1.53604 8.93978 1.61454 9.03148C1.81557 9.27707 1.81557 9.27707 2.09644 9.38167C2.23455 9.37941 2.31141 9.3398 2.41624 9.24724C2.49995 9.12853 2.53085 9.02553 2.5074 8.87964C2.45548 8.75545 2.35406 8.66939 2.26158 8.57377C2.17297 8.47 2.15855 8.41559 2.16664 8.28093C2.19648 8.19378 2.20885 8.16632 2.29144 8.12507C3.23025 8.0575 4.18346 8.54104 4.87386 9.13449C4.95029 9.20203 5.02508 9.27096 5.09945 9.34075C5.11783 9.35711 5.13621 9.37346 5.15514 9.39031C5.834 10.0204 6.28174 11.0523 6.31932 11.9718C6.32064 12.0564 6.32108 12.1409 6.32117 12.2255C6.32133 12.2574 6.32149 12.2894 6.32165 12.3223C6.32199 12.3913 6.32225 12.4604 6.32247 12.5294C6.32284 12.6387 6.32344 12.7479 6.32412 12.8572C6.32604 13.1678 6.32774 13.4783 6.32877 13.7889C6.32943 13.9792 6.33053 14.1694 6.33192 14.3597C6.33236 14.4321 6.33263 14.5045 6.33273 14.5769C6.33288 14.6781 6.33361 14.7792 6.33446 14.8804C6.33436 14.9102 6.33427 14.9401 6.33417 14.9708C6.3362 15.1329 6.34922 15.2483 6.44105 15.388C6.53927 15.4629 6.62909 15.5068 6.75305 15.5127C6.91359 15.462 7.00573 15.4059 7.09625 15.2633C7.12307 15.1774 7.13141 15.1 7.13163 15.0103C7.13176 14.9849 7.13189 14.9596 7.13203 14.9335C7.13202 14.906 7.132 14.8785 7.13199 14.8501C7.13209 14.8209 7.1322 14.7917 7.1323 14.7616C7.1326 14.6648 7.13266 14.5679 7.1327 14.4711C7.1328 14.4035 7.1329 14.3358 7.13301 14.2681C7.1332 14.126 7.13325 13.9838 7.13324 13.8416C7.13323 13.6608 7.13366 13.4801 7.1342 13.2994C7.13455 13.1593 7.13461 13.0193 7.13459 12.8793C7.13463 12.8127 7.13476 12.7462 7.13501 12.6797C7.13669 12.1714 7.12212 11.6661 6.99875 11.1701C6.99213 11.1432 6.9855 11.1163 6.97867 11.0885C6.64294 9.78648 5.80489 8.68735 4.65466 7.99586C3.96664 7.59255 3.21886 7.37577 2.42531 7.30472C2.31529 7.29416 2.26082 7.28383 2.16664 7.2211C2.13683 7.10835 2.12274 7.03461 2.16664 6.92497C2.2372 6.83684 2.31425 6.76012 2.39686 6.68327C2.4755 6.59864 2.50663 6.52874 2.52154 6.41454C2.50158 6.24836 2.42104 6.15918 2.29339 6.05607C2.03036 5.91663 1.8308 6.10651 1.65963 6.30349Z" fill="white"/>
</svg>
