<svg width="35" height="35" viewBox="0 0 35 35" fill="none" xmlns="http://www.w3.org/2000/svg">
<rect width="35" height="35" rx="3" fill="#4F5051"/>
<g clip-path="url(#clip0_3499_65247)">
<path d="M18.2803 14.5639C18.3146 14.5821 18.3488 14.6003 18.384 14.619C18.4226 14.6393 18.4612 14.6596 18.501 14.6805C18.5619 14.7132 18.5619 14.7132 18.6241 14.7466C18.6669 14.7693 18.7097 14.7919 18.7525 14.8145C18.8378 14.8595 18.923 14.9047 19.0081 14.9501C19.1337 15.0171 19.2596 15.0834 19.3856 15.1496C19.4376 15.1769 19.4895 15.2042 19.5414 15.2316C19.6987 15.3148 19.8564 15.397 20.0146 15.4786C20.0532 15.4986 20.0919 15.5186 20.1317 15.5391C20.2065 15.5778 20.2814 15.6164 20.3564 15.6549C21.0821 16.03 21.0821 16.03 21.1993 16.1727C21.2129 16.2422 21.2129 16.2422 21.2134 16.323C21.2138 16.3536 21.2143 16.3843 21.2148 16.4159C21.2147 16.4494 21.2147 16.4829 21.2146 16.5175C21.215 16.5529 21.2153 16.5883 21.2157 16.6247C21.2167 16.742 21.2169 16.8593 21.217 16.9766C21.2173 17.058 21.2177 17.1394 21.2181 17.2208C21.2187 17.3915 21.2189 17.5623 21.2188 17.7331C21.2188 17.952 21.2203 18.1709 21.2221 18.3898C21.2233 18.558 21.2235 18.7261 21.2234 18.8943C21.2235 18.975 21.224 19.0557 21.2248 19.1364C21.2258 19.2493 21.2255 19.3621 21.2249 19.475C21.2258 19.5251 21.2258 19.5251 21.2267 19.5762C21.2235 19.7972 21.2235 19.7972 21.1544 19.8875C21.0389 19.9863 20.9032 20.0564 20.7682 20.1248C20.7477 20.1353 20.7272 20.1458 20.7061 20.1567C20.6399 20.1905 20.5735 20.2239 20.5072 20.2574C20.4608 20.281 20.4145 20.3046 20.3682 20.3283C20.2766 20.3751 20.185 20.4218 20.0933 20.4685C19.9368 20.5484 19.7813 20.6299 19.626 20.7122C19.365 20.8501 19.1035 20.9868 18.8416 21.1231C18.8052 21.1421 18.7688 21.161 18.7313 21.1806C18.6615 21.2169 18.5916 21.2529 18.5216 21.2888C18.4559 21.323 18.3908 21.3582 18.3262 21.3945C18.2962 21.4109 18.2662 21.4274 18.2353 21.4443C18.2093 21.4591 18.1833 21.4738 18.1566 21.489C18.0007 21.5385 17.8672 21.4992 17.7198 21.4377C17.6856 21.4195 17.6514 21.4013 17.6161 21.3825C17.5775 21.3622 17.5389 21.3419 17.4991 21.321C17.4585 21.2992 17.4179 21.2774 17.376 21.2549C17.3333 21.2323 17.2905 21.2097 17.2477 21.1872C17.1625 21.1422 17.0774 21.097 16.9924 21.0516C16.8655 20.984 16.7383 20.917 16.611 20.8502C16.532 20.8087 16.4531 20.7671 16.3742 20.7254C16.251 20.6604 16.1274 20.5961 16.0037 20.532C14.9148 19.9679 14.9148 19.9679 14.8009 19.8289C14.7873 19.7593 14.7873 19.7593 14.7868 19.6786C14.7863 19.6479 14.7859 19.6173 14.7854 19.5857C14.7854 19.5522 14.7855 19.5186 14.7855 19.4841C14.7852 19.4487 14.7848 19.4133 14.7845 19.3768C14.7835 19.2595 14.7833 19.1423 14.7831 19.025C14.7828 18.9436 14.7824 18.8622 14.7821 18.7808C14.7814 18.61 14.7812 18.4392 14.7813 18.2685C14.7813 18.0496 14.7799 17.8307 14.7781 17.6118C14.7769 17.4436 14.7767 17.2754 14.7767 17.1073C14.7766 17.0266 14.7761 16.9458 14.7753 16.8651C14.7743 16.7523 14.7746 16.6395 14.7752 16.5266C14.7746 16.4932 14.774 16.4598 14.7734 16.4254C14.7766 16.2044 14.7766 16.2044 14.8455 16.1141C14.9654 16.0115 15.1072 15.9399 15.2473 15.869C15.2694 15.8577 15.2915 15.8465 15.3142 15.8348C15.3854 15.7985 15.4568 15.7626 15.5281 15.7266C15.5778 15.7014 15.6274 15.6761 15.6769 15.6508C15.7746 15.6009 15.8723 15.5512 15.97 15.5015C16.1319 15.4191 16.2927 15.3348 16.4532 15.2498C16.5044 15.2227 16.5556 15.1957 16.6069 15.1686C16.6455 15.1483 16.6455 15.1483 16.6849 15.1275C16.8543 15.0382 17.024 14.9495 17.1937 14.8609C17.2433 14.8349 17.2433 14.8349 17.2939 14.8085C17.3575 14.7752 17.4212 14.7422 17.4851 14.7095C17.5479 14.6767 17.6101 14.6429 17.6717 14.6081C17.7017 14.5917 17.7317 14.5753 17.7626 14.5583C17.7889 14.5434 17.8152 14.5285 17.8423 14.5131C17.9989 14.463 18.1321 14.502 18.2803 14.5639ZM17.7277 15.2363C17.7039 15.2487 17.68 15.261 17.6554 15.2737C17.5776 15.3139 17.4999 15.3544 17.4222 15.3948C17.3689 15.4224 17.3157 15.45 17.2624 15.4776C17.1097 15.5567 16.9572 15.6361 16.8048 15.7156C16.7672 15.7352 16.7295 15.7548 16.6908 15.775C16.3755 15.9397 16.0613 16.1061 15.7501 16.2781C15.8601 16.402 15.9797 16.4724 16.127 16.5432C16.1615 16.5602 16.1615 16.5602 16.1967 16.5775C16.2457 16.6017 16.2949 16.6258 16.344 16.6497C16.4719 16.712 16.5994 16.7751 16.7269 16.8381C16.7645 16.8567 16.7645 16.8567 16.8029 16.8756C17.0543 16.9998 17.3023 17.13 17.5496 17.2619C17.5718 17.2735 17.594 17.2851 17.6168 17.297C17.6638 17.3222 17.7102 17.3485 17.756 17.3757C17.9007 17.4588 17.9007 17.4588 18.0634 17.4592C18.1191 17.4314 18.1191 17.4314 18.1759 17.4031C18.2038 17.3898 18.2317 17.3766 18.2605 17.3629C18.3641 17.3132 18.4666 17.2617 18.5692 17.2098C18.6065 17.191 18.6439 17.1722 18.6824 17.1528C18.9404 17.0226 19.1966 16.8893 19.4518 16.7538C19.7156 16.614 19.9824 16.4806 20.2501 16.3484C20.2501 16.3252 20.2501 16.302 20.2501 16.2781C20.2122 16.2585 20.2122 16.2585 20.1735 16.2385C19.3228 15.7982 19.3228 15.7982 18.9449 15.5992C18.9057 15.5785 18.9057 15.5785 18.8656 15.5575C18.7307 15.4863 18.596 15.4147 18.4616 15.3425C18.4339 15.3277 18.4062 15.3128 18.3777 15.2976C18.325 15.2694 18.2724 15.241 18.2199 15.2125C18.0021 15.096 17.9378 15.1266 17.7277 15.2363ZM15.3634 16.8055C15.3634 17.6988 15.3634 18.5921 15.3634 19.5125C15.8591 19.7829 16.3546 20.0496 16.8575 20.3057C16.9182 20.3368 16.979 20.3678 17.0397 20.3989C17.1499 20.4552 17.2601 20.5115 17.3703 20.5677C17.3919 20.5787 17.4135 20.5896 17.4357 20.601C17.5299 20.6486 17.6244 20.6957 17.7188 20.743C17.7188 19.838 17.7188 18.9331 17.7188 18.0008C17.3712 17.8052 17.0279 17.6157 16.6707 17.4405C16.3457 17.2799 16.0226 17.1165 15.7038 16.9437C15.5889 16.882 15.4908 16.8373 15.3634 16.8055ZM20.4169 16.8773C20.3858 16.8931 20.3548 16.9089 20.3228 16.9251C20.289 16.9424 20.2552 16.9598 20.2204 16.9777C20.1853 16.9956 20.1503 17.0135 20.1141 17.0319C20.0394 17.0701 19.9647 17.1083 19.89 17.1466C19.778 17.2041 19.6658 17.2613 19.5537 17.3184C19.4807 17.3557 19.4078 17.393 19.3349 17.4303C19.3023 17.447 19.2696 17.4636 19.236 17.4807C18.9131 17.6467 18.5993 17.8241 18.2813 18.0008C18.2813 18.9057 18.2813 19.8106 18.2813 20.743C18.6261 20.5706 18.9706 20.3981 19.3133 20.2214C19.3794 20.1873 19.4457 20.1534 19.5119 20.1194C19.8912 19.924 20.2625 19.7184 20.6368 19.5125C20.6368 18.6192 20.6368 17.7259 20.6368 16.8055C20.5462 16.8055 20.4977 16.8361 20.4169 16.8773Z" fill="white"/>
<path d="M21.3748 20.8981C21.4055 20.8979 21.4361 20.8977 21.4677 20.8975C21.5325 20.8972 21.5973 20.8973 21.6621 20.8978C21.7612 20.8983 21.8602 20.8971 21.9592 20.8957C22.0222 20.8957 22.0852 20.8958 22.1482 20.8959C22.1778 20.8955 22.2074 20.895 22.2379 20.8945C22.384 20.8969 22.4429 20.8985 22.5547 20.9995C22.6244 21.1296 22.6108 21.1999 22.5701 21.3399C22.4295 21.4806 22.4295 21.4806 21.9373 21.5157C22.6334 22.2118 23.3295 22.9079 24.0466 23.6251C24.2091 23.5555 24.3715 23.4859 24.5388 23.4141C25.0118 23.2905 25.5034 23.3315 25.9341 23.5725C26.3699 23.8588 26.6229 24.2442 26.736 24.7499C26.8101 25.1918 26.7142 25.638 26.4724 26.0157C26.1796 26.4083 25.8086 26.649 25.3298 26.743C24.771 26.7929 24.3082 26.6624 23.8703 26.3103C23.5307 26.0024 23.3667 25.5314 23.3347 25.0841C23.3413 24.7046 23.4686 24.3904 23.6248 24.047C22.9287 23.3509 22.2326 22.6548 21.5154 21.9376C21.5038 22.1 21.4922 22.2624 21.4802 22.4298C21.3396 22.5704 21.3396 22.5704 21.2188 22.6056C21.0935 22.6056 21.0935 22.6056 20.9992 22.555C20.8814 22.4247 20.893 22.3187 20.8956 22.1485C20.8955 22.1178 20.8955 22.0872 20.8954 22.0556C20.8954 21.9908 20.8959 21.926 20.8968 21.8612C20.898 21.7621 20.8975 21.6631 20.8968 21.564C20.897 21.5011 20.8974 21.4381 20.8978 21.3751C20.8977 21.3455 20.8975 21.3159 20.8973 21.2854C20.8998 21.1597 20.9055 21.0797 20.9695 20.9698C21.1026 20.8922 21.2231 20.8972 21.3748 20.8981ZM24.1521 24.3634C23.9538 24.6828 23.8798 25.0013 23.9627 25.3745C24.07 25.6756 24.2649 25.9057 24.5498 26.0509C24.8433 26.1836 25.1558 26.2134 25.4639 26.1014C25.7811 25.9546 25.9989 25.7118 26.1247 25.388C26.2034 25.11 26.1859 24.8135 26.064 24.5514C25.8742 24.2292 25.6275 24.0583 25.2771 23.9415C24.8131 23.9018 24.462 24.0046 24.1521 24.3634Z" fill="white"/>
<path d="M26.1529 9.63541C26.5181 9.96796 26.7065 10.3604 26.7653 10.8515C26.7847 11.2875 26.6426 11.7212 26.3673 12.058C26.0316 12.4191 25.6608 12.5965 25.172 12.6557C24.7576 12.667 24.4141 12.558 24.047 12.3744C23.3509 13.0705 22.6548 13.7666 21.9376 14.4838C22.1 14.4954 22.2624 14.507 22.4298 14.519C22.5783 14.6675 22.6056 14.7037 22.6056 14.9057C22.555 15 22.555 15 22.4649 15.0815C22.3595 15.1073 22.2566 15.1053 22.1485 15.1036C22.1178 15.1037 22.0872 15.1038 22.0556 15.1038C21.9908 15.1038 21.926 15.1033 21.8612 15.1025C21.7621 15.1013 21.6631 15.1017 21.564 15.1024C21.5011 15.1022 21.4381 15.1018 21.3751 15.1014C21.3455 15.1016 21.3159 15.1017 21.2854 15.1019C21.1597 15.0994 21.0797 15.0938 20.9698 15.0297C20.8922 14.8966 20.8972 14.7761 20.8981 14.6244C20.8979 14.5938 20.8977 14.5631 20.8975 14.5315C20.8972 14.4667 20.8973 14.4019 20.8978 14.3371C20.8983 14.238 20.8971 14.1391 20.8957 14.04C20.8957 13.977 20.8958 13.914 20.8959 13.851C20.8955 13.8214 20.895 13.7918 20.8945 13.7613C20.8969 13.6152 20.8985 13.5563 20.9995 13.4445C21.1296 13.3748 21.1999 13.3884 21.3399 13.4291C21.4806 13.5698 21.4806 13.5698 21.5157 14.0619C22.2118 13.3658 22.9079 12.6698 23.6251 11.9526C23.5555 11.7901 23.4859 11.6277 23.4141 11.4604C23.3004 10.9743 23.3264 10.5153 23.5702 10.0684C23.8242 9.67711 24.1872 9.3898 24.6446 9.28069C25.1803 9.17547 25.7291 9.2834 26.1529 9.63541ZM24.1524 10.2651C23.9541 10.5845 23.8802 10.903 23.9631 11.2762C24.0704 11.5773 24.2652 11.8074 24.5501 11.9526C24.8424 12.0847 25.1546 12.1149 25.462 12.0053C25.7913 11.8522 25.9885 11.618 26.1212 11.2846C26.2115 11.0137 26.1811 10.7077 26.0623 10.4507C25.8814 10.1392 25.6228 9.94101 25.2774 9.84319C24.8179 9.79303 24.4575 9.91181 24.1524 10.2651Z" fill="white"/>
<path d="M13.8515 20.8961C13.8822 20.896 13.9129 20.8959 13.9445 20.8959C14.0093 20.8959 14.074 20.8964 14.1388 20.8972C14.2379 20.8984 14.3369 20.898 14.436 20.8973C14.499 20.8975 14.562 20.8979 14.625 20.8983C14.6546 20.8981 14.6841 20.898 14.7146 20.8978C14.8404 20.9003 14.9203 20.906 15.0302 20.97C15.1078 21.1031 15.1028 21.2236 15.1019 21.3753C15.1021 21.4059 15.1023 21.4366 15.1026 21.4682C15.1028 21.533 15.1027 21.5978 15.1023 21.6626C15.1018 21.7617 15.103 21.8606 15.1043 21.9597C15.1043 22.0227 15.1043 22.0857 15.1041 22.1487C15.1046 22.1783 15.105 22.2079 15.1055 22.2384C15.1032 22.3845 15.1016 22.4434 15.0005 22.5552C14.8705 22.6249 14.8001 22.6113 14.6601 22.5706C14.5195 22.4299 14.5195 22.4299 14.4843 21.9378C13.7882 22.6339 13.0921 23.3299 12.375 24.0471C12.4446 24.2096 12.5142 24.372 12.5859 24.5393C12.7001 24.9764 12.6743 25.4279 12.4804 25.8401C12.2346 26.2511 11.9153 26.543 11.4535 26.6829C10.9771 26.8023 10.5318 26.7699 10.0898 26.5432C9.64378 26.2559 9.37906 25.8639 9.26377 25.3481C9.18972 24.9066 9.28514 24.4594 9.5273 24.0823C9.83698 23.6762 10.1953 23.4443 10.7011 23.3591C11.1755 23.3092 11.5207 23.4287 11.9531 23.6253C12.6492 22.9292 13.3453 22.2331 14.0625 21.5159C13.8188 21.4985 13.8188 21.4985 13.5703 21.4807C13.4296 21.3401 13.4296 21.3401 13.3945 21.2193C13.3945 21.094 13.3945 21.094 13.445 20.9997C13.5753 20.8819 13.6813 20.8934 13.8515 20.8961ZM10.0546 24.3635C9.85671 24.6824 9.78015 25.0035 9.8665 25.3759C9.98325 25.6972 10.204 25.9378 10.5117 26.0862C10.7861 26.1928 11.0849 26.2024 11.3642 26.1038C11.6935 25.9507 11.8907 25.7165 12.0234 25.3831C12.1129 25.1146 12.0851 24.8065 11.9665 24.5515C11.7768 24.2293 11.5301 24.0585 11.1796 23.9417C10.7157 23.902 10.3645 24.0048 10.0546 24.3635Z" fill="white"/>
<path d="M12.0585 9.63366C12.4195 9.96975 12.597 10.3398 12.6562 10.829C12.6675 11.2433 12.5585 11.5869 12.3749 11.954C13.071 12.6501 13.7671 13.3462 14.4843 14.0634C14.4959 13.9009 14.5075 13.7385 14.5195 13.5712C14.6601 13.4305 14.6601 13.4305 14.7809 13.3954C14.9062 13.3954 14.9062 13.3954 15.0005 13.4459C15.1183 13.5762 15.1068 13.6822 15.1041 13.8524C15.1042 13.8831 15.1042 13.9138 15.1043 13.9454C15.1043 14.0102 15.1038 14.0749 15.103 14.1397C15.1017 14.2388 15.1022 14.3378 15.1029 14.4369C15.1027 14.4999 15.1023 14.5629 15.1019 14.6259C15.1021 14.6554 15.1022 14.685 15.1024 14.7155C15.0999 14.8413 15.0942 14.9212 15.0302 15.0311C14.8971 15.1087 14.7766 15.1037 14.6249 15.1028C14.5943 15.103 14.5636 15.1032 14.532 15.1035C14.4672 15.1037 14.4024 15.1036 14.3376 15.1031C14.2385 15.1027 14.1396 15.1039 14.0405 15.1052C13.9775 15.1052 13.9145 15.1052 13.8515 15.105C13.8219 15.1055 13.7923 15.1059 13.7618 15.1064C13.6157 15.1041 13.5568 15.1025 13.445 15.0014C13.3753 14.8714 13.3889 14.801 13.4296 14.661C13.5702 14.5204 13.5702 14.5204 14.0624 14.4852C13.3663 13.7891 12.6702 13.093 11.9531 12.3759C11.7906 12.4455 11.6282 12.5151 11.4609 12.5868C11.0237 12.701 10.5723 12.6752 10.1601 12.4813C9.71089 12.2126 9.42812 11.8631 9.28778 11.3585C9.18763 10.9105 9.25392 10.476 9.47235 10.0711C9.7237 9.67831 10.0903 9.39101 10.5468 9.2821C11.0766 9.17804 11.6386 9.28558 12.0585 9.63366ZM10.0898 10.2313C9.86566 10.5262 9.80995 10.8138 9.84368 11.1805C9.90488 11.4532 10.0555 11.6671 10.2656 11.8485C10.585 12.0468 10.9034 12.1208 11.2767 12.0379C11.5778 11.9306 11.8079 11.7357 11.9531 11.4508C12.0852 11.1586 12.1154 10.8464 12.0058 10.5389C11.8633 10.2315 11.6316 10.0109 11.3202 9.87976C10.861 9.73206 10.4056 9.88457 10.0898 10.2313Z" fill="white"/>
<path d="M11.4194 16.9495C11.667 17.163 11.8187 17.3971 11.8831 17.7189C12.3181 17.7015 12.3181 17.7015 12.762 17.6838C12.7272 17.6374 12.6923 17.591 12.6565 17.5432C12.6111 17.4199 12.6174 17.377 12.6675 17.2531C12.7268 17.1564 12.7268 17.1564 12.7971 17.1213C12.942 17.0995 13.0285 17.0873 13.1518 17.1713C13.2278 17.2418 13.2984 17.3151 13.3684 17.3915C13.3928 17.4169 13.4172 17.4423 13.4423 17.4684C13.5097 17.5391 13.5753 17.6113 13.6409 17.6838C13.6697 17.713 13.6985 17.7422 13.7282 17.7724C13.8031 17.8949 13.8143 18.0035 13.7815 18.1408C13.7292 18.2302 13.6625 18.2978 13.5881 18.3693C13.5688 18.3888 13.5495 18.4083 13.5297 18.4283C13.4911 18.4672 13.4522 18.5058 13.4131 18.5442C13.3665 18.5909 13.3224 18.6401 13.2789 18.6897C13.1714 18.8107 13.0962 18.8953 12.929 18.9055C12.7855 18.8768 12.7376 18.8586 12.6565 18.7385C12.6076 18.6147 12.6171 18.5727 12.6697 18.4484C12.7268 18.3517 12.7268 18.3517 12.762 18.3166C12.4719 18.305 12.1819 18.2934 11.8831 18.2814C11.8482 18.3974 11.8134 18.5135 11.7776 18.633C11.5396 19.0038 11.2542 19.2241 10.824 19.3273C10.42 19.3625 10.0735 19.3019 9.74511 19.0509C9.43467 18.7831 9.28656 18.4705 9.23727 18.0665C9.21839 17.7222 9.33979 17.3811 9.56329 17.1213C10.0768 16.6037 10.8211 16.4921 11.4194 16.9495ZM10.0066 17.5234C9.84591 17.7303 9.81271 17.9166 9.84399 18.176C9.91847 18.4288 10.0907 18.5849 10.312 18.7165C10.5771 18.7781 10.793 18.7517 11.0322 18.6201C11.1864 18.5058 11.261 18.3546 11.3206 18.176C11.3466 17.9357 11.325 17.7408 11.1799 17.5432C11.0058 17.3575 10.8452 17.2612 10.5889 17.2487C10.3411 17.255 10.1721 17.3403 10.0066 17.5234Z" fill="white"/>
<path d="M18.1406 22.2186C18.23 22.2709 18.2976 22.3376 18.3691 22.412C18.3886 22.4312 18.4081 22.4505 18.4281 22.4704C18.467 22.509 18.5056 22.5479 18.544 22.587C18.5907 22.6336 18.64 22.6776 18.6895 22.7212C18.8105 22.8287 18.8951 22.9039 18.9053 23.0711C18.8766 23.2146 18.8584 23.2624 18.7383 23.3436C18.6145 23.3924 18.5725 23.383 18.4482 23.3304C18.3516 23.2733 18.3516 23.2733 18.3164 23.2381C18.3048 23.5282 18.2932 23.8182 18.2812 24.117C18.3973 24.1518 18.5133 24.1866 18.6328 24.2225C18.9597 24.4051 19.1958 24.7104 19.3008 25.0662C19.3792 25.4085 19.3463 25.7671 19.1773 26.0781C18.9574 26.4062 18.686 26.6316 18.2988 26.7274C17.9287 26.7974 17.5653 26.7463 17.2485 26.534C16.9163 26.2801 16.7237 25.9742 16.6641 25.5584C16.6343 25.1956 16.7281 24.87 16.9493 24.5807C17.1628 24.3331 17.3969 24.1814 17.7187 24.117C17.7013 23.682 17.7013 23.682 17.6836 23.2381C17.6372 23.2729 17.5908 23.3077 17.543 23.3436C17.4197 23.389 17.3768 23.3826 17.2529 23.3326C17.1562 23.2733 17.1562 23.2733 17.1211 23.203C17.0993 23.0581 17.0871 22.9715 17.1711 22.8483C17.2416 22.7722 17.3149 22.7017 17.3913 22.6317C17.4294 22.5951 17.4294 22.5951 17.4682 22.5578C17.5389 22.4903 17.6111 22.4248 17.6836 22.3592C17.7128 22.3304 17.742 22.3016 17.7722 22.2719C17.8947 22.197 18.0033 22.1858 18.1406 22.2186ZM17.4243 24.941C17.2636 25.148 17.2304 25.3342 17.2617 25.5936C17.3362 25.8465 17.5084 26.0025 17.7297 26.1341C17.9645 26.1887 18.1811 26.1834 18.393 26.0624C18.5514 25.9462 18.6932 25.7876 18.7383 25.5936C18.765 25.3527 18.7432 25.1591 18.5976 24.9608C18.4236 24.7752 18.263 24.6789 18.0066 24.6663C17.7588 24.6726 17.5898 24.7579 17.4243 24.941Z" fill="white"/>
<path d="M26.255 16.9501C26.5826 17.2327 26.7297 17.5665 26.7647 17.9943C26.7507 18.3867 26.6108 18.6964 26.3413 18.9786C26.0712 19.2259 25.7234 19.3585 25.3553 19.3453C24.9598 19.3022 24.6551 19.1594 24.3851 18.8644C24.242 18.684 24.1621 18.5075 24.117 18.2821C23.682 18.2995 23.682 18.2995 23.2381 18.3172C23.2729 18.3637 23.3077 18.4101 23.3436 18.4579C23.389 18.5811 23.3826 18.624 23.3326 18.7479C23.2733 18.8446 23.2733 18.8446 23.203 18.8797C23.0581 18.9015 22.9715 18.9137 22.8483 18.8297C22.7722 18.7593 22.7017 18.686 22.6317 18.6095C22.5951 18.5715 22.5951 18.5715 22.5578 18.5326C22.4903 18.4619 22.4248 18.3897 22.3592 18.3172C22.316 18.2734 22.316 18.2734 22.2719 18.2287C22.197 18.1062 22.1858 17.9975 22.2186 17.8602C22.2709 17.7708 22.3376 17.7033 22.412 17.6317C22.4312 17.6122 22.4505 17.5928 22.4704 17.5727C22.509 17.5338 22.5479 17.4952 22.587 17.4568C22.6336 17.4101 22.6776 17.3609 22.7212 17.3113C22.8287 17.1903 22.9039 17.1057 23.0711 17.0956C23.2146 17.1243 23.2624 17.1425 23.3436 17.2626C23.3924 17.3863 23.383 17.4283 23.3304 17.5526C23.2733 17.6493 23.2733 17.6493 23.2381 17.6844C23.5282 17.696 23.8182 17.7076 24.117 17.7196C24.1518 17.6036 24.1866 17.4876 24.2225 17.368C24.4051 17.0412 24.7104 16.8051 25.0662 16.7001C25.4933 16.6022 25.9067 16.6839 26.255 16.9501ZM24.8421 17.524C24.6814 17.731 24.6482 17.9172 24.6795 18.1766C24.754 18.4295 24.9263 18.5856 25.1475 18.7172C25.3823 18.7717 25.599 18.7664 25.8108 18.6455C25.9692 18.5292 26.111 18.3706 26.1561 18.1766C26.1829 17.9358 26.161 17.7422 26.0155 17.5438C25.8414 17.3582 25.6808 17.2619 25.4244 17.2494C25.1766 17.2556 25.0076 17.341 24.8421 17.524Z" fill="white"/>
<path d="M18.7514 9.46499C19.0835 9.71892 19.2762 10.0248 19.3358 10.4406C19.3656 10.8034 19.2718 11.129 19.0506 11.4184C18.8371 11.6659 18.603 11.8176 18.2811 11.882C18.2986 12.317 18.2986 12.317 18.3163 12.7609C18.3627 12.7261 18.4091 12.6913 18.4569 12.6554C18.5802 12.61 18.6231 12.6164 18.747 12.6664C18.8436 12.7257 18.8436 12.7257 18.8788 12.796C18.9006 12.9409 18.9128 13.0275 18.8288 13.1507C18.7583 13.2268 18.685 13.2973 18.6085 13.3673C18.5832 13.3917 18.5578 13.4161 18.5317 13.4412C18.461 13.5087 18.3888 13.5742 18.3163 13.6398C18.2871 13.6686 18.2578 13.6974 18.2277 13.7271C18.1052 13.802 17.9966 13.8132 17.8593 13.7804C17.7698 13.7281 17.7023 13.6614 17.6308 13.5871C17.6113 13.5678 17.5918 13.5485 17.5717 13.5286C17.5329 13.49 17.4942 13.4511 17.4559 13.412C17.4092 13.3654 17.3599 13.3214 17.3104 13.2778C17.1893 13.1703 17.1048 13.0951 17.0946 12.9279C17.1233 12.7844 17.1415 12.7366 17.2616 12.6554C17.3854 12.6066 17.4274 12.616 17.5517 12.6686C17.6483 12.7257 17.6483 12.7257 17.6835 12.7609C17.6951 12.4708 17.7067 12.1808 17.7186 11.882C17.6026 11.8472 17.4866 11.8124 17.3671 11.7765C17.0402 11.5939 16.8041 11.2887 16.6991 10.9328C16.6207 10.5905 16.6536 10.2319 16.8226 9.92092C17.0425 9.59277 17.3139 9.36742 17.7011 9.27163C18.0712 9.20163 18.4346 9.25272 18.7514 9.46499ZM17.4242 10.1044C17.2635 10.3114 17.2303 10.4976 17.2616 10.757C17.3361 11.0099 17.5084 11.1659 17.7296 11.2975C17.9644 11.3521 18.181 11.3468 18.3929 11.2258C18.5513 11.1096 18.6931 10.951 18.7382 10.757C18.7649 10.5161 18.7431 10.3225 18.5976 10.1242C18.4235 9.93854 18.2629 9.84224 18.0065 9.82973C17.7587 9.83599 17.5897 9.92133 17.4242 10.1044Z" fill="white"/>
</g>
<defs>
<clipPath id="clip0_3499_65247">
<rect width="18" height="18" fill="white" transform="translate(9 9)"/>
</clipPath>
</defs>
</svg>
