<svg width="35" height="36" viewBox="0 0 35 36" fill="none" xmlns="http://www.w3.org/2000/svg">
<rect y="0.675781" width="35" height="35" rx="3" fill="#00C875"/>
<path d="M17.2723 7.51328C16.9596 7.56039 16.6616 7.67033 16.3157 7.85879C16.0545 8.00406 15.9147 8.11399 15.6498 8.39668C15.1678 8.90709 14.9213 9.40179 14.8073 10.085C14.7373 10.5168 14.7373 10.7132 14.8073 11.145C15.0059 12.3622 15.8706 13.3477 17.0148 13.6617C17.3643 13.756 18.0266 13.756 18.3761 13.6617C19.4505 13.3673 20.2746 12.4878 20.5505 11.3413C20.6388 10.9684 20.6388 10.2616 20.5505 9.88865C20.1679 8.30245 18.7551 7.28163 17.2723 7.51328ZM18.2805 8.08258C18.8875 8.2357 19.5535 8.79323 19.8405 9.38609C20.2194 10.1596 20.2157 11.0744 19.8405 11.8439C19.6528 12.2287 19.2076 12.7038 18.8471 12.904C18.1222 13.3084 17.2687 13.3084 16.5439 12.904C16.1502 12.6841 15.7307 12.2248 15.5321 11.7929C15.3076 11.306 15.2561 11.043 15.2745 10.4972C15.2892 10.1321 15.3113 9.99073 15.3959 9.75123C15.6792 8.93065 16.3415 8.27889 17.0957 8.08651C17.3827 8.01191 17.9898 8.01191 18.2805 8.08258Z" fill="white"/>
<path d="M17.9386 10.3018L17.2726 11.0046L17.0298 10.7533C16.7612 10.4746 16.6508 10.4353 16.5184 10.5766C16.3712 10.7337 16.4153 10.8358 16.8053 11.2519C17.096 11.5621 17.188 11.6367 17.2726 11.6367C17.3646 11.6367 17.5007 11.5072 18.163 10.8004C18.9982 9.90918 19.0386 9.85029 18.8731 9.6736C18.7149 9.50478 18.645 9.54797 17.9386 10.3018Z" fill="white"/>
<path d="M11.9376 13.0265C11.8787 13.0579 11.783 13.1286 11.7315 13.1914C11.6211 13.3209 8.63359 17.6398 8.52689 17.8204C8.44227 17.9696 8.43859 18.2719 8.51954 18.4525C8.60048 18.637 9.99859 19.8267 10.2046 19.8856C10.407 19.9445 10.6167 19.8934 10.7676 19.7521C10.889 19.6382 10.9 19.6343 10.992 19.6932C11.0472 19.7285 11.1281 19.8149 11.1759 19.8817C11.2495 19.9994 11.2569 20.0583 11.2569 20.4863V20.9614L10.9957 21.3147C10.6241 21.8173 10.5505 21.99 10.5284 22.3748C10.5174 22.6339 10.5284 22.7321 10.5983 22.9245C10.7013 23.219 10.9736 23.5331 11.2532 23.6783C11.4298 23.7726 11.5034 23.7883 11.7757 23.7883H12.0958L12.1178 23.9806C12.162 24.3929 12.4637 24.8209 12.8206 24.9897C13.045 25.0957 13.4019 25.1232 13.619 25.0525L13.7919 24.9936L13.8176 25.1193C13.8839 25.4608 14.1561 25.7985 14.4983 25.9634C14.6933 26.0615 15.1311 26.0733 15.3151 25.9909L15.4365 25.9398L15.5027 26.1361C15.5874 26.3913 15.8486 26.6819 16.1098 26.8193C16.2791 26.9096 16.3637 26.9292 16.5918 26.9253C16.945 26.9253 17.2209 26.7918 17.4454 26.517L17.6036 26.3246L17.8059 26.4306C18.0745 26.572 18.505 26.5798 18.7662 26.4424C19.1673 26.2382 19.4138 25.8692 19.4506 25.4255L19.4726 25.1938L19.6971 25.1664C20.2747 25.1035 20.6684 24.6717 20.7052 24.0592L20.7199 23.7804L20.9223 23.7568C21.5073 23.6901 21.9782 23.1365 21.9819 22.5083V22.2453L22.1953 22.2256C22.4823 22.1981 22.7692 22.0411 22.9716 21.8016C23.1666 21.5699 23.2512 21.3265 23.2512 20.9967V20.7494L23.3726 20.7258C23.4352 20.714 23.6486 20.6826 23.8399 20.6551C24.1784 20.608 24.1931 20.6119 24.355 20.6983C24.4727 20.7651 24.561 20.7847 24.6677 20.7729C24.848 20.7533 26.5662 19.9445 26.7134 19.811C26.8642 19.6775 26.9305 19.5244 26.9305 19.3124C26.9305 19.0454 24.7781 13.372 24.6052 13.1796C24.4654 13.0265 24.2851 12.9558 24.1011 12.9833C23.9503 13.0029 22.1658 13.8471 22.0591 13.9452C21.9598 14.0434 21.8531 14.3025 21.8531 14.4674C21.8531 14.597 21.8384 14.6127 21.6066 14.754C21.1651 15.0131 21.2608 15.0171 19.4064 14.7226C18.4976 14.5813 17.6661 14.4635 17.5668 14.4635C17.1437 14.4635 16.6985 14.6637 16.371 14.9974L16.1613 15.2095H15.2489H14.3364L14.215 15.1113C14.1009 15.0171 14.0936 15.0014 14.1157 14.8208C14.1525 14.4635 14.0752 14.3575 13.2584 13.6743C12.8647 13.3406 12.4968 13.05 12.4416 13.0225C12.3092 12.9597 12.0737 12.9637 11.9376 13.0265ZM12.8978 14.0355C13.2584 14.3378 13.5748 14.6166 13.6006 14.6519C13.6374 14.7069 13.6374 14.7383 13.6006 14.809C13.5748 14.8561 12.861 15.9044 12.0111 17.1333C10.7492 18.959 10.4511 19.3673 10.3812 19.3713C10.3224 19.3713 10.0611 19.1749 9.61227 18.798C9.05671 18.3269 8.93529 18.2052 8.94633 18.1384C8.96105 18.056 12.0369 13.5683 12.1178 13.5133C12.1399 13.4976 12.1767 13.4819 12.1988 13.4819C12.2209 13.4819 12.5336 13.7293 12.8978 14.0355ZM24.274 13.5683C24.3623 13.6861 26.4558 19.2927 26.4374 19.3595C26.4154 19.438 24.7634 20.235 24.6236 20.235C24.5794 20.235 24.5279 20.2036 24.5058 20.1644C24.4874 20.129 24.0459 18.9747 23.5272 17.6045C23.0084 16.2342 22.5264 14.966 22.4565 14.7854C22.3608 14.5459 22.3388 14.4438 22.3645 14.3928C22.405 14.3182 24.0349 13.5251 24.1563 13.5251C24.2005 13.5212 24.252 13.5447 24.274 13.5683ZM19.2813 15.233C21.2276 15.5432 21.2534 15.5432 21.7207 15.2762C22.0371 15.0956 22.0407 15.0956 22.0739 15.182C22.1695 15.4136 23.9429 20.0976 23.9392 20.1055C23.9356 20.1055 23.7406 20.1408 23.5088 20.1761C22.8318 20.2821 22.3682 20.2115 21.9524 19.9327C21.8752 19.8817 21.1099 19.2417 20.2563 18.5114C19.182 17.5927 18.6448 17.1608 18.5197 17.1097C18.3946 17.0587 18.2475 17.0351 18.0267 17.0351C17.7213 17.0351 17.7029 17.0391 17.2725 17.2589C16.7463 17.5259 16.5403 17.5809 16.1172 17.5573C15.5616 17.5259 15.1937 17.3218 15.1937 17.0469C15.1937 16.9134 15.2489 16.8467 16.1981 15.8808C16.5145 15.555 16.842 15.2448 16.9229 15.1898C17.0775 15.0838 17.3865 14.9817 17.5521 14.9778C17.6073 14.9739 18.3873 15.0917 19.2813 15.233ZM13.9685 15.5707L14.1341 15.7002L14.8662 15.712C15.2673 15.7199 15.5984 15.7316 15.5984 15.7434C15.5984 15.7513 15.4328 15.9319 15.2268 16.14C14.7338 16.6465 14.6381 16.8545 14.7191 17.2629C14.8442 17.8911 15.867 18.2641 16.8125 18.0285C16.9045 18.0049 17.1621 17.895 17.3865 17.7811C18.1959 17.3728 18.0672 17.3139 19.9841 18.9551C20.8303 19.6736 21.6029 20.3214 21.7059 20.3921C21.912 20.5334 22.3057 20.6905 22.5522 20.7297C22.7435 20.7611 22.7729 20.7925 22.7729 20.9889C22.7729 21.2558 22.6294 21.5032 22.3976 21.6328C22.2873 21.6956 21.9782 21.7074 21.8457 21.6524C21.7979 21.6328 21.224 21.193 20.5654 20.6708C19.2666 19.6422 19.2372 19.6265 19.0826 19.8503C18.9502 20.0387 19.0127 20.1094 20.0981 20.9614C20.6463 21.3933 21.1614 21.8094 21.2424 21.884C21.419 22.0529 21.4852 22.2138 21.4852 22.473C21.4852 22.9834 21.0326 23.3524 20.5764 23.2229C20.4844 23.1954 20.0392 22.8813 19.3733 22.3748C18.2842 21.5464 18.1996 21.4953 18.0561 21.6367C17.9789 21.7113 17.9678 21.8801 18.0377 21.9704C18.0598 22.0058 18.4976 22.3473 19.0017 22.7321C19.5094 23.1169 19.973 23.4859 20.0392 23.5527C20.4182 23.9532 20.1496 24.6324 19.6161 24.6324C19.5315 24.6324 19.4285 24.6167 19.3807 24.5971C19.3328 24.5774 18.8656 24.2044 18.3394 23.7686C17.8133 23.3328 17.346 22.9559 17.2982 22.9323C17.1805 22.8734 17.0186 23.0069 17.0039 23.1758C16.9892 23.325 16.9303 23.2661 17.9862 24.1495C18.4204 24.5107 18.8067 24.8562 18.8508 24.9151C18.9539 25.0682 18.9759 25.4373 18.8913 25.6297C18.7589 25.9202 18.4241 26.0851 18.1224 26.0027C17.8832 25.9398 17.8685 25.9006 17.9605 25.6493C18.1408 25.1507 18.0009 24.5617 17.6183 24.2398C17.3939 24.0513 17.2246 23.9885 16.9376 23.9885L16.7095 23.9846L16.6911 23.7804C16.6396 23.2425 16.2055 22.8028 15.6867 22.7557L15.4623 22.736L15.4439 22.4965C15.4071 22.0097 15.1569 21.6131 14.7595 21.405C14.5535 21.2951 14.4762 21.2755 14.2518 21.2755H13.9869L13.9648 21.0792C13.928 20.7454 13.836 20.5216 13.6374 20.29C13.3835 19.9955 13.1554 19.8738 12.7948 19.8503C12.4453 19.8267 12.1877 19.9091 11.9228 20.1212L11.7352 20.2743V20.0858C11.7352 19.8149 11.588 19.5205 11.3636 19.3398L11.187 19.1985L11.3231 19.0022C11.3967 18.8923 11.7389 18.3936 12.0847 17.8989C12.4306 17.4003 12.953 16.6465 13.2437 16.2224C13.538 15.7945 13.7845 15.445 13.7882 15.445C13.7956 15.445 13.8765 15.5039 13.9685 15.5707ZM12.953 20.3999C13.148 20.4667 13.2731 20.5766 13.3798 20.7729C13.4976 20.9928 13.5123 21.3187 13.4092 21.5307C13.3099 21.7427 12.3754 23.0069 12.2392 23.1169C11.7389 23.5252 11.0214 23.1365 11.0177 22.4533C11.0177 22.1549 11.0619 22.0764 11.7058 21.2009C12.0847 20.6826 12.2319 20.5138 12.357 20.4431C12.5373 20.345 12.758 20.3253 12.953 20.3999ZM14.5682 21.884C14.892 22.0607 15.0355 22.4141 14.9361 22.791C14.8957 22.948 13.8949 24.3026 13.7257 24.4322C13.3761 24.6991 12.861 24.5499 12.655 24.122C12.5814 23.9728 12.5961 23.6508 12.6844 23.4742C12.7875 23.2621 13.7146 22.0058 13.836 21.9115C14.031 21.7584 14.3143 21.7505 14.5682 21.884ZM15.8412 23.3328C16.0178 23.4192 16.1356 23.5645 16.1944 23.7804C16.2607 24.0121 16.1834 24.1887 15.7419 24.8248C15.3261 25.4216 15.1974 25.5354 14.9141 25.5354C14.7007 25.5354 14.4394 25.347 14.3475 25.131C14.2628 24.9308 14.2555 24.7934 14.3291 24.6128C14.3806 24.4753 15.0281 23.5998 15.2047 23.4231C15.374 23.2543 15.6094 23.219 15.8412 23.3328ZM17.2209 24.5774C17.346 24.6442 17.5042 24.8444 17.5337 24.9701C17.5889 25.2056 17.5263 25.4451 17.3276 25.7789C17.0775 26.195 17.0039 26.2775 16.8604 26.3442C16.4777 26.5209 16.0215 26.2814 15.9369 25.8574C15.9038 25.6925 15.9258 25.4805 15.9884 25.3745C16.0914 25.1938 16.5035 24.656 16.5771 24.6049C16.761 24.4793 17.0149 24.4675 17.2209 24.5774Z" fill="white"/>
</svg>
