<svg width="35" height="35" viewBox="0 0 35 35" fill="none" xmlns="http://www.w3.org/2000/svg">
<rect width="35" height="35" rx="3" fill="#333333"/>
<path d="M10.4189 9.06779C9.75879 9.24357 9.24316 9.77091 9.06738 10.4389C8.97754 10.7748 8.97754 22.8608 9.06738 23.1967C9.2041 23.724 9.56348 24.1811 10.0322 24.4115C10.833 24.8139 11.4893 24.6303 11.4893 24.0053C11.4893 23.6381 11.2939 23.4389 10.8838 23.3803C10.6221 23.3451 10.4932 23.2709 10.3604 23.0912C10.2783 22.9858 10.2783 22.9662 10.2666 17.8139L10.2588 12.642L10.3838 12.6889C10.4814 12.724 12.3291 12.7397 17.6885 12.7553C24.8564 12.7748 24.8643 12.7748 24.9697 12.8568C25.2041 13.0287 25.2393 13.1186 25.251 13.5795L25.2666 14.0053H22.9658C21.0518 14.0053 20.6299 14.017 20.4424 14.0639C19.7666 14.2397 19.2432 14.7592 19.0674 15.4311C18.8135 16.4115 19.4346 17.435 20.4424 17.6967C20.6299 17.7436 21.0518 17.7553 22.9619 17.7553H25.2588L25.251 20.3686C25.2393 22.9389 25.2393 22.9858 25.1572 23.0912C25.1143 23.1498 25.0283 23.2358 24.9697 23.2787C24.8643 23.3608 24.8096 23.3608 22.4463 23.3803C20.083 23.3998 20.0283 23.3998 19.9229 23.4818C19.7158 23.6342 19.6533 23.7592 19.6533 24.0053C19.6533 24.2514 19.7158 24.3764 19.9229 24.5287C20.0283 24.6108 20.0752 24.6108 22.4189 24.6225C24.04 24.6303 24.876 24.6186 25.0127 24.5873C25.6963 24.4467 26.2705 23.892 26.4502 23.1967C26.54 22.8568 26.5361 13.2748 26.4502 12.9311C26.2744 12.2592 25.751 11.7397 25.0752 11.5639C24.915 11.5209 24.6416 11.5053 24.1182 11.5053H23.3838V11.0834C23.3838 10.4076 23.2354 9.99357 22.8486 9.58732C22.6104 9.33732 22.2979 9.15372 21.958 9.06388C21.6182 8.97794 10.7471 8.97794 10.4189 9.06779ZM21.8447 10.3568C22.0791 10.5287 22.1143 10.6186 22.126 11.0795L22.1416 11.5053H16.4541C10.2354 11.5053 10.6104 11.5209 10.4033 11.2748C10.1455 10.9662 10.2627 10.4701 10.6299 10.31C10.7275 10.267 11.7314 10.2592 16.2432 10.267C21.7236 10.2748 21.7393 10.2748 21.8447 10.3568ZM25.2588 15.8803V16.5053H23.0127C20.5518 16.5053 20.6025 16.5092 20.4033 16.2748C20.2158 16.0522 20.2158 15.7084 20.4033 15.4858C20.5986 15.2553 20.5439 15.2592 23.0049 15.2553H25.2588V15.8803Z" fill="white"/>
<path d="M14.957 19.6886C14.0312 19.8566 13.0742 20.3761 12.3281 21.1183C11.8398 21.6027 11.5078 22.1378 11.5078 22.4425C11.5078 22.7355 11.832 23.2706 12.293 23.7316C13.207 24.6417 14.3047 25.1808 15.3945 25.2433C16.5352 25.3058 17.8203 24.7511 18.8125 23.7628C19.3086 23.2667 19.6328 22.7472 19.6328 22.4425C19.6328 22.1378 19.3008 21.6027 18.8125 21.1183C17.6914 20.005 16.2188 19.4581 14.957 19.6886ZM15.9297 20.9347C16.7383 21.0909 17.3945 21.4542 17.9883 22.0753C18.1641 22.255 18.3047 22.4191 18.3047 22.4386C18.3047 22.5011 17.7812 23.0362 17.5312 23.2237C16.957 23.6612 16.1523 23.9737 15.5898 23.9777C15.0391 23.9816 14.2188 23.6808 13.6562 23.2628C13.3828 23.0597 12.8359 22.5128 12.8359 22.4425C12.8359 22.4191 12.9766 22.255 13.1523 22.0753C13.7344 21.4659 14.3906 21.0987 15.1797 20.9386C15.5156 20.8722 15.5898 20.8722 15.9297 20.9347Z" fill="white"/>
<path d="M15.2585 21.5561C15.0671 21.6186 14.739 21.9545 14.6804 22.1537C14.571 22.5209 14.6491 22.8139 14.9265 23.0873C15.3249 23.4897 15.8757 23.4818 16.2468 23.0678C16.5983 22.6772 16.5983 22.2084 16.2468 21.8178C15.9929 21.5365 15.6296 21.4389 15.2585 21.5561Z" fill="white"/>
</svg>
