<svg width="35" height="35" viewBox="0 0 35 35" fill="none" xmlns="http://www.w3.org/2000/svg">
<rect width="35" height="35" rx="3" fill="#F74875"/>
<path d="M16.1346 7.55899C16.3286 7.60076 16.5937 7.67596 16.7164 7.72191C17.0568 7.84724 17.6069 8.16055 17.8958 8.39031C18.0383 8.50311 20.0527 10.6044 22.3719 13.0608C26.4601 17.3803 26.5987 17.5307 26.7372 17.8357C26.9509 18.2952 27.0261 18.7547 26.9667 19.1934C26.9113 19.5819 26.8045 19.8952 26.6264 20.1834C26.4285 20.4926 20.3218 26.951 20.0408 27.1432C19.3245 27.632 18.3747 27.632 17.6465 27.1432C17.4723 27.0262 16.1782 25.6852 13.1822 22.5229C9.53329 18.667 8.93172 18.0153 8.73384 17.6978C8.46076 17.255 8.24309 16.7412 8.11645 16.2273L8.02146 15.8514V12.572V9.29266L8.12832 9.00859C8.34599 8.43209 8.72593 7.98509 9.20084 7.73027C9.69555 7.47126 9.62827 7.47544 12.8498 7.47961C15.5331 7.48379 15.8101 7.48797 16.1346 7.55899ZM9.83407 9.1548C9.747 9.21746 9.63223 9.33861 9.58078 9.42634L9.48579 9.58508V12.5929C9.48579 15.5924 9.48579 15.6007 9.57682 15.9266C9.68763 16.3318 9.83803 16.6534 10.0715 16.9793C10.1705 17.1171 12.082 19.16 14.322 21.5203C17.1874 24.5406 18.434 25.8314 18.5369 25.8774C18.719 25.9568 18.9644 25.9568 19.1345 25.8816C19.2889 25.8147 25.3758 19.3897 25.443 19.2226C25.5182 19.0472 25.5064 18.7297 25.4193 18.5542C25.3085 18.3286 17.1043 9.6937 16.8272 9.50989C16.4631 9.26759 16.0911 9.12973 15.6004 9.04618C15.545 9.03783 14.2627 9.03365 12.7469 9.03783L9.99633 9.04201L9.83407 9.1548Z" fill="white"/>
<path d="M13.9545 10.7953C14.9598 11.0877 15.6761 12.1572 15.589 13.235C15.5415 13.7948 15.308 14.3337 14.9439 14.718C14.0772 15.6329 12.6841 15.6371 11.8213 14.7222C11.3662 14.2418 11.1644 13.7405 11.1644 13.0637C11.1604 12.4329 11.3543 11.9232 11.7818 11.447C12.0667 11.1295 12.4269 10.9039 12.8147 10.7953C13.0957 10.7201 13.6854 10.7201 13.9545 10.7953ZM13.0878 12.3577C12.5931 12.5916 12.4862 13.2308 12.8741 13.6235C13.0997 13.8533 13.4519 13.9034 13.725 13.7488C13.8477 13.682 14.0535 13.4188 14.0812 13.2976C14.097 13.2392 14.097 13.0929 14.0891 12.9676C14.0495 12.4496 13.5429 12.1405 13.0878 12.3577Z" fill="white"/>
</svg>
