<svg width="35" height="35" viewBox="0 0 35 35" fill="none" xmlns="http://www.w3.org/2000/svg">
<rect width="35" height="35" rx="3" fill="#784BD1"/>
<path d="M12.9981 6.35796C13.0858 6.35772 13.1735 6.35742 13.2612 6.35707C13.4984 6.3563 13.7356 6.35635 13.9728 6.3566C14.171 6.35673 14.3692 6.35647 14.5674 6.35621C15.0348 6.3556 15.5023 6.35567 15.9697 6.35616C16.4519 6.35665 16.934 6.35605 17.4162 6.3549C17.8305 6.35395 18.2448 6.35366 18.6592 6.35391C18.9065 6.35406 19.1538 6.35395 19.4011 6.35321C19.6335 6.35255 19.8658 6.35272 20.0982 6.35353C20.1834 6.35369 20.2687 6.35355 20.3539 6.3531C20.4703 6.35254 20.5866 6.35303 20.703 6.35379C20.7368 6.35338 20.7705 6.35296 20.8052 6.35254C21.1267 6.35686 21.3001 6.50836 21.5185 6.72658C21.5542 6.762 21.5899 6.79742 21.6266 6.83391C21.6649 6.8724 21.7032 6.91088 21.7427 6.95054C21.7841 6.99179 21.8255 7.03302 21.8669 7.07424C21.9787 7.18572 22.0903 7.29747 22.2019 7.40928C22.3188 7.52643 22.4359 7.64337 22.5531 7.76034C22.7496 7.95669 22.9459 8.15321 23.1421 8.34983C23.3689 8.57709 23.596 8.80403 23.8232 9.03081C24.0185 9.22574 24.2137 9.42084 24.4087 9.61608C24.5251 9.7326 24.6415 9.84906 24.7581 9.96537C24.8677 10.0747 24.977 10.1841 25.0861 10.2938C25.1453 10.3531 25.2047 10.4123 25.2641 10.4714C25.2993 10.5069 25.3345 10.5423 25.3707 10.5788C25.4014 10.6094 25.432 10.6401 25.4636 10.6717C25.6 10.8276 25.6359 10.9475 25.6362 11.1537C25.6365 11.1992 25.6367 11.2448 25.637 11.2917C25.6368 11.3666 25.6368 11.3666 25.6366 11.4431C25.6368 11.4962 25.637 11.5494 25.6372 11.6041C25.6377 11.7517 25.6377 11.8992 25.6376 12.0467C25.6376 12.2059 25.6381 12.365 25.6385 12.5241C25.6392 12.8359 25.6394 13.1478 25.6395 13.4596C25.6395 13.7132 25.6397 13.9668 25.64 14.2204C25.6407 14.9396 25.6411 15.6588 25.6411 16.378C25.6411 16.4168 25.6411 16.4556 25.6411 16.4956C25.641 16.5344 25.641 16.5732 25.641 16.6132C25.641 17.2419 25.6418 17.8707 25.643 18.4994C25.6443 19.1452 25.6449 19.791 25.6448 20.4367C25.6448 20.7992 25.645 21.1617 25.6459 21.5241C25.6467 21.8329 25.6469 22.1417 25.6463 22.4504C25.646 22.6078 25.646 22.7652 25.6468 22.9226C25.6476 23.0937 25.647 23.2647 25.6464 23.4358C25.6468 23.485 25.6473 23.5342 25.6477 23.5849C25.6425 24.194 25.4205 24.6566 25.0101 25.099C24.5356 25.5481 24.0129 25.6449 23.3796 25.6427C23.319 25.6429 23.2584 25.6432 23.1978 25.6436C23.0345 25.6443 22.8711 25.6443 22.7078 25.6441C22.5711 25.6439 22.4344 25.6442 22.2977 25.6444C21.9753 25.645 21.6529 25.645 21.3305 25.6445C20.9983 25.644 20.6661 25.6446 20.3339 25.6458C20.048 25.6467 19.7621 25.647 19.4762 25.6467C19.3058 25.6466 19.1353 25.6467 18.9648 25.6474C18.8047 25.6481 18.6446 25.6479 18.4845 25.6471C18.3979 25.6469 18.3113 25.6475 18.2248 25.6481C17.7526 25.6443 17.7526 25.6443 17.547 25.4535C17.3911 25.2893 17.3618 25.1577 17.3536 24.9378C17.3618 24.7179 17.3911 24.5863 17.547 24.4222C17.791 24.2012 18.0392 24.2264 18.3565 24.2289C18.4121 24.2287 18.4676 24.2284 18.5249 24.2282C18.6455 24.2277 18.766 24.2277 18.8866 24.2281C19.0775 24.2288 19.2684 24.2282 19.4593 24.2274C19.8303 24.2261 20.2013 24.2261 20.5724 24.2261C21.0441 24.2262 21.5159 24.2258 21.9877 24.2241C22.1772 24.2234 22.3666 24.2234 22.5561 24.2239C22.6458 24.2241 22.7355 24.224 22.8252 24.2237C22.9341 24.2234 23.043 24.2235 23.152 24.2242C23.4793 24.2223 23.8031 24.2134 24.0541 23.9818C24.2196 23.6904 24.2197 23.4103 24.2191 23.083C24.2195 23.011 24.2195 23.011 24.2199 22.9375C24.2206 22.777 24.2207 22.6164 24.2209 22.4558C24.2213 22.3406 24.2217 22.2254 24.2222 22.1102C24.2231 21.8623 24.2238 21.6144 24.2242 21.3665C24.2248 21.0081 24.2259 20.6497 24.2271 20.2913C24.2291 19.7098 24.2307 19.1282 24.232 18.5467C24.2333 17.9819 24.2348 17.4171 24.2365 16.8522C24.2366 16.8174 24.2367 16.7826 24.2368 16.7467C24.2373 16.5719 24.2379 16.3972 24.2384 16.2225C24.2429 14.7734 24.2467 13.3244 24.2501 11.8753C24.22 11.8757 24.19 11.8761 24.159 11.8765C23.8733 11.8799 23.5877 11.8826 23.302 11.8842C23.1552 11.8851 23.0084 11.8863 22.8616 11.8883C22.6922 11.8905 22.5229 11.8914 22.3535 11.8921C22.2757 11.8934 22.2757 11.8934 22.1963 11.8948C21.5714 11.895 21.1061 11.6821 20.6515 11.2603C20.21 10.7938 20.1046 10.2792 20.1125 9.65539C20.1127 9.60068 20.1129 9.54597 20.1131 9.4896C20.1137 9.34563 20.1148 9.20169 20.1163 9.05773C20.1176 8.91023 20.1182 8.76274 20.1188 8.61524C20.1202 8.32693 20.1224 8.03863 20.1251 7.75033C19.1458 7.75293 18.1664 7.75626 17.1871 7.76045C16.7323 7.76239 16.2776 7.76408 15.8228 7.76521C15.4264 7.7662 15.03 7.76764 14.6336 7.76961C14.4237 7.77063 14.2139 7.77144 14.0041 7.77171C13.8064 7.77197 13.6087 7.77283 13.411 7.77414C13.3386 7.77452 13.2663 7.77468 13.1939 7.7746C12.5907 7.75586 12.5907 7.75586 12.0712 8.01888C11.9137 8.2961 11.9057 8.55881 11.9071 8.87021C11.9069 8.93378 11.9069 8.93378 11.9067 8.99863C11.9064 9.09023 11.9062 9.18183 11.9063 9.27343C11.9063 9.41846 11.9058 9.56349 11.9051 9.70852C11.9031 10.1207 11.902 10.533 11.9017 10.9452C11.9015 11.1977 11.9005 11.4501 11.8989 11.7026C11.8985 11.7987 11.8984 11.8948 11.8986 11.9909C11.8989 12.1252 11.8982 12.2595 11.8972 12.3938C11.8976 12.4334 11.8979 12.473 11.8983 12.5138C11.8952 12.7523 11.8623 12.8892 11.7033 13.0785C11.5391 13.2344 11.4075 13.2636 11.1876 13.2718C10.9677 13.2636 10.8361 13.2344 10.672 13.0785C10.4724 12.8458 10.4755 12.6501 10.4779 12.3578C10.4776 12.3116 10.4773 12.2655 10.477 12.2179C10.4762 12.0656 10.4767 11.9132 10.4773 11.7609C10.4772 11.6546 10.477 11.5483 10.4768 11.442C10.4765 11.2191 10.4769 10.9963 10.4777 10.7734C10.4787 10.4888 10.4781 10.2042 10.4771 9.91955C10.4765 9.69991 10.4767 9.48028 10.4771 9.26065C10.4772 9.15577 10.4771 9.0509 10.4767 8.94603C10.4763 8.79879 10.4769 8.65159 10.4779 8.50436C10.4775 8.46161 10.4772 8.41887 10.4768 8.37484C10.4838 7.78623 10.7202 7.3273 11.1151 6.90169C11.6693 6.37724 12.2778 6.35614 12.9981 6.35796ZM21.5001 8.78158C21.4963 8.94539 21.4941 9.10919 21.4921 9.27303C21.491 9.31898 21.4899 9.36492 21.4888 9.41226C21.4861 9.70876 21.4889 10.0256 21.6838 10.2676C21.981 10.5405 22.3452 10.5115 22.7221 10.5057C22.7938 10.5051 22.7938 10.5051 22.867 10.5045C22.9843 10.5035 23.1016 10.5021 23.2189 10.5003C23.0313 10.2761 22.8342 10.0664 22.6272 9.85999C22.5962 9.82894 22.5652 9.7979 22.5333 9.76591C22.4683 9.7009 22.4032 9.63594 22.3382 9.57103C22.238 9.47116 22.1382 9.37106 22.0383 9.27093C21.975 9.20767 21.9117 9.14442 21.8484 9.08118C21.8184 9.05111 21.7884 9.02104 21.7575 8.99005C21.73 8.96263 21.7024 8.93522 21.674 8.90697C21.6497 8.88268 21.6254 8.8584 21.6004 8.83338C21.5507 8.77677 21.5507 8.77677 21.5001 8.78158Z" fill="white"/>
<path d="M15.3409 15.7893C16.2878 16.5976 16.9077 17.5538 17.2466 18.7503C17.2613 18.8009 17.2759 18.8516 17.2911 18.9037C17.5576 20.0321 17.4085 21.3068 16.9458 22.3597C16.9275 22.4018 16.9275 22.4018 16.9089 22.4449C16.4811 23.4139 15.7431 24.2553 14.8403 24.8089C14.7986 24.8356 14.7568 24.8623 14.7138 24.8898C13.5279 25.6203 11.9685 25.8387 10.6133 25.5324C9.64143 25.2877 8.77457 24.8148 8.05127 24.1214C8.01333 24.0867 7.97539 24.0519 7.93629 24.0162C7.21419 23.3329 6.77265 22.4476 6.50439 21.5003C6.48972 21.4497 6.47504 21.3991 6.45991 21.3469C6.19333 20.2186 6.3425 18.9438 6.80518 17.8909C6.81735 17.8628 6.82952 17.8347 6.84206 17.8058C7.41294 16.5126 8.51196 15.494 9.82142 14.9746C10.0448 14.8904 10.2709 14.8192 10.5005 14.7542C10.5511 14.7395 10.6017 14.7249 10.6539 14.7097C12.2509 14.3324 14.0759 14.7518 15.3409 15.7893ZM8.9187 17.2652C8.0809 18.1342 7.76785 19.2156 7.78171 20.3984C7.81333 21.5059 8.37156 22.421 9.13623 23.187C9.86951 23.8758 10.9148 24.2589 11.9185 24.2503C12.9325 24.2084 13.8753 23.8733 14.6255 23.1761C14.663 23.1415 14.7005 23.107 14.7391 23.0714C15.4421 22.3968 15.9467 21.4284 15.9678 20.44C15.9883 19.2187 15.6982 18.1819 14.8319 17.2828C14.7922 17.2424 14.7524 17.2021 14.7114 17.1605C14.6779 17.1258 14.6443 17.0912 14.6097 17.0556C12.9985 15.4959 10.4471 15.7908 8.9187 17.2652Z" fill="white"/>
<path d="M18.2539 13.9154C18.2988 13.9151 18.3437 13.9148 18.3899 13.9145C18.538 13.9137 18.686 13.9142 18.834 13.9148C18.937 13.9147 19.0401 13.9145 19.1432 13.9143C19.359 13.914 19.5749 13.9144 19.7907 13.9152C20.0673 13.9162 20.3438 13.9156 20.6204 13.9146C20.8331 13.914 21.0459 13.9142 21.2587 13.9146C21.3606 13.9147 21.4626 13.9146 21.5646 13.9142C21.7071 13.9138 21.8496 13.9144 21.9922 13.9154C22.0553 13.9149 22.0553 13.9149 22.1196 13.9143C22.3643 13.9174 22.5078 13.9447 22.7012 14.1095C22.8571 14.2736 22.8864 14.4052 22.8945 14.6251C22.8864 14.845 22.8571 14.9766 22.7012 15.1408C22.4705 15.3373 22.2813 15.3373 21.9922 15.3349C21.9473 15.3352 21.9024 15.3355 21.8562 15.3358C21.7081 15.3365 21.5601 15.336 21.4121 15.3355C21.3091 15.3356 21.206 15.3357 21.1029 15.336C20.8871 15.3362 20.6712 15.3358 20.4554 15.335C20.1788 15.3341 19.9023 15.3346 19.6257 15.3356C19.413 15.3363 19.2002 15.3361 18.9874 15.3356C18.8855 15.3355 18.7835 15.3357 18.6815 15.3361C18.539 15.3365 18.3965 15.3358 18.2539 15.3349C18.1908 15.3354 18.1908 15.3354 18.1264 15.3359C17.8818 15.3329 17.7383 15.3055 17.5449 15.1408C17.389 14.9766 17.3597 14.845 17.3516 14.6251C17.3597 14.4052 17.389 14.2736 17.5449 14.1095C17.7755 13.913 17.9648 13.913 18.2539 13.9154Z" fill="white"/>
<path d="M14.1289 10.4779C14.1738 10.4776 14.2187 10.4773 14.2649 10.477C14.413 10.4762 14.561 10.4767 14.709 10.4773C14.812 10.4772 14.9151 10.477 15.0182 10.4768C15.234 10.4765 15.4499 10.4769 15.6657 10.4777C15.9423 10.4787 16.2188 10.4781 16.4954 10.4771C16.7081 10.4765 16.9209 10.4767 17.1337 10.4771C17.2356 10.4772 17.3376 10.4771 17.4396 10.4767C17.5821 10.4763 17.7246 10.4769 17.8672 10.4779C17.9303 10.4774 17.9303 10.4774 17.9946 10.4768C18.2393 10.4799 18.3828 10.5072 18.5762 10.672C18.7321 10.8361 18.7614 10.9677 18.7695 11.1876C18.7614 11.4075 18.7321 11.5391 18.5762 11.7033C18.3455 11.8998 18.1563 11.8998 17.8672 11.8974C17.8223 11.8977 17.7774 11.898 17.7312 11.8983C17.5831 11.899 17.4351 11.8985 17.2871 11.898C17.1841 11.8981 17.081 11.8982 16.9779 11.8985C16.7621 11.8987 16.5462 11.8983 16.3304 11.8975C16.0538 11.8966 15.7773 11.8971 15.5007 11.8981C15.288 11.8988 15.0752 11.8986 14.8624 11.8981C14.7605 11.898 14.6585 11.8982 14.5565 11.8986C14.414 11.899 14.2715 11.8983 14.1289 11.8974C14.0658 11.8979 14.0658 11.8979 14.0014 11.8984C13.7568 11.8954 13.6133 11.868 13.4199 11.7033C13.264 11.5391 13.2347 11.4075 13.2266 11.1876C13.2347 10.9677 13.264 10.8361 13.4199 10.672C13.6505 10.4755 13.8398 10.4755 14.1289 10.4779Z" fill="white"/>
<path d="M13.7399 18.1942C13.9044 18.3783 13.9831 18.5566 13.9806 18.806C13.9029 19.3059 13.3355 19.7062 12.9948 20.0494C12.9661 20.0784 12.9375 20.1073 12.9079 20.1371C12.7564 20.2897 12.6047 20.4423 12.4529 20.5947C12.3278 20.7204 12.203 20.8464 12.0784 20.9726C11.9273 21.1259 11.7756 21.2787 11.6236 21.431C11.566 21.4889 11.5086 21.547 11.4514 21.6052C11.3713 21.6866 11.2905 21.7674 11.2096 21.848C11.1864 21.8719 11.1632 21.8958 11.1393 21.9204C10.9589 22.098 10.7575 22.2225 10.4985 22.2348C10.2868 22.2184 10.1461 22.1508 9.98551 22.0158C9.83093 21.8319 9.75947 21.6551 9.77067 21.4142C9.8515 21.1323 9.96955 20.9691 10.1763 20.7653C10.2042 20.7369 10.2321 20.7086 10.2608 20.6794C10.3526 20.5864 10.4451 20.4943 10.5377 20.4023C10.6022 20.3376 10.6666 20.2729 10.7309 20.2081C10.8657 20.0728 11.0009 19.9379 11.1364 19.8032C11.3096 19.631 11.4817 19.4578 11.6535 19.2842C11.7862 19.1505 11.9195 19.0173 12.0529 18.8843C12.1166 18.8206 12.1801 18.7568 12.2434 18.6928C12.3321 18.6032 12.4216 18.5145 12.5114 18.426C12.55 18.3865 12.55 18.3865 12.5893 18.3462C12.9381 18.0068 13.32 17.9376 13.7399 18.1942Z" fill="white"/>
<path d="M19.5044 20.7904C19.5359 20.7901 19.5674 20.7898 19.5998 20.7895C19.7032 20.7887 19.8066 20.7892 19.91 20.7898C19.9822 20.7897 20.0544 20.7895 20.1267 20.7893C20.2778 20.789 20.4289 20.7894 20.58 20.7902C20.7733 20.7912 20.9666 20.7906 21.1599 20.7896C21.309 20.789 21.4581 20.7892 21.6072 20.7896C21.6784 20.7897 21.7497 20.7896 21.821 20.7892C21.9207 20.7888 22.0204 20.7894 22.1202 20.7904C22.1768 20.7905 22.2335 20.7907 22.2919 20.7908C22.5194 20.8232 22.6495 20.9283 22.805 21.0919C22.908 21.3139 22.9072 21.5173 22.8748 21.7579C22.7756 21.9716 22.6483 22.073 22.4451 22.1876C22.2919 22.2095 22.2919 22.2095 22.1202 22.2099C22.0887 22.2102 22.0572 22.2105 22.0248 22.2108C21.9214 22.2115 21.818 22.211 21.7146 22.2105C21.6424 22.2106 21.5702 22.2107 21.498 22.211C21.3468 22.2112 21.1957 22.2108 21.0446 22.21C20.8513 22.2091 20.658 22.2096 20.4647 22.2106C20.3156 22.2113 20.1665 22.2111 20.0174 22.2106C19.9462 22.2105 19.8749 22.2107 19.8037 22.2111C19.7039 22.2115 19.6042 22.2108 19.5044 22.2099C19.4478 22.2097 19.3911 22.2096 19.3327 22.2095C19.1053 22.1771 18.9751 22.072 18.8196 21.9083C18.7166 21.6864 18.7174 21.4829 18.7498 21.2423C18.9038 20.9106 19.1488 20.7912 19.5044 20.7904Z" fill="white"/>
<path d="M19.5044 17.3529C19.5359 17.3526 19.5674 17.3523 19.5998 17.352C19.7032 17.3512 19.8066 17.3517 19.91 17.3523C19.9822 17.3522 20.0544 17.352 20.1267 17.3518C20.2778 17.3515 20.4289 17.3519 20.58 17.3527C20.7733 17.3537 20.9666 17.3531 21.1599 17.3521C21.309 17.3515 21.4581 17.3517 21.6072 17.3521C21.6784 17.3522 21.7497 17.3521 21.821 17.3517C21.9207 17.3513 22.0204 17.3519 22.1202 17.3529C22.1768 17.353 22.2335 17.3532 22.2919 17.3533C22.5194 17.3857 22.6495 17.4908 22.805 17.6544C22.908 17.8764 22.9072 18.0798 22.8748 18.3204C22.7756 18.5341 22.6483 18.6355 22.4451 18.7501C22.2919 18.772 22.2919 18.772 22.1202 18.7724C22.0887 18.7727 22.0572 18.773 22.0248 18.7733C21.9214 18.774 21.818 18.7735 21.7146 18.773C21.6424 18.7731 21.5702 18.7732 21.498 18.7735C21.3468 18.7737 21.1957 18.7733 21.0446 18.7725C20.8513 18.7716 20.658 18.7721 20.4647 18.7731C20.3156 18.7738 20.1665 18.7736 20.0174 18.7731C19.9462 18.773 19.8749 18.7732 19.8037 18.7736C19.7039 18.774 19.6042 18.7733 19.5044 18.7724C19.4478 18.7722 19.3911 18.7721 19.3327 18.772C19.1053 18.7396 18.9751 18.6345 18.8196 18.4708C18.7166 18.2489 18.7174 18.0454 18.7498 17.8048C18.9038 17.4731 19.1488 17.3537 19.5044 17.3529Z" fill="white"/>
<path d="M13.5076 20.8129C13.7175 20.9104 13.8399 21.0327 13.9373 21.2426C13.9697 21.4832 13.9705 21.6867 13.8675 21.9086C13.671 22.1155 13.5373 22.1987 13.2498 22.2094C12.9623 22.1987 12.8287 22.1155 12.6321 21.9086C12.5291 21.6867 12.5299 21.4832 12.5623 21.2426C12.7547 20.8282 13.0843 20.7559 13.5076 20.8129Z" fill="white"/>
<path d="M10.7576 18.0629C10.9675 18.1604 11.0899 18.2827 11.1873 18.4926C11.2197 18.7332 11.2205 18.9367 11.1175 19.1586C10.921 19.3655 10.7873 19.4487 10.4998 19.4594C10.2123 19.4487 10.0787 19.3655 9.88213 19.1586C9.77909 18.9367 9.77992 18.7332 9.81231 18.4926C10.0047 18.0782 10.3343 18.0059 10.7576 18.0629Z" fill="white"/>
</svg>
