<svg width="35" height="35" viewBox="0 0 35 35" fill="none" xmlns="http://www.w3.org/2000/svg">
<rect width="35" height="35" rx="3" fill="#FE381A"/>
<g clip-path="url(#clip0_3515_152267)">
<path d="M9.86972 9.98488C9.93386 9.98472 9.99801 9.9845 10.0621 9.98424C10.2373 9.98368 10.4124 9.98384 10.5876 9.98413C10.7769 9.98432 10.9662 9.98383 11.1556 9.98343C11.526 9.98276 11.8965 9.98272 12.267 9.98293C12.5682 9.98309 12.8694 9.98303 13.1706 9.98282C13.2136 9.98279 13.2565 9.98276 13.3007 9.98273C13.3879 9.98267 13.4751 9.98261 13.5624 9.98255C14.3796 9.98202 15.1969 9.98223 16.0141 9.98268C16.7612 9.98307 17.5082 9.98256 18.2552 9.98163C19.0231 9.98067 19.7909 9.9803 20.5587 9.98056C20.9894 9.98069 21.4202 9.98061 21.851 9.97992C22.2177 9.97935 22.5844 9.97932 22.9511 9.98C23.138 9.98034 23.3249 9.98042 23.5119 9.97982C23.6833 9.97928 23.8547 9.97947 24.0261 9.98022C24.0878 9.98037 24.1495 9.98026 24.2113 9.97985C24.939 9.97536 25.5861 10.177 26.1409 10.6641C26.1673 10.6868 26.1937 10.7096 26.221 10.7331C26.6656 11.144 26.9758 11.7596 27.0076 12.3671C27.0116 12.5428 27.0111 12.7186 27.0107 12.8943C27.0108 12.9626 27.011 13.0308 27.0112 13.0991C27.0117 13.2862 27.0117 13.4733 27.0116 13.6603C27.0116 13.8623 27.012 14.0642 27.0124 14.2662C27.013 14.6615 27.0133 15.0569 27.0133 15.4523C27.0133 15.7736 27.0135 16.0949 27.0137 16.4162C27.0144 17.3271 27.0148 18.238 27.0147 19.1489C27.0147 19.2225 27.0147 19.2225 27.0147 19.2977C27.0147 19.3468 27.0147 19.396 27.0147 19.4466C27.0147 20.2437 27.0154 21.0408 27.0165 21.8379C27.0177 22.6564 27.0182 23.4748 27.0181 24.2932C27.0181 24.7528 27.0183 25.2123 27.0192 25.6718C27.0199 26.0629 27.02 26.4539 27.0195 26.845C27.0193 27.0445 27.0193 27.2441 27.0199 27.4437C27.0205 27.6263 27.0204 27.8089 27.0197 27.9916C27.0196 28.0577 27.0198 28.1238 27.0202 28.1899C27.0208 28.2797 27.0203 28.3695 27.0197 28.4593C27.0197 28.5342 27.0197 28.5342 27.0197 28.6105C26.99 28.8237 26.9093 28.9717 26.7377 29.1077C26.6975 29.1308 26.6573 29.1538 26.6159 29.1776C26.5938 29.1904 26.5718 29.2033 26.549 29.2165C26.4785 29.2572 26.4075 29.2967 26.3362 29.336C26.3128 29.3489 26.2895 29.3619 26.2654 29.3753C26.1004 29.4667 25.9341 29.5554 25.7673 29.6436C25.7183 29.6697 25.6692 29.6959 25.6202 29.722C25.4944 29.789 25.3686 29.8558 25.2424 29.9219C25.214 29.937 25.1855 29.9521 25.1562 29.9677C24.9427 30.0663 24.6699 30.0322 24.4551 29.9567C24.3103 29.8857 24.1708 29.8076 24.0315 29.7266C23.9152 29.6601 23.7988 29.5938 23.6824 29.5276C23.602 29.4818 23.5218 29.4356 23.4419 29.389C23.4048 29.3675 23.3677 29.3461 23.3294 29.3241C23.2963 29.3047 23.2632 29.2854 23.229 29.2655C23.1271 29.2159 23.051 29.1878 22.9377 29.1797C22.8391 29.2153 22.8391 29.2153 22.7427 29.276C22.7058 29.2975 22.6689 29.3189 22.6309 29.341C22.592 29.3643 22.553 29.3876 22.5129 29.4116C22.4317 29.4586 22.3505 29.5055 22.2693 29.5523C22.1352 29.6307 22.0018 29.7102 21.8692 29.791C21.594 29.9549 21.32 30.0924 20.9905 30.0257C20.642 29.9192 20.3214 29.7131 20.0081 29.5313C19.9754 29.5124 19.9427 29.4934 19.9091 29.4739C19.8787 29.4563 19.8482 29.4387 19.8169 29.4205C19.774 29.3958 19.774 29.3958 19.7302 29.3707C19.6776 29.3402 19.6253 29.3092 19.5734 29.2775C19.4525 29.2014 19.4525 29.2014 19.315 29.1866C19.1855 29.2338 19.0661 29.2985 18.945 29.3637C18.9044 29.3853 18.9044 29.3853 18.863 29.4074C18.8058 29.4378 18.7487 29.4684 18.6917 29.499C18.6048 29.5456 18.5177 29.592 18.4307 29.6384C18.3751 29.6681 18.3194 29.6978 18.2638 29.7275C18.238 29.7413 18.2121 29.7551 18.1855 29.7693C18.0798 29.8261 17.9766 29.883 17.8766 29.9494C17.6796 30.0543 17.4497 30.043 17.2346 30C17.0068 29.9225 16.8002 29.7974 16.5925 29.6778C16.5372 29.647 16.4818 29.6163 16.4263 29.5857C16.3244 29.5293 16.2228 29.4724 16.1217 29.4147C16.0991 29.4019 16.0765 29.3891 16.0532 29.3759C16.0055 29.3481 15.9584 29.3194 15.9119 29.2898C15.7816 29.2056 15.7816 29.2056 15.6323 29.181C15.5181 29.2368 15.4047 29.2933 15.2929 29.3538C15.2552 29.374 15.2552 29.374 15.2168 29.3946C15.1365 29.4375 15.0564 29.4807 14.9763 29.524C14.9229 29.5526 14.8695 29.5812 14.816 29.6098C14.5618 29.7429 14.5618 29.7429 14.314 29.887C14.0651 30.041 13.8474 30.0437 13.5627 30C13.3686 29.9288 13.1935 29.8313 13.0159 29.7266C12.9678 29.6993 12.9196 29.6721 12.8714 29.645C12.7781 29.5923 12.6851 29.5391 12.5924 29.4852C12.4908 29.4266 12.3886 29.3701 12.285 29.3152C12.0079 29.1675 11.7534 29.0251 11.6487 28.711C11.645 28.6002 11.6436 28.4903 11.644 28.3795C11.644 28.3453 11.6439 28.311 11.6439 28.2758C11.6438 28.1606 11.644 28.0455 11.6443 27.9303C11.6443 27.8479 11.6443 27.7655 11.6442 27.6832C11.6442 27.4591 11.6445 27.2351 11.6447 27.0111C11.645 26.7771 11.645 26.5431 11.645 26.3092C11.6452 25.8659 11.6455 25.4227 11.6459 24.9794C11.6463 24.4749 11.6465 23.9703 11.6467 23.4658C11.6471 22.4277 11.6478 21.3896 11.6487 20.3516C11.6006 20.352 11.5525 20.3525 11.503 20.3529C11.049 20.3569 10.595 20.3598 10.141 20.3617C9.9076 20.3627 9.67422 20.3641 9.44083 20.3663C9.21542 20.3685 8.99001 20.3696 8.76458 20.3701C8.67877 20.3705 8.59296 20.3712 8.50716 20.3722C8.38654 20.3737 8.26598 20.3739 8.14536 20.3738C8.11024 20.3745 8.07512 20.3752 8.03893 20.3759C7.7361 20.3735 7.48818 20.2717 7.2566 20.0757C7.23645 20.0507 7.21631 20.0258 7.19556 20C7.16414 19.9626 7.16414 19.9626 7.13208 19.9243C7.00741 19.7373 6.98885 19.5676 6.9898 19.3472C6.98963 19.3171 6.98945 19.287 6.98927 19.2561C6.98877 19.1555 6.98884 19.0549 6.9889 18.9543C6.98867 18.8821 6.9884 18.8099 6.9881 18.7377C6.98741 18.5415 6.98723 18.3454 6.98718 18.1493C6.98713 18.0265 6.98696 17.9038 6.98675 17.7811C6.98603 17.3524 6.98571 16.9237 6.98577 16.4949C6.98582 16.0963 6.985 15.6977 6.98376 15.2991C6.98274 14.9562 6.98232 14.6134 6.98237 14.2705C6.98239 14.066 6.98217 13.8615 6.98134 13.6571C6.98058 13.4644 6.98058 13.2717 6.98115 13.079C6.98123 13.0087 6.98105 12.9384 6.98057 12.8681C6.97541 12.0528 7.1643 11.3635 7.75235 10.7677C8.36315 10.1777 9.03394 9.98139 9.86972 9.98488ZM8.16617 11.3558C7.75082 11.8712 7.68574 12.3684 7.68697 13.0064C7.68668 13.077 7.68635 13.1476 7.68597 13.2182C7.6851 13.409 7.68499 13.5998 7.68506 13.7905C7.68506 13.95 7.68473 14.1094 7.6844 14.2688C7.68365 14.6447 7.68354 15.0205 7.6838 15.3964C7.68406 15.7843 7.68317 16.1721 7.68172 16.5599C7.68052 16.8932 7.68008 17.2264 7.68023 17.5597C7.68031 17.7587 7.6801 17.9576 7.67914 18.1565C7.67827 18.3433 7.67834 18.5301 7.67914 18.7169C7.67927 18.7855 7.67907 18.8541 7.67851 18.9227C7.67781 19.0162 7.6783 19.1097 7.6791 19.2032C7.67861 19.2304 7.67812 19.2577 7.67762 19.2857C7.6802 19.4265 7.69477 19.483 7.79218 19.5872C7.89663 19.6473 7.94654 19.6679 8.06454 19.6673C8.09636 19.6675 8.12818 19.6677 8.16097 19.6679C8.19533 19.6673 8.22969 19.6668 8.2651 19.6662C8.3017 19.6662 8.33831 19.6662 8.37602 19.6663C8.49672 19.6662 8.61738 19.6649 8.73807 19.6637C8.82187 19.6634 8.90567 19.6632 8.98946 19.6631C9.2098 19.6625 9.43012 19.6609 9.65045 19.6592C9.87537 19.6576 10.1003 19.6569 10.3252 19.6561C10.7664 19.6544 11.2075 19.6518 11.6487 19.6485C11.6514 18.7252 11.6535 17.8019 11.6548 16.8787C11.6554 16.4499 11.6562 16.0212 11.6575 15.5925C11.6587 15.2186 11.6595 14.8448 11.6597 14.471C11.6599 14.2732 11.6602 14.0754 11.6611 13.8776C11.6619 13.6911 11.6621 13.5046 11.6619 13.3181C11.662 13.2499 11.6622 13.1818 11.6627 13.1137C11.6672 12.3932 11.5552 11.8032 11.0426 11.2613C10.6038 10.857 10.0884 10.6805 9.49964 10.6925C8.97933 10.7282 8.52127 10.9788 8.16617 11.3558ZM11.4924 10.7032C11.5299 10.7533 11.5674 10.8033 11.605 10.8534C11.6259 10.8813 11.6467 10.9092 11.6683 10.938C11.7121 10.9961 11.7565 11.0537 11.8013 11.111C12.2498 11.7079 12.3246 12.3614 12.3236 13.0846C12.3238 13.1513 12.3241 13.2181 12.3243 13.2848C12.3249 13.4673 12.3251 13.6499 12.3251 13.8324C12.3253 14.0296 12.3259 14.2267 12.3264 14.4239C12.3273 14.7652 12.3278 15.1065 12.3282 15.4478C12.3288 15.9413 12.3298 16.4348 12.3309 16.9282C12.3327 17.7289 12.3341 18.5296 12.3353 19.3303C12.3365 20.108 12.3379 20.8856 12.3394 21.6633C12.3395 21.7112 12.3396 21.7592 12.3397 21.8086C12.3402 22.0492 12.3407 22.2898 12.3412 22.5304C12.3452 24.5255 12.3487 26.5206 12.3518 28.5156C12.3821 28.5324 12.3821 28.5324 12.413 28.5495C12.5053 28.6007 12.5976 28.6519 12.69 28.7032C12.7217 28.7207 12.7535 28.7383 12.7862 28.7564C12.9482 28.8464 13.1096 28.9371 13.2692 29.0312C13.2976 29.0478 13.326 29.0643 13.3552 29.0814C13.411 29.114 13.4666 29.1471 13.5219 29.1806C13.5497 29.1965 13.5774 29.2125 13.6061 29.229C13.6417 29.2501 13.6417 29.2501 13.6781 29.2717C13.8275 29.3188 13.9546 29.2754 14.0928 29.2111C14.1258 29.1918 14.1587 29.1725 14.1926 29.1526C14.2296 29.1311 14.2667 29.1097 14.3048 29.0877C14.3435 29.0649 14.3822 29.0421 14.4221 29.0186C14.5026 28.9722 14.5832 28.9259 14.6638 28.8797C14.7027 28.8574 14.7417 28.835 14.7818 28.812C14.9208 28.733 15.0609 28.6567 15.2034 28.584C15.2429 28.5637 15.2823 28.5433 15.323 28.5224C15.554 28.4302 15.7268 28.4219 15.9568 28.5077C16.1973 28.6144 16.4274 28.7416 16.6585 28.8672C16.7116 28.8958 16.7648 28.9244 16.8181 28.953C17.2177 29.1681 17.2177 29.1681 17.3365 29.2498C17.4264 29.3046 17.4264 29.3046 17.5232 29.2931C17.6528 29.2483 17.7711 29.1883 17.8911 29.1228C17.9287 29.1026 17.9287 29.1026 17.9671 29.0821C18.0469 29.0392 18.1266 28.9959 18.2063 28.9527C18.2595 28.924 18.3128 28.8954 18.3661 28.8668C18.656 28.711 18.656 28.711 18.9416 28.5476C19.1122 28.4537 19.2654 28.4131 19.4563 28.4527C19.7506 28.5473 20.0163 28.6974 20.2864 28.8452C20.3351 28.8716 20.3839 28.898 20.4327 28.9244C20.813 29.1303 20.813 29.1303 20.9868 29.2397C21.1235 29.3077 21.1541 29.2996 21.2971 29.2578C21.3803 29.2186 21.4622 29.1766 21.5431 29.1327C21.5663 29.1202 21.5894 29.1077 21.6133 29.0949C21.6871 29.055 21.7607 29.0148 21.8342 28.9746C21.883 28.9482 21.9319 28.9218 21.9807 28.8954C22.2124 28.7701 22.4433 28.6437 22.6715 28.5122C22.8591 28.418 23.0314 28.4284 23.2295 28.4804C23.4554 28.561 23.6632 28.6858 23.8728 28.8013C23.9211 28.8275 23.9694 28.8538 24.0177 28.88C24.3917 29.0833 24.3917 29.0833 24.5279 29.1653C24.5583 29.1835 24.5887 29.2017 24.62 29.2205C24.6454 29.2363 24.6708 29.2522 24.697 29.2685C24.8041 29.3081 24.8603 29.2916 24.969 29.2578C25.0536 29.2182 25.1369 29.1757 25.2191 29.1313C25.2425 29.1188 25.266 29.1062 25.2901 29.0932C25.3395 29.0666 25.3889 29.0399 25.4382 29.0131C25.5129 28.9725 25.5879 28.9322 25.6629 28.892C25.7969 28.8198 25.9306 28.7475 26.0627 28.6719C26.1034 28.6502 26.144 28.6286 26.1859 28.6063C26.3079 28.5256 26.3079 28.5256 26.3264 28.3928C26.3264 28.3439 26.3264 28.295 26.3264 28.2446C26.3267 28.2172 26.327 28.1897 26.3274 28.1615C26.3281 28.0692 26.3272 27.9769 26.3264 27.8846C26.3266 27.8179 26.3269 27.7512 26.3273 27.6846C26.3281 27.501 26.3275 27.3174 26.3266 27.1339C26.3259 26.936 26.3266 26.7382 26.3271 26.5403C26.3278 26.1525 26.3273 25.7647 26.3264 25.3768C26.3253 24.9252 26.3254 24.4735 26.3256 24.0219C26.3258 23.2158 26.3249 22.4097 26.3234 21.6036C26.3219 20.8216 26.3213 20.0396 26.3218 19.2576C26.3223 18.4063 26.3222 17.555 26.3214 16.7037C26.3213 16.6129 26.3212 16.5221 26.3211 16.4312C26.321 16.3865 26.321 16.3418 26.3209 16.2958C26.3206 15.9811 26.3207 15.6664 26.3208 15.3517C26.321 14.9678 26.3206 14.584 26.3194 14.2002C26.3189 14.0044 26.3185 13.8086 26.3189 13.6128C26.3192 13.4334 26.3188 13.254 26.3178 13.0745C26.3176 13.0098 26.3176 12.9451 26.318 12.8804C26.3209 12.2365 26.1686 11.717 25.7185 11.2378C25.2573 10.8057 24.7138 10.6787 24.0957 10.6844C24.0409 10.6843 23.9862 10.6842 23.9315 10.684C23.7825 10.6836 23.6336 10.6842 23.4846 10.685C23.3235 10.6857 23.1623 10.6855 23.0011 10.6853C22.7224 10.6853 22.4436 10.6857 22.1649 10.6866C21.7619 10.6879 21.3588 10.6883 20.9558 10.6885C20.3018 10.6888 19.6479 10.6899 18.9939 10.6914C18.3589 10.6928 17.7239 10.6939 17.0888 10.6946C17.0496 10.6946 17.0105 10.6946 16.9701 10.6947C16.7735 10.6949 16.5769 10.6951 16.3803 10.6953C14.751 10.6969 13.1217 10.6997 11.4924 10.7032Z" fill="white"/>
<path d="M13.9845 16.968C14.0319 16.9677 14.0793 16.9674 14.1281 16.9672C14.2596 16.9666 14.391 16.9669 14.5225 16.9676C14.6643 16.9681 14.8062 16.9675 14.948 16.967C15.2258 16.9663 15.5035 16.9667 15.7813 16.9674C16.007 16.9679 16.2328 16.9681 16.4585 16.9679C16.4906 16.9679 16.5227 16.9679 16.5558 16.9679C16.6211 16.9678 16.6863 16.9678 16.7516 16.9677C17.3286 16.9674 17.9056 16.9681 18.4826 16.9692C19.0426 16.9704 19.6027 16.9706 20.1627 16.97C20.7724 16.9694 21.3821 16.9692 21.9918 16.9699C22.0568 16.97 22.1218 16.97 22.1868 16.9701C22.2188 16.9701 22.2508 16.9702 22.2837 16.9702C22.5092 16.9704 22.7347 16.9703 22.9602 16.9701C23.235 16.9698 23.5097 16.97 23.7845 16.971C23.9247 16.9715 24.0649 16.9717 24.2051 16.9713C24.357 16.9708 24.5089 16.9716 24.6608 16.9724C24.7053 16.9721 24.7497 16.9718 24.7955 16.9715C25.0936 16.9746 25.0936 16.9746 25.2476 17.067C25.333 17.1652 25.3556 17.2069 25.37 17.3368C25.355 17.4898 25.3073 17.5477 25.2016 17.6566C25.1051 17.7048 25.0417 17.7007 24.9338 17.7008C24.8733 17.701 24.8733 17.701 24.8116 17.7013C24.7447 17.7012 24.7447 17.7012 24.6764 17.7012C24.6293 17.7013 24.5821 17.7014 24.5335 17.7015C24.4023 17.7018 24.271 17.7019 24.1397 17.7019C23.9983 17.702 23.8569 17.7023 23.7154 17.7025C23.406 17.7031 23.0966 17.7033 22.7871 17.7035C22.594 17.7036 22.4009 17.7038 22.2078 17.7039C21.6733 17.7044 21.1389 17.7048 20.6045 17.7049C20.5702 17.705 20.536 17.705 20.5008 17.705C20.4493 17.705 20.4493 17.705 20.3968 17.705C20.3273 17.705 20.2578 17.705 20.1882 17.7051C20.1538 17.7051 20.1193 17.7051 20.0837 17.7051C19.5249 17.7052 18.966 17.7059 18.4072 17.7068C17.8337 17.7077 17.2603 17.7082 16.6868 17.7083C16.3647 17.7083 16.0426 17.7085 15.7205 17.7093C15.4463 17.7099 15.172 17.7101 14.8977 17.7097C14.7578 17.7096 14.6178 17.7096 14.4778 17.7102C14.3262 17.7107 14.1745 17.7104 14.0229 17.71C13.9785 17.7103 13.9341 17.7107 13.8884 17.711C13.8478 17.7107 13.8072 17.7105 13.7653 17.7102C13.7128 17.7102 13.7128 17.7102 13.6592 17.7103C13.5384 17.6923 13.4644 17.6492 13.3656 17.5785C13.304 17.4551 13.2946 17.3204 13.3266 17.1879C13.4985 16.9388 13.7 16.965 13.9845 16.968Z" fill="white"/>
<path d="M13.7508 18.979C13.7912 18.9788 13.8315 18.9786 13.873 18.9784C13.9399 18.9785 13.9399 18.9785 14.0082 18.9785C14.079 18.9783 14.079 18.9783 14.1511 18.978C14.2824 18.9777 14.4137 18.9775 14.5449 18.9774C14.6864 18.9772 14.8278 18.9769 14.9692 18.9765C15.3109 18.9758 15.6527 18.9754 15.9944 18.975C16.1552 18.9748 16.316 18.9746 16.4769 18.9744C17.0113 18.9738 17.5458 18.9732 18.0802 18.9729C18.2189 18.9728 18.3577 18.9728 18.4964 18.9727C18.5309 18.9727 18.5654 18.9727 18.6009 18.9726C19.1598 18.9723 19.7186 18.9713 20.2775 18.97C20.8509 18.9688 21.4244 18.9681 21.9978 18.9679C22.3199 18.9678 22.642 18.9675 22.9641 18.9665C23.2384 18.9657 23.5126 18.9653 23.7869 18.9657C23.9269 18.9659 24.0668 18.9658 24.2068 18.9651C24.3585 18.9643 24.5101 18.9646 24.6618 18.9652C24.7062 18.9647 24.7505 18.9643 24.7962 18.9639C25.0938 18.9663 25.0938 18.9663 25.2482 19.0587C25.3425 19.1676 25.3564 19.2361 25.3663 19.3761C25.353 19.5009 25.2907 19.5645 25.2018 19.6483C25.1053 19.6966 25.0415 19.6924 24.9335 19.6927C24.8728 19.693 24.8728 19.693 24.8109 19.6933C24.7437 19.6933 24.7437 19.6933 24.6752 19.6934C24.6279 19.6935 24.5806 19.6937 24.5318 19.6939C24.4001 19.6943 24.2684 19.6946 24.1367 19.6947C23.9948 19.695 23.8529 19.6954 23.711 19.6958C23.3681 19.6968 23.0252 19.6974 22.6823 19.6979C22.5855 19.698 22.4887 19.6982 22.3919 19.6983C21.7911 19.6993 21.1903 19.7002 20.5894 19.7007C20.4502 19.7008 20.311 19.7009 20.1718 19.701C20.1372 19.701 20.1026 19.7011 20.067 19.7011C19.5062 19.7016 18.9455 19.7029 18.3847 19.7045C17.8093 19.7062 17.2339 19.7071 16.6585 19.7073C16.3353 19.7074 16.0122 19.7079 15.689 19.7092C15.4138 19.7103 15.1386 19.7107 14.8634 19.7103C14.7229 19.7101 14.5825 19.7102 14.4421 19.7112C14.2899 19.7122 14.1377 19.7117 13.9855 19.7111C13.941 19.7116 13.8965 19.7122 13.8506 19.7127C13.5182 19.7094 13.5182 19.7094 13.3971 19.5933C13.2883 19.4365 13.3 19.3671 13.3268 19.1795C13.4533 19.0152 13.5497 18.9794 13.7508 18.979Z" fill="white"/>
<path d="M13.7934 20.9712C13.8335 20.971 13.8736 20.9708 13.9149 20.9706C13.9812 20.9706 13.9812 20.9706 14.0488 20.9707C14.119 20.9704 14.119 20.9704 14.1907 20.9702C14.3209 20.9699 14.4511 20.9697 14.5814 20.9696C14.7217 20.9694 14.8621 20.9691 15.0024 20.9687C15.3415 20.9679 15.6805 20.9675 16.0196 20.9672C16.1792 20.967 16.3388 20.9668 16.4984 20.9666C17.0289 20.966 17.5594 20.9654 18.0899 20.9651C18.2275 20.965 18.3652 20.965 18.5029 20.9649C18.5371 20.9649 18.5713 20.9648 18.6066 20.9648C19.1611 20.9645 19.7157 20.9635 20.2702 20.9622C20.8394 20.9609 21.4085 20.9602 21.9777 20.9601C22.2973 20.96 22.6169 20.9597 22.9366 20.9587C23.2087 20.9578 23.4809 20.9575 23.7531 20.9579C23.8919 20.9581 24.0308 20.958 24.1697 20.9573C24.3202 20.9564 24.4707 20.9568 24.6212 20.9574C24.6652 20.9569 24.7091 20.9565 24.7543 20.9561C24.9927 20.958 25.1391 20.9701 25.319 21.1327C25.3669 21.236 25.3684 21.3323 25.3581 21.4452C25.3057 21.5623 25.2778 21.622 25.1628 21.6795C25.0992 21.6834 25.0355 21.6847 24.9719 21.6849C24.9313 21.6851 24.8907 21.6853 24.8489 21.6855C24.7815 21.6855 24.7815 21.6855 24.7128 21.6855C24.6653 21.6857 24.6178 21.6859 24.5689 21.6861C24.4368 21.6865 24.3046 21.6867 24.1724 21.6869C24.03 21.6872 23.8877 21.6876 23.7453 21.688C23.4012 21.689 23.0572 21.6896 22.7131 21.6901C22.616 21.6902 22.5189 21.6904 22.4218 21.6905C21.8189 21.6915 21.2161 21.6924 20.6132 21.6929C20.4735 21.693 20.3339 21.6931 20.1942 21.6932C20.1595 21.6932 20.1248 21.6933 20.089 21.6933C19.5263 21.6938 18.9637 21.6951 18.401 21.6967C17.8237 21.6984 17.2464 21.6993 16.669 21.6995C16.3448 21.6996 16.0205 21.7001 15.6962 21.7014C15.4201 21.7025 15.144 21.7029 14.8678 21.7025C14.7269 21.7023 14.586 21.7024 14.4451 21.7033C14.2924 21.7044 14.1397 21.7039 13.987 21.7033C13.92 21.7041 13.92 21.7041 13.8517 21.7049C13.5181 21.7016 13.5181 21.7016 13.397 21.5855C13.2883 21.4286 13.3 21.3593 13.3268 21.1717C13.4563 20.9976 13.5849 20.9716 13.7934 20.9712Z" fill="white"/>
<path d="M19.6937 12.148C20.0667 12.4257 20.2698 12.7076 20.3578 13.1636C20.3736 13.3668 20.3734 13.569 20.372 13.7726C20.372 13.8303 20.372 13.888 20.372 13.9457C20.372 14.0657 20.3716 14.1856 20.3709 14.3056C20.37 14.4593 20.37 14.6129 20.3703 14.7665C20.3704 14.8853 20.3701 15.004 20.3698 15.1227C20.3696 15.1794 20.3696 15.2361 20.3696 15.2927C20.3696 15.3717 20.3691 15.4507 20.3685 15.5296C20.3682 15.5969 20.3682 15.5969 20.368 15.6656C20.3579 15.7796 20.3435 15.8431 20.2797 15.9371C20.1559 16.0196 20.0792 16.0281 19.9333 16.037C19.7996 16.002 19.7415 15.9247 19.6547 15.8199C19.6325 15.6937 19.6325 15.6937 19.6356 15.553C19.6361 15.5075 19.6366 15.462 19.6371 15.4151C19.6388 15.3577 19.6406 15.3004 19.6424 15.2413C19.6465 15.0584 19.6505 14.8755 19.6547 14.6871C19.2293 14.6871 18.8039 14.6871 18.3656 14.6871C18.3702 15.0254 18.3702 15.0254 18.3762 15.3637C18.3764 15.406 18.3767 15.4483 18.377 15.492C18.3777 15.5351 18.3783 15.5783 18.3789 15.6228C18.3597 15.7944 18.2907 15.8948 18.1703 16.0152C17.9541 16.04 17.9541 16.04 17.8578 16.0152C17.7308 15.9127 17.6691 15.8545 17.6379 15.692C17.6379 15.6435 17.6379 15.595 17.6378 15.5451C17.6375 15.5182 17.6373 15.4913 17.637 15.4636C17.6363 15.375 17.6371 15.2865 17.6379 15.1979C17.6379 15.136 17.6378 15.0741 17.6376 15.0121C17.6375 14.8823 17.6381 14.7526 17.6392 14.6228C17.6405 14.4573 17.6402 14.2918 17.6395 14.1262C17.6391 13.9983 17.6395 13.8703 17.64 13.7424C17.6402 13.6814 17.6402 13.6204 17.64 13.5594C17.6392 13.2311 17.6435 12.9435 17.8187 12.6558C17.8366 12.6246 17.8545 12.5935 17.8729 12.5614C18.293 11.9899 19.0632 11.7982 19.6937 12.148ZM18.4462 12.9732C18.3725 13.1033 18.3609 13.2082 18.3618 13.3545C18.3619 13.3875 18.362 13.4205 18.3621 13.4546C18.3624 13.4963 18.3628 13.5381 18.3632 13.5811C18.364 13.714 18.3648 13.847 18.3656 13.9839C18.791 13.9839 19.2164 13.9839 19.6547 13.9839C19.6583 13.8087 19.6583 13.8087 19.662 13.6299C19.663 13.5937 19.6641 13.5574 19.6652 13.5201C19.6677 13.2731 19.6389 13.0841 19.4703 12.8917C19.4474 12.8735 19.4244 12.8553 19.4007 12.8365C19.3778 12.8176 19.3548 12.7988 19.3312 12.7794C19.0136 12.5643 18.6771 12.7199 18.4462 12.9732Z" fill="white"/>
<path d="M14.8109 11.9923C15.0409 12.1583 15.0856 12.3934 15.1606 12.6568C15.1741 12.7023 15.1876 12.7478 15.2015 12.7947C15.2444 12.9397 15.2865 13.0849 15.3285 13.2301C15.3712 13.3757 15.4141 13.5212 15.4571 13.6668C15.4837 13.7573 15.5102 13.8478 15.5365 13.9384C15.5543 13.9997 15.5543 13.9997 15.5725 14.0621C15.5881 14.1161 15.5881 14.1161 15.6041 14.1713C15.6288 14.2583 15.6288 14.2583 15.6703 14.3361C15.6781 14.309 15.686 14.2819 15.6942 14.2541C15.7687 13.9987 15.8439 13.7435 15.9199 13.4885C15.9589 13.3574 15.9977 13.2263 16.0359 13.0949C16.0798 12.9438 16.1249 12.7931 16.17 12.6423C16.1835 12.5953 16.197 12.5482 16.2109 12.4998C16.2242 12.456 16.2375 12.4122 16.2512 12.3671C16.2626 12.3286 16.2739 12.2901 16.2856 12.2504C16.3461 12.124 16.413 12.0684 16.5296 11.9923C16.7 11.9649 16.7732 11.9726 16.9178 12.068C17.0368 12.2447 17.0214 12.4161 16.9828 12.6224C16.9611 12.707 16.9366 12.7902 16.9106 12.8736C16.9013 12.905 16.8919 12.9363 16.8823 12.9687C16.8516 13.0712 16.8203 13.1735 16.7889 13.2759C16.7672 13.3476 16.7456 13.4193 16.724 13.491C16.6789 13.6409 16.6334 13.7906 16.5876 13.9402C16.529 14.1318 16.4711 14.3235 16.4134 14.5154C16.3689 14.6633 16.3241 14.8111 16.2792 14.9589C16.2578 15.0296 16.2364 15.1003 16.2151 15.171C16.1852 15.2698 16.1551 15.3685 16.1248 15.4672C16.1161 15.4962 16.1074 15.5253 16.0984 15.5552C16.0506 15.7093 15.9982 15.8447 15.9046 15.9767C15.7813 16.0384 15.6466 16.0478 15.514 16.0157C15.3258 15.8617 15.2677 15.7158 15.2027 15.4906C15.1927 15.4579 15.1827 15.4252 15.1724 15.3914C15.1397 15.2837 15.1078 15.1756 15.0761 15.0676C15.0535 14.9923 15.031 14.917 15.0083 14.8418C14.9611 14.6842 14.9143 14.5265 14.8679 14.3688C14.8084 14.1668 14.7479 13.9652 14.687 13.7636C14.6402 13.6083 14.594 13.4529 14.5479 13.2974C14.5258 13.223 14.5035 13.1486 14.4811 13.0743C14.4498 12.9703 14.4192 12.8662 14.3888 12.7619C14.3794 12.7314 14.3701 12.7009 14.3605 12.6695C14.3071 12.4831 14.2944 12.3415 14.3421 12.1486C14.4826 11.9874 14.6016 11.9587 14.8109 11.9923Z" fill="white"/>
<path d="M13.7303 22.988C13.8062 22.9873 13.8062 22.9873 13.8837 22.9867C13.9397 22.987 13.9957 22.9873 14.0517 22.9876C14.1107 22.9874 14.1698 22.9871 14.2288 22.9868C14.3891 22.9861 14.5494 22.9863 14.7096 22.9868C14.8773 22.9872 15.045 22.9869 15.2127 22.9866C15.4943 22.9863 15.776 22.9867 16.0576 22.9875C16.3832 22.9883 16.7089 22.988 17.0345 22.9872C17.314 22.9865 17.5936 22.9864 17.8731 22.9868C18.0401 22.987 18.2071 22.987 18.374 22.9865C18.531 22.9861 18.688 22.9864 18.845 22.9873C18.9026 22.9875 18.9602 22.9874 19.0179 22.9871C19.0965 22.9867 19.1751 22.9873 19.2537 22.988C19.2977 22.988 19.3418 22.9881 19.3871 22.9882C19.5262 23.0124 19.5714 23.053 19.6561 23.1641C19.6973 23.3153 19.7098 23.4009 19.6512 23.5474C19.5424 23.6743 19.4346 23.7064 19.2695 23.7208C19.2066 23.7208 19.2066 23.7208 19.1425 23.7209C19.07 23.7212 19.07 23.7212 18.9961 23.7215C18.9429 23.7214 18.8897 23.7212 18.8365 23.7211C18.7802 23.7212 18.7239 23.7213 18.6676 23.7215C18.515 23.7218 18.3624 23.7217 18.2098 23.7214C18.05 23.7213 17.8902 23.7214 17.7304 23.7216C17.462 23.7217 17.1937 23.7215 16.9253 23.7211C16.6152 23.7207 16.3051 23.7209 15.9949 23.7213C15.7285 23.7216 15.4621 23.7217 15.1957 23.7215C15.0367 23.7214 14.8776 23.7213 14.7186 23.7216C14.569 23.7218 14.4195 23.7217 14.27 23.7212C14.2151 23.7211 14.1603 23.7211 14.1054 23.7213C14.0305 23.7215 13.9556 23.7212 13.8806 23.7209C13.8387 23.7208 13.7968 23.7208 13.7536 23.7208C13.606 23.708 13.4938 23.6695 13.3754 23.5802C13.3143 23.497 13.3111 23.4449 13.3109 23.3423C13.3101 23.3125 13.3094 23.2828 13.3086 23.2521C13.3588 23.0241 13.5207 22.9883 13.7303 22.988Z" fill="white"/>
<path d="M21.6951 11.9667C21.7455 11.9665 21.7959 11.9663 21.8478 11.9661C21.9544 11.9659 22.0609 11.9663 22.1674 11.9672C22.3036 11.9683 22.4398 11.9677 22.576 11.9665C22.7063 11.9656 22.8367 11.9662 22.967 11.9667C23.0158 11.9663 23.0646 11.9659 23.1149 11.9655C23.4908 11.9706 23.4908 11.9706 23.6118 12.0868C23.716 12.2444 23.7053 12.3144 23.6787 12.5005C23.6057 12.5954 23.5505 12.6427 23.4443 12.6958C23.3878 12.699 23.331 12.7 23.2744 12.6996C23.2245 12.6994 23.2245 12.6994 23.1736 12.6992C23.1389 12.6989 23.1042 12.6986 23.0684 12.6982C23.0333 12.698 22.9983 12.6979 22.9622 12.6977C22.8755 12.6972 22.7888 12.6966 22.7021 12.6958C22.7023 12.733 22.7025 12.7703 22.7027 12.8086C22.7043 13.1598 22.7054 13.511 22.7062 13.8622C22.7066 14.0427 22.7072 14.2232 22.708 14.4038C22.7089 14.578 22.7094 14.7523 22.7096 14.9265C22.7097 14.993 22.71 15.0594 22.7104 15.1259C22.711 15.219 22.7111 15.3122 22.711 15.4053C22.7113 15.4327 22.7116 15.4602 22.7119 15.4884C22.7111 15.6792 22.6907 15.8273 22.5581 15.9697C22.4283 16.0363 22.3383 16.0338 22.1943 16.0161C22.0894 15.9562 22.0894 15.9562 21.999 15.8598C21.9803 15.7491 21.9742 15.6621 21.9769 15.5516C21.9768 15.5208 21.9768 15.4899 21.9768 15.4581C21.9769 15.3562 21.9784 15.2543 21.9799 15.1524C21.9803 15.0817 21.9806 15.011 21.9808 14.9403C21.9815 14.7543 21.9835 14.5683 21.9856 14.3824C21.9876 14.1925 21.9885 14.0027 21.9895 13.8129C21.9916 13.4405 21.9949 13.0681 21.999 12.6958C21.9764 12.6966 21.9537 12.6974 21.9304 12.6983C21.8271 12.7015 21.7239 12.7035 21.6206 12.7055C21.5672 12.7075 21.5672 12.7075 21.5126 12.7095C21.3421 12.712 21.2456 12.7129 21.0974 12.6219C21.0006 12.5155 20.9852 12.4772 20.9688 12.332C20.9831 12.1905 20.9998 12.1291 21.1039 12.0328C21.2806 11.9379 21.5 11.9651 21.6951 11.9667Z" fill="white"/>
<path d="M24.5 23.0079C24.6313 23.09 24.6514 23.1477 24.6953 23.296C24.6953 23.596 24.421 23.8025 24.2221 24.0028C24.1743 24.0513 24.1743 24.0513 24.1256 24.1008C24.0206 24.2074 23.9153 24.3136 23.8098 24.4198C23.7558 24.4744 23.7558 24.4744 23.7006 24.53C23.5296 24.7025 23.3584 24.8748 23.187 25.0469C22.9896 25.2451 22.7929 25.4439 22.5967 25.6432C22.4446 25.7976 22.2919 25.9515 22.1387 26.1049C22.0475 26.1964 21.9565 26.2881 21.8661 26.3804C21.7651 26.4833 21.6632 26.5851 21.561 26.6868C21.5314 26.7173 21.5019 26.7479 21.4715 26.7793C21.3026 26.945 21.1828 27.0261 20.9435 27.0393C20.8672 27.0314 20.8672 27.0314 20.75 26.9728C20.6481 26.8453 20.6328 26.7641 20.6328 26.6017C20.7023 26.4666 20.7846 26.3617 20.8907 26.2539C20.919 26.225 20.9472 26.1961 20.9763 26.1664C21.0071 26.1353 21.038 26.1042 21.0697 26.0722C21.1186 26.0225 21.1186 26.0225 21.1685 25.9717C21.2762 25.8622 21.3843 25.753 21.4925 25.6439C21.5298 25.6062 21.5671 25.5685 21.6045 25.5308C21.7597 25.3741 21.9151 25.2174 22.0707 25.061C22.2933 24.8374 22.5153 24.6131 22.7365 24.388C22.8923 24.2295 23.0488 24.0716 23.2058 23.9143C23.2995 23.8204 23.3928 23.7262 23.4855 23.6313C23.589 23.5256 23.6935 23.4211 23.7984 23.3168C23.8439 23.2696 23.8439 23.2696 23.8903 23.2214C24.0822 23.0335 24.2277 22.9462 24.5 23.0079Z" fill="white"/>
<path d="M13.9353 24.9751C13.977 24.9748 14.0186 24.9745 14.0615 24.9741C14.199 24.9732 14.3365 24.9738 14.474 24.9745C14.5696 24.9743 14.6651 24.9741 14.7607 24.9739C14.961 24.9736 15.1613 24.974 15.3616 24.9749C15.6185 24.9761 15.8752 24.9754 16.132 24.9742C16.3294 24.9735 16.5268 24.9738 16.7242 24.9743C16.8189 24.9744 16.9136 24.9742 17.0083 24.9738C17.1406 24.9733 17.2729 24.974 17.4052 24.9751C17.4444 24.9747 17.4835 24.9743 17.5239 24.9739C17.7055 24.9767 17.7915 24.9802 17.9408 25.0911C18.0374 25.2292 18.0406 25.3039 18.014 25.4692C17.9439 25.5767 17.8948 25.646 17.7796 25.7035C17.7236 25.7073 17.6673 25.7086 17.6111 25.7088C17.5581 25.709 17.5581 25.709 17.5039 25.7093C17.465 25.7092 17.4261 25.7092 17.386 25.7092C17.3451 25.7093 17.3042 25.7095 17.262 25.7096C17.1262 25.71 16.9904 25.7101 16.8546 25.7101C16.7605 25.7102 16.6664 25.7104 16.5723 25.7105C16.3749 25.7107 16.1774 25.7108 15.9799 25.7108C15.7265 25.7108 15.4732 25.7113 15.2198 25.712C15.0254 25.7124 14.831 25.7125 14.6366 25.7125C14.5431 25.7125 14.4497 25.7127 14.3563 25.713C14.2258 25.7134 14.0952 25.7133 13.9646 25.713C13.9259 25.7132 13.8871 25.7135 13.8472 25.7137C13.8116 25.7135 13.776 25.7134 13.7393 25.7132C13.693 25.7132 13.693 25.7132 13.6458 25.7133C13.5481 25.7021 13.4874 25.6781 13.4046 25.6254C13.3221 25.5017 13.3136 25.4249 13.3047 25.279C13.3884 24.9595 13.6648 24.9724 13.9353 24.9751Z" fill="white"/>
<path d="M21.9227 22.8123C22.1571 22.9812 22.2836 23.1976 22.3524 23.4763C22.4001 23.825 22.315 24.0793 22.1229 24.3674C21.8969 24.6001 21.6629 24.6898 21.3441 24.7019C21.0103 24.6957 20.7486 24.5732 20.5165 24.3357C20.3374 24.043 20.2906 23.7788 20.3212 23.4373C20.4138 23.1004 20.62 22.9153 20.9085 22.7347C21.2332 22.5669 21.6171 22.6391 21.9227 22.8123ZM21.1024 23.4373C21.0108 23.5747 21.0016 23.627 21.0243 23.7888C21.1214 23.9202 21.1772 23.9763 21.3392 24.0061C21.4818 23.9788 21.5265 23.9458 21.6102 23.8279C21.6557 23.7145 21.6557 23.7145 21.6493 23.5935C21.5734 23.4569 21.5257 23.4084 21.3759 23.3616C21.2535 23.359 21.2009 23.3669 21.1024 23.4373Z" fill="white"/>
<path d="M24.6602 25.5278C24.908 25.757 25.014 26.0102 25.029 26.3454C25.0189 26.631 24.9383 26.8503 24.7474 27.0644C24.4738 27.3163 24.2218 27.3691 23.8551 27.3598C23.5759 27.3275 23.3696 27.2186 23.193 26.9997C22.9988 26.7059 22.9266 26.4317 22.9927 26.0826C23.066 25.8175 23.2157 25.6069 23.4468 25.4552C23.8464 25.2452 24.2864 25.2621 24.6602 25.5278ZM23.757 26.133C23.6672 26.2426 23.6672 26.2426 23.6837 26.3649C23.7237 26.5048 23.7541 26.5586 23.8742 26.6408C24.0109 26.6701 24.0109 26.6701 24.1476 26.6408C24.2614 26.5415 24.2976 26.4757 24.3283 26.3283C24.2921 26.1546 24.2157 26.1132 24.0695 26.0158C23.9276 26.0158 23.8723 26.0531 23.757 26.133Z" fill="white"/>
</g>
<defs>
<clipPath id="clip0_3515_152267">
<rect width="20" height="20" fill="white" transform="translate(7 10)"/>
</clipPath>
</defs>
</svg>
