<svg width="35" height="35" viewBox="0 0 35 35" fill="none" xmlns="http://www.w3.org/2000/svg">
<rect width="35" height="35" rx="3" fill="#F96332"/>
<g clip-path="url(#clip0_3419_74757)">
<path d="M17.4677 7.28912C17.4037 7.28947 17.4037 7.28947 17.3383 7.28983C16.7591 7.303 16.3009 7.46311 15.8476 7.79778C15.7772 7.84436 15.7772 7.84436 15.7054 7.89188C15.2752 8.26677 14.9646 8.81271 14.9359 9.35904C14.9349 9.43374 14.9349 9.50846 14.9358 9.58317C14.9361 9.64182 14.9361 9.64182 14.9364 9.70166C14.9433 10.004 14.9951 10.2477 15.1337 10.5242C15.1637 10.5919 15.1935 10.6597 15.223 10.7276C14.714 10.5 14.2704 10.25 13.8399 9.91379C13.7994 9.88229 13.7994 9.88229 13.758 9.85015C13.5889 9.71822 13.4211 9.58485 13.2537 9.45102C12.9018 9.1704 12.5463 8.89412 12.1825 8.62641C12.0866 8.55391 11.9931 8.48042 11.9002 8.40483C11.4978 8.07839 11.193 7.8429 10.6272 7.86391C10.2657 7.90523 10.0226 8.02398 9.79786 8.28593C9.60645 8.5354 9.53535 8.76839 9.56642 9.07133C9.63885 9.43629 9.87632 9.69483 10.1598 9.94797C10.2022 9.98655 10.2022 9.98655 10.2454 10.0259C10.338 10.1101 10.431 10.1938 10.5241 10.2775C10.5891 10.3364 10.654 10.3954 10.7189 10.4544C10.8894 10.6092 11.0603 10.7636 11.2313 10.918C11.5046 11.1649 11.7774 11.4124 12.0502 11.6599C12.1451 11.7458 12.2401 11.8316 12.3351 11.9173C12.5852 12.1434 12.8311 12.3682 13.0588 12.6134C13.1823 12.7374 13.3258 12.8397 13.4673 12.946C14.3156 13.5859 14.3156 13.5859 14.6656 14.4967C14.6775 14.8171 14.6451 15.1307 14.5984 15.448C14.8339 15.448 15.0695 15.448 15.3122 15.448C15.32 15.199 15.3256 14.95 15.3294 14.7009C15.3309 14.6163 15.3331 14.5316 15.3358 14.447C15.3396 14.325 15.3413 14.2031 15.3427 14.081C15.3443 14.0435 15.3459 14.006 15.3476 13.9674C15.3477 13.7733 15.3289 13.6527 15.1818 13.5079C15.1534 13.4798 15.125 13.4517 15.0957 13.4227C14.9166 13.2531 14.7353 13.0857 14.5522 12.9197C14.5079 12.8793 14.4636 12.839 14.4193 12.7986C14.3246 12.7124 14.2299 12.6263 14.1351 12.5401C13.9852 12.404 13.8354 12.2676 13.6857 12.1313C13.3682 11.8421 13.0506 11.5532 12.7329 11.2643C12.3891 10.9516 12.0453 10.6389 11.7017 10.326C11.5529 10.1904 11.4039 10.0549 11.2549 9.91955C11.1624 9.83549 11.07 9.75135 10.9776 9.66718C10.9143 9.60952 10.8508 9.55197 10.7874 9.49442C10.731 9.443 10.731 9.443 10.6735 9.39054C10.6243 9.34588 10.6243 9.34588 10.5742 9.30032C10.4502 9.17964 10.3924 9.10136 10.3962 8.93717C10.3964 8.90948 10.3967 8.88178 10.397 8.85324C10.402 8.76555 10.402 8.76555 10.4491 8.65232C10.6027 8.6107 10.7355 8.59533 10.8953 8.61163C11.0547 8.69487 11.1825 8.80295 11.3155 8.91782C11.447 9.02973 11.5844 9.13538 11.7207 9.24237C11.7783 9.28814 11.8359 9.33392 11.8936 9.3797C12.0655 9.51561 12.2416 9.64641 12.4185 9.77693C12.5713 9.89213 12.7203 10.011 12.8695 10.13C14.2089 11.1921 15.614 11.8866 17.4314 11.8823C17.4648 11.8823 17.4982 11.8823 17.5325 11.8823C18.0738 11.8809 18.5822 11.8423 19.1045 11.7043C19.1339 11.6969 19.1633 11.6895 19.1936 11.6818C20.2863 11.4013 21.1315 10.8272 21.9787 10.1611C22.1288 10.0432 22.2798 9.92615 22.4311 9.80952C22.4549 9.79119 22.4787 9.77287 22.5032 9.75398C22.5749 9.69873 22.6466 9.64349 22.7184 9.58825C22.8141 9.51452 22.9098 9.44077 23.0056 9.36699C23.029 9.34892 23.0525 9.33085 23.0766 9.31224C23.2085 9.21053 23.3398 9.10825 23.4705 9.00536C23.499 8.98296 23.5275 8.96056 23.5569 8.93748C23.6122 8.89398 23.6674 8.85041 23.7225 8.80676C23.9171 8.65075 23.9171 8.65075 24.1628 8.59892C24.324 8.59904 24.324 8.59904 24.4305 8.6803C24.515 8.79001 24.5476 8.84314 24.5476 8.97787C24.4038 9.26738 24.1604 9.46916 23.9154 9.68972C23.8689 9.7321 23.8223 9.7745 23.7758 9.81694C23.65 9.93153 23.5238 10.0458 23.3975 10.1599C23.2653 10.2796 23.1336 10.3996 23.0017 10.5195C22.7522 10.7465 22.5024 10.9732 22.2525 11.1997C21.8043 11.606 21.3567 12.0127 20.9092 12.4196C20.7521 12.5624 20.5948 12.7051 20.4375 12.8476C20.3399 12.9361 20.2424 13.0246 20.1449 13.1132C20.0995 13.1543 20.0542 13.1954 20.0087 13.2365C19.9469 13.2924 19.8853 13.3485 19.8236 13.4045C19.789 13.4359 19.7544 13.4672 19.7187 13.4995C19.6015 13.6134 19.5897 13.6792 19.5902 13.8311C19.5902 13.867 19.5902 13.9028 19.5902 13.9397C19.5905 13.9785 19.5907 14.0172 19.5909 14.0571C19.591 14.1166 19.591 14.1166 19.5911 14.1772C19.5914 14.3041 19.5919 14.431 19.5925 14.5578C19.5927 14.6437 19.5929 14.7296 19.5931 14.8155C19.5936 15.0263 19.5944 15.2372 19.5953 15.448C19.8308 15.448 20.0664 15.448 20.3091 15.448C20.2927 15.3602 20.2762 15.2724 20.2593 15.1819C20.192 14.6833 20.1711 14.1848 20.5172 13.7672C20.9166 13.3343 21.3877 12.9587 21.8587 12.5924C22.0096 12.4728 22.1382 12.3466 22.2671 12.2078C22.4677 12.0024 22.6866 11.8125 22.9013 11.6195C22.9924 11.5375 23.0833 11.4553 23.1742 11.373C23.4323 11.1393 23.6905 10.9058 23.9494 10.6728C24.1084 10.5298 24.267 10.3864 24.4252 10.2427C24.4853 10.1883 24.5456 10.1341 24.606 10.08C24.6905 10.0042 24.7745 9.928 24.8584 9.85164C24.8955 9.81878 24.8955 9.81878 24.9333 9.78525C25.1778 9.56049 25.3281 9.30779 25.3521 8.98963C25.3466 8.62417 25.1933 8.34608 24.9129 8.09026C24.586 7.88565 24.274 7.83218 23.8784 7.87917C23.4851 7.98004 23.1863 8.26234 22.8891 8.50477C22.7565 8.61235 22.6217 8.71751 22.4869 8.82272C22.4608 8.84319 22.4347 8.86365 22.4077 8.88474C22.2151 9.03531 22.019 9.18172 21.8219 9.32741C21.695 9.42339 21.5708 9.52166 21.4469 9.62082C20.652 10.2946 20.652 10.2946 19.6845 10.687C19.7001 10.6536 19.7157 10.6202 19.7317 10.5859C19.752 10.542 19.7723 10.4982 19.7933 10.453C19.8134 10.4095 19.8336 10.3661 19.8544 10.3214C20.0738 9.81503 20.0114 9.15929 19.7987 8.66075C19.6936 8.46358 19.5677 8.29335 19.4168 8.12332C19.3828 8.08052 19.3487 8.03771 19.3136 7.99361C18.8267 7.52878 18.166 7.28465 17.4677 7.28912ZM18.8368 8.57094C19.1694 8.98312 19.2492 9.41015 19.1937 9.91379C19.0884 10.3614 18.7923 10.7062 18.3907 10.9718C17.9965 11.1912 17.5387 11.2507 17.0885 11.1753C16.6687 11.0783 16.2894 10.8847 16.0261 10.5649C15.7333 10.0996 15.6267 9.66058 15.7427 9.13046C15.9079 8.67721 16.2584 8.33687 16.7141 8.11029C17.4799 7.8076 18.2923 8.0133 18.8368 8.57094Z" fill="white"/>
<path d="M17.4673 15.7559C17.4032 15.7563 17.4032 15.7563 17.3379 15.7566C16.7587 15.7698 16.3005 15.9299 15.8472 16.2646C15.8003 16.2956 15.7533 16.3267 15.705 16.3587C15.2748 16.7336 14.9641 17.2795 14.9355 17.8258C14.9345 17.9005 14.9345 17.9753 14.9354 18.05C14.9359 18.1089 14.9359 18.1089 14.9364 18.169C14.9439 18.4672 14.9889 18.7206 15.1333 18.991C15.1543 19.0306 15.1753 19.0702 15.1969 19.111C15.317 19.3229 15.4472 19.5072 15.6241 19.6828C15.5906 19.6892 15.5572 19.6957 15.5227 19.7023C14.8414 19.844 14.3178 20.1332 13.9177 20.6646C13.6376 21.0829 13.5136 21.4672 13.5106 21.953C13.5102 21.9945 13.5098 22.0361 13.5094 22.0789C13.5088 22.1664 13.5084 22.2539 13.5082 22.3414C13.5077 22.4752 13.5055 22.6089 13.5032 22.7426C13.5028 22.8278 13.5025 22.913 13.5023 22.9982C13.501 23.0581 13.501 23.0581 13.4996 23.1191C13.501 23.309 13.502 23.3969 13.6329 23.5507C14.495 24.1323 15.7666 24.2446 16.8083 24.2486C16.881 24.2489 16.881 24.2489 16.9551 24.2493C17.0573 24.2497 17.1596 24.2499 17.2618 24.2501C17.4147 24.2505 17.5674 24.2518 17.7202 24.253C18.9034 24.2582 20.219 24.1847 21.2456 23.5892C21.3619 23.4724 21.3963 23.3972 21.3975 23.2402C21.3981 23.2035 21.3986 23.1668 21.3992 23.129C21.3991 23.0895 21.399 23.05 21.3988 23.0094C21.3991 22.9683 21.3993 22.9272 21.3995 22.8849C21.3998 22.7979 21.3998 22.7109 21.3994 22.6239C21.399 22.4921 21.4003 22.3605 21.4017 22.2287C21.4048 21.4125 21.4048 21.4125 21.201 21.0256C21.1791 20.9809 21.1571 20.9361 21.1344 20.89C20.7207 20.2131 20.1122 19.8987 19.3272 19.6421C19.3579 19.6037 19.3579 19.6037 19.3892 19.5645C19.7587 19.0944 19.9786 18.6553 19.9741 18.0678C19.9738 18.0288 19.9736 17.9899 19.9733 17.9498C19.9589 17.4215 19.7833 17.0036 19.4164 16.5901C19.3824 16.5473 19.3483 16.5045 19.3132 16.4604C18.8262 15.9956 18.1656 15.7514 17.4673 15.7559ZM18.8364 17.0377C19.169 17.4499 19.2488 17.877 19.1933 18.3806C19.088 18.8281 18.7919 19.173 18.3903 19.4386C17.9961 19.658 17.5383 19.7175 17.088 19.6421C16.6683 19.5451 16.289 19.3515 16.0256 19.0317C15.7328 18.5664 15.6263 18.1274 15.7423 17.5973C15.9074 17.144 16.258 16.8037 16.7137 16.5771C17.4795 16.2744 18.2919 16.4801 18.8364 17.0377ZM20.2641 20.9442C20.6592 21.4365 20.6729 21.9426 20.6684 22.5312C20.6682 22.5822 20.668 22.6331 20.6678 22.6856C20.6673 22.8105 20.6666 22.9354 20.6656 23.0602C19.041 23.8345 16.6463 23.7559 14.913 23.3273C14.8811 23.3194 14.8492 23.3116 14.8164 23.3035C14.6044 23.247 14.4292 23.1656 14.241 23.0602C14.2384 22.8873 14.2368 22.7144 14.2355 22.5414C14.2343 22.4689 14.2343 22.4689 14.2332 22.395C14.2294 21.7643 14.3251 21.2549 14.8102 20.7832C15.3472 20.3369 15.9781 20.3273 16.6663 20.327C16.7285 20.3269 16.7907 20.3267 16.853 20.3266C16.983 20.3263 17.1131 20.3263 17.2431 20.3263C17.4083 20.3263 17.5735 20.3257 17.7387 20.325C17.8671 20.3246 17.9956 20.3245 18.1241 20.3245C18.2141 20.3245 18.3041 20.324 18.3942 20.3236C19.1365 20.3252 19.7457 20.4253 20.2641 20.9442Z" fill="white"/>
<path d="M10.6866 14.7774C10.6226 14.7778 10.6226 14.7778 10.5572 14.7781C9.97803 14.7913 9.51983 14.9514 9.0665 15.2861C9.01957 15.3171 8.97264 15.3482 8.92429 15.3802C8.49414 15.7551 8.18346 16.301 8.15485 16.8473C8.15381 16.922 8.15377 16.9967 8.15468 17.0714C8.15518 17.1304 8.15518 17.1304 8.1557 17.1905C8.16324 17.4887 8.2082 17.7421 8.35266 18.0125C8.37365 18.0521 8.39464 18.0917 8.41627 18.1325C8.53631 18.3444 8.66655 18.5287 8.84343 18.7042C8.81151 18.7097 8.77959 18.7153 8.7467 18.7209C8.05739 18.8568 7.54322 19.1617 7.14177 19.6832C6.85424 20.0981 6.73287 20.4891 6.72995 20.9744C6.72955 21.016 6.72914 21.0576 6.72873 21.1004C6.72808 21.1879 6.72769 21.2754 6.72752 21.3628C6.72699 21.4966 6.72479 21.6304 6.72254 21.7641C6.72212 21.8493 6.7218 21.9345 6.72158 22.0197C6.72028 22.0796 6.72028 22.0796 6.71894 22.1406C6.72032 22.3305 6.72132 22.4183 6.85219 22.5722C7.71432 23.1538 8.98595 23.2661 10.0276 23.2701C10.1003 23.2704 10.1003 23.2704 10.1744 23.2708C10.2767 23.2712 10.3789 23.2714 10.4812 23.2716C10.634 23.272 10.7868 23.2732 10.9396 23.2745C11.5895 23.2773 12.217 23.234 12.8588 23.1397C12.9121 22.9764 12.8847 22.8681 12.8393 22.7023C12.82 22.6308 12.82 22.6308 12.8004 22.558C12.7902 22.5217 12.7801 22.4854 12.7696 22.448C12.6896 22.4538 12.6097 22.4598 12.5298 22.4658C12.463 22.4707 12.463 22.4707 12.3949 22.4758C12.3085 22.4827 12.2222 22.4898 12.1361 22.4983C10.7008 22.6387 8.82258 22.7277 7.50497 22.0817C7.50234 21.9088 7.50078 21.7358 7.49939 21.5629C7.49827 21.4904 7.49827 21.4904 7.49712 21.4165C7.49351 20.8135 7.57531 20.292 8.03948 19.8363C8.5769 19.3945 9.21233 19.3895 9.89694 19.3892C9.96027 19.389 10.0236 19.3889 10.0869 19.3888C10.2193 19.3885 10.3516 19.3884 10.4839 19.3885C10.6522 19.3885 10.8205 19.3879 10.9888 19.3872C11.1195 19.3868 11.2502 19.3867 11.381 19.3867C11.443 19.3867 11.5049 19.3865 11.5669 19.3862C12.2264 19.3831 12.8623 19.4313 13.3579 19.8742C13.43 19.9452 13.4806 20.0012 13.528 20.0878C13.7191 20.0655 13.8337 20.0054 13.9881 19.9021C14.0275 19.8761 14.0669 19.85 14.1075 19.8231C14.1371 19.803 14.1667 19.7829 14.1973 19.7622C14.0337 19.3617 13.6651 19.1045 13.2603 18.9077C13.0434 18.8226 12.8185 18.7613 12.5911 18.7042C12.5911 18.5609 12.6173 18.5395 12.7138 18.4321C13.0524 18.0332 13.1973 17.5919 13.1934 17.0893C13.1932 17.0503 13.1929 17.0114 13.1926 16.9713C13.1782 16.443 13.0027 16.0251 12.6357 15.6116C12.6017 15.5688 12.5676 15.526 12.5326 15.4819C12.0456 15.0171 11.3849 14.7729 10.6866 14.7774ZM12.0557 16.0592C12.3883 16.4714 12.4681 16.8984 12.4127 17.4021C12.3073 17.8496 12.0112 18.1945 11.6096 18.4601C11.2155 18.6795 10.7576 18.739 10.3074 18.6635C9.8876 18.5666 9.50829 18.373 9.24496 18.0532C8.95216 17.5879 8.84562 17.1489 8.96159 16.6187C9.12676 16.1655 9.47732 15.8252 9.93302 15.5986C10.6988 15.2959 11.5112 15.5016 12.0557 16.0592Z" fill="white"/>
<path d="M24.249 14.7774C24.185 14.7778 24.185 14.7778 24.1197 14.7781C23.5405 14.7913 23.0822 14.9514 22.6289 15.2861C22.582 15.3171 22.5351 15.3482 22.4867 15.3802C22.0566 15.7551 21.7459 16.301 21.7173 16.8473C21.7162 16.922 21.7162 16.9967 21.7171 17.0714C21.7176 17.1304 21.7176 17.1304 21.7181 17.1905C21.7257 17.4887 21.7706 17.7421 21.9151 18.0125C21.9361 18.0521 21.9571 18.0917 21.9787 18.1325C22.0987 18.3444 22.229 18.5287 22.4058 18.7042C22.3724 18.7107 22.3389 18.7171 22.3044 18.7238C21.7031 18.8488 21.1718 19.0967 20.7885 19.5537C20.7628 19.5957 20.737 19.6376 20.7105 19.6809C20.7685 19.8395 20.8413 19.8653 20.9949 19.953C21.0603 19.991 21.0603 19.991 21.127 20.0298C21.2458 20.0878 21.2458 20.0878 21.3797 20.0878C21.4454 20.0252 21.4454 20.0252 21.5163 19.9403C21.8079 19.6225 22.2005 19.4534 22.6477 19.4045C22.9023 19.3857 23.1579 19.3893 23.4132 19.3892C23.4764 19.389 23.5396 19.3889 23.6029 19.3888C23.735 19.3885 23.8671 19.3884 23.9993 19.3885C24.1672 19.3885 24.3351 19.3879 24.5029 19.3872C24.6335 19.3868 24.764 19.3867 24.8945 19.3867C24.9564 19.3867 25.0182 19.3865 25.08 19.3862C25.7767 19.3829 26.3901 19.4344 26.92 19.8835C27.3985 20.3677 27.4102 20.9352 27.4056 21.5527C27.4053 21.6037 27.4051 21.6546 27.4049 21.7071C27.4044 21.832 27.4037 21.9568 27.4028 22.0817C25.9173 22.6712 24.1359 22.6755 22.5521 22.4643C22.4123 22.4487 22.2787 22.445 22.1382 22.448C22.1144 22.5326 22.0913 22.6174 22.0684 22.7023C22.0555 22.7495 22.0426 22.7967 22.0292 22.8453C22.0056 22.9701 22.0108 23.023 22.0489 23.1397C22.7306 23.2383 23.3974 23.2813 24.0873 23.2777C24.235 23.2771 24.3826 23.2777 24.5303 23.2785C25.7033 23.2796 27.0105 23.2005 28.0274 22.6107C28.1437 22.4939 28.1781 22.4187 28.1793 22.2617C28.1798 22.225 28.1804 22.1883 28.181 22.1504C28.1808 22.111 28.1807 22.0715 28.1806 22.0309C28.1808 21.9898 28.181 21.9487 28.1813 21.9064C28.1816 21.8194 28.1815 21.7324 28.1811 21.6454C28.1807 21.5136 28.182 21.382 28.1834 21.2502C28.1865 20.4339 28.1865 20.4339 27.9828 20.0471C27.9608 20.0023 27.9388 19.9576 27.9162 19.9115C27.5024 19.2346 26.894 18.9202 26.1089 18.6635C26.1396 18.6251 26.1396 18.6251 26.171 18.586C26.5404 18.1159 26.7604 17.6768 26.7558 17.0893C26.7556 17.0503 26.7553 17.0114 26.7551 16.9713C26.7406 16.443 26.5651 16.0251 26.1981 15.6116C26.1641 15.5688 26.1301 15.526 26.095 15.4819C25.608 15.0171 24.9473 14.7729 24.249 14.7774ZM25.6181 16.0592C25.9507 16.4714 26.0306 16.8984 25.9751 17.4021C25.8698 17.8496 25.5737 18.1945 25.172 18.4601C24.7779 18.6795 24.32 18.739 23.8698 18.6635C23.45 18.5666 23.0707 18.373 22.8074 18.0532C22.5146 17.5879 22.408 17.1489 22.524 16.6187C22.6892 16.1655 23.0397 15.8252 23.4954 15.5986C24.2613 15.2959 25.0736 15.5016 25.6181 16.0592Z" fill="white"/>
</g>
<defs>
<clipPath id="clip0_3419_74757">
<rect width="22.843" height="20.7664" fill="white" transform="matrix(-1 0 0 1 28.8755 7.13086)"/>
</clipPath>
</defs>
</svg>
