<svg width="35" height="35" viewBox="0 0 35 35" fill="none" xmlns="http://www.w3.org/2000/svg">
<rect width="35" height="35" rx="3" fill="#F96332"/>
<g clip-path="url(#clip0_1510_57018)">
<path d="M17.5101 9.58209C17.4585 9.58241 17.4585 9.58241 17.4058 9.58275C16.9387 9.59503 16.5692 9.74446 16.2037 10.0568C16.1469 10.1003 16.1469 10.1003 16.089 10.1446C15.7421 10.4945 15.4916 11.004 15.4685 11.5139C15.4677 11.5836 15.4676 11.6533 15.4683 11.7231C15.4686 11.7778 15.4686 11.7778 15.4689 11.8337C15.4744 12.1158 15.5162 12.3432 15.628 12.6013C15.6522 12.6645 15.6762 12.7278 15.7 12.7912C15.2895 12.5788 14.9318 12.3454 14.5846 12.0316C14.5519 12.0022 14.5519 12.0022 14.5186 11.9722C14.3822 11.8491 14.2469 11.7246 14.1119 11.5997C13.8281 11.3378 13.5414 11.08 13.2481 10.8302C13.1707 10.7625 13.0953 10.6939 13.0204 10.6234C12.6959 10.3187 12.4501 10.0989 11.9939 10.1185C11.7023 10.1571 11.5063 10.2679 11.325 10.5124C11.1707 10.7452 11.1133 10.9627 11.1384 11.2454C11.1968 11.586 11.3883 11.8273 11.6169 12.0635C11.6511 12.0995 11.6511 12.0995 11.686 12.1363C11.7606 12.2148 11.8356 12.2929 11.9107 12.3711C11.9631 12.4261 12.0155 12.4811 12.0678 12.5362C12.2053 12.6806 12.3431 12.8248 12.481 12.9688C12.7014 13.1993 12.9214 13.4302 13.1414 13.6612C13.2179 13.7414 13.2945 13.8215 13.3711 13.9015C13.5728 14.1125 13.7711 14.3222 13.9547 14.5511C14.0543 14.6668 14.1701 14.7623 14.2841 14.8615C14.9682 15.4587 14.9682 15.4587 15.2505 16.3087C15.2601 16.6078 15.2339 16.9004 15.1963 17.1966C15.3862 17.1966 15.5762 17.1966 15.7719 17.1966C15.7782 16.9642 15.7827 16.7318 15.7857 16.4993C15.787 16.4203 15.7887 16.3414 15.7909 16.2624C15.794 16.1485 15.7954 16.0347 15.7965 15.9208C15.7978 15.8858 15.7991 15.8508 15.8004 15.8147C15.8005 15.6336 15.7854 15.5211 15.6668 15.386C15.6438 15.3597 15.6209 15.3335 15.5973 15.3065C15.4529 15.1481 15.3067 14.9919 15.159 14.8369C15.1233 14.7993 15.0876 14.7617 15.0519 14.724C14.9755 14.6435 14.8991 14.5631 14.8227 14.4827C14.7018 14.3556 14.581 14.2284 14.4603 14.1011C14.2043 13.8313 13.9481 13.5617 13.6919 13.292C13.4146 13.0002 13.1374 12.7083 12.8604 12.4163C12.7403 12.2898 12.6202 12.1634 12.5 12.037C12.4254 11.9586 12.3509 11.88 12.2764 11.8015C12.2253 11.7477 12.1742 11.6939 12.123 11.6402C12.0775 11.5922 12.0775 11.5922 12.0311 11.5433C11.9915 11.5016 11.9915 11.5016 11.9511 11.4591C11.8511 11.3465 11.8045 11.2734 11.8075 11.1202C11.8077 11.0943 11.808 11.0685 11.8082 11.0418C11.8122 10.96 11.8122 10.96 11.8502 10.8543C11.9741 10.8155 12.0812 10.8011 12.21 10.8164C12.3386 10.894 12.4416 10.9949 12.5489 11.1021C12.6549 11.2066 12.7658 11.3052 12.8756 11.405C12.9221 11.4477 12.9686 11.4904 13.015 11.5332C13.1537 11.66 13.2957 11.7821 13.4384 11.9039C13.5616 12.0114 13.6817 12.1223 13.8021 12.2334C14.8822 13.2246 16.0152 13.8728 17.4809 13.8688C17.5078 13.8688 17.5347 13.8688 17.5624 13.8688C17.9989 13.8675 18.4089 13.8315 18.8301 13.7026C18.8538 13.6957 18.8775 13.6888 18.9019 13.6817C19.7831 13.4199 20.4647 12.8841 21.1479 12.2625C21.269 12.1524 21.3907 12.0432 21.5127 11.9343C21.5319 11.9172 21.5511 11.9001 21.5708 11.8825C21.6287 11.8309 21.6865 11.7794 21.7444 11.7278C21.8216 11.659 21.8988 11.5902 21.976 11.5213C21.9949 11.5044 22.0138 11.4876 22.0333 11.4702C22.1396 11.3753 22.2455 11.2798 22.3509 11.1838C22.3739 11.1629 22.3969 11.142 22.4206 11.1205C22.4652 11.0799 22.5097 11.0392 22.5542 10.9985C22.7111 10.8529 22.7111 10.8529 22.9092 10.8045C23.0392 10.8046 23.0392 10.8046 23.125 10.8804C23.1932 10.9828 23.2195 11.0324 23.2195 11.1582C23.1035 11.4283 22.9073 11.6167 22.7097 11.8225C22.6722 11.8621 22.6346 11.9016 22.5971 11.9412C22.4957 12.0482 22.3939 12.1548 22.2921 12.2613C22.1855 12.373 22.0792 12.485 21.9729 12.597C21.7717 12.8088 21.5702 13.0203 21.3687 13.2318C21.0073 13.6109 20.6463 13.9905 20.2854 14.3702C20.1587 14.5035 20.0319 14.6367 19.905 14.7697C19.8263 14.8523 19.7477 14.9349 19.6691 15.0175C19.6325 15.0559 19.5959 15.0943 19.5593 15.1326C19.5094 15.1848 19.4597 15.2371 19.41 15.2894C19.3821 15.3187 19.3542 15.348 19.3254 15.3781C19.2309 15.4844 19.2214 15.5458 19.2218 15.6876C19.2218 15.721 19.2218 15.7545 19.2218 15.7889C19.222 15.8251 19.2222 15.8613 19.2223 15.8985C19.2224 15.954 19.2224 15.954 19.2225 16.0106C19.2227 16.129 19.2232 16.2474 19.2236 16.3658C19.2238 16.446 19.224 16.5261 19.2241 16.6063C19.2245 16.803 19.2251 16.9998 19.2259 17.1966C19.4158 17.1966 19.6058 17.1966 19.8015 17.1966C19.7883 17.1146 19.775 17.0327 19.7613 16.9482C19.7071 16.4829 19.6902 16.0176 19.9693 15.6279C20.2914 15.2239 20.6713 14.8733 21.0512 14.5315C21.1728 14.4199 21.2765 14.3021 21.3805 14.1726C21.5422 13.9809 21.7188 13.8037 21.8919 13.6235C21.9654 13.547 22.0387 13.4702 22.112 13.3935C22.3201 13.1754 22.5283 12.9574 22.7371 12.74C22.8653 12.6066 22.9932 12.4727 23.1208 12.3386C23.1693 12.2878 23.2179 12.2372 23.2666 12.1867C23.3348 12.116 23.4025 12.0449 23.4701 11.9736C23.5 11.943 23.5 11.943 23.5305 11.9117C23.7277 11.7019 23.8489 11.4661 23.8682 11.1691C23.8638 10.8281 23.7402 10.5685 23.5141 10.3298C23.2505 10.1388 22.9989 10.0889 22.6798 10.1328C22.3627 10.2269 22.1218 10.4904 21.8821 10.7166C21.7752 10.817 21.6665 10.9152 21.5577 11.0134C21.5367 11.0325 21.5156 11.0516 21.4939 11.0712C21.3385 11.2118 21.1804 11.3484 21.0214 11.4844C20.9191 11.5739 20.8189 11.6657 20.719 11.7582C20.078 12.387 20.078 12.387 19.2978 12.7532C19.3104 12.7221 19.323 12.6909 19.3359 12.6589C19.3523 12.6179 19.3686 12.577 19.3855 12.5348C19.4018 12.4943 19.4181 12.4538 19.4348 12.412C19.6117 11.9395 19.5614 11.3275 19.3899 10.8622C19.3051 10.6782 19.2036 10.5193 19.0819 10.3606C19.0545 10.3207 19.027 10.2807 18.9987 10.2396C18.606 9.80575 18.0733 9.57791 17.5101 9.58209ZM18.6142 10.7784C18.8824 11.1631 18.9468 11.5616 18.9021 12.0316C18.8171 12.4493 18.5783 12.7711 18.2544 13.019C17.9366 13.2238 17.5674 13.2793 17.2043 13.2089C16.8658 13.1184 16.5599 12.9378 16.3476 12.6393C16.1114 12.2051 16.0255 11.7953 16.119 11.3006C16.2523 10.8776 16.5349 10.5599 16.9024 10.3485C17.52 10.066 18.1751 10.2579 18.6142 10.7784Z" fill="white"/>
<path d="M17.5108 17.4805C17.4591 17.4809 17.4591 17.4809 17.4065 17.4812C16.9394 17.4935 16.5699 17.6429 16.2043 17.9552C16.1665 17.9842 16.1286 18.0132 16.0896 18.0431C15.7427 18.3929 15.4922 18.9025 15.4691 19.4123C15.4683 19.482 15.4683 19.5518 15.469 19.6215C15.4694 19.6765 15.4694 19.6765 15.4698 19.7326C15.4759 20.0109 15.5121 20.2474 15.6286 20.4997C15.6456 20.5367 15.6625 20.5737 15.6799 20.6117C15.7767 20.8095 15.8818 20.9815 16.0244 21.1453C15.9974 21.1514 15.9704 21.1574 15.9426 21.1636C15.3932 21.2958 14.9709 21.5657 14.6484 22.0617C14.4224 22.4521 14.3224 22.8107 14.3201 23.2641C14.3197 23.3029 14.3194 23.3417 14.3191 23.3816C14.3186 23.4633 14.3182 23.5449 14.3181 23.6266C14.3177 23.7514 14.3159 23.8762 14.3141 24.0011C14.3137 24.0806 14.3135 24.1601 14.3133 24.2396C14.3123 24.2955 14.3123 24.2955 14.3112 24.3524C14.3123 24.5296 14.3131 24.6116 14.4186 24.7553C15.1139 25.298 16.1393 25.4028 16.9794 25.4065C17.038 25.4069 17.038 25.4069 17.0977 25.4072C17.1802 25.4075 17.2626 25.4078 17.3451 25.4079C17.4683 25.4083 17.5915 25.4095 17.7148 25.4107C18.6689 25.4155 19.7298 25.3469 20.5577 24.7912C20.6515 24.6822 20.6792 24.612 20.6802 24.4654C20.6806 24.4312 20.6811 24.3969 20.6816 24.3616C20.6815 24.3248 20.6814 24.2879 20.6812 24.25C20.6814 24.2117 20.6816 24.1734 20.6818 24.1339C20.6821 24.0527 20.682 23.9714 20.6817 23.8902C20.6814 23.7673 20.6824 23.6444 20.6836 23.5215C20.6861 22.7596 20.6861 22.7596 20.5217 22.3986C20.504 22.3568 20.4863 22.3151 20.468 22.2721C20.1344 21.6403 19.6437 21.3469 19.0106 21.1074C19.0354 21.0715 19.0354 21.0715 19.0607 21.035C19.3586 20.5963 19.536 20.1865 19.5323 19.6381C19.5321 19.6018 19.5319 19.5654 19.5317 19.528C19.5201 19.035 19.3785 18.6449 19.0826 18.2591C19.0551 18.2191 19.0277 18.1792 18.9994 18.138C18.6067 17.7042 18.0739 17.4764 17.5108 17.4805ZM18.6149 18.6768C18.883 19.0615 18.9474 19.46 18.9027 19.9301C18.8178 20.3478 18.579 20.6696 18.2551 20.9175C17.9373 21.1222 17.568 21.1778 17.205 21.1074C16.8664 21.0168 16.5606 20.8362 16.3482 20.5377C16.1121 20.1035 16.0262 19.6938 16.1197 19.199C16.2529 18.776 16.5356 18.4584 16.9031 18.2469C17.5207 17.9644 18.1757 18.1564 18.6149 18.6768ZM19.7662 22.3226C20.0848 22.7821 20.0958 23.2544 20.0922 23.8038C20.0921 23.8513 20.0919 23.8988 20.0917 23.9478C20.0913 24.0644 20.0907 24.1809 20.09 24.2975C18.7798 25.0201 16.8487 24.9467 15.451 24.5467C15.4253 24.5394 15.3995 24.532 15.373 24.5245C15.2021 24.4717 15.0608 24.3959 14.9091 24.2975C14.9069 24.1361 14.9057 23.9747 14.9046 23.8133C14.9037 23.7456 14.9037 23.7456 14.9027 23.6766C14.8997 23.088 14.9768 22.6126 15.3681 22.1724C15.8011 21.7559 16.3099 21.7469 16.8648 21.7466C16.915 21.7465 16.9652 21.7464 17.0154 21.7462C17.1203 21.746 17.2251 21.7459 17.33 21.7459C17.4632 21.746 17.5964 21.7454 17.7296 21.7448C17.8332 21.7444 17.9368 21.7443 18.0404 21.7443C18.113 21.7442 18.1856 21.7438 18.2582 21.7434C18.8569 21.745 19.3482 21.8384 19.7662 22.3226Z" fill="white"/>
<path d="M12.0425 16.5684C11.9908 16.5687 11.9908 16.5687 11.9382 16.5691C11.4711 16.5814 11.1016 16.7308 10.736 17.0431C10.6981 17.0721 10.6603 17.1011 10.6213 17.131C10.2744 17.4808 10.0239 17.9903 10.0008 18.5002C9.99998 18.5699 9.99995 18.6397 10.0007 18.7094C10.0011 18.7644 10.0011 18.7644 10.0015 18.8205C10.0076 19.0988 10.0438 19.3353 10.1603 19.5876C10.1773 19.6246 10.1942 19.6615 10.2116 19.6996C10.3084 19.8974 10.4135 20.0694 10.5561 20.2332C10.5304 20.2384 10.5046 20.2435 10.4781 20.2488C9.92223 20.3756 9.50759 20.6602 9.18385 21.1469C8.95199 21.5341 8.85411 21.899 8.85175 22.352C8.85143 22.3908 8.8511 22.4295 8.85077 22.4695C8.85025 22.5512 8.84993 22.6328 8.8498 22.7145C8.84937 22.8393 8.84759 22.9641 8.84578 23.089C8.84544 23.1685 8.84518 23.248 8.84501 23.3275C8.84395 23.3834 8.84395 23.3834 8.84288 23.4403C8.84399 23.6175 8.84479 23.6995 8.95034 23.8431C9.64557 24.3859 10.671 24.4907 11.5111 24.4944C11.5697 24.4947 11.5697 24.4947 11.6294 24.4951C11.7119 24.4954 11.7943 24.4957 11.8768 24.4958C12 24.4962 12.1232 24.4974 12.2465 24.4986C12.7706 24.5012 13.2766 24.4607 13.7942 24.3728C13.8371 24.2203 13.8151 24.1192 13.7784 23.9645C13.7629 23.8978 13.7629 23.8978 13.7471 23.8298C13.7389 23.7959 13.7307 23.7621 13.7222 23.7272C13.6578 23.7327 13.5933 23.7382 13.5288 23.7438C13.475 23.7484 13.475 23.7484 13.4201 23.7531C13.3504 23.7596 13.2808 23.7662 13.2113 23.7741C12.0539 23.9052 10.5393 23.9882 9.47674 23.3854C9.47462 23.224 9.47336 23.0626 9.47224 22.9012C9.47134 22.8335 9.47134 22.8335 9.47042 22.7645C9.4675 22.2017 9.53347 21.715 9.90778 21.2898C10.3412 20.8774 10.8536 20.8728 11.4057 20.8725C11.4567 20.8724 11.5078 20.8722 11.5589 20.8721C11.6656 20.8719 11.7723 20.8718 11.879 20.8718C12.0148 20.8718 12.1505 20.8713 12.2862 20.8706C12.3916 20.8702 12.497 20.8701 12.6024 20.8702C12.6524 20.8701 12.7024 20.87 12.7524 20.8697C13.2842 20.8668 13.797 20.9118 14.1967 21.3251C14.2548 21.3914 14.2956 21.4436 14.3339 21.5245C14.488 21.5037 14.5804 21.4476 14.7049 21.3512C14.7367 21.3269 14.7684 21.3025 14.8012 21.2775C14.825 21.2587 14.8489 21.24 14.8735 21.2207C14.7416 20.8469 14.4444 20.6068 14.118 20.4231C13.943 20.3437 13.7617 20.2865 13.5783 20.2332C13.5783 20.0995 13.5994 20.0795 13.6772 19.9793C13.9503 19.607 14.0671 19.1951 14.064 18.726C14.0638 18.6897 14.0636 18.6533 14.0634 18.6159C14.0518 18.1229 13.9102 17.7328 13.6143 17.347C13.5868 17.307 13.5594 17.2671 13.5311 17.2259C13.1384 16.7921 12.6056 16.5642 12.0425 16.5684ZM13.1466 17.7647C13.4147 18.1494 13.4791 18.5479 13.4344 19.018C13.3495 19.4357 13.1107 19.7575 12.7868 20.0054C12.4689 20.2101 12.0997 20.2657 11.7366 20.1953C11.3981 20.1047 11.0923 19.9241 10.8799 19.6256C10.6438 19.1914 10.5579 18.7816 10.6514 18.2869C10.7846 17.8639 11.0673 17.5463 11.4348 17.3348C12.0523 17.0523 12.7074 17.2443 13.1466 17.7647Z" fill="white"/>
<path d="M22.9795 16.5684C22.9279 16.5687 22.9279 16.5687 22.8752 16.5691C22.4081 16.5814 22.0386 16.7308 21.673 17.0431C21.6352 17.0721 21.5974 17.1011 21.5584 17.131C21.2115 17.4808 20.9609 17.9903 20.9379 18.5002C20.937 18.5699 20.937 18.6397 20.9377 18.7094C20.9381 18.7644 20.9381 18.7644 20.9386 18.8205C20.9446 19.0988 20.9809 19.3353 21.0974 19.5876C21.1143 19.6246 21.1312 19.6615 21.1487 19.6996C21.2455 19.8974 21.3505 20.0694 21.4932 20.2332C21.4662 20.2393 21.4392 20.2453 21.4114 20.2515C20.9265 20.3682 20.498 20.5995 20.1889 21.026C20.1682 21.0652 20.1474 21.1043 20.126 21.1447C20.1727 21.2928 20.2315 21.3168 20.3553 21.3987C20.4081 21.4341 20.4081 21.4341 20.4619 21.4703C20.5577 21.5245 20.5577 21.5245 20.6656 21.5245C20.7186 21.466 20.7186 21.466 20.7758 21.3868C21.011 21.0902 21.3275 20.9324 21.6882 20.8868C21.8935 20.8692 22.0997 20.8726 22.3055 20.8725C22.3565 20.8724 22.4075 20.8722 22.4584 20.8721C22.565 20.8719 22.6716 20.8718 22.7781 20.8718C22.9135 20.8718 23.0489 20.8713 23.1843 20.8706C23.2896 20.8702 23.3948 20.8701 23.5001 20.8702C23.5499 20.8701 23.5998 20.87 23.6496 20.8697C24.2115 20.8666 24.7061 20.9147 25.1335 21.3338C25.5193 21.7857 25.5288 22.3153 25.525 22.8917C25.5248 22.9392 25.5247 22.9867 25.5245 23.0357C25.5241 23.1523 25.5235 23.2688 25.5228 23.3854C24.3249 23.9355 22.8883 23.9396 21.6111 23.7424C21.4984 23.7278 21.3907 23.7244 21.2773 23.7272C21.2581 23.8062 21.2395 23.8853 21.2211 23.9645C21.2106 24.0086 21.2002 24.0526 21.1894 24.098C21.1704 24.2145 21.1746 24.2638 21.2053 24.3728C21.755 24.4648 22.2927 24.5049 22.8491 24.5016C22.9682 24.501 23.0873 24.5016 23.2064 24.5023C24.1523 24.5033 25.2064 24.4295 26.0265 23.8791C26.1203 23.77 26.148 23.6998 26.1489 23.5533C26.1494 23.519 26.1498 23.4848 26.1503 23.4495C26.1502 23.4127 26.1501 23.3758 26.15 23.3379C26.1502 23.2996 26.1504 23.2612 26.1506 23.2218C26.1508 23.1406 26.1508 23.0593 26.1504 22.9781C26.1501 22.8552 26.1512 22.7323 26.1523 22.6093C26.1548 21.8475 26.1548 21.8475 25.9905 21.4865C25.9728 21.4447 25.9551 21.403 25.9368 21.36C25.6031 20.7282 25.1125 20.4348 24.4794 20.1953C24.5041 20.1594 24.5041 20.1594 24.5294 20.1229C24.8274 19.6842 25.0047 19.2744 25.0011 18.726C25.0009 18.6897 25.0007 18.6533 25.0004 18.6159C24.9888 18.1229 24.8472 17.7328 24.5513 17.347C24.5239 17.307 24.4964 17.2671 24.4681 17.2259C24.0754 16.7921 23.5427 16.5642 22.9795 16.5684ZM24.0836 17.7647C24.3518 18.1494 24.4162 18.5479 24.3714 19.018C24.2865 19.4357 24.0477 19.7575 23.7238 20.0054C23.406 20.2101 23.0368 20.2657 22.6737 20.1953C22.3352 20.1047 22.0293 19.9241 21.817 19.6256C21.5808 19.1914 21.4949 18.7816 21.5884 18.2869C21.7216 17.8639 22.0043 17.5463 22.3718 17.3348C22.9894 17.0523 23.6445 17.2443 24.0836 17.7647Z" fill="white"/>
</g>
<defs>
<clipPath id="clip0_1510_57018">
<rect width="18.4211" height="19.4444" fill="white" transform="matrix(-1 0 0 1 26.7105 7.77734)"/>
</clipPath>
</defs>
</svg>
