<svg width="35" height="35" viewBox="0 0 35 35" fill="none" xmlns="http://www.w3.org/2000/svg">
<rect width="35" height="35" rx="3" fill="#FFAA16"/>
<g clip-path="url(#clip0_3419_74737)">
<path d="M9.79056 8.33623C9.85977 8.33608 9.92898 8.33589 9.99819 8.33567C10.1878 8.33517 10.3774 8.33518 10.567 8.33528C10.7718 8.3353 10.9765 8.33485 11.1812 8.33446C11.5822 8.33378 11.9831 8.33356 12.384 8.33351C12.71 8.33347 13.036 8.33331 13.362 8.33305C14.2868 8.33233 15.2116 8.33195 16.1364 8.33201C16.2112 8.33202 16.2112 8.33202 16.2874 8.33202C16.3373 8.33203 16.3872 8.33203 16.4386 8.33203C17.247 8.33207 18.0554 8.33129 18.8637 8.33014C19.6943 8.32896 20.5249 8.3284 21.3554 8.32847C21.8215 8.3285 22.2876 8.32828 22.7537 8.3274C23.1506 8.32665 23.5475 8.32648 23.9443 8.32703C24.1467 8.3273 24.349 8.3273 24.5513 8.32659C24.7369 8.32595 24.9225 8.32607 25.108 8.32678C25.1748 8.3269 25.2416 8.32676 25.3084 8.3263C26.0484 8.32157 26.7113 8.47829 27.2713 8.99986C27.8054 9.57079 27.9722 10.1578 27.9705 10.9202C27.9706 10.983 27.9708 11.0459 27.971 11.1087C27.9715 11.2809 27.9715 11.4531 27.9714 11.6253C27.9714 11.8112 27.9718 11.9971 27.9722 12.183C27.9729 12.547 27.9731 12.9111 27.9732 13.2752C27.9732 13.5712 27.9734 13.8672 27.9736 14.1632C27.9744 15.0029 27.9747 15.8425 27.9747 16.6822C27.9747 16.7501 27.9747 16.7501 27.9747 16.8193C27.9747 16.8646 27.9747 16.9099 27.9746 16.9566C27.9746 17.6907 27.9754 18.4247 27.9765 19.1587C27.9777 19.9129 27.9783 20.667 27.9782 21.4211C27.9782 21.8444 27.9784 22.2676 27.9793 22.6908C27.98 23.0512 27.9802 23.4115 27.9797 23.7719C27.9794 23.9556 27.9794 24.1394 27.9801 24.3231C27.9807 24.4916 27.9806 24.66 27.9799 24.8285C27.9798 24.8892 27.9799 24.9499 27.9804 25.0105C27.9857 25.7603 27.7513 26.3703 27.2252 26.9087C26.6312 27.4171 26.004 27.5331 25.2417 27.5315C25.1725 27.5316 25.1033 27.5318 25.0341 27.5321C24.8445 27.5326 24.6548 27.5325 24.4652 27.5324C24.2605 27.5324 24.0558 27.5329 23.851 27.5333C23.4501 27.5339 23.0492 27.5342 22.6483 27.5342C22.3223 27.5343 21.9963 27.5344 21.6703 27.5347C20.7455 27.5354 19.8207 27.5358 18.8959 27.5357C18.8211 27.5357 18.8211 27.5357 18.7449 27.5357C18.695 27.5357 18.6451 27.5357 18.5937 27.5357C17.7853 27.5357 16.9769 27.5364 16.1685 27.5376C15.338 27.5388 14.5074 27.5393 13.6768 27.5393C13.2107 27.5392 12.7447 27.5395 12.2786 27.5403C11.8817 27.5411 11.4848 27.5413 11.0879 27.5407C10.8856 27.5404 10.6833 27.5404 10.4809 27.5411C10.2954 27.5418 10.1098 27.5417 9.92424 27.5409C9.85745 27.5408 9.79066 27.541 9.72387 27.5414C8.98385 27.5462 8.32096 27.3894 7.76098 26.8679C7.22684 26.2969 7.06006 25.71 7.06182 24.9475C7.06167 24.8847 7.06148 24.8219 7.06126 24.759C7.06076 24.5868 7.06077 24.4147 7.06087 24.2425C7.06088 24.0566 7.06043 23.8706 7.06005 23.6847C7.05937 23.3207 7.05914 22.9566 7.0591 22.5926C7.05906 22.2966 7.05889 22.0006 7.05863 21.7046C7.05791 20.8649 7.05754 20.0252 7.0576 19.1855C7.0576 19.1403 7.05761 19.095 7.05761 19.0484C7.05761 19.0031 7.05762 18.9578 7.05762 18.9111C7.05765 18.1771 7.05687 17.443 7.05572 16.709C7.05455 15.9549 7.05399 15.2007 7.05406 14.4466C7.05408 14.0234 7.05386 13.6002 7.05298 13.1769C7.05224 12.8166 7.05206 12.4562 7.05262 12.0958C7.05288 11.9121 7.05289 11.7284 7.05218 11.5446C7.05153 11.3762 7.05166 11.2077 7.05236 11.0392C7.05249 10.9785 7.05234 10.9179 7.05189 10.8572C7.04709 10.1749 7.23465 9.55433 7.70935 9.04878C8.32573 8.48267 8.9725 8.33452 9.79056 8.33623ZM8.53368 10.2109C8.3269 10.5889 8.37815 10.975 8.37815 11.4067C14.4092 11.4067 20.4403 11.4067 26.6541 11.4067C26.6841 10.6244 26.6841 10.6244 26.3278 9.97892C26.0665 9.7855 25.8509 9.68839 25.5248 9.68777C25.4969 9.68767 25.4689 9.68756 25.44 9.68745C25.3456 9.68713 25.2511 9.68711 25.1567 9.68708C25.0885 9.68692 25.0204 9.68674 24.9523 9.68654C24.7645 9.68605 24.5767 9.68582 24.389 9.68564C24.1866 9.6854 23.9843 9.68492 23.782 9.68448C23.2931 9.68348 22.8042 9.68289 22.3154 9.68236C22.1773 9.68221 22.0393 9.68205 21.9012 9.68188C21.0441 9.68085 20.1871 9.67995 19.33 9.67944C19.1315 9.67932 18.9329 9.6792 18.7343 9.67908C18.6849 9.67905 18.6356 9.67902 18.5847 9.67899C17.7852 9.67847 16.9856 9.67712 16.1861 9.67542C15.3654 9.67369 14.5448 9.67273 13.7241 9.67251C13.2633 9.67237 12.8024 9.67189 12.3416 9.67055C11.9491 9.66941 11.5566 9.66896 11.1641 9.66942C10.9638 9.66963 10.7636 9.66951 10.5634 9.6685C10.3799 9.66758 10.1965 9.66761 10.0131 9.66839C9.94684 9.6685 9.88059 9.66827 9.81434 9.66766C9.25076 9.66277 8.89685 9.76477 8.53368 10.2109ZM8.37815 12.7122C8.37647 14.75 8.37479 16.7878 8.37305 18.8874C8.37231 19.5312 8.37157 20.1749 8.3708 20.8381C8.37053 21.4146 8.37053 21.4146 8.37037 21.991C8.37029 22.248 8.36999 22.505 8.36954 22.762C8.36902 23.0585 8.36878 23.3549 8.3689 23.6514C8.36895 23.803 8.36887 23.9546 8.36843 24.1062C8.36796 24.2688 8.36812 24.4313 8.36834 24.5938C8.3681 24.6409 8.36787 24.6879 8.36762 24.7364C8.36921 25.1664 8.39894 25.5627 8.70451 25.8888C8.9658 26.0822 9.18133 26.1793 9.50742 26.18C9.53541 26.1801 9.56339 26.1802 9.59222 26.1803C9.68668 26.1806 9.78113 26.1806 9.87559 26.1806C9.94372 26.1808 10.0119 26.181 10.08 26.1812C10.2678 26.1817 10.4555 26.1819 10.6433 26.1821C10.8456 26.1823 11.0479 26.1828 11.2503 26.1832C11.7391 26.1842 12.228 26.1848 12.7169 26.1854C12.855 26.1855 12.993 26.1857 13.1311 26.1858C13.9881 26.1869 14.8452 26.1878 15.7022 26.1883C15.9008 26.1884 16.0994 26.1885 16.298 26.1886C16.3473 26.1887 16.3967 26.1887 16.4475 26.1887C17.2471 26.1893 18.0466 26.1906 18.8462 26.1923C19.6668 26.194 20.4875 26.195 21.3081 26.1952C21.769 26.1954 22.2299 26.1958 22.6907 26.1972C23.0832 26.1983 23.4757 26.1988 23.8682 26.1983C24.0684 26.1981 24.2687 26.1982 24.4689 26.1992C24.6523 26.2001 24.8358 26.2001 25.0192 26.1993C25.0854 26.1992 25.1517 26.1995 25.2179 26.2001C25.6547 26.2039 25.9812 26.1604 26.3227 25.871C26.6522 25.4735 26.6665 25.0962 26.6639 24.5938C26.664 24.543 26.6641 24.4921 26.6641 24.4397C26.6642 24.2993 26.664 24.1589 26.6636 24.0184C26.6632 23.8644 26.6633 23.7104 26.6634 23.5563C26.6634 23.2577 26.6631 22.9591 26.6626 22.6604C26.662 22.3148 26.6619 21.9691 26.6618 21.6235C26.6614 20.7115 26.6603 19.7995 26.6592 18.8874C26.6575 16.8496 26.6558 14.8118 26.6541 12.7122C20.623 12.7122 14.592 12.7122 8.37815 12.7122Z" fill="white"/>
<path d="M10.4184 15.3025C10.4506 15.3023 10.4828 15.302 10.516 15.3017C10.6235 15.3011 10.7309 15.3016 10.8384 15.3021C10.9156 15.3019 10.9928 15.3016 11.07 15.3013C11.2795 15.3005 11.4889 15.3008 11.6984 15.3013C11.9176 15.3017 12.1369 15.3013 12.3561 15.3011C12.7243 15.3008 13.0925 15.3012 13.4606 15.302C13.8862 15.3028 14.3118 15.3026 14.7374 15.3017C15.1029 15.3009 15.4684 15.3008 15.8338 15.3012C16.0521 15.3015 16.2703 15.3015 16.4886 15.301C16.6938 15.3005 16.899 15.3009 17.1042 15.3018C17.1794 15.302 17.2547 15.3019 17.33 15.3016C17.4328 15.3011 17.5356 15.3017 17.6384 15.3025C17.6682 15.3022 17.6979 15.3018 17.7286 15.3014C17.9348 15.3046 18.0504 15.358 18.2099 15.4864C18.41 15.7082 18.4207 15.8837 18.4221 16.1731C18.4224 16.2085 18.4226 16.244 18.4228 16.2805C18.4232 16.3556 18.4235 16.4307 18.4236 16.5057C18.424 16.6202 18.4253 16.7345 18.4266 16.849C18.4269 16.922 18.4271 16.995 18.4272 17.068C18.4277 17.102 18.4282 17.1361 18.4288 17.1712C18.4279 17.4026 18.3932 17.5804 18.2288 17.7564C17.976 17.9498 17.7927 17.9698 17.4756 17.9341C17.2402 17.839 17.1832 17.7164 17.0676 17.4853C17.0676 17.2026 17.0676 16.9199 17.0676 16.6287C16.2868 16.6287 15.506 16.6287 14.7015 16.6287C14.7015 18.6345 14.7015 20.6404 14.7015 22.7071C14.9035 22.7071 15.1054 22.7071 15.3135 22.7071C15.5569 22.8288 15.6501 22.8979 15.7724 23.1303C15.8419 23.3734 15.8104 23.5585 15.6919 23.776C15.585 23.9264 15.4436 23.9963 15.2727 24.0533C15.1933 24.0575 15.1137 24.0593 15.0342 24.0598C14.9852 24.0602 14.9362 24.0606 14.8857 24.061C14.8061 24.0613 14.8061 24.0613 14.725 24.0616C14.6699 24.0618 14.6149 24.062 14.5599 24.0623C14.4445 24.0627 14.3291 24.0629 14.2137 24.0631C14.0662 24.0633 13.9188 24.0643 13.7713 24.0654C13.6576 24.0662 13.5439 24.0664 13.4302 24.0665C13.3495 24.0667 13.2689 24.0674 13.1882 24.0682C13.1388 24.0681 13.0894 24.0679 13.0385 24.0678C12.9735 24.068 12.9735 24.068 12.9073 24.0683C12.7363 24.0474 12.5987 23.9862 12.4723 23.8683C12.279 23.6154 12.259 23.4321 12.2947 23.115C12.3898 22.8796 12.5123 22.8226 12.7434 22.7071C12.9453 22.7071 13.1473 22.7071 13.3553 22.7071C13.3553 20.7012 13.3553 18.6953 13.3553 16.6287C12.5745 16.6287 11.7937 16.6287 10.9892 16.6287C10.9892 16.9248 10.9892 17.221 10.9892 17.5261C10.7782 17.8427 10.7782 17.8427 10.5813 17.9341C10.3528 17.9648 10.1597 17.9656 9.94897 17.8678C9.7805 17.7078 9.67649 17.5732 9.66269 17.3375C9.66162 17.2644 9.66149 17.1913 9.66213 17.1182C9.66198 17.0793 9.66182 17.0404 9.66166 17.0003C9.66155 16.9183 9.66185 16.8362 9.66253 16.7542C9.66341 16.6291 9.66254 16.504 9.6615 16.3788C9.6616 16.2989 9.66181 16.219 9.66213 16.1391C9.6618 16.1019 9.66147 16.0647 9.66113 16.0263C9.66445 15.7997 9.69025 15.6621 9.84698 15.4864C10.0357 15.3343 10.182 15.2996 10.4184 15.3025Z" fill="white"/>
<path d="M20.9956 18.7694C21.0581 18.7689 21.0581 18.7689 21.1219 18.7683C21.2594 18.7674 21.3969 18.7673 21.5344 18.7674C21.6302 18.7671 21.726 18.7668 21.8218 18.7664C22.0226 18.7659 22.2233 18.7658 22.4241 18.7661C22.681 18.7663 22.9378 18.7651 23.1947 18.7634C23.3926 18.7624 23.5904 18.7622 23.7883 18.7624C23.883 18.7623 23.9777 18.7619 24.0724 18.7612C24.205 18.7603 24.3375 18.7607 24.4701 18.7614C24.5284 18.7606 24.5284 18.7606 24.5879 18.7598C24.8494 18.763 25.0243 18.8218 25.2266 18.9905C25.3747 19.1738 25.3695 19.3387 25.3633 19.5665C25.3374 19.7785 25.2352 19.883 25.0838 20.0231C24.9377 20.1217 24.815 20.1378 24.6412 20.1385C24.6059 20.1387 24.5707 20.1389 24.5344 20.1392C24.4769 20.1392 24.4769 20.1392 24.4183 20.1393C24.3777 20.1395 24.3371 20.1397 24.2952 20.1399C24.1609 20.1405 24.0265 20.1408 23.8922 20.141C23.7988 20.1412 23.7054 20.1415 23.612 20.1417C23.4162 20.1421 23.2204 20.1424 23.0246 20.1425C22.7737 20.1427 22.5229 20.1437 22.272 20.1449C22.0791 20.1456 21.8862 20.1459 21.6933 20.1459C21.6008 20.146 21.5083 20.1464 21.4159 20.1469C21.2865 20.1476 21.1571 20.1475 21.0277 20.1473C20.9896 20.1476 20.9514 20.148 20.9121 20.1484C20.672 20.1469 20.4882 20.1187 20.305 19.9477C20.1116 19.6948 20.0916 19.5115 20.1273 19.1944C20.194 19.0293 20.2825 18.9398 20.4317 18.8452C20.6238 18.7671 20.7902 18.7687 20.9956 18.7694Z" fill="white"/>
<path d="M20.7912 22.2521C20.8267 22.2519 20.8622 22.2517 20.8988 22.2514C20.9377 22.2514 20.9765 22.2513 21.0166 22.2513C21.0781 22.251 21.0781 22.251 21.1408 22.2507C21.2767 22.2501 21.4126 22.2498 21.5485 22.2496C21.6429 22.2493 21.7372 22.2491 21.8316 22.2489C22.0296 22.2484 22.2275 22.2482 22.4255 22.2481C22.6792 22.2478 22.9328 22.2469 23.1864 22.2457C23.3814 22.2449 23.5764 22.2447 23.7713 22.2447C23.8648 22.2445 23.9584 22.2442 24.0519 22.2437C24.1827 22.243 24.3136 22.2431 24.4444 22.2433C24.483 22.243 24.5216 22.2426 24.5614 22.2422C24.8027 22.2437 24.9874 22.2709 25.1716 22.4429C25.3662 22.6974 25.3784 22.8779 25.3492 23.1961C25.2554 23.4064 25.1124 23.52 24.9005 23.6041C24.7589 23.627 24.6196 23.6268 24.4763 23.6258C24.4138 23.6264 24.4138 23.6264 24.35 23.6269C24.2127 23.6278 24.0755 23.6276 23.9382 23.6272C23.8424 23.6274 23.7467 23.6277 23.6509 23.628C23.4504 23.6284 23.2499 23.6282 23.0494 23.6276C22.7928 23.6269 22.5363 23.6279 22.2797 23.6293C22.082 23.6302 21.8843 23.6301 21.6866 23.6298C21.592 23.6298 21.4975 23.63 21.4029 23.6306C21.2705 23.6314 21.1382 23.6308 21.0058 23.6298C20.9475 23.6305 20.9475 23.6305 20.8881 23.6313C20.627 23.6276 20.452 23.5685 20.2499 23.4001C20.1018 23.2168 20.1071 23.0519 20.1132 22.8241C20.1392 22.6112 20.2414 22.5064 20.3953 22.3675C20.5297 22.2744 20.6317 22.2528 20.7912 22.2521Z" fill="white"/>
<path d="M20.9636 15.302C21.0062 15.3018 21.0488 15.3015 21.0928 15.3012C21.2333 15.3005 21.3738 15.3009 21.5143 15.3015C21.6122 15.3014 21.71 15.3012 21.8079 15.301C22.0128 15.3008 22.2177 15.3011 22.4227 15.3019C22.6852 15.3028 22.9478 15.3023 23.2103 15.3013C23.4123 15.3007 23.6143 15.3009 23.8163 15.3013C23.9131 15.3014 24.0099 15.3013 24.1068 15.3009C24.2421 15.3005 24.3774 15.3011 24.5127 15.302C24.5726 15.3015 24.5726 15.3015 24.6338 15.301C24.866 15.3039 25.0023 15.3299 25.1859 15.4863C25.3339 15.6421 25.3617 15.7671 25.3694 15.9759C25.3617 16.1846 25.3339 16.3096 25.1859 16.4654C24.9669 16.652 24.7872 16.652 24.5127 16.6497C24.4701 16.65 24.4275 16.6503 24.3836 16.6506C24.2431 16.6513 24.1026 16.6508 23.962 16.6502C23.8642 16.6504 23.7663 16.6505 23.6685 16.6507C23.4636 16.651 23.2586 16.6506 23.0537 16.6499C22.7911 16.6489 22.5286 16.6495 22.266 16.6504C22.064 16.651 21.862 16.6508 21.66 16.6504C21.5632 16.6503 21.4664 16.6504 21.3696 16.6508C21.2343 16.6512 21.099 16.6506 20.9636 16.6497C20.9037 16.6502 20.9037 16.6502 20.8426 16.6507C20.6103 16.6478 20.4741 16.6219 20.2905 16.4654C20.1425 16.3096 20.1147 16.1846 20.1069 15.9759C20.1147 15.7671 20.1425 15.6421 20.2905 15.4863C20.5095 15.2997 20.6891 15.2998 20.9636 15.302Z" fill="white"/>
</g>
<defs>
<clipPath id="clip0_3419_74737">
<rect width="20.8868" height="20.8184" fill="white" transform="translate(7.07324 8.10742)"/>
</clipPath>
</defs>
</svg>
