<svg width="33" height="30" viewBox="0 0 33 30" fill="none" xmlns="http://www.w3.org/2000/svg">
<rect width="33" height="30" rx="5" fill="#9D50DD"/>
<path d="M11.7376 5.03527C11.3729 5.16579 11.1234 5.49977 11.0811 5.90669L11.0543 6.14086H10.4746C9.63005 6.14086 9.25 6.25219 8.77782 6.63224C8.36322 6.97006 8.09834 7.46143 8.02924 8.03726C8.00621 8.23304 7.99469 11.1084 8.00237 15.6612L8.01389 22.9743L8.10218 23.2008C8.34787 23.8534 8.82005 24.3179 9.44578 24.5367L9.70299 24.625H15.4805H21.258L21.5075 24.5367C22.1716 24.2949 22.6476 23.8035 22.8626 23.1278L22.9471 22.8591V15.3541V7.84916L22.8588 7.59195C22.64 6.96238 22.1639 6.48252 21.5229 6.25219C21.3309 6.17925 21.1889 6.16389 20.5977 6.14854L19.8952 6.13318V5.93356C19.8913 5.58807 19.6917 5.26176 19.3769 5.09285L19.2234 5.0084L15.5381 5.00072C12.9852 4.99688 11.8182 5.0084 11.7376 5.03527ZM18.7435 6.71669V7.29252H15.4805H12.2174V6.71669V6.14086H15.4805H18.7435V6.71669ZM11.0773 7.52285C11.1195 7.89906 11.3191 8.19849 11.6378 8.35589C11.7683 8.42115 12.0025 8.42499 15.4152 8.4365C17.8529 8.44034 19.1082 8.43266 19.2042 8.40579C19.5842 8.30214 19.8952 7.89522 19.8952 7.49214V7.28484L20.5209 7.3002C21.1236 7.31172 21.1505 7.31556 21.3271 7.4192C21.5344 7.54205 21.7186 7.77238 21.7762 7.98736C21.8031 8.07949 21.8108 10.6055 21.8069 15.4386C21.7954 22.3793 21.7916 22.7516 21.7263 22.8975C21.6303 23.1086 21.4461 23.2929 21.2196 23.4004L21.0276 23.4925L15.4805 23.4887C10.9468 23.4887 9.90645 23.481 9.78744 23.4388C9.5763 23.362 9.39204 23.2046 9.27303 23.0012L9.16554 22.8207V15.4501C9.16554 9.30409 9.17322 8.05646 9.21929 7.92977C9.29223 7.72248 9.51488 7.4883 9.74137 7.38465C9.91412 7.3002 9.98706 7.29252 10.4938 7.29252H11.0543L11.0773 7.52285Z" fill="white"/>
<path d="M13.3501 10.4334C13.2887 10.4756 12.9432 10.8058 12.5823 11.1666C12.2253 11.5275 11.9105 11.8231 11.8913 11.8231C11.8683 11.8231 11.7723 11.7425 11.6802 11.6465C11.3999 11.3547 11.208 11.3048 10.9239 11.443C10.6475 11.5774 10.5362 11.8922 10.659 12.1801C10.6859 12.2492 10.9162 12.5026 11.1658 12.7521C11.5381 13.1168 11.6495 13.2012 11.7685 13.2243C12.0717 13.2818 12.1293 13.2358 13.185 12.1801C14.0372 11.324 14.1716 11.1705 14.1946 11.0438C14.233 10.848 14.1294 10.5831 13.9758 10.4718C13.8069 10.3528 13.5036 10.3374 13.3501 10.4334Z" fill="white"/>
<path d="M15.3932 11.5998C15.2435 11.6881 15.0977 11.9299 15.0977 12.0912C15.0977 12.2601 15.2435 12.4942 15.4009 12.5825L15.5545 12.667L17.7618 12.6593C19.9231 12.6478 19.9692 12.6478 20.0728 12.5672C20.2648 12.4251 20.3339 12.2985 20.3339 12.0912C20.3339 11.8839 20.2648 11.7572 20.0728 11.6151C19.9692 11.5345 19.9231 11.5345 17.7542 11.5268L15.5391 11.5153L15.3932 11.5998Z" fill="white"/>
<path d="M13.4872 14.5098C13.3873 14.5328 13.1877 14.7094 12.6349 15.2622L11.9132 15.9801L11.6829 15.7651C11.4334 15.5348 11.2836 15.481 11.0495 15.5232C10.6848 15.5923 10.5005 15.9993 10.6771 16.3448C10.7155 16.4215 10.9381 16.6711 11.1685 16.8975C11.6407 17.3544 11.7712 17.4196 12.0437 17.3467C12.1704 17.3121 12.3662 17.1394 13.1455 16.3601C13.6676 15.8419 14.1244 15.3543 14.159 15.2852C14.3547 14.8745 13.9478 14.4061 13.4872 14.5098Z" fill="white"/>
<path d="M15.3932 15.4387C15.2435 15.5269 15.0977 15.7688 15.0977 15.93C15.0977 16.0989 15.2435 16.3331 15.4009 16.4214L15.5545 16.5059L17.7618 16.4982C19.9231 16.4867 19.9692 16.4867 20.0728 16.406C20.2648 16.264 20.3339 16.1373 20.3339 15.93C20.3339 15.7227 20.2648 15.596 20.0728 15.454C19.9692 15.3734 19.9231 15.3734 17.7542 15.3657L15.5391 15.3542L15.3932 15.4387Z" fill="white"/>
<path d="M13.4872 18.3486C13.3873 18.3717 13.1877 18.5483 12.6349 19.1011L11.9132 19.8189L11.6829 19.604C11.4334 19.3736 11.2836 19.3199 11.0495 19.3621C10.6848 19.4312 10.5005 19.8381 10.6771 20.1836C10.7155 20.2604 10.9381 20.5099 11.1685 20.7364C11.6407 21.1932 11.7712 21.2585 12.0437 21.1856C12.1704 21.151 12.3662 20.9783 13.1455 20.199C13.6676 19.6807 14.1244 19.1932 14.159 19.1241C14.3547 18.7133 13.9478 18.245 13.4872 18.3486Z" fill="white"/>
<path d="M15.3932 19.2775C15.2435 19.3658 15.0977 19.6077 15.0977 19.7689C15.0977 19.9378 15.2435 20.172 15.4009 20.2603C15.5506 20.3447 15.5583 20.3447 17.7273 20.3447C20.1342 20.3447 20.0728 20.3486 20.2533 20.099C20.3723 19.934 20.3723 19.6038 20.2533 19.4388C20.0728 19.1854 20.1342 19.1931 17.7196 19.1931C15.5506 19.1931 15.5391 19.1969 15.3932 19.2775Z" fill="white"/>
</svg>
