<svg width="33" height="30" viewBox="0 0 33 30" fill="none" xmlns="http://www.w3.org/2000/svg">
<rect width="33" height="30" rx="5" fill="#0E0EA5"/>
<path d="M12.7376 5.03527C12.3729 5.16579 12.1234 5.49977 12.0811 5.90669L12.0543 6.14086H11.4746C10.63 6.14086 10.25 6.25219 9.77782 6.63224C9.36322 6.97006 9.09834 7.46143 9.02924 8.03726C9.00621 8.23304 8.99469 11.1084 9.00237 15.6612L9.01389 22.9743L9.10218 23.2008C9.34787 23.8534 9.82005 24.3179 10.4458 24.5367L10.703 24.625H16.4805H22.258L22.5075 24.5367C23.1716 24.2949 23.6476 23.8035 23.8626 23.1278L23.9471 22.8591V15.3541V7.84916L23.8588 7.59195C23.64 6.96238 23.1639 6.48252 22.5229 6.25219C22.3309 6.17925 22.1889 6.1639 21.5977 6.14854L20.8952 6.13318V5.93356C20.8913 5.58807 20.6917 5.26176 20.3769 5.09285L20.2234 5.0084L16.5381 5.00072C13.9852 4.99688 12.8182 5.0084 12.7376 5.03527ZM19.7435 6.71669V7.29252H16.4805H13.2174V6.71669V6.14086H16.4805H19.7435V6.71669ZM12.0773 7.52285C12.1195 7.89906 12.3191 8.19849 12.6378 8.35589C12.7683 8.42115 13.0025 8.42499 16.4152 8.4365C18.8529 8.44034 20.1082 8.43267 20.2042 8.40579C20.5842 8.30214 20.8952 7.89522 20.8952 7.49214V7.28484L21.5209 7.3002C22.1236 7.31172 22.1505 7.31556 22.3271 7.4192C22.5344 7.54205 22.7186 7.77238 22.7762 7.98736C22.8031 8.07949 22.8108 10.6055 22.8069 15.4386C22.7954 22.3793 22.7916 22.7516 22.7263 22.8975C22.6303 23.1086 22.4461 23.2929 22.2196 23.4004L22.0276 23.4925L16.4805 23.4887C11.9468 23.4887 10.9064 23.481 10.7874 23.4388C10.5763 23.362 10.392 23.2046 10.273 23.0012L10.1655 22.8207V15.4501C10.1655 9.30409 10.1732 8.05646 10.2193 7.92977C10.2922 7.72247 10.5149 7.4883 10.7414 7.38465C10.9141 7.3002 10.9871 7.29252 11.4938 7.29252H12.0543L12.0773 7.52285Z" fill="white"/>
<path d="M14.3501 10.4334C14.2887 10.4756 13.9432 10.8058 13.5823 11.1666C13.2253 11.5275 12.9105 11.8231 12.8913 11.8231C12.8683 11.8231 12.7723 11.7425 12.6802 11.6465C12.3999 11.3547 12.208 11.3048 11.9239 11.443C11.6475 11.5774 11.5362 11.8922 11.659 12.1801C11.6859 12.2492 11.9162 12.5026 12.1658 12.7521C12.5381 13.1168 12.6495 13.2012 12.7685 13.2243C13.0717 13.2818 13.1293 13.2358 14.185 12.1801C15.0372 11.324 15.1716 11.1705 15.1946 11.0438C15.233 10.848 15.1294 10.5831 14.9758 10.4718C14.8069 10.3528 14.5036 10.3374 14.3501 10.4334Z" fill="white"/>
<path d="M16.3893 11.5998C16.2396 11.6881 16.0938 11.9299 16.0938 12.0912C16.0938 12.2601 16.2396 12.4942 16.397 12.5825L16.5506 12.667L18.7579 12.6593C20.9192 12.6478 20.9653 12.6478 21.0689 12.5672C21.2609 12.4251 21.33 12.2985 21.33 12.0912C21.33 11.8839 21.2609 11.7572 21.0689 11.6151C20.9653 11.5345 20.9192 11.5345 18.7502 11.5268L16.5352 11.5153L16.3893 11.5998Z" fill="white"/>
<path d="M14.4872 14.5098C14.3873 14.5328 14.1877 14.7094 13.6349 15.2622L12.9132 15.9801L12.6829 15.7651C12.4334 15.5348 12.2836 15.481 12.0495 15.5232C11.6848 15.5923 11.5005 15.9993 11.6771 16.3448C11.7155 16.4215 11.9381 16.6711 12.1685 16.8975C12.6407 17.3544 12.7712 17.4196 13.0437 17.3467C13.1704 17.3121 13.3662 17.1394 14.1455 16.3601C14.6676 15.8419 15.1244 15.3543 15.159 15.2852C15.3547 14.8745 14.9478 14.4061 14.4872 14.5098Z" fill="white"/>
<path d="M16.3893 15.4387C16.2396 15.5269 16.0938 15.7688 16.0938 15.93C16.0938 16.0989 16.2396 16.3331 16.397 16.4214L16.5506 16.5059L18.7579 16.4982C20.9192 16.4867 20.9653 16.4867 21.0689 16.406C21.2609 16.264 21.33 16.1373 21.33 15.93C21.33 15.7227 21.2609 15.596 21.0689 15.454C20.9653 15.3734 20.9192 15.3734 18.7502 15.3657L16.5352 15.3542L16.3893 15.4387Z" fill="white"/>
<path d="M14.4872 18.3486C14.3873 18.3717 14.1877 18.5483 13.6349 19.1011L12.9132 19.8189L12.6829 19.604C12.4334 19.3736 12.2836 19.3199 12.0495 19.3621C11.6848 19.4312 11.5005 19.8381 11.6771 20.1836C11.7155 20.2604 11.9381 20.5099 12.1685 20.7364C12.6407 21.1932 12.7712 21.2585 13.0437 21.1856C13.1704 21.151 13.3662 20.9783 14.1455 20.199C14.6676 19.6807 15.1244 19.1932 15.159 19.1241C15.3547 18.7133 14.9478 18.245 14.4872 18.3486Z" fill="white"/>
<path d="M16.3893 19.2775C16.2396 19.3658 16.0938 19.6077 16.0938 19.7689C16.0938 19.9378 16.2396 20.172 16.397 20.2603C16.5467 20.3447 16.5544 20.3447 18.7234 20.3447C21.1303 20.3447 21.0689 20.3486 21.2493 20.099C21.3684 19.934 21.3684 19.6038 21.2493 19.4388C21.0689 19.1854 21.1303 19.1931 18.7157 19.1931C16.5467 19.1931 16.5352 19.1969 16.3893 19.2775Z" fill="white"/>
</svg>
