<svg width="35" height="35" viewBox="0 0 35 35" fill="none" xmlns="http://www.w3.org/2000/svg">
<rect width="35" height="35" rx="3" fill="#333333"/>
<path d="M10.6611 8.3129C10.001 8.48868 9.48535 9.01603 9.30957 9.684C9.21973 10.0199 9.21973 22.1059 9.30957 22.4418C9.44629 22.9692 9.80566 23.4262 10.2744 23.6567C11.0752 24.059 11.7314 23.8754 11.7314 23.2504C11.7314 22.8832 11.5361 22.684 11.126 22.6254C10.8643 22.5902 10.7354 22.516 10.6025 22.3363C10.5205 22.2309 10.5205 22.2113 10.5088 17.059L10.501 11.8871L10.626 11.934C10.7236 11.9692 12.5713 11.9848 17.9307 12.0004C25.0986 12.0199 25.1064 12.0199 25.2119 12.102C25.4463 12.2738 25.4814 12.3637 25.4932 12.8246L25.5088 13.2504H23.208C21.2939 13.2504 20.8721 13.2621 20.6846 13.309C20.0088 13.4848 19.4854 14.0043 19.3096 14.6762C19.0557 15.6567 19.6768 16.6801 20.6846 16.9418C20.8721 16.9887 21.2939 17.0004 23.2041 17.0004H25.501L25.4932 19.6137C25.4814 22.184 25.4814 22.2309 25.3994 22.3363C25.3564 22.3949 25.2705 22.4809 25.2119 22.5238C25.1064 22.6059 25.0518 22.6059 22.6885 22.6254C20.3252 22.6449 20.2705 22.6449 20.165 22.727C19.958 22.8793 19.8955 23.0043 19.8955 23.2504C19.8955 23.4965 19.958 23.6215 20.165 23.7738C20.2705 23.8559 20.3174 23.8559 22.6611 23.8676C24.2822 23.8754 25.1182 23.8637 25.2549 23.8324C25.9385 23.6918 26.5127 23.1371 26.6924 22.4418C26.7822 22.102 26.7783 12.5199 26.6924 12.1762C26.5166 11.5043 25.9932 10.9848 25.3174 10.809C25.1572 10.766 24.8838 10.7504 24.3604 10.7504H23.626V10.3285C23.626 9.65275 23.4775 9.23868 23.0908 8.83243C22.8525 8.58243 22.54 8.39884 22.2002 8.309C21.8604 8.22306 10.9893 8.22306 10.6611 8.3129ZM22.0869 9.60196C22.3213 9.77384 22.3564 9.86368 22.3682 10.3246L22.3838 10.7504H16.6963C10.4775 10.7504 10.8525 10.766 10.6455 10.5199C10.3877 10.2113 10.5049 9.71525 10.8721 9.55509C10.9697 9.51212 11.9736 9.50431 16.4854 9.51212C21.9658 9.51993 21.9814 9.51993 22.0869 9.60196ZM25.501 15.1254V15.7504H23.2549C20.7939 15.7504 20.8447 15.7543 20.6455 15.5199C20.458 15.2973 20.458 14.9535 20.6455 14.7309C20.8408 14.5004 20.7861 14.5043 23.2471 14.5004H25.501V15.1254Z" fill="white"/>
<path d="M15.1992 18.9337C14.2734 19.1017 13.3164 19.6212 12.5703 20.3634C12.082 20.8478 11.75 21.3829 11.75 21.6876C11.75 21.9806 12.0742 22.5157 12.5352 22.9767C13.4492 23.8868 14.5469 24.4259 15.6367 24.4884C16.7773 24.5509 18.0625 23.9962 19.0547 23.0079C19.5508 22.5118 19.875 21.9923 19.875 21.6876C19.875 21.3829 19.543 20.8478 19.0547 20.3634C17.9336 19.2501 16.4609 18.7032 15.1992 18.9337ZM16.1719 20.1798C16.9805 20.336 17.6367 20.6993 18.2305 21.3204C18.4062 21.5001 18.5469 21.6642 18.5469 21.6837C18.5469 21.7462 18.0234 22.2814 17.7734 22.4689C17.1992 22.9064 16.3945 23.2189 15.832 23.2228C15.2812 23.2267 14.4609 22.9259 13.8984 22.5079C13.625 22.3048 13.0781 21.7579 13.0781 21.6876C13.0781 21.6642 13.2188 21.5001 13.3945 21.3204C13.9766 20.711 14.6328 20.3439 15.4219 20.1837C15.7578 20.1173 15.832 20.1173 16.1719 20.1798Z" fill="white"/>
<path d="M15.5007 20.8012C15.3093 20.8637 14.9812 21.1996 14.9226 21.3988C14.8132 21.766 14.8913 22.059 15.1687 22.3324C15.5671 22.7348 16.1179 22.727 16.489 22.3129C16.8405 21.9223 16.8405 21.4535 16.489 21.0629C16.2351 20.7817 15.8718 20.684 15.5007 20.8012Z" fill="white"/>
</svg>
