<svg width="35" height="35" viewBox="0 0 35 35" fill="none" xmlns="http://www.w3.org/2000/svg">
<rect width="35" height="35" rx="3" fill="#FB70A9" fill-opacity="0.984314"/>
<g clip-path="url(#clip0_3521_150832)">
<path d="M24.0635 9.46133C24.2298 9.5659 24.3713 9.6971 24.5146 9.83047C24.5381 9.85199 24.5615 9.8735 24.5856 9.89566C24.71 10.0098 24.8336 10.1247 24.9567 10.2403C25.0814 10.3572 25.2088 10.4705 25.3382 10.5822C25.4339 10.6655 25.5279 10.7504 25.6221 10.8354C25.7443 10.9457 25.867 11.0553 25.9912 11.1635C26.151 11.3026 26.3082 11.4445 26.4655 11.5865C26.5529 11.6649 26.6409 11.7426 26.7295 11.8197C26.8537 11.9279 26.9764 12.0375 27.0986 12.1479C27.3048 12.3338 27.5128 12.5175 27.7236 12.6982C27.7534 12.7238 27.7832 12.7495 27.8138 12.7759C27.8409 12.799 27.8679 12.8221 27.8957 12.8459C27.9971 12.9417 28.0121 13.0225 28.0215 13.1579C28.0182 13.3639 27.9451 13.4588 27.8037 13.6025C27.7741 13.63 27.7444 13.6576 27.7139 13.6859C27.6649 13.7317 27.6649 13.7317 27.615 13.7784C27.5124 13.8721 27.4085 13.9639 27.3037 14.0551C27.2757 14.0796 27.2478 14.104 27.219 14.1293C27.1661 14.1755 27.1132 14.2217 27.0602 14.2679C26.9629 14.3534 26.8667 14.44 26.7705 14.5268C26.6222 14.6606 26.4726 14.7929 26.3219 14.9241C26.2246 15.0096 26.1284 15.0962 26.0322 15.183C25.8839 15.3169 25.7343 15.4491 25.5836 15.5804C25.4863 15.6659 25.3901 15.7525 25.2939 15.8393C25.1457 15.9731 24.9963 16.1053 24.8455 16.2363C24.7469 16.3232 24.6501 16.412 24.5531 16.5006C24.4858 16.5607 24.4183 16.6205 24.3506 16.6801C24.3252 16.7029 24.2998 16.7257 24.2737 16.7491C24.1135 16.88 23.9813 16.9167 23.7799 16.9057C23.6403 16.8722 23.5739 16.7912 23.4893 16.6801C23.4275 16.5565 23.4433 16.4294 23.4442 16.294C23.4443 16.2674 23.4443 16.2409 23.4444 16.2136C23.4446 16.1144 23.4451 16.0153 23.4457 15.9162C23.4465 15.6945 23.4474 15.4729 23.4482 15.2445C22.961 15.2581 22.4737 15.2716 21.9717 15.2856C22.0529 15.4886 22.1341 15.6916 22.2178 15.9008C22.626 17.2728 22.5358 18.6587 21.8565 19.928C21.2207 21.0619 20.1817 21.8822 18.9439 22.2657C18.4698 22.3986 18.0157 22.4698 17.524 22.4735C17.4728 22.4741 17.4728 22.4741 17.4204 22.4747C17.1149 22.4732 16.8179 22.4293 16.5166 22.3813C16.516 22.4374 16.516 22.4374 16.5154 22.4947C16.5136 22.6342 16.5111 22.7737 16.5081 22.9132C16.5069 22.9735 16.5061 23.0338 16.5055 23.094C16.5046 23.1809 16.5027 23.2677 16.5006 23.3546C16.4997 23.4068 16.4989 23.459 16.498 23.5127C16.472 23.6751 16.4279 23.7437 16.3115 23.8578C16.1935 23.8972 16.1203 23.9039 15.9977 23.9038C15.939 23.9039 15.939 23.9039 15.879 23.9039C15.8361 23.9038 15.7932 23.9036 15.7491 23.9035C15.6812 23.9035 15.6812 23.9035 15.612 23.9035C15.4622 23.9035 15.3124 23.9032 15.1626 23.9028C15.0589 23.9028 14.9551 23.9027 14.8514 23.9027C14.6061 23.9025 14.3607 23.9022 14.1154 23.9018C13.8361 23.9013 13.5567 23.9011 13.2774 23.9009C12.7028 23.9005 12.1283 23.8997 11.5537 23.8988C11.5544 23.9388 11.555 23.9787 11.5557 24.0198C11.5579 24.1685 11.5593 24.3172 11.5605 24.4659C11.5611 24.5301 11.5619 24.5944 11.563 24.6586C11.5645 24.7511 11.5652 24.8437 11.5657 24.9362C11.5664 24.9648 11.567 24.9933 11.5677 25.0228C11.5677 25.2029 11.5395 25.3134 11.4307 25.4574C11.3153 25.5471 11.1788 25.5696 11.0335 25.5648C10.8125 25.5059 10.6509 25.3225 10.4873 25.1703C10.4522 25.138 10.4522 25.138 10.4163 25.1051C10.292 24.9909 10.1683 24.876 10.0453 24.7605C9.92055 24.6436 9.79318 24.5303 9.66379 24.4186C9.5681 24.3353 9.47401 24.2504 9.37988 24.1654C9.25763 24.0551 9.13492 23.9455 9.01074 23.8373C8.85098 23.6982 8.69378 23.5563 8.5365 23.4143C8.44907 23.3359 8.36105 23.2582 8.27246 23.1811C8.14828 23.0729 8.02557 22.9633 7.90332 22.8529C7.69717 22.667 7.48915 22.4833 7.27831 22.3026C7.23366 22.2641 7.23366 22.2641 7.18811 22.2249C7.16109 22.2018 7.13408 22.1787 7.10624 22.1549C7.00489 22.0591 6.9899 21.9783 6.98047 21.8429C6.98314 21.6346 7.06124 21.5376 7.20397 21.3926C7.31029 21.2943 7.41695 21.1972 7.52729 21.1035C7.627 21.0185 7.72416 20.9311 7.82129 20.8432C7.96963 20.7093 8.11922 20.5771 8.2699 20.4458C8.36719 20.3603 8.46341 20.2737 8.55957 20.1869C8.70791 20.053 8.8575 19.9208 9.00818 19.7896C9.10547 19.7041 9.20169 19.6174 9.29785 19.5307C9.4462 19.3968 9.59578 19.2646 9.74646 19.1333C9.84375 19.0478 9.93997 18.9612 10.0361 18.8744C10.2125 18.7155 10.3891 18.5572 10.5693 18.4027C10.5988 18.3758 10.6283 18.3489 10.6587 18.3212C10.8109 18.1898 10.928 18.0968 11.1333 18.0849C11.2782 18.0965 11.3101 18.1176 11.4307 18.213C11.56 18.3828 11.5592 18.4998 11.5577 18.7068C11.5577 18.7334 11.5576 18.7599 11.5576 18.7872C11.5574 18.8864 11.5568 18.9855 11.5563 19.0846C11.5554 19.3063 11.5546 19.5279 11.5537 19.7563C12.041 19.7427 12.5282 19.7292 13.0303 19.7152C12.9491 19.5122 12.8679 19.3092 12.7842 19.1C12.376 17.728 12.4661 16.3421 13.1455 15.0728C13.7813 13.9389 14.8202 13.1186 16.0581 12.7351C16.5322 12.6022 16.9862 12.5309 17.4779 12.5273C17.5121 12.5269 17.5463 12.5265 17.5815 12.5261C17.887 12.5276 18.184 12.5715 18.4854 12.6195C18.4859 12.5634 18.4859 12.5634 18.4865 12.5061C18.4883 12.3665 18.4909 12.2271 18.4939 12.0876C18.495 12.0273 18.4959 11.967 18.4965 11.9068C18.4973 11.8199 18.4993 11.7331 18.5014 11.6462C18.5027 11.5679 18.5027 11.5679 18.504 11.4881C18.5299 11.3257 18.574 11.2571 18.6904 11.143C18.8085 11.1036 18.8817 11.0969 19.0042 11.097C19.063 11.0969 19.063 11.0969 19.1229 11.0969C19.1658 11.097 19.2087 11.0972 19.2529 11.0973C19.2981 11.0973 19.3433 11.0973 19.3899 11.0973C19.5397 11.0973 19.6895 11.0976 19.8393 11.098C19.9431 11.098 20.0468 11.0981 20.1506 11.0981C20.3959 11.0983 20.6412 11.0986 20.8866 11.099C21.1659 11.0995 21.4452 11.0997 21.7245 11.0999C22.2991 11.1003 22.8737 11.101 23.4482 11.102C23.4476 11.062 23.447 11.0221 23.4463 10.981C23.4441 10.8323 23.4426 10.6836 23.4415 10.5349C23.4409 10.4707 23.44 10.4064 23.439 10.3422C23.4375 10.2496 23.4368 10.1571 23.4362 10.0646C23.4356 10.036 23.435 10.0075 23.4343 9.97804C23.4342 9.79794 23.4625 9.68737 23.5713 9.54337C23.7144 9.43203 23.8916 9.41554 24.0635 9.46133ZM24.3096 10.8559C24.308 10.8919 24.308 10.8919 24.3065 10.9286C24.3017 11.0376 24.2967 11.1467 24.2916 11.2558C24.29 11.2935 24.2884 11.3313 24.2867 11.3702C24.285 11.4066 24.2833 11.4431 24.2815 11.4807C24.28 11.5142 24.2785 11.5477 24.277 11.5823C24.2607 11.7638 24.2607 11.7638 24.2275 11.8402C24.0889 11.908 23.9753 11.9327 23.8218 11.9337C23.7629 11.9344 23.7629 11.9344 23.7028 11.9351C23.6389 11.9352 23.6389 11.9352 23.5737 11.9353C23.5285 11.9358 23.4833 11.9362 23.4366 11.9366C23.2873 11.9379 23.1379 11.9386 22.9886 11.9393C22.885 11.94 22.7813 11.9408 22.6777 11.9417C22.433 11.9436 22.1882 11.9451 21.9434 11.9464C21.6647 11.948 21.386 11.95 21.1073 11.9521C20.5341 11.9563 19.9609 11.9599 19.3877 11.9633C19.3877 12.2746 19.3877 12.5859 19.3877 12.9066C19.4909 12.9591 19.5941 13.0115 19.7004 13.0656C20.1817 13.3172 20.866 13.689 21.1534 14.1678C21.2136 14.2606 21.266 14.3187 21.3564 14.3832C21.5526 14.425 21.7479 14.4194 21.9475 14.4159C22.0055 14.416 22.0635 14.4162 22.1215 14.4165C22.2738 14.4172 22.426 14.4162 22.5782 14.4148C22.822 14.4127 23.0658 14.4128 23.3096 14.4134C23.3945 14.4133 23.4794 14.4124 23.5643 14.4114C23.616 14.4113 23.6678 14.4112 23.7211 14.411C23.7665 14.4106 23.812 14.4102 23.8588 14.4098C23.9991 14.4263 24.074 14.4631 24.1865 14.5473C24.2721 14.6757 24.2799 14.7142 24.2855 14.8618C24.2871 14.8984 24.2887 14.935 24.2903 14.9727C24.2916 15.0108 24.2929 15.0489 24.2942 15.0882C24.2958 15.1267 24.2974 15.1653 24.299 15.205C24.3029 15.3002 24.3064 15.3954 24.3096 15.4906C24.528 15.3329 24.7298 15.1662 24.9248 14.9805C24.975 14.9333 25.0252 14.8862 25.0754 14.839C25.0991 14.8168 25.1227 14.7946 25.1471 14.7717C25.2497 14.6762 25.3552 14.5843 25.4612 14.4928C25.5569 14.4096 25.651 14.3247 25.7451 14.2397C25.8933 14.1059 26.0428 13.9737 26.1934 13.8426C26.2926 13.7554 26.3906 13.6669 26.4885 13.5783C26.6345 13.4465 26.7822 13.3181 26.9346 13.1938C26.7634 13.0202 26.5869 12.8528 26.4091 12.6862C26.3814 12.6602 26.3538 12.6342 26.3253 12.6074C26.1594 12.4518 25.9909 12.3 25.8192 12.1508C25.7251 12.0689 25.6325 11.9855 25.54 11.9018C25.3918 11.768 25.2424 11.6357 25.0916 11.5047C24.9602 11.389 24.8316 11.2703 24.7029 11.1516C24.5769 11.0441 24.4454 10.9506 24.3096 10.8559ZM14.835 14.3832C14.8108 14.4019 14.7866 14.4206 14.7617 14.4399C13.9981 15.0488 13.5153 16.0874 13.4068 17.047C13.3095 18.1518 13.6078 19.2259 14.3173 20.0871C14.3392 20.1133 14.3612 20.1394 14.3838 20.1664C14.4011 20.1896 14.4184 20.2128 14.4362 20.2367C15.0145 20.9838 16.0357 21.4523 16.9534 21.5827C18.0505 21.7135 19.1214 21.4286 20.0004 20.756C20.0561 20.7101 20.1117 20.664 20.167 20.6176C20.1902 20.6003 20.2134 20.583 20.2373 20.5652C20.9843 19.9869 21.4529 18.9656 21.5833 18.048C21.7096 16.9884 21.4512 15.9483 20.8186 15.0853C20.74 14.9862 20.6592 14.8896 20.5771 14.7934C20.5458 14.7519 20.5145 14.7105 20.4823 14.6678C19.7804 13.9006 18.7295 13.4359 17.6969 13.3897C16.6298 13.3597 15.6539 13.6945 14.835 14.3832ZM10.4232 19.7178C10.378 19.7596 10.3328 19.8015 10.2875 19.8433C10.2544 19.8739 10.2544 19.8739 10.2206 19.9051C10.1196 19.9976 10.0162 20.0873 9.91277 20.177C9.81628 20.2614 9.72112 20.3471 9.62598 20.433C9.47763 20.5669 9.32804 20.6991 9.17737 20.8304C9.08007 20.9159 8.98385 21.0025 8.8877 21.0893C8.6178 21.3327 8.34374 21.571 8.06738 21.807C8.1147 21.8544 8.16205 21.9016 8.2095 21.9488C8.25148 21.991 8.29303 22.0336 8.33414 22.0767C8.47021 22.2173 8.61177 22.3436 8.76465 22.4659C8.98862 22.646 9.1975 22.8394 9.40659 23.0365C9.56068 23.1817 9.71607 23.3244 9.87672 23.4624C10.0048 23.5738 10.1292 23.6892 10.254 23.8041C10.3949 23.9251 10.5428 24.035 10.6924 24.1449C10.6932 24.1209 10.694 24.0969 10.6948 24.0722C10.6988 23.9631 10.7033 23.8541 10.7078 23.745C10.709 23.7073 10.7103 23.6695 10.7116 23.6306C10.7132 23.5941 10.7148 23.5577 10.7164 23.5201C10.7183 23.4698 10.7183 23.4698 10.7203 23.4185C10.7349 23.3138 10.7565 23.2485 10.8154 23.1606C10.9382 23.0848 11.032 23.0681 11.1752 23.0671C11.2144 23.0666 11.2536 23.0662 11.294 23.0657C11.3368 23.0656 11.3795 23.0655 11.4236 23.0654C11.4688 23.065 11.514 23.0646 11.5606 23.0642C11.7102 23.0629 11.8598 23.0622 12.0094 23.0615C12.113 23.0608 12.2167 23.06 12.3204 23.0591C12.5655 23.0572 12.8105 23.0557 13.0556 23.0543C13.3346 23.0528 13.6136 23.0508 13.8926 23.0487C14.4665 23.0444 15.0404 23.0408 15.6143 23.0375C15.6143 22.7262 15.6143 22.4149 15.6143 22.0941C15.5111 22.0417 15.4078 21.9892 15.3015 21.9352C14.7779 21.6612 14.0775 21.2639 13.778 20.7357C13.6971 20.6389 13.653 20.619 13.5271 20.5953C13.3706 20.5871 13.2151 20.5868 13.0585 20.5889C13.0004 20.5888 12.9423 20.5885 12.8843 20.5881C12.7317 20.5873 12.5791 20.5879 12.4265 20.5888C12.1823 20.5903 11.9382 20.59 11.694 20.589C11.6089 20.5889 11.5238 20.5896 11.4387 20.5904C11.3868 20.5904 11.335 20.5904 11.2815 20.5904C11.2359 20.5907 11.1904 20.591 11.1434 20.5913C11.0031 20.5745 10.928 20.5378 10.8154 20.4535C10.7298 20.3251 10.7221 20.2866 10.7164 20.139C10.7148 20.1024 10.7132 20.0658 10.7116 20.0281C10.7103 19.99 10.7091 19.9519 10.7078 19.9126C10.7062 19.8741 10.7046 19.8355 10.703 19.7957C10.6991 19.7006 10.6956 19.6054 10.6924 19.5102C10.5971 19.5102 10.4931 19.6526 10.4232 19.7178Z" fill="white"/>
<path d="M17.623 14.1779C17.8519 14.3074 17.8519 14.3074 17.9102 14.424C17.9131 14.5355 17.914 14.6458 17.9127 14.7572C17.9125 14.7882 17.9123 14.8191 17.9122 14.851C17.9117 14.9274 17.9109 15.0038 17.9102 15.0802C17.9531 15.0846 17.996 15.089 18.0403 15.0935C18.1929 15.1205 18.2824 15.1558 18.4126 15.2366C18.4466 15.2572 18.4807 15.2778 18.5158 15.2989C18.6387 15.3907 18.717 15.4685 18.7497 15.621C18.7522 15.8023 18.7496 15.8763 18.6331 16.0236C18.4616 16.1543 18.3791 16.1518 18.1712 16.1269C18.0741 16.1056 18.0136 16.077 17.9307 16.0236C17.7674 15.9204 17.6103 15.8917 17.418 15.9006C17.2726 15.9348 17.1624 15.9931 17.054 16.0979C16.9941 16.2143 16.9721 16.3027 16.9668 16.4338C17.0568 16.6534 17.2073 16.7133 17.4128 16.8029C17.4439 16.8171 17.475 16.8312 17.507 16.8458C17.6934 16.9296 17.8818 17.0031 18.0742 17.0721C18.4725 17.2217 18.733 17.4549 18.9355 17.8283C19.1097 18.218 19.0798 18.6479 18.9383 19.0424C18.76 19.4409 18.4692 19.7059 18.0769 19.8882C17.9922 19.9201 17.9922 19.9201 17.9102 19.9201C17.9125 19.9651 17.9149 20.0101 17.9174 20.0564C17.9193 20.1161 17.9212 20.1757 17.923 20.2354C17.9256 20.2798 17.9256 20.2798 17.9282 20.325C17.9321 20.4983 17.9255 20.5574 17.8119 20.6976C17.6566 20.8195 17.5749 20.8415 17.377 20.8224C17.1481 20.6929 17.1481 20.6929 17.0898 20.5763C17.0869 20.4717 17.086 20.3682 17.0873 20.2636C17.0875 20.2346 17.0877 20.2056 17.0878 20.1758C17.0883 20.1042 17.0891 20.0327 17.0898 19.9611C17.0669 19.9615 17.044 19.9618 17.0203 19.9622C16.6781 19.9496 16.3921 19.813 16.1055 19.633C15.9866 19.5013 15.9484 19.4017 15.9414 19.2228C16.0009 19.0444 16.0295 18.959 16.1875 18.8537C16.4507 18.8026 16.6435 18.88 16.87 19.0099C17.1353 19.1439 17.4591 19.136 17.7384 19.0536C17.9399 18.9351 18.0636 18.7943 18.1357 18.5717C18.1656 18.4155 18.1541 18.2933 18.0877 18.1482C17.9726 17.9922 17.7982 17.9393 17.623 17.8693C16.4388 17.391 16.4388 17.391 16.1567 16.8772C16.0172 16.5117 16.0481 16.1376 16.1875 15.7775C16.3393 15.4866 16.5421 15.2596 16.8438 15.1213C16.9253 15.105 17.0074 15.0908 17.0898 15.0802C17.0875 15.0353 17.0851 14.9903 17.0826 14.9439C17.0807 14.8842 17.0788 14.8246 17.077 14.7649C17.0753 14.7354 17.0736 14.7058 17.0718 14.6753C17.0679 14.5021 17.0745 14.4429 17.1881 14.3027C17.3434 14.1809 17.4251 14.1589 17.623 14.1779Z" fill="white"/>
</g>
<defs>
<clipPath id="clip0_3521_150832">
<rect width="21" height="21" fill="white" transform="translate(7 7)"/>
</clipPath>
</defs>
</svg>
