<svg width="38" height="37" viewBox="0 0 38 37" fill="none" xmlns="http://www.w3.org/2000/svg">
<rect y="0.476562" width="38" height="35.8822" rx="3" fill="#424C5B"/>
<g clip-path="url(#clip0_1510_56834)">
<path d="M24.9245 9.78708C24.9694 9.82629 24.9694 9.82629 25.0151 9.8663C25.0678 9.91029 25.1206 9.95418 25.1736 9.99789C25.2064 10.0254 25.2392 10.0528 25.2729 10.0811C25.2486 10.248 25.1725 10.3285 25.0581 10.4491C24.9163 10.6018 24.7807 10.7567 24.6499 10.919C24.5249 11.0735 24.397 11.2234 24.2632 11.3702C24.0945 11.5554 23.936 11.7472 23.7784 11.9419C23.6369 12.1138 23.4888 12.2795 23.3394 12.4444C23.1927 12.3836 23.0812 12.2909 22.9604 12.1894C21.7193 11.1496 20.0885 10.6497 18.475 10.7819C16.7792 10.9464 15.2418 11.7597 14.1439 13.0681C13.4123 13.9764 12.9661 15.0745 12.812 16.2257C12.8064 16.2641 12.8008 16.3026 12.7951 16.3422C12.7673 16.5653 12.7674 16.7878 12.7682 17.0124C12.7683 17.0442 12.7683 17.076 12.7684 17.1088C12.7685 17.1868 12.7688 17.2649 12.769 17.3429C12.8357 17.3438 12.8357 17.3438 12.9037 17.3448C13.0691 17.3473 13.2344 17.3506 13.3998 17.3541C13.4712 17.3556 13.5427 17.3568 13.6142 17.3577C13.7172 17.3592 13.8201 17.3614 13.923 17.3638C13.9707 17.3643 13.9707 17.3643 14.0193 17.3647C14.2718 17.3718 14.4081 17.4351 14.5845 17.6114C14.6784 17.759 14.6996 17.8555 14.7026 18.0304C14.6335 18.307 14.4512 18.4759 14.2589 18.6799C14.1524 18.7948 14.0537 18.9125 13.9561 19.0348C13.7899 19.2408 13.6134 19.4341 13.4327 19.6271C13.2641 19.8082 13.1077 19.9968 12.9528 20.1897C12.8456 20.319 12.7331 20.4426 12.6187 20.5655C12.4356 20.7623 12.2645 20.9658 12.096 21.1753C11.9636 21.3344 11.8241 21.4862 11.6827 21.6372C11.5791 21.7482 11.4823 21.8599 11.394 21.9835C11.2688 21.9692 11.2255 21.9441 11.1374 21.8511C11.1078 21.8123 11.0781 21.7736 11.0476 21.7337C10.9044 21.552 10.7572 21.379 10.5991 21.21C10.4508 21.0507 10.3084 20.8884 10.1721 20.7186C10.0275 20.5388 9.87588 20.3686 9.71826 20.2003C9.52668 19.9957 9.3471 19.785 9.17159 19.5663C9.06435 19.437 8.9518 19.3134 8.8374 19.1905C8.6489 18.9878 8.47026 18.7794 8.29811 18.5624C8.21953 18.4625 8.21953 18.4625 8.14268 18.3899C8.00771 18.2576 7.98221 18.1481 7.97266 17.9659C7.98015 17.8086 7.99635 17.702 8.09351 17.5765C8.29658 17.4005 8.45731 17.3751 8.72276 17.3774C8.80605 17.3779 8.80605 17.3779 8.89103 17.3783C8.94924 17.379 9.00746 17.3797 9.06567 17.3805C9.12473 17.3809 9.18378 17.3813 9.24284 17.3816C9.387 17.3826 9.53114 17.3841 9.67529 17.3858C9.6738 17.3337 9.6723 17.2815 9.67076 17.2277C9.63343 15.3148 10.1354 13.3235 11.2651 11.7569C11.2958 11.7138 11.3265 11.6707 11.3581 11.6263C11.9526 10.8134 12.6418 10.0744 13.4565 9.47958C13.4929 9.45255 13.5292 9.42552 13.5667 9.39767C16.9063 6.98085 21.7703 7.09498 24.9245 9.78708Z" fill="white"/>
<path d="M26.6055 12.875C26.7295 12.8894 26.7734 12.9138 26.8606 13.0059C26.8898 13.0442 26.9191 13.0826 26.9492 13.1221C27.0995 13.3129 27.2555 13.4931 27.4219 13.6699C27.6135 13.8744 27.793 14.0852 27.9686 14.3039C28.0758 14.4332 28.1883 14.5568 28.3027 14.6797C28.451 14.839 28.5934 15.0013 28.7297 15.1711C28.8744 15.351 29.026 15.5211 29.1836 15.6895C29.4101 15.9315 29.6218 16.1818 29.8281 16.4414C29.8595 16.4765 29.8909 16.5115 29.9233 16.5477C30.0523 16.7303 30.0365 16.9142 30 17.1289C29.9298 17.2745 29.8343 17.3621 29.6885 17.4351C29.5475 17.4799 29.4246 17.4865 29.2768 17.4904C29.2212 17.4921 29.1657 17.4938 29.1085 17.4955C29.0503 17.4968 28.9921 17.4982 28.9338 17.4995C28.8748 17.5012 28.8157 17.5028 28.7567 17.5045C28.6125 17.5086 28.4684 17.5123 28.3242 17.5156C28.3214 17.5445 28.3187 17.5734 28.3158 17.6032C28.1182 19.6019 27.4852 21.4884 26.1328 23.0156C26.1037 23.0494 26.0745 23.0832 26.0445 23.118C25.5876 23.6385 25.1007 24.1088 24.543 24.5195C24.4882 24.5603 24.4882 24.5603 24.4324 24.6019C22.4349 26.0447 19.9337 26.5814 17.5095 26.2189C16.1794 25.9989 14.8602 25.5238 13.7578 24.7344C13.7337 24.7172 13.7096 24.7001 13.6848 24.6824C13.2654 24.3825 13.2654 24.3825 13.1562 24.2188C13.1828 24.1901 13.2093 24.1615 13.2366 24.132C13.4587 23.8903 13.6712 23.6443 13.8775 23.3887C13.9708 23.2757 14.0673 23.1669 14.166 23.0586C14.3339 22.8744 14.4912 22.6835 14.6479 22.4898C14.8036 22.3016 14.9677 22.1213 15.1328 21.9414C15.2629 22.0014 15.3797 22.0753 15.4986 22.1549C16.4399 22.7815 17.52 23.1793 18.6563 23.2305C18.7053 23.2327 18.7543 23.235 18.8048 23.2374C20.5324 23.2776 22.1378 22.6238 23.3846 21.4413C23.8637 20.9724 24.2327 20.428 24.543 19.8359C24.569 19.7867 24.595 19.7375 24.6219 19.6867C24.9747 18.9921 25.1266 18.239 25.2305 17.4727C25.1876 17.4733 25.1447 17.474 25.1005 17.4747C24.9405 17.477 24.7805 17.4785 24.6205 17.4797C24.5514 17.4804 24.4823 17.4813 24.4132 17.4824C24.3135 17.484 24.2139 17.4847 24.1143 17.4852C24.0837 17.4859 24.053 17.4866 24.0215 17.4873C23.7664 17.4873 23.5951 17.4249 23.4124 17.2471C23.3218 17.0995 23.2999 17.0014 23.2969 16.8281C23.366 16.5516 23.5482 16.3827 23.7405 16.1787C23.8478 16.0629 23.9475 15.9442 24.0461 15.821C24.2034 15.6261 24.3689 15.442 24.5394 15.2588C24.667 15.1209 24.7879 14.9793 24.9055 14.8328C25.0706 14.6275 25.2463 14.4352 25.4262 14.2431C25.5945 14.0624 25.7506 13.8742 25.905 13.6817C26.0367 13.5229 26.1759 13.3718 26.3169 13.2213C26.4204 13.1103 26.5173 12.9986 26.6055 12.875Z" fill="white"/>
</g>
<defs>
<clipPath id="clip0_1510_56834">
<rect width="22" height="21.928" fill="white" transform="translate(8 7.45312)"/>
</clipPath>
</defs>
</svg>
