<svg width="15" height="15" viewBox="0 0 15 15" fill="none" xmlns="http://www.w3.org/2000/svg">
<g clip-path="url(#clip0_1077_48577)">
<path d="M6.78201 0.03125C4.44412 0.268555 2.38455 1.54883 1.1365 3.53516C-0.290257 5.80273 -0.375218 8.74121 0.916775 11.0879C1.84256 12.7725 3.3572 14.0264 5.19412 14.6328C5.97342 14.8877 6.6033 14.9844 7.51443 14.9844C8.39041 14.9814 9.00564 14.8906 9.77029 14.6475C10.8865 14.293 11.8592 13.7041 12.7117 12.875C13.3826 12.2217 13.8133 11.6328 14.2205 10.8096C15.407 8.41602 15.2283 5.5918 13.7459 3.35645C13.4763 2.94629 13.2039 2.6123 12.823 2.22852C11.6541 1.04492 10.2068 0.31543 8.53982 0.0693359C8.1824 0.0166016 7.14236 -0.00683594 6.78201 0.03125ZM8.3406 0.804688C9.11697 0.907227 9.79666 1.1123 10.4734 1.44922C11.2146 1.81543 11.7771 2.22559 12.3513 2.81738C13.5789 4.08887 14.2381 5.7207 14.2381 7.49902C14.2381 8.75293 13.9011 9.96875 13.2683 11L13.1189 11.2461L12.8933 10.9473C12.4627 10.3672 11.7888 9.73438 11.1765 9.33887C10.784 9.08105 10.0838 8.74414 9.6531 8.60352C9.4451 8.53613 9.26931 8.47168 9.26345 8.45703C9.26052 8.44531 9.33963 8.36621 9.43924 8.28125C10.5115 7.37305 10.8045 5.81445 10.1365 4.57812C9.99295 4.30859 9.86404 4.1416 9.61502 3.88379C8.87381 3.12793 7.74588 2.82324 6.70877 3.10742C5.89138 3.33008 5.1824 3.92188 4.80447 4.70117C4.60232 5.11426 4.53787 5.37793 4.52029 5.87305C4.50271 6.34473 4.54666 6.64648 4.69021 7.04199C4.85427 7.49902 5.17654 7.95605 5.56619 8.28711C5.67166 8.375 5.75369 8.4541 5.75076 8.45996C5.74783 8.46875 5.56912 8.5332 5.35525 8.60352C4.62283 8.84668 3.84939 9.27148 3.23416 9.76953C2.87967 10.0596 2.37869 10.5811 2.10623 10.9473L1.88064 11.2461L1.73123 11.0029C1.25076 10.2207 0.919704 9.2627 0.802517 8.32227C0.749782 7.88867 0.749782 7.10645 0.802517 6.67871C1.12478 4.09473 2.9031 1.91797 5.36111 1.10352C5.80642 0.954102 6.20193 0.863281 6.63552 0.804688C7.05154 0.751953 7.92166 0.751953 8.3406 0.804688ZM7.93338 3.7959C8.7947 3.97168 9.45974 4.60742 9.68533 5.46289C9.7615 5.76172 9.75857 6.26855 9.67361 6.57031C9.48904 7.2207 9.07302 7.72461 8.48123 8.01172C8.12967 8.18457 7.88357 8.24023 7.48513 8.2373C7.09256 8.2373 6.80545 8.16699 6.47732 7.99707C5.28201 7.37598 4.88943 5.8877 5.62478 4.76562C6.12283 4.00391 7.05154 3.61426 7.93338 3.7959ZM8.01248 9.02246C9.81717 9.18652 11.4373 10.1357 12.451 11.6152C12.5799 11.8057 12.6179 11.8848 12.5974 11.9199C12.5447 12.0195 11.8386 12.6787 11.5691 12.8809C10.5965 13.6104 9.4451 14.0703 8.24685 14.208C7.90115 14.2461 7.10427 14.2461 6.74392 14.2051C5.56912 14.0762 4.40603 13.6104 3.43045 12.8809C3.16092 12.6787 2.45486 12.0195 2.40213 11.9229C2.38162 11.8848 2.41677 11.8115 2.54861 11.6152C3.76443 9.83398 5.8826 8.8291 8.01248 9.02246Z" fill="#8E8D8B"/>
</g>
<defs>
<clipPath id="clip0_1077_48577">
<rect width="15" height="15" fill="white"/>
</clipPath>
</defs>
</svg>
