<svg width="35" height="35" viewBox="0 0 35 35" fill="none" xmlns="http://www.w3.org/2000/svg">
<rect width="35" height="35" rx="3" fill="#514FC8"/>
<g clip-path="url(#clip0_3350_433206)">
<path d="M27.0655 17.2775C27.2994 17.4792 27.495 17.7041 27.5389 18.0198C27.5417 18.331 27.53 18.545 27.3162 18.7787C27.0868 18.9765 26.827 19.122 26.5627 19.2674C26.479 19.3141 26.3952 19.3609 26.3115 19.4077C26.2688 19.4316 26.226 19.4555 26.182 19.4801C25.9775 19.5954 25.775 19.7138 25.5725 19.8325C25.0998 20.1092 24.6256 20.3832 24.1509 20.6566C23.9298 20.784 23.7088 20.9115 23.4878 21.039C23.3995 21.0899 23.3113 21.1409 23.2231 21.1918C23.1794 21.217 23.1357 21.2422 23.0907 21.2681C22.9583 21.3445 22.826 21.4209 22.6936 21.4972C22.6499 21.5224 22.6062 21.5477 22.5611 21.5737C22.4732 21.6244 22.3853 21.675 22.2974 21.7257C22.0714 21.8559 21.8457 21.9867 21.6204 22.1182C20.05 23.0333 18.7764 23.3899 16.9557 23.3995C16.8139 23.4004 16.672 23.402 16.5302 23.4036C16.4664 23.4036 16.4664 23.4036 16.4013 23.4036C15.8383 23.4111 15.3293 23.5622 14.9095 23.9485C14.7578 24.1099 14.6369 24.2856 14.5201 24.4729C14.5033 24.4992 14.4866 24.5255 14.4693 24.5527C14.4174 24.6368 14.4174 24.6368 14.3648 24.7656C14.3854 24.8576 14.3854 24.8576 14.4462 24.9285C14.4743 24.9828 14.5023 25.0371 14.5302 25.0914C14.5442 25.1183 14.5581 25.1452 14.5724 25.1729C14.6768 25.4044 14.6936 25.675 14.6223 25.9188C14.512 26.1916 14.374 26.4408 14.2222 26.6926C14.1991 26.7317 14.1759 26.7709 14.1521 26.8113C13.8549 27.3095 13.8549 27.3095 13.6291 27.4435C13.5881 27.4684 13.5881 27.4684 13.5463 27.4937C13.3017 27.6243 13.0044 27.619 12.7357 27.5758C12.5023 27.4944 12.2965 27.375 12.084 27.25C12.0112 27.2081 11.9384 27.1662 11.8656 27.1243C11.701 27.0292 11.537 26.933 11.3732 26.8364C11.0958 26.6729 10.8162 26.5133 10.5364 26.354C10.1409 26.1287 9.74656 25.9017 9.35417 25.6711C9.16257 25.5586 8.97052 25.4473 8.77663 25.3388C8.70423 25.2983 8.63194 25.2575 8.55968 25.2167C8.46844 25.1654 8.37696 25.1144 8.28521 25.0639C7.98685 24.8952 7.61531 24.6717 7.49883 24.3262C7.39541 23.7791 7.53644 23.4335 7.80763 22.9736C7.83971 22.917 7.87174 22.8605 7.90372 22.8039C7.9352 22.7492 7.9668 22.6946 7.99854 22.6401C8.02027 22.6028 8.02027 22.6028 8.04244 22.5647C8.2169 22.276 8.44109 22.0632 8.75964 21.9452C8.97295 21.9011 9.18541 21.8852 9.39601 21.9554C9.40673 21.9267 9.41745 21.898 9.42849 21.8685C9.48069 21.7441 9.54228 21.631 9.60935 21.5139C9.63578 21.4677 9.66221 21.4215 9.68944 21.3739C9.71804 21.3242 9.74666 21.2745 9.77529 21.2249C9.80475 21.1736 9.83422 21.1224 9.86368 21.0712C9.9234 20.9674 9.98325 20.8638 10.0432 20.7602C10.121 20.6255 10.1983 20.4905 10.2756 20.3556C10.8351 19.3855 11.4982 18.5131 12.6148 18.1706C13.3241 17.9825 14.085 17.9892 14.7884 18.2028C15.2533 18.3414 15.6913 18.3593 16.1735 18.3566C16.2545 18.3569 16.3355 18.3573 16.4165 18.3579C16.6274 18.359 16.8382 18.359 17.049 18.3588C17.3875 18.3585 17.7261 18.3597 18.0646 18.3613C18.1819 18.3617 18.2991 18.3615 18.4164 18.3612C18.976 18.3614 19.4873 18.3641 19.9139 18.771C20.0714 18.9372 20.2296 19.1101 20.2296 19.3488C20.2648 19.3312 20.3 19.3136 20.3362 19.2954C20.671 19.1276 21.0058 18.9598 21.3407 18.7922C21.5128 18.7061 21.6849 18.6199 21.8569 18.5337C22.0235 18.4501 22.1901 18.3667 22.3568 18.2833C22.4198 18.2518 22.4827 18.2202 22.5457 18.1886C22.9001 18.0108 23.2557 17.8364 23.6154 17.6695C23.781 17.5925 23.9443 17.512 24.1065 17.4281C25.031 16.9511 26.1468 16.5795 27.0655 17.2775ZM24.4787 17.8437C24.4379 17.8634 24.397 17.8831 24.3549 17.9034C24.2701 17.9443 24.1853 17.9853 24.1006 18.0263C23.9848 18.0823 23.8689 18.138 23.753 18.1936C23.3257 18.3986 22.8996 18.6057 22.4743 18.8146C22.2626 18.9186 22.0506 19.0218 21.8379 19.1237C21.6294 19.2237 21.4216 19.3252 21.2144 19.4279C21.136 19.4664 21.0574 19.5043 20.9785 19.5416C20.5496 19.7272 20.5496 19.7272 20.2305 20.0484C20.1851 20.1759 20.1851 20.1759 20.1671 20.2987C20.119 20.5749 19.886 20.7627 19.6724 20.924C19.4286 21.0632 19.2075 21.1184 18.9285 21.1153C18.8828 21.1155 18.8828 21.1155 18.8361 21.1157C18.7364 21.1161 18.6368 21.1155 18.5371 21.1149C18.4675 21.1149 18.3978 21.1149 18.3282 21.115C18.1828 21.115 18.0375 21.1146 17.8921 21.1138C17.7056 21.1129 17.5191 21.1129 17.3326 21.1132C17.189 21.1133 17.0455 21.113 16.902 21.1126C16.8332 21.1125 16.7643 21.1124 16.6955 21.1125C16.5997 21.1125 16.5039 21.112 16.408 21.1113C16.3795 21.1114 16.351 21.1115 16.3216 21.1116C16.1254 21.1094 16.1254 21.1094 16.0346 21.0187C16.0123 20.8086 16.0123 20.8086 16.0789 20.7064C16.1969 20.6242 16.2958 20.637 16.4384 20.6371C16.4669 20.6369 16.4954 20.6368 16.5248 20.6366C16.5866 20.6364 16.6485 20.6364 16.7104 20.6366C16.8085 20.637 16.9066 20.6366 17.0048 20.636C17.2838 20.6343 17.5628 20.6343 17.8418 20.6344C18.0125 20.6344 18.1833 20.6336 18.354 20.6324C18.4503 20.6319 18.5466 20.6324 18.6428 20.6329C18.9931 20.6321 19.2605 20.617 19.5382 20.3774C19.7146 20.1566 19.8045 19.9819 19.7968 19.6939C19.7591 19.4451 19.6413 19.2179 19.4405 19.0637C19.1963 18.9001 18.9234 18.8891 18.64 18.8911C18.6042 18.891 18.5685 18.8909 18.5317 18.8908C18.4544 18.8907 18.3771 18.8907 18.2998 18.8909C18.1767 18.8911 18.0537 18.8908 17.9306 18.8902C17.5807 18.8887 17.2309 18.8879 16.8811 18.8884C16.6666 18.8886 16.4521 18.8879 16.2376 18.8865C16.1566 18.8862 16.0756 18.8863 15.9946 18.8867C15.5099 18.8892 15.0808 18.8468 14.6159 18.7053C13.8477 18.4724 13.0197 18.5217 12.3091 18.8933C12.0942 19.0113 11.8995 19.1431 11.7175 19.3081C11.6911 19.3313 11.6647 19.3544 11.6375 19.3783C11.1645 19.8194 10.8694 20.397 10.562 20.9566C10.397 21.2559 10.222 21.549 10.044 21.8407C10.0231 21.8755 10.0021 21.9103 9.98052 21.9462C9.96196 21.9766 9.94341 22.007 9.9243 22.0384C9.87571 22.1217 9.87571 22.1217 9.88474 22.2405C9.908 22.2536 9.93126 22.2666 9.95522 22.2801C10.4473 22.5565 10.9373 22.8361 11.4244 23.1213C11.725 23.2972 12.0265 23.4718 12.3284 23.6456C12.8318 23.9356 13.3338 24.228 13.8353 24.5213C13.9407 24.4221 14.0071 24.3183 14.0778 24.1918C14.4112 23.5986 14.8792 23.1659 15.5433 22.9761C15.8654 22.8991 16.1762 22.8858 16.506 22.8836C16.5997 22.8824 16.6935 22.8812 16.7872 22.8801C16.9332 22.8784 17.0792 22.8769 17.2252 22.8758C18.855 22.8627 20.0108 22.455 21.4052 21.6238C21.6214 21.4957 21.8394 21.3705 22.0572 21.2452C22.1462 21.1939 22.2352 21.1427 22.3242 21.0914C22.3684 21.0659 22.4126 21.0405 22.4581 21.0142C22.6792 20.8868 22.9002 20.7593 23.1212 20.6318C23.2095 20.5809 23.2977 20.5299 23.386 20.479C23.4297 20.4538 23.4733 20.4286 23.5183 20.4027C24.9744 19.5627 24.9744 19.5627 25.1069 19.4862C25.1945 19.4357 25.282 19.3851 25.3695 19.3346C25.576 19.2152 25.7827 19.0962 25.9901 18.9784C26.0879 18.9228 26.1856 18.8671 26.2834 18.8112C26.3523 18.772 26.4214 18.733 26.4905 18.694C26.5323 18.6701 26.5741 18.6462 26.6171 18.6216C26.6723 18.5903 26.6723 18.5903 26.7286 18.5584C26.8317 18.4908 26.9106 18.4248 26.9904 18.3306C27.0272 18.1494 27.0284 18.0644 26.9286 17.9079C26.7215 17.6605 26.4947 17.4973 26.1758 17.4346C25.5436 17.379 25.0388 17.5716 24.4787 17.8437ZM8.66291 22.6071C8.54194 22.7778 8.4405 22.9556 8.34059 23.1393C8.29975 23.2119 8.25493 23.2823 8.20982 23.3524C8.06526 23.5771 7.97931 23.7482 7.98534 24.0182C8.05168 24.2632 8.17247 24.3666 8.3845 24.4944C8.4719 24.5438 8.55963 24.5926 8.64764 24.6409C8.69519 24.6676 8.7427 24.6943 8.79019 24.7211C8.88876 24.7766 8.98747 24.8319 9.0863 24.887C9.31315 25.0137 9.53772 25.1444 9.76256 25.2747C9.85079 25.3256 9.93904 25.3766 10.0273 25.4274C10.2038 25.5293 10.3803 25.6311 10.5567 25.7329C10.6005 25.7581 10.6442 25.7834 10.6893 25.8094C10.777 25.86 10.8647 25.9106 10.9524 25.9612C11.1569 26.0792 11.3615 26.1972 11.5662 26.315C11.6381 26.3564 11.71 26.3978 11.7819 26.4393C11.8717 26.491 11.9616 26.5427 12.0514 26.5944C12.1129 26.6298 12.1129 26.6298 12.1757 26.666C12.2347 26.6999 12.2347 26.6999 12.2949 26.7345C12.3717 26.7796 12.4478 26.8258 12.5233 26.873C12.5587 26.8952 12.5942 26.9174 12.6307 26.9403C12.6616 26.9601 12.6925 26.9799 12.7243 27.0004C12.8845 27.0798 13.052 27.0892 13.2244 27.0464C13.5067 26.918 13.6179 26.6587 13.7641 26.3973C13.8022 26.331 13.8022 26.331 13.8411 26.2634C14.0743 25.8871 14.0743 25.8871 14.1066 25.4595C14.0286 25.219 13.8175 25.0649 13.603 24.9506C13.5738 24.9358 13.5446 24.9209 13.5146 24.9056C13.4489 24.8706 13.3832 24.8355 13.3176 24.8003C13.2827 24.7817 13.2478 24.7631 13.2119 24.7439C13.0167 24.6376 12.8255 24.5244 12.6339 24.4118C12.5502 24.3628 12.4665 24.3138 12.3828 24.2648C12.3404 24.24 12.2981 24.2152 12.2544 24.1896C12.0368 24.0627 11.8186 23.9368 11.6004 23.8111C11.5567 23.7859 11.513 23.7607 11.468 23.7347C11.2877 23.6309 11.1075 23.527 10.9272 23.4232C10.8347 23.37 10.7422 23.3167 10.6498 23.2634C10.5599 23.2116 10.4699 23.1599 10.3799 23.1082C10.1846 22.9958 9.99003 22.8827 9.79804 22.7647C9.7667 22.7456 9.73536 22.7265 9.70307 22.7069C9.64689 22.6725 9.59098 22.6376 9.53544 22.6022C9.24602 22.4255 8.92883 22.3662 8.66291 22.6071Z" fill="white"/>
<path d="M21.3296 10.1453C21.896 10.5983 22.2927 11.1592 22.4139 11.8864C22.4835 12.544 22.383 13.1522 21.971 13.685C21.9086 13.7583 21.846 13.8316 21.7835 13.9049C21.2986 14.5134 21.3113 15.2843 21.3118 16.023C21.311 16.5552 21.2733 16.9514 20.8903 17.3551C20.5543 17.6549 20.1788 17.7426 19.7371 17.7361C19.3822 17.7016 19.038 17.5475 18.8045 17.2727C18.5718 16.9466 18.4672 16.6472 18.4661 16.2443C18.465 16.1793 18.464 16.1144 18.463 16.0494C18.4618 15.9488 18.4608 15.8482 18.46 15.7476C18.453 14.9797 18.3707 14.3572 17.8672 13.7466C17.3836 13.1574 17.3166 12.5581 17.379 11.8152C17.4688 11.1466 17.8856 10.5769 18.4099 10.1733C19.2655 9.58102 20.4662 9.54792 21.3296 10.1453ZM18.379 10.922C17.9573 11.4455 17.8452 12.0144 17.9084 12.6705C17.9625 13.0003 18.1417 13.218 18.3476 13.4689C18.6992 13.9023 18.8494 14.3725 18.9674 14.9105C19.1824 14.9105 19.3974 14.9105 19.619 14.9105C19.6198 14.8457 19.6206 14.781 19.6215 14.7143C19.6245 14.4745 19.6282 14.2347 19.6319 13.9949C19.6335 13.8911 19.6349 13.7872 19.6362 13.6834C19.638 13.5342 19.6404 13.3851 19.6429 13.236C19.6433 13.1894 19.6438 13.1429 19.6443 13.0949C19.6451 13.0517 19.6459 13.0084 19.6467 12.9639C19.6473 12.9259 19.6478 12.8878 19.6484 12.8486C19.6597 12.7519 19.6597 12.7519 19.7412 12.6297C19.8837 12.617 19.8837 12.617 20.0263 12.6297C20.1311 12.7345 20.1187 12.7766 20.1207 12.9223C20.1215 12.9663 20.1223 13.0104 20.1232 13.0557C20.1236 13.1034 20.1241 13.1511 20.1246 13.2002C20.1254 13.2489 20.1262 13.2976 20.127 13.3478C20.1294 13.5038 20.1313 13.6599 20.1332 13.8159C20.1347 13.9215 20.1363 14.0271 20.138 14.1327C20.1419 14.3919 20.1453 14.6512 20.1485 14.9105C20.3635 14.9105 20.5785 14.9105 20.8001 14.9105C20.8135 14.8554 20.8269 14.8002 20.8407 14.7434C20.9923 14.1508 21.1987 13.7381 21.5892 13.2686C21.7343 13.0929 21.8092 12.9326 21.859 12.7112C21.8683 12.6709 21.8775 12.6305 21.887 12.589C21.9423 12.0588 21.8471 11.5268 21.5205 11.0948C21.4711 11.0357 21.4211 10.9771 21.3703 10.9192C21.3495 10.894 21.3286 10.8689 21.3071 10.843C20.995 10.4952 20.5443 10.2891 20.0839 10.2575C19.4285 10.2301 18.8344 10.4318 18.379 10.922ZM19.0081 15.4399C19.0081 15.6415 19.0081 15.8431 19.0081 16.0509C19.586 16.0509 20.1639 16.0509 20.7594 16.0509C20.7594 15.8493 20.7594 15.6476 20.7594 15.4399C20.1815 15.4399 19.6035 15.4399 19.0081 15.4399ZM19.0488 16.5803C19.2105 16.9036 19.3205 17.0768 19.6597 17.1912C19.9473 17.2282 20.1979 17.2048 20.4336 17.0283C20.584 16.8867 20.6679 16.7832 20.7187 16.5803C20.1676 16.5803 19.6166 16.5803 19.0488 16.5803Z" fill="white"/>
<path d="M16.8491 8.84406C16.9709 8.92549 17.0712 9.02619 17.1749 9.12915C17.2112 9.16438 17.2475 9.19961 17.2849 9.23591C17.6183 9.56365 17.6183 9.56365 17.6331 9.73752C17.6229 9.86225 17.6229 9.86225 17.5797 9.93862C17.4864 9.99274 17.4082 10.0095 17.3005 10.0075C17.1045 9.95419 16.9687 9.77957 16.8313 9.63825C16.7976 9.60602 16.7639 9.57378 16.7292 9.54057C16.4611 9.27042 16.4611 9.27042 16.4531 9.06934C16.5004 8.83824 16.6329 8.80734 16.8491 8.84406Z" fill="white"/>
<path d="M23.6088 11.9639C23.6553 11.9641 23.7018 11.9643 23.7498 11.9644C23.7982 11.9654 23.8466 11.9664 23.8965 11.9674C23.9449 11.9675 23.9933 11.9675 24.0431 11.9676C24.4579 11.9718 24.4579 11.9718 24.5888 12.0642C24.6288 12.2083 24.6531 12.3017 24.5852 12.4387C24.4731 12.5445 24.3937 12.5326 24.2414 12.5324C24.1629 12.5324 24.1629 12.5324 24.0828 12.5325C24.0555 12.532 24.0283 12.5316 24.0002 12.5312C23.9171 12.53 23.834 12.5303 23.7509 12.5309C23.3488 12.5282 23.3488 12.5282 23.2497 12.4575C23.177 12.3499 23.1861 12.2717 23.2041 12.1456C23.3265 11.9858 23.411 11.9624 23.6088 11.9639Z" fill="white"/>
<path d="M15.8724 11.9565C15.9206 11.9564 15.9688 11.9563 16.0185 11.9562C16.4265 11.9608 16.4265 11.9608 16.5622 12.099C16.5922 12.3392 16.5922 12.3392 16.5161 12.4532C16.4049 12.5308 16.3175 12.5215 16.1829 12.5211C16.1324 12.5211 16.0819 12.5211 16.0299 12.521C15.9506 12.5201 15.9506 12.5201 15.8698 12.5191C15.817 12.5192 15.7642 12.5193 15.7098 12.5194C15.3159 12.5172 15.3159 12.5172 15.1774 12.4249C15.1367 12.3103 15.1367 12.3103 15.1367 12.1805C15.3118 11.9031 15.5715 11.9493 15.8724 11.9565Z" fill="white"/>
<path d="M19.8819 7.52441C20.0244 7.54223 20.0244 7.54223 20.0935 7.58837C20.1711 7.69954 20.1617 7.78696 20.1614 7.92151C20.1614 7.97201 20.1613 8.02252 20.1613 8.07456C20.1606 8.12737 20.16 8.18019 20.1593 8.2346C20.1594 8.28742 20.1596 8.34023 20.1597 8.39465C20.1575 8.78848 20.1575 8.78848 20.0651 8.92697C19.9506 8.9677 19.9506 8.9677 19.8208 8.9677C19.7144 8.90056 19.675 8.87184 19.6171 8.76406C19.5885 8.58629 19.5924 8.41168 19.5968 8.23206C19.5967 8.18384 19.5966 8.13561 19.5964 8.08593C19.6024 7.55934 19.6024 7.55934 19.8819 7.52441Z" fill="white"/>
<path d="M23.0801 8.8125C23.2025 8.84002 23.2025 8.84002 23.2839 8.90621C23.3392 9.03745 23.3189 9.11024 23.2839 9.2473C23.1831 9.38948 23.0565 9.50682 22.9327 9.62912C22.9003 9.66298 22.8679 9.69685 22.8345 9.73174C22.5641 10.0021 22.5641 10.0021 22.3894 10.0066C22.2657 9.9804 22.2657 9.9804 22.1868 9.91167C22.135 9.79879 22.1291 9.73722 22.1436 9.61385C22.2488 9.46492 22.3832 9.34218 22.5127 9.21421C22.5472 9.17822 22.5817 9.14223 22.6173 9.10515C22.9056 8.81685 22.9056 8.81685 23.0801 8.8125Z" fill="white"/>
</g>
<defs>
<clipPath id="clip0_3350_433206">
<rect width="20.8526" height="20.8526" fill="white" transform="translate(7.07422 7.13184)"/>
</clipPath>
</defs>
</svg>
