<svg width="67" height="12" viewBox="0 0 67 12" fill="none" xmlns="http://www.w3.org/2000/svg">
<path d="M1.99325 9L-0.00106533 2.45455H1.05575L2.47053 7.46591H2.53871L3.93643 2.45455H5.0103L6.39098 7.44886H6.45916L7.87393 2.45455H8.93075L6.93643 9H5.9478L4.51598 3.97159H4.41371L2.98189 9H1.99325ZM12.782 9.13636C12.1513 9.13636 11.6072 8.99716 11.1499 8.71875C10.6953 8.4375 10.3445 8.04545 10.0973 7.54261C9.85298 7.03693 9.73082 6.44886 9.73082 5.77841C9.73082 5.10795 9.85298 4.51705 10.0973 4.00568C10.3445 3.49148 10.6882 3.09091 11.1286 2.80398C11.5717 2.5142 12.0888 2.36932 12.6797 2.36932C13.0206 2.36932 13.3572 2.42614 13.6896 2.53977C14.022 2.65341 14.3246 2.83807 14.5973 3.09375C14.87 3.34659 15.0874 3.68182 15.2493 4.09943C15.4112 4.51705 15.4922 5.03125 15.4922 5.64205V6.06818H10.4467V5.19886H14.4695C14.4695 4.82955 14.3956 4.5 14.2479 4.21023C14.103 3.92045 13.8956 3.69176 13.6257 3.52415C13.3587 3.35653 13.0433 3.27273 12.6797 3.27273C12.2791 3.27273 11.9325 3.37216 11.6399 3.57102C11.3501 3.76705 11.1271 4.02273 10.9709 4.33807C10.8146 4.65341 10.7365 4.99148 10.7365 5.35227V5.93182C10.7365 6.42614 10.8217 6.84517 10.9922 7.18892C11.1655 7.52983 11.4055 7.78977 11.7124 7.96875C12.0192 8.14489 12.3757 8.23295 12.782 8.23295C13.0462 8.23295 13.2848 8.19602 13.4979 8.12216C13.7138 8.04545 13.8999 7.93182 14.0561 7.78125C14.2124 7.62784 14.3331 7.4375 14.4183 7.21023L15.3899 7.48295C15.2876 7.8125 15.1158 8.10227 14.8743 8.35227C14.6328 8.59943 14.3345 8.79261 13.9794 8.93182C13.6243 9.06818 13.2251 9.13636 12.782 9.13636ZM17.1584 9V0.272727H18.1641V3.49432H18.2493C18.3232 3.38068 18.4254 3.2358 18.5561 3.05966C18.6896 2.88068 18.88 2.72159 19.1271 2.58239C19.3771 2.44034 19.7152 2.36932 20.1413 2.36932C20.6925 2.36932 21.1783 2.5071 21.5987 2.78267C22.0192 3.05824 22.3473 3.44886 22.5831 3.95455C22.8189 4.46023 22.9368 5.05682 22.9368 5.74432C22.9368 6.4375 22.8189 7.03835 22.5831 7.54688C22.3473 8.05256 22.0206 8.4446 21.603 8.72301C21.1854 8.99858 20.7038 9.13636 20.1584 9.13636C19.7379 9.13636 19.4013 9.06676 19.1484 8.92756C18.8956 8.78551 18.701 8.625 18.5646 8.44602C18.4283 8.2642 18.3232 8.11364 18.2493 7.99432H18.13V9H17.1584ZM18.147 5.72727C18.147 6.22159 18.2195 6.65767 18.3643 7.03551C18.5092 7.41051 18.7209 7.70455 18.9993 7.91761C19.2777 8.12784 19.6186 8.23295 20.022 8.23295C20.4425 8.23295 20.7933 8.12216 21.0746 7.90057C21.3587 7.67614 21.5717 7.375 21.7138 6.99716C21.8587 6.61648 21.9311 6.19318 21.9311 5.72727C21.9311 5.26705 21.8601 4.85227 21.718 4.48295C21.5788 4.1108 21.3672 3.81676 21.0831 3.60085C20.8018 3.3821 20.4482 3.27273 20.022 3.27273C19.6129 3.27273 19.2692 3.37642 18.9908 3.58381C18.7124 3.78835 18.5021 4.07528 18.3601 4.4446C18.218 4.81108 18.147 5.23864 18.147 5.72727ZM29.1115 3.92045L28.2081 4.17614C28.1513 4.02557 28.0675 3.87926 27.9567 3.73722C27.8487 3.59233 27.701 3.47301 27.5135 3.37926C27.326 3.28551 27.0859 3.23864 26.7933 3.23864C26.3928 3.23864 26.0589 3.33097 25.7919 3.51562C25.5277 3.69744 25.3956 3.92898 25.3956 4.21023C25.3956 4.46023 25.4865 4.65767 25.6683 4.80256C25.8501 4.94744 26.1342 5.06818 26.5206 5.16477L27.4922 5.40341C28.0774 5.54545 28.5135 5.76278 28.8004 6.0554C29.0874 6.34517 29.2308 6.71875 29.2308 7.17614C29.2308 7.55114 29.1229 7.88636 28.907 8.18182C28.6939 8.47727 28.3956 8.71023 28.0121 8.88068C27.6286 9.05114 27.1825 9.13636 26.674 9.13636C26.0064 9.13636 25.4538 8.99148 25.0163 8.7017C24.5788 8.41193 24.3018 7.98864 24.1854 7.43182L25.1399 7.19318C25.2308 7.54545 25.4027 7.80966 25.6555 7.9858C25.9112 8.16193 26.245 8.25 26.657 8.25C27.1257 8.25 27.4979 8.15057 27.7734 7.9517C28.0518 7.75 28.1911 7.50852 28.1911 7.22727C28.1911 7 28.1115 6.80966 27.9524 6.65625C27.7933 6.5 27.549 6.38352 27.2195 6.30682L26.1286 6.05114C25.5291 5.90909 25.0888 5.68892 24.8075 5.39062C24.5291 5.08949 24.3899 4.71307 24.3899 4.26136C24.3899 3.89205 24.4936 3.56534 24.701 3.28125C24.9112 2.99716 25.1967 2.77415 25.5575 2.61222C25.9212 2.45028 26.3331 2.36932 26.7933 2.36932C27.4411 2.36932 27.9496 2.51136 28.3189 2.79545C28.6911 3.07955 28.9553 3.45455 29.1115 3.92045ZM30.7447 9V2.45455H31.7504V9H30.7447ZM31.256 1.36364C31.06 1.36364 30.891 1.29688 30.7489 1.16335C30.6097 1.02983 30.5401 0.869318 30.5401 0.681818C30.5401 0.494318 30.6097 0.333807 30.7489 0.200284C30.891 0.0667613 31.06 0 31.256 0C31.4521 0 31.6197 0.0667613 31.7589 0.200284C31.9009 0.333807 31.9719 0.494318 31.9719 0.681818C31.9719 0.869318 31.9009 1.02983 31.7589 1.16335C31.6197 1.29688 31.4521 1.36364 31.256 1.36364ZM36.4389 2.45455V3.30682H33.0469V2.45455H36.4389ZM34.0355 0.886364H35.0412V7.125C35.0412 7.40909 35.0824 7.62216 35.1648 7.7642C35.25 7.90341 35.358 7.99716 35.4886 8.04545C35.6222 8.09091 35.7628 8.11364 35.9105 8.11364C36.0213 8.11364 36.1122 8.10795 36.1832 8.09659C36.2543 8.08239 36.3111 8.07102 36.3537 8.0625L36.5582 8.96591C36.4901 8.99148 36.3949 9.01705 36.2727 9.04261C36.1506 9.07102 35.9957 9.08523 35.8082 9.08523C35.5241 9.08523 35.2457 9.02415 34.973 8.90199C34.7031 8.77983 34.4787 8.59375 34.2997 8.34375C34.1236 8.09375 34.0355 7.77841 34.0355 7.39773V0.886364ZM40.6257 9.13636C39.995 9.13636 39.451 8.99716 38.9936 8.71875C38.5391 8.4375 38.1882 8.04545 37.9411 7.54261C37.6967 7.03693 37.5746 6.44886 37.5746 5.77841C37.5746 5.10795 37.6967 4.51705 37.9411 4.00568C38.1882 3.49148 38.532 3.09091 38.9723 2.80398C39.4155 2.5142 39.9325 2.36932 40.5234 2.36932C40.8643 2.36932 41.201 2.42614 41.5334 2.53977C41.8658 2.65341 42.1683 2.83807 42.4411 3.09375C42.7138 3.34659 42.9311 3.68182 43.093 4.09943C43.255 4.51705 43.3359 5.03125 43.3359 5.64205V6.06818H38.2905V5.19886H42.3132C42.3132 4.82955 42.2393 4.5 42.0916 4.21023C41.9467 3.92045 41.7393 3.69176 41.4695 3.52415C41.2024 3.35653 40.8871 3.27273 40.5234 3.27273C40.1229 3.27273 39.7763 3.37216 39.4837 3.57102C39.1939 3.76705 38.9709 4.02273 38.8146 4.33807C38.6584 4.65341 38.5803 4.99148 38.5803 5.35227V5.93182C38.5803 6.42614 38.6655 6.84517 38.8359 7.18892C39.0092 7.52983 39.2493 7.78977 39.5561 7.96875C39.8629 8.14489 40.2195 8.23295 40.6257 8.23295C40.8899 8.23295 41.1286 8.19602 41.3416 8.12216C41.5575 8.04545 41.7436 7.93182 41.8999 7.78125C42.0561 7.62784 42.1768 7.4375 42.2621 7.21023L43.2337 7.48295C43.1314 7.8125 42.9595 8.10227 42.718 8.35227C42.4766 8.59943 42.1783 8.79261 41.8232 8.93182C41.468 9.06818 41.0689 9.13636 40.6257 9.13636ZM45.5987 9.06818C45.3885 9.06818 45.2081 8.9929 45.0575 8.84233C44.907 8.69176 44.8317 8.51136 44.8317 8.30114C44.8317 8.09091 44.907 7.91051 45.0575 7.75994C45.2081 7.60937 45.3885 7.53409 45.5987 7.53409C45.8089 7.53409 45.9893 7.60937 46.1399 7.75994C46.2905 7.91051 46.3658 8.09091 46.3658 8.30114C46.3658 8.44034 46.3303 8.56818 46.2592 8.68466C46.1911 8.80114 46.0987 8.89489 45.9822 8.96591C45.8686 9.03409 45.7408 9.06818 45.5987 9.06818ZM52.8068 3.92045L51.9034 4.17614C51.8466 4.02557 51.7628 3.87926 51.652 3.73722C51.544 3.59233 51.3963 3.47301 51.2088 3.37926C51.0213 3.28551 50.7812 3.23864 50.4886 3.23864C50.0881 3.23864 49.7543 3.33097 49.4872 3.51562C49.223 3.69744 49.0909 3.92898 49.0909 4.21023C49.0909 4.46023 49.1818 4.65767 49.3636 4.80256C49.5455 4.94744 49.8295 5.06818 50.2159 5.16477L51.1875 5.40341C51.7727 5.54545 52.2088 5.76278 52.4957 6.0554C52.7827 6.34517 52.9261 6.71875 52.9261 7.17614C52.9261 7.55114 52.8182 7.88636 52.6023 8.18182C52.3892 8.47727 52.0909 8.71023 51.7074 8.88068C51.3239 9.05114 50.8778 9.13636 50.3693 9.13636C49.7017 9.13636 49.1491 8.99148 48.7116 8.7017C48.2741 8.41193 47.9972 7.98864 47.8807 7.43182L48.8352 7.19318C48.9261 7.54545 49.098 7.80966 49.3509 7.9858C49.6065 8.16193 49.9403 8.25 50.3523 8.25C50.821 8.25 51.1932 8.15057 51.4688 7.9517C51.7472 7.75 51.8864 7.50852 51.8864 7.22727C51.8864 7 51.8068 6.80966 51.6477 6.65625C51.4886 6.5 51.2443 6.38352 50.9148 6.30682L49.8239 6.05114C49.2244 5.90909 48.7841 5.68892 48.5028 5.39062C48.2244 5.08949 48.0852 4.71307 48.0852 4.26136C48.0852 3.89205 48.1889 3.56534 48.3963 3.28125C48.6065 2.99716 48.892 2.77415 49.2528 2.61222C49.6165 2.45028 50.0284 2.36932 50.4886 2.36932C51.1364 2.36932 51.6449 2.51136 52.0142 2.79545C52.3864 3.07955 52.6506 3.45455 52.8068 3.92045ZM59.7923 2.45455L57.3718 9H56.3491L53.9286 2.45455H55.0195L56.8263 7.67045H56.8945L58.7013 2.45455H59.7923ZM63.5273 11.5909C63.0415 11.5909 62.6239 11.5284 62.2745 11.4034C61.9251 11.2812 61.6339 11.1193 61.4009 10.9176C61.1708 10.7188 60.9876 10.5057 60.8512 10.2784L61.6523 9.71591C61.7433 9.83523 61.8583 9.97159 61.9975 10.125C62.1367 10.2812 62.3271 10.4162 62.5685 10.5298C62.8129 10.6463 63.1325 10.7045 63.5273 10.7045C64.0558 10.7045 64.4918 10.5767 64.8356 10.321C65.1793 10.0653 65.3512 9.66477 65.3512 9.11932V7.78977H65.266C65.1921 7.90909 65.087 8.05682 64.9506 8.23295C64.8171 8.40625 64.6239 8.56108 64.3711 8.69744C64.1211 8.83097 63.783 8.89773 63.3569 8.89773C62.8285 8.89773 62.354 8.77273 61.9336 8.52273C61.516 8.27273 61.185 7.90909 60.9407 7.43182C60.6992 6.95455 60.5785 6.375 60.5785 5.69318C60.5785 5.02273 60.6964 4.43892 60.9322 3.94176C61.168 3.44176 61.4961 3.0554 61.9165 2.78267C62.337 2.5071 62.8228 2.36932 63.3739 2.36932C63.8001 2.36932 64.1381 2.44034 64.3881 2.58239C64.641 2.72159 64.8342 2.88068 64.9677 3.05966C65.104 3.2358 65.2092 3.38068 65.283 3.49432H65.3853V2.45455H66.3569V9.1875C66.3569 9.75 66.229 10.2074 65.9734 10.5597C65.7205 10.9148 65.3796 11.1747 64.9506 11.3395C64.5245 11.5071 64.0501 11.5909 63.5273 11.5909ZM63.4933 7.99432C63.8967 7.99432 64.2376 7.90199 64.516 7.71733C64.7944 7.53267 65.006 7.26705 65.1509 6.92045C65.2958 6.57386 65.3683 6.15909 65.3683 5.67614C65.3683 5.20455 65.2972 4.78835 65.1552 4.42756C65.0131 4.06676 64.8029 3.78409 64.5245 3.57955C64.2461 3.375 63.9023 3.27273 63.4933 3.27273C63.0671 3.27273 62.712 3.38068 62.4279 3.59659C62.1467 3.8125 61.935 4.10227 61.793 4.46591C61.6538 4.82955 61.5842 5.23295 61.5842 5.67614C61.5842 6.13068 61.6552 6.53267 61.7972 6.8821C61.9421 7.22869 62.1552 7.50142 62.4364 7.70028C62.7205 7.89631 63.0728 7.99432 63.4933 7.99432Z" fill="black"/>
</svg>
