<svg width="20" height="18" viewBox="0 0 20 18" fill="none" xmlns="http://www.w3.org/2000/svg">
<rect width="20" height="18" rx="3" fill="#00854D"/>
<g clip-path="url(#clip0_2651_177026)">
<path d="M7.63671 3.378C7.75088 3.48448 7.81859 3.61891 7.82923 3.775C7.83273 3.88152 7.83008 3.98781 7.82714 4.09431C7.82655 4.13163 7.82602 4.16895 7.82554 4.20628C7.82426 4.29691 7.82224 4.38749 7.81982 4.4781C7.8404 4.47076 7.86099 4.46343 7.8822 4.45587C8.48535 4.24148 9.09147 4.03566 9.69825 3.83184C9.78484 3.80275 9.87137 3.77352 9.95788 3.74418C10.0616 3.70902 10.1653 3.67415 10.2692 3.63948C10.3079 3.62649 10.3467 3.6134 10.3854 3.60021C10.439 3.58195 10.4927 3.56405 10.5465 3.54623C10.562 3.54087 10.5775 3.5355 10.5935 3.52998C10.7052 3.49354 10.7975 3.48671 10.9136 3.49372C10.9675 3.52421 10.9675 3.52421 11.0146 3.57136C11.0341 3.5903 11.0535 3.60925 11.0735 3.62876C11.0983 3.65405 11.1231 3.67935 11.1479 3.70466C11.1837 3.74049 11.2195 3.77628 11.2553 3.81205C11.3138 3.87048 11.3723 3.92897 11.4303 3.98786C11.5129 4.07136 11.5954 4.15327 11.6846 4.22962C11.8214 4.34708 11.9457 4.4777 12.0722 4.606C12.2051 4.74061 12.3394 4.87143 12.4839 4.99372C12.6636 5.14954 12.7991 5.33942 12.8354 5.57966C12.8391 5.65375 12.8394 5.72778 12.8396 5.80195C12.8397 5.82418 12.8399 5.84641 12.8401 5.86932C12.8405 5.94269 12.8408 6.01606 12.841 6.08943C12.8411 6.11451 12.8412 6.1396 12.8413 6.16545C12.8418 6.2981 12.8421 6.43074 12.8424 6.5634C12.8426 6.70045 12.8434 6.8375 12.8444 6.97456C12.845 7.07995 12.8452 7.18535 12.8452 7.29075C12.8454 7.34129 12.8456 7.39182 12.8461 7.44236C12.8466 7.51299 12.8466 7.58361 12.8465 7.65425C12.8469 7.68555 12.8469 7.68555 12.8474 7.71749C12.8466 7.81337 12.8431 7.86402 12.7922 7.94756C12.7272 8.00701 12.6888 8.01716 12.6011 8.01716C12.4941 7.96723 12.4941 7.96723 12.4604 7.89997C12.4579 7.82946 12.4568 7.75946 12.4567 7.68893C12.4566 7.66705 12.4565 7.64517 12.4564 7.62263C12.4561 7.57499 12.4559 7.52736 12.4558 7.47972C12.4555 7.40425 12.455 7.32878 12.4545 7.25331C12.4531 7.03868 12.4518 6.82405 12.451 6.60942C12.4505 6.47822 12.4497 6.34702 12.4487 6.21582C12.4483 6.16587 12.4481 6.11591 12.4481 6.06596C12.4479 5.99589 12.4474 5.92584 12.4468 5.85577C12.4468 5.83526 12.4469 5.81475 12.447 5.79362C12.4448 5.63408 12.4181 5.5027 12.3151 5.37522C12.2959 5.35713 12.2767 5.33903 12.2568 5.32038C12.2284 5.29315 12.2284 5.29315 12.1994 5.26536C12.1639 5.2332 12.1282 5.20115 12.0918 5.16997C11.9374 5.03773 11.7959 4.89325 11.6533 4.74864C11.4971 4.58991 11.4971 4.58991 11.3325 4.44001C11.2273 4.34838 11.1294 4.24863 11.0308 4.14997C11.023 5.5731 11.0153 6.99622 11.0073 8.46247C12.0468 8.45876 12.0468 8.45876 13.0863 8.45403C13.2877 8.4536 13.2877 8.4536 13.3821 8.45353C13.4478 8.45344 13.5135 8.45309 13.5792 8.45258C13.6632 8.45193 13.7471 8.45174 13.8311 8.45187C13.8762 8.45183 13.9213 8.45133 13.9665 8.45081C14.1668 8.45176 14.2997 8.49354 14.4702 8.59431C14.6358 8.76908 14.657 8.95892 14.6534 9.19065C14.6534 9.2204 14.6535 9.25015 14.6535 9.28081C14.6535 9.36167 14.6528 9.44251 14.652 9.52337C14.6513 9.60813 14.6512 9.6929 14.6511 9.77767C14.6507 9.93787 14.6497 10.0981 14.6486 10.2583C14.6473 10.4408 14.6466 10.6233 14.646 10.8058C14.6448 11.1809 14.6427 11.5561 14.6401 11.9312C14.6729 11.9308 14.6729 11.9308 14.7064 11.9303C14.7354 11.9301 14.7645 11.9298 14.7944 11.9296C14.8373 11.9291 14.8373 11.9291 14.8812 11.9286C15.195 11.9379 15.4662 12.0628 15.6933 12.2768C15.9486 12.5554 16.0144 12.8657 16.012 13.2339C16.012 13.2683 16.0121 13.3028 16.0122 13.3372C16.0124 13.4087 16.0122 13.4803 16.0117 13.5518C16.0112 13.6432 16.0115 13.7345 16.0121 13.8259C16.0124 13.8967 16.0123 13.9676 16.012 14.0384C16.012 14.0721 16.0121 14.1058 16.0123 14.1395C16.0139 14.4646 16.0139 14.4646 15.9058 14.6031C15.7749 14.7272 15.6564 14.7507 15.4803 14.7498C15.4611 14.7498 15.4419 14.7499 15.422 14.75C15.3573 14.7502 15.2926 14.7501 15.2279 14.75C15.1811 14.7501 15.1344 14.7502 15.0876 14.7503C14.9589 14.7506 14.8302 14.7506 14.7015 14.7505C14.5628 14.7505 14.424 14.7508 14.2853 14.751C14.0134 14.7514 13.7416 14.7515 13.4697 14.7516C13.2488 14.7516 13.0278 14.7517 12.8069 14.7518C12.7433 14.7519 12.6797 14.7519 12.6161 14.7519C12.6003 14.752 12.5845 14.752 12.5682 14.752C12.1236 14.7523 11.679 14.7525 11.2343 14.7524C11.2092 14.7524 11.2092 14.7524 11.1835 14.7524C11.0986 14.7524 11.0136 14.7524 10.9286 14.7524C10.9117 14.7524 10.8948 14.7524 10.8774 14.7524C10.8433 14.7524 10.8092 14.7524 10.7751 14.7524C10.244 14.7524 9.71296 14.7527 9.18191 14.7534C8.58539 14.7541 7.98887 14.7545 7.39235 14.7545C7.32875 14.7544 7.26515 14.7544 7.20155 14.7544C7.18588 14.7544 7.17022 14.7544 7.15409 14.7544C6.91762 14.7544 6.68116 14.7547 6.44469 14.7551C6.17575 14.7555 5.90682 14.7556 5.63789 14.7553C5.50063 14.7551 5.36338 14.7551 5.22613 14.7555C5.10051 14.7559 4.9749 14.7558 4.84928 14.7554C4.80381 14.7554 4.75834 14.7554 4.71287 14.7557C4.65108 14.756 4.58932 14.7558 4.52753 14.7554C4.50102 14.7557 4.50102 14.7557 4.47398 14.7561C4.33241 14.7542 4.20795 14.7141 4.10338 14.6152C4.01813 14.5169 3.99667 14.4424 3.99536 14.3154C3.99505 14.2901 3.99475 14.2648 3.99444 14.2388C3.99427 14.2114 3.9941 14.184 3.99392 14.1558C3.99373 14.1275 3.99354 14.0992 3.99335 14.07C3.99302 14.0099 3.99277 13.9498 3.99259 13.8897C3.99218 13.7986 3.99116 13.7075 3.99012 13.6164C3.98988 13.5579 3.98968 13.4994 3.98952 13.4409C3.98891 13.4006 3.98891 13.4006 3.98828 13.3594C3.98937 12.9478 4.15886 12.6171 4.44482 12.3297C4.45896 12.3147 4.4731 12.2998 4.48766 12.2843C4.7189 12.0586 5.0862 11.9312 5.40575 11.9312C5.40572 11.9181 5.40568 11.9049 5.40565 11.8914C5.40355 11.1114 5.40194 10.3315 5.40097 9.55157C5.40085 9.45787 5.40073 9.36417 5.4006 9.27047C5.40058 9.25182 5.40055 9.23317 5.40053 9.21395C5.40012 8.91212 5.39938 8.6103 5.39852 8.30848C5.39764 7.99866 5.39712 7.68884 5.39693 7.37902C5.3968 7.18792 5.3964 6.99683 5.39564 6.80574C5.39514 6.67461 5.39499 6.54348 5.39511 6.41234C5.39517 6.33674 5.39503 6.26115 5.39458 6.18555C5.39411 6.10342 5.39422 6.0213 5.39448 5.93917C5.39421 5.9155 5.39393 5.89183 5.39365 5.86745C5.39528 5.67347 5.44148 5.48487 5.57568 5.33796C5.58788 5.32403 5.60009 5.31011 5.61266 5.29576C5.78091 5.1496 5.9741 5.08468 6.18178 5.01536C6.23376 4.99799 6.28561 4.98026 6.33744 4.96246C6.37053 4.95122 6.40363 4.94001 6.43673 4.92881C6.45218 4.92354 6.46764 4.91827 6.48356 4.91284C6.54939 4.89098 6.60146 4.87654 6.67138 4.87654C6.67114 4.8561 6.67114 4.8561 6.67091 4.83525C6.66934 4.69266 6.66829 4.55007 6.66752 4.40747C6.66716 4.35435 6.66669 4.30122 6.66607 4.2481C6.66522 4.17148 6.66482 4.09486 6.66451 4.01823C6.66415 3.99471 6.66379 3.97119 6.66341 3.94696C6.66336 3.72202 6.70853 3.55694 6.86428 3.39201C7.08403 3.18584 7.39961 3.22458 7.63671 3.378ZM7.11962 3.67536C7.05329 3.7456 7.04342 3.79945 7.04372 3.89245C7.04372 3.91122 7.04372 3.92998 7.04372 3.94931C7.04384 3.96946 7.04397 3.9896 7.04409 4.01036C7.04412 4.03106 7.04416 4.05177 7.04419 4.07311C7.04432 4.13926 7.04462 4.20541 7.04491 4.27156C7.04503 4.3164 7.04514 4.36125 7.04523 4.40609C7.04549 4.51603 7.0459 4.62597 7.04638 4.73591C7.08643 4.72522 7.12647 4.71447 7.1665 4.70368C7.18879 4.6977 7.21109 4.69172 7.23406 4.68556C7.30511 4.66534 7.37492 4.64258 7.44482 4.61872C7.44714 4.49694 7.44884 4.37517 7.44997 4.25337C7.45044 4.21195 7.45108 4.17053 7.45189 4.12911C7.45303 4.06953 7.45356 4.00998 7.45397 3.95039C7.45446 3.9319 7.45494 3.91342 7.45544 3.89437C7.45547 3.81104 7.45238 3.76185 7.4024 3.6937C7.30468 3.62534 7.22212 3.61298 7.11962 3.67536ZM10.4663 3.97686C10.4412 3.98518 10.4162 3.99351 10.3904 4.00209C10.3629 4.01131 10.3354 4.02054 10.307 4.03004C10.2782 4.03967 10.2493 4.04929 10.2196 4.05921C10.1576 4.07986 10.0958 4.10055 10.0339 4.12128C9.94303 4.15172 9.85213 4.18202 9.76124 4.21232C9.433 4.32185 9.10529 4.43288 8.77793 4.54502C8.41469 4.66943 8.05097 4.79227 7.68661 4.91334C7.65362 4.9243 7.65362 4.9243 7.61997 4.93549C7.41843 5.00247 7.21686 5.06934 7.01527 5.13616C6.9029 5.1734 6.79056 5.21072 6.67823 5.24808C6.63624 5.26202 6.59424 5.27595 6.55223 5.28984C6.12502 5.401 6.12502 5.401 5.80419 5.67341C5.77859 5.75023 5.77784 5.8062 5.77787 5.88708C5.77782 5.91726 5.77778 5.94744 5.77773 5.97854C5.7778 6.01223 5.77786 6.04593 5.77794 6.07962C5.77793 6.11525 5.7779 6.15089 5.77787 6.18653C5.77782 6.28471 5.77792 6.38289 5.77803 6.48107C5.77813 6.58685 5.7781 6.69263 5.77808 6.79841C5.77807 6.98176 5.77814 7.16512 5.77828 7.34847C5.77847 7.61357 5.77853 7.87868 5.77856 8.14378C5.77861 8.57386 5.77876 9.00394 5.77899 9.43403C5.7792 9.85188 5.77937 10.2697 5.77947 10.6876C5.77947 10.7133 5.77948 10.7391 5.77949 10.7656C5.77952 10.8947 5.77955 11.0239 5.77957 11.153C5.77982 12.2249 5.78024 13.2968 5.78075 14.3687C6.07466 14.3687 6.36857 14.3687 6.67138 14.3687C6.67226 14.2747 6.67313 14.1807 6.67403 14.0839C6.67493 14.0085 6.67589 13.933 6.6769 13.8576C6.67794 13.7782 6.67887 13.6988 6.6795 13.6195C6.68029 13.5282 6.68151 13.4369 6.68282 13.3456C6.68297 13.3175 6.68312 13.2894 6.68328 13.2604C6.68651 13.074 6.70086 12.9095 6.81347 12.7559C6.99963 12.6173 7.24473 12.5707 7.46542 12.5095C7.49873 12.5001 7.53205 12.4908 7.56536 12.4815C7.63477 12.4621 7.70421 12.4428 7.77367 12.4236C7.86221 12.3991 7.95064 12.3742 8.03905 12.3492C8.10767 12.3299 8.17635 12.3108 8.24506 12.2918C8.27768 12.2827 8.31028 12.2735 8.34286 12.2643C8.74401 12.1507 8.74401 12.1507 8.9287 12.2169C9.01109 12.2724 9.0645 12.3346 9.10888 12.4234C9.11175 12.4849 9.11323 12.5458 9.11369 12.6073C9.11392 12.6263 9.11416 12.6453 9.11439 12.6648C9.11514 12.7277 9.11572 12.7906 9.11629 12.8535C9.11678 12.8971 9.11727 12.9406 9.11777 12.9842C9.11907 13.0989 9.12022 13.2137 9.12135 13.3284C9.12274 13.466 9.12429 13.6036 9.12581 13.7412C9.12811 13.9504 9.13019 14.1596 9.13232 14.3687C9.62732 14.3687 10.1223 14.3687 10.6323 14.3687C10.6323 13.0384 10.6323 11.7081 10.6323 10.3375C10.492 10.3687 10.3602 10.4014 10.225 10.447C10.1975 10.4562 10.1975 10.4562 10.1694 10.4655C10.1094 10.4855 10.0495 10.5056 9.98962 10.5257C9.94764 10.5397 9.90566 10.5537 9.86367 10.5677C9.77603 10.597 9.68841 10.6263 9.6008 10.6557C9.48864 10.6933 9.37643 10.7308 9.26421 10.7682C9.17766 10.7971 9.09113 10.826 9.0046 10.855C8.96322 10.8688 8.92185 10.8826 8.88047 10.8964C8.82269 10.9158 8.76493 10.9351 8.70717 10.9545C8.69017 10.9602 8.67317 10.9658 8.65566 10.9717C8.58837 10.9943 8.52183 11.0176 8.45596 11.0441C8.37267 11.0772 8.30746 11.0712 8.21825 11.064C8.17138 11.0391 8.17138 11.0391 8.14794 10.9937C8.13714 10.9089 8.13055 10.8543 8.18108 10.7828C8.26981 10.7142 8.36578 10.6864 8.47179 10.6521C8.49512 10.6443 8.51845 10.6365 8.54249 10.6285C8.6195 10.6029 8.69665 10.5777 8.7738 10.5524C8.82727 10.5347 8.88073 10.517 8.93419 10.4992C9.07482 10.4526 9.21556 10.4063 9.35633 10.3601C9.49999 10.3128 9.64354 10.2653 9.7871 10.2177C10.0687 10.1245 10.3505 10.0317 10.6323 9.93904C10.6323 9.65286 10.6323 9.36669 10.6323 9.07185C10.5057 9.09998 10.3917 9.12569 10.2707 9.16617C10.2289 9.18008 10.2289 9.18008 10.1862 9.19427C10.1562 9.20436 10.1262 9.21446 10.0962 9.22456C10.0644 9.23516 10.0327 9.24576 10.0009 9.25635C9.91634 9.28458 9.8318 9.31295 9.74727 9.34135C9.67687 9.36498 9.60645 9.38853 9.53602 9.41209C9.16195 9.53721 8.78815 9.6631 8.41499 9.79092C8.35922 9.81001 8.30343 9.82907 8.24764 9.84811C8.21099 9.86062 8.17434 9.87314 8.13769 9.88566C8.1198 9.89177 8.10192 9.89788 8.08349 9.90417C7.98278 9.93863 7.88217 9.97335 7.78164 10.0083C7.66801 10.0479 7.55425 10.087 7.4404 10.1259C7.39709 10.1408 7.35383 10.1558 7.31062 10.171C7.25099 10.1919 7.1912 10.2123 7.13134 10.2326C7.11395 10.2389 7.09657 10.2452 7.07865 10.2516C6.95197 10.2937 6.8491 10.2912 6.71825 10.2672C6.685 10.0676 6.685 10.0676 6.74169 9.98591C6.80659 9.95482 6.80659 9.95482 6.89303 9.9264C6.90935 9.92092 6.92567 9.91544 6.94249 9.90979C6.99899 9.89089 7.05564 9.8725 7.1123 9.85407C7.15381 9.84028 7.19531 9.82645 7.2368 9.81259C7.334 9.78015 7.43126 9.74788 7.52854 9.71569C7.72882 9.64925 7.92868 9.58157 8.12853 9.51386C8.20531 9.48786 8.2821 9.46186 8.35888 9.43586C8.37823 9.42931 8.39758 9.42276 8.41751 9.41601C9.15505 9.16628 9.89327 8.91865 10.6323 8.67341C10.6323 8.38724 10.6323 8.10107 10.6323 7.80622C10.4551 7.84531 10.4551 7.84531 10.2836 7.89624C10.2585 7.90458 10.2334 7.91291 10.2076 7.9215C10.1677 7.93495 10.1677 7.93495 10.1269 7.94868C10.0986 7.95812 10.0703 7.96757 10.0412 7.9773C9.96493 8.00276 9.88872 8.02835 9.81252 8.05397C9.74876 8.07539 9.68497 8.09673 9.62119 8.11807C9.27144 8.2351 8.92202 8.35305 8.57312 8.47258C8.51719 8.49173 8.46125 8.51084 8.4053 8.52993C8.36773 8.54275 8.33016 8.55558 8.29259 8.5684C8.27395 8.57476 8.25531 8.58112 8.2361 8.58768C8.1266 8.62509 8.01719 8.66275 7.90784 8.70064C7.77891 8.74529 7.64983 8.78952 7.52066 8.83349C7.47065 8.85061 7.42069 8.86787 7.37078 8.8853C7.30135 8.90952 7.23176 8.9332 7.1621 8.95677C7.14164 8.96405 7.12117 8.97133 7.10009 8.97883C6.96189 9.02477 6.8619 9.02679 6.71825 9.00154C6.69001 8.83205 6.69001 8.83205 6.70702 8.76833C6.76058 8.69411 6.837 8.67816 6.92094 8.65135C6.93944 8.64514 6.95793 8.63892 6.97699 8.63251C7.03853 8.61191 7.10022 8.59181 7.16192 8.5717C7.20541 8.55723 7.24889 8.54273 7.29236 8.5282C7.38339 8.49781 7.47448 8.4676 7.56562 8.43753C7.69593 8.39447 7.826 8.3507 7.95598 8.30664C7.98683 8.29618 7.98683 8.29618 8.01831 8.28551C8.05981 8.27144 8.10131 8.25737 8.14281 8.2433C8.24815 8.20762 8.35355 8.1721 8.45895 8.13659C8.50132 8.12231 8.5437 8.10803 8.58608 8.09375C8.61757 8.08314 8.61757 8.08314 8.6497 8.07231C8.73469 8.04367 8.81967 8.015 8.90465 7.98633C9.48012 7.7922 10.0561 7.59956 10.6323 7.40779C10.6323 7.12161 10.6323 6.83544 10.6323 6.5406C10.4616 6.57777 10.4616 6.57777 10.2965 6.62631C10.2742 6.63371 10.252 6.64111 10.229 6.64873C10.2055 6.65667 10.182 6.66462 10.1577 6.6728C10.1325 6.6812 10.1074 6.6896 10.0814 6.69826C9.99941 6.72568 9.91742 6.75325 9.83544 6.78083C9.77793 6.8001 9.72042 6.81935 9.66291 6.8386C9.35201 6.94279 9.04145 7.04795 8.73126 7.15424C8.67517 7.17345 8.61906 7.19261 8.56295 7.21175C8.54405 7.2182 8.52516 7.22465 8.50569 7.23129C8.4667 7.24459 8.42771 7.25789 8.38872 7.27118C8.27042 7.31155 8.1522 7.35215 8.03405 7.39294C7.8898 7.44272 7.74541 7.49204 7.60092 7.54112C7.54421 7.56046 7.48755 7.57996 7.43094 7.59962C7.35171 7.62711 7.27232 7.65405 7.19286 7.68089C7.16932 7.68919 7.14578 7.6975 7.12152 7.70606C6.97484 7.75483 6.87063 7.76437 6.71825 7.73591C6.68996 7.56615 6.68996 7.56615 6.70736 7.50259C6.75968 7.42955 6.83301 7.41385 6.91538 7.38758C6.93344 7.38151 6.9515 7.37544 6.9701 7.36919C7.03064 7.34892 7.09133 7.32915 7.15203 7.30937C7.1952 7.29501 7.23836 7.28062 7.28151 7.26619C7.37384 7.23537 7.46623 7.20473 7.55867 7.17422C7.7016 7.12698 7.84427 7.07896 7.98688 7.03071C8.0106 7.02269 8.03432 7.01467 8.05875 7.0064C8.10705 6.99007 8.15535 6.97373 8.20365 6.95739C8.32661 6.91584 8.44963 6.87445 8.57265 6.83306C8.59722 6.8248 8.62178 6.81653 8.64709 6.80802C8.69688 6.79127 8.74668 6.77452 8.79647 6.75776C8.8973 6.72384 8.99813 6.68988 9.09895 6.65593C9.60982 6.48391 10.1208 6.31222 10.6323 6.14216C10.6323 5.85599 10.6323 5.56982 10.6323 5.27497C10.4681 5.31023 10.4681 5.31023 10.3094 5.35639C10.29 5.36285 10.2705 5.3693 10.2505 5.37596C10.23 5.38288 10.2096 5.38979 10.1885 5.39692C10.1554 5.40796 10.1554 5.40796 10.1217 5.41921C10.0497 5.44329 9.97772 5.46753 9.90575 5.49177C9.85481 5.50884 9.80387 5.52591 9.75293 5.54297C9.46474 5.63961 9.17693 5.73735 8.88939 5.83591C8.77342 5.87562 8.65738 5.91515 8.54134 5.95468C8.41424 5.998 8.28722 6.04154 8.16026 6.08525C8.01675 6.13464 7.87312 6.18367 7.72938 6.23239C7.64988 6.25935 7.57043 6.28646 7.4911 6.31394C7.4021 6.34476 7.31288 6.37491 7.22363 6.40501C7.19701 6.41434 7.17039 6.42367 7.14296 6.43329C6.98846 6.48468 6.87867 6.50209 6.71825 6.47029C6.68997 6.30059 6.68997 6.30059 6.70728 6.237C6.7599 6.16366 6.83401 6.1479 6.91677 6.12149C6.94402 6.11233 6.94402 6.11233 6.97183 6.10299C7.03261 6.08264 7.09355 6.06278 7.1545 6.04292C7.19775 6.02853 7.24099 6.01411 7.28422 5.99966C7.37623 5.96895 7.46829 5.93842 7.5604 5.90802C7.70019 5.86182 7.8397 5.81486 7.97915 5.76766C8.00208 5.7599 8.02502 5.75215 8.04864 5.74415C8.09524 5.72838 8.14184 5.71261 8.18844 5.69684C8.307 5.65675 8.42561 5.61683 8.54423 5.57691C8.56789 5.56895 8.59156 5.56098 8.61594 5.55278C8.66389 5.53664 8.71183 5.52051 8.75978 5.50437C8.85665 5.47176 8.95351 5.43913 9.05038 5.4065C9.5774 5.22897 10.1046 5.05204 10.6323 4.87654C10.6323 4.56716 10.6323 4.25779 10.6323 3.93904C10.5711 3.93904 10.5245 3.95743 10.4663 3.97686ZM11.0073 8.83747C11.0073 10.2993 11.0073 11.7611 11.0073 13.2672C11.8581 13.2672 12.7089 13.2672 13.5854 13.2672C13.5932 13.1434 13.6009 13.0197 13.6089 12.8922C13.6925 12.5383 13.8715 12.2986 14.1714 12.0953C14.2025 12.0794 14.2337 12.0637 14.2651 12.0484C14.2673 11.6467 14.269 11.2449 14.27 10.8431C14.2705 10.6566 14.2711 10.4701 14.2722 10.2835C14.2731 10.121 14.2737 9.95838 14.2739 9.7958C14.2741 9.70971 14.2744 9.62362 14.275 9.53752C14.2758 9.44145 14.2758 9.34538 14.2758 9.2493C14.2763 9.20641 14.2763 9.20641 14.2768 9.16266C14.2767 9.1365 14.2765 9.11034 14.2764 9.08339C14.2765 9.04929 14.2765 9.04929 14.2767 9.01451C14.2618 8.93738 14.2312 8.91004 14.1714 8.86091C14.111 8.83073 14.0681 8.83459 14.0005 8.83465C13.9743 8.83462 13.9481 8.83459 13.921 8.83456C13.892 8.83464 13.8629 8.83473 13.833 8.83481C13.7867 8.83481 13.7867 8.83481 13.7394 8.8348C13.6556 8.8348 13.5719 8.83494 13.4881 8.8351C13.4096 8.83523 13.331 8.83524 13.2525 8.83526C13.0227 8.83538 12.7928 8.83571 12.563 8.83601C11.7929 8.83673 11.7929 8.83673 11.0073 8.83747ZM14.0956 12.6475C13.9481 12.8511 13.9604 13.0028 13.9604 13.2672C14.5173 13.2672 15.0742 13.2672 15.6479 13.2672C15.6388 12.9618 15.6388 12.9618 15.5308 12.7047C15.5208 12.6883 15.5109 12.672 15.5007 12.6552C15.3809 12.4782 15.2133 12.3708 15.0073 12.3172C14.6438 12.2533 14.3309 12.3659 14.0956 12.6475ZM4.67333 12.6226C4.49587 12.81 4.40656 13.0107 4.3745 13.2672C4.71482 13.2672 5.05513 13.2672 5.40575 13.2672C5.40575 12.9501 5.40575 12.6329 5.40575 12.3062C5.12845 12.3062 4.87323 12.4387 4.67333 12.6226ZM8.41601 12.6212C8.38847 12.6288 8.36093 12.6364 8.33256 12.6443C8.30641 12.6516 8.28026 12.6589 8.25332 12.6665C8.22919 12.6732 8.20507 12.68 8.18021 12.6869C8.12613 12.6994 8.12613 12.6994 8.10107 12.7281C8.09886 12.7791 8.09831 12.8303 8.09841 12.8814C8.0984 12.8974 8.0984 12.9134 8.0984 12.9299C8.09841 12.983 8.09859 13.0361 8.09878 13.0893C8.09882 13.126 8.09885 13.1628 8.09888 13.1995C8.09897 13.2964 8.0992 13.3933 8.09946 13.4902C8.0997 13.5891 8.0998 13.6879 8.09992 13.7867C8.10017 13.9807 8.10059 14.1747 8.10107 14.3687C8.31763 14.3687 8.53419 14.3687 8.75732 14.3687C8.75732 13.7654 8.75732 13.1622 8.75732 12.5406C8.64299 12.5406 8.52537 12.5904 8.41601 12.6212ZM7.41259 12.8995C7.38534 12.9067 7.35809 12.914 7.33001 12.9214C7.30391 12.9286 7.2778 12.9358 7.25091 12.9432C7.22688 12.9497 7.20285 12.9562 7.17809 12.9629C7.11315 12.9872 7.08793 13.0017 7.04638 13.0562C7.03618 13.1163 7.03618 13.1163 7.0384 13.1847C7.0384 13.211 7.03841 13.2372 7.03841 13.2643C7.03878 13.2926 7.03914 13.321 7.03951 13.3502C7.03961 13.3792 7.03971 13.4083 7.03981 13.4382C7.04014 13.5153 7.04077 13.5924 7.04155 13.6695C7.04227 13.7482 7.0426 13.8269 7.04295 13.9056C7.04366 14.06 7.04504 14.2143 7.04638 14.3687C7.27068 14.3687 7.49497 14.3687 7.72607 14.3687C7.72607 13.8583 7.72607 13.3478 7.72607 12.8218C7.62456 12.8218 7.50989 12.8729 7.41259 12.8995ZM4.35107 13.6422C4.3501 13.7446 4.34913 13.8471 4.34814 13.9527C4.34771 13.9849 4.34728 14.0171 4.34684 14.0502C4.34673 14.0757 4.34661 14.1012 4.34649 14.1274C4.34624 14.1534 4.346 14.1794 4.34574 14.2062C4.34728 14.2821 4.34728 14.2821 4.39794 14.3687C4.73052 14.3687 5.0631 14.3687 5.40575 14.3687C5.40575 14.129 5.40575 13.8892 5.40575 13.6422C5.05771 13.6422 4.70966 13.6422 4.35107 13.6422ZM11.0073 13.6422C11.0073 13.8819 11.0073 14.1217 11.0073 14.3687C11.8581 14.3687 12.7089 14.3687 13.5854 14.3687C13.5854 14.129 13.5854 13.8892 13.5854 13.6422C12.7347 13.6422 11.8839 13.6422 11.0073 13.6422ZM13.9604 13.6422C13.9604 13.8819 13.9604 14.1217 13.9604 14.3687C14.5018 14.3687 15.0433 14.3687 15.6011 14.3687C15.7096 14.1517 15.6479 13.8849 15.6479 13.6422C15.0911 13.6422 14.5342 13.6422 13.9604 13.6422Z" fill="white"/>
<path d="M11.8346 10.5825C11.8631 10.5823 11.8631 10.5823 11.8923 10.5821C11.955 10.5818 12.0177 10.5822 12.0804 10.5826C12.1241 10.5826 12.1678 10.5826 12.2115 10.5825C12.303 10.5825 12.3945 10.5828 12.486 10.5833C12.6032 10.584 12.7203 10.5839 12.8375 10.5836C12.9277 10.5835 13.0179 10.5837 13.1081 10.584C13.1513 10.5841 13.1946 10.5841 13.2378 10.584C13.2982 10.5839 13.3586 10.5843 13.419 10.5848C13.4368 10.5847 13.4546 10.5846 13.473 10.5845C13.5778 10.586 13.6449 10.6001 13.7284 10.6646C13.827 10.7958 13.8099 10.9531 13.8089 11.1099C13.8094 11.1372 13.8099 11.1644 13.8104 11.1925C13.8102 11.4487 13.8102 11.4487 13.7049 11.5552C13.596 11.6219 13.504 11.6358 13.3788 11.635C13.3608 11.6352 13.3427 11.6353 13.3241 11.6355C13.2648 11.6359 13.2055 11.6358 13.1462 11.6357C13.1047 11.6358 13.0633 11.6359 13.0218 11.6361C12.9351 11.6363 12.8484 11.6362 12.7616 11.636C12.6507 11.6357 12.5398 11.6362 12.4289 11.6369C12.3433 11.6373 12.2578 11.6373 12.1722 11.6372C12.1314 11.6372 12.0905 11.6373 12.0496 11.6376C11.9923 11.6379 11.9351 11.6377 11.8778 11.6373C11.8527 11.6376 11.8527 11.6376 11.8271 11.638C11.6994 11.6361 11.6279 11.6028 11.5252 11.5318C11.4383 11.3943 11.4443 11.2558 11.4461 11.0967C11.4459 11.0729 11.4456 11.0491 11.4453 11.0246C11.4459 10.8658 11.4584 10.7558 11.5744 10.6382C11.6617 10.5819 11.7341 10.5812 11.8346 10.5825ZM11.8299 10.9693C11.8299 11.0621 11.8299 11.1549 11.8299 11.2505C12.3559 11.2505 12.8818 11.2505 13.4237 11.2505C13.4237 11.1577 13.4237 11.0649 13.4237 10.9693C12.8977 10.9693 12.3718 10.9693 11.8299 10.9693Z" fill="white"/>
<path d="M11.8346 9.24658C11.8631 9.24639 11.8631 9.24639 11.8923 9.2462C11.955 9.2459 12.0177 9.24629 12.0804 9.24671C12.1241 9.24671 12.1678 9.24667 12.2115 9.24661C12.303 9.24658 12.3945 9.24687 12.486 9.2474C12.6032 9.24807 12.7203 9.248 12.8375 9.24771C12.9277 9.24754 13.0179 9.24773 13.1081 9.24802C13.1513 9.24812 13.1946 9.24813 13.2378 9.24804C13.2982 9.24797 13.3586 9.24836 13.419 9.24887C13.4368 9.24876 13.4546 9.24866 13.473 9.24855C13.5778 9.25002 13.6449 9.26411 13.7284 9.32865C13.827 9.45989 13.8099 9.61711 13.8089 9.77396C13.8094 9.80122 13.8099 9.82847 13.8104 9.85654C13.8102 10.1128 13.8102 10.1128 13.7049 10.2193C13.596 10.286 13.504 10.2998 13.3788 10.2991C13.3608 10.2992 13.3427 10.2994 13.3241 10.2995C13.2648 10.3 13.2055 10.2999 13.1462 10.2998C13.1047 10.2999 13.0633 10.3 13.0218 10.3001C12.9351 10.3003 12.8484 10.3003 12.7616 10.3C12.6507 10.2998 12.5398 10.3002 12.4289 10.3009C12.3433 10.3014 12.2578 10.3014 12.1722 10.3012C12.1314 10.3012 12.0905 10.3014 12.0496 10.3016C11.9923 10.302 11.9351 10.3017 11.8778 10.3013C11.8527 10.3017 11.8527 10.3017 11.8271 10.302C11.6994 10.3002 11.6279 10.2669 11.5252 10.1958C11.4383 10.0584 11.4443 9.91988 11.4461 9.76078C11.4459 9.73699 11.4456 9.7132 11.4453 9.68868C11.4459 9.52981 11.4584 9.41984 11.5744 9.30223C11.6617 9.24592 11.7341 9.2453 11.8346 9.24658ZM11.8299 9.6099C11.8299 9.71045 11.8299 9.81099 11.8299 9.91459C12.3559 9.91459 12.8818 9.91459 13.4237 9.91459C13.4237 9.81404 13.4237 9.71349 13.4237 9.6099C12.8977 9.6099 12.3718 9.6099 11.8299 9.6099Z" fill="white"/>
<path d="M11.9949 11.9221C12.0285 11.9219 12.0621 11.9214 12.0958 11.9207C12.4531 11.9133 12.4531 11.9133 12.5788 12.0228C12.6767 12.1494 12.6603 12.3035 12.6593 12.4564C12.6601 12.4956 12.6601 12.4956 12.6608 12.5356C12.6607 12.684 12.6578 12.779 12.5553 12.89C12.472 12.9719 12.3892 12.9713 12.2779 12.9713C12.2513 12.9716 12.2513 12.9716 12.2242 12.9718C12.1867 12.9721 12.1492 12.9721 12.1118 12.972C12.0547 12.972 11.9977 12.973 11.9407 12.974C11.9042 12.9742 11.8677 12.9742 11.8312 12.9742C11.8142 12.9746 11.7973 12.975 11.7799 12.9754C11.6914 12.9742 11.6313 12.9616 11.562 12.9082C11.4332 12.7716 11.4459 12.6363 11.4465 12.4579C11.4461 12.4339 11.4457 12.4099 11.4453 12.3851C11.4452 12.2241 11.4626 12.1174 11.571 11.992C11.6865 11.8946 11.8515 11.9229 11.9949 11.9221ZM11.8288 12.3041C11.8288 12.4046 11.8288 12.5051 11.8288 12.6087C11.9757 12.6087 12.1227 12.6087 12.2741 12.6087C12.2741 12.5082 12.2741 12.4076 12.2741 12.3041C12.1271 12.3041 11.9802 12.3041 11.8288 12.3041Z" fill="white"/>
<path d="M7.60938 10.9927C7.66797 11.0294 7.66797 11.0294 7.70312 11.0865C7.71484 11.1685 7.71484 11.1685 7.70312 11.2505C7.63386 11.3381 7.56127 11.369 7.45731 11.4055C7.44274 11.4107 7.42818 11.4158 7.41317 11.4211C7.38247 11.4318 7.35172 11.4424 7.32092 11.4528C7.27415 11.4687 7.22765 11.4853 7.18114 11.502C7.15114 11.5124 7.12112 11.5227 7.09109 11.533C7.05057 11.547 7.05057 11.547 7.00922 11.5613C6.90747 11.5835 6.81192 11.5846 6.72168 11.5274C6.68306 11.4652 6.6748 11.4173 6.67188 11.3443C6.70661 11.2641 6.73123 11.2328 6.80959 11.1923C6.8365 11.1831 6.86341 11.1739 6.89114 11.1644C6.90569 11.1594 6.92023 11.1543 6.93521 11.1491C6.96593 11.1386 6.99673 11.1283 7.02759 11.1181C7.07433 11.1027 7.12077 11.0866 7.16722 11.0703C7.31618 11.0193 7.45094 10.9736 7.60938 10.9927Z" fill="white"/>
</g>
<defs>
<clipPath id="clip0_2651_177026">
<rect width="12" height="12" fill="white" transform="translate(4 3)"/>
</clipPath>
</defs>
</svg>
