<svg width="20" height="19" viewBox="0 0 20 19" fill="none" xmlns="http://www.w3.org/2000/svg">
<rect width="20" height="19" rx="3" fill="#FFCB00"/>
<g clip-path="url(#clip0_2635_293062)">
<path d="M9.73025 4.14082C7.6654 4.25039 5.87712 5.2752 4.89743 6.91016C4.44509 7.66211 4.21775 8.4377 4.19431 9.30566C4.1779 9.90937 4.22947 10.3412 4.38884 10.8654C4.96072 12.7797 6.59431 14.2299 8.699 14.6875C9.15837 14.7885 9.43493 14.8164 10.0115 14.8164C10.717 14.8164 11.1623 14.7541 11.7927 14.5693C12.224 14.4426 12.7935 14.1977 13.042 14.0344C13.4076 13.7895 13.2904 13.2373 12.8498 13.1277C12.6834 13.0869 12.5638 13.1148 12.2029 13.2867C11.6896 13.5316 11.2865 13.6541 10.7146 13.7465C10.3888 13.7959 9.61072 13.7959 9.28493 13.7465C8.25603 13.5832 7.41462 13.19 6.69275 12.5305C4.8904 10.8848 4.85525 8.22285 6.61072 6.53848C7.86931 5.33105 9.74431 4.89922 11.4646 5.41914C12.1865 5.63828 12.8217 6.00352 13.3513 6.5041C13.7427 6.87578 13.9842 7.18945 14.2185 7.63418C14.7037 8.55801 14.8138 9.58926 14.5326 10.5861C14.4459 10.8998 14.3896 11.0137 14.2631 11.1426C13.8342 11.5723 13.0467 11.409 12.8568 10.8504C12.8146 10.7258 12.8123 10.6312 12.8123 9.04355C12.8123 7.78887 12.8052 7.34414 12.7842 7.27754C12.7232 7.09277 12.4654 6.9209 12.2498 6.9209C11.9802 6.9209 11.6873 7.17012 11.6873 7.4C11.6873 7.42793 11.6451 7.41074 11.5209 7.3377C10.8271 6.9252 9.94118 6.81348 9.15603 7.04121C8.71072 7.16797 8.3615 7.36562 8.01697 7.68145C7.63493 8.02949 7.4029 8.40117 7.26228 8.88242C7.20368 9.08437 7.199 9.13164 7.20134 9.50977C7.20134 9.8793 7.20837 9.9373 7.26228 10.1221C7.61618 11.323 8.7904 12.1266 10.1052 12.0686C10.7474 12.0406 11.3076 11.843 11.8185 11.4648L11.8912 11.4111L11.9802 11.5486C12.1771 11.858 12.5685 12.1609 12.9365 12.292C13.4099 12.4617 13.9373 12.4574 14.4107 12.2834C14.842 12.1223 15.2217 11.7871 15.4232 11.3854C15.5568 11.1211 15.6998 10.6141 15.7701 10.165C15.8099 9.90293 15.8099 9.08008 15.7701 8.82227C15.606 7.77383 15.2052 6.90586 14.5209 6.12813C13.5904 5.06465 12.1935 4.34922 10.7381 4.18379C10.4357 4.14941 9.95759 4.13008 9.73025 4.14082ZM10.3092 7.98223C10.5482 8.0252 10.7193 8.0875 10.9185 8.20781C11.1552 8.34961 11.3779 8.57734 11.4974 8.79648C11.6404 9.06289 11.6756 9.20469 11.6732 9.52051C11.6709 9.75039 11.6615 9.81484 11.6099 9.96094C11.5209 10.208 11.399 10.3863 11.1834 10.584C10.9677 10.7816 10.7732 10.8934 10.5037 10.975C10.3443 11.0223 10.274 11.0309 10.0232 11.033C9.67868 11.0352 9.524 11.0029 9.23337 10.8719C8.89353 10.7172 8.56072 10.382 8.42947 10.0619C8.249 9.62363 8.29118 9.11875 8.53962 8.72559C8.64978 8.55371 8.95681 8.26797 9.13962 8.16914C9.49587 7.97793 9.90837 7.91133 10.3092 7.98223Z" fill="white"/>
</g>
<defs>
<clipPath id="clip0_2635_293062">
<rect width="12" height="11" fill="white" transform="translate(4 4)"/>
</clipPath>
</defs>
</svg>
