<svg width="48" height="15" viewBox="0 0 48 15" fill="none" xmlns="http://www.w3.org/2000/svg">
<path d="M4.62246 12.1289C4.62246 12.6367 4.86334 12.8906 5.34512 12.8906H7.57168C8.02741 12.8906 8.33991 12.806 8.50918 12.6367C8.67845 12.4674 8.80866 12.1029 8.8998 11.543C8.96491 11.1263 9.26439 10.944 9.79824 10.9961C10.3451 11.0352 10.6186 11.2435 10.6186 11.6211L10.4818 14.6484H2.16152V2.67578C2.16152 2.25911 2.12897 1.99219 2.06387 1.875C2.01178 1.74479 1.94017 1.66667 1.84902 1.64062C1.60163 1.57552 1.38678 1.4974 1.20449 1.40625C1.0222 1.3151 0.931053 1.14583 0.931053 0.898438C0.931053 0.481771 1.20449 0.273438 1.75137 0.273438H3.82168C4.35553 0.273438 4.62246 0.481771 4.62246 0.898438V12.1289ZM10.3451 7.38281C10.3451 5.23438 10.879 3.47005 11.9467 2.08984C13.0274 0.696615 14.5574 0 16.5365 0C18.5157 0 20.0456 0.696615 21.1264 2.08984C22.2071 3.47005 22.7475 5.23438 22.7475 7.38281C22.7475 9.53125 22.2071 11.3021 21.1264 12.6953C20.0456 14.0755 18.5157 14.7656 16.5365 14.7656C14.5574 14.7656 13.0274 14.0755 11.9467 12.6953C10.879 11.3021 10.3451 9.53125 10.3451 7.38281ZM12.8842 7.38281C12.8842 9.20573 13.2423 10.6055 13.9584 11.582C14.6745 12.5456 15.5339 13.0273 16.5365 13.0273C17.5391 13.0273 18.3985 12.5456 19.1146 11.582C19.8438 10.6055 20.2084 9.20573 20.2084 7.38281C20.2084 5.5599 19.8438 4.16016 19.1146 3.18359C18.3985 2.20703 17.5391 1.71875 16.5365 1.71875C15.5339 1.71875 14.6745 2.20703 13.9584 3.18359C13.2423 4.16016 12.8842 5.5599 12.8842 7.38281ZM34.0561 7.65625V13.5742C33.0534 14.2643 31.7774 14.6549 30.2279 14.7461C28.6915 14.8372 27.4024 14.5703 26.3607 13.9453C25.3972 13.3594 24.6094 12.5195 23.9975 11.4258C23.3985 10.332 23.0925 8.96484 23.0795 7.32422C23.0795 5.14974 23.6068 3.38542 24.6615 2.03125C25.7162 0.677083 27.2852 0 29.3686 0C30.7097 0 31.8295 0.358073 32.7279 1.07422C33.6394 1.79036 34.0951 2.63672 34.0951 3.61328H31.4975C31.4714 3.01432 31.237 2.55208 30.7943 2.22656C30.3646 1.90104 29.8568 1.73828 29.2709 1.73828C28.3725 1.73828 27.5391 2.18099 26.7709 3.06641C26.0157 3.9388 25.6381 5.25391 25.6381 7.01172C25.6381 8.92578 26.0417 10.3906 26.849 11.4062C27.6563 12.4089 28.6459 12.9362 29.8178 12.9883C30.0652 12.9883 30.3516 12.9753 30.6771 12.9492C31.0157 12.9232 31.3217 12.8646 31.5951 12.7734V9.88281C31.5951 9.19271 31.4714 8.76953 31.224 8.61328C30.9896 8.44401 30.5404 8.35286 29.8764 8.33984C29.4857 8.33984 29.2904 8.11198 29.2904 7.65625C29.2904 7.1875 29.4402 6.95312 29.7396 6.95312H33.3139C33.8087 6.95312 34.0561 7.1875 34.0561 7.65625ZM34.8178 7.38281C34.8178 5.23438 35.3516 3.47005 36.4193 2.08984C37.5001 0.696615 39.03 0 41.0092 0C42.9883 0 44.5183 0.696615 45.599 2.08984C46.6798 3.47005 47.2201 5.23438 47.2201 7.38281C47.2201 9.53125 46.6798 11.3021 45.599 12.6953C44.5183 14.0755 42.9883 14.7656 41.0092 14.7656C39.03 14.7656 37.5001 14.0755 36.4193 12.6953C35.3516 11.3021 34.8178 9.53125 34.8178 7.38281ZM37.3568 7.38281C37.3568 9.20573 37.7149 10.6055 38.4311 11.582C39.1472 12.5456 40.0066 13.0273 41.0092 13.0273C42.0118 13.0273 42.8712 12.5456 43.5873 11.582C44.3165 10.6055 44.6811 9.20573 44.6811 7.38281C44.6811 5.5599 44.3165 4.16016 43.5873 3.18359C42.8712 2.20703 42.0118 1.71875 41.0092 1.71875C40.0066 1.71875 39.1472 2.20703 38.4311 3.18359C37.7149 4.16016 37.3568 5.5599 37.3568 7.38281Z" fill="white"/>
</svg>
