<svg width="208" height="171" viewBox="0 0 208 171" fill="none" xmlns="http://www.w3.org/2000/svg">
<path d="M75.6225 91.1289C75.6225 91.6367 75.8633 91.8906 76.3451 91.8906H78.5717C79.0274 91.8906 79.3399 91.806 79.5092 91.6367C79.6784 91.4674 79.8087 91.1029 79.8998 90.543C79.9649 90.1263 80.2644 89.944 80.7982 89.9961C81.3451 90.0352 81.6186 90.2435 81.6186 90.6211L81.4818 93.6484H73.1615V81.6758C73.1615 81.2591 73.129 80.9922 73.0639 80.875C73.0118 80.7448 72.9402 80.6667 72.849 80.6406C72.6016 80.5755 72.3868 80.4974 72.2045 80.4062C72.0222 80.3151 71.9311 80.1458 71.9311 79.8984C71.9311 79.4818 72.2045 79.2734 72.7514 79.2734H74.8217C75.3555 79.2734 75.6225 79.4818 75.6225 79.8984V91.1289ZM81.3451 86.3828C81.3451 84.2344 81.879 82.4701 82.9467 81.0898C84.0274 79.6966 85.5574 79 87.5365 79C89.5157 79 91.0456 79.6966 92.1264 81.0898C93.2071 82.4701 93.7475 84.2344 93.7475 86.3828C93.7475 88.5312 93.2071 90.3021 92.1264 91.6953C91.0456 93.0755 89.5157 93.7656 87.5365 93.7656C85.5574 93.7656 84.0274 93.0755 82.9467 91.6953C81.879 90.3021 81.3451 88.5312 81.3451 86.3828ZM83.8842 86.3828C83.8842 88.2057 84.2423 89.6055 84.9584 90.582C85.6745 91.5456 86.5339 92.0273 87.5365 92.0273C88.5391 92.0273 89.3985 91.5456 90.1146 90.582C90.8438 89.6055 91.2084 88.2057 91.2084 86.3828C91.2084 84.5599 90.8438 83.1602 90.1146 82.1836C89.3985 81.207 88.5391 80.7188 87.5365 80.7188C86.5339 80.7188 85.6745 81.207 84.9584 82.1836C84.2423 83.1602 83.8842 84.5599 83.8842 86.3828ZM105.056 86.6562V92.5742C104.053 93.2643 102.777 93.6549 101.228 93.7461C99.6915 93.8372 98.4024 93.5703 97.3607 92.9453C96.3972 92.3594 95.6094 91.5195 94.9975 90.4258C94.3985 89.332 94.0925 87.9648 94.0795 86.3242C94.0795 84.1497 94.6068 82.3854 95.6615 81.0312C96.7162 79.6771 98.2852 79 100.369 79C101.71 79 102.829 79.3581 103.728 80.0742C104.639 80.7904 105.095 81.6367 105.095 82.6133H102.497C102.471 82.0143 102.237 81.5521 101.794 81.2266C101.365 80.901 100.857 80.7383 100.271 80.7383C99.3725 80.7383 98.5391 81.181 97.7709 82.0664C97.0157 82.9388 96.6381 84.2539 96.6381 86.0117C96.6381 87.9258 97.0417 89.3906 97.849 90.4062C98.6563 91.4089 99.6459 91.9362 100.818 91.9883C101.065 91.9883 101.352 91.9753 101.677 91.9492C102.016 91.9232 102.322 91.8646 102.595 91.7734V88.8828C102.595 88.1927 102.471 87.7695 102.224 87.6133C101.99 87.444 101.54 87.3529 100.876 87.3398C100.486 87.3398 100.29 87.112 100.29 86.6562C100.29 86.1875 100.44 85.9531 100.74 85.9531H104.314C104.809 85.9531 105.056 86.1875 105.056 86.6562ZM105.818 86.3828C105.818 84.2344 106.352 82.4701 107.419 81.0898C108.5 79.6966 110.03 79 112.009 79C113.988 79 115.518 79.6966 116.599 81.0898C117.68 82.4701 118.22 84.2344 118.22 86.3828C118.22 88.5312 117.68 90.3021 116.599 91.6953C115.518 93.0755 113.988 93.7656 112.009 93.7656C110.03 93.7656 108.5 93.0755 107.419 91.6953C106.352 90.3021 105.818 88.5312 105.818 86.3828ZM108.357 86.3828C108.357 88.2057 108.715 89.6055 109.431 90.582C110.147 91.5456 111.007 92.0273 112.009 92.0273C113.012 92.0273 113.871 91.5456 114.587 90.582C115.316 89.6055 115.681 88.2057 115.681 86.3828C115.681 84.5599 115.316 83.1602 114.587 82.1836C113.871 81.207 113.012 80.7188 112.009 80.7188C111.007 80.7188 110.147 81.207 109.431 82.1836C108.715 83.1602 108.357 84.5599 108.357 86.3828Z" fill="white"/>
<path d="M201.731 85.256C201.731 80.2197 201.731 67.9888 207.039 51.4414C201.731 66.5497 192.44 65.8305 185.141 62.9527C189.122 70.8668 189.122 82.378 189.122 85.256C189.122 88.1338 189.122 99.6451 185.141 107.559C192.441 104.681 201.731 103.962 207.039 119.07C201.731 102.523 201.731 90.2921 201.731 85.256Z" fill="white"/>
<path d="M182.487 113.674C183.814 108.637 183.15 99.2845 183.15 85.2551C183.15 71.2258 183.814 61.8727 182.487 56.8366C192.44 64.0312 211.417 55.9875 204.385 35.9727C199.076 20.8642 180.495 15.8279 165.233 17.2668C145.356 19.1409 110.819 41.7283 103.52 0C96.2201 41.7283 61.6827 19.1409 41.8059 17.267C26.5434 15.8281 7.96281 20.8642 2.65424 35.9728C-4.37844 55.9875 14.5987 64.0314 24.5527 56.8368C23.2255 61.8731 23.8892 71.226 23.8892 85.2553H23.8894C23.8894 99.2847 23.2257 108.638 24.5527 113.674C14.5992 106.479 -4.37827 114.523 2.65441 134.538C7.96297 149.646 26.5437 154.683 41.8059 153.244C61.6829 151.37 96.2201 128.782 103.52 170.51C110.819 128.782 145.356 151.37 165.233 153.244C180.496 154.683 199.076 149.647 204.385 134.538C211.417 114.523 192.44 106.479 182.487 113.674ZM103.52 15.3433C105.769 20.7077 110.562 26.8693 120.772 28.7781C112.436 28.7781 107.028 26.4822 103.52 23.3543C100.011 26.4822 94.6024 28.7781 86.2663 28.7781C96.4769 26.8695 101.27 20.7077 103.52 15.3433ZM103.52 155.167C101.27 149.803 96.4769 143.641 86.2666 141.732C94.6025 141.732 100.011 144.028 103.52 147.156C107.028 144.028 112.436 141.732 120.773 141.732C110.562 143.641 105.77 149.803 103.52 155.167ZM161.915 148.927C137.079 144.196 124.091 130.221 103.52 141.732C82.9484 130.221 69.9598 144.196 45.1241 148.927C20.5711 153.603 -0.410456 139.388 5.97246 123.386C11.1953 110.291 26.6945 118.436 30.3542 125.212C26.5265 117.793 25.8799 99.4329 25.8799 85.2553C25.8799 71.0775 26.5265 52.7177 30.3538 45.2987C26.6943 52.0743 11.195 60.2191 5.97194 47.1244C-0.410803 31.1218 20.571 16.9072 45.1236 21.5837C69.9598 26.314 82.9484 40.2894 103.52 28.7783C124.091 40.2894 137.079 26.3142 161.915 21.5837C186.468 16.9072 207.449 31.1218 201.066 47.1244C195.844 60.2191 180.344 52.0743 176.685 45.2987C180.512 52.7177 181.159 71.0775 181.159 85.2553C181.159 99.4329 180.512 117.793 176.685 125.212C180.344 118.436 195.844 110.291 201.067 123.386C207.45 139.388 186.468 153.603 161.915 148.927Z" fill="white"/>
<path d="M21.8984 107.559C17.9169 99.6449 17.9169 88.1336 17.9169 85.2557H17.9167C17.9167 82.3777 17.9167 70.8664 21.8983 62.9525C14.5987 65.8303 5.30873 66.5495 0 51.4412C5.30873 67.9886 5.30856 80.2194 5.30856 85.2557H5.30873C5.30873 90.2918 5.30873 102.523 0 119.07C5.30873 103.962 14.5992 104.681 21.8984 107.559Z" fill="white"/>
<path d="M82.1465 135.485C90.319 132.077 100.377 134.803 103.52 139.574C106.663 134.803 116.721 132.077 124.894 135.485C117.349 128.669 108.549 126.624 103.52 126.624C98.4911 126.624 89.6903 128.669 82.1465 135.485Z" fill="white"/>
<path d="M103.52 30.9385C100.377 35.709 90.3191 38.4358 82.1465 35.0278C89.6903 41.8435 98.4909 43.8883 103.52 43.8883C108.549 43.8883 117.35 41.8435 124.894 35.0278C116.721 38.4358 106.663 35.709 103.52 30.9385Z" fill="white"/>
</svg>
