<svg width="20" height="18" viewBox="0 0 20 18" fill="none" xmlns="http://www.w3.org/2000/svg">
<rect width="20" height="18" rx="3" fill="#4E56A6"/>
<g clip-path="url(#clip0_2635_293069)">
<path d="M12.4478 9.28332C12.5554 9.37739 12.5554 9.37739 12.682 9.43726C12.7422 9.41334 12.7422 9.41334 12.8017 9.3689C13.1788 9.12775 13.6283 8.98943 14.0766 8.97242C14.1137 8.97078 14.1137 8.97078 14.1516 8.96911C14.8571 8.9532 15.5017 9.18524 16.0453 9.62867C16.0618 9.64129 16.0782 9.6539 16.0952 9.66691C16.5926 10.056 16.9201 10.7337 17.0024 11.3513C17.012 11.5381 17.0109 11.7255 17.0119 11.9124C17.0124 11.9735 17.0131 12.0345 17.0142 12.0956C17.0157 12.1841 17.0163 12.2726 17.0167 12.3611C17.0173 12.3882 17.0179 12.4153 17.0185 12.4431C17.0179 12.6456 16.9668 12.7784 16.8252 12.9242C16.658 13.0728 16.5117 13.0819 16.2983 13.0802C16.2583 13.0802 16.2583 13.0802 16.2175 13.0802C16.1294 13.0802 16.0414 13.0797 15.9534 13.0793C15.8923 13.0792 15.8311 13.0791 15.77 13.0791C15.6093 13.0789 15.4486 13.0783 15.2879 13.0777C15.1239 13.0772 14.9598 13.0769 14.7958 13.0766C14.474 13.0761 14.1523 13.0751 13.8305 13.074C13.8306 13.1087 13.8307 13.1434 13.8309 13.1791C13.8318 13.4426 13.7542 13.6093 13.5722 13.7987C13.3915 13.9641 13.1925 13.9885 12.9595 13.9869C12.9331 13.9871 12.9068 13.9872 12.8796 13.9874C12.7918 13.9878 12.7039 13.9876 12.616 13.9874C12.5529 13.9875 12.4897 13.9877 12.4266 13.9879C12.2553 13.9884 12.084 13.9884 11.9127 13.9882C11.7696 13.9882 11.6265 13.9883 11.4834 13.9885C11.1264 13.9889 10.7694 13.9888 10.4125 13.9885C10.1029 13.9882 9.7933 13.9885 9.48371 13.9892C9.16538 13.9899 8.84706 13.9901 8.52873 13.99C8.35019 13.9899 8.17165 13.9899 7.99311 13.9904C7.82519 13.9908 7.65727 13.9907 7.48934 13.9902C7.42782 13.9901 7.36629 13.9902 7.30476 13.9905C7.22056 13.9908 7.13639 13.9905 7.05219 13.99C7.02803 13.9903 7.00387 13.9906 6.97897 13.9908C6.75824 13.9882 6.56134 13.929 6.3964 13.7781C6.24435 13.6099 6.2002 13.4584 6.17423 13.238C6.14024 13.2384 6.10625 13.2388 6.07123 13.2391C5.75021 13.2425 5.42919 13.2449 5.10815 13.2465C4.94312 13.2474 4.7781 13.2486 4.61308 13.2504C4.45369 13.2522 4.29431 13.2532 4.13491 13.2536C4.07423 13.2539 4.01356 13.2545 3.95288 13.2554C3.3789 13.2635 3.3789 13.2635 3.18356 13.1178C3.06183 12.9979 2.99966 12.8785 2.99752 12.7055C2.99717 12.6807 2.99682 12.6559 2.99645 12.6304C2.99625 12.6036 2.99605 12.5767 2.99584 12.5491C2.99551 12.5072 2.99551 12.5072 2.99517 12.4645C2.9948 12.4052 2.9945 12.3458 2.99429 12.2865C2.99397 12.2265 2.99342 12.1666 2.9926 12.1067C2.98081 11.2388 3.21823 10.556 3.82438 9.91578C4.41205 9.34111 5.15643 9.15052 5.95666 9.15806C6.42557 9.16817 6.85835 9.32409 7.26798 9.54664C7.28453 9.52818 7.28453 9.52818 7.30141 9.50936C8.63623 8.0952 10.985 8.08349 12.4478 9.28332ZM7.45597 10.0457C6.92734 10.6642 6.65895 11.4281 6.65723 12.2391C6.65705 12.2699 6.65687 12.3006 6.65668 12.3323C6.65641 12.3965 6.65628 12.4608 6.65629 12.525C6.65617 12.6233 6.65517 12.7216 6.65414 12.82C6.65398 12.8827 6.65387 12.9454 6.65382 13.0082C6.65342 13.0375 6.65303 13.0667 6.65263 13.0969C6.65337 13.2582 6.65337 13.2582 6.71506 13.4045C6.80495 13.4819 6.87642 13.5183 6.99553 13.5185C7.02829 13.5188 7.02829 13.5188 7.0617 13.519C7.08552 13.519 7.10935 13.5189 7.1339 13.5188C7.15934 13.5189 7.18477 13.519 7.21098 13.5192C7.29641 13.5195 7.38184 13.5195 7.46728 13.5194C7.52845 13.5196 7.58962 13.5198 7.65079 13.52C7.81712 13.5205 7.98344 13.5206 8.14976 13.5206C8.28852 13.5207 8.42728 13.5209 8.56604 13.5211C8.87466 13.5215 9.18329 13.5217 9.49191 13.5216C9.51969 13.5216 9.51968 13.5216 9.54802 13.5216C9.57583 13.5216 9.57583 13.5216 9.6042 13.5216C9.90468 13.5216 10.2052 13.5221 10.5056 13.5229C10.8142 13.5237 11.1227 13.524 11.4313 13.524C11.6045 13.524 11.7777 13.5241 11.951 13.5247C12.1139 13.5252 12.2767 13.5252 12.4396 13.5249C12.4995 13.5248 12.5593 13.5249 12.6191 13.5253C12.7007 13.5257 12.7823 13.5254 12.8639 13.525C12.8876 13.5253 12.9113 13.5256 12.9357 13.5259C13.0827 13.5242 13.1675 13.5007 13.2836 13.4021C13.3424 13.3139 13.3453 13.2898 13.3458 13.188C13.3461 13.1612 13.3463 13.1343 13.3466 13.1066C13.3466 13.0775 13.3465 13.0483 13.3465 13.0183C13.3467 12.9729 13.3467 12.9729 13.3469 12.9266C13.347 12.8622 13.347 12.7978 13.3469 12.7334C13.3468 12.6366 13.3475 12.5397 13.3482 12.4429C13.3494 12.0054 13.3316 11.5749 13.1845 11.1582C13.1776 11.1383 13.1707 11.1183 13.1636 11.0978C12.8466 10.2193 12.171 9.55145 11.3347 9.1584C9.97337 8.55163 8.4457 8.99061 7.45597 10.0457ZM13.0102 9.79273C13.0102 9.90602 13.0701 9.96858 13.1332 10.0576C13.6231 10.7709 13.771 11.5244 13.8175 12.3729C13.8194 12.407 13.8194 12.407 13.8213 12.4419C13.8244 12.4976 13.8274 12.5534 13.8305 12.6091C14.1673 12.611 14.5041 12.6125 14.8409 12.6134C14.9973 12.6138 15.1537 12.6144 15.31 12.6153C15.4609 12.6162 15.6118 12.6167 15.7627 12.6169C15.8203 12.6171 15.8779 12.6174 15.9355 12.6178C16.0161 12.6184 16.0967 12.6185 16.1773 12.6184C16.2012 12.6187 16.2251 12.619 16.2497 12.6193C16.346 12.6188 16.411 12.6179 16.4976 12.5735C16.5635 12.4968 16.5525 12.4084 16.5511 12.3122C16.5511 12.2908 16.5512 12.2695 16.5512 12.2475C16.5512 12.202 16.5508 12.1566 16.5503 12.1112C16.5495 12.0431 16.5497 11.9751 16.5501 11.9071C16.5491 11.1976 16.3316 10.5992 15.8266 10.0935C15.8066 10.0732 15.7866 10.0529 15.766 10.032C15.3103 9.59744 14.7005 9.44253 14.0862 9.45627C13.6906 9.47335 13.3583 9.61324 13.0102 9.79273ZM4.20548 10.2302C4.17773 10.2541 4.17773 10.2541 4.14941 10.2784C3.72936 10.6665 3.48647 11.2393 3.45938 11.806C3.45599 11.9167 3.45565 12.0274 3.45651 12.1381C3.45695 12.2069 3.4565 12.2756 3.45599 12.3443C3.45604 12.3883 3.45615 12.4323 3.45631 12.4763C3.45614 12.4967 3.45597 12.5171 3.4558 12.5381C3.4556 12.6448 3.4556 12.6448 3.50204 12.7375C3.55938 12.7809 3.58751 12.7833 3.65875 12.7831C3.68095 12.7832 3.70315 12.7833 3.72603 12.7834C3.75028 12.7831 3.77453 12.7828 3.79951 12.7825C3.82513 12.7825 3.85074 12.7825 3.87713 12.7825C3.96192 12.7825 4.04668 12.7819 4.13146 12.7812C4.1902 12.7811 4.24893 12.7809 4.30767 12.7809C4.46236 12.7805 4.61703 12.7797 4.77172 12.7788C4.92952 12.778 5.08733 12.7776 5.24513 12.7772C5.55484 12.7763 5.86453 12.7749 6.17423 12.7732C6.17563 12.7434 6.17703 12.7135 6.17847 12.6828C6.18376 12.5707 6.18929 12.4585 6.19488 12.3464C6.19725 12.2982 6.19957 12.2499 6.20182 12.2017C6.218 11.8558 6.2438 11.522 6.3383 11.1873C6.34564 11.1603 6.34564 11.1603 6.35313 11.1327C6.47313 10.7025 6.69179 10.3243 6.93986 9.95679C6.15802 9.32247 4.89414 9.62693 4.20548 10.2302Z" fill="white"/>
<path d="M11.2009 4.43218C11.6534 4.79327 11.947 5.27747 12.0212 5.85406C12.0772 6.45096 11.902 6.99034 11.5274 7.45516C11.1777 7.86532 10.6951 8.11443 10.1618 8.17828C9.54639 8.21681 8.96469 8.06041 8.48875 7.65362C8.09793 7.28222 7.84086 6.77896 7.81028 6.23687C7.80884 6.21484 7.80739 6.19281 7.8059 6.17011C7.78646 5.60282 8.00135 5.09836 8.3657 4.67144C9.10693 3.88089 10.3353 3.80045 11.2009 4.43218ZM8.76731 4.95172C8.45073 5.28761 8.28802 5.68675 8.29286 6.14553C8.3081 6.62064 8.51443 6.98082 8.84935 7.30328C9.15885 7.57996 9.55804 7.71291 9.97044 7.71343C10.3422 7.68841 10.6641 7.56201 10.9548 7.33062C10.9819 7.30947 11.009 7.28832 11.0368 7.26654C11.2975 7.04721 11.4572 6.70058 11.529 6.37359C11.5691 5.90234 11.4927 5.48043 11.1999 5.09773C10.928 4.77979 10.5616 4.55936 10.1439 4.50001C9.63051 4.46088 9.1478 4.58816 8.76731 4.95172Z" fill="white"/>
<path d="M6.71803 5.8275C7.04652 6.07891 7.32033 6.43089 7.3949 6.84755C7.43991 7.34052 7.37935 7.76887 7.06966 8.1735C6.79337 8.4923 6.42815 8.74688 5.99676 8.78661C5.47645 8.8109 5.05465 8.71809 4.64504 8.37559C4.30243 8.05343 4.14129 7.63251 4.12145 7.16916C4.11316 6.7912 4.25145 6.45501 4.47585 6.15562C4.4872 6.13944 4.49855 6.12326 4.51024 6.10659C5.0256 5.43231 6.04905 5.39383 6.71803 5.8275ZM4.85802 6.44476C4.64853 6.70186 4.58101 7.00603 4.61257 7.3314C4.65827 7.55601 4.73104 7.73605 4.886 7.90562C4.90687 7.92931 4.92774 7.95299 4.94924 7.9774C5.19539 8.19493 5.4923 8.34174 5.82872 8.32432C6.1864 8.28003 6.46652 8.14172 6.69838 7.8614C6.88869 7.59756 6.96038 7.32647 6.92397 7.0037C6.86908 6.69216 6.71654 6.44534 6.47034 6.24705C5.93285 5.87503 5.30183 5.97821 4.85802 6.44476Z" fill="white"/>
<path d="M15.2245 5.7448C15.5522 5.99106 15.7548 6.33361 15.8534 6.72918C15.9178 7.22912 15.8321 7.65968 15.5253 8.06902C15.514 8.0852 15.5026 8.10138 15.4909 8.11805C15.2618 8.41786 14.8775 8.60324 14.5136 8.67058C14.0345 8.71303 13.5958 8.63055 13.2047 8.33861C12.9015 8.07498 12.6372 7.71564 12.5995 7.3034C12.5693 6.79992 12.6516 6.37415 12.9926 5.98064C13.5938 5.35301 14.5034 5.24392 15.2245 5.7448ZM13.2977 6.36933C13.1113 6.6322 13.0411 6.90137 13.0772 7.22094C13.1321 7.53249 13.2846 7.77931 13.5308 7.97759C13.8033 8.16619 14.1008 8.24586 14.4284 8.19303C14.7467 8.12422 14.9913 7.9662 15.1972 7.71355C15.3761 7.4321 15.4366 7.12932 15.3698 6.80085C15.317 6.61082 15.2482 6.46463 15.1152 6.31902C15.0839 6.28349 15.0839 6.28349 15.0519 6.24724C14.7984 6.0232 14.4982 5.88293 14.1531 5.8985C13.8051 5.94533 13.5202 6.09694 13.2977 6.36933Z" fill="white"/>
</g>
<defs>
<clipPath id="clip0_2635_293069">
<rect width="14" height="14" fill="white" transform="translate(3 2)"/>
</clipPath>
</defs>
</svg>
