<svg width="20" height="19" viewBox="0 0 20 19" fill="none" xmlns="http://www.w3.org/2000/svg">
<rect width="20" height="19" rx="3" fill="#1C75BB" fill-opacity="0.88"/>
<g clip-path="url(#clip0_2635_293051)">
<path d="M7.21676 3.99395C7.2465 3.99381 7.2465 3.99381 7.27683 3.99366C7.34336 3.99338 7.40989 3.99329 7.47643 3.99319C7.52409 3.99303 7.57175 3.99286 7.61941 3.99268C7.77605 3.99215 7.93268 3.99189 8.08931 3.99163C8.14326 3.99153 8.1972 3.99143 8.25115 3.99132C8.50461 3.99084 8.75807 3.99047 9.01153 3.99026C9.30398 3.99002 9.59642 3.98935 9.88886 3.98832C10.115 3.98755 10.3411 3.98718 10.5672 3.9871C10.7022 3.98704 10.8372 3.98681 10.9722 3.98617C11.0993 3.98558 11.2264 3.98547 11.3535 3.98573C11.4 3.98574 11.4466 3.98558 11.4931 3.98524C12.0441 3.98133 12.0441 3.98133 12.2582 4.20306C12.4517 4.45532 12.4552 4.70839 12.4501 5.01844C12.4499 5.06439 12.4497 5.11034 12.4496 5.15629C12.4492 5.25468 12.4485 5.35304 12.4474 5.45142C12.4457 5.60712 12.4452 5.76281 12.445 5.91852C12.444 6.36107 12.4414 6.80361 12.4378 7.24615C12.4358 7.49101 12.4347 7.73585 12.4347 7.98071C12.4345 8.13539 12.4333 8.28999 12.4311 8.44466C12.4301 8.54094 12.4301 8.63719 12.4304 8.73347C12.4303 8.77797 12.4298 8.82247 12.4288 8.86695C12.4195 9.11335 12.4195 9.11335 12.5151 9.32888C12.5801 9.38707 12.6454 9.4347 12.7173 9.48206C13.2269 9.91713 13.5624 10.6199 13.6478 11.3111C13.688 11.7451 13.6792 12.1863 13.5611 12.6051C13.5537 12.6313 13.5537 12.6313 13.5462 12.658C13.4806 12.8832 13.3898 13.0853 13.2732 13.2849C13.2423 13.3379 13.2423 13.3379 13.2095 13.4176C13.2279 13.4983 13.2749 13.545 13.3296 13.6017C13.3518 13.6247 13.3741 13.6478 13.397 13.6715C13.4129 13.6631 13.4289 13.6548 13.4453 13.6461C13.533 13.6138 13.5859 13.6055 13.6782 13.6207C13.7215 13.6544 13.7215 13.6544 13.7664 13.6988C13.791 13.7231 13.791 13.7231 13.8161 13.7479C13.8926 13.8259 13.9679 13.9051 14.0422 13.9856C14.067 14.0122 14.067 14.0122 14.0923 14.0394C14.1463 14.0976 14.2003 14.1559 14.2542 14.2141C14.2728 14.2342 14.2913 14.2542 14.3104 14.2748C14.4085 14.3807 14.5065 14.4866 14.6044 14.5926C14.7053 14.7018 14.8064 14.8107 14.9075 14.9195C14.9856 15.0036 15.0635 15.0879 15.1414 15.1722C15.1786 15.2124 15.2158 15.2526 15.2532 15.2927C15.3054 15.3488 15.3574 15.4052 15.4093 15.4616C15.4246 15.4779 15.4399 15.4942 15.4556 15.5111C15.6375 15.7099 15.7468 15.9071 15.7495 16.1931C15.7474 16.3585 15.726 16.476 15.647 16.6168C15.6335 16.6435 15.6199 16.6702 15.606 16.6978C15.4645 16.8893 15.291 16.9774 15.0682 17.0057C14.8862 17.0144 14.7132 16.977 14.5661 16.855C14.365 16.655 14.1728 16.4453 13.9799 16.2361C13.9414 16.1944 13.9029 16.1527 13.8644 16.111C13.7842 16.0242 13.7041 15.9373 13.624 15.8504C13.5211 15.7388 13.4182 15.6274 13.3152 15.516C13.2359 15.4302 13.1567 15.3443 13.0775 15.2584C13.0395 15.2173 13.0015 15.1762 12.9635 15.135C12.9107 15.0779 12.8579 15.0206 12.8051 14.9633C12.7894 14.9463 12.7736 14.9293 12.7574 14.9117C12.7431 14.8962 12.7288 14.8806 12.7141 14.8646C12.7016 14.8511 12.6892 14.8376 12.6763 14.8237C12.6311 14.7697 12.6237 14.7402 12.6192 14.6665C12.6236 14.5851 12.6411 14.5327 12.6704 14.4586C12.6402 14.4252 12.6099 14.3919 12.5796 14.3586C12.5543 14.3308 12.5543 14.3308 12.5285 14.3024C12.486 14.2541 12.486 14.2541 12.4361 14.2301C12.4365 14.2503 12.437 14.2705 12.4375 14.2913C12.4395 14.3841 12.4407 14.4769 12.4419 14.5697C12.4427 14.6015 12.4435 14.6333 12.4443 14.666C12.4465 14.8972 12.4198 15.0905 12.2896 15.2791C12.0757 15.5054 11.8516 15.5327 11.5631 15.5316C11.5345 15.5317 11.5059 15.5318 11.4764 15.5319C11.3974 15.5322 11.3184 15.5321 11.2393 15.532C11.154 15.532 11.0686 15.5322 10.9832 15.5324C10.8161 15.5327 10.649 15.5328 10.4818 15.5327C10.346 15.5327 10.2101 15.5327 10.0742 15.5328C10.0452 15.5328 10.0452 15.5328 10.0156 15.5329C9.97623 15.5329 9.93691 15.5329 9.89758 15.5329C9.52898 15.5332 9.16038 15.5332 8.79179 15.533C8.45481 15.5329 8.11784 15.5332 7.78087 15.5337C7.4346 15.5341 7.08833 15.5344 6.74206 15.5343C6.54777 15.5342 6.35347 15.5343 6.15917 15.5346C5.99376 15.5349 5.82836 15.535 5.66295 15.5347C5.57862 15.5345 5.49429 15.5345 5.40995 15.5348C5.31839 15.5351 5.22683 15.5349 5.13527 15.5345C5.10882 15.5347 5.08236 15.5349 5.0551 15.5351C4.82854 15.5334 4.6233 15.494 4.44856 15.3289C4.27041 15.1294 4.23578 14.8941 4.23898 14.6275C4.23881 14.5947 4.23864 14.562 4.23847 14.5282C4.23802 14.4381 4.23844 14.348 4.23901 14.2579C4.23948 14.1604 4.23913 14.0628 4.23888 13.9653C4.23853 13.7747 4.23892 13.584 4.23958 13.3934C4.24031 13.1712 4.2403 12.949 4.24027 12.7268C4.24023 12.3304 4.24087 11.9339 4.2419 11.5375C4.24289 11.153 4.24338 10.7686 4.24334 10.3841C4.24334 10.3604 4.24333 10.3367 4.24333 10.3123C4.24333 10.2886 4.24332 10.265 4.24332 10.2406C4.24327 9.80246 4.24369 9.36429 4.24432 8.92612C4.24453 8.77134 4.2446 8.61655 4.24463 8.46176C4.24468 8.27314 4.245 8.08453 4.24564 7.89592C4.24597 7.79973 4.24618 7.70354 4.24609 7.60735C4.246 7.50303 4.24646 7.39872 4.24697 7.2944C4.2468 7.24892 4.2468 7.24892 4.24664 7.20252C4.24846 6.9767 4.27314 6.81044 4.42259 6.64101C4.44133 6.61954 4.46006 6.59807 4.47937 6.57594C4.49859 6.55463 4.51781 6.53332 4.53762 6.51136C4.55539 6.4914 4.57315 6.47145 4.59146 6.45089C4.64752 6.3885 4.70409 6.32671 4.76083 6.26505C4.78205 6.2419 4.80326 6.21874 4.82513 6.19489C4.89452 6.11918 4.96404 6.04361 5.03356 5.96804C5.05768 5.9418 5.0818 5.91557 5.10592 5.88933C5.21911 5.76623 5.33236 5.64318 5.44568 5.52021C5.5759 5.37888 5.70592 5.23735 5.83578 5.09565C5.93668 4.98558 6.03776 4.8757 6.13897 4.76597C6.19921 4.70065 6.25938 4.63524 6.31936 4.56962C6.38617 4.49654 6.45335 4.42387 6.52056 4.35123C6.54016 4.32968 6.55975 4.30812 6.57994 4.28592C6.77469 4.0768 6.94258 3.99388 7.21676 3.99395ZM7.16262 4.42932C7.16243 4.45421 7.16224 4.47909 7.16204 4.50473C7.16022 4.74005 7.15816 4.97538 7.15588 5.2107C7.15471 5.33165 7.15363 5.45261 7.15273 5.57358C7.15186 5.69047 7.15077 5.80735 7.14954 5.92424C7.14911 5.96868 7.14875 6.01311 7.14848 6.05755C7.14436 6.7013 7.14436 6.7013 6.97512 6.91761C6.80777 7.0923 6.62536 7.12812 6.40026 7.12883C6.38126 7.12908 6.36226 7.12934 6.34268 7.1296C6.28054 7.13038 6.21841 7.13081 6.15627 7.13124C6.11292 7.13172 6.06958 7.13222 6.02623 7.13273C5.91265 7.13403 5.79906 7.13504 5.68547 7.13599C5.56936 7.13701 5.45325 7.1383 5.33715 7.13958C5.1097 7.14203 4.88225 7.14417 4.6548 7.14612C4.6532 8.12728 4.65196 9.10844 4.65121 10.0896C4.65113 10.2054 4.65104 10.3212 4.65094 10.437C4.65092 10.46 4.65091 10.4831 4.65089 10.5068C4.65058 10.8802 4.65003 11.2537 4.64938 11.6271C4.64872 12.0102 4.64833 12.3933 4.64819 12.7763C4.64809 13.0128 4.64779 13.2492 4.64722 13.4857C4.64685 13.6477 4.64673 13.8098 4.64682 13.9718C4.64687 14.0654 4.6468 14.1589 4.64642 14.2525C4.64602 14.3539 4.64616 14.4552 4.64635 14.5566C4.64614 14.5862 4.64594 14.6159 4.64573 14.6465C4.64587 14.6736 4.64601 14.7007 4.64615 14.7287C4.64613 14.7521 4.6461 14.7755 4.64607 14.7996C4.6597 14.9015 4.7012 14.9692 4.77199 15.0363C4.8508 15.0896 4.91472 15.0966 5.00542 15.0967C5.02956 15.0968 5.05369 15.0969 5.07856 15.097C5.10516 15.097 5.13177 15.097 5.15917 15.097C5.18737 15.097 5.21556 15.0971 5.24461 15.0972C5.32301 15.0974 5.40141 15.0974 5.47981 15.0975C5.56432 15.0975 5.64882 15.0977 5.73332 15.0979C5.91816 15.0982 6.10299 15.0984 6.28783 15.0985C6.40321 15.0985 6.51859 15.0986 6.63398 15.0988C6.95336 15.0991 7.27274 15.0993 7.59211 15.0994C7.62278 15.0994 7.62278 15.0994 7.65407 15.0994C7.67456 15.0994 7.69506 15.0994 7.71617 15.0995C7.75771 15.0995 7.79924 15.0995 7.84077 15.0995C7.87167 15.0995 7.87167 15.0995 7.90319 15.0995C8.23705 15.0996 8.57091 15.1 8.90478 15.1006C9.24744 15.1012 9.5901 15.1016 9.93276 15.1016C10.1252 15.1016 10.3176 15.1018 10.5101 15.1022C10.6739 15.1026 10.8378 15.1027 11.0016 15.1025C11.0852 15.1024 11.1688 15.1025 11.2524 15.1028C11.3431 15.1032 11.4337 15.103 11.5243 15.1027C11.5508 15.1029 11.5772 15.1031 11.6045 15.1033C11.7573 15.1023 11.8646 15.0883 11.9863 14.9791C12.0534 14.8873 12.0403 14.7803 12.0391 14.6697C12.0389 14.6429 12.0389 14.6429 12.0388 14.6157C12.0385 14.5718 12.0381 14.5279 12.0376 14.484C12.0101 14.4945 11.9825 14.505 11.9541 14.5157C11.1885 14.7905 10.4007 14.8028 9.6675 14.4142C9.25587 14.1877 9.25587 14.1877 9.14174 14.0261C9.0564 13.9168 8.9814 13.8706 8.85051 13.8576C8.70681 13.8502 8.56324 13.8526 8.41945 13.8556C8.34469 13.8566 8.26994 13.8573 8.19517 13.8574C8.14881 13.8575 8.10245 13.8582 8.05611 13.8594C8.02477 13.8596 8.02477 13.8596 7.99278 13.8599C7.97442 13.8603 7.95606 13.8607 7.93715 13.8611C7.88918 13.8492 7.88918 13.8492 7.8481 13.8026C7.80847 13.7282 7.8091 13.68 7.81887 13.5953C7.84389 13.5408 7.84389 13.5408 7.88918 13.4938C7.9493 13.4829 7.99988 13.4784 8.06011 13.4783C8.07666 13.4779 8.0932 13.4775 8.11025 13.477C8.16303 13.4758 8.21579 13.4753 8.26857 13.4747C8.30439 13.474 8.3402 13.4733 8.37601 13.4725C8.46373 13.4706 8.55145 13.4693 8.63918 13.4684C8.62622 13.4447 8.61327 13.4211 8.59992 13.3967C8.4869 13.1894 8.39384 12.981 8.31106 12.7574C8.28142 12.7568 8.25178 12.7561 8.22124 12.7555C8.18233 12.754 8.14342 12.7526 8.10451 12.7511C8.08498 12.7507 8.06545 12.7504 8.04532 12.75C7.90107 12.7437 7.90107 12.7437 7.84111 12.6848C7.81069 12.6105 7.80958 12.5586 7.81887 12.4782C7.84207 12.4446 7.86527 12.4111 7.88918 12.3766C7.98973 12.3682 8.09027 12.3598 8.19387 12.3512C8.1784 12.1166 8.16293 11.882 8.14699 11.6403C8.06191 11.6319 7.97684 11.6235 7.88918 11.6149C7.81548 11.5084 7.80436 11.4867 7.81887 11.361C7.84551 11.3066 7.84551 11.3066 7.88918 11.2594C7.95757 11.2439 7.95757 11.2439 8.0342 11.2404C8.05967 11.2389 8.08514 11.2375 8.11138 11.236C8.13087 11.2353 8.15035 11.2347 8.17043 11.234C8.21437 11.1227 8.24517 11.009 8.2759 10.8928C8.30892 10.7687 8.34273 10.6453 8.38137 10.5231C8.35956 10.5227 8.35956 10.5227 8.3373 10.5224C8.27141 10.521 8.20555 10.5189 8.13967 10.5167C8.11678 10.5164 8.0939 10.516 8.07032 10.5156C8.04834 10.5148 8.02636 10.514 8.00371 10.5132C7.98346 10.5126 7.96321 10.5121 7.94234 10.5115C7.88918 10.4977 7.88918 10.4977 7.84741 10.4507C7.80858 10.3765 7.80916 10.3279 7.81887 10.2438C7.84505 10.1885 7.84505 10.1885 7.88918 10.1422C7.95799 10.1336 7.95799 10.1336 8.04162 10.1383C8.0871 10.1397 8.0871 10.1397 8.13349 10.1411C8.14937 10.1416 8.16525 10.1421 8.18161 10.1426C8.44788 10.1605 8.44788 10.1605 8.6802 10.0536C8.72727 9.98171 8.76446 9.91271 8.80058 9.83425C8.85045 9.74349 8.92328 9.67474 8.99367 9.60266C9.03999 9.55441 9.08585 9.50582 9.13137 9.45667C9.13137 9.44829 9.13137 9.43991 9.13137 9.43128C9.11018 9.43097 9.11018 9.43097 9.08856 9.43066C8.94141 9.42847 8.79428 9.42594 8.64714 9.42322C8.59224 9.42225 8.53734 9.42136 8.48244 9.42057C8.40348 9.4194 8.32454 9.41793 8.24559 9.4164C8.22108 9.41611 8.19656 9.41581 8.1713 9.41551C8.14832 9.41501 8.12534 9.4145 8.10166 9.41398C8.08152 9.41364 8.06137 9.41331 8.04062 9.41296C7.97447 9.40485 7.92513 9.38765 7.86574 9.35511C7.81123 9.26653 7.80906 9.23076 7.81887 9.12659C7.84317 9.07169 7.84317 9.07169 7.88918 9.02503C7.95266 9.01524 8.00669 9.01199 8.07016 9.01318C8.08858 9.01312 8.107 9.01306 8.12597 9.013C8.16603 9.01294 8.20608 9.0131 8.24613 9.01347C8.30984 9.01402 8.37353 9.01393 8.43724 9.01366C8.59572 9.01311 8.7542 9.01354 8.91268 9.0142C9.04623 9.01475 9.17976 9.01479 9.3133 9.01413C9.3755 9.01402 9.43767 9.01464 9.49987 9.01529C9.72056 9.01547 9.90335 8.99051 10.1099 8.90429C10.7228 8.64985 11.4447 8.76587 12.0376 9.02503C12.0409 8.45538 12.0434 7.88573 12.0449 7.31607C12.0456 7.05157 12.0466 6.78707 12.0482 6.52257C12.0496 6.29202 12.0505 6.06148 12.0508 5.83092C12.051 5.70885 12.0515 5.58679 12.0525 5.46473C12.0534 5.34979 12.0537 5.23487 12.0535 5.11993C12.0536 5.07779 12.0538 5.03565 12.0544 4.99351C12.065 4.74079 12.065 4.74079 11.9707 4.51871C11.8732 4.41889 11.7684 4.42575 11.6412 4.42627C11.6125 4.42624 11.6125 4.42624 11.5833 4.42621C11.519 4.42616 11.4548 4.4263 11.3906 4.42644C11.3446 4.42645 11.2986 4.42644 11.2527 4.42643C11.1277 4.42642 11.0027 4.42657 10.8777 4.42675C10.7472 4.42691 10.6167 4.42692 10.4861 4.42695C10.2389 4.42703 9.9916 4.42724 9.74432 4.4275C9.46285 4.42778 9.18138 4.42792 8.89991 4.42805C8.32081 4.42831 7.74171 4.42876 7.16262 4.42932ZM6.66941 4.80806C6.64659 4.83268 6.64659 4.83268 6.6233 4.8578C6.60651 4.87604 6.58972 4.89428 6.57242 4.91308C6.54601 4.94162 6.54601 4.94162 6.51907 4.97074C6.46054 5.03403 6.40211 5.09741 6.34368 5.16079C6.30325 5.20457 6.26283 5.24834 6.22239 5.29211C6.13753 5.384 6.05272 5.47594 5.96793 5.56792C5.85895 5.68612 5.74986 5.80421 5.64075 5.92227C5.55721 6.01268 5.47372 6.10316 5.39025 6.19365C5.35004 6.23723 5.30981 6.28079 5.26956 6.32433C5.21343 6.38507 5.15738 6.44589 5.10135 6.50674C5.07609 6.53402 5.07609 6.53402 5.05032 6.56186C5.03517 6.57834 5.02002 6.59483 5.00441 6.61181C4.98449 6.63341 4.98449 6.63341 4.96417 6.65543C4.93343 6.68466 4.93343 6.68466 4.93605 6.71448C5.14448 6.71625 5.3529 6.7176 5.56133 6.71843C5.65812 6.71882 5.75491 6.71936 5.8517 6.72023C5.94516 6.72106 6.03861 6.72151 6.13207 6.72171C6.16768 6.72185 6.20328 6.72212 6.23888 6.72253C6.28887 6.72309 6.33884 6.72316 6.38883 6.72313C6.41724 6.7233 6.44566 6.72347 6.47494 6.72364C6.56595 6.71299 6.6186 6.69514 6.69387 6.63831C6.75728 6.51795 6.77287 6.41913 6.77216 6.2819C6.77217 6.26504 6.77218 6.24817 6.77219 6.23079C6.77215 6.1757 6.7716 6.12062 6.77105 6.06553C6.77092 6.02708 6.77082 5.98862 6.77075 5.95016C6.77048 5.84944 6.76979 5.74872 6.76901 5.648C6.76829 5.54503 6.76797 5.44205 6.76761 5.33907C6.76686 5.13738 6.76566 4.9357 6.76418 4.73401C6.72197 4.73401 6.69787 4.77725 6.66941 4.80806ZM9.1365 10.0274C8.68617 10.5822 8.51208 11.2621 8.53995 11.9907C8.57448 12.5019 8.7753 12.9654 9.06106 13.3668C9.07541 13.3871 9.08976 13.4073 9.10454 13.4281C9.47703 13.9151 10.076 14.2471 10.6548 14.3063C11.3119 14.3532 11.9323 14.1694 12.4361 13.6969C12.4536 13.6816 12.4711 13.6663 12.4892 13.6505C12.9234 13.259 13.1746 12.6687 13.2564 12.0719C13.2782 11.6978 13.2695 11.3378 13.1626 10.9801C13.1541 10.9514 13.1456 10.9226 13.1369 10.893C13.029 10.5625 12.8631 10.2752 12.647 10.0153C12.6309 9.99575 12.6148 9.97625 12.5983 9.95615C12.1587 9.45166 11.5461 9.19643 10.9126 9.17499C10.229 9.19813 9.61336 9.49439 9.1365 10.0274ZM12.9048 13.7985C12.8646 13.8482 12.8255 13.899 12.7876 13.9508C12.8495 14.0178 12.9114 14.0849 12.9751 14.1539C13.0634 14.1061 13.0875 14.0856 13.1392 14.0016C13.1091 13.9676 13.0787 13.9338 13.0484 13.9C13.0315 13.8812 13.0146 13.8623 12.9973 13.8429C12.9561 13.7928 12.9561 13.7928 12.9048 13.7985ZM13.5611 14.1539C13.4141 14.3131 13.2671 14.4723 13.1157 14.6364C13.1655 14.7605 13.1655 14.7605 13.3267 14.8903C13.4814 14.7227 13.6361 14.5551 13.7954 14.3824C13.6756 14.2078 13.6756 14.2078 13.5611 14.1539ZM14.007 14.7314C13.9794 14.7617 13.9794 14.7617 13.9513 14.7927C13.9313 14.8144 13.9114 14.8362 13.8908 14.8586C13.87 14.8816 13.8491 14.9046 13.8277 14.9283C13.8066 14.9514 13.7856 14.9744 13.7639 14.9981C13.7118 15.0551 13.6598 15.1123 13.6079 15.1696C13.6441 15.2623 13.6957 15.3221 13.7608 15.3933C13.7769 15.411 13.7769 15.411 13.7933 15.429C13.8286 15.4678 13.8642 15.5064 13.8997 15.545C13.9245 15.572 13.9492 15.599 13.974 15.626C14.0259 15.6825 14.0779 15.7389 14.13 15.7953C14.1965 15.8673 14.2626 15.9397 14.3287 16.0122C14.3798 16.068 14.431 16.1237 14.4824 16.1793C14.5068 16.2058 14.5312 16.2325 14.5555 16.2592C14.5897 16.2967 14.6241 16.3339 14.6587 16.371C14.6781 16.3921 14.6976 16.4133 14.7177 16.4351C14.8025 16.5099 14.8904 16.5601 15.0011 16.5724C15.1346 16.5553 15.2031 16.5211 15.2954 16.4137C15.35 16.3142 15.3646 16.1969 15.3423 16.0836C15.2818 15.9766 15.215 15.8885 15.1332 15.7998C15.1221 15.7876 15.111 15.7755 15.0995 15.7629C15.063 15.7232 15.0264 15.6837 14.9898 15.6442C14.9643 15.6166 14.9388 15.5889 14.9133 15.5612C14.8601 15.5035 14.8068 15.4458 14.7534 15.3882C14.6849 15.3143 14.6166 15.2401 14.5483 15.1659C14.4958 15.1088 14.4432 15.0519 14.3905 14.995C14.3653 14.9676 14.3401 14.9403 14.3149 14.9129C14.2798 14.8748 14.2446 14.8368 14.2094 14.7989C14.1894 14.7773 14.1693 14.7556 14.1487 14.7333C14.0843 14.6721 14.0714 14.6697 14.007 14.7314Z" fill="white"/>
<path d="M12.3475 10.066C12.3634 10.0807 12.3793 10.0955 12.3957 10.1107C12.7382 10.4542 12.9814 10.9977 13.007 11.5015C13.0273 12.1552 12.9225 12.6967 12.535 13.2144C12.5246 13.2298 12.5142 13.2452 12.5035 13.261C12.2445 13.6254 11.8116 13.859 11.41 13.9761C11.3911 13.9818 11.3722 13.9875 11.3527 13.9934C10.8155 14.1265 10.2518 13.9926 9.78275 13.6969C9.26008 13.3269 8.95017 12.7877 8.81806 12.1299C8.74374 11.4842 8.86118 10.8671 9.23033 10.3453C9.5889 9.86249 10.0859 9.54927 10.6556 9.47404C11.2869 9.40372 11.8691 9.61864 12.3475 10.066ZM9.69908 10.4468C9.68445 10.4605 9.66983 10.4742 9.65476 10.4884C9.40062 10.7346 9.22482 11.1806 9.20363 11.5436C9.18403 12.0684 9.27723 12.5405 9.60002 12.951C9.93769 13.3412 10.3446 13.5829 10.8449 13.6038C11.3621 13.6142 11.7882 13.4047 12.16 13.0176C12.2136 12.9601 12.2446 12.9069 12.2772 12.8335C12.261 12.8239 12.2448 12.8142 12.228 12.8042C11.8429 12.5742 11.4603 12.3402 11.0819 12.0972C11.0644 12.086 11.0469 12.0749 11.0289 12.0633C10.9849 12.0352 10.9411 12.0068 10.8973 11.9782C10.8747 11.9634 10.852 11.9487 10.8287 11.9335C10.7772 11.8941 10.7772 11.8941 10.7303 11.8179C10.7254 11.7558 10.723 11.6966 10.7229 11.6345C10.7226 11.6159 10.7224 11.5973 10.7221 11.5781C10.7214 11.5167 10.721 11.4553 10.7206 11.3939C10.7202 11.3513 10.7197 11.3087 10.7192 11.2662C10.718 11.1541 10.7171 11.042 10.7162 10.9299C10.7153 10.8156 10.7141 10.7012 10.7129 10.5868C10.7107 10.3624 10.7087 10.138 10.7069 9.91362C10.3276 9.91362 9.95874 10.17 9.69908 10.4468ZM11.1053 9.91362C11.1053 10.3912 11.1053 10.8688 11.1053 11.3609C11.1983 11.3206 11.2773 11.2788 11.3635 11.2252C11.3835 11.2128 11.3835 11.2128 11.4039 11.2001C11.447 11.1734 11.49 11.1465 11.5331 11.1197C11.5626 11.1013 11.5922 11.0829 11.6218 11.0645C11.8411 10.928 12.0597 10.79 12.2772 10.6499C12.2549 10.6216 12.2326 10.5933 12.2103 10.565C12.1916 10.5414 12.1916 10.5414 12.1726 10.5173C11.9123 10.1918 11.5856 10.0053 11.1991 9.91362C11.1681 9.91362 11.1372 9.91362 11.1053 9.91362ZM12.3096 11.109C12.2964 11.1172 12.2831 11.1254 12.2695 11.1338C12.2261 11.1607 12.1828 11.1878 12.1395 11.2149C12.1098 11.2334 12.0801 11.2519 12.0504 11.2703C11.8038 11.4241 11.5593 11.5816 11.3163 11.7417C11.39 11.8047 11.467 11.8552 11.5487 11.9053C11.5621 11.9135 11.5755 11.9218 11.5892 11.9302C11.6178 11.9478 11.6463 11.9653 11.6749 11.9828C11.749 12.0283 11.823 12.0739 11.897 12.1195C11.9189 12.133 11.9189 12.133 11.9412 12.1468C12.1168 12.2551 12.291 12.3662 12.4647 12.4781C12.6459 12.1837 12.6469 11.7389 12.5961 11.4011C12.5714 11.2744 12.5418 11.147 12.4881 11.0308C12.4166 11.0308 12.3714 11.0706 12.3096 11.109Z" fill="white"/>
<path d="M8.22628 5.63572C8.25847 5.63559 8.29067 5.63541 8.32286 5.63517C8.41012 5.6347 8.49737 5.63503 8.58463 5.63553C8.67599 5.63595 8.76734 5.63572 8.8587 5.63559C9.01209 5.63548 9.16547 5.63588 9.31885 5.63659C9.49617 5.6374 9.67349 5.6374 9.85081 5.63697C10.0214 5.63656 10.1921 5.63673 10.3627 5.63717C10.4353 5.63734 10.5079 5.63732 10.5805 5.63713C10.666 5.63693 10.7514 5.63724 10.8369 5.63794C10.8832 5.6382 10.9296 5.63795 10.9759 5.6377C11.0035 5.63802 11.031 5.63835 11.0595 5.63868C11.0834 5.63875 11.1074 5.63882 11.1321 5.6389C11.2109 5.65513 11.2388 5.68625 11.2883 5.75331C11.3053 5.8229 11.3017 5.88611 11.2883 5.95643C11.2365 6.03181 11.2066 6.05365 11.1242 6.08339C11.0819 6.08579 11.0396 6.0867 10.9973 6.08678C10.9578 6.08695 10.9578 6.08695 10.9174 6.08711C10.8885 6.0871 10.8596 6.08709 10.8298 6.08708C10.7841 6.0872 10.7841 6.0872 10.7375 6.08733C10.6539 6.08756 10.5703 6.08762 10.4867 6.08763C10.417 6.08766 10.3472 6.08775 10.2774 6.08784C10.1128 6.08805 9.94814 6.08811 9.78351 6.08809C9.6137 6.08808 9.44389 6.08835 9.27407 6.08875C9.12827 6.08908 8.98247 6.08921 8.83667 6.0892C8.74959 6.08919 8.66252 6.08926 8.57544 6.08953C8.47831 6.08982 8.38119 6.08971 8.28406 6.08956C8.25522 6.0897 8.22639 6.08984 8.19668 6.08999C8.17019 6.08988 8.14371 6.08977 8.11642 6.08967C8.08198 6.08969 8.08198 6.08969 8.04684 6.08971C7.95635 6.08067 7.88962 6.05692 7.8239 5.98817C7.78606 5.9105 7.78299 5.86546 7.79607 5.7787C7.89891 5.60455 8.05087 5.63399 8.22628 5.63572Z" fill="white"/>
<path d="M8.22628 7.8701C8.25847 7.86997 8.29067 7.86978 8.32286 7.86955C8.41012 7.86908 8.49737 7.86941 8.58463 7.86991C8.67599 7.87032 8.76734 7.8701 8.8587 7.86997C9.01209 7.86985 9.16547 7.87026 9.31885 7.87097C9.49617 7.87178 9.67349 7.87178 9.85081 7.87134C10.0214 7.87094 10.1921 7.87111 10.3627 7.87154C10.4353 7.87172 10.5079 7.87169 10.5805 7.8715C10.666 7.87131 10.7514 7.87162 10.8369 7.87231C10.8832 7.87257 10.9296 7.87233 10.9759 7.87208C11.0035 7.8724 11.031 7.87272 11.0595 7.87305C11.0834 7.87313 11.1074 7.8732 11.1321 7.87327C11.2109 7.8895 11.2388 7.92063 11.2883 7.98768C11.3053 8.05731 11.3016 8.12043 11.2883 8.19081C11.2337 8.27315 11.1906 8.29961 11.1008 8.31776C11.0579 8.3201 11.0149 8.32108 10.9719 8.32116C10.9457 8.32127 10.9196 8.32137 10.8926 8.32149C10.8639 8.32147 10.8353 8.32146 10.8058 8.32145C10.7756 8.32154 10.7454 8.32162 10.7142 8.32171C10.6314 8.32193 10.5485 8.32199 10.4657 8.32201C10.4139 8.32203 10.3621 8.32208 10.3103 8.32215C10.1297 8.32238 9.94899 8.32249 9.76832 8.32247C9.59995 8.32245 9.43159 8.32272 9.26323 8.32312C9.11863 8.32345 8.97402 8.32359 8.82941 8.32357C8.74307 8.32357 8.65673 8.32364 8.57038 8.32391C8.4741 8.3242 8.37782 8.32408 8.28153 8.32393C8.25295 8.32407 8.22437 8.32422 8.19493 8.32436C8.16868 8.32426 8.14242 8.32415 8.11537 8.32404C8.08124 8.32406 8.08124 8.32406 8.04641 8.32408C7.95614 8.315 7.88946 8.29112 7.8239 8.22255C7.78606 8.14487 7.78299 8.09984 7.79607 8.01308C7.89891 7.83892 8.05087 7.86837 8.22628 7.8701Z" fill="white"/>
<path d="M8.22628 6.75291C8.25847 6.75278 8.29067 6.75259 8.32286 6.75236C8.41012 6.75189 8.49737 6.75222 8.58463 6.75272C8.67599 6.75313 8.76734 6.75291 8.8587 6.75278C9.01209 6.75267 9.16547 6.75307 9.31885 6.75378C9.49617 6.75459 9.67349 6.75459 9.85081 6.75415C10.0214 6.75375 10.1921 6.75392 10.3627 6.75436C10.4353 6.75453 10.5079 6.7545 10.5805 6.75432C10.666 6.75412 10.7514 6.75443 10.8369 6.75512C10.8832 6.75538 10.9296 6.75514 10.9759 6.75489C11.0035 6.75521 11.031 6.75553 11.0595 6.75587C11.0834 6.75594 11.1074 6.75601 11.1321 6.75608C11.2109 6.77231 11.2388 6.80344 11.2883 6.8705C11.3053 6.94012 11.3016 7.00325 11.2883 7.07362C11.2337 7.15596 11.1906 7.18242 11.1008 7.20058C11.0579 7.20291 11.0149 7.20389 10.9719 7.20397C10.9457 7.20408 10.9196 7.20419 10.8926 7.2043C10.8639 7.20429 10.8353 7.20428 10.8058 7.20426C10.7756 7.20435 10.7454 7.20443 10.7142 7.20452C10.6314 7.20475 10.5485 7.20481 10.4657 7.20482C10.4139 7.20484 10.3621 7.20489 10.3103 7.20496C10.1297 7.2052 9.94899 7.2053 9.76832 7.20528C9.59995 7.20526 9.43159 7.20553 9.26323 7.20593C9.11863 7.20627 8.97402 7.2064 8.82941 7.20639C8.74307 7.20638 8.65673 7.20645 8.57038 7.20672C8.4741 7.20701 8.37782 7.2069 8.28153 7.20674C8.25295 7.20689 8.22437 7.20703 8.19493 7.20718C8.16868 7.20707 8.14242 7.20696 8.11537 7.20685C8.08124 7.20687 8.08124 7.20687 8.04641 7.20689C7.95614 7.19782 7.88946 7.17393 7.8239 7.10536C7.78606 7.02768 7.78299 6.98265 7.79607 6.89589C7.89891 6.72173 8.05087 6.75118 8.22628 6.75291Z" fill="white"/>
<path d="M7.3291 10.1434C7.37744 10.2116 7.37744 10.2116 7.39941 10.2957C7.37516 10.4284 7.33848 10.5048 7.2516 10.6009C7.2307 10.6242 7.2098 10.6476 7.18826 10.6717C7.16538 10.6966 7.14247 10.7215 7.11954 10.7463C7.09593 10.7722 7.07233 10.7982 7.04874 10.8241C6.99935 10.8783 6.94973 10.9322 6.89997 10.9859C6.8364 11.0546 6.77363 11.1241 6.71102 11.1938C6.66254 11.2475 6.61359 11.3007 6.56449 11.3538C6.54113 11.3792 6.51795 11.4048 6.49495 11.4306C6.29291 11.6561 6.29291 11.6561 6.15887 11.6616C6.07923 11.6509 6.02741 11.6308 5.96991 11.5679C5.95497 11.5522 5.94003 11.5364 5.92464 11.5202C5.90955 11.5031 5.89446 11.486 5.87891 11.4685C5.86289 11.4513 5.84688 11.4341 5.83038 11.4163C5.79802 11.3814 5.76589 11.3463 5.73399 11.311C5.69245 11.265 5.65035 11.2198 5.60782 11.1749C5.41035 10.9655 5.41035 10.9655 5.39844 10.8321C5.39971 10.7479 5.40355 10.7322 5.45557 10.6639C5.54811 10.6127 5.58537 10.602 5.68848 10.6258C5.77485 10.6931 5.8481 10.7726 5.92285 10.8543C5.9452 10.8783 5.96757 10.9022 5.98996 10.926C6.04612 10.9864 6.10184 11.0471 6.15723 11.1082C6.25764 11.0212 6.34521 10.9294 6.43115 10.8258C6.55769 10.6736 6.68935 10.5271 6.82227 10.3814C6.8528 10.3475 6.8528 10.3475 6.88394 10.313C6.90341 10.2918 6.92288 10.2706 6.94293 10.2487C6.96032 10.2297 6.9777 10.2106 6.99561 10.1909C7.10996 10.0869 7.19191 10.0773 7.3291 10.1434Z" fill="white"/>
<path d="M7.28223 12.3543C7.34082 12.3924 7.34082 12.3924 7.37598 12.4559C7.39022 12.54 7.39581 12.5795 7.37598 12.659C7.34603 12.7055 7.34603 12.7055 7.30629 12.7522C7.29137 12.7699 7.27645 12.7875 7.26108 12.8057C7.24486 12.8243 7.22863 12.843 7.21191 12.8621C7.19556 12.881 7.17921 12.8999 7.16237 12.9193C7.04656 13.0515 6.92863 13.1815 6.81058 13.3114C6.76746 13.359 6.72455 13.4069 6.68186 13.455C6.61985 13.5248 6.55718 13.5938 6.49432 13.6627C6.47542 13.6843 6.45652 13.7059 6.43704 13.7281C6.28644 13.8907 6.28644 13.8907 6.16142 13.8962C6.07638 13.8865 6.02523 13.8648 5.96396 13.7978C5.94784 13.7808 5.93172 13.7637 5.91512 13.7462C5.89882 13.7278 5.88252 13.7094 5.86572 13.6905C5.84855 13.672 5.83137 13.6536 5.81367 13.6345C5.77947 13.5977 5.74549 13.5605 5.71174 13.5232C5.67101 13.4781 5.62978 13.4338 5.58804 13.3898C5.41032 13.2014 5.41032 13.2014 5.39844 13.0684C5.39971 12.9842 5.40355 12.9685 5.45557 12.9002C5.54811 12.849 5.58537 12.8383 5.68848 12.8621C5.77485 12.9294 5.8481 13.0089 5.92285 13.0906C5.9452 13.1146 5.96757 13.1385 5.98996 13.1624C6.04612 13.2227 6.10184 13.2834 6.15723 13.3446C6.23495 13.2788 6.30289 13.2138 6.36615 13.1318C6.47854 12.991 6.60041 12.8606 6.72206 12.7293C6.76261 12.6855 6.80304 12.6416 6.84346 12.5977C6.86926 12.5697 6.89506 12.5418 6.92087 12.5139C6.93896 12.4942 6.93896 12.4942 6.95741 12.4742C7.06138 12.3623 7.13443 12.3325 7.28223 12.3543Z" fill="white"/>
<path d="M7.28223 7.88353C7.33975 7.92827 7.36579 7.96377 7.39795 8.03112C7.40107 8.14963 7.35087 8.23633 7.28267 8.32424C7.22149 8.39441 7.15893 8.46288 7.09564 8.5308C7.07236 8.55608 7.0491 8.58139 7.02585 8.6067C6.97726 8.65949 6.9285 8.71209 6.87962 8.76457C6.81707 8.83176 6.75495 8.89939 6.69294 8.96717C6.64505 9.01942 6.59694 9.07142 6.54877 9.12335C6.52577 9.14819 6.50284 9.17312 6.47998 9.19812C6.44802 9.233 6.41573 9.26752 6.38342 9.30202C6.36515 9.32173 6.34689 9.34144 6.32807 9.36174C6.26882 9.41168 6.23143 9.42542 6.15723 9.43236C6.04867 9.40315 5.97822 9.32844 5.89941 9.24669C5.87989 9.22679 5.87989 9.22679 5.85998 9.20649C5.7605 9.10444 5.66265 9.00056 5.56543 8.89599C5.55229 8.88187 5.53914 8.86775 5.5256 8.85321C5.44261 8.76292 5.40994 8.72636 5.39844 8.59765C5.39971 8.5134 5.40355 8.49773 5.45557 8.42943C5.54232 8.38144 5.59176 8.3798 5.68848 8.39135C5.74258 8.43249 5.7823 8.46806 5.82764 8.5183C5.84562 8.53719 5.84562 8.53719 5.86396 8.55647C5.89961 8.59412 5.9347 8.63231 5.96973 8.67064C5.98946 8.69169 6.00918 8.71273 6.02951 8.73442C6.07248 8.78047 6.11505 8.82687 6.15723 8.87377C6.27065 8.7729 6.37222 8.66614 6.4707 8.54845C6.59965 8.39661 6.73165 8.24854 6.86621 8.10253C6.88353 8.08365 6.90086 8.06477 6.9187 8.04532C6.94293 8.01914 6.94293 8.01914 6.96765 7.99244C6.98919 7.96915 6.98919 7.96915 7.01116 7.94539C7.09006 7.86698 7.18009 7.86754 7.28223 7.88353Z" fill="white"/>
</g>
<defs>
<clipPath id="clip0_2635_293051">
<rect width="12" height="13" fill="white" transform="translate(4 4)"/>
</clipPath>
</defs>
</svg>
