<svg width="20" height="19" viewBox="0 0 20 19" fill="none" xmlns="http://www.w3.org/2000/svg">
<rect width="20" height="19" rx="3" fill="#FFCB00"/>
<path d="M7.80848 4.16457C7.89973 4.2274 7.98206 4.29673 8.06266 4.37244C8.08288 4.39138 8.08288 4.39138 8.10351 4.4107C8.32612 4.62094 8.54241 4.83781 8.7592 5.05399C8.82455 5.11914 8.89009 5.18409 8.95569 5.24899C9.00711 5.29995 9.05839 5.35105 9.10963 5.4022C9.13371 5.42618 9.15784 5.45011 9.18202 5.47398C9.3098 5.60019 9.4307 5.72906 9.54238 5.86984C9.55207 5.88201 9.56176 5.89417 9.57175 5.9067C9.74842 6.13496 9.81641 6.40166 9.78618 6.68651C9.74454 6.94252 9.64814 7.12708 9.47624 7.319C9.46049 7.33705 9.44475 7.3551 9.42852 7.37369C9.29454 7.52362 9.15266 7.66578 9.01066 7.80811C8.99154 7.82732 8.97241 7.84652 8.9527 7.86631C8.84448 7.97413 8.73429 8.07803 8.61754 8.17662C8.80361 8.60039 9.04927 8.98037 9.34743 9.33441C9.35672 9.34547 9.366 9.35653 9.37557 9.36793C9.60252 9.63767 9.84103 9.89359 10.0894 10.1438C10.1079 10.1626 10.1264 10.1813 10.1455 10.2007C10.2735 10.3287 10.4082 10.4436 10.5496 10.5565C10.5764 10.579 10.6031 10.6016 10.6297 10.6243C10.934 10.8811 11.2672 11.108 11.6176 11.2976C11.6323 11.3056 11.647 11.3137 11.6621 11.322C11.735 11.361 11.735 11.361 11.8155 11.3669C11.8702 11.3455 11.899 11.3173 11.94 11.2753C11.9556 11.2596 11.9711 11.2438 11.9872 11.2276C12.0122 11.2018 12.0122 11.2018 12.0377 11.1755C12.0551 11.1579 12.0725 11.1402 12.0905 11.1221C12.165 11.0466 12.2391 10.9708 12.3133 10.8949C12.3675 10.8396 12.4219 10.7844 12.4764 10.7293C12.4928 10.7124 12.5091 10.6956 12.526 10.6782C12.6769 10.5254 12.8451 10.3785 13.0479 10.3006C13.0684 10.2924 13.089 10.2843 13.1101 10.2759C13.3677 10.19 13.6518 10.2155 13.8985 10.3207C14.1417 10.4511 14.3263 10.6496 14.5188 10.843C14.5532 10.8773 14.5876 10.9116 14.6221 10.9459C14.6938 11.0174 14.7654 11.0891 14.8369 11.1609C14.9281 11.2524 15.0196 11.3436 15.1113 11.4347C15.1823 11.5053 15.2531 11.5761 15.3238 11.647C15.3575 11.6806 15.3912 11.7143 15.425 11.7478C15.761 12.0818 15.761 12.0818 15.8735 12.2932C15.8825 12.3094 15.8915 12.3255 15.9007 12.3422C16.0338 12.5915 16.0186 12.8886 15.94 13.1512C15.8153 13.4895 15.5308 13.7369 15.2792 13.983C15.2316 14.0298 15.184 14.0766 15.1365 14.1235C15.1073 14.1524 15.0779 14.1812 15.0485 14.2099C14.9654 14.2916 14.8871 14.376 14.8113 14.4646C14.5491 14.762 14.1405 14.9551 13.7483 14.9947C13.1879 15.0217 12.6725 14.9447 12.1382 14.7803C12.121 14.775 12.1037 14.7698 12.086 14.7643C11.2221 14.4947 10.3867 14.0305 9.64798 13.5153C9.63582 13.5068 9.62365 13.4984 9.61112 13.4897C9.52248 13.4278 9.43475 13.3647 9.34743 13.3009C9.33356 13.2908 9.31969 13.2807 9.3054 13.2702C9.12739 13.1399 8.95493 13.0053 8.78777 12.8613C8.73385 12.8154 8.67903 12.7718 8.62291 12.7287C8.4147 12.5643 8.22526 12.3735 8.03792 12.186C8.00227 12.1509 7.9666 12.1157 7.93092 12.0806C7.90015 12.0502 7.86939 12.0198 7.83865 11.9893C7.81784 11.9688 7.79699 11.9482 7.77609 11.9277C7.64703 11.8011 7.52649 11.6708 7.41347 11.5295C7.36713 11.4719 7.31856 11.4183 7.26777 11.3646C7.15655 11.2434 7.05495 11.1166 6.95507 10.9862C6.93189 10.9559 6.90862 10.9256 6.8853 10.8955C6.66161 10.6057 6.45526 10.3061 6.25612 9.99907C6.24714 9.98524 6.23816 9.97141 6.22891 9.95717C6.17875 9.87936 6.13106 9.80025 6.08438 9.72034C6.07452 9.70361 6.06467 9.68688 6.05451 9.66964C5.45555 8.64825 4.76175 7.23062 5.08006 6.01045C5.17061 5.68755 5.3283 5.44325 5.55423 5.19949C5.57072 5.18169 5.57072 5.18169 5.58754 5.16354C5.72101 5.02041 5.85847 4.88124 5.99675 4.74275C6.04154 4.6978 6.0861 4.65262 6.13067 4.60745C6.53057 4.20482 6.53057 4.20482 6.7928 4.0922C6.81539 4.08225 6.83797 4.0723 6.86123 4.06205C7.16745 3.94312 7.53165 4.0049 7.80848 4.16457ZM6.35963 5.2165C6.30581 5.27004 6.25176 5.32335 6.19771 5.37667C6.16297 5.41123 6.12823 5.4458 6.09352 5.48039C6.07759 5.49603 6.06167 5.51167 6.04526 5.52779C5.75305 5.82087 5.5959 6.14842 5.59023 6.56607C5.5963 7.25781 5.84412 7.91877 6.12731 8.54111C6.1366 8.56171 6.14589 8.58232 6.15546 8.60355C6.37435 9.08568 6.63899 9.54391 6.94308 9.97763C6.95152 9.98971 6.95996 10.0018 6.96865 10.0142C7.17094 10.3032 7.38152 10.5867 7.60857 10.8567C7.61772 10.8676 7.62687 10.8786 7.6363 10.8899C7.75647 11.0338 7.87885 11.1749 8.00605 11.3127C8.04738 11.3581 8.08756 11.404 8.12756 11.4505C8.22135 11.5578 8.32193 11.6581 8.42299 11.7585C8.44135 11.7769 8.45971 11.7954 8.47863 11.8143C8.57399 11.9094 8.67069 12.0015 8.77291 12.0891C8.82513 12.134 8.87554 12.1808 8.92613 12.2275C9.03444 12.326 9.14609 12.4178 9.26156 12.5076C9.29042 12.5304 9.31926 12.5532 9.3481 12.5759C9.56469 12.7464 9.78488 12.9102 10.0129 13.0651C10.0269 13.0746 10.0409 13.0841 10.0553 13.0939C11.0193 13.7439 12.4537 14.6064 13.6751 14.4259C13.9259 14.3758 14.1113 14.3026 14.3064 14.1371C14.3396 14.1112 14.3396 14.1112 14.3735 14.0848C14.4196 14.0438 14.4551 14.0074 14.494 13.9607C14.5709 13.8721 14.653 13.7899 14.7365 13.7077C14.7504 13.694 14.7642 13.6804 14.7785 13.6663C14.8365 13.6091 14.8946 13.552 14.9529 13.4951C15.2758 13.2014 15.2758 13.2014 15.4107 12.8038C15.4115 12.7853 15.4124 12.7669 15.4133 12.7479C15.3814 12.565 15.2717 12.4267 15.1422 12.3C15.12 12.2776 15.12 12.2776 15.0972 12.2547C15.0486 12.2059 14.9996 12.1575 14.9506 12.1091C14.9165 12.075 14.8823 12.0409 14.8482 12.0068C14.7769 11.9356 14.7054 11.8646 14.6337 11.7937C14.5421 11.703 14.4508 11.612 14.3596 11.5208C14.2893 11.4504 14.2187 11.3802 14.1481 11.3101C14.1144 11.2766 14.0808 11.243 14.0471 11.2094C14.0001 11.1625 13.9528 11.1157 13.9055 11.0691C13.8918 11.0553 13.878 11.0415 13.8639 11.0273C13.7371 10.903 13.6181 10.8232 13.4367 10.8116C13.1956 10.8215 13.0307 11.0104 12.8736 11.1709C12.8534 11.1913 12.8333 11.2116 12.8131 11.232C12.728 11.3178 12.6431 11.404 12.5583 11.4902C12.5063 11.5431 12.454 11.5959 12.4017 11.6485C12.3724 11.6781 12.3433 11.7079 12.3141 11.7377C12.2182 11.8343 12.1323 11.9121 12.0094 11.9716C11.9952 11.9787 11.9811 11.9857 11.9665 11.993C11.7466 12.0299 11.5958 11.9499 11.4106 11.8464C11.366 11.8218 11.3208 11.7988 11.2751 11.7762C11.0462 11.6616 10.8409 11.5234 10.6355 11.3713C10.6115 11.3537 10.5876 11.3362 10.5636 11.3187C10.4192 11.2121 10.2794 11.1006 10.1417 10.9853C10.1308 10.9764 10.1199 10.9675 10.1087 10.9583C9.90826 10.7941 9.72381 10.6149 9.54064 10.4319C9.529 10.4203 9.51735 10.4087 9.50535 10.3967C9.37651 10.268 9.25082 10.1378 9.13276 9.99907C9.1129 9.97658 9.093 9.95414 9.07305 9.93173C8.70617 9.51483 8.37999 9.0622 8.14274 8.55909C8.1151 8.50161 8.08564 8.44508 8.05616 8.38853C7.998 8.25976 7.98832 8.10472 8.03616 7.97176C8.09395 7.8658 8.16773 7.78821 8.25771 7.70853C8.41002 7.57166 8.55567 7.42841 8.70073 7.28395C8.74532 7.23963 8.79013 7.19554 8.83494 7.15146C8.86376 7.12281 8.89256 7.09416 8.92136 7.06548C8.93455 7.05257 8.94774 7.03966 8.96134 7.02635C9.09296 6.89422 9.1981 6.75769 9.20521 6.5659C9.2016 6.36928 9.10449 6.25862 8.9742 6.1192C8.9629 6.10706 8.9516 6.09491 8.93996 6.0824C8.81321 5.94683 8.68273 5.81502 8.55163 5.68366C8.53887 5.67086 8.52611 5.65805 8.51296 5.64486C8.44568 5.57735 8.37834 5.50989 8.31095 5.44249C8.242 5.37351 8.17326 5.30433 8.10455 5.23511C8.05099 5.18121 7.99729 5.12746 7.94354 5.07375C7.91814 5.04832 7.89279 5.02283 7.8675 4.99729C7.59427 4.70543 7.59427 4.70543 7.22886 4.58936C6.86654 4.59457 6.59761 4.97938 6.35963 5.2165Z" fill="white"/>
</svg>
