<svg width="20" height="18" viewBox="0 0 20 18" fill="none" xmlns="http://www.w3.org/2000/svg">
<rect width="20" height="18" rx="3" fill="#00C875"/>
<g clip-path="url(#clip0_2635_293032)">
<path d="M7.75224 1.99468C7.78693 1.99453 7.78693 1.99453 7.82232 1.99438C7.89994 1.99408 7.97756 1.99397 8.05518 1.99387C8.11079 1.9937 8.16639 1.99351 8.222 1.99332C8.40474 1.99275 8.58748 1.99246 8.77022 1.99219C8.83315 1.99208 8.89609 1.99197 8.95902 1.99185C9.25473 1.99133 9.55043 1.99094 9.84614 1.99072C10.1873 1.99045 10.5285 1.98973 10.8697 1.98862C11.1335 1.9878 11.3973 1.98739 11.6611 1.9873C11.8186 1.98724 11.9761 1.987 12.1336 1.98631C12.2819 1.98567 12.4302 1.98556 12.5784 1.98584C12.6327 1.98585 12.687 1.98568 12.7413 1.9853C13.3842 1.9811 13.3842 1.9811 13.6339 2.21988C13.8597 2.49154 13.8638 2.76408 13.8578 3.09798C13.8575 3.14746 13.8573 3.19695 13.8572 3.24644C13.8568 3.35239 13.8559 3.45833 13.8546 3.56427C13.8527 3.73195 13.8521 3.89961 13.8518 4.0673C13.8507 4.5439 13.8476 5.02048 13.8434 5.49706C13.8411 5.76075 13.8399 6.02442 13.8398 6.28813C13.8397 6.4547 13.8382 6.6212 13.8357 6.78775C13.8344 6.89144 13.8345 6.9951 13.8348 7.09879C13.8347 7.14671 13.8342 7.19463 13.833 7.24253C13.8221 7.50789 13.8221 7.50789 13.9337 7.73999C14.0095 7.80266 14.0856 7.85395 14.1695 7.90496C14.7641 8.3735 15.1555 9.13036 15.2552 9.87472C15.3021 10.3421 15.2918 10.8172 15.1539 11.2682C15.1453 11.2965 15.1453 11.2965 15.1366 11.3252C15.06 11.5677 14.9541 11.7854 14.8181 12.0003C14.7821 12.0574 14.7821 12.0574 14.7438 12.1432C14.7652 12.2302 14.8201 12.2804 14.8839 12.3415C14.9098 12.3663 14.9358 12.3911 14.9625 12.4167C14.9811 12.4077 14.9997 12.3986 15.0189 12.3893C15.1212 12.3545 15.1829 12.3456 15.2906 12.362C15.3411 12.3983 15.3411 12.3983 15.3934 12.4461C15.4222 12.4722 15.4222 12.4722 15.4515 12.4989C15.5408 12.5829 15.6285 12.6683 15.7153 12.7549C15.7442 12.7836 15.7442 12.7836 15.7737 12.8129C15.8367 12.8755 15.8997 12.9383 15.9626 13.001C15.9842 13.0226 16.0059 13.0442 16.0282 13.0664C16.1426 13.1804 16.2569 13.2945 16.3712 13.4086C16.4889 13.5262 16.6068 13.6434 16.7248 13.7607C16.8159 13.8512 16.9068 13.942 16.9976 14.0328C17.041 14.0761 17.0845 14.1194 17.128 14.1625C17.189 14.223 17.2496 14.2837 17.3102 14.3445C17.328 14.362 17.3459 14.3796 17.3642 14.3977C17.5765 14.6119 17.7039 14.8242 17.7071 15.1323C17.7047 15.3104 17.6796 15.4369 17.5875 15.5886C17.5717 15.6173 17.5559 15.6461 17.5397 15.6757C17.3746 15.882 17.1722 15.9768 16.9122 16.0074C16.6999 16.0167 16.498 15.9764 16.3265 15.845C16.0919 15.6296 15.8676 15.4038 15.6426 15.1785C15.5977 15.1336 15.5528 15.0887 15.5078 15.0439C15.4143 14.9503 15.3208 14.8568 15.2273 14.7632C15.1073 14.643 14.9872 14.523 14.8671 14.403C14.7746 14.3106 14.6821 14.2182 14.5897 14.1257C14.5454 14.0814 14.5011 14.0371 14.4568 13.9928C14.3951 13.9312 14.3336 13.8695 14.272 13.8078C14.2536 13.7895 14.2352 13.7712 14.2163 13.7523C14.1996 13.7355 14.1829 13.7188 14.1658 13.7015C14.1512 13.687 14.1367 13.6724 14.1217 13.6574C14.069 13.5994 14.0603 13.5676 14.055 13.4882C14.0602 13.4006 14.0806 13.3441 14.1149 13.2643C14.0796 13.2284 14.0443 13.1925 14.0089 13.1567C13.9794 13.1267 13.9794 13.1267 13.9493 13.0961C13.8996 13.044 13.8996 13.044 13.8414 13.0182C13.842 13.04 13.8426 13.0618 13.8432 13.0842C13.8454 13.1841 13.8469 13.284 13.8483 13.384C13.8492 13.4182 13.8501 13.4524 13.851 13.4877C13.8536 13.7366 13.8224 13.9448 13.6705 14.1479C13.421 14.3917 13.1595 14.421 12.823 14.4199C12.7896 14.42 12.7562 14.4201 12.7218 14.4202C12.6296 14.4204 12.5374 14.4204 12.4452 14.4203C12.3456 14.4203 12.246 14.4205 12.1464 14.4207C11.9514 14.4211 11.7565 14.4211 11.5615 14.421C11.403 14.421 11.2444 14.421 11.0859 14.4212C11.0521 14.4212 11.0521 14.4212 11.0175 14.4212C10.9716 14.4212 10.9257 14.4213 10.8799 14.4213C10.4498 14.4216 10.0198 14.4215 9.58977 14.4214C9.19663 14.4212 8.8035 14.4215 8.41036 14.4221C8.00638 14.4226 7.6024 14.4228 7.19842 14.4227C6.97174 14.4227 6.74506 14.4227 6.51838 14.4231C6.32541 14.4234 6.13243 14.4235 5.93946 14.4231C5.84107 14.423 5.74268 14.423 5.64429 14.4233C5.53747 14.4236 5.43066 14.4233 5.32383 14.423C5.29297 14.4232 5.2621 14.4234 5.2303 14.4236C4.96598 14.4218 4.72653 14.3794 4.52267 14.2015C4.31483 13.9867 4.27443 13.7333 4.27816 13.4462C4.27796 13.4109 4.27777 13.3756 4.27756 13.3393C4.27704 13.2422 4.27753 13.1452 4.2782 13.0481C4.27874 12.9431 4.27833 12.8381 4.27805 12.7331C4.27763 12.5278 4.27809 12.3225 4.27885 12.1171C4.27971 11.8779 4.2797 11.6386 4.27966 11.3993C4.27962 10.9724 4.28037 10.5454 4.28156 10.1185C4.28272 9.70445 4.2833 9.29043 4.28324 8.87639C4.28324 8.85088 4.28324 8.82536 4.28323 8.79907C4.28323 8.77359 4.28323 8.74812 4.28322 8.72187C4.28317 8.25 4.28365 7.77813 4.28438 7.30626C4.28463 7.13956 4.28472 6.97287 4.28476 6.80617C4.28481 6.60305 4.28518 6.39993 4.28593 6.1968C4.28631 6.09321 4.28656 5.98963 4.28646 5.88604C4.28635 5.7737 4.28688 5.66136 4.28748 5.54902C4.28728 5.50004 4.28729 5.50004 4.28709 5.45007C4.28922 5.20688 4.31801 5.02783 4.49237 4.84536C4.51423 4.82224 4.53609 4.79912 4.55861 4.7753C4.58104 4.75234 4.60346 4.72939 4.62657 4.70574C4.6473 4.68425 4.66803 4.66276 4.68939 4.64062C4.75478 4.57343 4.82079 4.50689 4.88698 4.44049C4.91174 4.41555 4.93649 4.39062 4.962 4.36493C5.04296 4.2834 5.12406 4.20201 5.20517 4.12063C5.23331 4.09237 5.26145 4.06412 5.28959 4.03587C5.42165 3.90329 5.55377 3.77078 5.68597 3.63835C5.83789 3.48615 5.98959 3.33374 6.1411 3.18113C6.25881 3.06259 6.37673 2.94427 6.49481 2.8261C6.5651 2.75574 6.63529 2.68531 6.70526 2.61464C6.78321 2.53594 6.86159 2.45768 6.94001 2.37945C6.96287 2.35624 6.98573 2.33303 7.00928 2.30911C7.23648 2.08391 7.43236 1.99461 7.75224 1.99468ZM7.68907 2.46355C7.68885 2.49035 7.68863 2.51715 7.6884 2.54476C7.68627 2.79818 7.68387 3.05161 7.68121 3.30503C7.67985 3.43529 7.67858 3.56556 7.67753 3.69582C7.67652 3.8217 7.67525 3.94758 7.67381 4.07346C7.67331 4.12131 7.67289 4.16917 7.67257 4.21702C7.66777 4.91029 7.66777 4.91029 7.47032 5.14324C7.27508 5.33137 7.06227 5.36995 6.79965 5.37071C6.77748 5.37098 6.75531 5.37126 6.73247 5.37154C6.65998 5.37238 6.58749 5.37285 6.515 5.37331C6.46443 5.37382 6.41386 5.37436 6.36328 5.37492C6.23077 5.37631 6.09825 5.3774 5.96573 5.37842C5.83027 5.37952 5.69481 5.38091 5.55935 5.38228C5.294 5.38492 5.02865 5.38723 4.76329 5.38933C4.76141 6.44597 4.75997 7.5026 4.7591 8.55924C4.759 8.68393 4.75889 8.80862 4.75878 8.93331C4.75876 8.95813 4.75874 8.98295 4.75872 9.00853C4.75836 9.4107 4.75771 9.81287 4.75696 10.215C4.75619 10.6276 4.75574 11.0401 4.75557 11.4526C4.75546 11.7073 4.7551 11.9619 4.75444 12.2166C4.754 12.3911 4.75387 12.5656 4.75398 12.7401C4.75403 12.8409 4.75395 12.9416 4.75351 13.0424C4.75304 13.1515 4.7532 13.2607 4.75342 13.3698C4.75318 13.4018 4.75295 13.4337 4.7527 13.4666C4.75286 13.4958 4.75303 13.5251 4.75319 13.5552C4.75316 13.5804 4.75313 13.6056 4.7531 13.6316C4.769 13.7412 4.81742 13.8141 4.90001 13.8864C4.99195 13.9439 5.06652 13.9514 5.17234 13.9515C5.2005 13.9516 5.22866 13.9517 5.25767 13.9518C5.28871 13.9518 5.31974 13.9518 5.35172 13.9518C5.38461 13.9518 5.41751 13.9519 5.4514 13.952C5.54286 13.9522 5.63433 13.9523 5.7258 13.9523C5.82439 13.9524 5.92297 13.9526 6.02156 13.9527C6.2372 13.9531 6.45284 13.9533 6.66848 13.9534C6.8031 13.9535 6.93771 13.9536 7.07232 13.9537C7.44493 13.954 7.81754 13.9543 8.19015 13.9544C8.22593 13.9544 8.22593 13.9544 8.26243 13.9544C8.28634 13.9544 8.31025 13.9545 8.33489 13.9545C8.38334 13.9545 8.43179 13.9545 8.48024 13.9545C8.51629 13.9545 8.51629 13.9545 8.55307 13.9545C8.94258 13.9546 9.33208 13.9551 9.72159 13.9557C10.1214 13.9564 10.5211 13.9567 10.9209 13.9568C11.1454 13.9568 11.3699 13.9569 11.5944 13.9574C11.7856 13.9579 11.9767 13.958 12.1679 13.9578C12.2655 13.9577 12.363 13.9577 12.4605 13.9581C12.5663 13.9585 12.672 13.9583 12.7777 13.958C12.8086 13.9582 12.8394 13.9584 12.8712 13.9586C13.0496 13.9575 13.1748 13.9424 13.3168 13.8249C13.395 13.726 13.3797 13.6107 13.3783 13.4916C13.3781 13.4628 13.3781 13.4628 13.3779 13.4335C13.3776 13.3862 13.3771 13.3389 13.3766 13.2917C13.3444 13.303 13.3123 13.3142 13.2792 13.3259C12.386 13.6217 11.4668 13.6349 10.6114 13.2165C10.1312 12.9726 10.1312 12.9726 9.99804 12.7985C9.89849 12.6809 9.81098 12.631 9.65828 12.6171C9.49063 12.6091 9.32312 12.6117 9.15538 12.6149C9.06815 12.616 8.98095 12.6167 8.89371 12.6169C8.83963 12.617 8.78555 12.6177 8.73148 12.619C8.69491 12.6193 8.69491 12.6193 8.6576 12.6195C8.63618 12.62 8.61476 12.6204 8.59269 12.6208C8.53673 12.6081 8.53673 12.6081 8.4888 12.5578C8.44257 12.4777 8.4433 12.4258 8.45469 12.3346C8.48389 12.2759 8.48389 12.2759 8.53673 12.2253C8.60686 12.2136 8.66588 12.2087 8.73614 12.2086C8.75545 12.2082 8.77475 12.2077 8.79464 12.2072C8.85622 12.2059 8.91777 12.2053 8.97935 12.2048C9.02113 12.204 9.06292 12.2032 9.1047 12.2023C9.20704 12.2003 9.30937 12.1989 9.41173 12.1979C9.39661 12.1725 9.38149 12.147 9.36592 12.1207C9.23406 11.8974 9.12549 11.673 9.02891 11.4323C8.99434 11.4316 8.95976 11.4309 8.92413 11.4302C8.87874 11.4286 8.83334 11.4271 8.78795 11.4255C8.76516 11.4251 8.74237 11.4247 8.71889 11.4243C8.55059 11.4175 8.55059 11.4175 8.48065 11.3541C8.44516 11.2741 8.44386 11.2182 8.45469 11.1315C8.48176 11.0954 8.50884 11.0593 8.53673 11.0221C8.65403 11.0131 8.77134 11.0041 8.89219 10.9948C8.87415 10.7421 8.8561 10.4895 8.83751 10.2292C8.73825 10.2202 8.63899 10.2111 8.53673 10.2018C8.45074 10.0872 8.43777 10.0638 8.45469 9.92839C8.48578 9.86986 8.48578 9.86986 8.53673 9.81902C8.61651 9.80236 8.61651 9.80236 8.70592 9.79851C8.73563 9.79696 8.76534 9.79541 8.79596 9.79381C8.81869 9.79311 8.84143 9.7924 8.86485 9.79168C8.91611 9.67182 8.95204 9.5493 8.9879 9.42424C9.02643 9.29056 9.06587 9.15773 9.11094 9.02605C9.0855 9.02567 9.0855 9.02567 9.05954 9.02528C8.98266 9.02381 8.90582 9.02152 8.82896 9.01921C8.80226 9.01883 8.77556 9.01844 8.74805 9.01804C8.72241 9.01716 8.69677 9.01628 8.67035 9.01537C8.64672 9.0148 8.62309 9.01423 8.59875 9.01363C8.53673 8.99871 8.53673 8.99871 8.488 8.94811C8.44269 8.86815 8.44337 8.81585 8.45469 8.72527C8.48524 8.66572 8.48524 8.66572 8.53673 8.61589C8.617 8.60661 8.617 8.60661 8.71457 8.61173C8.76763 8.6132 8.76763 8.6132 8.82176 8.61469C8.84028 8.61524 8.85881 8.61579 8.8779 8.61636C9.18854 8.6356 9.18854 8.6356 9.45958 8.52051C9.5145 8.44304 9.55789 8.36874 9.60002 8.28425C9.65821 8.1865 9.74318 8.11246 9.8253 8.03484C9.87934 7.98287 9.93284 7.93055 9.98594 7.87761C9.98594 7.86859 9.98594 7.85957 9.98594 7.85027C9.96122 7.84994 9.96122 7.84994 9.936 7.8496C9.76433 7.84725 9.59267 7.84452 9.42101 7.84159C9.35696 7.84055 9.29291 7.83959 9.22886 7.83873C9.13675 7.83748 9.04465 7.8359 8.95254 7.83425C8.92394 7.83393 8.89534 7.83362 8.86587 7.83329C8.83906 7.83275 8.81224 7.8322 8.78462 7.83164C8.76112 7.83128 8.73762 7.83092 8.71341 7.83054C8.63623 7.82181 8.57867 7.80328 8.50938 7.76824C8.44579 7.67284 8.44325 7.63433 8.45469 7.52214C8.48305 7.46302 8.48305 7.46302 8.53673 7.41277C8.61079 7.40223 8.67382 7.39873 8.74787 7.40001C8.76935 7.39995 8.79084 7.39989 8.81298 7.39982C8.85971 7.39975 8.90644 7.39993 8.95317 7.40032C9.0275 7.40092 9.1018 7.40082 9.17613 7.40053C9.36102 7.39993 9.54591 7.4004 9.73081 7.40111C9.88661 7.4017 10.0424 7.40175 10.1982 7.40103C10.2708 7.40092 10.3433 7.40159 10.4159 7.40228C10.6733 7.40248 10.8866 7.3756 11.1276 7.28274C11.8426 7.00873 12.6848 7.13367 13.3766 7.41277C13.3804 6.7993 13.3833 6.18583 13.3851 5.57236C13.3859 5.28751 13.3871 5.00266 13.3889 4.71781C13.3906 4.46953 13.3916 4.22125 13.392 3.97296C13.3922 3.8415 13.3927 3.71006 13.3939 3.5786C13.395 3.45482 13.3954 3.33106 13.3951 3.20728C13.3952 3.1619 13.3955 3.11652 13.3961 3.07114C13.4085 2.79897 13.4085 2.79897 13.2985 2.55981C13.1848 2.45231 13.0625 2.4597 12.914 2.46026C12.8806 2.46023 12.8806 2.46023 12.8465 2.46019C12.7715 2.46015 12.6966 2.4603 12.6217 2.46045C12.568 2.46045 12.5144 2.46045 12.4608 2.46043C12.315 2.46043 12.1692 2.46059 12.0234 2.46078C11.8711 2.46095 11.7188 2.46097 11.5665 2.461C11.278 2.46108 10.9895 2.46131 10.7011 2.46158C10.3727 2.46189 10.0443 2.46204 9.71591 2.46218C9.04029 2.46246 8.36468 2.46294 7.68907 2.46355ZM7.11366 2.87142C7.08703 2.89794 7.08703 2.89794 7.05986 2.92499C7.04027 2.94463 7.02069 2.96428 7.0005 2.98452C6.96969 3.01526 6.96969 3.01526 6.93826 3.04661C6.86998 3.11477 6.80181 3.18302 6.73364 3.25129C6.68648 3.29843 6.63931 3.34557 6.59214 3.3927C6.49314 3.49167 6.39419 3.59068 6.29527 3.68973C6.16812 3.81703 6.04086 3.9442 5.91355 4.07134C5.81609 4.16871 5.71869 4.26614 5.62131 4.36359C5.57439 4.41052 5.52746 4.45744 5.4805 4.50433C5.41502 4.56974 5.34963 4.63524 5.28425 4.70077C5.25479 4.73015 5.25479 4.73015 5.22473 4.76013C5.20705 4.77788 5.18937 4.79563 5.17116 4.81392C5.14792 4.83718 5.14792 4.83718 5.12422 4.8609C5.08835 4.89238 5.08835 4.89238 5.09141 4.92449C5.33458 4.92639 5.57774 4.92785 5.82091 4.92874C5.93383 4.92917 6.04674 4.92975 6.15966 4.93068C6.2687 4.93157 6.37773 4.93206 6.48677 4.93227C6.5283 4.93242 6.56984 4.93272 6.61137 4.93316C6.66969 4.93376 6.72799 4.93384 6.78631 4.9338C6.81946 4.93398 6.85262 4.93417 6.88678 4.93435C6.99296 4.92289 7.05439 4.90366 7.14219 4.84246C7.21617 4.71284 7.23436 4.60642 7.23354 4.45864C7.23355 4.44047 7.23356 4.42231 7.23357 4.4036C7.23352 4.34426 7.23288 4.28495 7.23224 4.22562C7.23208 4.18421 7.23197 4.14279 7.23188 4.10138C7.23157 3.99291 7.23077 3.88444 7.22986 3.77597C7.22902 3.66508 7.22864 3.55418 7.22823 3.44328C7.22735 3.22607 7.22596 3.00888 7.22423 2.79168C7.17498 2.79168 7.14686 2.83825 7.11366 2.87142ZM9.99193 8.49221C9.46655 9.08973 9.26344 9.82193 9.29596 10.6066C9.33624 11.1571 9.57053 11.6563 9.90391 12.0886C9.92066 12.1103 9.9374 12.1321 9.95465 12.1546C10.3892 12.679 11.088 13.0366 11.7633 13.1003C12.5299 13.1508 13.2537 12.9529 13.8414 12.444C13.8619 12.4275 13.8823 12.411 13.9034 12.394C14.4099 11.9725 14.703 11.3367 14.7984 10.694C14.8239 10.2911 14.8138 9.90348 14.6891 9.51824C14.6792 9.48729 14.6693 9.45634 14.6591 9.42446C14.5332 9.06852 14.3396 8.7591 14.0875 8.47918C14.0688 8.45817 14.05 8.43716 14.0307 8.41552C13.5178 7.87222 12.8031 7.59736 12.0641 7.57427C11.2665 7.59919 10.5483 7.91824 9.99193 8.49221ZM14.3883 12.5534C14.3414 12.607 14.2958 12.6616 14.2516 12.7175C14.3238 12.7896 14.3959 12.8618 14.4703 12.9362C14.5733 12.8847 14.6014 12.8626 14.6617 12.7721C14.6266 12.7355 14.5912 12.6991 14.5558 12.6628C14.5361 12.6425 14.5164 12.6222 14.4962 12.6012C14.4481 12.5473 14.4481 12.5473 14.3883 12.5534ZM15.1539 12.9362C14.9825 13.1077 14.811 13.2791 14.6344 13.4557C14.6924 13.5894 14.6924 13.5894 14.8805 13.7292C15.0609 13.5487 15.2414 13.3682 15.4274 13.1823C15.2876 12.9942 15.2876 12.9942 15.1539 12.9362ZM15.6742 13.5581C15.642 13.5908 15.642 13.5908 15.6091 13.6241C15.5859 13.6475 15.5626 13.671 15.5386 13.6951C15.5143 13.7199 15.49 13.7447 15.4649 13.7702C15.4404 13.795 15.4159 13.8197 15.3906 13.8453C15.3298 13.9067 15.2692 13.9683 15.2086 14.03C15.2508 14.1298 15.311 14.1943 15.3869 14.2709C15.4057 14.29 15.4057 14.29 15.4248 14.3094C15.4661 14.3511 15.5075 14.3927 15.549 14.4342C15.5779 14.4633 15.6068 14.4924 15.6357 14.5215C15.6962 14.5824 15.7569 14.6431 15.8177 14.7038C15.8952 14.7814 15.9724 14.8593 16.0495 14.9374C16.1091 14.9975 16.1689 15.0575 16.2288 15.1173C16.2573 15.1459 16.2858 15.1746 16.3142 15.2034C16.354 15.2438 16.3942 15.2838 16.4344 15.3238C16.4572 15.3466 16.4799 15.3694 16.5033 15.3929C16.6023 15.4734 16.7048 15.5275 16.834 15.5407C16.9897 15.5223 17.0696 15.4854 17.1774 15.3698C17.2411 15.2626 17.2581 15.1363 17.232 15.0143C17.1614 14.899 17.0835 14.8042 16.9881 14.7087C16.9751 14.6956 16.9621 14.6825 16.9487 14.669C16.9062 14.6262 16.8635 14.5837 16.8208 14.5412C16.7911 14.5114 16.7613 14.4816 16.7316 14.4517C16.6695 14.3896 16.6072 14.3275 16.545 14.2655C16.465 14.1858 16.3853 14.106 16.3057 14.026C16.2445 13.9645 16.1831 13.9032 16.1216 13.8419C16.0922 13.8125 16.0628 13.783 16.0334 13.7535C15.9925 13.7125 15.9514 13.6716 15.9103 13.6308C15.8869 13.6075 15.8636 13.5842 15.8395 13.5602C15.7643 13.4942 15.7493 13.4917 15.6742 13.5581Z" fill="white"/>
<path d="M13.7362 8.53438C13.7547 8.55027 13.7732 8.56617 13.7923 8.58255C14.1919 8.95245 14.4757 9.53778 14.5056 10.0804C14.5293 10.7844 14.407 11.3675 13.9549 11.925C13.9428 11.9416 13.9307 11.9581 13.9182 11.9752C13.616 12.3677 13.111 12.6192 12.6424 12.7453C12.6203 12.7514 12.5983 12.7576 12.5755 12.7639C11.9489 12.9073 11.2911 12.7631 10.7439 12.4446C10.1342 12.0462 9.77259 11.4655 9.61847 10.7571C9.53175 10.0617 9.66877 9.39719 10.0994 8.83516C10.5178 8.31525 11.0977 7.97794 11.7623 7.89693C12.4988 7.82119 13.178 8.05264 13.7362 8.53438ZM10.6463 8.94453C10.6293 8.9593 10.6122 8.97407 10.5946 8.98929C10.2981 9.2544 10.093 9.73474 10.0683 10.1257C10.0454 10.6908 10.1542 11.1993 10.5307 11.6413C10.9247 12.0615 11.3995 12.3218 11.9832 12.3443C12.5865 12.3556 13.0837 12.1299 13.5174 11.7131C13.5799 11.6512 13.6161 11.5939 13.6541 11.5148C13.6352 11.5044 13.6163 11.494 13.5968 11.4833C13.1474 11.2356 12.701 10.9835 12.2596 10.7219C12.2392 10.7098 12.2188 10.6978 12.1978 10.6854C12.1465 10.6551 12.0953 10.6245 12.0443 10.5937C12.0178 10.5778 11.9914 10.5619 11.9642 10.5455C11.9041 10.5031 11.9041 10.5031 11.8494 10.4211C11.8436 10.3543 11.8409 10.2904 11.8407 10.2235C11.8404 10.2035 11.8402 10.1835 11.8399 10.1629C11.839 10.0967 11.8386 10.0306 11.8381 9.96448C11.8376 9.91861 11.8371 9.87275 11.8365 9.82689C11.8351 9.70619 11.834 9.5855 11.833 9.4648C11.8319 9.34163 11.8305 9.21846 11.8291 9.0953C11.8265 8.85364 11.8242 8.61198 11.8221 8.37031C11.3796 8.37031 10.9493 8.64642 10.6463 8.94453ZM12.2869 8.37031C12.2869 8.88465 12.2869 9.39899 12.2869 9.92891C12.3954 9.88552 12.4876 9.84053 12.5882 9.78279C12.6115 9.76943 12.6115 9.76943 12.6353 9.7558C12.6856 9.72701 12.7358 9.69808 12.786 9.66914C12.8205 9.64934 12.8549 9.62955 12.8894 9.60975C13.1454 9.46273 13.4004 9.31408 13.6541 9.16328C13.6281 9.13279 13.6021 9.10232 13.5761 9.07185C13.5543 9.04639 13.5543 9.04639 13.5321 9.02042C13.2284 8.66991 12.8473 8.4691 12.3963 8.37031C12.3602 8.37031 12.3241 8.37031 12.2869 8.37031ZM13.6919 9.65761C13.6765 9.66644 13.661 9.67527 13.6451 9.68437C13.5945 9.71335 13.544 9.74251 13.4935 9.77168C13.4588 9.79159 13.4242 9.81149 13.3895 9.83139C13.1018 9.99694 12.8166 10.1666 12.533 10.3391C12.6191 10.4069 12.7089 10.4613 12.8042 10.5152C12.8198 10.5241 12.8354 10.5329 12.8515 10.5421C12.8848 10.561 12.9181 10.5799 12.9514 10.5987C13.0379 10.6476 13.1242 10.6968 13.2105 10.7459C13.2361 10.7604 13.2361 10.7604 13.2621 10.7752C13.467 10.892 13.6702 11.0116 13.8729 11.132C14.0842 10.815 14.0855 10.336 14.0262 9.97222C13.9973 9.83578 13.9628 9.69861 13.9002 9.57344C13.8167 9.57344 13.764 9.61627 13.6919 9.65761Z" fill="white"/>
<path d="M8.93196 3.76095C8.96952 3.76081 9.00708 3.76061 9.04464 3.76035C9.14644 3.75985 9.24823 3.7602 9.35004 3.76074C9.45662 3.76119 9.5632 3.76095 9.66979 3.76081C9.84874 3.76068 10.0277 3.76112 10.2066 3.76188C10.4135 3.76276 10.6204 3.76276 10.8273 3.76229C11.0263 3.76185 11.2254 3.76204 11.4245 3.7625C11.5092 3.76269 11.5939 3.76266 11.6786 3.76246C11.7783 3.76225 11.878 3.76258 11.9777 3.76333C12.0318 3.76361 12.0858 3.76335 12.1399 3.76308C12.172 3.76342 12.2042 3.76377 12.2373 3.76413C12.2653 3.76421 12.2932 3.76428 12.322 3.76436C12.4141 3.78184 12.4465 3.81537 12.5043 3.88758C12.5242 3.96252 12.52 4.03059 12.5043 4.10633C12.4439 4.1875 12.4089 4.21102 12.3129 4.24305C12.2636 4.24564 12.2142 4.24662 12.1648 4.2467C12.1187 4.24688 12.1187 4.24688 12.0716 4.24706C12.0379 4.24704 12.0041 4.24703 11.9694 4.24702C11.9161 4.24716 11.9161 4.24716 11.8617 4.2473C11.7642 4.24754 11.6667 4.2476 11.5692 4.24762C11.4878 4.24765 11.4064 4.24775 11.325 4.24784C11.1329 4.24807 10.9408 4.24813 10.7487 4.24811C10.5506 4.2481 10.3525 4.24839 10.1544 4.24882C9.98429 4.24918 9.81418 4.24932 9.64408 4.2493C9.54249 4.2493 9.44091 4.24938 9.33932 4.24967C9.226 4.24998 9.11269 4.24985 8.99937 4.24969C8.96573 4.24984 8.93209 4.25 8.89743 4.25016C8.86653 4.25004 8.83563 4.24993 8.80379 4.24981C8.76361 4.24983 8.76361 4.24983 8.72262 4.24985C8.61705 4.24012 8.5392 4.21454 8.46252 4.14051C8.41837 4.05686 8.4148 4.00836 8.43005 3.91492C8.55003 3.72737 8.72731 3.75908 8.93196 3.76095Z" fill="white"/>
<path d="M8.93196 6.1672C8.96952 6.16706 9.00708 6.16686 9.04464 6.1666C9.14644 6.1661 9.24823 6.16645 9.35004 6.16699C9.45662 6.16744 9.5632 6.1672 9.66979 6.16706C9.84874 6.16693 10.0277 6.16737 10.2066 6.16813C10.4135 6.16901 10.6204 6.16901 10.8273 6.16854C11.0263 6.1681 11.2254 6.16829 11.4245 6.16875C11.5092 6.16894 11.5939 6.16891 11.6786 6.16871C11.7783 6.1685 11.878 6.16883 11.9777 6.16958C12.0318 6.16986 12.0858 6.1696 12.1399 6.16933C12.172 6.16967 12.2042 6.17002 12.2373 6.17038C12.2653 6.17046 12.2932 6.17053 12.322 6.17061C12.4141 6.18809 12.4465 6.22162 12.5043 6.29383C12.5242 6.36881 12.5198 6.43679 12.5043 6.51258C12.4406 6.60125 12.3904 6.62975 12.2855 6.6493C12.2355 6.65182 12.1853 6.65287 12.1352 6.65295C12.1047 6.65307 12.0741 6.65319 12.0426 6.65331C12.0092 6.65329 11.9758 6.65328 11.9414 6.65327C11.9062 6.65336 11.8709 6.65345 11.8346 6.65355C11.7379 6.65379 11.6412 6.65385 11.5446 6.65387C11.4842 6.65389 11.4238 6.65395 11.3633 6.65402C11.1526 6.65427 10.9418 6.65439 10.731 6.65436C10.5346 6.65435 10.3382 6.65464 10.1417 6.65507C9.97303 6.65543 9.80432 6.65557 9.63561 6.65555C9.53488 6.65555 9.43415 6.65563 9.33342 6.65592C9.22109 6.65623 9.10876 6.6561 8.99642 6.65594C8.96308 6.65609 8.92974 6.65625 8.89539 6.65641C8.86476 6.65629 8.83413 6.65618 8.80257 6.65606C8.76274 6.65608 8.76274 6.65608 8.72211 6.6561C8.6168 6.64633 8.53901 6.62061 8.46252 6.54676C8.41837 6.46311 8.4148 6.41461 8.43005 6.32117C8.55003 6.13362 8.72731 6.16533 8.93196 6.1672Z" fill="white"/>
<path d="M8.93196 4.96407C8.96952 4.96393 9.00708 4.96373 9.04464 4.96348C9.14644 4.96297 9.24823 4.96333 9.35004 4.96386C9.45662 4.96431 9.5632 4.96407 9.66979 4.96393C9.84874 4.96381 10.0277 4.96424 10.2066 4.96501C10.4135 4.96588 10.6204 4.96588 10.8273 4.96541C11.0263 4.96498 11.2254 4.96516 11.4245 4.96563C11.5092 4.96582 11.5939 4.96579 11.6786 4.96559C11.7783 4.96538 11.878 4.96571 11.9777 4.96646C12.0318 4.96673 12.0858 4.96648 12.1399 4.9662C12.172 4.96655 12.2042 4.9669 12.2373 4.96726C12.2653 4.96733 12.2932 4.96741 12.322 4.96749C12.4141 4.98497 12.4465 5.01849 12.5043 5.0907C12.5242 5.16568 12.5198 5.23366 12.5043 5.30945C12.4406 5.39813 12.3904 5.42662 12.2855 5.44617C12.2355 5.44869 12.1853 5.44974 12.1352 5.44983C12.1047 5.44995 12.0741 5.45006 12.0426 5.45018C12.0092 5.45017 11.9758 5.45016 11.9414 5.45014C11.9062 5.45024 11.8709 5.45033 11.8346 5.45042C11.7379 5.45066 11.6412 5.45073 11.5446 5.45075C11.4842 5.45077 11.4238 5.45082 11.3633 5.4509C11.1526 5.45115 10.9418 5.45126 10.731 5.45124C10.5346 5.45122 10.3382 5.45151 10.1417 5.45194C9.97303 5.4523 9.80432 5.45245 9.63561 5.45243C9.53488 5.45242 9.43415 5.4525 9.33342 5.45279C9.22109 5.4531 9.10876 5.45298 8.99642 5.45281C8.96308 5.45297 8.92974 5.45312 8.89539 5.45328C8.86476 5.45317 8.83413 5.45305 8.80257 5.45293C8.76274 5.45296 8.76274 5.45296 8.72211 5.45298C8.6168 5.4432 8.53901 5.41748 8.46252 5.34363C8.41837 5.25998 8.4148 5.21148 8.43005 5.11805C8.55003 4.9305 8.72731 4.96221 8.93196 4.96407Z" fill="white"/>
<path d="M7.88525 8.61536C7.94165 8.68885 7.94165 8.68885 7.96729 8.77942C7.93898 8.92229 7.89619 9.00459 7.79483 9.10802C7.77045 9.13319 7.74606 9.15836 7.72094 9.18429C7.69424 9.21111 7.66751 9.2379 7.64076 9.26467C7.61322 9.29258 7.58569 9.32051 7.55816 9.34845C7.50054 9.40676 7.44266 9.46479 7.38459 9.52266C7.31044 9.59665 7.2372 9.67148 7.16416 9.74656C7.1076 9.80444 7.05049 9.86174 6.9932 9.9189C6.96596 9.94625 6.93891 9.9738 6.91207 10.0016C6.67637 10.2444 6.67637 10.2444 6.51998 10.2504C6.42706 10.2389 6.36662 10.2172 6.29953 10.1495C6.2821 10.1325 6.26467 10.1155 6.24672 10.098C6.22911 10.0797 6.2115 10.0613 6.19336 10.0424C6.17468 10.0238 6.15599 10.0053 6.13674 9.98621C6.099 9.94865 6.06151 9.91083 6.02429 9.87275C5.97583 9.82323 5.92671 9.77455 5.87709 9.7262C5.64672 9.50073 5.64672 9.50073 5.63281 9.35706C5.6343 9.26634 5.63878 9.24946 5.69946 9.17591C5.80744 9.12077 5.8509 9.10926 5.97119 9.13489C6.07196 9.20733 6.15742 9.293 6.24463 9.38099C6.2707 9.40675 6.2968 9.4325 6.32292 9.45821C6.38844 9.52317 6.45345 9.58857 6.51807 9.65442C6.63521 9.56071 6.73739 9.46187 6.83765 9.35022C6.98527 9.18633 7.13887 9.02856 7.29395 8.87171C7.32956 8.83522 7.32956 8.83522 7.3659 8.798C7.38861 8.77516 7.41132 8.75232 7.43472 8.72879C7.455 8.70826 7.47528 8.68772 7.49618 8.66656C7.62959 8.55449 7.72519 8.54422 7.88525 8.61536Z" fill="white"/>
<path d="M7.83057 10.9994C7.89893 11.0404 7.89893 11.0404 7.93994 11.1087C7.95655 11.1994 7.96308 11.2418 7.93994 11.3275C7.905 11.3775 7.905 11.3775 7.85864 11.4278C7.84124 11.4469 7.82383 11.4659 7.8059 11.4855C7.78697 11.5055 7.76804 11.5256 7.74853 11.5462C7.72946 11.5666 7.71038 11.5869 7.69073 11.6078C7.55562 11.7502 7.41803 11.8902 7.28031 12.03C7.23001 12.0814 7.17995 12.1329 7.13014 12.1847C7.05779 12.2599 6.98467 12.3342 6.91135 12.4084C6.88929 12.4317 6.86724 12.4549 6.84452 12.4788C6.66881 12.654 6.66881 12.654 6.52296 12.6598C6.42374 12.6494 6.36408 12.626 6.29259 12.5539C6.27378 12.5355 6.25498 12.5172 6.2356 12.4983C6.21659 12.4785 6.19757 12.4587 6.17798 12.4383C6.15794 12.4184 6.1379 12.3986 6.11726 12.3781C6.07735 12.3384 6.03771 12.2984 5.99833 12.2581C5.95081 12.2096 5.90271 12.1618 5.85402 12.1145C5.64667 11.9116 5.64667 11.9116 5.63281 11.7684C5.6343 11.6777 5.63878 11.6608 5.69946 11.5873C5.80744 11.5321 5.8509 11.5206 5.97119 11.5462C6.07196 11.6187 6.15742 11.7043 6.24463 11.7923C6.2707 11.8181 6.2968 11.8438 6.32292 11.8696C6.38844 11.9345 6.45345 11.9999 6.51807 12.0658C6.60874 11.995 6.688 11.9249 6.76181 11.8367C6.89293 11.685 7.03511 11.5446 7.17703 11.4032C7.22435 11.3561 7.27152 11.3088 7.31867 11.2614C7.34877 11.2313 7.37887 11.2013 7.40898 11.1712C7.43009 11.15 7.43009 11.15 7.45162 11.1284C7.57292 11.0079 7.65813 10.9758 7.83057 10.9994Z" fill="white"/>
<path d="M7.83057 6.18497C7.89768 6.23315 7.92806 6.27138 7.96558 6.34391C7.96922 6.47154 7.91065 6.5649 7.83109 6.65958C7.75971 6.73514 7.68673 6.80889 7.61288 6.88202C7.58573 6.90926 7.55858 6.93651 7.53146 6.96377C7.47477 7.02062 7.41789 7.07727 7.36086 7.13378C7.28788 7.20614 7.2154 7.27897 7.14306 7.35197C7.0872 7.40823 7.03107 7.46423 6.97486 7.52015C6.94803 7.54691 6.92128 7.57375 6.89461 7.60068C6.85732 7.63824 6.81965 7.67542 6.78196 7.71258C6.76065 7.7338 6.73934 7.75502 6.71739 7.77688C6.64826 7.83067 6.60463 7.84547 6.51807 7.85294C6.39142 7.82148 6.30923 7.74103 6.21729 7.65299C6.19451 7.63156 6.19451 7.63156 6.17128 7.60969C6.05522 7.49979 5.94106 7.38792 5.82764 7.2753C5.8123 7.2601 5.79697 7.2449 5.78117 7.22924C5.68435 7.13201 5.64623 7.09264 5.63281 6.95402C5.6343 6.86329 5.63878 6.84642 5.69946 6.77286C5.80067 6.72118 5.85835 6.71942 5.97119 6.73185C6.03432 6.77616 6.08065 6.81446 6.13354 6.86857C6.15452 6.88891 6.15452 6.88891 6.17592 6.90967C6.21752 6.95021 6.25845 6.99135 6.29932 7.03263C6.32233 7.05529 6.34535 7.07796 6.36906 7.10131C6.4192 7.1509 6.46886 7.20087 6.51807 7.25138C6.6504 7.14275 6.76889 7.02778 6.88379 6.90104C7.03423 6.73752 7.18822 6.57805 7.34521 6.42081C7.36542 6.40048 7.38564 6.38015 7.40646 6.3592C7.43472 6.33101 7.43472 6.33101 7.46356 6.30225C7.48869 6.27717 7.48869 6.27717 7.51432 6.25158C7.60637 6.16715 7.71141 6.16775 7.83057 6.18497Z" fill="white"/>
</g>
<defs>
<clipPath id="clip0_2635_293032">
<rect width="14" height="14" fill="white" transform="translate(4 2)"/>
</clipPath>
</defs>
</svg>
