<svg width="20" height="19" viewBox="0 0 20 19" fill="none" xmlns="http://www.w3.org/2000/svg">
<rect width="20" height="19" rx="3" fill="#FFCB00"/>
<path d="M4.5785 3.01497C4.53029 3.0267 4.46039 3.05955 4.42182 3.09005C4.35915 3.13932 4.34951 3.16513 4.33505 3.31764C4.3254 3.41384 4.31576 3.62736 4.31576 3.79629C4.31094 4.41807 4.21212 5.21347 4.07231 5.73905C4.03375 5.89156 4 6.05111 4 6.09335C4 6.19424 4.07231 6.25524 4.24827 6.30921C4.38566 6.35144 4.3929 6.35144 4.47485 6.30686C4.56886 6.25524 4.6026 6.19893 4.85328 5.67805C5.23413 4.89203 5.68487 4.42042 6.29471 4.18109C6.86115 3.95584 7.76988 3.83149 8.61111 3.86199C9.004 3.87607 9.14863 3.9183 9.20166 4.03327C9.22335 4.07551 9.23058 5.24867 9.23058 8.62503C9.23058 12.5223 9.22576 13.1816 9.19443 13.3224C9.14863 13.5312 9.01123 13.8034 8.91 13.8878C8.81117 13.97 8.48336 14.1225 8.08564 14.2703C7.67105 14.4228 7.49268 14.5026 7.45411 14.5495C7.33118 14.702 7.32877 14.8123 7.4517 14.9296L7.52401 15H10.067C12.393 15 12.6172 14.9977 12.6943 14.9601C12.9016 14.8639 12.933 14.5683 12.7401 14.5096C12.6992 14.4955 12.4895 14.4439 12.2725 14.3923C11.8386 14.2891 11.5398 14.1717 11.2842 14.0052C11.0866 13.8785 10.9902 13.7494 10.9251 13.5218C10.8841 13.3763 10.8817 13.1511 10.8817 8.70715C10.8817 4.07551 10.8817 4.04266 10.9299 3.99808C11.0336 3.89718 11.2481 3.86903 11.8459 3.86903C12.8462 3.87138 13.5958 3.99573 14.0996 4.24209C14.6154 4.4955 14.9384 4.93191 15.2686 5.82586C15.3193 5.96195 15.3771 6.09569 15.3964 6.12619C15.5097 6.29513 15.9122 6.28809 15.9821 6.11446C16.0207 6.02061 15.9918 4.66209 15.9436 4.24209C15.8978 3.83618 15.7893 3.17686 15.7604 3.1229C15.7001 3.01262 15.946 3.01731 10.1345 3.00323C6.73099 2.9962 4.63153 3.00089 4.5785 3.01497Z" fill="white"/>
</svg>
