<svg width="215" height="51" viewBox="0 0 215 51" fill="none" xmlns="http://www.w3.org/2000/svg">
<path d="M209.486 25.5007C209.486 23.9944 209.486 20.3361 214.998 15.3867C209.486 19.9056 199.838 19.6905 192.258 18.8298C196.393 21.1969 196.393 24.6399 196.393 25.5007C196.393 26.3615 196.393 29.8045 192.258 32.1717C199.838 31.3109 209.486 31.0957 214.998 35.6146C209.486 30.6653 209.486 27.007 209.486 25.5007Z" fill="#333333"/>
<path d="M189.505 34C190.883 32.4936 190.194 29.6962 190.194 25.5C190.194 21.3038 190.883 18.5063 189.505 16.9999C199.841 19.1519 219.548 16.746 212.245 10.7595C206.732 6.24051 187.437 4.73414 171.588 5.16453C150.947 5.72508 115.081 12.481 107.502 0C99.9214 12.481 64.0561 5.72508 43.415 5.16458C27.5656 4.7342 8.27057 6.24051 2.75789 10.7595C-4.5452 16.746 15.1616 19.1519 25.4983 17C24.1201 18.5064 24.8093 21.3038 24.8093 25.5H24.8095C24.8095 29.6962 24.1203 32.4937 25.4983 34.0001C15.1622 31.8481 -4.54503 34.2541 2.75807 40.2405C8.27075 44.7595 27.5659 46.2659 43.415 45.8355C64.0563 45.275 99.9214 38.519 107.502 51C115.081 38.519 150.947 45.2749 171.588 45.8355C187.438 46.2659 206.732 44.7596 212.245 40.2405C219.548 34.254 199.841 31.8481 189.505 34ZM107.502 4.58922C109.838 6.19372 114.815 8.03667 125.418 8.60758C116.761 8.60758 111.145 7.92087 107.502 6.98531C103.858 7.92087 98.2416 8.60758 89.5849 8.60758C100.188 8.03673 105.165 6.19372 107.502 4.58922ZM107.502 46.4107C105.165 44.8063 100.188 42.9632 89.5853 42.3924C98.2416 42.3924 103.858 43.079 107.502 44.0147C111.145 43.0791 116.761 42.3924 125.418 42.3924C114.815 42.9632 109.838 44.8063 107.502 46.4107ZM168.143 44.5443C142.351 43.1293 128.864 38.9493 107.502 42.3924C86.1394 38.9493 72.6514 43.1293 46.8608 44.5443C21.3637 45.943 -0.424649 41.6913 6.2037 36.905C11.6274 32.9884 27.7225 35.4245 31.5229 37.4511C27.5481 35.232 26.8766 29.7406 26.8766 25.5C26.8766 21.2594 27.5481 15.768 31.5226 13.5489C27.7224 15.5755 11.627 18.0116 6.20316 14.095C-0.425009 9.3086 21.3635 5.05697 46.8602 6.45573C72.6514 7.87058 86.1394 12.0506 107.502 8.60764C128.864 12.0506 142.351 7.87064 168.143 6.45573C193.639 5.05697 215.428 9.3086 208.799 14.095C203.376 18.0116 187.28 15.5755 183.48 13.5489C187.455 15.768 188.126 21.2594 188.126 25.5C188.126 29.7406 187.455 35.2321 183.48 37.4511C187.28 35.4245 203.376 32.9884 208.8 36.905C215.428 41.6913 193.639 45.943 168.143 44.5443Z" fill="#333333"/>
<path d="M22.7405 32.1714C18.6058 29.8043 18.6058 26.3612 18.6058 25.5005H18.6056C18.6056 24.6397 18.6056 21.1966 22.7403 18.8295C15.16 19.6903 5.51286 19.9054 0 15.3865C5.51286 20.3358 5.51268 23.9941 5.51268 25.5005H5.51286C5.51286 27.0068 5.51286 30.6651 0 35.6144C5.51286 31.0954 15.1605 31.3106 22.7405 32.1714Z" fill="#333333"/>
<path d="M85.3076 40.5233C93.7943 39.504 104.239 40.3195 107.503 41.7464C110.767 40.3194 121.211 39.504 129.698 40.5233C121.864 38.4847 112.725 37.873 107.503 37.873C102.281 37.873 93.1415 38.4847 85.3076 40.5233Z" fill="#333333"/>
<path d="M107.503 9.25391C104.239 10.6808 93.7945 11.4964 85.3076 10.477C93.1415 12.5156 102.281 13.1272 107.503 13.1272C112.726 13.1272 121.864 12.5156 129.699 10.477C121.211 11.4964 110.767 10.6808 107.503 9.25391Z" fill="#333333"/>
<path d="M42.1406 21.2812C41.9115 21.2188 41.7448 21.1458 41.6406 21.0625C41.5469 20.9792 41.5 20.8542 41.5 20.6875C41.5 20.3646 41.6562 20.2031 41.9688 20.2031H45.7344C46.974 20.2031 47.9375 20.5052 48.625 21.1094C49.3125 21.7135 49.6562 22.5 49.6562 23.4688C49.6562 24.5729 49.2812 25.4167 48.5312 26C47.7917 26.5833 46.7396 26.875 45.375 26.875H44.8281C44.5677 26.875 44.4375 26.6562 44.4375 26.2188C44.4375 25.7812 44.5521 25.5625 44.7812 25.5625H45.1875C45.9688 25.5625 46.5729 25.3906 47 25.0469C47.4271 24.7031 47.6406 24.1719 47.6406 23.4531C47.651 22.8385 47.4531 22.3594 47.0469 22.0156C46.6406 21.6615 46.1875 21.4844 45.6875 21.4844H44.9375C44.5104 21.4844 44.2969 21.6875 44.2969 22.0938V31.7188H42.4219V22.125C42.4219 21.7917 42.3906 21.5729 42.3281 21.4688C42.2656 21.3646 42.2031 21.3021 42.1406 21.2812ZM50.5312 25.4531C50.5312 25.1198 50.5052 24.901 50.4531 24.7969C50.4115 24.6823 50.3542 24.6094 50.2812 24.5781C50.1146 24.5365 49.974 24.4792 49.8594 24.4062C49.7552 24.3229 49.7031 24.1979 49.7031 24.0312C49.7031 23.6979 49.9271 23.5312 50.375 23.5312H51.75C52.2083 23.5312 52.4375 23.7188 52.4375 24.0938V24.2188C52.5104 24.1458 52.5885 24.0781 52.6719 24.0156C53.1406 23.6094 53.7552 23.4062 54.5156 23.4062H55.3125V25.1562C54.3125 24.9375 53.5104 25.0573 52.9062 25.5156C52.7292 25.6406 52.5729 25.8177 52.4375 26.0469V31.7188H50.5312V25.4531ZM55.1562 27.5938C55.1562 26.3438 55.4792 25.3229 56.125 24.5312C56.7812 23.7292 57.7292 23.3281 58.9688 23.3281C60.2188 23.3281 61.1719 23.7292 61.8281 24.5312C62.4844 25.3229 62.8125 26.3438 62.8125 27.5938C62.8125 28.8333 62.4844 29.849 61.8281 30.6406C61.1719 31.4323 60.2188 31.8281 58.9688 31.8281C57.7292 31.8281 56.7812 31.4323 56.125 30.6406C55.4792 29.849 55.1562 28.8333 55.1562 27.5938ZM57.2031 27.5938C57.2031 28.6146 57.3854 29.3646 57.75 29.8438C58.1146 30.3125 58.5208 30.5469 58.9688 30.5469C59.4271 30.5469 59.8385 30.3125 60.2031 29.8438C60.5781 29.3646 60.7656 28.6146 60.7656 27.5938C60.7656 26.5625 60.5781 25.8073 60.2031 25.3281C59.8385 24.849 59.4271 24.6094 58.9688 24.6094C58.5208 24.6094 58.1146 24.849 57.75 25.3281C57.3854 25.8073 57.2031 26.5625 57.2031 27.5938ZM66.375 31.3906C66.375 32.4948 66.1562 33.2708 65.7188 33.7188C65.2812 34.1667 64.6354 34.3906 63.7812 34.3906C62.9062 34.3906 62.2656 34.1823 61.8594 33.7656C61.4427 33.3594 61.2344 32.776 61.2344 32.0156H63.2031C63.2031 32.5573 63.2656 32.8906 63.3906 33.0156C63.526 33.1406 63.6562 33.2031 63.7812 33.2031C63.9792 33.2031 64.1354 33.0885 64.25 32.8594C64.3646 32.6406 64.4219 32.151 64.4219 31.3906V25.4219C64.4219 25.1094 64.401 24.901 64.3594 24.7969C64.3281 24.6927 64.2812 24.6302 64.2188 24.6094C64.0208 24.5469 63.8698 24.4844 63.7656 24.4219C63.6615 24.349 63.6094 24.2188 63.6094 24.0312C63.6094 23.6979 63.8333 23.5312 64.2812 23.5312H65.7031C66.151 23.5312 66.375 23.7083 66.375 24.0625V31.3906ZM66.4844 21.1094C66.4844 21.4427 66.3646 21.7292 66.125 21.9688C65.8958 22.1979 65.6094 22.3125 65.2656 22.3125C64.9427 22.3125 64.6667 22.1979 64.4375 21.9688C64.2083 21.7292 64.0938 21.4427 64.0938 21.1094C64.0938 20.776 64.2083 20.4896 64.4375 20.25C64.6667 20 64.9427 19.875 65.2656 19.875C65.6094 19.875 65.8958 20 66.125 20.25C66.3646 20.4896 66.4844 20.776 66.4844 21.1094ZM69.3125 27.9844C69.3542 28.6094 69.5833 29.1823 70 29.7031C70.4167 30.2135 70.9583 30.4948 71.625 30.5469C71.8542 30.5677 72.099 30.5625 72.3594 30.5312C72.6198 30.4896 72.875 30.4062 73.125 30.2812C73.4375 30.1354 73.6719 30.0938 73.8281 30.1562C73.9948 30.2083 74.1198 30.3177 74.2031 30.4844C74.2448 30.6198 74.2396 30.7656 74.1875 30.9219C74.1458 31.0677 74.0521 31.1875 73.9062 31.2812C73.625 31.4479 73.2448 31.5885 72.7656 31.7031C72.2969 31.8177 71.7708 31.8594 71.1875 31.8281C70.0938 31.7552 69.1719 31.3281 68.4219 30.5469C67.6719 29.7656 67.2969 28.6875 67.2969 27.3125C67.2969 26.0833 67.6354 25.1146 68.3125 24.4062C68.9896 23.6875 69.9115 23.3281 71.0781 23.3281C72.0781 23.3281 72.8906 23.6562 73.5156 24.3125C74.1406 24.9688 74.4531 25.9688 74.4531 27.3125V27.9844H69.3125ZM69.3125 26.6719H72.5C72.5 25.974 72.3438 25.4583 72.0312 25.125C71.7292 24.7812 71.3958 24.6094 71.0312 24.6094C70.6146 24.6094 70.2292 24.8021 69.875 25.1875C69.5312 25.5729 69.3438 26.0677 69.3125 26.6719ZM81.4688 31.2344C81.2188 31.4219 80.8594 31.5781 80.3906 31.7031C79.9323 31.8177 79.3802 31.8594 78.7344 31.8281C77.6406 31.7656 76.7188 31.3438 75.9688 30.5625C75.2188 29.7708 74.8438 28.6875 74.8438 27.3125C74.8438 26.1042 75.1823 25.1406 75.8594 24.4219C76.5365 23.6927 77.4688 23.3281 78.6562 23.3281C79.6146 23.3281 80.3802 23.5625 80.9531 24.0312C81.5365 24.4896 81.849 25.1094 81.8906 25.8906H79.9062C79.9062 25.4323 79.7865 25.1042 79.5469 24.9062C79.3073 24.7083 78.9844 24.6094 78.5781 24.6094C78.1615 24.6094 77.7708 24.8438 77.4062 25.3125C77.0417 25.7708 76.8594 26.4375 76.8594 27.3125C76.8594 28.2708 77.0781 29.0365 77.5156 29.6094C77.9531 30.1823 78.5052 30.4948 79.1719 30.5469C79.401 30.5677 79.6458 30.5625 79.9062 30.5312C80.1667 30.4896 80.4271 30.4062 80.6875 30.2812C80.9583 30.1458 81.1771 30.099 81.3438 30.1406C81.5208 30.1823 81.651 30.276 81.7344 30.4219C81.7865 30.5677 81.7865 30.7188 81.7344 30.875C81.6927 31.0208 81.6042 31.1406 81.4688 31.2344ZM85.1406 20.3594V23.5312H87.25V24.7969H85.1562V29.6406C85.1562 30.0156 85.2188 30.2604 85.3438 30.375C85.4792 30.4896 85.6823 30.5469 85.9531 30.5469C86.099 30.5469 86.2396 30.5469 86.375 30.5469C86.5208 30.5365 86.8594 30.4635 87.3906 30.3281V31.6406C87.0365 31.7552 86.6927 31.8229 86.3594 31.8438C86.0365 31.8646 85.7865 31.875 85.6094 31.875C85.0781 31.875 84.6406 31.8177 84.2969 31.7031C83.9531 31.5781 83.7083 31.401 83.5625 31.1719C83.3958 30.9635 83.2969 30.7031 83.2656 30.3906C83.2448 30.0677 83.2344 29.7344 83.2344 29.3906V24.7969H82.1094V23.5312H83.2344V22.3281L85.1406 20.3594ZM95.6406 20.2031L98.0156 28.7344L100.531 20.2188L103.172 20.2031V31.7188H101.328V23.7812L99.0625 30.9844C98.9792 31.2448 98.8594 31.4323 98.7031 31.5469C98.5469 31.6615 98.3438 31.7188 98.0938 31.7188H97.0312L94.8281 23.5312V31.7188H93.0938V22.1094C93.0938 21.7865 93.0729 21.5781 93.0312 21.4844C92.9896 21.3802 92.9219 21.3125 92.8281 21.2812C92.651 21.2083 92.5156 21.1354 92.4219 21.0625C92.3281 20.9896 92.2812 20.8802 92.2812 20.7344C92.2812 20.3802 92.5052 20.2031 92.9531 20.2031H95.6406ZM109.047 31.1719C108.911 31.276 108.672 31.4115 108.328 31.5781C107.984 31.7448 107.5 31.8281 106.875 31.8281C106.135 31.8281 105.526 31.6146 105.047 31.1875C104.568 30.75 104.328 30.1927 104.328 29.5156C104.328 28.599 104.734 27.8646 105.547 27.3125C106.37 26.7604 107.365 26.4844 108.531 26.4844H109.031V26.1562C109.031 25.6771 108.896 25.3021 108.625 25.0312C108.354 24.75 108.031 24.6094 107.656 24.6094C107.323 24.6094 107.036 24.6979 106.797 24.875C106.568 25.0521 106.453 25.3958 106.453 25.9062H104.422C104.422 25.0833 104.719 24.4479 105.312 24C105.906 23.5521 106.703 23.3281 107.703 23.3281C108.766 23.3281 109.573 23.5938 110.125 24.125C110.688 24.6458 110.969 25.349 110.969 26.2344V31.7188H109.047V31.1719ZM109.031 27.8125C108.188 27.7917 107.516 27.9219 107.016 28.2031C106.516 28.4844 106.266 28.8698 106.266 29.3594C106.266 29.776 106.365 30.0625 106.562 30.2188C106.76 30.3646 106.984 30.4375 107.234 30.4375C107.672 30.4375 108.078 30.276 108.453 29.9531C108.839 29.6302 109.031 29.2396 109.031 28.7812V27.8125ZM114.172 31.7188H112.266V25.4531C112.266 25.1198 112.245 24.9062 112.203 24.8125C112.172 24.7083 112.115 24.6406 112.031 24.6094C111.844 24.5365 111.693 24.4688 111.578 24.4062C111.464 24.3438 111.406 24.2188 111.406 24.0312C111.406 23.6979 111.625 23.5312 112.062 23.5312H113.5C113.948 23.5312 114.172 23.7188 114.172 24.0938V24.375C114.286 24.25 114.422 24.1302 114.578 24.0156C115.068 23.6094 115.656 23.4062 116.344 23.4062C117.094 23.4062 117.698 23.6615 118.156 24.1719C118.625 24.6823 118.859 25.5417 118.859 26.75V31.7188H116.922V26.7188C116.922 25.9896 116.828 25.5052 116.641 25.2656C116.453 25.0156 116.245 24.8906 116.016 24.8906C115.547 24.901 115.083 25.1979 114.625 25.7812C114.448 26.0104 114.297 26.2708 114.172 26.5625V31.7188ZM124.594 31.1719C124.458 31.276 124.219 31.4115 123.875 31.5781C123.531 31.7448 123.047 31.8281 122.422 31.8281C121.682 31.8281 121.073 31.6146 120.594 31.1875C120.115 30.75 119.875 30.1927 119.875 29.5156C119.875 28.599 120.281 27.8646 121.094 27.3125C121.917 26.7604 122.911 26.4844 124.078 26.4844H124.578V26.1562C124.578 25.6771 124.443 25.3021 124.172 25.0312C123.901 24.75 123.578 24.6094 123.203 24.6094C122.87 24.6094 122.583 24.6979 122.344 24.875C122.115 25.0521 122 25.3958 122 25.9062H119.969C119.969 25.0833 120.266 24.4479 120.859 24C121.453 23.5521 122.25 23.3281 123.25 23.3281C124.312 23.3281 125.12 23.5938 125.672 24.125C126.234 24.6458 126.516 25.349 126.516 26.2344V31.7188H124.594V31.1719ZM124.578 27.8125C123.734 27.7917 123.062 27.9219 122.562 28.2031C122.062 28.4844 121.812 28.8698 121.812 29.3594C121.812 29.776 121.911 30.0625 122.109 30.2188C122.307 30.3646 122.531 30.4375 122.781 30.4375C123.219 30.4375 123.625 30.276 124 29.9531C124.385 29.6302 124.578 29.2396 124.578 28.7812V27.8125ZM129.156 27.6562C129.156 28.4792 129.323 29.1042 129.656 29.5312C130 29.9479 130.359 30.1562 130.734 30.1562C131.182 30.1562 131.557 29.974 131.859 29.6094C132.161 29.2344 132.312 28.6406 132.312 27.8281V26.8281C132.312 26.1302 132.151 25.599 131.828 25.2344C131.516 24.8698 131.141 24.6875 130.703 24.6875C130.307 24.6875 129.948 24.9167 129.625 25.375C129.312 25.8333 129.156 26.5938 129.156 27.6562ZM132.328 30.9375C131.901 31.2812 131.359 31.4531 130.703 31.4531C129.568 31.4531 128.703 31.0729 128.109 30.3125C127.516 29.5521 127.219 28.6562 127.219 27.625C127.219 26.3333 127.516 25.2969 128.109 24.5156C128.703 23.724 129.521 23.3281 130.562 23.3281C131.323 23.3281 131.927 23.5365 132.375 23.9531C132.49 23.6719 132.76 23.5312 133.188 23.5312H134.344C134.802 23.5312 135.031 23.6979 135.031 24.0312C135.031 24.2083 134.943 24.3281 134.766 24.3906C134.599 24.4531 134.458 24.5 134.344 24.5312C134.333 24.5417 134.312 24.5833 134.281 24.6562C134.26 24.7188 134.25 24.9531 134.25 25.3594V31.2344C134.25 32.1927 133.969 32.9583 133.406 33.5312C132.844 34.1042 131.964 34.3906 130.766 34.3906C129.62 34.3906 128.807 34.1719 128.328 33.7344C127.849 33.3073 127.594 32.6979 127.562 31.9062H129.5C129.521 32.3542 129.641 32.6719 129.859 32.8594C130.078 33.0469 130.406 33.1406 130.844 33.1406C131.25 33.1406 131.599 32.9896 131.891 32.6875C132.182 32.3854 132.328 31.901 132.328 31.2344V30.9375ZM137.234 27.9844C137.276 28.6094 137.505 29.1823 137.922 29.7031C138.339 30.2135 138.88 30.4948 139.547 30.5469C139.776 30.5677 140.021 30.5625 140.281 30.5312C140.542 30.4896 140.797 30.4062 141.047 30.2812C141.359 30.1354 141.594 30.0938 141.75 30.1562C141.917 30.2083 142.042 30.3177 142.125 30.4844C142.167 30.6198 142.161 30.7656 142.109 30.9219C142.068 31.0677 141.974 31.1875 141.828 31.2812C141.547 31.4479 141.167 31.5885 140.688 31.7031C140.219 31.8177 139.693 31.8594 139.109 31.8281C138.016 31.7552 137.094 31.3281 136.344 30.5469C135.594 29.7656 135.219 28.6875 135.219 27.3125C135.219 26.0833 135.557 25.1146 136.234 24.4062C136.911 23.6875 137.833 23.3281 139 23.3281C140 23.3281 140.812 23.6562 141.438 24.3125C142.062 24.9688 142.375 25.9688 142.375 27.3125V27.9844H137.234ZM137.234 26.6719H140.422C140.422 25.974 140.266 25.4583 139.953 25.125C139.651 24.7812 139.318 24.6094 138.953 24.6094C138.536 24.6094 138.151 24.8021 137.797 25.1875C137.453 25.5729 137.266 26.0677 137.234 26.6719ZM145.266 31.7188H143.344V25.4531C143.344 25.1302 143.318 24.9115 143.266 24.7969C143.214 24.6823 143.156 24.6094 143.094 24.5781C142.896 24.5365 142.755 24.4792 142.672 24.4062C142.589 24.3333 142.547 24.2083 142.547 24.0312C142.547 23.6979 142.766 23.5312 143.203 23.5312H144.594C145.042 23.5312 145.266 23.7188 145.266 24.0938V24.2188C145.307 24.1771 145.349 24.1302 145.391 24.0781C145.797 23.651 146.349 23.4271 147.047 23.4062C147.818 23.4062 148.391 23.6667 148.766 24.1875C148.859 24.3125 148.943 24.4583 149.016 24.625C149.109 24.4583 149.224 24.3021 149.359 24.1562C149.818 23.6562 150.391 23.4062 151.078 23.4062C151.87 23.4062 152.448 23.6719 152.812 24.2031C153.188 24.724 153.375 25.5521 153.375 26.6875V31.7188H151.453V26.7344C151.453 26.0156 151.385 25.5208 151.25 25.25C151.125 24.9792 150.948 24.8438 150.719 24.8438C150.417 24.8438 150.062 25.1302 149.656 25.7031C149.51 25.8906 149.401 26.1042 149.328 26.3438V31.7188H147.406V26.7344C147.406 26.0052 147.339 25.5104 147.203 25.25C147.078 24.9792 146.911 24.8438 146.703 24.8438C146.401 24.8542 146.036 25.1406 145.609 25.7031C145.464 25.8802 145.349 26.0885 145.266 26.3281V31.7188ZM156.203 27.9844C156.245 28.6094 156.474 29.1823 156.891 29.7031C157.307 30.2135 157.849 30.4948 158.516 30.5469C158.745 30.5677 158.99 30.5625 159.25 30.5312C159.51 30.4896 159.766 30.4062 160.016 30.2812C160.328 30.1354 160.562 30.0938 160.719 30.1562C160.885 30.2083 161.01 30.3177 161.094 30.4844C161.135 30.6198 161.13 30.7656 161.078 30.9219C161.036 31.0677 160.943 31.1875 160.797 31.2812C160.516 31.4479 160.135 31.5885 159.656 31.7031C159.188 31.8177 158.661 31.8594 158.078 31.8281C156.984 31.7552 156.062 31.3281 155.312 30.5469C154.562 29.7656 154.188 28.6875 154.188 27.3125C154.188 26.0833 154.526 25.1146 155.203 24.4062C155.88 23.6875 156.802 23.3281 157.969 23.3281C158.969 23.3281 159.781 23.6562 160.406 24.3125C161.031 24.9688 161.344 25.9688 161.344 27.3125V27.9844H156.203ZM156.203 26.6719H159.391C159.391 25.974 159.234 25.4583 158.922 25.125C158.62 24.7812 158.286 24.6094 157.922 24.6094C157.505 24.6094 157.12 24.8021 156.766 25.1875C156.422 25.5729 156.234 26.0677 156.203 26.6719ZM164.234 31.7188H162.328V25.4531C162.328 25.1198 162.307 24.9062 162.266 24.8125C162.234 24.7083 162.177 24.6406 162.094 24.6094C161.906 24.5365 161.755 24.4688 161.641 24.4062C161.526 24.3438 161.469 24.2188 161.469 24.0312C161.469 23.6979 161.688 23.5312 162.125 23.5312H163.562C164.01 23.5312 164.234 23.7188 164.234 24.0938V24.375C164.349 24.25 164.484 24.1302 164.641 24.0156C165.13 23.6094 165.719 23.4062 166.406 23.4062C167.156 23.4062 167.76 23.6615 168.219 24.1719C168.688 24.6823 168.922 25.5417 168.922 26.75V31.7188H166.984V26.7188C166.984 25.9896 166.891 25.5052 166.703 25.2656C166.516 25.0156 166.307 24.8906 166.078 24.8906C165.609 24.901 165.146 25.1979 164.688 25.7812C164.51 26.0104 164.359 26.2708 164.234 26.5625V31.7188ZM172.484 20.3594V23.5312H174.594V24.7969H172.5V29.6406C172.5 30.0156 172.562 30.2604 172.688 30.375C172.823 30.4896 173.026 30.5469 173.297 30.5469C173.443 30.5469 173.583 30.5469 173.719 30.5469C173.865 30.5365 174.203 30.4635 174.734 30.3281V31.6406C174.38 31.7552 174.036 31.8229 173.703 31.8438C173.38 31.8646 173.13 31.875 172.953 31.875C172.422 31.875 171.984 31.8177 171.641 31.7031C171.297 31.5781 171.052 31.401 170.906 31.1719C170.74 30.9635 170.641 30.7031 170.609 30.3906C170.589 30.0677 170.578 29.7344 170.578 29.3906V24.7969H169.453V23.5312H170.578V22.3281L172.484 20.3594Z" fill="#333333"/>
</svg>
