<svg width="20" height="19" viewBox="0 0 20 19" fill="none" xmlns="http://www.w3.org/2000/svg">
<path d="M5.05863 0.0115356C4.75511 0.0527534 4.5078 0.24011 4.38039 0.517399C4.32044 0.648548 4.3092 0.775949 4.3092 1.61156V2.55209L3.66469 2.76568C3.30872 2.88558 2.94899 3.02048 2.86281 3.06919C2.66796 3.18161 2.44688 3.42142 2.3457 3.6425L2.26701 3.81487L2.25577 8.84352L2.24828 13.8759H2.12462C1.92602 13.8759 1.57754 13.9808 1.27402 14.127C0.876828 14.3181 0.438414 14.7602 0.247311 15.1574C0.0337242 15.6033 0 15.8282 0 16.8549C0 17.653 0.0112414 17.7729 0.0711955 17.9078C0.157379 18.0989 0.340989 18.2451 0.562069 18.2938C0.798139 18.35 18.3872 18.35 18.6232 18.2938C18.8443 18.2451 19.0279 18.0989 19.1141 17.9078C19.1778 17.7692 19.1853 17.6455 19.1853 16.6301C19.1853 15.4047 19.1703 15.2698 18.968 14.8577C18.8443 14.5991 18.4883 14.2319 18.226 14.0932C17.96 13.9509 17.6452 13.8759 17.3042 13.8759H17.012V11.504C17.012 8.93345 17.012 8.92221 16.8059 8.65616C16.7534 8.58122 16.6185 8.48005 16.5136 8.42384L16.3225 8.33016H13.7632H11.2039V4.8191V1.3043L11.5337 1.62655C11.7135 1.80266 12.2044 2.2823 12.6278 2.68699C13.0513 3.09542 13.426 3.48138 13.4597 3.54508C13.5196 3.65375 13.5234 3.84485 13.5271 5.51232V7.35966L13.6208 7.44959C13.737 7.5695 13.8981 7.57324 14.0105 7.45708L14.093 7.36715L14.0817 5.44113L14.0705 3.5151L13.9693 3.30901C13.8831 3.1329 13.6358 2.87434 12.4929 1.77269C11.7398 1.042 11.0728 0.419973 11.0166 0.389996C10.9154 0.341284 10.773 0.382502 8.50973 1.14317L6.10782 1.94506V1.37924C6.10782 0.989536 6.08909 0.753468 6.05161 0.626064C5.92421 0.191399 5.52327 -0.055912 5.05863 0.0115356ZM5.33966 0.596088C5.41835 0.63356 5.48205 0.69726 5.50453 0.768456C5.52702 0.832157 5.54575 1.16191 5.54575 1.51414V2.13991L5.20851 2.25232L4.87127 2.36848V1.57034C4.87127 0.824663 4.87502 0.764709 4.94621 0.674778C4.98743 0.622318 5.05863 0.569859 5.10734 0.562365C5.1523 0.554871 5.19727 0.543629 5.20102 0.539881C5.20851 0.539881 5.27221 0.562365 5.33966 0.596088ZM10.6418 1.78768V2.55209L9.06056 3.08043C5.59446 4.2383 4.40662 4.65048 4.35791 4.71793C4.23426 4.8903 4.35791 5.1451 4.56775 5.1451C4.62771 5.1451 6.00665 4.69919 7.6329 4.15211C9.25541 3.60503 10.5969 3.15913 10.6156 3.15913C10.6306 3.15913 10.6418 3.47763 10.6418 3.86733V4.57554L8.83573 5.17883C5.44083 6.31046 4.41037 6.67019 4.35791 6.74138C4.23426 6.91375 4.35791 7.16855 4.56775 7.16855C4.62771 7.16855 6.00665 6.72265 7.63665 6.17556C9.26291 5.62848 10.6081 5.18258 10.6194 5.18258C10.6306 5.18258 10.6418 5.50108 10.6418 5.89078V6.59899L8.66711 7.25848C5.30594 8.37888 4.41037 8.69364 4.35791 8.76483C4.23426 8.9372 4.35791 9.192 4.56775 9.192C4.62771 9.192 6.00665 8.7461 7.63665 8.19901C9.26291 7.65193 10.6044 7.20603 10.6156 7.20603C10.6306 7.20603 10.6418 7.52453 10.6418 7.91049V8.61869L7.54297 9.65665C5.38837 10.3798 4.42161 10.7208 4.37665 10.7733C4.23051 10.9382 4.35417 11.2155 4.5715 11.2155C4.62771 11.2155 6.00665 10.7695 7.6329 10.2225C9.25916 9.67538 10.6006 9.22948 10.6156 9.22948C10.6306 9.22948 10.6418 9.54049 10.6418 9.92269C10.6418 10.556 10.6344 10.6159 10.5707 10.6496C10.5332 10.6721 9.67134 10.9681 8.65212 11.3091C7.63665 11.6501 6.76732 11.9536 6.72235 11.9836C6.60994 12.0548 6.57621 12.2122 6.65116 12.3284C6.78605 12.5344 6.74109 12.5457 8.73081 11.8749C9.74628 11.534 10.5894 11.2529 10.6081 11.2529C10.6269 11.2529 10.6381 12.6244 10.6344 14.5017L10.6231 17.7542L9.41654 17.7654L8.20621 17.7729V16.2853C8.20621 15.4235 8.19123 14.7378 8.16874 14.6628C8.09755 14.4043 7.74157 14.1794 7.49801 14.2394C7.10456 14.3293 4.74387 15.0038 4.66143 15.0488C4.60148 15.0787 4.52653 15.135 4.49281 15.1724C4.33168 15.356 4.32793 15.3935 4.3092 16.5926L4.29046 17.7542H3.55977H2.82908L2.81784 10.8782L2.81035 3.99848L2.89278 3.83361C2.9415 3.74368 3.02393 3.63501 3.07639 3.59754C3.1326 3.55632 4.55651 3.0617 6.24272 2.49588C7.93267 1.93007 9.60015 1.368 9.94863 1.24809C10.3009 1.12818 10.5969 1.02701 10.6156 1.02701C10.6306 1.02326 10.6418 1.368 10.6418 1.78768ZM16.3525 9.00839L16.4499 9.12456V11.5639V14.0071L16.2588 14.1195C15.6817 14.4567 15.3295 15.0937 15.3258 15.7944V16.0118H13.2648H11.2039V12.452V8.89223H13.7295H16.255L16.3525 9.00839ZM2.24828 15.2249V16.0118H1.40517H0.562069L0.584552 15.9069C0.678231 15.4872 0.854346 15.1612 1.12789 14.9101C1.42391 14.6366 1.82111 14.453 2.14711 14.4417L2.24828 14.438V15.2249ZM17.9038 14.5616C18.3497 14.794 18.5895 15.1762 18.6157 15.7008L18.6345 16.0118H17.2555H15.8766L15.8991 15.7158C15.9216 15.3598 16.049 15.0525 16.255 14.8389C16.5586 14.5242 16.8096 14.4342 17.3305 14.4492C17.6527 14.4605 17.7314 14.4755 17.9038 14.5616ZM7.63665 16.2966L7.62541 17.7542H7.08208H6.53874L6.5275 16.4202L6.52001 15.09L7.0521 14.9364C7.34812 14.8539 7.59918 14.7977 7.61791 14.809C7.6329 14.8239 7.6404 15.4909 7.63665 16.2966ZM5.95794 16.5176V17.7729H5.4146H4.87127L4.87876 16.66L4.89 15.5434L5.37713 15.4047C5.64692 15.3298 5.88674 15.2661 5.91297 15.2661C5.94669 15.2624 5.95794 15.5359 5.95794 16.5176ZM2.24828 17.1734V17.7729H1.5026C1.09041 17.7729 0.711955 17.7579 0.659495 17.7355L0.562069 17.698V17.1359V16.5738H1.40517H2.24828V17.1734ZM15.3258 17.1734V17.7729H13.2648H11.2039V17.1734V16.5738H13.2648H15.3258V17.1734ZM18.6232 17.1059C18.6232 17.402 18.6045 17.668 18.5858 17.698C18.5558 17.7467 18.3647 17.7542 17.2293 17.7542H15.9066L15.8953 17.1621L15.8841 16.5738H17.2555H18.6232V17.1059Z" fill="#C81C1F"/>
<path d="M4.98769 12.5413C4.6392 12.6575 4.39189 12.7624 4.36191 12.8074C4.23826 12.976 4.36191 13.2383 4.56426 13.2383C4.7104 13.2383 5.79332 12.8711 5.84952 12.7999C5.87575 12.7699 5.89824 12.6837 5.89824 12.6125C5.89824 12.4626 5.78208 12.3352 5.64343 12.3427C5.60221 12.3427 5.30619 12.4326 4.98769 12.5413Z" fill="#C81C1F"/>
<path d="M12.1742 9.65461C11.9794 9.78576 11.9531 9.87194 11.9531 10.3853C11.9531 10.8949 11.9868 11.0036 12.178 11.1197C12.2716 11.1722 12.4627 11.1797 13.8005 11.1797H15.3143L15.4417 11.0935C15.6253 10.9698 15.6703 10.7975 15.6553 10.3178C15.6366 9.86445 15.5841 9.72205 15.3855 9.62838C15.2731 9.57592 15.0707 9.56842 13.778 9.56842C12.3016 9.56842 12.3016 9.56842 12.1742 9.65461ZM15.1007 10.3741V10.6176H13.808H12.5152V10.3741V10.1305H13.808H15.1007V10.3741Z" fill="#C81C1F"/>
<path d="M12.1753 11.7874C12.1078 11.8324 12.0292 11.9148 12.0029 11.9635C11.9317 12.1059 11.9392 12.949 12.0104 13.0877C12.1266 13.3125 12.1378 13.3125 13.824 13.3125H15.3566L15.4728 13.2151C15.6264 13.0839 15.6751 12.8853 15.6564 12.4319C15.6376 11.9973 15.5814 11.8549 15.3866 11.7612C15.2742 11.7087 15.0718 11.7012 13.7791 11.7012C12.3027 11.7012 12.3027 11.7012 12.1753 11.7874ZM15.1018 12.5069V12.7504H13.809H12.5163V12.5069V12.2633H13.809H15.1018V12.5069Z" fill="#C81C1F"/>
<path d="M12.1742 13.9397C11.9868 14.0558 11.9531 14.1645 11.9531 14.6704C11.9531 15.1875 11.9794 15.2699 12.178 15.4048C12.3054 15.4872 12.3316 15.491 12.9199 15.4797L13.5344 15.4685L13.6618 15.3299L13.7892 15.1875V14.7003C13.7892 13.9097 13.7517 13.876 12.8637 13.876C12.384 13.876 12.2529 13.891 12.1742 13.9397ZM13.2271 14.6816V14.9252H12.8712H12.5152V14.6816V14.438H12.8712H13.2271V14.6816Z" fill="#C81C1F"/>
</svg>
