<svg width="215" height="51" viewBox="0 0 215 51" fill="none" xmlns="http://www.w3.org/2000/svg">
<path d="M209.487 25.5007C209.487 23.9944 209.487 20.3361 214.999 15.3867C209.487 19.9056 199.839 19.6905 192.259 18.8298C196.394 21.1969 196.394 24.6399 196.394 25.5007C196.394 26.3615 196.394 29.8045 192.259 32.1717C199.839 31.3109 209.487 31.0957 214.999 35.6146C209.487 30.6653 209.487 27.007 209.487 25.5007Z" fill="#333333"/>
<path d="M189.505 34C190.883 32.4936 190.194 29.6962 190.194 25.5C190.194 21.3038 190.883 18.5063 189.505 16.9999C199.841 19.1519 219.548 16.746 212.245 10.7595C206.732 6.24051 187.437 4.73414 171.588 5.16453C150.947 5.72508 115.081 12.481 107.502 0C99.9214 12.481 64.0561 5.72508 43.415 5.16458C27.5656 4.7342 8.27057 6.24051 2.75789 10.7595C-4.5452 16.746 15.1616 19.1519 25.4983 17C24.1201 18.5064 24.8093 21.3038 24.8093 25.5H24.8095C24.8095 29.6962 24.1203 32.4937 25.4983 34.0001C15.1622 31.8481 -4.54503 34.2541 2.75807 40.2405C8.27075 44.7595 27.5659 46.2659 43.415 45.8355C64.0563 45.275 99.9214 38.519 107.502 51C115.081 38.519 150.947 45.2749 171.588 45.8355C187.438 46.2659 206.732 44.7596 212.245 40.2405C219.548 34.254 199.841 31.8481 189.505 34ZM107.502 4.58922C109.838 6.19372 114.815 8.03667 125.418 8.60758C116.761 8.60758 111.145 7.92087 107.502 6.98531C103.858 7.92087 98.2416 8.60758 89.5849 8.60758C100.188 8.03673 105.165 6.19372 107.502 4.58922ZM107.502 46.4107C105.165 44.8063 100.188 42.9632 89.5853 42.3924C98.2416 42.3924 103.858 43.079 107.502 44.0147C111.145 43.0791 116.761 42.3924 125.418 42.3924C114.815 42.9632 109.838 44.8063 107.502 46.4107ZM168.143 44.5443C142.351 43.1293 128.864 38.9493 107.502 42.3924C86.1394 38.9493 72.6514 43.1293 46.8608 44.5443C21.3637 45.943 -0.424649 41.6913 6.2037 36.905C11.6274 32.9884 27.7225 35.4245 31.5229 37.4511C27.5481 35.232 26.8766 29.7406 26.8766 25.5C26.8766 21.2594 27.5481 15.768 31.5226 13.5489C27.7224 15.5755 11.627 18.0116 6.20316 14.095C-0.425009 9.3086 21.3635 5.05697 46.8602 6.45573C72.6514 7.87058 86.1394 12.0506 107.502 8.60764C128.864 12.0506 142.351 7.87064 168.143 6.45573C193.639 5.05697 215.428 9.3086 208.799 14.095C203.376 18.0116 187.28 15.5755 183.48 13.5489C187.455 15.768 188.126 21.2594 188.126 25.5C188.126 29.7406 187.455 35.2321 183.48 37.4511C187.28 35.4245 203.376 32.9884 208.8 36.905C215.428 41.6913 193.639 45.943 168.143 44.5443Z" fill="#333333"/>
<path d="M22.7405 32.1717C18.6058 29.8045 18.6058 26.3615 18.6058 25.5007H18.6056C18.6056 24.6399 18.6056 21.1968 22.7403 18.8298C15.16 19.6905 5.51286 19.9056 0 15.3867C5.51286 20.3361 5.51268 23.9944 5.51268 25.5007H5.51286C5.51286 27.007 5.51286 30.6653 0 35.6146C5.51286 31.0957 15.1605 31.3108 22.7405 32.1717Z" fill="#333333"/>
<path d="M85.3076 40.5233C93.7943 39.504 104.239 40.3195 107.503 41.7464C110.767 40.3194 121.211 39.504 129.698 40.5233C121.864 38.4847 112.725 37.873 107.503 37.873C102.281 37.873 93.1415 38.4847 85.3076 40.5233Z" fill="#333333"/>
<path d="M107.503 9.25391C104.239 10.6808 93.7945 11.4964 85.3076 10.477C93.1415 12.5156 102.281 13.1272 107.503 13.1272C112.726 13.1272 121.864 12.5156 129.699 10.477C121.211 11.4964 110.767 10.6808 107.503 9.25391Z" fill="#333333"/>
<path d="M96.3438 21.2812C96.1146 21.2188 95.9479 21.1458 95.8438 21.0625C95.75 20.9792 95.7031 20.8542 95.7031 20.6875C95.7031 20.3646 95.8594 20.2031 96.1719 20.2031H99.9375C101.177 20.2031 102.141 20.5052 102.828 21.1094C103.516 21.7135 103.859 22.5 103.859 23.4688C103.859 24.5729 103.484 25.4167 102.734 26C101.995 26.5833 100.943 26.875 99.5781 26.875H99.0312C98.7708 26.875 98.6406 26.6562 98.6406 26.2188C98.6406 25.7812 98.7552 25.5625 98.9844 25.5625H99.3906C100.172 25.5625 100.776 25.3906 101.203 25.0469C101.63 24.7031 101.844 24.1719 101.844 23.4531C101.854 22.8385 101.656 22.3594 101.25 22.0156C100.844 21.6615 100.391 21.4844 99.8906 21.4844H99.1406C98.7135 21.4844 98.5 21.6875 98.5 22.0938V31.7188H96.625V22.125C96.625 21.7917 96.5938 21.5729 96.5312 21.4688C96.4688 21.3646 96.4062 21.3021 96.3438 21.2812ZM112.141 20.2031L114.516 28.7344L117.031 20.2188L119.672 20.2031V31.7188H117.828V23.7812L115.562 30.9844C115.479 31.2448 115.359 31.4323 115.203 31.5469C115.047 31.6615 114.844 31.7188 114.594 31.7188H113.531L111.328 23.5312V31.7188H109.594V22.1094C109.594 21.7865 109.573 21.5781 109.531 21.4844C109.49 21.3802 109.422 21.3125 109.328 21.2812C109.151 21.2083 109.016 21.1354 108.922 21.0625C108.828 20.9896 108.781 20.8802 108.781 20.7344C108.781 20.3802 109.005 20.2031 109.453 20.2031H112.141Z" fill="#333333"/>
</svg>
