<svg width="20" height="20" viewBox="0 0 20 20" fill="none" xmlns="http://www.w3.org/2000/svg">
<path d="M3.31422 7.27918C3.51168 7.42533 3.63523 7.61908 3.71248 7.85047C3.76056 8.22675 3.67463 8.5868 3.59422 8.95215C3.26953 10.485 3.69043 12.1567 4.49373 13.4755C4.70189 13.7947 4.93715 14.0903 5.19792 14.3681C5.27498 14.452 5.27498 14.452 5.35478 14.5527C5.46948 14.6947 5.60344 14.8047 5.74373 14.9208C5.76298 14.9368 5.78224 14.9529 5.80207 14.9694C7.16583 16.0981 8.86342 16.5974 10.6232 16.4754C11.5498 16.387 12.91 16.0748 13.5953 15.3895C13.5505 15.3805 13.5058 15.3715 13.4596 15.3622C13.3999 15.3494 13.3401 15.3365 13.2803 15.3236C13.251 15.3178 13.2216 15.312 13.1913 15.306C12.9481 15.2523 12.7592 15.1585 12.5969 14.9656C12.475 14.7197 12.4553 14.4735 12.5246 14.2071C12.6195 13.9784 12.7958 13.8626 13.0094 13.7489C13.3647 13.6305 13.7885 13.7332 14.1538 13.7741C14.2148 13.7808 14.2759 13.7875 14.3369 13.7943C14.4642 13.8083 14.5915 13.8226 14.7187 13.8369C14.8813 13.8552 15.044 13.8729 15.2068 13.8905C15.3326 13.9041 15.4584 13.9182 15.5842 13.9324C15.6441 13.9391 15.7041 13.9457 15.7641 13.9521C15.848 13.9611 15.9318 13.9706 16.0156 13.9804C16.087 13.9883 16.087 13.9883 16.1598 13.9964C16.3 14.0242 16.4028 14.0658 16.525 14.1395C16.6248 14.2892 16.6336 14.4288 16.6544 14.6034C16.659 14.641 16.6637 14.6786 16.6685 14.7174C16.6827 14.8342 16.6964 14.9511 16.7101 15.0681C16.7215 15.1651 16.7331 15.262 16.7447 15.359C16.7675 15.5499 16.7898 15.7409 16.8118 15.9319C16.8207 16.0088 16.8297 16.0858 16.8388 16.1627C16.8831 16.5373 16.9235 16.9097 16.9254 17.2873C16.9256 17.314 16.9258 17.3408 16.926 17.3684C16.9232 17.6333 16.8572 17.7889 16.6715 17.9799C16.4335 18.1259 16.2381 18.1901 15.9569 18.1482C15.7597 18.0983 15.6196 18.0168 15.4912 17.8576C15.293 17.5209 15.2587 17.0976 15.1969 16.7177C15.0708 16.7177 14.9974 16.7989 14.8966 16.8715C13.7956 17.6456 12.5779 18.1331 11.2515 18.3583C11.2217 18.3634 11.1919 18.3685 11.1611 18.3738C9.05365 18.7169 6.80365 18.1263 5.07996 16.891C3.19702 15.5193 1.99676 13.5366 1.62338 11.2385C1.46769 10.1585 1.38461 8.54186 1.94459 7.56299C2.28533 7.11856 2.82076 6.99992 3.31422 7.27918Z" fill="#4F5051"/>
<path d="M13.1667 2.14967C13.1935 2.16002 13.2203 2.17038 13.248 2.18104C14.1967 2.55349 15.0742 3.13402 15.8004 3.8473C15.8652 3.91059 15.9309 3.97274 15.9967 4.03489C16.3438 4.36704 16.6387 4.72702 16.9167 5.11842C16.9327 5.14094 16.9487 5.16346 16.9653 5.18666C18.2248 6.98366 18.6959 9.26562 18.3411 11.4215C18.1669 12.4088 18.1669 12.4088 17.8088 12.6866C17.5585 12.8573 17.3289 12.8838 17.0338 12.8528C16.7793 12.7964 16.5802 12.6719 16.4291 12.4587C16.1679 12.0072 16.3042 11.5275 16.4099 11.048C16.7346 9.51513 16.3137 7.84339 15.5104 6.52467C15.3015 6.20429 15.0648 5.90867 14.8041 5.62898C14.7423 5.56233 14.6852 5.49487 14.6291 5.42359C13.718 4.37238 12.2113 3.7351 10.862 3.55592C10.8224 3.55048 10.8224 3.55048 10.782 3.54493C9.29259 3.35704 7.74808 3.72241 6.48697 4.53248C6.46119 4.55826 6.43541 4.58404 6.40884 4.61061C6.45361 4.61962 6.49837 4.62863 6.5445 4.63792C6.60427 4.65075 6.66403 4.66362 6.72379 4.67652C6.75317 4.68234 6.78255 4.68816 6.81282 4.69415C7.05604 4.74785 7.2449 4.84166 7.40723 5.0345C7.52911 5.28044 7.54879 5.5266 7.47955 5.79301C7.38465 6.02173 7.20831 6.13758 6.99478 6.25123C6.63943 6.36968 6.21559 6.26695 5.85037 6.22605C5.78931 6.21932 5.72825 6.2126 5.66719 6.20588C5.53992 6.19181 5.41267 6.17757 5.28544 6.16322C5.1228 6.1449 4.9601 6.1272 4.79738 6.10965C4.67154 6.09599 4.54575 6.08191 4.41997 6.06772C4.36 6.06102 4.30001 6.05446 4.24 6.04806C4.15612 6.03906 4.07233 6.02949 3.98853 6.01978C3.94096 6.01449 3.89339 6.0092 3.84438 6.00375C3.70418 5.97594 3.60134 5.93434 3.47916 5.86061C3.37936 5.71092 3.37053 5.57133 3.34976 5.39674C3.34511 5.35912 3.34047 5.3215 3.33568 5.28274C3.32148 5.16589 3.3077 5.04899 3.29406 4.93207C3.28268 4.83507 3.27108 4.7381 3.25947 4.64112C3.23666 4.45022 3.21438 4.25925 3.19238 4.06825C3.18348 3.99129 3.17446 3.91434 3.16532 3.83741C3.121 3.46281 3.08061 3.09044 3.07877 2.71287C3.07855 2.6861 3.07834 2.65932 3.07812 2.63174C3.08091 2.36686 3.14689 2.21121 3.33267 2.02027C3.57068 1.87422 3.766 1.81006 4.04724 1.85197C4.24444 1.90182 4.38457 1.98332 4.51294 2.1425C4.71113 2.47924 4.74546 2.90251 4.80728 3.28248C4.93336 3.28248 5.00674 3.20123 5.10757 3.12867C6.20842 2.35469 7.42625 1.86664 8.75259 1.64186C8.78264 1.63673 8.81268 1.6316 8.84363 1.62631C10.2897 1.393 11.8109 1.62185 13.1667 2.14967Z" fill="#4F5051"/>
</svg>
