<svg width="18" height="18" viewBox="0 0 18 18" fill="none" xmlns="http://www.w3.org/2000/svg">
<g clip-path="url(#clip0_1848_64660)">
<path d="M6.6217 9.26047C6.91112 9.45076 7.20259 9.60966 7.52449 9.73736C7.54656 9.74612 7.56863 9.75488 7.59137 9.76391C8.66776 10.1793 9.70034 10.0487 10.7438 9.61486C11.0544 9.46966 11.336 9.27897 11.6195 9.08717C12.2826 8.64231 12.2826 8.64231 12.6485 8.66289C12.6753 8.66373 12.7021 8.66456 12.7297 8.66542C13.6181 8.70464 14.4577 9.066 15.0658 9.7245C16.2074 11.0358 16.4934 12.9103 16.5245 14.5889C16.5259 14.6315 16.5273 14.674 16.5287 14.7179C16.545 15.4862 16.3958 16.3373 15.8697 16.929C15.819 16.9815 15.7678 17.0336 15.7159 17.085C15.6854 17.1169 15.655 17.1488 15.6236 17.1817C15.5961 17.2078 15.5685 17.2339 15.5401 17.2608C15.5152 17.2849 15.5152 17.2849 15.4897 17.3094C14.7652 17.9731 13.8339 18.0151 12.9088 18.0133C12.8138 18.0135 12.7189 18.0137 12.6239 18.014C12.3937 18.0146 12.1635 18.0146 11.9333 18.0145C11.746 18.0143 11.5587 18.0144 11.3714 18.0146C11.3446 18.0146 11.3179 18.0146 11.2903 18.0146C11.2359 18.0147 11.1815 18.0147 11.127 18.0148C10.6181 18.0153 10.1091 18.0151 9.6001 18.0147C9.13577 18.0143 8.67144 18.0148 8.2071 18.0156C7.72885 18.0165 7.2506 18.0168 6.77234 18.0166C6.50443 18.0165 6.23652 18.0165 5.96861 18.0172C5.74053 18.0177 5.51245 18.0177 5.28438 18.0171C5.1683 18.0168 5.05225 18.0168 4.93617 18.0173C3.91719 18.021 3.0398 17.8603 2.2862 17.1202C2.25901 17.0938 2.23182 17.0675 2.20381 17.0404C1.70416 16.5245 1.47403 15.8052 1.47047 15.0969C1.47022 15.0645 1.46998 15.032 1.46972 14.9986C1.46911 14.8935 1.46888 14.7885 1.46882 14.6834C1.4688 14.6476 1.46877 14.6118 1.46875 14.5749C1.46932 14.0325 1.48861 13.5069 1.58308 12.9717C1.58949 12.9339 1.59589 12.896 1.60249 12.857C1.79287 11.7457 2.12324 10.6893 2.8487 9.80767C2.86747 9.78352 2.88623 9.75936 2.90556 9.73447C3.39037 9.12778 4.1983 8.77836 4.9549 8.69027C5.6535 8.61806 6.05142 8.88175 6.6217 9.26047ZM4.82624 9.82964C4.78977 9.83908 4.78977 9.83908 4.75255 9.84871C4.10486 10.026 3.66786 10.4578 3.3365 11.0294C2.74422 12.0896 2.56315 13.335 2.55515 14.5351C2.55457 14.5985 2.55361 14.6619 2.55226 14.7253C2.54018 15.3014 2.59804 15.8209 2.98933 16.2764C3.0085 16.299 3.02767 16.3216 3.04742 16.3449C3.48818 16.823 4.11799 16.9228 4.73753 16.9483C4.99186 16.9548 5.24621 16.954 5.5006 16.9535C5.58522 16.9536 5.66983 16.9537 5.75445 16.9539C5.95888 16.9541 6.16331 16.9541 6.36774 16.9539C6.53413 16.9537 6.70053 16.9537 6.86692 16.9538C6.90267 16.9538 6.90267 16.9538 6.93914 16.9538C6.98757 16.9539 7.03601 16.9539 7.08445 16.9539C7.5369 16.9541 7.98934 16.9539 8.44179 16.9535C8.82861 16.9532 9.21544 16.9532 9.60226 16.9536C10.0533 16.9539 10.5043 16.9541 10.9553 16.9539C11.0035 16.9538 11.0518 16.9538 11.1 16.9538C11.1237 16.9538 11.1475 16.9538 11.1719 16.9538C11.3378 16.9537 11.5037 16.9538 11.6695 16.954C11.8935 16.9542 12.1174 16.954 12.3413 16.9536C12.423 16.9535 12.5047 16.9536 12.5865 16.9537C13.8471 16.9609 13.8471 16.9609 14.9183 16.3533C15.4172 15.8207 15.4479 15.168 15.4259 14.4769C15.425 14.4505 15.4242 14.4241 15.4234 14.3969C15.3779 12.9782 15.138 11.3114 14.0605 10.2815C13.6843 9.96174 13.1657 9.74954 12.6654 9.75713C12.4941 9.79073 12.3551 9.90389 12.2135 10.001C12.1445 10.0466 12.0754 10.092 12.0064 10.1374C11.9732 10.1594 11.94 10.1815 11.9058 10.2042C10.7845 10.9404 9.41442 11.2991 8.08232 11.0414C7.16903 10.8447 6.40548 10.4569 5.6382 9.93279C5.35391 9.74386 5.1534 9.74499 4.82624 9.82964Z" fill="#4F5051"/>
<path d="M11.5657 0.8955C11.8692 1.14985 12.1366 1.40789 12.3765 1.72401C12.3977 1.75174 12.419 1.77948 12.4409 1.80805C12.8432 2.35663 13.0651 2.95462 13.1851 3.62244C13.1916 3.65843 13.1981 3.69441 13.2048 3.73148C13.3376 4.91422 13.0672 6.04834 12.3413 6.99744C12.2405 7.11949 12.1345 7.23486 12.0249 7.34901C11.9953 7.38087 11.9656 7.41272 11.9351 7.44555C11.7031 7.68797 11.4625 7.87208 11.1812 8.05213C11.1519 8.07162 11.1227 8.09111 11.0926 8.11118C10.4437 8.52657 9.64878 8.69974 8.88721 8.69593C8.84582 8.69576 8.80443 8.69558 8.76179 8.69541C8.43238 8.691 8.12529 8.66007 7.80616 8.57947C7.77137 8.57071 7.77137 8.57071 7.73588 8.56176C7.10163 8.39654 6.50132 8.08274 6.02266 7.63424C5.95619 7.57234 5.88856 7.51545 5.81763 7.45887C5.64837 7.3147 5.51564 7.13765 5.38038 6.96229C5.35935 6.93519 5.33832 6.90809 5.31666 6.88016C4.76887 6.1371 4.52219 5.28071 4.52344 4.36292C4.52346 4.33919 4.52348 4.31545 4.5235 4.291C4.5258 3.66572 4.62384 3.10115 4.88819 2.5326C4.90405 2.49671 4.91991 2.46082 4.93625 2.42384C5.27456 1.69753 5.8722 1.06567 6.54053 0.634163C6.57144 0.613951 6.60235 0.593739 6.63419 0.572914C8.12254 -0.349616 10.2104 -0.206933 11.5657 0.8955ZM6.38695 2.20193C5.73269 2.95655 5.58373 3.80606 5.62647 4.7826C5.65611 5.1199 5.76068 5.42854 5.90772 5.73182C5.92367 5.76472 5.93962 5.79762 5.95606 5.83152C6.34819 6.59234 7.04695 7.19326 7.8593 7.45983C8.67057 7.70209 9.57539 7.66407 10.3374 7.27869C10.6518 7.10745 10.9241 6.89501 11.1812 6.64588C11.2022 6.62739 11.2233 6.6089 11.245 6.58985C11.7762 6.10675 12.099 5.3323 12.1347 4.626C12.1625 3.70785 11.9583 2.92879 11.3569 2.21619C11.3301 2.18066 11.3033 2.14513 11.2756 2.10853C10.7596 1.54444 10.0186 1.13153 9.24851 1.08486C8.11314 1.03816 7.16459 1.34542 6.38695 2.20193Z" fill="#4F5051"/>
</g>
<defs>
<clipPath id="clip0_1848_64660">
<rect width="18" height="18" fill="white"/>
</clipPath>
</defs>
</svg>
