<svg width="20" height="20" viewBox="0 0 20 20" fill="none" xmlns="http://www.w3.org/2000/svg">
<g clip-path="url(#clip0_270_48061)">
<path d="M6.11505 -0.00541838C6.1664 -0.00567516 6.1664 -0.00567516 6.21878 -0.00593712C6.33371 -0.00645961 6.44864 -0.00670134 6.56357 -0.00694069C6.6459 -0.00724936 6.72823 -0.00757237 6.81055 -0.00790867C7.08119 -0.00893266 7.35183 -0.00953094 7.62247 -0.0100878C7.71571 -0.0102972 7.80895 -0.0105073 7.90219 -0.010718C8.2902 -0.0115629 8.67821 -0.0122948 9.06622 -0.0127345C9.62178 -0.0133683 10.1773 -0.0146628 10.7329 -0.0168908C11.1237 -0.0184046 11.5146 -0.0191657 11.9055 -0.019372C12.1388 -0.0195145 12.3721 -0.0199812 12.6054 -0.021251C12.8251 -0.0224298 13.0448 -0.0226713 13.2645 -0.0222126C13.3449 -0.022204 13.4252 -0.0225259 13.5056 -0.0232147C14.1673 -0.028576 14.6438 0.0601755 15.1415 0.531141C15.4492 0.857079 15.5915 1.25052 15.5865 1.69005C15.5863 1.71915 15.5861 1.74826 15.586 1.77824C15.5855 1.84976 15.5848 1.92127 15.584 1.99278C15.6211 2.00003 15.6211 2.00003 15.6588 2.00743C16.1716 2.12565 16.5852 2.40292 16.9512 2.77403C16.9784 2.80082 17.0056 2.82761 17.0336 2.85521C17.4756 3.31778 17.7756 3.95851 17.7768 4.60358C17.777 4.64946 17.7771 4.69534 17.7773 4.74262C17.7773 4.818 17.7773 4.818 17.7773 4.8949C17.7774 4.94895 17.7776 5.003 17.7777 5.05705C17.7781 5.20557 17.7783 5.35408 17.7784 5.5026C17.7785 5.6628 17.7789 5.823 17.7792 5.9832C17.78 6.37013 17.7804 6.75706 17.7807 7.14399C17.7809 7.32634 17.7811 7.5087 17.7813 7.69105C17.782 8.2975 17.7826 8.90396 17.7828 9.51042C17.7829 9.66776 17.783 9.8251 17.7831 9.98244C17.7831 10.0215 17.7831 10.0606 17.7831 10.1009C17.7835 10.7339 17.7844 11.3669 17.7857 11.9999C17.787 12.6502 17.7877 13.3006 17.7878 13.9509C17.7879 14.3159 17.7883 14.6808 17.7893 15.0457C17.7901 15.3567 17.7904 15.6676 17.79 15.9785C17.7899 16.137 17.7899 16.2954 17.7907 16.4539C17.7914 16.5993 17.7913 16.7448 17.7907 16.8902C17.7906 16.9669 17.7912 17.0437 17.7919 17.1204C17.7886 17.5816 17.6895 18.0333 17.4761 18.4454C17.463 18.4711 17.4499 18.4969 17.4364 18.5234C17.2899 18.7958 17.0942 19.0059 16.8731 19.2193C16.8455 19.2481 16.8179 19.2769 16.7895 19.3066C16.6197 19.4739 16.4339 19.5891 16.2237 19.6979C16.1884 19.7165 16.1884 19.7165 16.1524 19.7354C15.5457 20.0317 14.9388 20.0231 14.278 20.0208C14.1742 20.021 14.0704 20.0213 13.9666 20.0216C13.7151 20.0223 13.4636 20.0222 13.2122 20.0217C13.0076 20.0214 12.803 20.0213 12.5984 20.0215C12.5692 20.0215 12.5399 20.0216 12.5098 20.0216C12.4504 20.0216 12.391 20.0217 12.3315 20.0217C11.7758 20.0222 11.22 20.0217 10.6643 20.0208C10.1886 20.0201 9.71284 20.0202 9.23711 20.021C8.6832 20.0218 8.12929 20.0221 7.57538 20.0217C7.51619 20.0216 7.45701 20.0216 7.39782 20.0215C7.3687 20.0215 7.33959 20.0215 7.3096 20.0214C7.10552 20.0213 6.90144 20.0215 6.69736 20.0219C6.44828 20.0223 6.1992 20.0222 5.95012 20.0214C5.82331 20.021 5.6965 20.0209 5.56968 20.0213C4.9331 20.0233 4.35696 20.0039 3.77985 19.7052C3.75412 19.6921 3.72838 19.6789 3.70187 19.6654C3.42951 19.519 3.21932 19.3232 3.00592 19.1022C2.97712 19.0746 2.94832 19.047 2.91864 19.0185C2.75065 18.8479 2.63601 18.6617 2.52741 18.4503C2.51501 18.4264 2.50261 18.4026 2.48983 18.378C2.27677 17.9395 2.20141 17.4995 2.20483 17.0157C2.20465 16.9611 2.2044 16.9066 2.20409 16.8521C2.20345 16.7039 2.20376 16.5558 2.20425 16.4076C2.2046 16.2472 2.20405 16.0867 2.20362 15.9263C2.20293 15.6126 2.20308 15.299 2.20353 14.9853C2.20389 14.7302 2.20393 14.4752 2.20376 14.2201C2.20374 14.1837 2.20371 14.1473 2.20369 14.1098C2.20364 14.0358 2.20359 13.9618 2.20354 13.8879C2.20309 13.1954 2.2036 12.5029 2.20444 11.8104C2.20514 11.2172 2.20502 10.624 2.2043 10.0307C2.20346 9.34068 2.20314 8.65062 2.20361 7.96056C2.20366 7.88687 2.20371 7.81317 2.20376 7.73948C2.20379 7.70323 2.20381 7.66698 2.20384 7.62963C2.20397 7.37508 2.20374 7.12054 2.20337 6.86599C2.20293 6.55544 2.20306 6.24489 2.20389 5.93434C2.2043 5.77612 2.20446 5.6179 2.20394 5.45968C2.20347 5.31445 2.20374 5.16924 2.20456 5.02401C2.20482 4.94742 2.20431 4.87083 2.20377 4.79424C2.2099 4.08977 2.45416 3.41865 2.9278 2.89122C2.97047 2.84311 2.97047 2.84311 3.01401 2.79402C3.38213 2.40211 3.82271 2.15369 4.33405 1.99278C4.35983 1.99278 4.38561 1.99278 4.41217 1.99278C4.4099 1.95355 4.40764 1.91433 4.4053 1.87391C4.38535 1.37759 4.4797 0.971742 4.81058 0.583479C5.17068 0.199166 5.58821 -0.00509856 6.11505 -0.00541838ZM5.78668 1.34581C5.58324 1.58413 5.57793 1.77985 5.57748 2.08403C5.57735 2.11518 5.57722 2.14634 5.57709 2.17844C5.57689 2.24417 5.5768 2.3099 5.57681 2.37562C5.57672 2.47558 5.57601 2.57551 5.57527 2.67546C5.57516 2.73955 5.57508 2.80363 5.57504 2.86772C5.57476 2.89731 5.57448 2.9269 5.57419 2.95739C5.5752 3.19525 5.59623 3.40107 5.75739 3.58702C5.99233 3.78758 6.18264 3.7955 6.48229 3.79488C6.52915 3.79501 6.52915 3.79501 6.57695 3.79515C6.68152 3.79539 6.78607 3.79536 6.89064 3.79533C6.96565 3.79545 7.04067 3.79558 7.11568 3.79573C7.31939 3.79607 7.52309 3.79616 7.7268 3.79619C7.89687 3.79623 8.06695 3.79637 8.23702 3.79651C8.63828 3.79683 9.03954 3.79692 9.4408 3.79689C9.85469 3.79687 10.2686 3.79728 10.6825 3.7979C11.0379 3.79841 11.3933 3.79862 11.7487 3.79859C11.9609 3.79858 12.1731 3.7987 12.3854 3.79911C12.585 3.79949 12.7846 3.79949 12.9842 3.79921C13.0574 3.79917 13.1307 3.79926 13.2039 3.79949C13.3039 3.7998 13.404 3.79961 13.504 3.79931C13.5329 3.79951 13.5617 3.79972 13.5915 3.79992C13.8291 3.79835 14.0268 3.77471 14.2095 3.61632C14.413 3.378 14.4183 3.18227 14.4187 2.8781C14.4189 2.84694 14.419 2.81578 14.4191 2.78369C14.4193 2.71796 14.4194 2.65223 14.4194 2.5865C14.4195 2.48655 14.4202 2.38661 14.4209 2.28666C14.4211 2.22258 14.4211 2.15849 14.4212 2.0944C14.4216 2.05002 14.4216 2.05002 14.422 2.00474C14.421 1.76688 14.4 1.56105 14.2388 1.37511C14.0039 1.17455 13.8136 1.16662 13.5139 1.16725C13.4827 1.16716 13.4514 1.16707 13.4193 1.16698C13.3147 1.16673 13.2101 1.16676 13.1056 1.16679C13.0306 1.16668 12.9555 1.16654 12.8805 1.1664C12.6768 1.16605 12.4731 1.16596 12.2694 1.16593C12.0993 1.1659 11.9293 1.16575 11.7592 1.16562C11.3579 1.1653 10.9567 1.1652 10.5554 1.16523C10.1415 1.16525 9.72764 1.16484 9.31375 1.16422C8.95835 1.16371 8.60295 1.1635 8.24755 1.16353C8.03531 1.16354 7.82307 1.16343 7.61083 1.16301C7.41121 1.16264 7.21159 1.16263 7.01197 1.16292C6.93877 1.16296 6.86556 1.16287 6.79236 1.16263C6.6923 1.16233 6.59226 1.16251 6.49221 1.16281C6.46335 1.16261 6.43449 1.16241 6.40476 1.1622C6.16712 1.16378 5.96945 1.18741 5.78668 1.34581ZM3.87994 3.63341C3.42749 4.11223 3.38424 4.73943 3.38663 5.36616C3.3865 5.41616 3.38638 5.46617 3.38626 5.51769C3.38593 5.65496 3.38609 5.79223 3.38633 5.92951C3.38651 6.07815 3.38624 6.22678 3.38602 6.37542C3.38568 6.666 3.38575 6.95658 3.38598 7.24716C3.38615 7.48346 3.38618 7.71977 3.38609 7.95607C3.38608 7.98979 3.38607 8.0235 3.38605 8.05824C3.38603 8.12675 3.386 8.19527 3.38598 8.26378C3.38576 8.9052 3.38601 9.54662 3.38643 10.188C3.38678 10.7376 3.38672 11.2872 3.38636 11.8367C3.38594 12.476 3.38578 13.1152 3.38602 13.7544C3.38604 13.8227 3.38607 13.8909 3.38609 13.9592C3.3861 13.9928 3.38612 14.0263 3.38613 14.0609C3.3862 14.2968 3.38608 14.5326 3.3859 14.7684C3.38568 15.0561 3.38574 15.3438 3.38615 15.6314C3.38636 15.778 3.38644 15.9246 3.38618 16.0712C3.3859 16.2305 3.38624 16.3898 3.38663 16.5491C3.38645 16.5948 3.38628 16.6406 3.3861 16.6877C3.38918 17.3424 3.50247 17.868 3.966 18.3525C4.43017 18.7725 4.9609 18.8349 5.56099 18.8339C5.60049 18.834 5.64 18.8341 5.68069 18.8342C5.81229 18.8345 5.94389 18.8344 6.07549 18.8344C6.17016 18.8345 6.26483 18.8346 6.3595 18.8348C6.58953 18.8351 6.81955 18.8352 7.04958 18.8352C7.2367 18.8353 7.42383 18.8353 7.61095 18.8355C8.14239 18.8358 8.67382 18.836 9.20525 18.836C9.23386 18.836 9.26246 18.836 9.29193 18.836C9.32057 18.836 9.34921 18.836 9.37872 18.836C9.84263 18.8359 10.3065 18.8363 10.7705 18.8369C11.2477 18.8374 11.7249 18.8377 12.2021 18.8377C12.4697 18.8376 12.7373 18.8378 13.0048 18.8382C13.2566 18.8386 13.5083 18.8386 13.7601 18.8383C13.8522 18.8382 13.9443 18.8383 14.0365 18.8386C15.1724 18.8416 15.1724 18.8416 16.1234 18.2593C16.5684 17.7675 16.6057 17.2015 16.6049 16.5679C16.605 16.518 16.6051 16.4681 16.6052 16.4168C16.6054 16.2791 16.6054 16.1415 16.6053 16.0039C16.6053 15.8551 16.6056 15.7064 16.6057 15.5576C16.6061 15.2665 16.6062 14.9754 16.6062 14.6843C16.6062 14.4475 16.6063 14.2108 16.6064 13.974C16.6068 13.3021 16.6069 12.6301 16.6069 11.9582C16.6069 11.922 16.6069 11.8858 16.6069 11.8485C16.6069 11.8123 16.6069 11.7761 16.6069 11.7387C16.6069 11.1517 16.6073 10.5646 16.6078 9.97757C16.6084 9.37411 16.6086 8.77064 16.6086 8.16717C16.6086 7.82865 16.6087 7.49012 16.6091 7.1516C16.6095 6.86336 16.6096 6.57512 16.6093 6.28687C16.6092 6.13997 16.6092 5.99308 16.6095 5.84618C16.6099 5.68652 16.6096 5.52687 16.6093 5.36721C16.6096 5.29843 16.6096 5.29843 16.6099 5.22826C16.6074 4.60658 16.5174 4.05656 16.0748 3.58946C15.9232 3.4496 15.7738 3.36119 15.584 3.28184C15.5783 3.32157 15.5783 3.32157 15.5724 3.3621C15.4907 3.87086 15.3134 4.26183 14.9151 4.6002C14.4293 4.94297 13.965 4.95085 13.3927 4.94774C13.3104 4.94801 13.228 4.94835 13.1456 4.94878C12.9232 4.94966 12.7007 4.94933 12.4783 4.9487C12.2448 4.94821 12.0113 4.94867 11.7777 4.94897C11.3857 4.94933 10.9936 4.94886 10.6016 4.94793C10.1492 4.94687 9.69692 4.94721 9.24459 4.94829C8.85521 4.94918 8.46583 4.9493 8.07645 4.94879C7.84434 4.94848 7.61223 4.94844 7.38012 4.94909C7.16183 4.94966 6.94356 4.94926 6.72527 4.94813C6.64548 4.94788 6.5657 4.94795 6.48591 4.94838C5.88182 4.95136 5.37639 4.89581 4.91998 4.45372C4.61158 4.13533 4.43817 3.72391 4.41217 3.28184C4.24338 3.28184 4.00201 3.52438 3.87994 3.63341Z" fill="white"/>
<path d="M5.72813 12.639C5.83748 12.7543 5.9181 12.8791 6.00081 13.0144C6.01798 13.038 6.03515 13.0615 6.05284 13.0858C6.07862 13.0858 6.1044 13.0858 6.13096 13.0858C6.21174 12.9808 6.28459 12.8713 6.35878 12.7616C6.47705 12.6143 6.58486 12.5535 6.76573 12.5048C6.9786 12.4977 7.16127 12.5333 7.32954 12.6708C7.46908 12.8352 7.48876 13.0014 7.47755 13.2126C7.4219 13.5369 7.18147 13.7845 6.97844 14.0312C6.90204 14.1328 6.90204 14.1328 6.92104 14.2349C6.95272 14.3406 6.99143 14.4085 7.05626 14.4974C7.0771 14.5264 7.09795 14.5554 7.11943 14.5852C7.14128 14.6149 7.16313 14.6446 7.18565 14.6752C7.22882 14.7347 7.27195 14.7943 7.31504 14.8538C7.33423 14.88 7.35341 14.9062 7.37318 14.9331C7.5027 15.1176 7.47928 15.3292 7.45909 15.5468C7.39058 15.6969 7.33325 15.7594 7.2003 15.8544C6.96609 15.9324 6.76527 15.9309 6.5338 15.8446C6.35262 15.7264 6.24386 15.5313 6.13096 15.3514C5.98907 15.3987 5.9795 15.4334 5.90635 15.559C5.79648 15.7281 5.70277 15.8398 5.50596 15.8983C5.31123 15.9282 5.13864 15.9241 4.96153 15.8324C4.81309 15.7203 4.74003 15.6242 4.70366 15.4402C4.69016 14.9851 4.93574 14.7058 5.2252 14.3776C5.281 14.2987 5.281 14.2987 5.26152 14.2041C5.23111 14.0964 5.19354 14.0308 5.12755 13.9412C5.1067 13.9124 5.08585 13.8836 5.06437 13.8539C5.04252 13.8244 5.02067 13.7949 4.99815 13.7645C4.95489 13.7055 4.91175 13.6464 4.86876 13.5872C4.84957 13.5613 4.83039 13.5353 4.81062 13.5085C4.68858 13.3231 4.69942 13.1036 4.72471 12.8905C4.78027 12.7398 4.86017 12.6514 4.99891 12.5717C5.26094 12.4657 5.48658 12.4986 5.72813 12.639Z" fill="white"/>
<path d="M7.7344 8.16268C7.91495 8.2482 7.99658 8.33851 8.08596 8.51424C8.11875 8.69854 8.12757 8.89198 8.04842 9.06508C7.98773 9.14753 7.9214 9.22057 7.85158 9.29549C7.8007 9.35564 7.74983 9.41581 7.69927 9.47624C7.64354 9.5427 7.58732 9.60872 7.531 9.67467C7.43454 9.78797 7.33999 9.9027 7.24612 10.0181C6.32881 11.1442 6.32881 11.1442 6.13283 11.2096C5.90359 11.2301 5.6961 11.2378 5.50783 11.0924C5.32069 10.8223 5.17199 10.5227 5.02213 10.2307C4.99759 10.1833 4.97267 10.1362 4.94736 10.0892C4.77891 9.77617 4.66847 9.50108 4.72658 9.13924C4.81199 8.95894 4.90221 8.8764 5.07815 8.78768C5.19152 8.77074 5.19152 8.77074 5.31008 8.77059C5.34911 8.76983 5.38813 8.76908 5.42834 8.7683C5.58251 8.7935 5.66157 8.84382 5.78127 8.94393C5.86398 9.07027 5.86398 9.07027 5.93264 9.2076C5.9559 9.25332 5.97917 9.29904 6.00314 9.34615C6.02015 9.381 6.03717 9.41584 6.05471 9.45174C6.34656 9.16296 6.61358 8.85634 6.86953 8.53545C7.13941 8.21484 7.31568 8.11782 7.7344 8.16268Z" fill="white"/>
<path d="M11.5518 9.05721C11.5857 9.05708 11.6196 9.05695 11.6545 9.05682C11.7662 9.05645 11.878 9.05637 11.9898 9.05633C12.0676 9.0562 12.1455 9.05607 12.2234 9.05593C12.3866 9.0557 12.5498 9.05563 12.713 9.05565C12.9218 9.05565 13.1306 9.05512 13.3394 9.05445C13.5003 9.05401 13.6611 9.05393 13.822 9.05396C13.8989 9.05391 13.9759 9.05374 14.0529 9.05343C14.1606 9.05305 14.2684 9.05316 14.3762 9.0534C14.4078 9.05318 14.4394 9.05296 14.4719 9.05273C14.7128 9.05406 14.9216 9.07276 15.1102 9.23623C15.2793 9.43433 15.2909 9.55284 15.286 9.80691C15.2695 9.96292 15.2268 10.0445 15.1175 10.1566C14.9139 10.2865 14.7431 10.2908 14.5094 10.2896C14.4541 10.29 14.4541 10.29 14.3975 10.2904C14.2758 10.2911 14.1542 10.291 14.0325 10.2908C13.9476 10.2909 13.8628 10.2911 13.7779 10.2914C13.6003 10.2917 13.4226 10.2916 13.2449 10.2912C13.0175 10.2908 12.7901 10.2916 12.5627 10.2927C12.3875 10.2934 12.2124 10.2934 12.0372 10.2932C11.9534 10.2932 11.8695 10.2934 11.7857 10.2939C11.6684 10.2945 11.5511 10.2941 11.4337 10.2934C11.3821 10.294 11.3821 10.294 11.3294 10.2946C11.1017 10.2919 10.9687 10.2491 10.7816 10.1176C10.6404 9.94172 10.6448 9.78404 10.6506 9.56612C10.6692 9.41363 10.7153 9.33018 10.8206 9.21914C11.0465 9.05116 11.2794 9.05706 11.5518 9.05721Z" fill="white"/>
<path d="M11.4121 13.6653C11.4491 13.665 11.4861 13.6648 11.5242 13.6645C11.6469 13.6638 11.7696 13.6633 11.8924 13.6629C11.9342 13.6628 11.9761 13.6626 12.0192 13.6624C12.2409 13.6616 12.4625 13.6611 12.6841 13.6607C12.9131 13.6603 13.1421 13.6589 13.3711 13.6574C13.5471 13.6563 13.7231 13.656 13.8991 13.6559C13.9835 13.6557 14.0679 13.6552 14.1523 13.6545C14.2705 13.6536 14.3887 13.6536 14.5069 13.6539C14.5417 13.6534 14.5766 13.6529 14.6125 13.6523C14.8642 13.6544 14.9967 13.7239 15.1889 13.8895C15.3055 14.0307 15.2871 14.2126 15.2853 14.3859C15.2698 14.5361 15.2198 14.6169 15.1181 14.7269C14.896 14.8879 14.6909 14.8891 14.4238 14.8895C14.3893 14.8896 14.3547 14.8898 14.3191 14.89C14.2047 14.8906 14.0904 14.8909 13.9761 14.8911C13.8965 14.8913 13.8169 14.8915 13.7373 14.8918C13.5704 14.8922 13.4034 14.8924 13.2365 14.8925C13.023 14.8928 12.8095 14.8937 12.596 14.8948C12.4315 14.8955 12.2671 14.8957 12.1026 14.8958C12.0239 14.8959 11.9452 14.8962 11.8666 14.8967C11.7563 14.8974 11.646 14.8973 11.5356 14.8971C11.5034 14.8974 11.4712 14.8978 11.438 14.8982C11.2205 14.8966 11.0587 14.857 10.8603 14.766C10.6719 14.5679 10.6534 14.4338 10.6565 14.1681C10.6715 13.9805 10.7448 13.9003 10.8822 13.7796C11.0567 13.6543 11.2033 13.6659 11.4121 13.6653Z" fill="white"/>
</g>
<defs>
<clipPath id="clip0_270_48061">
<rect width="20" height="20" fill="white"/>
</clipPath>
</defs>
</svg>
