<svg width="20" height="20" viewBox="0 0 20 20" fill="none" xmlns="http://www.w3.org/2000/svg">
<path d="M10.3864 2.28222C11.205 2.98835 11.7369 3.96321 11.8781 5.03857C11.8906 5.22831 11.8931 5.4173 11.8928 5.60742C11.8928 5.64604 11.8928 5.64604 11.8927 5.68544C11.8911 6.11439 11.8541 6.50562 11.7219 6.91357C11.7093 6.95351 11.7093 6.95351 11.6965 6.99425C11.5176 7.54973 11.2461 8.03471 10.8625 8.47607C10.8357 8.50809 10.8088 8.54012 10.7812 8.57311C10.558 8.83204 10.3088 9.04534 10.0422 9.25732C10.1413 9.30898 10.2406 9.36018 10.3401 9.41113C10.3679 9.4257 10.3957 9.44028 10.4244 9.4553C10.5815 9.53525 10.722 9.60484 10.9016 9.60888C10.9988 9.56566 10.9988 9.56566 11.0896 9.49413C11.8806 8.95785 12.7853 8.73208 13.7336 8.73486C13.761 8.73488 13.7884 8.7349 13.8166 8.73492C15.1461 8.73965 16.3039 9.24434 17.2688 10.1558C17.2981 10.1825 17.3274 10.2093 17.3576 10.2369C17.6159 10.4816 17.8149 10.7592 18.011 11.0542C18.0355 11.0906 18.0601 11.1271 18.0854 11.1647C18.7619 12.2409 18.948 13.6644 18.6686 14.8973C18.4391 15.8029 17.9872 16.5873 17.3469 17.2651C17.3201 17.2944 17.2933 17.3237 17.2657 17.3539C16.6629 17.9903 15.8404 18.4027 15.0031 18.6323C14.9573 18.6456 14.9114 18.6588 14.8641 18.6724C13.5614 18.9821 12.189 18.6821 11.0578 18.0073C10.7591 17.8148 10.4954 17.5869 10.2375 17.3433C10.1936 17.3031 10.1936 17.3031 10.1487 17.2621C9.51236 16.6592 9.09996 15.8368 8.87033 14.9995C8.85709 14.9536 8.84384 14.9078 8.8302 14.8605C8.53731 13.6282 8.78538 12.2561 9.4172 11.1714C9.54142 10.972 9.67366 10.7782 9.80783 10.5854C9.7747 10.5749 9.74156 10.5643 9.70743 10.5534C9.5703 10.5062 9.43847 10.4514 9.3049 10.395C8.09004 9.90282 6.75899 9.94585 5.55046 10.4347C4.30539 10.9667 3.39868 11.9547 2.88137 13.1941C2.64868 13.7804 2.58157 14.3697 2.5422 14.9995C2.11681 14.9995 1.69142 14.9995 1.25314 14.9995C1.21803 13.9285 1.47805 12.9291 1.99533 11.9917C2.01784 11.9501 2.04035 11.9084 2.06354 11.8655C2.3315 11.3871 2.67385 10.9803 3.05002 10.5854C3.07756 10.5554 3.1051 10.5253 3.13348 10.4943C3.64922 9.94914 4.29873 9.58705 4.96408 9.25732C4.92586 9.22519 4.88764 9.19307 4.84826 9.15997C3.92652 8.37845 3.2887 7.43245 3.12814 6.21044C3.11572 6.0207 3.11323 5.83171 3.11349 5.6416C3.11351 5.61585 3.11354 5.5901 3.11356 5.56357C3.11518 5.13462 3.15217 4.74339 3.28439 4.33544C3.29276 4.30882 3.30113 4.28219 3.30976 4.25476C3.48877 3.69898 3.76045 3.21489 4.14377 2.77294C4.18266 2.72559 4.18266 2.72559 4.22235 2.67727C4.85264 1.93513 5.84503 1.36857 6.81941 1.25729C8.16894 1.1499 9.3374 1.40825 10.3864 2.28222ZM5.25552 3.45303C4.6088 4.13642 4.38946 4.9428 4.40515 5.85751C4.43597 6.67685 4.8374 7.40338 5.4255 7.96093C6.05812 8.4988 6.86361 8.79196 7.69586 8.73989C8.57111 8.65375 9.35093 8.27685 9.92273 7.60433C10.5023 6.8488 10.6884 5.99618 10.5778 5.06037C10.4506 4.2955 9.98915 3.59321 9.37814 3.12451C8.06657 2.19202 6.40751 2.35953 5.25552 3.45303ZM11.2922 10.937C11.2541 10.9715 11.2161 11.006 11.1768 11.0415C10.5621 11.6161 10.0875 12.4641 10.0353 13.3153C10.012 14.5202 10.2585 15.4871 11.102 16.3868C11.7899 17.0988 12.7347 17.4537 13.7141 17.4995C14.7612 17.5089 15.7071 17.0609 16.4509 16.3423C17.1335 15.6603 17.4715 14.7231 17.4738 13.769C17.4735 12.8445 17.1933 11.9862 16.5656 11.2886C16.5489 11.2699 16.5321 11.2512 16.5148 11.232C15.7908 10.4366 14.8509 10.0858 13.7922 9.99951C12.881 9.99951 11.9652 10.3157 11.2922 10.937Z" fill="white"/>
<path d="M15.7812 12.0312C15.9348 12.1608 16.085 12.2911 16.2267 12.4338C16.2557 12.463 16.2848 12.4922 16.3148 12.5223C16.3442 12.552 16.3735 12.5817 16.4038 12.6123C16.4342 12.6429 16.4647 12.6735 16.496 12.7051C16.5704 12.7799 16.6446 12.8547 16.7188 12.9297C16.557 13.1226 16.3888 13.3042 16.2103 13.4816C16.1709 13.5211 16.1709 13.5211 16.1306 13.5614C16.0444 13.6475 15.9582 13.7335 15.8719 13.8194C15.8118 13.8795 15.7517 13.9395 15.6916 13.9995C15.5341 14.1569 15.3765 14.3141 15.2188 14.4713C15.0577 14.6321 14.8967 14.7929 14.7357 14.9537C14.4203 15.2687 14.1047 15.5836 13.7891 15.8984C13.6322 15.8356 13.5272 15.7251 13.4107 15.6071C13.3889 15.5853 13.3672 15.5636 13.3448 15.5412C13.2732 15.4695 13.2018 15.3976 13.1305 15.3256C13.0808 15.2758 13.0311 15.226 12.9814 15.1762C12.8507 15.0452 12.7203 14.914 12.5899 14.7828C12.4568 14.6489 12.3234 14.5151 12.1901 14.3814C11.9286 14.1191 11.6673 13.8565 11.4062 13.5938C11.5358 13.4402 11.6661 13.29 11.8088 13.1483C11.8526 13.1047 11.8526 13.1047 11.8973 13.0602C11.927 13.0308 11.9567 13.0015 11.9873 12.9712C12.0179 12.9408 12.0485 12.9103 12.0801 12.879C12.1549 12.8046 12.2297 12.7304 12.3047 12.6562C12.4963 12.8169 12.6766 12.9838 12.8526 13.1613C12.8774 13.1861 12.9021 13.2109 12.9277 13.2365C13.0057 13.3148 13.0837 13.3932 13.1616 13.4717C13.2149 13.5252 13.2683 13.5787 13.3216 13.6322C13.4515 13.7625 13.5812 13.8929 13.7109 14.0234C13.8571 13.9625 13.9496 13.8724 14.0606 13.7607C14.0793 13.7421 14.098 13.7234 14.1173 13.7041C14.1788 13.6426 14.2399 13.5808 14.3011 13.519C14.3438 13.4762 14.3865 13.4334 14.4292 13.3906C14.5414 13.2781 14.6533 13.1654 14.7652 13.0527C14.8795 12.9376 14.994 12.8227 15.1085 12.7078C15.333 12.4825 15.5572 12.257 15.7812 12.0312Z" fill="white"/>
</svg>
