<svg width="17" height="17" viewBox="0 0 17 17" fill="none" xmlns="http://www.w3.org/2000/svg">
<g clip-path="url(#clip0_170_29217)">
<path d="M2.79051 0C3.22879 0 3.66707 0 4.11863 0C4.11863 0.438281 4.11863 0.876563 4.11863 1.32813C7.01129 1.32813 9.90394 1.32813 12.8843 1.32813C12.8843 0.889844 12.8843 0.451563 12.8843 0C13.3225 0 13.7608 0 14.2124 0C14.2124 0.438281 14.2124 0.876563 14.2124 1.32813C14.5754 1.32291 14.5754 1.32291 14.9384 1.31616C15.5169 1.30901 16.0032 1.47769 16.4277 1.88129C16.8731 2.33818 17.0118 2.83251 17.0103 3.45555C17.0104 3.50669 17.0106 3.55784 17.0108 3.60898C17.0112 3.74913 17.0112 3.88928 17.0111 4.02943C17.0111 4.18074 17.0115 4.33205 17.0118 4.48336C17.0123 4.77967 17.0125 5.07598 17.0125 5.37229C17.0126 5.61321 17.0127 5.85414 17.0129 6.09506C17.0135 6.77849 17.0138 7.46191 17.0138 8.14533C17.0138 8.20058 17.0138 8.20058 17.0137 8.25694C17.0137 8.29381 17.0137 8.33068 17.0137 8.36868C17.0137 8.96612 17.0143 9.56356 17.0153 10.161C17.0162 10.7748 17.0167 11.3886 17.0166 12.0024C17.0166 12.3469 17.0168 12.6913 17.0175 13.0358C17.0181 13.3291 17.0183 13.6224 17.0178 13.9157C17.0176 14.0652 17.0176 14.2148 17.0182 14.3643C17.0187 14.5015 17.0186 14.6386 17.018 14.7757C17.0179 14.8251 17.018 14.8745 17.0184 14.9238C17.0225 15.5071 16.8536 16 16.4483 16.4262C16.0875 16.778 15.6392 17.008 15.1283 17.0085C15.1049 17.0087 15.0816 17.0088 15.0575 17.0089C14.9795 17.0092 14.9016 17.009 14.8236 17.0089C14.767 17.009 14.7104 17.0092 14.6537 17.0093C14.4984 17.0097 14.3431 17.0097 14.1879 17.0097C14.0202 17.0096 13.8526 17.01 13.685 17.0103C13.3568 17.0109 13.0285 17.0111 12.7002 17.0111C12.4333 17.0111 12.1665 17.0113 11.8996 17.0115C11.1427 17.0121 10.3857 17.0124 9.62882 17.0123C9.58803 17.0123 9.54723 17.0123 9.5052 17.0123C9.46435 17.0123 9.42351 17.0123 9.38142 17.0123C8.71957 17.0123 8.05772 17.0129 7.39586 17.0138C6.71603 17.0148 6.03619 17.0153 5.35636 17.0152C4.97478 17.0152 4.59321 17.0154 4.21164 17.0161C3.88673 17.0167 3.56183 17.0168 3.23693 17.0164C3.07124 17.0162 2.90557 17.0161 2.73989 17.0167C2.58801 17.0173 2.43615 17.0172 2.28427 17.0166C2.22953 17.0165 2.17479 17.0166 2.12005 17.017C1.52082 17.0208 1.01664 16.8666 0.575235 16.4468C0.129794 15.99 -0.00887028 15.4956 -0.00743628 14.8726C-0.00756044 14.8214 -0.00771334 14.7703 -0.00789225 14.7191C-0.00829761 14.579 -0.00828957 14.4388 -0.00821118 14.2987C-0.00819761 14.1474 -0.00856446 13.9961 -0.00887919 13.8448C-0.00943034 13.5485 -0.00961325 13.2521 -0.00965029 12.9558C-0.00968187 12.7149 -0.00981859 12.474 -0.010029 12.2331C-0.0106137 11.5496 -0.0109201 10.8662 -0.0108703 10.1828C-0.0108676 10.146 -0.0108649 10.1091 -0.0108622 10.0712C-0.0108595 10.0343 -0.0108569 9.99744 -0.0108541 9.95945C-0.0108271 9.36201 -0.0114624 8.76457 -0.0123988 8.16713C-0.0133533 7.55333 -0.0138112 6.93953 -0.0137538 6.32573C-0.0137318 5.98127 -0.0139132 5.63681 -0.0146288 5.29235C-0.0152342 4.99904 -0.0153774 4.70574 -0.0149272 4.41243C-0.0147108 4.26288 -0.0147051 4.11335 -0.0152826 3.9638C-0.0158067 3.82667 -0.0157079 3.68956 -0.0151309 3.55243C-0.0150293 3.50305 -0.015148 3.45367 -0.01552 3.40429C-0.0196196 2.82107 0.149302 2.32813 0.554612 1.90192C0.900643 1.56455 1.34366 1.32044 1.83663 1.32061C1.87223 1.32112 1.87223 1.32112 1.90855 1.32164C1.93113 1.32171 1.9537 1.32177 1.97696 1.32184C2.06 1.32219 2.14302 1.32311 2.22605 1.32397C2.41232 1.32534 2.59859 1.32671 2.79051 1.32813C2.79051 0.889844 2.79051 0.451563 2.79051 0ZM1.49558 2.88867C1.10501 3.39523 1.32957 4.57232 1.32957 4.91406C6.06301 4.91406 10.7964 4.91406 15.6733 4.91406C15.8002 3.88953 15.8002 3.88953 15.4409 2.82227C15.2501 2.67517 15.0501 2.65175 14.8155 2.65301C14.7836 2.65309 14.7518 2.65317 14.7189 2.65326C14.6791 2.65356 14.6394 2.65386 14.5984 2.65418C14.4073 2.6552 14.4073 2.6552 14.2124 2.65625C14.2124 3.09453 14.2124 3.53281 14.2124 3.98438C13.7741 3.98438 13.3358 3.98438 12.8843 3.98438C12.8843 3.54609 12.8843 3.10781 12.8843 2.65625C9.9916 2.65625 7.09894 2.65625 4.11863 2.65625C4.11863 3.09453 4.11863 3.53281 4.11863 3.98438C3.68035 3.98438 3.24207 3.98438 2.79051 3.98438C2.79051 3.54609 2.79051 3.10781 2.79051 2.65625C2.6645 2.65488 2.53849 2.65351 2.40867 2.6521C2.36949 2.6515 2.3303 2.65089 2.28993 2.65027C1.98792 2.64869 1.72218 2.67013 1.49558 2.88867ZM1.32957 6.24219C1.3282 7.68304 1.32683 9.12389 1.32542 10.6084C1.32481 11.0636 1.32421 11.5188 1.32359 11.9878C1.32336 12.3953 1.32336 12.3953 1.32323 12.8028C1.32317 12.9845 1.32292 13.1663 1.32256 13.348C1.32213 13.5576 1.32194 13.7672 1.32203 13.9768C1.32207 14.084 1.32197 14.1912 1.32165 14.2984C1.32132 14.4133 1.3214 14.5282 1.32158 14.6431C1.32139 14.6764 1.3212 14.7097 1.321 14.7441C1.32222 15.0323 1.35437 15.2906 1.56199 15.5059C1.76348 15.6612 1.97399 15.676 2.22067 15.6761C2.2428 15.6762 2.26492 15.6763 2.28772 15.6763C2.36179 15.6765 2.43585 15.6764 2.50992 15.6763C2.56359 15.6764 2.61726 15.6765 2.67093 15.6765C2.81837 15.6767 2.9658 15.6767 3.11324 15.6767C3.27226 15.6767 3.43129 15.6769 3.59031 15.677C3.90185 15.6773 4.21338 15.6774 4.52491 15.6774C4.7781 15.6774 5.0313 15.6775 5.2845 15.6776C6.00223 15.6779 6.71995 15.6781 7.43769 15.678C7.49573 15.678 7.49573 15.678 7.55494 15.678C7.59369 15.678 7.63243 15.678 7.67234 15.678C8.30039 15.678 8.92844 15.6783 9.55648 15.6788C10.2012 15.6793 10.846 15.6795 11.4907 15.6795C11.8528 15.6795 12.2148 15.6796 12.5768 15.6799C12.885 15.6802 13.1932 15.6803 13.5014 15.6801C13.6587 15.68 13.8159 15.68 13.9732 15.6802C14.1172 15.6805 14.2611 15.6805 14.4051 15.6802C14.4572 15.6801 14.5092 15.6802 14.5613 15.6804C15.0753 15.6884 15.0753 15.6884 15.5073 15.4395C15.6911 15.2011 15.6781 14.9374 15.6773 14.6511C15.6773 14.6152 15.6774 14.5793 15.6774 14.5424C15.6775 14.4218 15.6773 14.3011 15.6771 14.1805C15.6771 14.0928 15.6771 14.005 15.6771 13.9172C15.6771 13.7058 15.677 13.4944 15.6768 13.283C15.6765 13.0384 15.6765 12.7939 15.6765 12.5493C15.6763 11.9037 15.6758 11.2581 15.6754 10.6125C15.6747 9.17033 15.674 7.72811 15.6733 6.24219C10.9399 6.24219 6.20644 6.24219 1.32957 6.24219Z" fill="white"/>
<path d="M10.4922 12.9492C10.9305 12.9492 11.3687 12.9492 11.8203 12.9492C11.8203 13.3875 11.8203 13.8258 11.8203 14.2773C11.382 14.2773 10.9438 14.2773 10.4922 14.2773C10.4922 13.8391 10.4922 13.4008 10.4922 12.9492Z" fill="white"/>
<path d="M7.83594 12.9492C8.27422 12.9492 8.7125 12.9492 9.16406 12.9492C9.16406 13.3875 9.16406 13.8258 9.16406 14.2773C8.72578 14.2773 8.2875 14.2773 7.83594 14.2773C7.83594 13.8391 7.83594 13.4008 7.83594 12.9492Z" fill="white"/>
<path d="M5.17969 12.9492C5.61797 12.9492 6.05625 12.9492 6.50781 12.9492C6.50781 13.3875 6.50781 13.8258 6.50781 14.2773C6.06953 14.2773 5.63125 14.2773 5.17969 14.2773C5.17969 13.8391 5.17969 13.4008 5.17969 12.9492Z" fill="white"/>
<path d="M2.52344 12.9492C2.96172 12.9492 3.4 12.9492 3.85156 12.9492C3.85156 13.3875 3.85156 13.8258 3.85156 14.2773C3.41328 14.2773 2.975 14.2773 2.52344 14.2773C2.52344 13.8391 2.52344 13.4008 2.52344 12.9492Z" fill="white"/>
<path d="M13.1484 10.293C13.5867 10.293 14.025 10.293 14.4766 10.293C14.4766 10.7312 14.4766 11.1695 14.4766 11.6211C14.0383 11.6211 13.6 11.6211 13.1484 11.6211C13.1484 11.1828 13.1484 10.7445 13.1484 10.293Z" fill="white"/>
<path d="M10.4922 10.293C10.9305 10.293 11.3687 10.293 11.8203 10.293C11.8203 10.7312 11.8203 11.1695 11.8203 11.6211C11.382 11.6211 10.9438 11.6211 10.4922 11.6211C10.4922 11.1828 10.4922 10.7445 10.4922 10.293Z" fill="white"/>
<path d="M7.83594 10.293C8.27422 10.293 8.7125 10.293 9.16406 10.293C9.16406 10.7312 9.16406 11.1695 9.16406 11.6211C8.72578 11.6211 8.2875 11.6211 7.83594 11.6211C7.83594 11.1828 7.83594 10.7445 7.83594 10.293Z" fill="white"/>
<path d="M5.17969 10.293C5.61797 10.293 6.05625 10.293 6.50781 10.293C6.50781 10.7312 6.50781 11.1695 6.50781 11.6211C6.06953 11.6211 5.63125 11.6211 5.17969 11.6211C5.17969 11.1828 5.17969 10.7445 5.17969 10.293Z" fill="white"/>
<path d="M2.52344 10.293C2.96172 10.293 3.4 10.293 3.85156 10.293C3.85156 10.7312 3.85156 11.1695 3.85156 11.6211C3.41328 11.6211 2.975 11.6211 2.52344 11.6211C2.52344 11.1828 2.52344 10.7445 2.52344 10.293Z" fill="white"/>
<path d="M13.1484 7.63672C13.5867 7.63672 14.025 7.63672 14.4766 7.63672C14.4766 8.075 14.4766 8.51328 14.4766 8.96484C14.0383 8.96484 13.6 8.96484 13.1484 8.96484C13.1484 8.52656 13.1484 8.08828 13.1484 7.63672Z" fill="white"/>
<path d="M10.4922 7.63672C10.9305 7.63672 11.3687 7.63672 11.8203 7.63672C11.8203 8.075 11.8203 8.51328 11.8203 8.96484C11.382 8.96484 10.9438 8.96484 10.4922 8.96484C10.4922 8.52656 10.4922 8.08828 10.4922 7.63672Z" fill="white"/>
<path d="M7.83594 7.63672C8.27422 7.63672 8.7125 7.63672 9.16406 7.63672C9.16406 8.075 9.16406 8.51328 9.16406 8.96484C8.72578 8.96484 8.2875 8.96484 7.83594 8.96484C7.83594 8.52656 7.83594 8.08828 7.83594 7.63672Z" fill="white"/>
<path d="M5.17969 7.63672C5.61797 7.63672 6.05625 7.63672 6.50781 7.63672C6.50781 8.075 6.50781 8.51328 6.50781 8.96484C6.06953 8.96484 5.63125 8.96484 5.17969 8.96484C5.17969 8.52656 5.17969 8.08828 5.17969 7.63672Z" fill="white"/>
<path d="M2.52344 7.63672C2.96172 7.63672 3.4 7.63672 3.85156 7.63672C3.85156 8.075 3.85156 8.51328 3.85156 8.96484C3.41328 8.96484 2.975 8.96484 2.52344 8.96484C2.52344 8.52656 2.52344 8.08828 2.52344 7.63672Z" fill="white"/>
</g>
<defs>
<clipPath id="clip0_170_29217">
<rect width="17" height="17" fill="white"/>
</clipPath>
</defs>
</svg>
