<svg width="16" height="20" viewBox="0 0 16 20" fill="none" xmlns="http://www.w3.org/2000/svg">
<path d="M4.5216 0.109544C4.83085 0.289052 4.99123 0.54837 5.12372 0.873552C5.14662 1.00642 5.15057 1.12395 5.14966 1.25838C5.14944 1.30061 5.14921 1.34284 5.14899 1.38634C5.14856 1.43464 5.14856 1.43464 5.14813 1.4839C5.17304 1.4838 5.19796 1.48369 5.22362 1.48358C5.83037 1.48099 6.43712 1.47905 7.04388 1.47783C7.33731 1.47723 7.63073 1.47641 7.92415 1.47506C8.17996 1.47389 8.43577 1.47314 8.69158 1.47288C8.82697 1.47273 8.96236 1.47237 9.09775 1.47151C9.24906 1.47057 9.40036 1.47055 9.55167 1.4706C9.59635 1.47018 9.64102 1.46976 9.68705 1.46932C9.92329 1.47024 10.0969 1.48435 10.3044 1.60109C10.4754 1.78349 10.4659 1.9729 10.4644 2.21068C10.4644 2.25985 10.4644 2.25985 10.4643 2.31002C10.4641 2.41469 10.4636 2.51937 10.4631 2.62404C10.4629 2.69502 10.4627 2.766 10.4625 2.83698C10.4621 3.01095 10.4614 3.18493 10.4606 3.3589C10.498 3.35874 10.498 3.35874 10.5361 3.35858C11.1429 3.35599 11.7496 3.35405 12.3564 3.35283C12.6498 3.35223 12.9432 3.35141 13.2367 3.35006C13.4925 3.34889 13.7483 3.34814 14.0041 3.34788C14.1395 3.34773 14.2749 3.34737 14.4103 3.34651C14.5616 3.34557 14.7129 3.34555 14.8642 3.3456C14.9088 3.34518 14.9535 3.34476 14.9995 3.34432C15.2661 3.34536 15.4806 3.35803 15.6901 3.53957C15.7586 3.68403 15.7769 3.82461 15.7731 3.9839C15.6569 4.30163 15.2824 4.54461 15.0279 4.74883C14.9078 4.8482 14.7934 4.95192 14.6794 5.05812C14.5345 5.19296 14.387 5.32239 14.2326 5.44631C14.0691 5.57779 13.9144 5.71561 13.7614 5.8589C13.5751 6.03337 13.3833 6.19725 13.1842 6.3571C12.9993 6.50965 12.8239 6.67258 12.6481 6.83547C12.9731 7.16402 13.3133 7.47286 13.6737 7.76213C13.7912 7.85962 13.9036 7.96194 14.0153 8.06594C14.1611 8.20165 14.3092 8.33159 14.4645 8.45656C14.6408 8.59837 14.8071 8.74774 14.9724 8.90191C15.1367 9.05409 15.3087 9.19469 15.485 9.33272C15.6347 9.46317 15.7501 9.57925 15.7707 9.78224C15.7821 9.95001 15.7556 10.0553 15.6559 10.1948C15.5087 10.3028 15.4048 10.3268 15.2237 10.3272C15.1761 10.3276 15.1285 10.3279 15.0795 10.3283C15.0271 10.3282 14.9746 10.328 14.9222 10.3278C14.8668 10.328 14.8113 10.3283 14.7559 10.3286C14.6055 10.3293 14.4552 10.3293 14.3048 10.3291C14.1792 10.3289 14.0536 10.3292 13.928 10.3294C13.6316 10.33 13.3352 10.3299 13.0388 10.3295C12.7333 10.329 12.4277 10.3296 12.1221 10.3306C11.8596 10.3315 11.597 10.3317 11.3345 10.3315C11.1778 10.3314 11.0211 10.3315 10.8643 10.3321C10.7169 10.3327 10.5696 10.3326 10.4222 10.3318C10.3682 10.3317 10.3141 10.3318 10.2601 10.3322C9.74523 10.3358 9.74524 10.3358 9.56219 10.1558C9.30571 9.64282 9.48407 9.01054 9.48407 8.43703C8.05321 8.43703 6.62235 8.43703 5.14813 8.43703C5.14813 10.8862 5.14813 13.3355 5.14813 15.8589C5.36727 15.9105 5.58641 15.962 5.81219 16.0152C6.50132 16.2571 7.14616 16.6396 7.49188 17.3042C7.62751 17.6317 7.63134 18.0855 7.50653 18.4199C7.41956 18.5997 7.30985 18.7552 7.17938 18.9058C7.15783 18.9315 7.13628 18.9571 7.11407 18.9836C6.88884 19.231 6.613 19.3787 6.32 19.5308C6.28546 19.5493 6.25092 19.5678 6.21533 19.5869C5.99291 19.6978 5.76327 19.7669 5.52411 19.8311C5.49464 19.839 5.46517 19.8469 5.43481 19.8551C4.9371 19.9817 4.45057 20.0155 3.93963 20.0142C3.90783 20.0142 3.87603 20.0141 3.84327 20.0141C3.32741 20.0125 2.83574 19.9792 2.33563 19.8433C2.28945 19.831 2.28945 19.831 2.24234 19.8185C1.50865 19.617 0.796706 19.2584 0.398374 18.5838C0.218989 18.232 0.169456 17.8833 0.2702 17.4995C0.455486 16.9497 0.828088 16.6101 1.32 16.3277C1.34956 16.3104 1.37912 16.2932 1.40957 16.2755C1.62096 16.1612 1.84252 16.0822 2.06952 16.0054C2.11408 15.9902 2.11408 15.9902 2.15955 15.9748C2.1884 15.9653 2.21725 15.9559 2.24698 15.9462C2.28528 15.9336 2.28528 15.9336 2.32437 15.9208C2.44406 15.8902 2.5649 15.8758 2.68719 15.8589C2.68713 15.8275 2.68707 15.7961 2.68701 15.7637C2.68352 13.9011 2.68083 12.0385 2.67921 10.176C2.67902 9.95233 2.67882 9.72869 2.67861 9.50505C2.67857 9.46053 2.67853 9.416 2.67848 9.37013C2.67781 8.64922 2.67657 7.92832 2.67514 7.20741C2.67368 6.4677 2.67281 5.72798 2.67249 4.98826C2.67228 4.53181 2.6716 4.07537 2.67033 3.61893C2.6695 3.30593 2.66925 2.99293 2.66946 2.67993C2.66956 2.49934 2.6694 2.31876 2.66857 2.13818C2.6678 1.97272 2.66777 1.80729 2.6683 1.64183C2.66837 1.5821 2.66817 1.52237 2.66768 1.46264C2.66423 1.0176 2.71245 0.63854 3.0328 0.305315C3.45303 -0.0516102 4.0198 -0.132967 4.5216 0.109544ZM3.71473 1.01879C3.63701 1.13236 3.64901 1.22815 3.6489 1.3647C3.64872 1.39262 3.64853 1.42054 3.64835 1.44931C3.64788 1.54359 3.64825 1.63785 3.64861 1.73213C3.64845 1.80011 3.64823 1.8681 3.64797 1.93608C3.64741 2.12347 3.64758 2.31084 3.64786 2.49823C3.64805 2.70009 3.64756 2.90196 3.64716 3.10382C3.64649 3.49951 3.64646 3.8952 3.64666 4.29089C3.64682 4.61239 3.64676 4.93388 3.64655 5.25538C3.64652 5.30106 3.64649 5.34675 3.64646 5.39383C3.6464 5.48663 3.64634 5.57944 3.64628 5.67224C3.64575 6.54332 3.64596 7.4144 3.64641 8.28549C3.6468 9.08308 3.64629 9.88067 3.64536 10.6783C3.6444 11.4965 3.64403 12.3147 3.64429 13.1329C3.64442 13.5925 3.64433 14.0522 3.64365 14.5119C3.64308 14.9032 3.64305 15.2945 3.64373 15.6858C3.64407 15.8856 3.64415 16.0853 3.64355 16.2851C3.64301 16.4678 3.64319 16.6505 3.64395 16.8332C3.6441 16.8995 3.64398 16.9658 3.64358 17.0321C3.64307 17.1218 3.64351 17.2115 3.6442 17.3013C3.64421 17.3513 3.64421 17.4012 3.64421 17.4527C3.66718 17.5996 3.70232 17.6459 3.82 17.7339C3.91766 17.7599 3.91766 17.7599 4.01532 17.7339C4.13281 17.646 4.16812 17.5997 4.19111 17.453C4.19111 17.4032 4.19112 17.3534 4.19112 17.302C4.19134 17.2741 4.19155 17.2462 4.19177 17.2175C4.19231 17.1235 4.19172 17.0296 4.19115 16.9356C4.1913 16.8677 4.19152 16.7999 4.1918 16.732C4.19238 16.5452 4.19198 16.3583 4.19142 16.1715C4.19099 15.9701 4.19145 15.7688 4.1918 15.5674C4.19235 15.1728 4.19205 14.7782 4.19147 14.3836C4.19081 13.9243 4.19093 13.4651 4.19108 13.0059C4.19131 12.1867 4.19075 11.3675 4.18979 10.5483C4.18886 9.75275 4.18858 8.95725 4.18899 8.16174C4.18944 7.29617 4.18951 6.43059 4.18895 5.56502C4.18889 5.47278 4.18883 5.38054 4.18877 5.28829C4.18874 5.2429 4.18871 5.19752 4.18868 5.15075C4.18849 4.8304 4.18857 4.51004 4.18873 4.18969C4.18893 3.79946 4.18869 3.40923 4.18792 3.019C4.18753 2.81977 4.18733 2.62055 4.18764 2.42133C4.18791 2.23912 4.18765 2.05693 4.18695 1.87472C4.18679 1.80864 4.18683 1.74256 4.18709 1.67647C4.18741 1.58696 4.18701 1.49748 4.18642 1.40796C4.18638 1.35815 4.18634 1.30834 4.1863 1.25702C4.17054 1.12362 4.15191 1.06737 4.05438 0.976091C3.87619 0.952716 3.87619 0.952716 3.71473 1.01879ZM5.14813 2.46047C5.14813 4.11047 5.14813 5.76047 5.14813 7.46047C6.57899 7.46047 8.00985 7.46047 9.48407 7.46047C9.48407 5.81047 9.48407 4.16047 9.48407 2.46047C8.05321 2.46047 6.62235 2.46047 5.14813 2.46047ZM10.4606 4.33547C10.4606 5.98547 10.4606 7.63547 10.4606 9.33547C11.6079 9.33547 12.7552 9.33547 13.9372 9.33547C13.657 9.05526 13.3696 8.78542 13.0607 8.53713C12.8973 8.40564 12.7425 8.26782 12.5895 8.12453C12.4031 7.94992 12.2109 7.78611 12.012 7.62572C11.8954 7.52992 11.7816 7.43167 11.6691 7.33107C11.634 7.2998 11.5989 7.26853 11.5628 7.23631C11.439 7.10989 11.4019 7.03338 11.3859 6.85744C11.41 6.58241 11.5932 6.42684 11.7888 6.24953C11.8926 6.16317 11.9977 6.07845 12.1029 5.99379C12.2234 5.89387 12.3384 5.78975 12.4528 5.68312C12.632 5.5164 12.8173 5.36064 13.0081 5.2072C13.1475 5.09122 13.2797 4.96842 13.4123 4.84475C13.5707 4.69805 13.7363 4.5633 13.9073 4.4316C13.93 4.41276 13.9528 4.39393 13.9763 4.37453C13.9763 4.36164 13.9763 4.34875 13.9763 4.33547C12.8161 4.33547 11.6559 4.33547 10.4606 4.33547ZM1.41522 17.4629C1.27358 17.6069 1.20577 17.7353 1.19793 17.939C1.2947 18.2615 1.53769 18.446 1.82538 18.603C2.895 19.1559 4.26461 19.1922 5.40371 18.8492C5.83409 18.7068 6.26118 18.5054 6.55194 18.1489C6.60884 18.0084 6.61912 17.8818 6.59344 17.7339C6.37178 17.2906 5.86097 17.071 5.41424 16.916C5.27227 16.8693 5.27227 16.8693 5.14813 16.8745C5.14776 16.8971 5.1474 16.9197 5.14702 16.943C5.12589 17.9843 5.12589 17.9843 4.76025 18.3697C4.43431 18.6409 4.07647 18.7057 3.66375 18.6714C3.43387 18.6117 3.25677 18.5155 3.07782 18.3589C3.05204 18.3589 3.02625 18.3589 2.99969 18.3589C2.98846 18.3364 2.97723 18.3139 2.96566 18.2907C2.93765 18.2348 2.90949 18.1789 2.88113 18.1232C2.86789 18.097 2.85465 18.0709 2.841 18.044C2.82766 18.0177 2.81431 17.9915 2.80056 17.9645C2.73579 17.8279 2.71967 17.7143 2.7139 17.565C2.71226 17.5248 2.71062 17.4847 2.70894 17.4433C2.7074 17.4014 2.70586 17.3596 2.70428 17.3164C2.7026 17.2741 2.70091 17.2318 2.69917 17.1882C2.69503 17.0836 2.69104 16.9791 2.68719 16.8745C2.25344 16.8745 1.72108 17.1708 1.41522 17.4629Z" fill="white"/>
</svg>
