<svg width="20" height="20" viewBox="0 0 20 20" fill="none" xmlns="http://www.w3.org/2000/svg">
<path d="M10.3579 1.77622C10.6107 2.00651 10.7117 2.37962 10.825 2.69495C10.8469 2.75493 10.8469 2.75493 10.8692 2.81612C10.9155 2.94304 10.9614 3.07007 11.0073 3.19712C11.0677 3.36342 11.1282 3.52968 11.1888 3.69593C11.2108 3.75661 11.2108 3.75661 11.2333 3.81851C11.3776 4.21439 11.5274 4.60809 11.6787 5.00131C11.7173 5.00146 11.756 5.0016 11.7958 5.00175C12.1602 5.00319 12.5245 5.00545 12.8889 5.0085C13.0762 5.01004 13.2636 5.0113 13.4509 5.0119C13.6317 5.01249 13.8126 5.01384 13.9934 5.0157C14.0623 5.01628 14.1313 5.01659 14.2002 5.01662C14.2969 5.01672 14.3936 5.01777 14.4902 5.01905C14.5186 5.01886 14.547 5.01866 14.5762 5.01846C14.7738 5.02249 14.8861 5.07226 15.0381 5.19663C15.1726 5.37719 15.2118 5.50804 15.2151 5.73145C15.1643 5.95235 15.0055 6.09635 14.8355 6.23423C14.8154 6.25055 14.7954 6.26687 14.7748 6.28368C14.5729 6.44682 14.366 6.60359 14.1592 6.76048C13.9469 6.92174 13.7381 7.08693 13.5305 7.25418C13.3297 7.41571 13.126 7.5732 12.9211 7.72959C12.8478 7.78596 12.7755 7.84377 12.7044 7.90293C12.6162 7.97007 12.6162 7.97007 12.5381 7.97007C12.5459 7.99327 12.5538 8.01648 12.5618 8.0404C12.7558 8.61647 12.9448 9.1939 13.1245 9.77461C13.1506 9.85844 13.1768 9.94219 13.2034 10.0259C13.2426 10.1497 13.281 10.2737 13.3193 10.3977C13.3371 10.4531 13.3371 10.4531 13.3552 10.5096C13.4403 10.7894 13.5061 11.0731 13.3706 11.3441C13.2 11.5378 13.0844 11.6175 12.8301 11.6503C12.5494 11.626 12.3268 11.4399 12.106 11.2806C12.0366 11.2313 11.9671 11.182 11.8977 11.1328C11.8618 11.1073 11.8259 11.0818 11.7889 11.0555C11.6071 10.9275 11.4232 10.8025 11.2393 10.6776C10.9554 10.4847 10.672 10.2912 10.39 10.0955C10.2622 10.0072 10.1333 9.92322 9.99903 9.84507C9.65862 10.0701 9.32181 10.3 8.98592 10.5317C8.85497 10.6219 8.72387 10.712 8.59278 10.8021C8.43191 10.9127 8.27107 11.0233 8.1103 11.134C8.08235 11.1532 8.05441 11.1724 8.02561 11.1923C7.9725 11.2288 7.9194 11.2654 7.86631 11.302C7.81845 11.3349 7.77053 11.3678 7.72255 11.4005C7.6579 11.4448 7.59372 11.4898 7.52955 11.5348C7.36541 11.6376 7.21315 11.6621 7.02586 11.6261C6.82165 11.5615 6.721 11.4655 6.60059 11.2904C6.51683 11.0391 6.56349 10.8154 6.64042 10.5683C6.6488 10.5409 6.65718 10.5136 6.66582 10.4854C6.69331 10.396 6.72141 10.3069 6.74952 10.2177C6.76883 10.1553 6.7881 10.0929 6.80732 10.0304C6.8578 9.86683 6.90879 9.70341 6.95991 9.54002C7.04185 9.27774 7.12297 9.0152 7.20419 8.7527C7.23262 8.66103 7.26123 8.56943 7.28988 8.47784C7.30726 8.42198 7.32464 8.36613 7.34202 8.31028C7.35729 8.26143 7.37255 8.21258 7.38828 8.16226C7.42449 8.05544 7.42449 8.05544 7.42091 7.97007C7.33035 7.897 7.23926 7.82816 7.14503 7.7601C6.92492 7.59831 6.70808 7.43377 6.49561 7.26206C6.31962 7.12013 6.1428 6.97973 5.96339 6.84214C5.9229 6.81107 5.88242 6.78 5.84071 6.74799C5.76529 6.6902 5.68979 6.63252 5.61419 6.57497C5.51883 6.5023 5.42372 6.42931 5.32862 6.3563C5.28324 6.3219 5.28324 6.3219 5.23694 6.28681C4.87724 6.00976 4.87724 6.00976 4.81348 5.80622C4.79198 5.59826 4.80575 5.45331 4.90153 5.26651C5.02589 5.1178 5.15043 5.04594 5.34265 5.02159C5.3989 5.02114 5.45516 5.02154 5.5114 5.02264C5.55775 5.0226 5.55775 5.0226 5.60502 5.02257C5.70649 5.02268 5.80791 5.02389 5.90937 5.02512C5.97997 5.02541 6.05058 5.02563 6.12118 5.02579C6.30652 5.02638 6.49184 5.02792 6.67718 5.02965C6.86649 5.03125 7.05581 5.03196 7.24513 5.03275C7.61623 5.03442 7.98732 5.03709 8.35841 5.04038C8.36354 5.0055 8.36868 4.97062 8.37398 4.93468C8.39437 4.823 8.42085 4.72784 8.46087 4.62215C8.47381 4.58766 8.48675 4.55316 8.50008 4.51762C8.51416 4.48076 8.52823 4.4439 8.54273 4.40592C8.55745 4.36685 8.57217 4.32779 8.58733 4.28755C8.63452 4.16244 8.682 4.03744 8.7295 3.91245C8.7756 3.7905 8.82164 3.66852 8.86765 3.54654C8.89849 3.46502 8.92948 3.38356 8.96061 3.30216C9.04066 3.09249 9.11807 2.88237 9.19123 2.67019C9.21361 2.60674 9.21361 2.60674 9.23644 2.542C9.2646 2.46192 9.29202 2.38159 9.31856 2.30096C9.41058 2.04244 9.52905 1.868 9.76466 1.72006C9.97051 1.64907 10.165 1.6892 10.3579 1.77622ZM9.95997 4.10288C9.94887 4.1334 9.94887 4.1334 9.93756 4.16454C9.86002 4.37764 9.78199 4.59054 9.70367 4.80335C9.67456 4.88264 9.64558 4.96197 9.61673 5.04135C9.57508 5.1559 9.53296 5.27027 9.49076 5.38462C9.4781 5.41974 9.46544 5.45487 9.45239 5.49106C9.25586 6.01948 9.25586 6.01948 9.07111 6.13965C8.8693 6.22527 8.66276 6.23062 8.4463 6.23224C8.41119 6.23294 8.37609 6.23364 8.33992 6.23437C8.22889 6.23647 8.11788 6.2378 8.00684 6.23911C7.93111 6.24041 7.85537 6.24175 7.77964 6.24315C7.59496 6.24645 7.41029 6.24907 7.22559 6.25132C7.36498 6.39264 7.50814 6.52064 7.66505 6.64194C7.68823 6.66019 7.7114 6.67843 7.73529 6.69723C7.87036 6.80303 8.00733 6.90523 8.14707 7.00479C8.17694 7.0265 8.20682 7.0482 8.2376 7.07056C8.29559 7.11259 8.3541 7.15393 8.41315 7.19446C8.58059 7.31684 8.68715 7.4284 8.74073 7.63218C8.77378 8.04445 8.57388 8.48949 8.44874 8.87827C8.4167 8.97852 8.38486 9.07884 8.35307 9.17917C8.33908 9.22274 8.3251 9.26631 8.31069 9.3112C8.27663 9.40979 8.27663 9.40979 8.28028 9.4935C8.42299 9.44225 8.53129 9.38049 8.65138 9.28842C8.87502 9.122 9.10535 8.96677 9.33741 8.81235C9.37417 8.78784 9.41093 8.76333 9.4488 8.73808C9.82435 8.48867 9.82435 8.48867 10.0707 8.49115C10.3519 8.54982 10.5878 8.74502 10.8193 8.90757C10.8448 8.92528 10.8703 8.943 10.8965 8.96126C11.0796 9.08913 11.2607 9.21968 11.4399 9.35303C11.5656 9.4572 11.5656 9.4572 11.7178 9.4935C11.6762 9.28244 11.622 9.08083 11.5551 8.87628C11.5317 8.80449 11.5317 8.80449 11.5078 8.73125C11.4754 8.63264 11.4425 8.53417 11.4092 8.43584C11.3095 8.127 11.1961 7.77208 11.3223 7.45433C11.3892 7.3474 11.48 7.28802 11.5811 7.21323C11.6267 7.17903 11.6722 7.14479 11.7178 7.11054C11.7426 7.092 11.7674 7.07346 11.793 7.05437C11.9448 6.94032 12.095 6.82409 12.2451 6.70786C12.275 6.68495 12.3049 6.66205 12.3357 6.63845C12.3642 6.61639 12.3927 6.59433 12.4221 6.5716C12.4473 6.5522 12.4725 6.53279 12.4985 6.5128C12.5957 6.43107 12.6837 6.34199 12.7725 6.25132C12.7256 6.25075 12.6787 6.25018 12.6304 6.24959C12.4554 6.24731 12.2804 6.2443 12.1054 6.24106C12.0298 6.23977 11.9543 6.23867 11.8787 6.23778C11.7697 6.23646 11.6608 6.23442 11.5518 6.23224C11.5183 6.23199 11.4849 6.23174 11.4505 6.23148C11.2402 6.22641 11.0387 6.21234 10.8584 6.09507C10.6795 5.8974 10.5962 5.63136 10.5073 5.38462C10.4869 5.32936 10.4869 5.32936 10.4661 5.27298C10.4232 5.1565 10.3808 5.03985 10.3384 4.92319C10.3092 4.84368 10.28 4.76418 10.2507 4.6847C10.1795 4.49089 10.1086 4.29694 10.0381 4.10288C10.0123 4.10288 9.98653 4.10288 9.95997 4.10288Z" fill="white"/>
<path d="M15.5623 10.1232C15.8093 10.2996 15.8871 10.5839 15.986 10.8587C16.0012 10.8999 16.0163 10.9411 16.0318 10.9836C16.0636 11.0706 16.0953 11.1577 16.1269 11.2448C16.1748 11.3772 16.2232 11.5094 16.2716 11.6416C16.3026 11.7265 16.3335 11.8114 16.3645 11.8963C16.3787 11.9354 16.393 11.9745 16.4077 12.0148C16.4938 12.2529 16.5715 12.4922 16.6414 12.7355C16.6835 12.7351 16.6835 12.7351 16.7265 12.7347C16.9926 12.7324 17.2586 12.7306 17.5247 12.7294C17.6614 12.7288 17.7982 12.728 17.9349 12.7267C18.0925 12.7251 18.25 12.7246 18.4076 12.7241C18.4562 12.7235 18.5048 12.7228 18.5549 12.7222C19.1525 12.7221 19.1525 12.7221 19.3607 12.9094C19.4874 13.0567 19.5387 13.1598 19.5442 13.3507C19.5464 13.4 19.5464 13.4 19.5487 13.4502C19.5119 13.6834 19.3464 13.828 19.1707 13.9709C19.1506 13.9873 19.1304 14.0038 19.1096 14.0207C18.919 14.1747 18.7223 14.3204 18.5255 14.4662C18.2732 14.6539 18.0299 14.8517 17.787 15.0513C17.514 15.2746 17.514 15.2746 17.4227 15.2746C17.4303 15.2989 17.438 15.3233 17.4459 15.3484C17.5257 15.6025 17.6056 15.8566 17.6854 16.1107C17.7152 16.2055 17.7449 16.3002 17.7747 16.395C17.8176 16.5314 17.8605 16.6678 17.9033 16.8043C17.9166 16.8464 17.9298 16.8886 17.9435 16.932C18.1831 17.6958 18.1831 17.6958 18.0794 17.9796C17.9522 18.1726 17.8047 18.2727 17.5789 18.3214C17.2754 18.3191 17.0973 18.1879 16.8563 18.0138C16.8185 17.9873 16.7808 17.9608 16.742 17.9335C16.6657 17.88 16.5896 17.8262 16.5137 17.7721C16.3431 17.6511 16.1702 17.5334 15.9973 17.4157C15.8757 17.3324 15.7557 17.2478 15.6377 17.1595C15.6147 17.1426 15.5916 17.1257 15.5679 17.1083C15.5057 17.0625 15.444 17.0159 15.3824 16.9694C15.2788 16.9019 15.2788 16.9019 15.18 16.944C15.0842 16.9907 15.0017 17.0409 14.915 17.1027C14.8842 17.1245 14.8534 17.1464 14.8216 17.1689C14.7889 17.1923 14.7562 17.2157 14.7225 17.2399C14.6526 17.2894 14.5826 17.3389 14.5127 17.3884C14.4771 17.4136 14.4415 17.4388 14.4048 17.4648C14.2375 17.5826 14.0687 17.6982 13.8997 17.8136C13.8703 17.8337 13.8409 17.8538 13.8107 17.8746C13.7541 17.9132 13.6975 17.9516 13.6409 17.99C13.5808 18.0308 13.5211 18.0719 13.4615 18.1132C13.4307 18.1343 13.3998 18.1555 13.3681 18.1772C13.3404 18.1964 13.3127 18.2156 13.2842 18.2353C13.1287 18.3265 12.9883 18.3405 12.8093 18.3053C12.6047 18.2416 12.504 18.1449 12.3836 17.9699C12.2756 17.6458 12.3886 17.3559 12.4884 17.0438C12.5031 16.9969 12.5177 16.9499 12.5328 16.9015C12.5716 16.7774 12.6107 16.6535 12.6501 16.5296C12.6901 16.4034 12.7296 16.2769 12.7691 16.1505C12.9786 15.4816 12.9786 15.4816 13.0477 15.2746C13.0249 15.2639 13.002 15.2532 12.9786 15.2423C12.8931 15.1973 12.8228 15.1481 12.7471 15.0884C12.7194 15.0668 12.6918 15.0452 12.6634 15.0229C12.6339 14.9996 12.6044 14.9763 12.574 14.9523C12.5109 14.9028 12.4477 14.8532 12.3845 14.8037C12.3359 14.7655 12.3359 14.7655 12.2864 14.7265C12.1604 14.6277 12.0339 14.5296 11.9074 14.4315C11.8189 14.3628 11.7306 14.294 11.6423 14.2251C11.5485 14.1519 11.4545 14.0791 11.3597 14.0072C10.9604 13.6992 10.9604 13.6992 10.9239 13.4627C10.9126 13.239 10.9452 13.1058 11.0945 12.9308C11.1106 12.9083 11.1268 12.8857 11.1434 12.8625C11.3967 12.6815 11.7649 12.7254 12.0589 12.7279C12.1096 12.728 12.1603 12.7281 12.2126 12.7282C12.3464 12.7285 12.4802 12.7293 12.614 12.7301C12.751 12.7309 12.888 12.7313 13.0249 12.7317C13.2929 12.7325 13.5609 12.7338 13.8289 12.7355C13.8355 12.7125 13.8422 12.6895 13.849 12.6658C13.9636 12.2755 14.1035 11.8948 14.2425 11.5127C14.2744 11.4244 14.3061 11.3361 14.3376 11.2478C14.3834 11.1191 14.4299 10.9908 14.4766 10.8625C14.4904 10.8233 14.5042 10.784 14.5185 10.7436C14.612 10.4903 14.7198 10.251 14.9632 10.1119C15.1527 10.0312 15.3722 10.0598 15.5623 10.1232ZM15.1961 12.4621C15.1837 12.4954 15.1713 12.5286 15.1585 12.563C15.1121 12.6871 15.0656 12.8112 15.019 12.9353C14.9988 12.9889 14.9788 13.0425 14.9588 13.0962C14.93 13.1735 14.901 13.2508 14.8718 13.328C14.8545 13.3744 14.8371 13.4209 14.8192 13.4687C14.7322 13.6767 14.6663 13.8128 14.4539 13.9074C14.3277 13.9243 14.3277 13.9243 14.187 13.9274C14.1366 13.9287 14.0861 13.9301 14.0341 13.9316C13.9811 13.9325 13.9282 13.9334 13.8753 13.9342C13.8216 13.9355 13.7679 13.9369 13.7142 13.9383C13.5832 13.9415 13.4522 13.9442 13.3211 13.9464C13.4325 14.0599 13.5438 14.1685 13.6681 14.2678C13.6951 14.2895 13.7222 14.3113 13.75 14.3337C13.7777 14.3558 13.8053 14.3778 13.8338 14.4005C13.8893 14.4449 13.9447 14.4894 14.0001 14.5339C14.0244 14.5533 14.0488 14.5727 14.0738 14.5927C14.2291 14.7233 14.2924 14.8117 14.3316 15.0124C14.3419 15.2255 14.2685 15.4226 14.2049 15.6237C14.1785 15.7111 14.1521 15.7985 14.1258 15.886C14.1139 15.9242 14.1019 15.9625 14.0896 16.0019C14.0597 16.0913 14.0597 16.0913 14.0633 16.173C14.2185 16.1185 14.3352 16.045 14.4661 15.9459C14.9984 15.553 14.9984 15.553 15.2742 15.548C15.5447 15.5965 15.732 15.744 15.9505 15.9044C16.0202 15.9552 16.09 16.0057 16.16 16.0561C16.2059 16.0897 16.2059 16.0897 16.2527 16.124C16.3248 16.18 16.3248 16.18 16.407 16.173C16.3482 15.9256 16.2838 15.6839 16.202 15.443C16.1233 15.1914 16.1051 14.9947 16.2145 14.7521C16.3199 14.6086 16.451 14.518 16.595 14.4152C16.7848 14.2773 16.9729 14.1405 17.1492 13.9855C17.1492 13.9726 17.1492 13.9597 17.1492 13.9464C17.1161 13.9461 17.083 13.9457 17.049 13.9453C16.9253 13.9436 16.8017 13.9412 16.6781 13.9383C16.6248 13.9372 16.5714 13.9364 16.5181 13.9359C16.4411 13.935 16.3641 13.9331 16.2871 13.9312C16.2409 13.9304 16.1946 13.9295 16.147 13.9287C15.9702 13.8998 15.8418 13.8289 15.7315 13.6854C15.7214 13.6627 15.7113 13.6401 15.7009 13.6168C15.6826 13.5761 15.6826 13.5761 15.664 13.5346C15.5845 13.335 15.5115 13.1334 15.4402 12.9308C15.4161 12.8631 15.4161 12.8631 15.3916 12.7939C15.3523 12.6834 15.3132 12.5728 15.2742 12.4621C15.2484 12.4621 15.2227 12.4621 15.1961 12.4621Z" fill="white"/>
<path d="M5.03883 10.0984C5.32396 10.2292 5.41467 10.5801 5.51884 10.8532C5.54946 10.9365 5.57982 11.0199 5.60997 11.1034C5.62616 11.1477 5.64236 11.1921 5.65905 11.2378C5.69293 11.3307 5.7267 11.4237 5.76037 11.5167C5.81212 11.6596 5.86425 11.8023 5.91644 11.9451C5.94939 12.0356 5.98233 12.1261 6.01524 12.2167C6.03086 12.2595 6.04648 12.3023 6.06258 12.3464C6.07681 12.3858 6.09103 12.4252 6.10569 12.4658C6.11829 12.5005 6.13089 12.5352 6.14386 12.571C6.17073 12.6549 6.17073 12.6549 6.17073 12.733C6.19948 12.7328 6.22824 12.7327 6.25786 12.7325C6.52968 12.7309 6.8015 12.7297 7.07332 12.729C7.21304 12.7286 7.35277 12.728 7.49249 12.7271C7.62749 12.7263 7.76248 12.7258 7.89748 12.7256C7.97371 12.7254 8.04993 12.7248 8.12615 12.7242C8.68485 12.7241 8.68485 12.7241 8.86451 12.8758C8.88274 12.8996 8.90097 12.9234 8.91975 12.9479C8.948 12.9835 8.948 12.9835 8.97682 13.0199C9.05758 13.1348 9.06861 13.2114 9.07112 13.3507C9.07263 13.4006 9.07263 13.4006 9.07417 13.4516C9.03887 13.7318 8.79782 13.8946 8.5926 14.0611C8.46748 14.1575 8.34074 14.2517 8.21384 14.3457C8.02529 14.4856 7.8404 14.6292 7.65754 14.7765C7.63331 14.796 7.60907 14.8155 7.5841 14.8355C7.51659 14.8899 7.44912 14.9442 7.38166 14.9986C7.31266 15.0542 7.24352 15.1096 7.17414 15.1647C7.13449 15.1964 7.13449 15.1964 7.09404 15.2287C7.0301 15.2721 7.0301 15.2721 6.95198 15.2721C6.9594 15.2951 6.96682 15.3182 6.97446 15.3419C7.03962 15.5443 7.10444 15.7469 7.16896 15.9496C7.22695 16.1317 7.28556 16.3137 7.34486 16.4954C7.38116 16.607 7.41703 16.7187 7.45282 16.8305C7.47035 16.8849 7.48806 16.9392 7.50595 16.9935C7.72436 17.657 7.72436 17.657 7.60871 17.9796C7.48005 18.1704 7.33318 18.2704 7.10823 18.319C6.8262 18.312 6.66835 18.2146 6.44416 18.0504C6.3784 18.0038 6.31263 17.9572 6.24687 17.9106C6.21431 17.8872 6.18175 17.8639 6.1482 17.8398C5.98656 17.7242 5.8222 17.6126 5.65798 17.5008C5.5229 17.4084 5.38955 17.3143 5.25764 17.2174C5.22945 17.1971 5.20126 17.1768 5.17222 17.1558C5.11809 17.1167 5.06436 17.077 5.01111 17.0367C4.93015 16.9764 4.93015 16.9764 4.80354 16.9127C4.6366 16.9415 4.511 17.055 4.37629 17.1544C4.05718 17.387 3.73104 17.6088 3.404 17.8301C3.28623 17.9097 3.16921 17.9901 3.05366 18.073C2.68624 18.3322 2.68624 18.3322 2.42073 18.319C2.17797 18.27 2.05174 18.1693 1.91291 17.9674C1.8227 17.6967 1.89726 17.4616 1.97944 17.2005C1.99034 17.1648 2.00124 17.1291 2.01247 17.0923C2.04729 16.9786 2.08263 16.8651 2.11799 16.7516C2.14117 16.6762 2.16431 16.6008 2.18742 16.5254C2.26844 16.2616 2.34968 15.9978 2.43301 15.7346C2.45442 15.6665 2.45442 15.6665 2.47627 15.5971C2.48839 15.559 2.50051 15.521 2.513 15.4818C2.54299 15.3864 2.54299 15.3864 2.53791 15.2721C2.44761 15.1963 2.35792 15.1278 2.26203 15.0597C2.2043 15.0176 2.14662 14.9754 2.089 14.9332C2.05956 14.9117 2.03011 14.8901 1.99977 14.8679C1.86803 14.77 1.74022 14.6674 1.61262 14.5641C1.4281 14.4151 1.24211 14.2685 1.05354 14.1246C0.508789 13.7065 0.50879 13.7065 0.467601 13.5143C0.450132 13.2942 0.459897 13.1569 0.584788 12.9674C0.792852 12.7593 1.01343 12.7289 1.29614 12.7242C1.39223 12.7242 1.48831 12.7246 1.58439 12.7254C1.63516 12.7255 1.68593 12.7256 1.73823 12.7257C1.87239 12.726 2.00653 12.7268 2.14068 12.7277C2.2779 12.7285 2.41511 12.7288 2.55233 12.7292C2.82097 12.73 3.0896 12.7314 3.35823 12.733C3.36483 12.7099 3.37144 12.6868 3.37824 12.663C3.45357 12.4053 3.54127 12.1539 3.63517 11.9023C3.65024 11.8618 3.66531 11.8213 3.68084 11.7796C3.71252 11.6946 3.74426 11.6096 3.77608 11.5247C3.82456 11.3951 3.87258 11.2652 3.92059 11.1354C3.95156 11.0525 3.98256 10.9696 4.01359 10.8867C4.0278 10.8481 4.042 10.8095 4.05664 10.7698C4.23413 10.2996 4.48239 9.9459 5.03883 10.0984ZM4.72541 12.4596C4.71301 12.4929 4.70061 12.5262 4.68783 12.5605C4.64146 12.6847 4.59492 12.8088 4.54827 12.9328C4.52816 12.9864 4.50812 13.04 4.48815 13.0937C4.45933 13.171 4.43027 13.2483 4.40116 13.3255C4.38378 13.372 4.36639 13.4184 4.34847 13.4662C4.2615 13.6743 4.19558 13.8104 3.98323 13.9049C3.85706 13.9218 3.85706 13.9218 3.71635 13.9249C3.66587 13.9263 3.61539 13.9277 3.56338 13.9291C3.51046 13.93 3.45754 13.9309 3.40461 13.9317C3.35093 13.933 3.29724 13.9344 3.24356 13.9358C3.11251 13.939 2.98148 13.9417 2.85041 13.944C2.96186 14.0574 3.07312 14.166 3.1974 14.2653C3.22444 14.2871 3.25148 14.3088 3.27934 14.3312C3.30698 14.3533 3.33463 14.3753 3.36311 14.3981C3.4186 14.4425 3.47404 14.4869 3.52943 14.5314C3.55376 14.5508 3.57808 14.5703 3.60315 14.5903C3.75258 14.7159 3.82249 14.8027 3.86604 14.9986C3.861 15.258 3.78975 15.4946 3.70735 15.7384C3.68564 15.8038 3.66402 15.8693 3.6425 15.9348C3.63293 15.9632 3.62336 15.9917 3.6135 16.021C3.58894 16.0925 3.58894 16.0925 3.5926 16.1705C3.77325 16.11 3.91 16.0116 4.06135 15.8995C4.52396 15.56 4.52396 15.56 4.80354 15.5455C5.03973 15.5932 5.20286 15.6964 5.3968 15.836C5.42407 15.8552 5.45133 15.8744 5.47943 15.8941C5.5861 15.9693 5.69146 16.0451 5.79429 16.1255C5.85584 16.178 5.85584 16.178 5.93635 16.1705C5.8751 15.9172 5.80869 15.6675 5.73127 15.4186C5.66064 15.1743 5.64253 15.0098 5.72853 14.7676C5.8021 14.6514 5.90503 14.5806 6.01448 14.5006C6.06022 14.4663 6.10595 14.432 6.15165 14.3976C6.1859 14.372 6.1859 14.372 6.22083 14.346C6.32012 14.2713 6.41767 14.1945 6.51496 14.1173C6.54664 14.0923 6.57831 14.0672 6.61094 14.0415C6.63325 14.0222 6.65556 14.0029 6.67854 13.983C6.67854 13.9701 6.67854 13.9572 6.67854 13.944C6.64524 13.9434 6.61195 13.9428 6.57765 13.9422C6.45351 13.9398 6.3294 13.9369 6.20528 13.9337C6.15167 13.9324 6.09806 13.9313 6.04445 13.9304C5.96716 13.9291 5.88988 13.927 5.8126 13.9249C5.76617 13.9239 5.71973 13.9228 5.67189 13.9218C5.53515 13.9035 5.46062 13.8691 5.35041 13.7877C5.0806 13.4069 4.95594 12.8957 4.80354 12.4596C4.77776 12.4596 4.75198 12.4596 4.72541 12.4596Z" fill="white"/>
</svg>
