<svg width="18" height="18" viewBox="0 0 18 18" fill="none" xmlns="http://www.w3.org/2000/svg">
<g clip-path="url(#clip0_170_29382)">
<path d="M9.52707 0.119739C9.66983 0.188006 9.81051 0.259928 9.95092 0.332888C10.0821 0.400729 10.2144 0.465896 10.3469 0.531003C10.5146 0.613517 10.6816 0.69728 10.8488 0.780817C10.9241 0.818405 10.9995 0.855987 11.0748 0.893564C11.2766 0.994226 11.4783 1.09498 11.68 1.19576C11.8063 1.25884 11.9326 1.3219 12.0589 1.38496C12.4097 1.56018 12.7606 1.73542 13.1114 1.91076C13.1448 1.92745 13.1448 1.92745 13.1788 1.94448C13.2011 1.95564 13.2235 1.96679 13.2464 1.97828C13.2916 2.00087 13.3368 2.02346 13.382 2.04605C13.4044 2.05725 13.4269 2.06846 13.45 2.08C13.8151 2.26247 14.1802 2.44476 14.5455 2.62696C14.922 2.8148 15.2984 3.0028 15.6748 3.19096C15.8855 3.29631 16.0962 3.40158 16.3071 3.50668C16.5047 3.60522 16.7023 3.70395 16.8998 3.80284C16.9722 3.83909 17.0447 3.87525 17.1172 3.91135C17.2161 3.96058 17.3149 4.01007 17.4137 4.05962C17.4568 4.08098 17.4568 4.08098 17.5008 4.10276C17.7099 4.20822 17.9044 4.31218 18.0016 4.53582C18.0179 4.64019 18.0195 4.74233 18.0191 4.84783C18.0201 4.87515 18.0211 4.90248 18.0222 4.93064C18.0223 4.9576 18.0223 4.98457 18.0224 5.01235C18.0227 5.03645 18.0229 5.06056 18.0232 5.08539C17.9805 5.2495 17.8907 5.36965 17.7533 5.46505C17.6633 5.51555 17.5721 5.56144 17.4793 5.60643C17.4442 5.62407 17.4091 5.64172 17.373 5.65989C17.2959 5.69857 17.2187 5.73697 17.1414 5.77513C17.0121 5.83913 16.8832 5.90408 16.7545 5.96933C16.523 6.08658 16.291 6.20297 16.0588 6.31903C15.9381 6.37941 15.8174 6.43998 15.6968 6.5006C15.6029 6.54774 15.5089 6.59476 15.4149 6.64174C15.3703 6.66406 15.3257 6.68644 15.2812 6.70886C15.2197 6.73976 15.1582 6.77046 15.0966 6.80116C15.0617 6.81863 15.0268 6.83609 14.9909 6.85408C14.9078 6.89128 14.9078 6.89128 14.8375 6.89128C14.8375 6.91449 14.8375 6.93769 14.8375 6.9616C14.8815 6.97503 14.8815 6.97503 14.9263 6.98873C15.0612 7.03643 15.1872 7.09625 15.3149 7.1603C15.3407 7.17311 15.3665 7.18592 15.3931 7.19913C15.4779 7.2413 15.5626 7.28367 15.6473 7.32607C15.7065 7.35559 15.7657 7.3851 15.8249 7.41461C15.9487 7.4764 16.0725 7.5383 16.1962 7.60026C16.3546 7.67955 16.5131 7.75851 16.6717 7.83739C16.7939 7.89822 16.916 7.95925 17.038 8.02034C17.0964 8.04953 17.1549 8.07866 17.2134 8.10772C17.2951 8.1484 17.3768 8.18935 17.4584 8.23036C17.4825 8.24224 17.5065 8.25412 17.5312 8.26635C17.7322 8.36796 17.9094 8.47215 18.0016 8.68425C18.0179 8.78863 18.0195 8.89077 18.0191 8.99626C18.0201 9.02359 18.0211 9.05092 18.0222 9.07907C18.0223 9.10604 18.0223 9.133 18.0224 9.16078C18.0227 9.18489 18.0229 9.20899 18.0232 9.23383C17.9805 9.39794 17.8907 9.51808 17.7533 9.61348C17.6633 9.66399 17.5721 9.70988 17.4793 9.75487C17.4442 9.77251 17.4091 9.79015 17.373 9.80833C17.2959 9.84701 17.2187 9.88541 17.1414 9.92357C17.0121 9.98756 16.8832 10.0525 16.7545 10.1178C16.523 10.235 16.291 10.3514 16.0588 10.4675C15.9381 10.5278 15.8174 10.5884 15.6968 10.649C15.6029 10.6962 15.5089 10.7432 15.4149 10.7902C15.3703 10.8125 15.3257 10.8349 15.2812 10.8573C15.2197 10.8882 15.1582 10.9189 15.0966 10.9496C15.0617 10.9671 15.0268 10.9845 14.9909 11.0025C14.9078 11.0397 14.9078 11.0397 14.8375 11.0397C14.8375 11.0629 14.8375 11.0861 14.8375 11.11C14.8668 11.119 14.8961 11.1279 14.9263 11.1372C15.0612 11.1849 15.1872 11.2447 15.3149 11.3087C15.3407 11.3215 15.3665 11.3344 15.3931 11.3476C15.4779 11.3897 15.5626 11.4321 15.6473 11.4745C15.7065 11.504 15.7657 11.5335 15.8249 11.563C15.9487 11.6248 16.0725 11.6867 16.1962 11.7487C16.3546 11.828 16.5131 11.9069 16.6717 11.9858C16.7939 12.0467 16.916 12.1077 17.038 12.1688C17.0964 12.198 17.1549 12.2271 17.2134 12.2562C17.2951 12.2968 17.3768 12.3378 17.4584 12.3788C17.4825 12.3907 17.5065 12.4026 17.5312 12.4148C17.7322 12.5164 17.9094 12.6206 18.0016 12.8327C18.0179 12.9371 18.0195 13.0392 18.0191 13.1447C18.0201 13.172 18.0211 13.1994 18.0222 13.2275C18.0223 13.2545 18.0223 13.2814 18.0224 13.3092C18.0227 13.3333 18.0229 13.3574 18.0232 13.3823C17.9805 13.5466 17.8867 13.6699 17.7483 13.7647C17.6536 13.8173 17.5576 13.8656 17.4601 13.913C17.4243 13.931 17.3884 13.949 17.3515 13.9676C17.2768 14.0051 17.202 14.0423 17.1271 14.0792C17.0248 14.1297 16.9229 14.1809 16.8211 14.2325C16.6223 14.3333 16.4229 14.433 16.2235 14.5326C16.1481 14.5703 16.0726 14.6081 15.9972 14.6459C15.7952 14.7469 15.5931 14.8479 15.3911 14.9489C15.2647 15.0121 15.1382 15.0753 15.0118 15.1385C14.9907 15.1491 14.9696 15.1596 14.9478 15.1705C14.9049 15.192 14.8619 15.2135 14.819 15.235C14.4192 15.4349 14.0194 15.6347 13.6196 15.8346C13.2767 16.0059 12.9339 16.1773 12.5911 16.3488C12.1914 16.5487 11.7918 16.7486 11.392 16.9484C11.3495 16.9697 11.3069 16.991 11.2644 17.0122C11.2435 17.0227 11.2225 17.0331 11.201 17.0439C11.0536 17.1176 10.9063 17.1913 10.7589 17.265C10.5612 17.3639 10.3635 17.4627 10.1657 17.5615C10.0931 17.5978 10.0204 17.6341 9.94782 17.6705C9.84902 17.7199 9.75018 17.7693 9.65132 17.8186C9.62236 17.8332 9.5934 17.8477 9.56356 17.8626C9.53715 17.8758 9.51074 17.889 9.48354 17.9025C9.46073 17.9139 9.43793 17.9253 9.41443 17.937C9.18538 18.0433 8.94346 18.0535 8.70569 17.9713C8.45301 17.8665 8.21053 17.7398 7.96699 17.6156C7.88412 17.5742 7.80122 17.5329 7.71827 17.4916C7.51708 17.3914 7.3164 17.2902 7.11587 17.1886C6.88214 17.0703 6.6479 16.953 6.41364 16.8358C5.9957 16.6266 5.57818 16.4165 5.16091 16.2059C4.75627 16.0017 4.35137 15.7981 3.94617 15.595C3.92118 15.5824 3.8962 15.5699 3.87046 15.557C3.77003 15.5067 3.6696 15.4563 3.56916 15.406C3.15917 15.2005 2.74937 14.9946 2.33961 14.7887C2.2463 14.7418 2.15299 14.6949 2.05967 14.6481C1.79379 14.5145 1.52801 14.3808 1.26241 14.2467C1.1819 14.2061 1.10136 14.1656 1.02078 14.1251C0.910924 14.0699 0.801199 14.0145 0.691507 13.959C0.659501 13.943 0.627495 13.927 0.594519 13.9105C0.382243 13.8026 0.177747 13.6962 0.0626725 13.4765C-0.002414 13.2726 -0.0218818 13.0238 0.0730966 12.828C0.21263 12.6024 0.359214 12.5022 0.596333 12.3905C0.648715 12.3645 0.648715 12.3645 0.702156 12.338C0.778801 12.3 0.855618 12.2624 0.932581 12.2251C1.06193 12.162 1.19043 12.0974 1.31877 12.0323C1.55035 11.9149 1.78238 11.7984 2.01461 11.6823C2.13537 11.6219 2.25602 11.5613 2.37666 11.5007C2.47055 11.4536 2.56451 11.4066 2.65849 11.3596C2.7031 11.3373 2.74769 11.3149 2.79226 11.2925C2.85372 11.2616 2.91528 11.2309 2.97684 11.2002C3.01172 11.1827 3.04659 11.1652 3.08253 11.1472C3.16562 11.11 3.16562 11.11 3.23594 11.11C3.23594 11.0868 3.23594 11.0636 3.23594 11.0397C3.20663 11.0308 3.17732 11.0218 3.14712 11.0126C3.01221 10.9649 2.8862 10.9051 2.75857 10.841C2.73276 10.8282 2.70695 10.8154 2.68036 10.8022C2.59554 10.76 2.51082 10.7176 2.42611 10.6752C2.36693 10.6457 2.30775 10.6162 2.24856 10.5867C2.12472 10.5249 2.00094 10.463 1.87719 10.4011C1.71883 10.3218 1.56031 10.2428 1.40174 10.1639C1.27955 10.1031 1.15745 10.0421 1.03539 9.98097C0.976985 9.95178 0.91855 9.92266 0.860082 9.8936C0.778286 9.85292 0.696629 9.81197 0.615001 9.77095C0.590981 9.75908 0.56696 9.7472 0.542212 9.73497C0.346413 9.63599 0.167388 9.528 0.0626725 9.32805C-0.002414 9.12418 -0.0218818 8.87539 0.0730966 8.67956C0.21263 8.45394 0.359214 8.35374 0.596333 8.24205C0.631255 8.22473 0.666176 8.20741 0.702156 8.18956C0.778801 8.15158 0.855618 8.11395 0.932581 8.07661C1.06193 8.01352 1.19043 7.94895 1.31877 7.88383C1.55035 7.76643 1.78238 7.64995 2.01461 7.53385C2.13537 7.47347 2.25602 7.4129 2.37666 7.35228C2.47055 7.30514 2.56451 7.25812 2.65849 7.21114C2.7031 7.18882 2.74769 7.16644 2.79226 7.14403C2.85372 7.11312 2.91528 7.08242 2.97684 7.05172C3.01172 7.03426 3.04659 7.01679 3.08253 6.9988C3.16562 6.9616 3.16562 6.9616 3.23594 6.9616C3.23594 6.93839 3.23594 6.91519 3.23594 6.89128C3.19197 6.87785 3.19197 6.87785 3.14712 6.86415C3.01221 6.81645 2.8862 6.75663 2.75857 6.69259C2.73276 6.67977 2.70695 6.66696 2.68036 6.65375C2.59554 6.61159 2.51082 6.56921 2.42611 6.52681C2.36693 6.49729 2.30775 6.46778 2.24856 6.43827C2.12472 6.37648 2.00094 6.31458 1.87719 6.25262C1.71883 6.17333 1.56031 6.09437 1.40174 6.01549C1.27955 5.95466 1.15745 5.89363 1.03539 5.83254C0.976985 5.80335 0.91855 5.77422 0.860082 5.74516C0.778286 5.70448 0.696629 5.66354 0.615001 5.62252C0.590981 5.61064 0.56696 5.59877 0.542212 5.58653C0.346413 5.48755 0.167388 5.37956 0.0626725 5.17961C-0.00242159 4.97572 -0.0214162 4.72771 0.0724228 4.53145C0.214956 4.29925 0.372343 4.1989 0.615477 4.08419C0.651153 4.06649 0.686829 4.04879 0.723586 4.03055C0.797853 3.99374 0.872286 3.95726 0.946877 3.92111C1.08147 3.85556 1.21473 3.7876 1.34799 3.7194C1.51524 3.6339 1.68306 3.54953 1.85078 3.46496C1.92636 3.4268 2.00194 3.38864 2.07752 3.35047C2.75934 3.0063 3.44174 2.66326 4.12429 2.32054C4.21507 2.27496 4.30585 2.22937 4.39662 2.18378C4.43045 2.16679 4.43045 2.16679 4.46497 2.14946C4.83181 1.9652 5.1983 1.78026 5.56466 1.59506C5.94267 1.40399 6.32102 1.21362 6.69971 1.0239C6.91159 0.917724 7.12332 0.811241 7.33464 0.703952C7.53296 0.603308 7.73169 0.503539 7.93077 0.404416C8.00354 0.368 8.07614 0.331273 8.14857 0.294207C8.65152 0.0371341 8.98529 -0.126935 9.52707 0.119739ZM8.74219 1.63784C8.71514 1.65133 8.68809 1.66483 8.66022 1.67873C8.56903 1.72427 8.47795 1.77 8.38686 1.81574C8.32174 1.84831 8.25661 1.88087 8.19148 1.91341C8.01419 2.00205 7.83699 2.09085 7.65981 2.17969C7.4748 2.27241 7.28972 2.36497 7.10464 2.45755C6.75397 2.633 6.40337 2.80859 6.0528 2.98423C5.65377 3.18413 5.25466 3.38388 4.85555 3.58362C4.03434 3.99459 3.21323 4.40576 2.39219 4.81707C2.39219 4.84027 2.39219 4.86347 2.39219 4.88738C3.24987 5.32032 4.10795 5.75247 4.96652 6.18365C5.36515 6.38387 5.76364 6.58436 6.16182 6.78546C6.50881 6.9607 6.85604 7.13545 7.20357 7.30961C7.38764 7.40188 7.57158 7.49438 7.75523 7.58748C7.928 7.67506 8.1011 7.76198 8.27446 7.84839C8.3381 7.88026 8.40162 7.91238 8.46501 7.94475C8.55146 7.98884 8.63829 8.03205 8.72528 8.07506C8.75038 8.08813 8.77548 8.10119 8.80134 8.11465C8.91361 8.1691 8.98315 8.19548 9.10736 8.17243C9.14206 8.1557 9.17675 8.13898 9.2125 8.12175C9.2544 8.10223 9.2963 8.0827 9.33948 8.06259C9.38754 8.03871 9.43552 8.01467 9.48344 7.99051C9.52334 7.97061 9.52334 7.97061 9.56404 7.9503C9.65284 7.90596 9.74155 7.86141 9.83026 7.81687C9.89401 7.78498 9.95777 7.7531 10.0215 7.72124C10.1945 7.63479 10.3673 7.54816 10.5401 7.46151C10.7208 7.37095 10.9016 7.28054 11.0823 7.19012C11.4245 7.01891 11.7667 6.84756 12.1088 6.67616C12.4983 6.48101 12.8879 6.28602 13.2775 6.09105C14.0788 5.69 14.8801 5.28876 15.6812 4.88738C15.6812 4.86417 15.6812 4.84097 15.6812 4.81707C14.8208 4.38602 13.9603 3.95513 13.0996 3.52443C12.7 3.32446 12.3005 3.12444 11.901 2.92429C11.5529 2.74991 11.2048 2.57562 10.8566 2.40145C10.6722 2.30917 10.4877 2.21684 10.3033 2.12439C10.13 2.03747 9.95655 1.95069 9.78307 1.864C9.71924 1.83208 9.65544 1.8001 9.59166 1.76808C9.50492 1.72454 9.41809 1.68116 9.33125 1.63784C9.30573 1.62498 9.28022 1.61212 9.25394 1.59887C9.03042 1.48779 8.95667 1.52973 8.74219 1.63784ZM4.61923 7.84799C4.59522 7.85999 4.57121 7.87199 4.54647 7.88436C4.46689 7.92417 4.38741 7.96418 4.30793 8.0042C4.25286 8.0318 4.19778 8.05939 4.1427 8.08696C3.99757 8.15966 3.85253 8.23253 3.7075 8.30543C3.55956 8.37976 3.41155 8.45393 3.26354 8.52811C2.97301 8.67375 2.68257 8.81957 2.39219 8.9655C2.39219 8.98871 2.39219 9.01191 2.39219 9.03582C3.24987 9.46876 4.10795 9.9009 4.96652 10.3321C5.36515 10.5323 5.76364 10.7328 6.16182 10.9339C6.50881 11.1091 6.85604 11.2839 7.20357 11.458C7.38764 11.5503 7.57158 11.6428 7.75523 11.7359C7.928 11.8235 8.1011 11.9104 8.27446 11.9968C8.3381 12.0287 8.40162 12.0608 8.46501 12.0932C8.55146 12.1373 8.63829 12.1805 8.72528 12.2235C8.75038 12.2366 8.77548 12.2496 8.80134 12.2631C8.91361 12.3175 8.98315 12.3439 9.10736 12.3209C9.14206 12.3041 9.17675 12.2874 9.2125 12.2702C9.2544 12.2507 9.2963 12.2311 9.33948 12.211C9.38754 12.1871 9.43552 12.1631 9.48344 12.1389C9.51004 12.1257 9.53663 12.1124 9.56404 12.0987C9.65284 12.0544 9.74155 12.0098 9.83026 11.9653C9.89401 11.9334 9.95777 11.9015 10.0215 11.8697C10.1945 11.7832 10.3673 11.6966 10.5401 11.6099C10.7208 11.5194 10.9016 11.429 11.0823 11.3386C11.4245 11.1673 11.7667 10.996 12.1088 10.8246C12.4983 10.6294 12.8879 10.4345 13.2775 10.2395C14.0788 9.83844 14.8801 9.43719 15.6812 9.03582C15.6812 9.01261 15.6812 8.98941 15.6812 8.9655C15.3644 8.80303 15.0473 8.64131 14.7296 8.48056C14.5821 8.40589 14.4347 8.33097 14.2877 8.25544C14.1457 8.18257 14.0035 8.11038 13.8609 8.03866C13.8066 8.01118 13.7524 7.98346 13.6984 7.95548C13.6226 7.91633 13.5465 7.87808 13.4702 7.84001C13.4479 7.82825 13.4257 7.81649 13.4027 7.80437C13.2999 7.75413 13.2353 7.73235 13.1216 7.75268C12.9638 7.82673 12.8071 7.90207 12.6515 7.98059C12.6159 7.99837 12.5804 8.01616 12.5438 8.03448C12.4267 8.09315 12.3097 8.15202 12.1927 8.21088C12.1113 8.2517 12.0298 8.2925 11.9484 8.33329C11.7561 8.42964 11.5639 8.5261 11.3717 8.62264C11.0069 8.80588 10.6419 8.98892 10.277 9.17185C10.157 9.23202 10.037 9.29229 9.91712 9.35256C9.84387 9.38931 9.77063 9.42604 9.69738 9.46278C9.6639 9.47964 9.63043 9.49649 9.59593 9.51386C9.56533 9.52919 9.53472 9.54452 9.50319 9.56031C9.46331 9.58035 9.46331 9.58035 9.42261 9.60079C9.19555 9.70758 8.92597 9.70927 8.6873 9.6376C8.58387 9.59286 8.48461 9.54354 8.38486 9.49113C8.34719 9.47227 8.30951 9.45341 8.2707 9.43398C8.16868 9.38269 8.06712 9.33063 7.9657 9.27818C7.8591 9.22331 7.75196 9.16951 7.64487 9.1156C7.44265 9.0136 7.24089 8.9107 7.03931 8.80744C6.74276 8.65559 6.44549 8.50515 6.14825 8.35467C6.1044 8.33247 6.06055 8.31027 6.01671 8.28806C5.98461 8.27181 5.98461 8.27181 5.95187 8.25523C5.80418 8.18042 5.6567 8.1052 5.50929 8.02984C5.47034 8.00999 5.4314 7.99014 5.39127 7.96968C5.3183 7.93248 5.24538 7.89517 5.17252 7.85774C5.14055 7.84147 5.10857 7.8252 5.07563 7.80844C5.04777 7.79418 5.01991 7.77992 4.99121 7.76523C4.84867 7.70172 4.74769 7.78305 4.61923 7.84799ZM4.61923 11.9964C4.59522 12.0084 4.57121 12.0204 4.54647 12.0328C4.46689 12.0726 4.38741 12.1126 4.30793 12.1526C4.25286 12.1802 4.19778 12.2078 4.1427 12.2354C3.99757 12.3081 3.85253 12.381 3.7075 12.4539C3.55956 12.5282 3.41155 12.6024 3.26354 12.6765C2.97301 12.8222 2.68257 12.968 2.39219 13.1139C2.39219 13.1371 2.39219 13.1603 2.39219 13.1843C3.24987 13.6172 4.10795 14.0493 4.96652 14.4805C5.36515 14.6807 5.76364 14.8812 6.16182 15.0823C6.50881 15.2576 6.85604 15.4323 7.20357 15.6065C7.38764 15.6987 7.57158 15.7913 7.75523 15.8844C7.928 15.9719 8.1011 16.0589 8.27446 16.1453C8.3381 16.1771 8.40162 16.2093 8.46501 16.2416C8.55146 16.2857 8.63829 16.3289 8.72528 16.3719C8.75038 16.385 8.77548 16.3981 8.80134 16.4115C8.91361 16.466 8.98315 16.4924 9.10736 16.4693C9.14206 16.4526 9.17675 16.4359 9.2125 16.4186C9.2544 16.3991 9.2963 16.3796 9.33948 16.3595C9.38754 16.3356 9.43552 16.3115 9.48344 16.2874C9.51004 16.2741 9.53663 16.2608 9.56404 16.2472C9.65284 16.2028 9.74155 16.1583 9.83026 16.1137C9.89401 16.0819 9.95777 16.05 10.0215 16.0181C10.1945 15.9317 10.3673 15.845 10.5401 15.7584C10.7208 15.6678 10.9016 15.5774 11.0823 15.487C11.4245 15.3158 11.7667 15.1444 12.1088 14.973C12.4983 14.7779 12.8879 14.5829 13.2775 14.3879C14.0788 13.9869 14.8801 13.5856 15.6812 13.1843C15.6812 13.161 15.6812 13.1378 15.6812 13.1139C15.3644 12.9515 15.0473 12.7898 14.7296 12.629C14.5821 12.5543 14.4347 12.4794 14.2877 12.4039C14.1457 12.331 14.0035 12.2588 13.8609 12.1871C13.8066 12.1596 13.7524 12.1319 13.6984 12.1039C13.6226 12.0648 13.5465 12.0265 13.4702 11.9884C13.4479 11.9767 13.4257 11.9649 13.4027 11.9528C13.2999 11.9026 13.2353 11.8808 13.1216 11.9011C12.9638 11.9752 12.8071 12.0505 12.6515 12.129C12.6159 12.1468 12.5804 12.1646 12.5438 12.1829C12.4267 12.2416 12.3097 12.3005 12.1927 12.3593C12.1113 12.4001 12.0298 12.4409 11.9484 12.4817C11.7561 12.5781 11.5639 12.6745 11.3717 12.7711C11.0069 12.9543 10.6419 13.1374 10.277 13.3203C10.157 13.3805 10.037 13.4407 9.91712 13.501C9.84387 13.5377 9.77063 13.5745 9.69738 13.6112C9.6639 13.6281 9.63043 13.6449 9.59593 13.6623C9.56533 13.6776 9.53472 13.693 9.50319 13.7088C9.46331 13.7288 9.46331 13.7288 9.42261 13.7492C9.19555 13.856 8.92597 13.8577 8.6873 13.786C8.58387 13.7413 8.48461 13.692 8.38486 13.6396C8.34719 13.6207 8.30951 13.6018 8.2707 13.5824C8.16868 13.5311 8.06712 13.4791 7.9657 13.4266C7.8591 13.3717 7.75196 13.3179 7.64487 13.264C7.44265 13.162 7.24089 13.0591 7.03931 12.9559C6.74276 12.804 6.44549 12.6536 6.14825 12.5031C6.1044 12.4809 6.06055 12.4587 6.01671 12.4365C5.98461 12.4202 5.98461 12.4202 5.95187 12.4037C5.80418 12.3289 5.6567 12.2536 5.50929 12.1783C5.47034 12.1584 5.4314 12.1386 5.39127 12.1181C5.3183 12.0809 5.24538 12.0436 5.17252 12.0062C5.14055 11.9899 5.10857 11.9736 5.07563 11.9569C5.04777 11.9426 5.01991 11.9284 4.99121 11.9137C4.84867 11.8502 4.74769 11.9315 4.61923 11.9964Z" fill="white"/>
</g>
<defs>
<clipPath id="clip0_170_29382">
<rect width="18" height="18" fill="white"/>
</clipPath>
</defs>
</svg>
