<svg width="22" height="22" viewBox="0 0 22 22" fill="none" xmlns="http://www.w3.org/2000/svg">
<g clip-path="url(#clip0_170_29261)">
<path d="M1.774 10.4413C1.77085 10.3981 1.76771 10.3548 1.76447 10.3103C1.71427 9.50003 1.72718 8.6857 1.72687 7.87431C1.72666 7.68603 1.72588 7.49776 1.72511 7.30948C1.72442 7.12613 1.72408 6.94278 1.72383 6.75943C1.72368 6.6728 1.72343 6.58618 1.72308 6.49955C1.71888 5.34596 1.83412 4.35726 2.66762 3.48873C3.38653 2.78337 4.30632 2.63187 5.26161 2.48439C5.34934 2.47063 5.43707 2.45686 5.52479 2.44307C5.70802 2.41435 5.89129 2.38588 6.07458 2.35758C6.30636 2.32178 6.53803 2.28531 6.76968 2.24867C10.0147 1.73634 10.0147 1.73634 11.0929 2.51724C11.3762 2.73155 11.6425 2.96877 11.9126 3.19929C11.9881 3.26354 12.0637 3.32777 12.1393 3.39199C12.3438 3.56579 12.548 3.73986 12.7522 3.91401C12.8799 4.02298 13.0077 4.13188 13.1355 4.24077C13.4903 4.54298 13.845 4.84526 14.1994 5.14782C14.222 5.16713 14.2447 5.18644 14.268 5.20633C14.3138 5.24546 14.3596 5.2846 14.4055 5.32373C14.4282 5.34315 14.451 5.36257 14.4744 5.38258C14.4972 5.40202 14.52 5.42147 14.5435 5.4415C14.9125 5.7565 15.2819 6.07101 15.6516 6.3853C16.0322 6.70891 16.4124 7.03291 16.7924 7.35732C17.0052 7.53908 17.2183 7.72068 17.4316 7.90184C17.6324 8.0723 17.8327 8.2433 18.0327 8.41467C18.1059 8.47722 18.1792 8.53958 18.2527 8.60175C18.7838 9.05134 19.2378 9.48801 19.5171 10.1399C19.5323 10.1744 19.5475 10.2089 19.5631 10.2444C19.8648 11.0451 19.7851 11.917 19.459 12.6896C19.2546 13.1238 18.9681 13.4813 18.6584 13.8424C18.6142 13.8944 18.5701 13.9464 18.5259 13.9984C18.407 14.1385 18.2876 14.2782 18.1682 14.4179C18.0681 14.535 17.9681 14.6523 17.8682 14.7695C17.6322 15.0465 17.3959 15.3232 17.1594 15.5996C16.9164 15.8838 16.6739 16.1683 16.4317 16.4531C16.2228 16.6987 16.0135 16.944 15.8041 17.1891C15.6794 17.335 15.5548 17.481 15.4305 17.6272C15.3135 17.7649 15.1961 17.9022 15.0784 18.0392C15.0356 18.0892 14.993 18.1392 14.9505 18.1895C14.3042 18.9525 13.5423 19.4774 12.5235 19.5661C11.2765 19.6522 10.4935 19.0807 9.58552 18.3056C9.50996 18.2413 9.43438 18.1771 9.35879 18.1129C9.15433 17.9391 8.95011 17.765 8.74595 17.5909C8.61819 17.4819 8.49038 17.373 8.36256 17.2641C8.00782 16.9619 7.65313 16.6596 7.29868 16.3571C7.27607 16.3378 7.25345 16.3184 7.23014 16.2985C7.1843 16.2594 7.13846 16.2203 7.09262 16.1812C7.05849 16.152 7.05849 16.152 7.02367 16.1223C6.9895 16.0931 6.9895 16.0931 6.95464 16.0634C6.58561 15.7484 6.21615 15.4339 5.84651 15.1196C5.46592 14.796 5.08566 14.472 4.70575 14.1476C4.49287 13.9658 4.27985 13.7842 4.06646 13.603C3.86568 13.4326 3.66538 13.2616 3.46537 13.0902C3.3922 13.0277 3.31889 12.9653 3.2454 12.9031C2.46065 12.2388 1.84668 11.5144 1.774 10.4413ZM3.91471 11.7592C3.94584 11.7861 3.97697 11.8129 4.00905 11.8405C4.1126 11.9295 4.21653 12.0181 4.32047 12.1067C4.39513 12.1707 4.46977 12.2347 4.54439 12.2988C4.72561 12.4543 4.90709 12.6094 5.0887 12.7645C5.23641 12.8905 5.38402 13.0167 5.53157 13.143C5.57419 13.1795 5.61681 13.2159 5.65943 13.2524C5.69126 13.2796 5.69126 13.2796 5.72373 13.3074C6.12433 13.6502 6.52529 13.9926 6.92635 14.3348C7.29266 14.6474 7.65849 14.9605 8.02411 15.2739C8.40023 15.5963 8.77668 15.9183 9.15349 16.2399C9.36476 16.4203 9.57588 16.6007 9.78666 16.7816C9.98489 16.9518 10.1836 17.1213 10.3826 17.2905C10.4554 17.3526 10.5281 17.4148 10.6005 17.4772C11.0973 17.9164 11.0973 17.9164 11.6887 18.2017C11.7324 18.2181 11.7324 18.2181 11.7769 18.2348C12.1445 18.3678 12.6974 18.2963 13.0463 18.1351C13.5566 17.8471 13.9123 17.3905 14.2882 16.9514C14.3295 16.9033 14.3709 16.8551 14.4123 16.8069C14.5468 16.6504 14.681 16.4936 14.8152 16.3368C14.8618 16.2825 14.9083 16.2282 14.9548 16.1739C15.1734 15.9188 15.3918 15.6636 15.6101 15.4083C15.861 15.1149 16.1123 14.8217 16.3639 14.5288C16.5591 14.3014 16.7541 14.0738 16.9488 13.8459C17.0647 13.7102 17.1808 13.5747 17.2972 13.4394C17.4067 13.3122 17.5158 13.1846 17.6246 13.0568C17.6643 13.0102 17.7042 12.9638 17.7442 12.9175C18.1872 12.4049 18.4908 11.8958 18.4448 11.2016C18.3909 10.6044 18.0759 10.1568 17.6245 9.77687C17.5933 9.75003 17.5621 9.7232 17.53 9.69555C17.4264 9.60656 17.3222 9.51817 17.2181 9.42977C17.1433 9.36576 17.0685 9.30172 16.9938 9.23764C16.8123 9.08225 16.6306 8.92726 16.4486 8.77245C16.2365 8.5919 16.0247 8.41092 15.8129 8.22993C15.4348 7.90687 15.0564 7.58423 14.6777 7.26182C14.3109 6.94945 13.9444 6.63673 13.5782 6.32364C13.1787 5.98211 12.7791 5.64079 12.3792 5.2998C12.3365 5.2634 12.2938 5.22699 12.2511 5.19059C12.2301 5.17268 12.2091 5.15477 12.1874 5.13632C12.0399 5.01052 11.8925 4.88458 11.7451 4.75858C11.5466 4.58882 11.3477 4.4194 11.1486 4.25021C11.0757 4.18817 11.0029 4.12602 10.9302 4.06375C10.8308 3.97859 10.731 3.89382 10.6311 3.80915C10.6026 3.7846 10.5741 3.76005 10.5447 3.73475C10.1205 3.37728 9.6986 3.18757 9.14149 3.22942C9.08356 3.23442 9.08356 3.23442 9.02446 3.23953C8.98346 3.24294 8.94247 3.24635 8.90023 3.24987C8.45312 3.28953 8.01105 3.3562 7.56795 3.42674C7.48101 3.44035 7.39407 3.45395 7.30712 3.46753C7.12691 3.49575 6.94675 3.52424 6.76661 3.55291C6.53689 3.58945 6.30707 3.6253 6.0772 3.66096C5.89845 3.68877 5.71976 3.71697 5.54108 3.74527C5.45635 3.75864 5.3716 3.7719 5.28684 3.78502C4.54081 3.90091 3.8826 4.01708 3.38243 4.63602C3.07216 5.0999 3.01412 5.59119 3.0155 6.13658C3.01542 6.18091 3.01534 6.22525 3.01525 6.27093C3.01506 6.41667 3.01525 6.56241 3.0155 6.70814C3.01556 6.81008 3.01561 6.91201 3.01565 7.01395C3.01579 7.22735 3.0162 7.44075 3.01671 7.65416C3.01728 7.89963 3.01724 8.1451 3.0169 8.39057C3.0166 8.62808 3.01696 8.86558 3.01755 9.10309C3.01772 9.2035 3.0177 9.30392 3.01747 9.40433C3.01722 9.54521 3.01771 9.68607 3.01838 9.82695C3.01814 9.86782 3.01791 9.90869 3.01766 9.95079C3.02424 10.7251 3.33461 11.2678 3.91471 11.7592Z" fill="white"/>
<path d="M4.86698 6.13444C5.22156 5.60667 5.7081 5.28115 6.32061 5.12155C6.9302 5.00797 7.55664 5.10457 8.08188 5.44011C8.60113 5.80366 8.92304 6.2522 9.09617 6.8634C9.21337 7.56238 9.09787 8.25605 8.68135 8.84057C8.26498 9.33975 7.67078 9.65701 7.02474 9.72784C6.35445 9.75856 5.74826 9.56068 5.24942 9.10855C4.44394 8.35294 4.2875 7.07471 4.86698 6.13444ZM6.11345 8.13924C6.34287 8.35528 6.58566 8.43164 6.8969 8.4473C7.20378 8.3855 7.46236 8.26768 7.65398 8.01464C7.81451 7.76043 7.88759 7.51018 7.8342 7.21126C7.75147 6.89409 7.57419 6.67784 7.31314 6.48625C7.05173 6.34854 6.76943 6.3704 6.48775 6.42485C6.22423 6.52888 6.0362 6.69256 5.9015 6.94125C5.71292 7.38829 5.78532 7.7874 6.11345 8.13924Z" fill="white"/>
</g>
<defs>
<clipPath id="clip0_170_29261">
<rect width="20" height="20" fill="white" transform="translate(1.57031 21.5078) rotate(-94.5053)"/>
</clipPath>
</defs>
</svg>
