<svg width="22" height="22" viewBox="0 0 22 22" fill="none" xmlns="http://www.w3.org/2000/svg">
<g clip-path="url(#clip0_170_29450)">
<path d="M1.774 10.4433C1.77085 10.4 1.76771 10.3568 1.76447 10.3122C1.71427 9.50198 1.72718 8.68766 1.72687 7.87626C1.72666 7.68798 1.72588 7.49971 1.72511 7.31143C1.72442 7.12808 1.72408 6.94473 1.72383 6.76138C1.72368 6.67476 1.72343 6.58813 1.72308 6.50151C1.71888 5.34792 1.83412 4.35922 2.66762 3.49069C3.38653 2.78532 4.30632 2.63382 5.26161 2.48634C5.34934 2.47258 5.43707 2.45881 5.52479 2.44502C5.70802 2.4163 5.89129 2.38783 6.07458 2.35954C6.30636 2.32373 6.53803 2.28727 6.76968 2.25062C10.0147 1.7383 10.0147 1.7383 11.0929 2.51919C11.3762 2.7335 11.6425 2.97072 11.9126 3.20125C11.9881 3.2655 12.0637 3.32973 12.1393 3.39394C12.3438 3.56774 12.548 3.74181 12.7522 3.91596C12.8799 4.02493 13.0077 4.13383 13.1355 4.24272C13.4903 4.54494 13.845 4.84721 14.1994 5.14978C14.222 5.16908 14.2447 5.18839 14.268 5.20829C14.3138 5.24742 14.3596 5.28655 14.4055 5.32568C14.4282 5.3451 14.451 5.36452 14.4744 5.38453C14.4972 5.40398 14.52 5.42342 14.5435 5.44346C14.9125 5.75846 15.2819 6.07296 15.6516 6.38725C16.0322 6.71086 16.4124 7.03487 16.7924 7.35927C17.0052 7.54104 17.2183 7.72263 17.4316 7.90379C17.6324 8.07425 17.8327 8.24526 18.0327 8.41663C18.1059 8.47917 18.1792 8.54154 18.2527 8.6037C18.7838 9.05329 19.2378 9.48997 19.5171 10.1419C19.5323 10.1763 19.5475 10.2108 19.5631 10.2463C19.8648 11.047 19.7851 11.919 19.459 12.6916C19.2546 13.1258 18.9681 13.4832 18.6584 13.8444C18.6142 13.8964 18.5701 13.9483 18.5259 14.0004C18.407 14.1404 18.2876 14.2802 18.1682 14.4198C18.0681 14.5369 17.9681 14.6542 17.8682 14.7715C17.6322 15.0484 17.3959 15.3251 17.1594 15.6016C16.9164 15.8857 16.6739 16.1703 16.4317 16.4551C16.2228 16.7007 16.0135 16.9459 15.8041 17.191C15.6794 17.3369 15.5548 17.4829 15.4305 17.6292C15.3135 17.7668 15.1961 17.9041 15.0784 18.0411C15.0356 18.0911 14.993 18.1412 14.9505 18.1914C14.3042 18.9545 13.5423 19.4793 12.5235 19.568C11.2765 19.6542 10.4935 19.0827 9.58552 18.3075C9.50996 18.2433 9.43438 18.1791 9.35879 18.1148C9.15433 17.941 8.95011 17.767 8.74595 17.5928C8.61819 17.4839 8.49038 17.375 8.36256 17.2661C8.00782 16.9639 7.65313 16.6616 7.29868 16.359C7.27607 16.3397 7.25345 16.3204 7.23014 16.3005C7.1843 16.2614 7.13846 16.2222 7.09262 16.1831C7.05849 16.154 7.05849 16.154 7.02367 16.1243C6.9895 16.0951 6.9895 16.0951 6.95464 16.0653C6.58561 15.7503 6.21615 15.4358 5.84651 15.1215C5.46592 14.7979 5.08566 14.4739 4.70575 14.1495C4.49287 13.9678 4.27985 13.7862 4.06646 13.605C3.86568 13.4345 3.66538 13.2635 3.46537 13.0922C3.3922 13.0296 3.31889 12.9673 3.2454 12.9051C2.46065 12.2408 1.84668 11.5163 1.774 10.4433ZM3.91471 11.7612C3.94584 11.788 3.97697 11.8148 4.00905 11.8424C4.1126 11.9315 4.21653 12.02 4.32047 12.1086C4.39513 12.1726 4.46977 12.2367 4.54439 12.3008C4.72561 12.4562 4.90709 12.6114 5.0887 12.7664C5.23641 12.8925 5.38402 13.0187 5.53157 13.145C5.57419 13.1814 5.61681 13.2179 5.65943 13.2544C5.69126 13.2816 5.69126 13.2816 5.72373 13.3094C6.12433 13.6522 6.52529 13.9945 6.92635 14.3367C7.29266 14.6493 7.65849 14.9625 8.02411 15.2759C8.40023 15.5983 8.77668 15.9203 9.15349 16.2419C9.36476 16.4222 9.57588 16.6027 9.78666 16.7836C9.98489 16.9537 10.1836 17.1233 10.3826 17.2925C10.4554 17.3545 10.5281 17.4167 10.6005 17.4792C11.0973 17.9184 11.0973 17.9184 11.6887 18.2036C11.7324 18.22 11.7324 18.22 11.7769 18.2368C12.1445 18.3697 12.6974 18.2982 13.0463 18.137C13.5566 17.8491 13.9123 17.3925 14.2882 16.9534C14.3295 16.9052 14.3709 16.8571 14.4123 16.8089C14.5468 16.6523 14.681 16.4956 14.8152 16.3388C14.8618 16.2845 14.9083 16.2301 14.9548 16.1758C15.1734 15.9207 15.3918 15.6655 15.6101 15.4102C15.861 15.1168 16.1123 14.8237 16.3639 14.5308C16.5591 14.3034 16.7541 14.0757 16.9488 13.8478C17.0647 13.7122 17.1808 13.5766 17.2972 13.4413C17.4067 13.3141 17.5158 13.1866 17.6246 13.0587C17.6643 13.0122 17.7042 12.9657 17.7442 12.9194C18.1872 12.4069 18.4908 11.8977 18.4448 11.2035C18.3909 10.6064 18.0759 10.1588 17.6245 9.77882C17.5933 9.75198 17.5621 9.72515 17.53 9.69751C17.4264 9.60851 17.3222 9.52012 17.2181 9.43172C17.1433 9.36772 17.0685 9.30367 16.9938 9.23959C16.8123 9.08421 16.6306 8.92921 16.4486 8.77441C16.2365 8.59385 16.0247 8.41287 15.8129 8.23188C15.4348 7.90882 15.0564 7.58618 14.6777 7.26377C14.3109 6.9514 13.9444 6.63868 13.5782 6.32559C13.1787 5.98406 12.7791 5.64274 12.3792 5.30176C12.3365 5.26535 12.2938 5.22895 12.2511 5.19254C12.2301 5.17463 12.2091 5.15673 12.1874 5.13828C12.0399 5.01247 11.8925 4.88653 11.7451 4.76054C11.5466 4.59077 11.3477 4.42136 11.1486 4.25216C11.0757 4.19012 11.0029 4.12797 10.9302 4.0657C10.8308 3.98054 10.731 3.89578 10.6311 3.8111C10.6026 3.78655 10.5741 3.762 10.5447 3.73671C10.1205 3.37924 9.6986 3.18953 9.14149 3.23138C9.08356 3.23638 9.08356 3.23638 9.02446 3.24148C8.98346 3.24489 8.94247 3.2483 8.90023 3.25182C8.45312 3.29148 8.01105 3.35815 7.56795 3.42869C7.48101 3.44231 7.39407 3.4559 7.30712 3.46948C7.12691 3.49771 6.94675 3.52619 6.76661 3.55486C6.53689 3.5914 6.30707 3.62726 6.0772 3.66292C5.89845 3.69073 5.71976 3.71892 5.54108 3.74722C5.45635 3.7606 5.3716 3.77385 5.28684 3.78698C4.54081 3.90287 3.8826 4.01903 3.38243 4.63798C3.07216 5.10185 3.01412 5.59315 3.0155 6.13853C3.01542 6.18287 3.01534 6.2272 3.01525 6.27288C3.01506 6.41862 3.01525 6.56436 3.0155 6.7101C3.01556 6.81203 3.01561 6.91397 3.01565 7.0159C3.01579 7.22931 3.0162 7.44271 3.01671 7.65611C3.01728 7.90158 3.01724 8.14705 3.0169 8.39253C3.0166 8.63003 3.01696 8.86753 3.01755 9.10504C3.01772 9.20545 3.0177 9.30587 3.01747 9.40628C3.01722 9.54717 3.01771 9.68803 3.01838 9.82891C3.01814 9.86977 3.01791 9.91064 3.01766 9.95275C3.02424 10.727 3.33461 11.2698 3.91471 11.7612Z" fill="white"/>
<path d="M4.86698 6.13639C5.22156 5.60862 5.7081 5.2831 6.32061 5.1235C6.9302 5.00992 7.55664 5.10653 8.08188 5.44207C8.60113 5.80561 8.92304 6.25415 9.09617 6.86536C9.21337 7.56434 9.09787 8.258 8.68135 8.84253C8.26498 9.34171 7.67078 9.65896 7.02474 9.72979C6.35445 9.76051 5.74826 9.56263 5.24942 9.1105C4.44394 8.3549 4.2875 7.07666 4.86698 6.13639ZM6.11345 8.14119C6.34287 8.35723 6.58566 8.4336 6.8969 8.44926C7.20378 8.38745 7.46236 8.26963 7.65398 8.01659C7.81451 7.76238 7.88759 7.51214 7.8342 7.21321C7.75147 6.89605 7.57419 6.6798 7.31314 6.4882C7.05173 6.35049 6.76943 6.37235 6.48775 6.42681C6.22423 6.53083 6.0362 6.69451 5.9015 6.9432C5.71292 7.39024 5.78532 7.78935 6.11345 8.14119Z" fill="white"/>
</g>
<defs>
<clipPath id="clip0_170_29450">
<rect width="20" height="20" fill="white" transform="translate(1.57031 21.5098) rotate(-94.5053)"/>
</clipPath>
</defs>
</svg>
