<svg width="6" height="4" viewBox="0 0 6 4" fill="none" xmlns="http://www.w3.org/2000/svg">
<path d="M4.78125 0.03125C4.9348 0.160781 5.08504 0.29107 5.22665 0.433777C5.25573 0.462982 5.28481 0.492188 5.31477 0.522278C5.34416 0.551987 5.37354 0.581696 5.40381 0.612305C5.43425 0.64292 5.46469 0.673535 5.49605 0.705078C5.57037 0.779859 5.6446 0.85473 5.71875 0.929688C5.55698 1.12258 5.38881 1.30415 5.21035 1.48159C5.17086 1.52108 5.17086 1.52108 5.13058 1.56137C5.04444 1.64748 4.95817 1.73346 4.87189 1.81943C4.81178 1.87946 4.75169 1.9395 4.6916 1.99954C4.5341 2.1569 4.37648 2.31413 4.21884 2.47134C4.05773 2.63206 3.89673 2.79288 3.73572 2.95369C3.42027 3.26871 3.10471 3.58362 2.78906 3.89844C2.6322 3.8356 2.52716 3.72514 2.41068 3.60705C2.38894 3.58532 2.3672 3.5636 2.3448 3.54121C2.27318 3.46953 2.20184 3.39758 2.13049 3.32562C2.08081 3.2758 2.03112 3.22599 1.9814 3.1762C1.85074 3.04524 1.72031 2.91404 1.58993 2.7828C1.4568 2.64886 1.32344 2.51514 1.19009 2.38141C0.928595 2.11907 0.667345 1.85649 0.40625 1.59375C0.535781 1.4402 0.66607 1.28996 0.808777 1.14835C0.852585 1.10473 0.852585 1.10473 0.897278 1.06023C0.926987 1.03084 0.956696 1.00146 0.987305 0.971191C1.01792 0.940752 1.04854 0.910313 1.08008 0.878952C1.15486 0.804627 1.22973 0.730396 1.30469 0.65625C1.49628 0.816926 1.67664 0.983806 1.85263 1.16132C1.87739 1.18613 1.90214 1.21094 1.92765 1.2365C2.00573 1.3148 2.08368 1.39324 2.16162 1.47168C2.21494 1.5252 2.26827 1.5787 2.32161 1.6322C2.45149 1.76251 2.58125 1.89294 2.71094 2.02344C2.8571 1.96251 2.94957 1.87237 3.06063 1.76074C3.07932 1.74206 3.09801 1.72338 3.11727 1.70413C3.17875 1.6426 3.23995 1.58079 3.30115 1.51898C3.34382 1.47616 3.38651 1.43336 3.42922 1.39058C3.54139 1.27811 3.65332 1.16541 3.7652 1.05266C3.87949 0.937574 3.994 0.822709 4.10849 0.707825C4.33296 0.482516 4.55718 0.256961 4.78125 0.03125Z" fill="white"/>
</svg>
