<svg width="18" height="18" viewBox="0 0 18 18" fill="none" xmlns="http://www.w3.org/2000/svg">
<path d="M9.38644 1.28222C10.205 1.98835 10.7369 2.96321 10.8781 4.03857C10.8906 4.22831 10.8931 4.4173 10.8928 4.60742C10.8928 4.64604 10.8928 4.64604 10.8927 4.68544C10.8911 5.11439 10.8541 5.50562 10.7219 5.91357C10.7093 5.95351 10.7093 5.95351 10.6965 5.99425C10.5176 6.54973 10.2461 7.03471 9.86252 7.47607C9.83568 7.50809 9.80884 7.54012 9.78119 7.57311C9.55804 7.83204 9.30876 8.04534 9.0422 8.25732C9.1413 8.30898 9.24059 8.36018 9.34006 8.41113C9.3679 8.4257 9.39575 8.44028 9.42444 8.4553C9.58145 8.53525 9.72204 8.60484 9.90158 8.60888C9.99883 8.56566 9.99883 8.56566 10.0896 8.49413C10.8806 7.95785 11.7853 7.73208 12.7336 7.73486C12.761 7.73488 12.7884 7.7349 12.8166 7.73492C14.1461 7.73965 15.3039 8.24434 16.2688 9.15576C16.2981 9.18254 16.3274 9.20933 16.3576 9.23693C16.6159 9.48163 16.8149 9.75916 17.011 10.0542C17.0355 10.0906 17.0601 10.1271 17.0854 10.1647C17.7619 11.2409 17.948 12.6644 17.6686 13.8973C17.4391 14.8029 16.9872 15.5873 16.3469 16.2651C16.3201 16.2944 16.2933 16.3237 16.2657 16.3539C15.6629 16.9903 14.8404 17.4027 14.0031 17.6323C13.9573 17.6456 13.9114 17.6588 13.8641 17.6724C12.5614 17.9821 11.189 17.6821 10.0578 17.0073C9.75908 16.8148 9.49545 16.5869 9.23752 16.3433C9.19356 16.3031 9.19356 16.3031 9.14871 16.2621C8.51236 15.6592 8.09996 14.8368 7.87033 13.9995C7.85709 13.9536 7.84384 13.9078 7.8302 13.8605C7.53731 12.6282 7.78538 11.2561 8.4172 10.1714C8.54142 9.97202 8.67366 9.7782 8.80783 9.58544C8.7747 9.57487 8.74156 9.56429 8.70743 9.5534C8.5703 9.50624 8.43847 9.45142 8.3049 9.39501C7.09004 8.90282 5.75899 8.94585 4.55046 9.43469C3.30539 9.96669 2.39868 10.9547 1.88137 12.1941C1.64868 12.7804 1.58157 13.3697 1.5422 13.9995C1.11681 13.9995 0.691423 13.9995 0.253141 13.9995C0.218027 12.9285 0.478055 11.9291 0.995329 10.9917C1.01784 10.9501 1.04035 10.9084 1.06354 10.8655C1.3315 10.3871 1.67385 9.98034 2.05002 9.58544C2.07756 9.55538 2.1051 9.52532 2.13348 9.49435C2.64922 8.94914 3.29873 8.58705 3.96408 8.25732C3.92586 8.22519 3.88764 8.19307 3.84826 8.15997C2.92652 7.37845 2.2887 6.43245 2.12814 5.21044C2.11572 5.0207 2.11323 4.83171 2.11349 4.6416C2.11351 4.61585 2.11354 4.5901 2.11356 4.56357C2.11518 4.13462 2.15217 3.74339 2.28439 3.33544C2.29276 3.30882 2.30113 3.28219 2.30976 3.25476C2.48877 2.69898 2.76045 2.21489 3.14377 1.77294C3.18266 1.72559 3.18266 1.72559 3.22235 1.67727C3.85264 0.935132 4.84503 0.368569 5.81941 0.257289C7.16894 0.149895 8.3374 0.408251 9.38644 1.28222ZM4.25552 2.45303C3.6088 3.13642 3.38946 3.9428 3.40515 4.85751C3.43597 5.67685 3.8374 6.40338 4.4255 6.96093C5.05812 7.4988 5.86361 7.79196 6.69586 7.73989C7.57111 7.65375 8.35093 7.27685 8.92273 6.60433C9.5023 5.8488 9.6884 4.99618 9.57781 4.06037C9.45058 3.2955 8.98915 2.59321 8.37814 2.12451C7.06657 1.19202 5.40751 1.35953 4.25552 2.45303ZM10.2922 9.93701C10.2541 9.9715 10.2161 10.006 10.1768 10.0415C9.56211 10.6161 9.08753 11.4641 9.03529 12.3153C9.01197 13.5202 9.25851 14.4871 10.102 15.3868C10.7899 16.0988 11.7347 16.4537 12.7141 16.4995C13.7612 16.5089 14.7071 16.0609 15.4509 15.3423C16.1335 14.6603 16.4715 13.7231 16.4738 12.769C16.4735 11.8445 16.1933 10.9862 15.5656 10.2886C15.5489 10.2699 15.5321 10.2512 15.5148 10.232C14.7908 9.43657 13.8509 9.08583 12.7922 8.99951C11.881 8.99951 10.9652 9.31573 10.2922 9.93701Z" fill="white"/>
</svg>
