<svg width="17" height="17" viewBox="0 0 17 17" fill="none" xmlns="http://www.w3.org/2000/svg">
<g clip-path="url(#clip0_657_45241)">
<path d="M4.87972 -0.00574762C4.90317 -0.00601914 4.92661 -0.00629065 4.95076 -0.0065704C5.02827 -0.00739374 5.10578 -0.00794342 5.18329 -0.00842267C5.20978 -0.00859944 5.23626 -0.0087762 5.26355 -0.00895832C5.40364 -0.00984492 5.54372 -0.0104886 5.68381 -0.010968C5.7998 -0.0114116 5.91576 -0.0123377 6.03173 -0.0136917C6.17179 -0.0153268 6.31182 -0.0161514 6.45188 -0.0163877C6.50525 -0.0166109 6.55861 -0.0171171 6.61197 -0.0179114C6.68662 -0.0189596 6.7612 -0.018964 6.83586 -0.0187176C6.87832 -0.0189861 6.92078 -0.0192546 6.96453 -0.0195312C7.07185 0.000656305 7.07185 0.000656305 7.15314 0.0773524C7.20466 0.166672 7.20466 0.166672 7.20259 0.287033C7.16173 0.434113 7.16173 0.434113 7.07185 0.498703C6.9795 0.511495 6.9795 0.511495 6.86612 0.512005C6.80244 0.51267 6.80244 0.51267 6.73748 0.513348C6.69105 0.513352 6.64462 0.513356 6.59819 0.513359C6.5505 0.51375 6.50281 0.514194 6.45512 0.514688C6.32945 0.515891 6.20378 0.51656 6.0781 0.517064C5.87742 0.517887 5.67675 0.519214 5.47608 0.521111C5.40621 0.52165 5.33635 0.521779 5.26648 0.521875C5.22361 0.522214 5.18074 0.522552 5.13657 0.5229C5.08028 0.523113 5.08028 0.523113 5.02286 0.52333C4.88059 0.534502 4.7359 0.553197 4.62338 0.646042C4.51366 0.797385 4.47789 0.867603 4.47675 1.05344C4.47643 1.09376 4.4761 1.13408 4.47577 1.17562C4.47557 1.22054 4.47538 1.26546 4.47519 1.31038C4.47487 1.3575 4.47454 1.40461 4.47419 1.45173C4.4733 1.57986 4.4726 1.708 4.47194 1.83614C4.47121 1.96997 4.4703 2.1038 4.46941 2.23763C4.46775 2.49115 4.46626 2.74468 4.46483 2.99821C4.46319 3.28679 4.46137 3.57538 4.45953 3.86396C4.45575 4.4577 4.4522 5.05144 4.4488 5.64519C4.4874 5.64285 4.52599 5.64052 4.56575 5.63812C4.61697 5.63506 4.6682 5.63199 4.71942 5.62893C4.75747 5.62663 4.75747 5.62663 4.79629 5.62428C5.76393 5.56669 6.79925 5.61035 7.72262 5.92784C7.86193 5.97405 7.95912 5.98245 8.10115 5.94402C8.15718 5.912 8.2126 5.87887 8.26716 5.84441C8.44526 5.78647 8.63824 5.80372 8.82332 5.8029C8.86167 5.80222 8.90002 5.80153 8.93953 5.80083C9.24385 5.79944 9.48018 5.83744 9.71007 6.0505C9.85361 6.21729 9.91878 6.41365 9.90657 6.63272C9.866 6.87699 9.75447 7.04068 9.56196 7.19328C9.34988 7.33937 9.20536 7.30534 8.93123 7.30534C8.93123 7.61214 8.93123 7.91894 8.93123 8.23503C9.0408 8.23503 9.15037 8.23503 9.26326 8.23503C9.49258 8.29664 9.67491 8.39853 9.80527 8.60273C9.90604 8.80533 9.93242 8.98933 9.87337 9.20856C9.79781 9.40757 9.6746 9.54784 9.49568 9.66276C9.28187 9.74563 9.08314 9.74138 8.85652 9.74162C8.81744 9.74244 8.77837 9.74325 8.7381 9.74409C8.4889 9.74492 8.28951 9.71434 8.06795 9.59636C8.05699 9.5854 8.04603 9.57444 8.03474 9.56316C8.03474 9.82612 8.03474 10.0891 8.03474 10.36C8.10048 10.3162 8.16623 10.2724 8.23396 10.2272C8.40047 10.1717 8.57401 10.1839 8.74842 10.1824C8.79379 10.1818 8.83916 10.1809 8.88451 10.1797C9.17899 10.1714 9.41746 10.1829 9.6617 10.36C9.73653 10.4369 9.73653 10.4369 9.77998 10.5115C9.79509 10.5362 9.8102 10.5609 9.82577 10.5864C9.91223 10.7647 9.92147 10.9505 9.87259 11.1413C9.79065 11.3739 9.67349 11.5162 9.45262 11.6267C9.28317 11.6801 9.10729 11.6585 8.93123 11.655C8.93123 11.8193 8.93123 11.9837 8.93123 12.153C9.00245 12.1496 9.07367 12.1462 9.14705 12.1426C9.36603 12.1426 9.49983 12.1707 9.6617 12.319C9.815 12.4723 9.89721 12.6669 9.90657 12.8835C9.89735 13.0968 9.81711 13.3005 9.6617 13.4479C9.42746 13.6333 9.17325 13.6332 8.88688 13.6263C8.6841 13.6262 8.58046 13.6651 8.4261 13.7966C8.34792 13.8622 8.26498 13.9014 8.17171 13.9418C8.12561 13.9622 8.12561 13.9622 8.07858 13.9831C8.00154 14.0124 8.00154 14.0124 7.93513 14.0124C7.946 14.0425 7.95688 14.0727 7.96808 14.1038C8.01856 14.2805 8.00863 14.4589 8.00569 14.6412C8.00539 14.6765 8.00509 14.7119 8.00478 14.7484C8.004 14.8351 8.00291 14.9218 8.00154 15.0085C8.94186 15.0065 9.88217 15.0039 10.8225 15.0006C11.2591 14.9991 11.6957 14.9978 12.1323 14.997C12.5128 14.9962 12.8932 14.9951 13.2737 14.9936C13.4752 14.9928 13.6768 14.9922 13.8783 14.9919C14.0679 14.9917 14.2575 14.9911 14.4471 14.9901C14.5168 14.9898 14.5864 14.9896 14.656 14.9897C14.751 14.9898 14.846 14.9892 14.9411 14.9885C14.9687 14.9887 14.9962 14.9888 15.0247 14.989C15.1872 14.987 15.2977 14.9645 15.439 14.8757C15.6216 14.6881 15.61 14.4959 15.6103 14.249C15.6105 14.2197 15.6106 14.1903 15.6108 14.1601C15.6112 14.0966 15.6114 14.0331 15.6117 13.9695C15.6121 13.8691 15.6127 13.7686 15.6134 13.6682C15.6155 13.3826 15.6173 13.097 15.6184 12.8115C15.6191 12.6367 15.6202 12.4619 15.6217 12.2871C15.6222 12.2204 15.6225 12.1538 15.6226 12.0872C15.6228 11.9942 15.6235 11.9012 15.6244 11.8082C15.6243 11.7805 15.6242 11.7529 15.6241 11.7244C15.6269 11.5364 15.6269 11.5364 15.6829 11.4663C15.7659 11.4002 15.8321 11.3935 15.9371 11.3893C16.0384 11.4308 16.0882 11.4613 16.1404 11.5582C16.1785 11.6849 16.1788 11.8057 16.1781 11.9367C16.1783 11.9787 16.1783 11.9787 16.1785 12.0216C16.1787 12.1139 16.1786 12.2063 16.1783 12.2987C16.1784 12.3631 16.1784 12.4276 16.1785 12.4921C16.1786 12.6273 16.1785 12.7624 16.1782 12.8976C16.1778 13.0702 16.178 13.2427 16.1784 13.4153C16.1786 13.5485 16.1786 13.6817 16.1784 13.8149C16.1784 13.8785 16.1784 13.9421 16.1786 14.0057C16.1803 14.9124 16.1803 14.9124 15.8703 15.2465C15.6184 15.4878 15.3686 15.5553 15.0249 15.5517C14.9796 15.5518 14.9796 15.5518 14.9333 15.552C14.8329 15.5521 14.7324 15.5516 14.6319 15.551C14.5596 15.551 14.4872 15.551 14.4149 15.5511C14.2191 15.5511 14.0232 15.5505 13.8274 15.5498C13.6225 15.5492 13.4177 15.5491 13.2128 15.549C12.8251 15.5487 12.4374 15.5479 12.0497 15.5469C11.6083 15.5458 11.1668 15.5452 10.7253 15.5447C9.81739 15.5437 8.90946 15.5419 8.00154 15.5397C7.99994 15.5644 7.99833 15.5892 7.99668 15.6147C7.99422 15.6473 7.99176 15.6799 7.98922 15.7135C7.98579 15.7619 7.98579 15.7619 7.98229 15.8113C7.949 16.0348 7.79528 16.2043 7.62476 16.3437C6.89358 16.8358 5.89458 17.0068 5.02986 17.0152C5.00565 17.0155 4.98144 17.0159 4.95649 17.0162C4.86028 17.0145 4.79634 17.0121 4.71754 16.9541C4.6425 16.8445 4.63476 16.7681 4.64802 16.6354C4.72747 16.5304 4.78722 16.4944 4.91365 16.4694C4.96015 16.4641 5.00678 16.4598 5.05346 16.4563C6.2816 16.3642 6.2816 16.3642 7.36147 15.8223C7.43757 15.7323 7.44113 15.6447 7.44033 15.5321C7.44022 15.5054 7.44011 15.4788 7.44 15.4513C7.43973 15.4237 7.43945 15.396 7.43916 15.3675C7.43894 15.3254 7.43894 15.3254 7.43871 15.2825C7.43832 15.2133 7.43772 15.1441 7.43709 15.0749C7.40606 15.0897 7.37502 15.1046 7.34305 15.1199C6.43765 15.5417 5.42174 15.6472 4.4322 15.6456C4.40913 15.6455 4.38606 15.6455 4.36229 15.6455C3.33017 15.6431 2.33868 15.5044 1.39412 15.0749C1.39142 15.171 1.38945 15.2671 1.38789 15.3633C1.38706 15.3904 1.38622 15.4176 1.38536 15.4455C1.38344 15.6041 1.38791 15.7115 1.49373 15.8385C2.051 16.3005 2.95384 16.3983 3.64554 16.4484C3.88268 16.4664 3.88268 16.4664 3.98396 16.5358C4.05308 16.6247 4.05023 16.6725 4.04622 16.7869C4.01716 16.901 4.01716 16.901 3.96126 16.9574C3.71054 17.0984 3.29362 16.9884 3.02107 16.9467C2.98237 16.9408 2.94367 16.935 2.9038 16.9289C2.20501 16.8167 1.37084 16.6399 0.929274 16.0378C0.807409 15.8428 0.824368 15.6065 0.824087 15.3845C0.823977 15.3538 0.823866 15.3231 0.823752 15.2914C0.823585 15.2267 0.823506 15.1619 0.823512 15.0971C0.823439 14.9988 0.822836 14.9004 0.822207 14.802C0.822109 14.7389 0.822043 14.6757 0.822012 14.6125C0.821773 14.5834 0.821535 14.5544 0.821289 14.5244C0.822522 14.1874 0.871836 13.9698 1.10943 13.7234C1.23762 13.609 1.37473 13.5264 1.52693 13.4479C1.56459 13.4274 1.60226 13.4068 1.64107 13.3857C1.72615 13.3483 1.72615 13.3483 1.82576 13.3483C1.8148 13.3154 1.80384 13.2826 1.79255 13.2487C1.78948 13.1917 1.78831 13.1345 1.78826 13.0774C1.78815 13.0425 1.78805 13.0076 1.78794 12.9717C1.78801 12.934 1.78808 12.8963 1.78815 12.8575C1.7881 12.7995 1.7881 12.7995 1.78805 12.7403C1.78803 12.6585 1.78809 12.5766 1.78823 12.4948C1.7884 12.3693 1.78823 12.2438 1.78802 12.1184C1.78804 12.0389 1.78808 11.9595 1.78815 11.8801C1.78808 11.8424 1.78801 11.8048 1.78794 11.766C1.78805 11.7311 1.78815 11.6962 1.78826 11.6602C1.78829 11.6295 1.78831 11.5987 1.78834 11.5671C1.79255 11.4889 1.79255 11.4889 1.82576 11.3893C1.78398 11.3777 1.74221 11.366 1.69917 11.354C1.36482 11.2414 1.07526 11.0343 0.89205 10.7298C0.81456 10.5414 0.824339 10.3374 0.824087 10.1372C0.823977 10.1064 0.823866 10.0756 0.823752 10.0439C0.823585 9.97903 0.823506 9.91412 0.823512 9.84921C0.823439 9.75048 0.822836 9.65176 0.822207 9.55304C0.822109 9.48975 0.822043 9.42645 0.822012 9.36316C0.821773 9.33392 0.821535 9.30469 0.821289 9.27457C0.822382 8.97571 0.871198 8.73829 1.08024 8.51129C1.21709 8.37971 1.36649 8.29322 1.53653 8.21104C1.55801 8.20048 1.57948 8.18993 1.60161 8.17906C1.65412 8.15329 1.70672 8.12773 1.75935 8.10222C1.75931 8.06372 1.75928 8.02523 1.75924 7.98557C1.75936 7.84137 1.76079 7.69721 1.76259 7.55302C1.76319 7.49088 1.76345 7.42873 1.76334 7.36658C1.7629 6.95648 1.77229 6.66613 2.07245 6.3597C2.61413 5.98157 3.23868 5.81757 3.88435 5.71159C3.8844 5.6864 3.88445 5.66121 3.8845 5.63526C3.88573 5.02139 3.88769 4.40753 3.89046 3.79367C3.89178 3.4968 3.89285 3.19994 3.89335 2.90308C3.89378 2.64423 3.89468 2.38539 3.89613 2.12655C3.89688 1.98958 3.8974 1.85262 3.89736 1.71565C3.89734 1.58652 3.89794 1.4574 3.899 1.32828C3.89928 1.28109 3.89934 1.2339 3.89915 1.1867C3.89801 0.855158 3.93819 0.603866 4.12092 0.324387C4.34421 0.110806 4.57154 -0.00264665 4.87972 -0.00574762ZM2.41719 6.79277C2.35273 6.87946 2.34105 6.93502 2.3238 7.03972C2.87194 7.61509 3.93585 7.73996 4.69516 7.77376C4.77639 7.77559 4.85756 7.7765 4.93881 7.77693C4.96862 7.77716 4.99844 7.7774 5.02915 7.77764C5.12485 7.77821 5.22054 7.77843 5.31624 7.77849C5.34894 7.77851 5.38165 7.77853 5.41535 7.77856C5.90769 7.77802 6.38796 7.7656 6.87263 7.67058C6.91804 7.66177 6.91804 7.66177 6.96436 7.65278C7.73321 7.50211 7.73321 7.50211 8.36677 7.07292C8.40738 7.01321 8.40738 7.01321 8.39998 6.94011C8.2923 6.77786 8.17079 6.68989 7.99531 6.606C7.97224 6.59478 7.94917 6.58356 7.9254 6.572C7.66166 6.4489 7.38835 6.37276 7.10505 6.30925C7.08244 6.30417 7.05982 6.29908 7.03652 6.29385C5.78943 6.02425 3.45184 5.85512 2.41719 6.79277ZM8.5992 6.34245C8.61242 6.3597 8.62565 6.37695 8.63927 6.39472C8.65686 6.41788 8.67446 6.44103 8.69258 6.46489C8.72031 6.50103 8.72031 6.50103 8.74861 6.53791C8.79841 6.60808 8.79841 6.60808 8.84199 6.70769C8.89129 6.77945 8.89129 6.77945 8.96456 6.78992C9.10972 6.799 9.17925 6.78642 9.30061 6.70146C9.37048 6.61469 9.37048 6.61469 9.36494 6.52092C9.32033 6.42119 9.29344 6.39488 9.19685 6.34245C9.09419 6.3303 8.99292 6.33308 8.88972 6.33623C8.84786 6.3369 8.84786 6.3369 8.80516 6.33759C8.7365 6.33876 8.66784 6.34055 8.5992 6.34245ZM2.3238 7.73698C2.31701 7.84901 2.31291 7.96099 2.30928 8.07316C2.30733 8.10475 2.30538 8.13634 2.30338 8.16888C2.29714 8.34408 2.29714 8.34408 2.3703 8.4977C2.42961 8.54993 2.48885 8.59229 2.55623 8.63347C2.58593 8.65234 2.61563 8.67122 2.64624 8.69067C3.17257 8.95537 3.73716 9.05159 4.31599 9.13151C4.34054 9.13503 4.36509 9.13856 4.39038 9.14218C4.69624 9.17958 5.00653 9.17282 5.31416 9.17302C5.36079 9.17305 5.36079 9.17305 5.40835 9.17309C6.32844 9.17203 7.65873 9.16259 8.36677 8.46745C8.40663 8.38774 8.40378 8.33817 8.40322 8.2493C8.40311 8.21955 8.40301 8.1898 8.40289 8.15916C8.40262 8.12804 8.40234 8.09692 8.40205 8.06486C8.40183 8.01781 8.40183 8.01781 8.4016 7.96979C8.40121 7.89219 8.40066 7.81459 8.39998 7.73698C8.29528 7.77066 8.19284 7.80657 8.09077 7.84762C7.71542 7.99831 7.33645 8.09484 6.93904 8.16862C6.90945 8.17416 6.87987 8.17969 6.84938 8.18539C5.86785 8.35797 4.76445 8.34523 3.78474 8.16862C3.75615 8.16365 3.72756 8.15867 3.6981 8.15355C3.24187 8.07215 2.80171 7.95484 2.39021 7.73698C2.3683 7.73698 2.34638 7.73698 2.3238 7.73698ZM1.66389 8.76005C1.63453 8.77739 1.60517 8.79472 1.57492 8.81258C1.47375 8.87789 1.47375 8.87789 1.39412 8.9655C1.37911 9.06245 1.37937 9.11031 1.43588 9.19157C2.17821 9.83916 3.4532 9.86918 4.38655 9.87028C4.41409 9.87035 4.44163 9.87042 4.47001 9.87049C5.0103 9.8708 5.54521 9.83851 6.07576 9.72917C6.07576 9.71821 6.07576 9.70726 6.07576 9.69597C6.03703 9.69548 5.9983 9.695 5.9584 9.6945C2.8212 9.65224 2.8212 9.65224 2.04223 8.88431C1.99576 8.83183 1.9503 8.77843 1.9063 8.72387C1.89068 8.70499 1.87506 8.68612 1.85896 8.66667C1.78967 8.66667 1.72107 8.726 1.66389 8.76005ZM8.6324 8.9323C8.56132 8.98482 8.56132 8.98482 8.49129 9.02568C8.46783 9.03959 8.44438 9.0535 8.42021 9.06783C8.40258 9.07789 8.38494 9.08795 8.36677 9.09831C8.423 9.16769 8.45292 9.19544 8.54211 9.21186C8.63726 9.21362 8.7323 9.21477 8.82747 9.21452C8.86047 9.21546 8.89347 9.21641 8.92747 9.21738C9.0887 9.21781 9.17034 9.21758 9.30282 9.11932C9.37067 9.0376 9.37068 9.0376 9.36494 8.94475C9.32174 8.84818 9.28771 8.81998 9.19685 8.76628C9.09281 8.74805 9.09281 8.74805 8.98103 8.74968C8.94371 8.74865 8.90639 8.74762 8.86793 8.74657C8.73409 8.77225 8.70912 8.82318 8.6324 8.9323ZM6.07576 9.66276C6.07576 9.67372 6.07576 9.68468 6.07576 9.69597C6.13054 9.69597 6.18533 9.69597 6.24177 9.69597C6.24177 9.68501 6.24177 9.67405 6.24177 9.66276C6.18699 9.66276 6.1322 9.66276 6.07576 9.66276ZM1.36091 9.79558C1.35822 9.89728 1.35625 9.99891 1.35469 10.1006C1.35385 10.1293 1.35302 10.158 1.35216 10.1876C1.35028 10.3508 1.35397 10.4599 1.46052 10.5925C2.21253 11.3217 3.75062 11.2779 4.71599 11.2648C5.51916 11.2501 6.75735 11.1963 7.37068 10.5925C7.45805 10.4929 7.48256 10.4336 7.48002 10.3014C7.47954 10.2571 7.47954 10.2571 7.47904 10.2119C7.47821 10.1814 7.47738 10.1508 7.47651 10.1193C7.47607 10.0882 7.47562 10.0572 7.47515 10.0251C7.47398 9.9486 7.47234 9.8721 7.47029 9.79558C7.43648 9.81043 7.40266 9.82528 7.36783 9.84058C5.71301 10.5539 3.46166 10.6105 1.7718 9.97197C1.71203 9.94705 1.65253 9.92146 1.59334 9.89519C1.5509 9.87694 1.50845 9.85874 1.46597 9.84058C1.41397 9.81831 1.41397 9.81831 1.36091 9.79558ZM8.33357 10.8249C8.38208 10.9704 8.47373 11.0236 8.59803 11.1084C8.79524 11.2033 9.01546 11.1922 9.22214 11.1288C9.30647 11.093 9.30647 11.093 9.36287 10.9909C9.3561 10.9006 9.34368 10.8438 9.28946 10.7707C9.20767 10.7081 9.15177 10.7124 9.04951 10.712C9.01433 10.7119 8.97915 10.7118 8.9429 10.7116C8.88782 10.7122 8.88782 10.7122 8.83162 10.7128C8.77653 10.7122 8.77653 10.7122 8.72034 10.7116C8.68515 10.7118 8.64997 10.7119 8.61372 10.712C8.56538 10.7122 8.56538 10.7122 8.51606 10.7124C8.42119 10.7271 8.39195 10.7506 8.33357 10.8249ZM7.27107 11.2607C6.42251 11.7081 5.37351 11.7621 4.4322 11.7608C4.40585 11.7608 4.3795 11.7607 4.35235 11.7607C3.67233 11.7593 3.02525 11.6814 2.35701 11.5553C2.32067 11.6853 2.32067 11.6853 2.37322 11.8064C2.47108 11.9014 2.57365 11.9616 2.69526 12.0202C2.73048 12.0373 2.73048 12.0373 2.76641 12.0547C3.5583 12.4262 4.47005 12.4926 5.33284 12.4933C5.35806 12.4934 5.38329 12.4934 5.40927 12.4934C6.36233 12.4921 7.56852 12.4442 8.33565 11.8023C8.40828 11.7301 8.40828 11.7301 8.39401 11.6569C8.30733 11.4394 8.06501 11.3298 7.8625 11.242C7.61579 11.1378 7.50468 11.1284 7.27107 11.2607ZM2.3238 12.4186C2.31897 12.5314 2.31603 12.6441 2.31343 12.7569C2.31204 12.7887 2.31065 12.8206 2.30921 12.8534C2.30472 13.0494 2.30472 13.0494 2.40059 13.2163C2.43003 13.2379 2.45948 13.2596 2.48982 13.2819C2.50818 13.2969 2.52654 13.312 2.54546 13.3274C3.73165 14.1003 5.68864 14.0072 7.01997 13.7364C7.76862 13.5857 7.76862 13.5857 8.36739 13.1451C8.43381 13.0179 8.41683 12.878 8.41035 12.7382C8.4096 12.7074 8.40885 12.6767 8.40808 12.6449C8.40614 12.5695 8.40342 12.4941 8.39998 12.4186C8.36616 12.4335 8.33235 12.4483 8.29751 12.4636C7.36686 12.8648 6.38516 12.9906 5.37642 12.9914C5.35045 12.9914 5.32448 12.9914 5.29773 12.9914C4.29452 12.9901 3.22767 12.8901 2.3238 12.4186ZM8.93123 12.651C8.93123 12.7935 8.93123 12.9359 8.93123 13.0827C9.14211 13.1063 9.14211 13.1063 9.31721 13.0101C9.36884 12.9209 9.36884 12.9209 9.36494 12.8295C9.31659 12.7214 9.27266 12.6961 9.16365 12.651C9.0405 12.6427 9.0405 12.6427 8.93123 12.651ZM1.43588 14.1515C1.37954 14.2326 1.37989 14.2809 1.39412 14.3776C1.94798 14.983 3.11784 15.0691 3.88435 15.1081C4.05591 15.1131 4.22738 15.1146 4.399 15.1143C4.42223 15.1143 4.44546 15.1142 4.4694 15.1142C5.40232 15.1115 6.65696 15.0756 7.39441 14.4272C7.44606 14.3772 7.44606 14.3772 7.44331 14.2884C7.44126 14.263 7.4392 14.2377 7.43709 14.2116C7.35297 14.1695 7.32126 14.1829 7.23009 14.2019C7.20114 14.2076 7.17219 14.2134 7.14237 14.2193C7.11088 14.2257 7.07939 14.232 7.04695 14.2386C5.66087 14.5003 3.6089 14.6068 2.36661 13.8228C2.08154 13.6622 1.64881 13.9658 1.43588 14.1515Z" fill="white"/>
<path d="M5.70079 1.75081C5.74787 1.75052 5.74787 1.75052 5.79591 1.75022C5.83029 1.75035 5.86467 1.75048 5.9001 1.75061C5.9367 1.75048 5.97331 1.75035 6.01102 1.75022C6.13411 1.74988 6.2572 1.75001 6.38029 1.75014C6.46836 1.75 6.55643 1.74983 6.64451 1.74963C6.85916 1.7492 7.07381 1.74914 7.28847 1.74922C7.46291 1.74928 7.63736 1.74922 7.81181 1.74908C7.83662 1.74906 7.86144 1.74904 7.88701 1.74902C7.93742 1.74898 7.98782 1.74894 8.03823 1.7489C8.51112 1.74854 8.984 1.74861 9.45688 1.74881C9.88961 1.74899 10.3223 1.74861 10.7551 1.74798C11.1993 1.74734 11.6435 1.74706 12.0877 1.74719C12.3371 1.74725 12.5866 1.74717 12.836 1.7467C13.0483 1.7463 13.2607 1.74626 13.473 1.74666C13.5814 1.74686 13.6897 1.74684 13.7981 1.74649C13.9155 1.74615 14.0329 1.74641 14.1503 1.74684C14.1846 1.74659 14.2189 1.74635 14.2543 1.74609C14.5456 1.74831 14.5456 1.74831 14.6758 1.85887C14.7265 1.96027 14.7144 2.0663 14.7148 2.17759C14.7151 2.20362 14.7153 2.22965 14.7155 2.25646C14.7162 2.34278 14.7165 2.42909 14.7169 2.51541C14.717 2.54486 14.7171 2.5743 14.7173 2.60464C14.718 2.76044 14.7185 2.91624 14.7188 3.07205C14.7191 3.23313 14.7203 3.3942 14.7216 3.55528C14.7225 3.67901 14.7227 3.80275 14.7229 3.92648C14.723 3.98587 14.7234 4.04526 14.724 4.10464C14.7248 4.18771 14.7248 4.27075 14.7246 4.35382C14.7252 4.39067 14.7252 4.39067 14.7259 4.42827C14.7248 4.52917 14.7175 4.60086 14.664 4.68742C14.5239 4.78333 14.3831 4.76594 14.2172 4.76463C14.1617 4.76498 14.1617 4.76498 14.105 4.76533C13.9805 4.76594 13.8561 4.76559 13.7316 4.76525C13.6426 4.76549 13.5535 4.76577 13.4645 4.76612C13.2474 4.76684 13.0304 4.76684 12.8133 4.76657C12.6369 4.76636 12.4605 4.76639 12.2841 4.76661C12.259 4.76664 12.2339 4.76667 12.2081 4.7667C12.1571 4.76676 12.1061 4.76682 12.0552 4.76688C11.577 4.76743 11.0989 4.76714 10.6207 4.76659C10.1831 4.7661 9.74559 4.76658 9.30802 4.76754C8.85887 4.76852 8.40971 4.76888 7.96055 4.76856C7.90976 4.76853 7.85896 4.7685 7.80817 4.76846C7.77068 4.76844 7.77068 4.76844 7.73243 4.76842C7.55625 4.76834 7.38007 4.76867 7.20389 4.76915C6.98918 4.76974 6.77447 4.76973 6.55976 4.76898C6.45019 4.76861 6.34064 4.76859 6.23107 4.76912C6.11233 4.76965 5.99363 4.76915 5.87489 4.7684C5.8402 4.76879 5.8055 4.76919 5.76975 4.76959C5.61294 4.76756 5.53639 4.76572 5.40727 4.67065C5.32734 4.55498 5.32296 4.45985 5.32578 4.324C5.32565 4.2986 5.32552 4.27321 5.32539 4.24705C5.32516 4.16341 5.32613 4.07983 5.32714 3.99619C5.32728 3.93794 5.32735 3.87968 5.32737 3.82143C5.32758 3.69948 5.32833 3.57755 5.32951 3.45561C5.33102 3.29934 5.3315 3.14308 5.33163 2.98679C5.33177 2.86656 5.33228 2.74633 5.33292 2.6261C5.33321 2.56848 5.33344 2.51085 5.33359 2.45323C5.33389 2.37271 5.33463 2.29222 5.33551 2.21171C5.33553 2.18792 5.33555 2.16413 5.33558 2.13962C5.33738 2.01991 5.33902 1.92351 5.41209 1.82567C5.51124 1.76523 5.58548 1.75093 5.70079 1.75081ZM5.87693 2.29051C5.87693 2.92602 5.87693 3.56153 5.87693 4.21629C8.61619 4.21629 11.3554 4.21629 14.1777 4.21629C14.1777 3.58078 14.1777 2.94528 14.1777 2.29051C11.4385 2.29051 8.6992 2.29051 5.87693 2.29051Z" fill="white"/>
<path d="M8.22875 -0.0128423C8.25913 -0.0130211 8.28951 -0.0131999 8.32082 -0.0133842C8.42305 -0.0138609 8.52528 -0.0136218 8.62752 -0.0133859C8.70065 -0.0135752 8.77378 -0.0138064 8.84692 -0.0140765C9.04594 -0.014674 9.24496 -0.0146327 9.44398 -0.0144436C9.61007 -0.0143412 9.77616 -0.014543 9.94225 -0.0147438C10.3566 -0.0152375 10.771 -0.0151161 11.1854 -0.0147151C11.5449 -0.0143857 11.9045 -0.0148142 12.264 -0.0156094C12.6333 -0.01642 13.0026 -0.0167248 13.3719 -0.0165174C13.5792 -0.0164055 13.7865 -0.0164859 13.9938 -0.017057C14.1889 -0.0175709 14.3839 -0.0174389 14.579 -0.0168144C14.6505 -0.0166921 14.722 -0.0167951 14.7935 -0.0171427C14.8914 -0.0175818 14.9892 -0.0171974 15.087 -0.0166117C15.1292 -0.0170901 15.1292 -0.0170901 15.1722 -0.0175781C15.467 -0.0139614 15.6997 0.102025 15.9131 0.301841C16.1755 0.592739 16.1795 0.994464 16.1782 1.3658C16.1783 1.40513 16.1785 1.44445 16.1786 1.48497C16.1789 1.59325 16.1789 1.70151 16.1787 1.80979C16.1786 1.92689 16.1789 2.04399 16.1792 2.1611C16.1796 2.39012 16.1797 2.61914 16.1796 2.84815C16.1795 3.03428 16.1796 3.2204 16.1797 3.40653C16.1797 3.43306 16.1798 3.45959 16.1798 3.48692C16.1798 3.54082 16.1799 3.59472 16.1799 3.64861C16.1803 4.15341 16.1802 4.65819 16.18 5.16299C16.1798 5.62478 16.1802 6.08657 16.1808 6.54836C16.1815 7.02285 16.1817 7.49733 16.1816 7.97182C16.1816 8.23809 16.1816 8.50436 16.1821 8.77062C16.1825 8.99715 16.1825 9.22368 16.1821 9.45021C16.1819 9.56577 16.1819 9.68132 16.1823 9.79687C16.1827 9.92212 16.1824 10.0474 16.182 10.1726C16.1822 10.2091 16.1825 10.2457 16.1827 10.2833C16.1814 10.4653 16.1765 10.6024 16.0699 10.7578C15.9673 10.8092 15.8842 10.8008 15.7711 10.791C15.6868 10.7256 15.6441 10.6855 15.6217 10.5799C15.6217 10.5506 15.6217 10.5214 15.6217 10.4912C15.6214 10.4573 15.6211 10.4235 15.6207 10.3886C15.6211 10.3514 15.6214 10.3143 15.6217 10.276C15.6215 10.2167 15.6215 10.2167 15.6212 10.1562C15.6208 10.0465 15.6211 9.93678 15.6215 9.82704C15.6219 9.70871 15.6215 9.59038 15.6212 9.47205C15.6208 9.26696 15.6208 9.06187 15.6211 8.85678C15.6216 8.55996 15.6213 8.26315 15.6208 7.96633C15.6199 7.48439 15.6195 7.00246 15.6196 6.52052C15.6196 6.47724 15.6196 6.47724 15.6196 6.4331C15.6196 6.31621 15.6196 6.19932 15.6196 6.08243C15.6196 5.76094 15.6196 5.43944 15.6195 5.11795C15.6195 5.08917 15.6195 5.0604 15.6195 5.03075C15.6193 4.55079 15.6188 4.07083 15.618 3.59087C15.6175 3.29486 15.6174 2.99885 15.6178 2.70283C15.6181 2.49992 15.618 2.29701 15.6176 2.0941C15.6174 1.97705 15.6173 1.86002 15.6177 1.74298C15.6182 1.61599 15.6178 1.48902 15.6174 1.36204C15.6177 1.32518 15.6179 1.28832 15.6182 1.25035C15.6168 1.04272 15.5969 0.885032 15.5055 0.697295C15.3012 0.524137 15.1053 0.526386 14.8476 0.527144C14.8182 0.527097 14.7887 0.52705 14.7583 0.527002C14.6596 0.526881 14.5608 0.526991 14.4621 0.527097C14.3913 0.527051 14.3205 0.526988 14.2497 0.526909C14.0973 0.52676 13.9448 0.526698 13.7924 0.526695C13.5515 0.526657 13.3106 0.526231 13.0696 0.525713C13.029 0.525627 12.9883 0.525542 12.9465 0.525454C12.8634 0.525279 12.7802 0.525104 12.6971 0.524928C12.1362 0.523761 11.5753 0.52288 11.0144 0.522963C10.636 0.523016 10.2577 0.522485 9.87931 0.521279C9.67904 0.520665 9.47877 0.520357 9.27849 0.520764C9.09024 0.521142 8.90202 0.520758 8.71378 0.51978C8.64461 0.519559 8.57543 0.519623 8.50626 0.519989C8.412 0.520447 8.31781 0.519892 8.22355 0.519078C8.19602 0.519455 8.16848 0.519832 8.14012 0.520221C8.01003 0.518028 7.94846 0.510152 7.85061 0.421279C7.78475 0.299508 7.79903 0.23113 7.83556 0.0996393C7.94088 -0.0352338 8.06979 -0.0139525 8.22875 -0.0128423Z" fill="white"/>
<path d="M11.2228 5.79804C11.2605 5.79766 11.2983 5.79727 11.3372 5.79688C11.6445 5.79794 11.872 5.84316 12.1036 6.05576C12.2347 6.19945 12.2791 6.36104 12.2936 6.54926C12.2771 6.79714 12.1839 6.95774 12.0265 7.14653C11.7931 7.33283 11.5286 7.32088 11.2435 7.31916C11.1854 7.32016 11.1854 7.32016 11.126 7.32117C10.861 7.32102 10.5997 7.29871 10.3947 7.11371C10.2075 6.91133 10.1782 6.71944 10.1831 6.44901C10.2028 6.24507 10.2764 6.12719 10.4176 5.98273C10.681 5.80542 10.9127 5.79488 11.2228 5.79804ZM10.7693 6.4027C10.7084 6.50092 10.7054 6.56042 10.7247 6.67377C10.8703 6.81403 11.0297 6.79048 11.2207 6.78999C11.27 6.7914 11.27 6.7914 11.3202 6.79284C11.481 6.79327 11.5618 6.79286 11.6938 6.69479C11.7618 6.61308 11.7618 6.61308 11.7561 6.52021C11.7135 6.42496 11.6765 6.39594 11.588 6.34174C11.467 6.32145 11.3453 6.32635 11.2228 6.32722C11.1896 6.32655 11.1565 6.32589 11.1224 6.32521C10.9342 6.32288 10.9342 6.32288 10.7693 6.4027Z" fill="white"/>
<path d="M11.2228 8.22187C11.2605 8.22149 11.2983 8.2211 11.3372 8.2207C11.6445 8.22177 11.872 8.26699 12.1036 8.47958C12.2347 8.62328 12.2791 8.78487 12.2936 8.97309C12.2765 9.229 12.1778 9.42455 11.9864 9.59565C11.7516 9.74674 11.5133 9.74867 11.2415 9.74506C11.2028 9.74558 11.1642 9.74609 11.1244 9.74662C10.8606 9.74543 10.5986 9.72158 10.3947 9.53754C10.2075 9.33514 10.1782 9.14328 10.1831 8.87283C10.2028 8.6689 10.2764 8.55101 10.4176 8.40656C10.681 8.22924 10.9127 8.21871 11.2228 8.22187ZM10.7693 8.82653C10.7084 8.92475 10.7054 8.98425 10.7247 9.0976C10.8703 9.23786 11.0297 9.21431 11.2207 9.21381C11.27 9.21523 11.27 9.21523 11.3202 9.21667C11.481 9.2171 11.5618 9.21669 11.6938 9.11861C11.7618 9.03691 11.7618 9.03691 11.7561 8.94404C11.7135 8.84879 11.6765 8.81977 11.588 8.76557C11.467 8.74528 11.3453 8.75017 11.2228 8.75105C11.1896 8.75038 11.1565 8.74972 11.1224 8.74903C10.9342 8.74671 10.9342 8.74671 10.7693 8.82653Z" fill="white"/>
<path d="M13.6134 5.79804C13.6512 5.79766 13.6889 5.79727 13.7278 5.79688C14.0351 5.79794 14.2626 5.84316 14.4942 6.05576C14.6254 6.19945 14.6697 6.36104 14.6842 6.54926C14.6671 6.80517 14.5684 7.00073 14.3771 7.17182C14.1422 7.32291 13.9039 7.32484 13.6321 7.32124C13.5935 7.32175 13.5548 7.32226 13.515 7.32279C13.2512 7.3216 12.9893 7.29775 12.7853 7.11372C12.5981 6.91131 12.5688 6.71946 12.5737 6.44901C12.5935 6.24507 12.667 6.12719 12.8082 5.98273C13.0717 5.80542 13.3033 5.79488 13.6134 5.79804ZM13.1154 6.44135C13.0932 6.55756 13.0932 6.55756 13.1154 6.67377C13.259 6.8151 13.4215 6.79048 13.6113 6.78999C13.6606 6.7914 13.6606 6.7914 13.7109 6.79284C13.8716 6.79327 13.9524 6.79286 14.0845 6.69479C14.1525 6.61308 14.1525 6.61308 14.1467 6.52021C14.1041 6.42496 14.0671 6.39588 13.9786 6.34174C13.8976 6.32657 13.8976 6.32657 13.8105 6.32851C13.7786 6.32839 13.7467 6.32826 13.7138 6.32812C13.6807 6.32851 13.6475 6.3289 13.6134 6.32929C13.5637 6.32871 13.5637 6.32871 13.513 6.32812C13.4811 6.32825 13.4492 6.32838 13.4163 6.32851C13.3727 6.32868 13.3727 6.32868 13.3282 6.32885C13.2309 6.34453 13.1852 6.37236 13.1154 6.44135Z" fill="white"/>
<path d="M13.6134 8.22187C13.6512 8.22149 13.6889 8.2211 13.7278 8.2207C14.0351 8.22177 14.2626 8.26699 14.4942 8.47958C14.6254 8.62328 14.6697 8.78487 14.6842 8.97309C14.6671 9.229 14.5684 9.42455 14.3771 9.59565C14.1422 9.74674 13.9039 9.74867 13.6321 9.74506C13.5935 9.74558 13.5548 9.74609 13.515 9.74662C13.2512 9.74543 12.9893 9.72158 12.7853 9.53754C12.5981 9.33514 12.5688 9.14328 12.5737 8.87283C12.5935 8.6689 12.667 8.55101 12.8082 8.40656C13.0717 8.22924 13.3033 8.21871 13.6134 8.22187ZM13.1154 8.86518C13.0932 8.98139 13.0932 8.98139 13.1154 9.0976C13.259 9.23893 13.4215 9.21431 13.6113 9.21381C13.6606 9.21523 13.6606 9.21523 13.7109 9.21667C13.8716 9.2171 13.9524 9.21669 14.0845 9.11861C14.1525 9.03691 14.1525 9.03691 14.1467 8.94404C14.1041 8.84879 14.0671 8.81971 13.9786 8.76557C13.8976 8.7504 13.8976 8.7504 13.8105 8.75234C13.7786 8.75221 13.7467 8.75209 13.7138 8.75195C13.6807 8.75234 13.6475 8.75272 13.6134 8.75312C13.5637 8.75254 13.5637 8.75254 13.513 8.75195C13.4811 8.75208 13.4492 8.75221 13.4163 8.75234C13.3727 8.75251 13.3727 8.75251 13.3282 8.75268C13.2309 8.76836 13.1852 8.79619 13.1154 8.86518Z" fill="white"/>
<path d="M11.1446 10.1795C11.2116 10.1792 11.2786 10.1775 11.3456 10.1758C11.6176 10.1744 11.8285 10.1976 12.0528 10.3597C12.1277 10.4366 12.1277 10.4366 12.1711 10.5112C12.1938 10.5482 12.1938 10.5482 12.2169 10.586C12.3034 10.7644 12.3126 10.9502 12.2637 11.141C12.183 11.3699 12.0678 11.5162 11.8482 11.6232C11.6717 11.6821 11.4829 11.6657 11.2985 11.6651C11.2252 11.665 11.1519 11.6658 11.0786 11.6666C11.0316 11.6667 10.9846 11.6667 10.9375 11.6667C10.8951 11.6668 10.8527 11.6669 10.809 11.667C10.5964 11.6446 10.4636 11.5481 10.3263 11.389C10.1798 11.203 10.1713 11.0385 10.1785 10.804C10.2063 10.595 10.3057 10.4685 10.4591 10.3306C10.6798 10.1743 10.8806 10.1803 11.1446 10.1795ZM10.764 10.7693C10.7028 10.8553 10.7119 10.9215 10.7247 11.0238C10.7862 11.1087 10.8222 11.1227 10.9239 11.1566C11.022 11.164 11.1202 11.1627 11.2186 11.1628C11.2586 11.1634 11.2586 11.1634 11.2994 11.164C11.4419 11.1644 11.5606 11.1628 11.6876 11.0902C11.7632 10.9989 11.7632 10.9989 11.7478 10.9075C11.7178 10.8153 11.6975 10.7833 11.6212 10.7249C11.5362 10.7096 11.5362 10.7096 11.4406 10.7117C11.4055 10.7116 11.3703 10.7114 11.334 10.7113C11.2789 10.7119 11.2789 10.7119 11.2227 10.7125C11.1677 10.7119 11.1677 10.7119 11.1115 10.7113C11.0763 10.7114 11.0411 10.7116 11.0049 10.7117C10.9565 10.7119 10.9565 10.7119 10.9072 10.712C10.8232 10.7186 10.8232 10.7186 10.764 10.7693Z" fill="white"/>
<path d="M11.1386 12.1425C11.1877 12.1421 11.2367 12.1414 11.2857 12.1404C11.7928 12.1303 11.7928 12.1303 12.0199 12.2851C12.1908 12.4522 12.2871 12.6432 12.298 12.8828C12.2887 13.0961 12.2085 13.2998 12.0531 13.4472C11.7867 13.63 11.5342 13.6376 11.2188 13.6319C11.1751 13.6323 11.1313 13.6326 11.0862 13.633C10.8061 13.6309 10.6083 13.6116 10.3921 13.4213C10.3773 13.4024 10.3625 13.3836 10.3473 13.3642C10.3319 13.3454 10.3166 13.3265 10.3008 13.3071C10.2021 13.1638 10.1839 13.0631 10.1833 12.8869C10.1828 12.8473 10.1822 12.8076 10.1816 12.7668C10.2072 12.5195 10.3447 12.3795 10.5299 12.227C10.7068 12.1091 10.9341 12.1436 11.1386 12.1425ZM10.7582 12.7167C10.7117 12.8097 10.7166 12.8796 10.725 12.9824C10.7622 13.0411 10.7622 13.0411 10.8246 13.082C10.9556 13.1042 11.0882 13.0989 11.2209 13.0986C11.2574 13.0995 11.2938 13.1005 11.3314 13.1014C11.5402 13.1066 11.5402 13.1066 11.7127 13.0034C11.7601 12.919 11.7601 12.919 11.7563 12.8288C11.7075 12.7196 11.6643 12.6998 11.555 12.6503C11.4496 12.6368 11.3458 12.6379 11.2396 12.64C11.2117 12.6399 11.1837 12.6397 11.1549 12.6396C11.0102 12.6409 10.8875 12.6441 10.7582 12.7167Z" fill="white"/>
<path d="M13.5347 10.1795C13.6018 10.1792 13.6687 10.1775 13.7358 10.1758C14.0079 10.1744 14.2183 10.1979 14.443 10.3597C14.5178 10.4354 14.5178 10.4354 14.5612 10.5091C14.5839 10.5456 14.5839 10.5456 14.607 10.5828C14.7046 10.793 14.6994 11.0091 14.6235 11.2251C14.5417 11.4157 14.4241 11.5327 14.2383 11.6232C14.0618 11.6821 13.8731 11.6657 13.6886 11.6651C13.6153 11.665 13.542 11.6658 13.4687 11.6666C13.4217 11.6667 13.3747 11.6667 13.3277 11.6667C13.2853 11.6668 13.2428 11.6669 13.1991 11.667C12.9512 11.6409 12.8113 11.5043 12.6583 11.3184C12.5377 11.1375 12.5633 10.8992 12.5836 10.6917C12.659 10.4817 12.8253 10.3205 13.0242 10.2232C13.1898 10.1692 13.3618 10.18 13.5347 10.1795ZM13.1541 10.7693C13.093 10.8553 13.1021 10.9215 13.1148 11.0238C13.1764 11.1087 13.2124 11.1227 13.3141 11.1566C13.4122 11.164 13.5104 11.1627 13.6087 11.1628C13.6487 11.1634 13.6487 11.1634 13.6895 11.164C13.832 11.1644 13.9507 11.1628 14.0777 11.0902C14.1533 10.9989 14.1533 10.9989 14.1379 10.9075C14.1079 10.8153 14.0877 10.7833 14.0113 10.7249C13.9263 10.7096 13.9263 10.7096 13.8308 10.7117C13.7956 10.7116 13.7604 10.7114 13.7242 10.7113C13.6691 10.7119 13.6691 10.7119 13.6129 10.7125C13.5578 10.7119 13.5578 10.7119 13.5016 10.7113C13.4664 10.7114 13.4312 10.7116 13.395 10.7117C13.3466 10.7119 13.3466 10.7119 13.2973 10.712C13.2134 10.7186 13.2134 10.7186 13.1541 10.7693Z" fill="white"/>
<path d="M13.5286 12.1425C13.5776 12.1421 13.6266 12.1414 13.6757 12.1404C14.1828 12.1303 14.1828 12.1303 14.4098 12.2851C14.5809 12.4524 14.6622 12.6289 14.6879 12.8641C14.6623 13.107 14.6043 13.2889 14.4098 13.4472C14.1671 13.6219 13.9851 13.6213 13.6925 13.623C13.6467 13.6234 13.6008 13.6241 13.555 13.6251C13.2478 13.6317 13.0209 13.6315 12.7821 13.4213C12.7673 13.4024 12.7525 13.3836 12.7372 13.3642C12.7219 13.3454 12.7066 13.3265 12.6908 13.3071C12.5486 13.1007 12.5622 12.8952 12.5836 12.6503C12.6339 12.4481 12.7523 12.3403 12.9189 12.223C13.1025 12.1141 13.3219 12.1436 13.5286 12.1425ZM13.1481 12.7167C13.1016 12.8097 13.1065 12.8796 13.1149 12.9824C13.1522 13.0411 13.1522 13.0411 13.2145 13.082C13.3456 13.1042 13.4781 13.0989 13.6109 13.0986C13.6473 13.0995 13.6838 13.1005 13.7213 13.1014C13.9301 13.1066 13.9301 13.1066 14.1027 13.0034C14.15 12.919 14.15 12.919 14.1463 12.8288C14.0974 12.7196 14.0542 12.6998 13.945 12.6503C13.8395 12.6368 13.7357 12.6379 13.6295 12.64C13.6016 12.6399 13.5736 12.6397 13.5448 12.6396C13.4002 12.6409 13.2774 12.6441 13.1481 12.7167Z" fill="white"/>
<path d="M2.40667 4.8973C2.43049 4.89717 2.45431 4.89704 2.47885 4.89691C2.52908 4.89682 2.57932 4.89707 2.62955 4.89762C2.7063 4.89833 2.78296 4.89763 2.85971 4.89678C2.90861 4.89687 2.95751 4.89704 3.0064 4.8973C3.02927 4.89703 3.05213 4.89676 3.07569 4.89648C3.18619 4.89864 3.24569 4.90846 3.33526 4.97518C3.41128 5.08139 3.40539 5.15288 3.3872 5.28017C3.32521 5.3587 3.27695 5.40171 3.18798 5.44619C3.05231 5.45397 2.91658 5.45377 2.7807 5.45416C2.71336 5.45449 2.64605 5.45552 2.57872 5.45656C2.53611 5.45674 2.4935 5.45691 2.4496 5.45708C2.39103 5.45755 2.39103 5.45755 2.33128 5.45802C2.21448 5.44501 2.15248 5.41661 2.05908 5.34658C2.00775 5.24392 2.01613 5.16083 2.02588 5.04775C2.12967 4.90114 2.23826 4.89532 2.40667 4.8973Z" fill="white"/>
<path d="M2.70157 4.109C2.74206 4.10832 2.78255 4.10763 2.82427 4.10693C2.86347 4.10676 2.90268 4.10659 2.94307 4.10641C2.97874 4.1061 3.01441 4.10579 3.05116 4.10547C3.17075 4.11924 3.25047 4.15508 3.35318 4.21691C3.40451 4.31957 3.39613 4.40266 3.38639 4.51574C3.33483 4.58857 3.33483 4.58857 3.25357 4.64855C3.16616 4.66178 3.09287 4.66722 3.00559 4.66619C2.98177 4.66632 2.95795 4.66645 2.93341 4.66658C2.88318 4.66667 2.83295 4.66642 2.78272 4.66587C2.70596 4.66516 2.6293 4.66586 2.55255 4.66671C2.50365 4.66662 2.45475 4.66645 2.40586 4.66619C2.38299 4.66646 2.36013 4.66673 2.33657 4.66701C2.22604 4.66486 2.16652 4.65498 2.07687 4.58831C2.0016 4.48289 2.00926 4.40971 2.02506 4.28332C2.06829 4.20117 2.09349 4.16112 2.18208 4.13095C2.35263 4.10008 2.52879 4.10973 2.70157 4.109Z" fill="white"/>
<path d="M3.19031 3.2738C3.2536 3.28755 3.2536 3.28755 3.33661 3.33943C3.40581 3.45187 3.40495 3.52309 3.38642 3.65278C3.32305 3.74197 3.276 3.77675 3.17475 3.81672C3.05667 3.81953 2.9879 3.78027 2.88837 3.71919C2.841 3.62445 2.84486 3.55867 2.85517 3.45356C2.93844 3.29397 3.01869 3.26163 3.19031 3.2738Z" fill="white"/>
</g>
<defs>
<clipPath id="clip0_657_45241">
<rect width="17" height="17" fill="white"/>
</clipPath>
</defs>
</svg>
