<svg width="17" height="17" viewBox="0 0 17 17" fill="none" xmlns="http://www.w3.org/2000/svg">
<path d="M3.14752 0.522583C3.18632 0.522369 3.22512 0.522155 3.26509 0.521934C3.30758 0.522037 3.35006 0.52214 3.39383 0.522246C3.43953 0.522122 3.48523 0.521969 3.53093 0.52179C3.65648 0.521383 3.78203 0.521392 3.90759 0.521471C4.04301 0.521484 4.17842 0.521118 4.31384 0.520803C4.57915 0.520251 4.84446 0.520069 5.10976 0.520032C5.32541 0.52 5.54106 0.519864 5.75671 0.519653C6.36807 0.519068 6.97943 0.518762 7.59079 0.518812C7.62375 0.518814 7.65671 0.518817 7.69067 0.51882C7.72367 0.518823 7.75667 0.518825 7.79068 0.518828C8.32554 0.518855 8.8604 0.51822 9.39527 0.517283C9.94442 0.51633 10.4936 0.515871 11.0427 0.515928C11.351 0.51595 11.6594 0.515768 11.9677 0.515053C12.2302 0.514449 12.4927 0.514304 12.7552 0.514755C12.8891 0.514972 13.0231 0.514975 13.157 0.514399C13.2796 0.513877 13.4023 0.513972 13.525 0.514551C13.5902 0.514701 13.6555 0.514199 13.7207 0.513672C13.9909 0.515785 14.1756 0.546065 14.3846 0.729177C14.4025 0.750791 14.4203 0.772405 14.4388 0.794675C14.4572 0.816204 14.4756 0.837733 14.4945 0.859914C14.5944 1.00484 14.6173 1.1302 14.6182 1.30462C14.6187 1.36782 14.6187 1.36782 14.6193 1.4323C14.6194 1.47874 14.6195 1.52518 14.6195 1.57162C14.6198 1.62071 14.6202 1.6698 14.6205 1.71889C14.6214 1.85197 14.6219 1.98504 14.6224 2.11811C14.6229 2.25726 14.6238 2.3964 14.6246 2.53555C14.6262 2.79895 14.6274 3.06235 14.6285 3.32575C14.6298 3.62566 14.6314 3.92557 14.6331 4.22548C14.6365 4.84233 14.6395 5.45919 14.6421 6.07605C14.6736 6.07528 14.705 6.07451 14.7374 6.07371C14.7789 6.07311 14.8204 6.07251 14.8632 6.0719C14.9042 6.07113 14.9452 6.07036 14.9875 6.06956C15.1964 6.0809 15.3561 6.15634 15.5013 6.30639C15.6482 6.49283 15.7146 6.65627 15.7192 6.89575C15.7205 6.93354 15.7218 6.97134 15.7232 7.01027C15.6818 7.29657 15.5516 7.47333 15.3288 7.65293C14.9516 7.96129 14.6112 8.24648 14.5564 8.75465C14.5365 9.0348 14.5497 9.31453 14.567 9.59443C14.5732 9.71056 14.575 9.82658 14.5766 9.94285C14.5788 10.0831 14.5832 10.2233 14.5879 10.3635C14.5887 10.3896 14.5894 10.4157 14.5902 10.4425C14.6015 10.7713 14.6417 11.0073 14.8746 11.2557C14.9043 11.2878 14.9341 11.3198 14.9647 11.3528C15.0706 11.4644 15.18 11.5724 15.2895 11.6804C15.3294 11.7201 15.3692 11.7598 15.4091 11.7995C15.5131 11.9031 15.6173 12.0064 15.7217 12.1097C15.8285 12.2155 15.935 12.3215 16.0415 12.4276C16.2499 12.6349 16.4586 12.8419 16.6675 13.0487C16.6112 13.1693 16.5434 13.2461 16.4476 13.3392C16.4204 13.3658 16.3933 13.3923 16.3653 13.4196C16.3445 13.4397 16.3237 13.4597 16.3023 13.4803C16.1755 13.4277 16.0935 13.3474 15.9961 13.2518C15.9793 13.2353 15.9624 13.2189 15.945 13.2019C15.8893 13.1472 15.8338 13.0924 15.7783 13.0374C15.7592 13.0185 15.74 12.9996 15.7202 12.98C15.6184 12.8794 15.5168 12.7786 15.4153 12.6775C15.3323 12.595 15.249 12.5128 15.1653 12.431C14.3007 11.5848 14.3007 11.5848 14.0129 11.0533C13.9619 10.9607 13.9045 10.8725 13.8468 10.7839C13.8193 10.7408 13.8193 10.7408 13.7912 10.6967C13.7734 10.6689 13.7557 10.6411 13.7374 10.6124C13.5716 10.3524 13.4077 10.0915 13.2476 9.828C13.143 9.87427 13.0729 9.92843 12.9929 10.0098C12.9708 10.0321 12.9488 10.0544 12.9261 10.0773C12.9034 10.1005 12.8808 10.1237 12.8575 10.1476C12.8227 10.1828 12.8227 10.1828 12.7873 10.2187C12.7303 10.2764 12.6735 10.3344 12.6168 10.3925C12.6331 10.4201 12.6495 10.4477 12.6664 10.4761C12.6877 10.5122 12.709 10.5483 12.7309 10.5854C12.7521 10.6213 12.7733 10.6571 12.7951 10.694C12.9147 10.9083 12.922 11.1656 12.862 11.4026C12.7684 11.6154 12.5921 11.7364 12.3864 11.8326C11.9472 11.9223 11.621 11.7106 11.2533 11.4902C10.9725 11.3231 10.9725 11.3231 10.6895 11.1594C10.6666 11.1463 10.6437 11.1333 10.6201 11.1198C10.525 11.0736 10.4619 11.0663 10.3589 11.0897C10.2497 11.1704 10.2006 11.2195 10.1722 11.3533C10.2224 11.5993 10.4591 11.7372 10.6515 11.8741C10.7081 11.9149 10.7646 11.9557 10.8211 11.9966C10.8635 12.0271 10.8635 12.0271 10.9067 12.0583C10.985 12.1155 11.0621 12.1739 11.1388 12.2332C11.1621 12.251 11.1853 12.2689 11.2092 12.2873C11.2523 12.3205 11.2952 12.354 11.3379 12.3877C11.7601 12.7114 12.2283 12.7295 12.7436 12.7238C12.7782 12.7244 12.8128 12.7249 12.8484 12.7255C12.8941 12.7254 12.8941 12.7254 12.9408 12.7253C13.2621 12.7988 13.4964 13.0464 13.7199 13.2735C13.7523 13.3059 13.7847 13.3383 13.8172 13.3707C13.9044 13.4579 13.9911 13.5454 14.0779 13.6331C14.1689 13.7249 14.2602 13.8163 14.3516 13.9078C14.5241 14.0808 14.6963 14.2541 14.8684 14.4275C15.0644 14.625 15.2609 14.8222 15.4574 15.0193C15.8612 15.4245 16.2645 15.8302 16.6675 16.2362C16.6112 16.3568 16.5434 16.4336 16.4476 16.5267C16.4204 16.5533 16.3933 16.5798 16.3653 16.6071C16.3445 16.6272 16.3237 16.6472 16.3023 16.6678C16.1822 16.6171 16.1057 16.5457 16.0142 16.4537C15.9836 16.4231 15.9531 16.3925 15.9216 16.361C15.8885 16.3276 15.8555 16.2942 15.8224 16.2608C15.7884 16.2267 15.7543 16.1925 15.7203 16.1584C15.6308 16.0687 15.5416 15.9788 15.4523 15.8889C15.3612 15.797 15.2699 15.7054 15.1786 15.6138C14.9996 15.4341 14.8208 15.2541 14.6421 15.0741C14.638 15.1016 14.6339 15.129 14.6296 15.1573C14.6211 15.2113 14.6211 15.2113 14.6124 15.2663C14.6069 15.302 14.6014 15.3377 14.5957 15.3744C14.5505 15.5962 14.3915 15.7461 14.2105 15.871C14.0927 15.9258 14.0006 15.9457 13.8711 15.9455C13.8366 15.9457 13.8022 15.9458 13.7667 15.9459C13.7291 15.9458 13.6914 15.9456 13.6527 15.9454C13.5925 15.9454 13.5925 15.9454 13.531 15.9455C13.4197 15.9456 13.3084 15.9454 13.1971 15.9451C13.0771 15.9448 12.957 15.9449 12.8369 15.9449C12.6289 15.945 12.4209 15.9448 12.213 15.9444C11.9122 15.9439 11.6115 15.9437 11.3108 15.9436C10.8229 15.9435 10.335 15.943 9.84712 15.9424C9.37318 15.9418 8.89923 15.9413 8.42529 15.941C8.39607 15.941 8.36686 15.941 8.33676 15.941C8.1902 15.9409 8.04365 15.9408 7.89709 15.9407C6.68125 15.94 5.46541 15.9389 4.24957 15.9374C4.24957 16.1127 4.24957 16.288 4.24957 16.4686C4.07425 16.4686 3.89894 16.4686 3.71832 16.4686C3.71445 16.0752 3.71151 15.6818 3.70971 15.2883C3.70885 15.1056 3.70768 14.9228 3.70579 14.7401C3.70397 14.5633 3.70299 14.3866 3.70256 14.2098C3.70226 14.1428 3.70167 14.0758 3.70076 14.0088C3.69143 13.288 3.84396 12.773 4.34438 12.2342C4.61279 11.9252 4.71883 11.5928 4.74346 11.1914C4.77693 10.7935 4.89128 10.5698 5.16589 10.2787C5.27497 10.1618 5.37535 10.0389 5.47523 9.91412C5.51823 9.86065 5.56218 9.80791 5.60752 9.7564C5.72472 9.61775 5.77252 9.51552 5.75888 9.33151C5.73512 9.22511 5.6915 9.16942 5.61089 9.09753C5.51831 9.04393 5.45826 9.03142 5.35149 9.02905C5.10185 9.11226 4.93078 9.34585 4.76149 9.53786C4.67507 9.63573 4.58704 9.73197 4.49859 9.828C4.3628 9.97576 4.22819 10.1245 4.09419 10.2739C3.99126 10.3879 3.88724 10.5009 3.78312 10.6139C3.69661 10.708 3.61221 10.8034 3.52947 10.9009C3.21126 11.2613 3.21126 11.2613 2.98577 11.2931C2.83179 11.2976 2.72285 11.2704 2.58941 11.1893C2.49428 11.0964 2.39521 10.9954 2.38559 10.858C2.38537 10.8309 2.38516 10.8037 2.38494 10.7758C2.38461 10.7447 2.38429 10.7136 2.38395 10.6816C2.38367 10.6302 2.38367 10.6302 2.38337 10.5778C2.38304 10.5419 2.38272 10.5059 2.38238 10.4689C2.38133 10.3496 2.3805 10.2303 2.37968 10.111C2.379 10.0285 2.3783 9.94593 2.37759 9.8634C2.37595 9.66808 2.37444 9.47276 2.37301 9.27744C2.37121 9.0333 2.36919 8.78915 2.36717 8.54501C2.36359 8.10939 2.36022 7.67378 2.35699 7.23816C2.30289 7.2852 2.24902 7.3325 2.19525 7.37992C2.16523 7.40623 2.13521 7.43255 2.10428 7.45966C1.91778 7.64146 1.89179 7.87378 1.88754 8.12589C1.88716 8.18902 1.88695 8.25214 1.88689 8.31527C1.88673 8.35016 1.88656 8.38504 1.88639 8.42097C1.88588 8.53782 1.88561 8.65467 1.88533 8.77151C1.88501 8.85529 1.88468 8.93906 1.88433 9.02283C1.88362 9.20317 1.88301 9.38351 1.88248 9.56385C1.88173 9.8246 1.88079 10.0853 1.87982 10.3461C1.87824 10.7691 1.8768 11.1922 1.87545 11.6152C1.87415 12.0262 1.87277 12.4371 1.8713 12.848C1.87121 12.8733 1.87112 12.8987 1.87103 12.9248C1.87057 13.0519 1.87012 13.179 1.86966 13.3061C1.86588 14.3603 1.86234 15.4144 1.85894 16.4686C1.68363 16.4686 1.50832 16.4686 1.32769 16.4686C1.32466 15.3539 1.32231 14.2392 1.32091 13.1245C1.32074 12.9928 1.32057 12.8611 1.32039 12.7294C1.32036 12.7032 1.32033 12.677 1.32029 12.65C1.31971 12.2258 1.31867 11.8017 1.31744 11.3776C1.3162 10.9422 1.31546 10.5068 1.31519 10.0713C1.31501 9.80281 1.31444 9.53429 1.31336 9.26576C1.31257 9.05961 1.31249 8.85347 1.31267 8.64732C1.31263 8.56293 1.31237 8.47854 1.31186 8.39415C1.3112 8.27867 1.31136 8.16323 1.31172 8.04776C1.31133 8.01458 1.31095 7.98141 1.31055 7.94723C1.31365 7.57861 1.43635 7.2713 1.69292 7.00573C1.81046 6.9003 1.93279 6.80282 2.05816 6.70691C2.08461 6.68611 2.11106 6.6653 2.13831 6.64387C2.31414 6.50769 2.31414 6.50769 2.39019 6.50769C2.39007 6.48004 2.38995 6.45239 2.38982 6.42391C2.38688 5.75077 2.38469 5.07764 2.38331 4.4045C2.38262 4.07897 2.38169 3.75344 2.38017 3.42792C2.37885 3.14415 2.37799 2.86038 2.37769 2.57661C2.37752 2.42639 2.37712 2.27618 2.37615 2.12596C2.37524 1.98447 2.37497 1.84298 2.37517 1.70148C2.37513 1.64965 2.37487 1.59783 2.37436 1.54601C2.37146 1.23667 2.37511 0.998719 2.58824 0.755506C2.60986 0.737615 2.63147 0.719724 2.65374 0.701291C2.67527 0.682887 2.6968 0.664482 2.71898 0.64552C2.85831 0.549517 2.9797 0.522817 3.14752 0.522583ZM2.98785 1.16198C2.93174 1.27611 2.91316 1.36819 2.91327 1.49466C2.91314 1.5276 2.913 1.56055 2.91287 1.5945C2.91306 1.63044 2.91326 1.66639 2.91345 1.70343C2.9134 1.74181 2.91334 1.78019 2.91328 1.81973C2.91319 1.92611 2.9134 2.03249 2.91373 2.13887C2.91402 2.25364 2.91392 2.36841 2.91387 2.48318C2.91384 2.68199 2.91405 2.88079 2.91442 3.07959C2.91496 3.36703 2.91513 3.65447 2.91522 3.9419C2.91536 4.40825 2.9158 4.8746 2.91643 5.34095C2.91704 5.79396 2.91751 6.24697 2.91779 6.69998C2.91781 6.7279 2.91783 6.75582 2.91785 6.7846C2.91793 6.92468 2.91802 7.06477 2.9181 7.20486C2.91879 8.367 2.91996 9.52914 2.92144 10.6913C2.96034 10.6523 2.96034 10.6523 3.00002 10.6126C3.05259 10.5601 3.10529 10.5077 3.15827 10.4556C3.1801 10.4341 3.20193 10.4126 3.22442 10.3904C3.24642 10.3688 3.26842 10.3471 3.29108 10.3249C3.39927 10.211 3.46518 10.1387 3.46495 9.97722C3.46515 9.94722 3.46534 9.91722 3.46555 9.88632C3.46511 9.83711 3.46511 9.83711 3.46467 9.7869C3.46475 9.75203 3.46484 9.71715 3.46493 9.68122C3.46509 9.56362 3.46454 9.44603 3.464 9.32843C3.46397 9.24298 3.46398 9.15752 3.46404 9.07207C3.46409 8.86607 3.46363 8.66007 3.46299 8.45407C3.46227 8.21581 3.46219 7.97756 3.46211 7.7393C3.46159 7.11017 3.4602 6.48105 3.45892 5.85193C3.45686 4.44669 3.45481 3.04145 3.45269 1.59363C6.78363 1.59363 10.1146 1.59363 13.5464 1.59363C13.5464 3.37962 13.5464 5.16562 13.5464 7.00573C13.6231 6.93999 13.6998 6.87425 13.7789 6.80652C13.8218 6.77334 13.8218 6.77334 13.8657 6.73949C13.9876 6.63666 14.0657 6.55608 14.1046 6.39872C14.1151 6.26575 14.1159 6.13462 14.1132 6.00145C14.1133 5.95069 14.1135 5.89994 14.1138 5.84919C14.1143 5.7121 14.113 5.57509 14.1113 5.43802C14.1098 5.29427 14.1099 5.15053 14.1098 5.00678C14.1094 4.76553 14.108 4.52432 14.1057 4.28309C14.1028 3.97369 14.1018 3.66433 14.1014 3.35492C14.101 3.08846 14.0997 2.82201 14.0983 2.55555C14.0979 2.4701 14.0976 2.38464 14.0974 2.29919C14.0969 2.16485 14.0958 2.03052 14.0944 1.89619C14.094 1.84697 14.0937 1.79774 14.0936 1.74851C14.0934 1.6812 14.0926 1.61389 14.0917 1.54659C14.0914 1.50896 14.0911 1.47134 14.0908 1.43257C14.0754 1.31004 14.046 1.23193 13.9781 1.12878C13.8583 1.0677 13.7597 1.05405 13.6263 1.05393C13.589 1.05373 13.5518 1.05354 13.5135 1.05334C13.4524 1.05353 13.4524 1.05353 13.3901 1.05372C13.3467 1.05359 13.3033 1.05347 13.2586 1.05333C13.1382 1.05299 13.0178 1.05307 12.8974 1.05321C12.7676 1.05329 12.6377 1.05299 12.5079 1.05274C12.2535 1.05232 11.9992 1.05226 11.7448 1.05234C11.5381 1.0524 11.3314 1.05234 11.1246 1.0522C11.0952 1.05218 11.0658 1.05216 11.0355 1.05214C10.9758 1.0521 10.916 1.05206 10.8563 1.05202C10.2959 1.05165 9.73553 1.05173 9.17515 1.05193C8.66235 1.0521 8.14956 1.05173 7.63677 1.0511C7.11035 1.05045 6.58394 1.05018 6.05753 1.0503C5.76194 1.05037 5.46635 1.05028 5.17076 1.04981C4.91913 1.04942 4.66751 1.04937 4.41588 1.04977C4.28748 1.04997 4.15909 1.05 4.03069 1.04961C3.89155 1.04918 3.75242 1.04953 3.61327 1.04995C3.5523 1.04958 3.5523 1.04958 3.4901 1.04921C3.22274 1.04678 3.22274 1.04678 2.98785 1.16198ZM3.98394 2.12488C3.98394 4.56829 3.98394 7.01171 3.98394 9.52917C4.0831 9.43001 4.18086 9.33153 4.27654 9.22931C4.29923 9.20512 4.32191 9.18094 4.34528 9.15602C4.38008 9.11885 4.38008 9.11885 4.41558 9.08093C4.55745 8.92937 4.69934 8.77841 4.84722 8.63269C4.87256 8.60735 4.8979 8.58201 4.924 8.55591C4.94249 8.53742 4.96098 8.51893 4.98003 8.49988C4.95881 8.46906 4.93758 8.43824 4.9157 8.40649C4.83522 8.2821 4.80995 8.19853 4.80814 8.05375C4.80772 8.02403 4.80729 7.99432 4.80685 7.96371C4.8066 7.93165 4.80636 7.89958 4.80611 7.86655C4.80584 7.83342 4.80557 7.80029 4.80529 7.76616C4.80484 7.69596 4.80448 7.62577 4.80422 7.55557C4.80365 7.44874 4.80219 7.34194 4.80072 7.23511C4.80039 7.16682 4.80011 7.09854 4.79988 7.03025C4.7993 6.99852 4.79872 6.9668 4.79812 6.93411C4.79888 6.69828 4.84908 6.52135 5.00481 6.34089C5.03261 6.31868 5.03261 6.31868 5.06097 6.29602C5.08864 6.27303 5.08864 6.27303 5.11687 6.24959C5.24961 6.16293 5.37133 6.13397 5.52853 6.12871C5.56245 6.12742 5.59637 6.12614 5.63132 6.12481C5.66635 6.12379 5.70139 6.12276 5.73748 6.1217C5.77316 6.12042 5.80883 6.11913 5.84559 6.11781C5.93336 6.11469 6.02115 6.11193 6.10894 6.10925C6.10894 6.28456 6.10894 6.45988 6.10894 6.6405C5.85577 6.63427 5.85577 6.63427 5.77722 6.63153C5.62108 6.62968 5.51078 6.64853 5.37847 6.74011C5.27641 6.93265 5.30095 7.14973 5.30158 7.36165C5.30169 7.43497 5.30091 7.50823 5.30007 7.58154C5.29999 7.62855 5.29997 7.67557 5.3 7.72258C5.2999 7.765 5.29981 7.80741 5.2997 7.85111C5.31338 7.98109 5.33881 8.05948 5.41167 8.16784C5.59406 8.27863 5.82635 8.24535 6.03322 8.24473C6.10653 8.24463 6.1798 8.24541 6.2531 8.24625C6.30012 8.24632 6.34713 8.24635 6.39415 8.24631C6.43656 8.24641 6.47898 8.24651 6.52267 8.24661C6.65034 8.23318 6.73056 8.20159 6.83941 8.13464C6.92556 7.99803 6.91357 7.84905 6.90997 7.69262C6.9086 7.60839 6.90723 7.52416 6.90582 7.43738C7.08113 7.43738 7.25644 7.43738 7.43707 7.43738C7.43506 7.55918 7.43217 7.68085 7.42876 7.80261C7.42829 7.83681 7.42782 7.87101 7.42734 7.90624C7.41937 8.15657 7.37884 8.34176 7.21307 8.53386C7.19454 8.54867 7.17601 8.56347 7.15691 8.57873C7.12924 8.60172 7.12924 8.60172 7.10101 8.62516C6.97097 8.71006 6.85069 8.74064 6.69661 8.74605C6.66419 8.74733 6.63177 8.74861 6.59836 8.74994C6.54819 8.75148 6.54819 8.75148 6.497 8.75305C6.46291 8.75433 6.42882 8.75562 6.3937 8.75694C6.30985 8.76006 6.22601 8.7629 6.14214 8.7655C6.17812 8.85754 6.21545 8.94504 6.26043 9.0332C6.33389 9.20015 6.3328 9.38258 6.34136 9.56237C6.37663 9.56323 6.4119 9.56409 6.44824 9.56497C6.98587 9.58391 6.98587 9.58391 7.19582 9.78299C7.39214 9.99753 7.41436 10.1848 7.41502 10.4678C7.41535 10.5174 7.41535 10.5174 7.41569 10.5679C7.41602 10.6377 7.41618 10.7075 7.41617 10.7773C7.41631 10.8836 7.41752 10.9898 7.41878 11.096C7.41897 11.164 7.4191 11.232 7.41917 11.3C7.41964 11.3315 7.42012 11.363 7.42061 11.3955C7.41902 11.6302 7.36808 11.8074 7.21307 11.987C7.19454 12.0018 7.17601 12.0166 7.15691 12.0319C7.12924 12.0548 7.12924 12.0548 7.10101 12.0783C6.91598 12.1991 6.74491 12.1951 6.53046 12.1942C6.49735 12.1943 6.46423 12.1944 6.43012 12.1944C6.36018 12.1945 6.29024 12.1944 6.2203 12.1941C6.1137 12.1937 6.00712 12.1941 5.90051 12.1945C5.83242 12.1945 5.76433 12.1944 5.69624 12.1942C5.66455 12.1944 5.63286 12.1945 5.60021 12.1946C5.42478 12.1934 5.27888 12.1765 5.11285 12.119C5.09954 12.1415 5.08622 12.164 5.07251 12.1872C4.96948 12.3559 4.86436 12.508 4.72894 12.6523C4.24852 13.1696 4.24957 13.6521 4.24957 14.3436C7.14222 14.3436 10.0349 14.3436 13.0152 14.3436C13.0152 14.0368 13.0152 13.73 13.0152 13.4139C12.8734 13.2722 12.7793 13.2773 12.5839 13.2765C11.9157 13.2677 11.4623 13.1962 10.9234 12.7831C10.885 12.7544 10.8465 12.7259 10.808 12.6973C10.7131 12.627 10.6189 12.5558 10.525 12.4842C10.3776 12.6043 10.2514 12.7258 10.1305 12.8722C9.3629 13.8013 9.36291 13.8013 8.85144 13.8585C8.55629 13.8804 8.2604 13.8563 7.96832 13.8124C7.89984 13.3569 7.82471 12.8114 8.11063 12.4181C8.39694 12.0685 8.74711 11.7719 9.09722 11.4882C9.08692 11.4627 9.07662 11.4372 9.066 11.4109C9.04224 11.351 9.01995 11.2904 8.99904 11.2294C8.93916 11.1499 8.93916 11.1499 8.85788 11.1431C8.7635 11.1397 8.6707 11.1417 8.57635 11.1457C8.54354 11.1465 8.51073 11.1472 8.47693 11.148C8.39591 11.15 8.31492 11.153 8.23394 11.1561C8.23394 10.9808 8.23394 10.8055 8.23394 10.6249C8.46404 10.6249 8.69414 10.6249 8.93121 10.6249C9.04193 10.4044 9.04193 10.4044 9.13795 10.1799C9.1508 10.1473 9.16366 10.1147 9.17691 10.0811C9.19033 10.0468 9.20375 10.0125 9.21758 9.97715C9.2468 9.90327 9.27603 9.82938 9.30526 9.7555C9.35081 9.63998 9.39628 9.52442 9.44164 9.40883C9.48573 9.29659 9.5301 9.18448 9.57452 9.07237C9.58794 9.03792 9.60136 9.00346 9.61519 8.96797C9.68317 8.79683 9.75482 8.65006 9.86089 8.49988C9.86089 8.47796 9.86089 8.45605 9.86089 8.43347C9.90481 8.41063 9.94921 8.38874 9.99371 8.36706C10.0243 8.34951 10.0549 8.33195 10.0865 8.31387C10.2763 8.23355 10.4812 8.26944 10.6819 8.28224C10.7733 8.28623 10.8647 8.28944 10.9561 8.29274C11.099 8.29807 11.2417 8.30434 11.3844 8.31458C11.5007 8.32284 11.6167 8.32738 11.7333 8.32973C11.7977 8.33195 11.8619 8.33784 11.926 8.3439C12.246 8.34681 12.4601 8.20015 12.6946 7.99349C13.0479 7.64318 13.0938 7.30748 13.0961 6.82628C13.0951 6.6828 13.0908 6.53954 13.0858 6.39615C13.0818 6.26032 13.0816 6.12458 13.0812 5.98868C13.0775 5.59372 13.0678 5.19883 13.0588 4.80395C13.0444 3.91986 13.03 3.03576 13.0152 2.12488C10.0349 2.12488 7.05457 2.12488 3.98394 2.12488ZM14.4761 6.88952C14.4536 6.91328 14.431 6.93703 14.4078 6.96151C14.3524 7.01996 14.2978 7.07895 14.2437 7.13855C14.297 7.25179 14.3568 7.32508 14.4471 7.41247C14.4832 7.44766 14.4832 7.44766 14.52 7.48355C14.5384 7.50118 14.5568 7.51882 14.5757 7.53698C14.7203 7.47045 14.8193 7.37687 14.9327 7.26721C14.9527 7.24915 14.9726 7.23109 14.9932 7.21248C15.0967 7.11204 15.1533 7.04488 15.1563 6.89705C15.1488 6.77515 15.1488 6.77515 15.0904 6.6903C14.8189 6.52743 14.656 6.69104 14.4761 6.88952ZM13.66 7.71387C13.6353 7.73836 13.6106 7.76285 13.5852 7.78808C13.5445 7.82891 13.5445 7.82891 13.5031 7.87056C13.4746 7.89895 13.4461 7.92734 13.4167 7.95659C13.3384 8.03468 13.2602 8.11291 13.1821 8.19122C13.1005 8.273 13.0187 8.35462 12.937 8.43627C12.7997 8.57343 12.6626 8.71072 12.5255 8.8481C12.3668 9.00711 12.208 9.16587 12.049 9.32452C11.9126 9.46054 11.7764 9.59668 11.6404 9.73294C11.559 9.8144 11.4776 9.89582 11.3961 9.97713C11.3052 10.0677 11.2147 10.1586 11.1242 10.2495C11.0969 10.2766 11.0697 10.3037 11.0417 10.3316C11.0172 10.3563 10.9927 10.3809 10.9675 10.4064C10.946 10.4278 10.9245 10.4493 10.9024 10.4715C10.8498 10.522 10.8498 10.522 10.857 10.5917C10.9421 10.6537 10.9421 10.6537 11.0479 10.7141C11.0833 10.7355 11.1188 10.7568 11.1553 10.7788C11.2471 10.8305 11.2471 10.8305 11.3205 10.8172C11.4035 10.785 11.4473 10.7441 11.5101 10.681C11.5337 10.6575 11.5574 10.634 11.5818 10.6098C11.6202 10.5708 11.6202 10.5708 11.6593 10.5311C11.6866 10.5039 11.7138 10.4767 11.7418 10.4486C11.8319 10.3585 11.9216 10.268 12.0113 10.1775C12.0736 10.115 12.136 10.0525 12.1983 9.99009C12.3458 9.84236 12.4929 9.69437 12.64 9.5463C12.8075 9.37772 12.9752 9.20942 13.143 9.04115C13.4881 8.69503 13.8328 8.34854 14.1773 8.00183C14.1245 7.89029 14.066 7.8152 13.9781 7.7279C13.9548 7.70445 13.9315 7.68099 13.9075 7.65683C13.7934 7.55883 13.7531 7.62087 13.66 7.71387ZM10.2432 8.88966C10.188 8.97212 10.1518 9.05224 10.1146 9.14427C10.0999 9.18018 10.0853 9.21609 10.0703 9.25308C10.0548 9.29172 10.0393 9.33035 10.0234 9.37016C10.0073 9.41003 9.99126 9.44991 9.9747 9.49099C9.94077 9.57528 9.907 9.65963 9.87332 9.74402C9.83026 9.85187 9.78671 9.95951 9.74302 10.0671C9.70128 10.1702 9.66004 10.2734 9.61874 10.3766C9.60308 10.4151 9.58741 10.4536 9.57127 10.4933C9.55697 10.5294 9.54267 10.5655 9.52793 10.6027C9.51525 10.6343 9.50258 10.6659 9.48952 10.6985C9.45939 10.8014 9.4529 10.8835 9.46246 10.9901C9.48437 11.012 9.50628 11.0339 9.52886 11.0565C9.82334 10.7628 10.1177 10.469 10.412 10.1751C10.5486 10.0386 10.6853 9.90221 10.822 9.76585C10.9539 9.63438 11.0856 9.50284 11.2173 9.37123C11.2677 9.32091 11.3181 9.27062 11.3685 9.22035C11.4389 9.15022 11.5092 9.07999 11.5794 9.00973C11.6111 8.97824 11.6111 8.97824 11.6434 8.94612C11.7407 8.8682 11.7407 8.8682 11.7867 8.7655C11.6006 8.76386 11.4145 8.76265 11.2284 8.76185C11.1651 8.76152 11.1018 8.76107 11.0385 8.76049C10.9474 8.75968 10.8564 8.75931 10.7653 8.75902C10.7371 8.75867 10.7089 8.75833 10.6799 8.75798C10.4362 8.75532 10.4362 8.75532 10.2432 8.88966ZM13.9541 9.01867C13.917 9.05594 13.8801 9.0933 13.8432 9.13073C13.8243 9.14974 13.8055 9.16874 13.7861 9.18832C13.7393 9.23546 13.6927 9.2827 13.646 9.32995C13.7018 9.4914 13.7899 9.62847 13.8805 9.77197C13.8958 9.79656 13.9111 9.82115 13.9268 9.84648C13.965 9.90738 14.0046 9.96739 14.0445 10.0272C14.0554 10.0272 14.0664 10.0272 14.0777 10.0272C14.0777 9.66564 14.0777 9.30406 14.0777 8.93152C14.0275 8.92768 14.0275 8.92767 13.9541 9.01867ZM5.69137 10.5261C5.62276 10.6213 5.54637 10.7082 5.46978 10.7971C5.31816 10.9772 5.30187 11.1086 5.30493 11.3395C5.31485 11.4539 5.34443 11.5282 5.41167 11.621C5.60461 11.7226 5.82108 11.6985 6.03322 11.6979C6.10653 11.6978 6.1798 11.6985 6.2531 11.6994C6.30012 11.6994 6.34713 11.6995 6.39415 11.6994C6.43656 11.6995 6.47898 11.6996 6.52267 11.6997C6.65265 11.6861 6.73105 11.6606 6.83941 11.5878C6.9502 11.4054 6.91692 11.1731 6.9163 10.9662C6.91619 10.8929 6.91697 10.8196 6.91781 10.7463C6.91789 10.6993 6.91791 10.6523 6.91788 10.6053C6.91798 10.5629 6.91808 10.5205 6.91818 10.4768C6.90475 10.3491 6.87327 10.2688 6.80621 10.16C6.61928 10.0482 6.36005 10.0398 6.14759 10.0706C5.93915 10.1374 5.81193 10.3552 5.69137 10.5261ZM12.1519 10.8241C12.0533 10.9227 11.9547 11.0213 11.8531 11.1229C11.9574 11.2289 11.9574 11.2289 12.0855 11.2889C12.1967 11.2783 12.238 11.2693 12.3179 11.1893C12.3373 11.094 12.3373 11.094 12.3179 10.9901C12.2391 10.8946 12.2391 10.8946 12.1519 10.8241ZM9.5173 11.8511C9.49471 11.8724 9.47211 11.8937 9.44883 11.9157C9.34588 12.0148 9.24321 12.1142 9.14114 12.2142C9.08725 12.2667 9.03295 12.3187 8.97824 12.3703C8.89923 12.4449 8.82162 12.5207 8.74418 12.5968C8.71969 12.6195 8.69521 12.6421 8.66998 12.6654C8.52956 12.807 8.48479 12.8975 8.48428 13.0998C8.48816 13.1603 8.49284 13.2208 8.49957 13.2811C8.74633 13.31 8.74633 13.31 8.97744 13.2373C9.05161 13.1734 9.11771 13.1063 9.18386 13.0342C9.20835 13.0091 9.23285 12.9841 9.25808 12.9582C9.3355 12.8786 9.41141 12.7977 9.48736 12.7167C9.53984 12.6622 9.59241 12.6078 9.64507 12.5535C9.77345 12.4208 9.90061 12.2869 10.0269 12.1522C10.0006 12.1262 9.97419 12.1002 9.94704 12.0734C9.87815 12.0037 9.82492 11.9408 9.77166 11.8596C9.74632 11.8247 9.72098 11.7898 9.69488 11.7538C9.60347 11.7538 9.58312 11.7888 9.5173 11.8511ZM13.5464 13.9784C13.5464 14.2742 13.5464 14.5701 13.5464 14.8749C10.4785 14.8749 7.4105 14.8749 4.24957 14.8749C4.24957 15.0502 4.24957 15.2255 4.24957 15.4061C5.46438 15.4084 6.67919 15.4102 7.89401 15.4112C8.03739 15.4113 8.18078 15.4115 8.32416 15.4116C8.36698 15.4116 8.36698 15.4116 8.41066 15.4117C8.87301 15.4121 9.33536 15.4129 9.79771 15.4138C10.272 15.4147 10.7464 15.4153 11.2207 15.4155C11.5134 15.4156 11.8062 15.4161 12.0989 15.4169C12.2996 15.4174 12.5003 15.4176 12.701 15.4174C12.8168 15.4174 12.9326 15.4175 13.0484 15.418C13.174 15.4185 13.2995 15.4184 13.4251 15.4181C13.48 15.4185 13.48 15.4185 13.5361 15.419C13.7185 15.4179 13.8554 15.4131 14.0113 15.3065C14.1375 15.1038 14.13 14.7925 14.1022 14.5625C14.0316 14.3146 13.7833 14.1232 13.5796 13.9784C13.5687 13.9784 13.5577 13.9784 13.5464 13.9784Z" fill="white"/>
<path d="M5.52912 2.65047C5.58 2.65079 5.58 2.65079 5.6319 2.65112C5.66694 2.65168 5.70197 2.65223 5.73806 2.65281C5.77374 2.65311 5.80941 2.65341 5.84617 2.65371C5.93396 2.65449 6.02174 2.65569 6.10952 2.65696C6.10952 2.83227 6.10952 3.00758 6.10952 3.18821C5.85427 3.20066 5.85427 3.20066 5.77481 3.20408C5.64381 3.2114 5.52697 3.21844 5.41226 3.28782C5.34058 3.42427 5.3373 3.54415 5.33703 3.69663C5.33697 3.71958 5.33691 3.74254 5.33684 3.76619C5.33679 3.81452 5.33692 3.86285 5.33719 3.91119C5.33755 3.98485 5.3372 4.05849 5.33677 4.13216C5.33682 4.17929 5.3369 4.22641 5.33703 4.27353C5.33711 4.31612 5.33718 4.35871 5.33726 4.40259C5.34568 4.51404 5.355 4.58656 5.41226 4.68235C5.54339 4.76073 5.67102 4.75731 5.82107 4.75757C5.84403 4.75764 5.86698 4.7577 5.89063 4.75777C5.93896 4.75781 5.9873 4.75769 6.03563 4.75741C6.1093 4.75706 6.18294 4.75741 6.2566 4.75783C6.30373 4.75779 6.35085 4.7577 6.39798 4.75757C6.46186 4.75746 6.46186 4.75746 6.52703 4.75735C6.63634 4.74909 6.71022 4.73308 6.80679 4.68235C6.88904 4.54636 6.88728 4.39518 6.89395 4.24033C6.90011 4.11398 6.90011 4.11398 6.9064 3.98508C7.08171 3.98508 7.25702 3.98508 7.43765 3.98508C7.44125 4.10685 7.44388 4.22852 7.44595 4.35032C7.44706 4.38451 7.44818 4.41871 7.44932 4.45395C7.45264 4.71427 7.41273 4.89126 7.2396 5.08883C7.21798 5.10672 7.19637 5.12461 7.1741 5.14304C7.15257 5.16145 7.13104 5.17985 7.10886 5.19881C6.92352 5.32652 6.75028 5.32385 6.53222 5.32436C6.49918 5.32458 6.46614 5.3248 6.43211 5.32503C6.36231 5.32537 6.29251 5.32552 6.22271 5.32551C6.11646 5.32566 6.01026 5.32686 5.90401 5.32812C5.83603 5.32832 5.76805 5.32845 5.70006 5.32851C5.66854 5.32899 5.63703 5.32947 5.60456 5.32996C5.36455 5.32832 5.18785 5.2747 5.00578 5.11516C4.98789 5.09354 4.97 5.07193 4.95156 5.04966C4.93316 5.02813 4.91476 5.0066 4.89579 4.98442C4.76809 4.79908 4.77075 4.62584 4.77024 4.40777C4.77002 4.37474 4.7698 4.3417 4.76957 4.30766C4.76924 4.23787 4.76908 4.16807 4.76909 4.09827C4.76895 3.99202 4.76774 3.88582 4.76648 3.77957C4.76629 3.71159 4.76616 3.6436 4.76609 3.57562C4.76538 3.52834 4.76538 3.52834 4.76465 3.48011C4.76628 3.24011 4.8199 3.06341 4.97945 2.88134C5.00106 2.86345 5.02268 2.84556 5.04495 2.82712C5.06648 2.80872 5.08801 2.79031 5.11019 2.77135C5.24642 2.67749 5.36481 2.64864 5.52912 2.65047Z" fill="white"/>
<path d="M8.23438 6.10938C9.54922 6.10938 10.8641 6.10938 12.2188 6.10938C12.2188 6.28469 12.2188 6.46 12.2188 6.64062C10.9039 6.64062 9.58906 6.64062 8.23438 6.64062C8.23438 6.46531 8.23438 6.29 8.23438 6.10938Z" fill="white"/>
<path d="M8.23438 2.65625C9.54922 2.65625 10.8641 2.65625 12.2188 2.65625C12.2188 2.83156 12.2188 3.00688 12.2188 3.1875C10.9039 3.1875 9.58906 3.1875 8.23438 3.1875C8.23438 3.01219 8.23438 2.83688 8.23438 2.65625Z" fill="white"/>
<path d="M8.23438 3.71875C9.28625 3.71875 10.3381 3.71875 11.4219 3.71875C11.4219 3.89406 11.4219 4.06938 11.4219 4.25C10.37 4.25 9.31813 4.25 8.23438 4.25C8.23438 4.07469 8.23438 3.89938 8.23438 3.71875Z" fill="white"/>
<path d="M8.23438 7.17188C9.11094 7.17188 9.9875 7.17188 10.8906 7.17188C10.8906 7.34719 10.8906 7.5225 10.8906 7.70312C10.0141 7.70312 9.1375 7.70312 8.23438 7.70312C8.23438 7.52781 8.23438 7.3525 8.23438 7.17188Z" fill="white"/>
<path d="M6.93945 6.17578C7.06008 6.23209 7.13686 6.29989 7.22998 6.39575C7.25652 6.42289 7.28305 6.45002 7.31039 6.47798C7.33043 6.49878 7.35046 6.51958 7.37109 6.54102C7.32398 6.64818 7.26722 6.7194 7.18437 6.80168C7.15978 6.82627 7.13519 6.85085 7.10986 6.87618C7.08333 6.90237 7.0568 6.92856 7.02946 6.95554C7.00229 6.98262 6.97512 7.0097 6.94712 7.0376C6.86033 7.12402 6.77331 7.2102 6.68628 7.29639C6.62738 7.35495 6.5685 7.41353 6.50963 7.47213C6.36532 7.61571 6.22082 7.7591 6.07617 7.90234C5.95554 7.84604 5.87876 7.77823 5.78564 7.68237C5.75911 7.65524 5.73257 7.6281 5.70523 7.60014C5.6852 7.57934 5.66517 7.55854 5.64453 7.53711C5.69165 7.42995 5.74841 7.35872 5.83125 7.27645C5.85584 7.25186 5.88043 7.22727 5.90577 7.20194C5.9323 7.17576 5.95883 7.14957 5.98616 7.12259C6.01333 7.09551 6.04051 7.06843 6.06851 7.04053C6.1553 6.95411 6.24232 6.86792 6.32935 6.78174C6.38824 6.72317 6.44713 6.66459 6.506 6.606C6.65031 6.46242 6.79481 6.31903 6.93945 6.17578Z" fill="white"/>
<path d="M6.93945 2.72266C7.06008 2.77896 7.13686 2.84677 7.22998 2.94263C7.25652 2.96976 7.28305 2.9969 7.31039 3.02486C7.33043 3.04566 7.35046 3.06646 7.37109 3.08789C7.32398 3.19505 7.26722 3.26628 7.18437 3.34855C7.15978 3.37314 7.13519 3.39773 7.10986 3.42306C7.08333 3.44924 7.0568 3.47543 7.02946 3.50241C7.00229 3.52949 6.97512 3.55657 6.94712 3.58447C6.86033 3.67089 6.77331 3.75708 6.68628 3.84326C6.62738 3.90183 6.5685 3.96041 6.50963 4.019C6.36532 4.16258 6.22082 4.30597 6.07617 4.44922C5.95554 4.39291 5.87876 4.32511 5.78564 4.22925C5.75911 4.20211 5.73257 4.17498 5.70523 4.14702C5.6852 4.12622 5.66517 4.10542 5.64453 4.08398C5.69165 3.97682 5.74841 3.9056 5.83125 3.82332C5.85584 3.79873 5.88043 3.77415 5.90577 3.74882C5.9323 3.72263 5.95883 3.69644 5.98616 3.66946C6.01333 3.64238 6.04051 3.6153 6.06851 3.5874C6.1553 3.50098 6.24232 3.4148 6.32935 3.32861C6.38824 3.27005 6.44713 3.21147 6.506 3.15287C6.65031 3.00929 6.79481 2.8659 6.93945 2.72266Z" fill="white"/>
</svg>
