<svg width="17" height="17" viewBox="0 0 17 17" fill="none" xmlns="http://www.w3.org/2000/svg">
<g clip-path="url(#clip0_657_45269)">
<path d="M7.00818 0.476287C7.06604 0.475298 7.12391 0.475237 7.18177 0.475887C7.21336 0.475596 7.24495 0.475305 7.2775 0.475005C7.38214 0.474273 7.48673 0.474759 7.59136 0.475319C7.66393 0.475208 7.73651 0.475047 7.80908 0.474838C7.96126 0.474593 8.11343 0.47495 8.26561 0.475725C8.4609 0.476671 8.65616 0.476126 8.85146 0.475132C9.00134 0.474532 9.15122 0.474722 9.3011 0.475153C9.37312 0.475264 9.44514 0.475127 9.51715 0.474741C9.61773 0.474321 9.71825 0.474961 9.81883 0.475887C9.84874 0.475551 9.87865 0.475215 9.90947 0.474869C9.98561 0.476171 10.0534 0.478942 10.1273 0.497368C10.2163 0.596418 10.2418 0.697711 10.2656 0.826952C10.2716 0.858526 10.2776 0.8901 10.2837 0.92263C10.2927 0.973168 10.2927 0.973168 10.302 1.02473C10.3084 1.05963 10.3149 1.09454 10.3216 1.1305C10.3353 1.20409 10.3487 1.27771 10.362 1.35136C10.3825 1.46429 10.4034 1.57713 10.4243 1.68996C10.4375 1.7615 10.4507 1.83305 10.4638 1.90461C10.47 1.93844 10.4763 1.97226 10.4827 2.00711C10.4883 2.03848 10.494 2.06984 10.4998 2.10216C10.5048 2.12975 10.5099 2.15734 10.515 2.18577C10.5257 2.25713 10.5257 2.25713 10.5257 2.35674C10.564 2.36291 10.6024 2.36907 10.6419 2.37542C10.829 2.41535 10.9962 2.49577 11.1674 2.57919C11.3036 2.64296 11.378 2.66463 11.5218 2.62237C11.5898 2.58673 11.5898 2.58673 11.6538 2.53988C11.6909 2.51412 11.6909 2.51412 11.7287 2.48785C11.7549 2.46924 11.7811 2.45062 11.8082 2.43145C11.8356 2.41239 11.863 2.39333 11.8912 2.37369C11.9785 2.31295 12.0656 2.25187 12.1526 2.19073C12.2666 2.11086 12.3807 2.03138 12.495 1.95208C12.521 1.93375 12.5469 1.91542 12.5737 1.89654C12.8324 1.71706 12.8324 1.71706 12.9827 1.69268C13.1351 1.76568 13.2443 1.87805 13.3621 1.99603C13.3932 2.02674 13.3932 2.02674 13.4248 2.05808C13.4929 2.12555 13.5608 2.19327 13.6286 2.26102C13.6759 2.30813 13.7233 2.35524 13.7706 2.40233C13.8696 2.50097 13.9685 2.59973 14.0673 2.69858C14.194 2.82527 14.3212 2.9515 14.4484 3.07762C14.5462 3.17469 14.6437 3.27207 14.7412 3.36953C14.7879 3.41621 14.8348 3.46278 14.8818 3.50924C14.9473 3.57417 15.0125 3.6395 15.0775 3.70496C15.097 3.72407 15.1165 3.74319 15.1366 3.76289C15.2361 3.86396 15.3051 3.93753 15.3069 4.08331C15.2661 4.1676 15.2259 4.23874 15.1741 4.31573C15.1611 4.33545 15.1481 4.35518 15.1347 4.3755C15.0925 4.43839 15.0494 4.50058 15.006 4.56268C14.9738 4.60915 14.9416 4.65562 14.9094 4.7021C14.8929 4.72583 14.8764 4.74956 14.8595 4.77401C14.8085 4.84751 14.7579 4.9212 14.7073 4.99497C14.691 5.01885 14.6746 5.04274 14.6577 5.06735C14.6264 5.11309 14.5951 5.15885 14.5638 5.20462C14.5495 5.22544 14.5352 5.24627 14.5204 5.26772C14.5072 5.28722 14.494 5.30672 14.4804 5.3268C14.4437 5.37823 14.4437 5.37823 14.3814 5.44723C14.3365 5.5112 14.3365 5.5112 14.346 5.59781C14.3892 5.7534 14.4498 5.89973 14.5121 6.04852C14.5369 6.10772 14.5615 6.16699 14.5859 6.22633C14.6023 6.26538 14.6023 6.26538 14.619 6.30522C14.6429 6.37432 14.6429 6.37432 14.6429 6.47393C14.6691 6.4774 14.6953 6.48087 14.7223 6.48445C15.0361 6.52748 15.3473 6.58085 15.6585 6.63918C15.7415 6.65464 15.8246 6.66963 15.9076 6.68463C15.961 6.69457 16.0143 6.70453 16.0676 6.71452C16.0922 6.71889 16.1167 6.72325 16.142 6.72774C16.2797 6.75416 16.3917 6.78423 16.5023 6.87237C16.5478 7.00917 16.5404 7.14932 16.5403 7.29194C16.5404 7.33529 16.5404 7.33529 16.5406 7.37951C16.5409 7.47501 16.541 7.5705 16.541 7.666C16.5411 7.73241 16.5413 7.79882 16.5414 7.86523C16.5416 8.00443 16.5416 8.14362 16.5416 8.28281C16.5416 8.46116 16.5421 8.63949 16.5426 8.81784C16.543 8.95499 16.5431 9.09214 16.543 9.22929C16.5431 9.29504 16.5432 9.3608 16.5435 9.42655C16.5438 9.51851 16.5437 9.61045 16.5435 9.70241C16.5437 9.72955 16.5439 9.75668 16.5441 9.78464C16.5433 9.92253 16.541 10.0394 16.469 10.1595C16.4091 10.1951 16.4091 10.1951 16.3366 10.2154C16.2964 10.2269 16.2964 10.2269 16.2554 10.2385C16.115 10.2724 15.9743 10.3013 15.8322 10.3269C15.7857 10.3356 15.7857 10.3356 15.7382 10.3444C15.6732 10.3564 15.6082 10.3683 15.5432 10.3801C15.4434 10.3982 15.3438 10.4167 15.2442 10.4352C15.1808 10.4468 15.1174 10.4585 15.054 10.4701C15.0242 10.4756 14.9945 10.4811 14.9638 10.4868C14.9362 10.4918 14.9086 10.4968 14.8801 10.5019C14.8559 10.5063 14.8316 10.5107 14.8067 10.5153C14.7425 10.5247 14.7425 10.5247 14.6429 10.5247C14.6367 10.5631 14.6305 10.6014 14.6242 10.6409C14.5843 10.828 14.5038 10.9953 14.4204 11.1664C14.3567 11.3026 14.3349 11.377 14.3773 11.5208C14.414 11.5905 14.414 11.5905 14.4621 11.6563C14.4796 11.6816 14.4971 11.7068 14.5151 11.7328C14.534 11.7594 14.5529 11.786 14.5723 11.8134C14.5916 11.8411 14.6109 11.8688 14.6307 11.8973C14.6705 11.9544 14.7104 12.0114 14.7503 12.0683C14.8376 12.1925 14.9239 12.3173 15.0102 12.4422C15.0248 12.4631 15.0394 12.484 15.0545 12.5056C15.0951 12.5642 15.1347 12.6235 15.1741 12.6829C15.188 12.7026 15.2019 12.7222 15.2161 12.7425C15.2792 12.8388 15.3111 12.893 15.2897 13.0083C15.2268 13.1442 15.1432 13.2305 15.0375 13.3348C15.0167 13.3558 14.9959 13.3768 14.9745 13.3985C14.9059 13.4676 14.8369 13.5363 14.7678 13.605C14.7199 13.653 14.672 13.701 14.6241 13.749C14.5238 13.8495 14.4233 13.9498 14.3226 14.0498C14.1935 14.1782 14.065 14.3071 13.9367 14.4362C13.838 14.5354 13.7389 14.6343 13.6398 14.7331C13.5923 14.7805 13.5448 14.828 13.4975 14.8756C13.4314 14.9421 13.3649 15.0081 13.2982 15.074C13.2788 15.0938 13.2593 15.1135 13.2392 15.1339C13.1373 15.2337 13.063 15.3037 12.9163 15.306C12.8309 15.266 12.7614 15.2256 12.6839 15.1732C12.6564 15.1546 12.629 15.1361 12.6007 15.1171C12.5048 15.0514 12.4096 14.9847 12.3145 14.9179C12.2807 14.8943 12.2468 14.8708 12.2119 14.8465C12.0672 14.7457 11.9229 14.6447 11.7813 14.5394C11.7619 14.5252 11.7424 14.511 11.7224 14.4963C11.6731 14.4602 11.6244 14.4234 11.5756 14.3865C11.459 14.3283 11.4143 14.3395 11.2894 14.3763C11.1753 14.4182 11.0632 14.4642 10.9511 14.5112C10.8919 14.5359 10.8326 14.5605 10.7733 14.585C10.7342 14.6013 10.7342 14.6013 10.6944 14.618C10.6253 14.6419 10.6253 14.6419 10.5257 14.6419C10.5222 14.6681 10.5188 14.6943 10.5152 14.7213C10.4721 15.0351 10.4188 15.3463 10.3604 15.6576C10.345 15.7405 10.33 15.8236 10.315 15.9067C10.3051 15.96 10.2951 16.0133 10.2851 16.0667C10.2786 16.1035 10.2786 16.1035 10.2719 16.1411C10.245 16.2811 10.2218 16.3933 10.1273 16.5013C10.025 16.527 9.92382 16.5239 9.81883 16.5228C9.77144 16.5232 9.77144 16.5232 9.72309 16.5236C9.61846 16.5244 9.51387 16.5239 9.40923 16.5233C9.33666 16.5234 9.26409 16.5236 9.19152 16.5238C9.03934 16.524 8.88717 16.5237 8.73499 16.5229C8.53969 16.522 8.34443 16.5225 8.14913 16.5235C7.99925 16.5241 7.84938 16.5239 7.69949 16.5235C7.62748 16.5234 7.55546 16.5235 7.48344 16.5239C7.38286 16.5243 7.28235 16.5237 7.18177 16.5228C7.1369 16.5233 7.1369 16.5233 7.09113 16.5238C7.01499 16.5225 6.94722 16.5197 6.87334 16.5013C6.78427 16.4022 6.75878 16.3009 6.735 16.1717C6.72902 16.1401 6.72305 16.1085 6.71689 16.076C6.71087 16.0423 6.70484 16.0086 6.69864 15.9739C6.6889 15.9216 6.6889 15.9216 6.67897 15.8681C6.66534 15.7946 6.65187 15.7209 6.63855 15.6473C6.61812 15.5344 6.59724 15.4215 6.57627 15.3087C6.56308 15.2371 6.54991 15.1656 6.53677 15.094C6.53055 15.0602 6.52433 15.0264 6.51791 14.9915C6.51225 14.9602 6.50659 14.9288 6.50076 14.8965C6.49575 14.8689 6.49074 14.8413 6.48558 14.8129C6.47491 14.7415 6.47491 14.7415 6.47491 14.6419C6.43656 14.6357 6.39821 14.6296 6.3587 14.6232C6.17158 14.5833 6.00435 14.5029 5.83322 14.4195C5.69701 14.3557 5.62259 14.334 5.47881 14.3763C5.41077 14.4119 5.41077 14.4119 5.34678 14.4588C5.32206 14.4759 5.29733 14.4931 5.27186 14.5108C5.24565 14.5294 5.21944 14.548 5.19244 14.5672C5.13641 14.6063 5.08038 14.6454 5.02435 14.6844C4.98107 14.7148 4.98107 14.7148 4.93693 14.7458C4.79054 14.848 4.64278 14.9482 4.49517 15.0486C4.44214 15.0847 4.38913 15.1209 4.33616 15.1571C4.3028 15.1798 4.3028 15.1798 4.26876 15.203C4.21816 15.2366 4.21816 15.2366 4.18389 15.2728C3.96357 15.2992 3.96357 15.2992 3.85898 15.2381C3.79822 15.1863 3.74286 15.1317 3.68747 15.0742C3.66611 15.0531 3.64476 15.032 3.62275 15.0103C3.55254 14.9406 3.48334 14.8699 3.41412 14.7992C3.3655 14.7504 3.31683 14.7017 3.26811 14.653C3.16625 14.551 3.06485 14.4485 2.96378 14.3456C2.8342 14.2138 2.70376 14.0828 2.573 13.9522C2.47249 13.8516 2.37234 13.7507 2.2723 13.6497C2.22431 13.6013 2.17624 13.553 2.12809 13.5047C2.06091 13.4373 1.99419 13.3694 1.92758 13.3014C1.90762 13.2815 1.88767 13.2616 1.86711 13.2411C1.695 13.0636 1.695 13.0636 1.69366 12.9153C1.73447 12.831 1.77473 12.7599 1.82647 12.6829C1.83949 12.6632 1.8525 12.6435 1.86591 12.6231C1.90812 12.5603 1.95121 12.4981 1.99456 12.436C2.02677 12.3895 2.05898 12.343 2.09119 12.2965C2.10767 12.2728 2.12415 12.2491 2.14114 12.2246C2.19207 12.1511 2.24271 12.0774 2.29326 12.0037C2.30963 11.9798 2.326 11.9559 2.34286 11.9313C2.3742 11.8855 2.40553 11.8398 2.43684 11.794C2.45114 11.7732 2.46543 11.7524 2.48016 11.7309C2.49338 11.7114 2.50661 11.6919 2.52023 11.6718C2.55694 11.6204 2.55694 11.6204 2.61919 11.5514C2.66413 11.4874 2.66413 11.4874 2.6546 11.4008C2.61135 11.2452 2.55084 11.0989 2.48846 10.9501C2.4637 10.8909 2.43909 10.8316 2.41466 10.7723C2.40374 10.7463 2.39282 10.7202 2.38158 10.6934C2.35772 10.6243 2.35772 10.6243 2.35772 10.5247C2.3184 10.5195 2.3184 10.5195 2.27829 10.5142C1.96449 10.4712 1.65333 10.4178 1.34205 10.3595C1.25907 10.344 1.17602 10.329 1.09295 10.314C1.03962 10.3041 0.986291 10.2941 0.932969 10.2841C0.896133 10.2776 0.896133 10.2776 0.858553 10.2709C0.718545 10.244 0.6063 10.2209 0.498345 10.1263C0.472589 10.024 0.475684 9.92284 0.476863 9.81785C0.476572 9.78626 0.476282 9.75467 0.475982 9.72212C0.47525 9.61748 0.475735 9.51289 0.476296 9.40826C0.476184 9.33568 0.476023 9.26311 0.475815 9.19054C0.47557 9.03836 0.475926 8.88619 0.476701 8.73401C0.477647 8.53872 0.477102 8.34346 0.476108 8.14816C0.475509 7.99828 0.475699 7.8484 0.476129 7.69852C0.47624 7.6265 0.476104 7.55448 0.475718 7.48247C0.475297 7.38189 0.475937 7.28137 0.476863 7.18079C0.476359 7.13593 0.476359 7.13593 0.475845 7.09015C0.477147 7.01401 0.479919 6.94625 0.498345 6.87237C0.597395 6.7833 0.698688 6.7578 0.827928 6.73402C0.859502 6.72804 0.891076 6.72207 0.923607 6.71591C0.974145 6.70688 0.974145 6.70688 1.0257 6.69766C1.06061 6.69117 1.09551 6.68468 1.13147 6.67799C1.20507 6.66436 1.27869 6.65089 1.35234 6.63757C1.46527 6.61714 1.5781 6.59626 1.69093 6.57529C1.76248 6.5621 1.83403 6.54894 1.90559 6.5358C1.93941 6.52957 1.97324 6.52335 2.00809 6.51694C2.03946 6.51128 2.07082 6.50561 2.10314 6.49978C2.13073 6.49477 2.15832 6.48977 2.18674 6.48461C2.25811 6.47393 2.25811 6.47393 2.35772 6.47393C2.36696 6.41641 2.36696 6.41641 2.3764 6.35772C2.41632 6.1706 2.49675 6.00338 2.58016 5.83224C2.64397 5.69594 2.66658 5.62155 2.62334 5.47784C2.58016 5.3984 2.58016 5.3984 2.52399 5.32051C2.50348 5.29079 2.48296 5.26106 2.46183 5.23044C2.42878 5.18341 2.42878 5.18341 2.39507 5.13543C2.37272 5.10309 2.35037 5.07076 2.32735 5.03744C2.2234 4.8872 2.11849 4.73765 2.01337 4.58823C1.99673 4.56442 1.9801 4.54062 1.96296 4.51609C1.93238 4.47238 1.90158 4.42883 1.87052 4.38547C1.78758 4.26707 1.71956 4.16023 1.69366 4.0169C1.76619 3.86449 1.87914 3.75518 1.99701 3.6375C2.01748 3.6168 2.03796 3.5961 2.05905 3.57478C2.12653 3.50667 2.19425 3.43882 2.262 3.371C2.30911 3.32367 2.35621 3.27635 2.40331 3.22902C2.50194 3.12999 2.60071 3.0311 2.69956 2.93229C2.82625 2.8056 2.95248 2.67846 3.0786 2.55121C3.17567 2.45339 3.27305 2.35588 3.37051 2.25846C3.41719 2.2117 3.46376 2.16484 3.51022 2.11786C3.57514 2.05228 3.64048 1.98714 3.70593 1.92209C3.72505 1.9026 3.74417 1.88311 3.76386 1.86303C3.86494 1.76352 3.9385 1.69453 4.08428 1.69268C4.16857 1.7335 4.23971 1.77375 4.3167 1.82549C4.33643 1.83851 4.35616 1.85153 4.37648 1.86494C4.43936 1.90715 4.50155 1.95023 4.56365 1.99358C4.61013 2.0258 4.6566 2.05801 4.70308 2.09021C4.73867 2.11494 4.73867 2.11494 4.77498 2.14016C4.84848 2.19109 4.92217 2.24174 4.99594 2.29228C5.01983 2.30865 5.04371 2.32502 5.06832 2.34188C5.11407 2.37322 5.15983 2.40455 5.20559 2.43587C5.22642 2.45016 5.24724 2.46445 5.2687 2.47918C5.2882 2.49241 5.30769 2.50563 5.32778 2.51926C5.3792 2.55596 5.3792 2.55596 5.4482 2.61822C5.51218 2.66316 5.51218 2.66316 5.59879 2.65363C5.75437 2.61038 5.90071 2.54986 6.04949 2.48748C6.1087 2.46272 6.16797 2.43812 6.22731 2.41368C6.25334 2.40276 6.27937 2.39185 6.30619 2.3806C6.3753 2.35674 6.3753 2.35674 6.47491 2.35674C6.48011 2.31742 6.48011 2.31742 6.48542 2.27731C6.52846 1.96351 6.58183 1.65235 6.64015 1.34107C6.65561 1.25809 6.67061 1.17504 6.6856 1.09198C6.69554 1.03864 6.70551 0.985315 6.7155 0.931992C6.71986 0.907435 6.72422 0.882878 6.72872 0.857576C6.79878 0.492624 6.79878 0.492624 7.00818 0.476287ZM7.17217 0.895806C7.0696 1.45939 7.0696 1.45939 6.96859 2.02326C6.95544 2.09384 6.94225 2.1644 6.92899 2.23496C6.92267 2.27173 6.91635 2.3085 6.90983 2.34638C6.90311 2.38142 6.89639 2.41646 6.88947 2.45257C6.88394 2.48302 6.87841 2.51347 6.87271 2.54484C6.81971 2.67099 6.71703 2.7037 6.59654 2.75503C6.5572 2.76936 6.5572 2.76936 6.51706 2.78397C6.47292 2.80035 6.47292 2.80035 6.42789 2.81705C6.3672 2.8392 6.3065 2.86134 6.24579 2.88345C6.09147 2.94073 5.94742 3.0021 5.80293 3.08125C5.69623 3.13536 5.64608 3.15357 5.52356 3.15803C5.38201 3.11013 5.27963 3.04 5.16131 2.95025C5.11225 2.91429 5.06313 2.87842 5.01397 2.8426C4.98765 2.82331 4.96132 2.80401 4.9342 2.78414C4.77421 2.66883 4.61066 2.55872 4.44744 2.44805C4.41482 2.42588 4.38221 2.4037 4.3486 2.38085C4.27159 2.3285 4.19456 2.27619 4.11749 2.22393C3.98955 2.27623 3.90341 2.36264 3.80805 2.45942C3.78228 2.48518 3.78228 2.48518 3.75598 2.51146C3.69941 2.56807 3.64309 2.62492 3.58675 2.68177C3.5475 2.72114 3.50824 2.7605 3.46896 2.79985C3.36576 2.90331 3.26275 3.00696 3.15979 3.11066C3.05464 3.21649 2.94929 3.32214 2.84396 3.4278C2.63743 3.63505 2.4311 3.84251 2.22491 4.0501C2.26883 4.16345 2.31457 4.25766 2.38548 4.35658C2.41359 4.39615 2.41359 4.39615 2.44228 4.43652C2.47233 4.47842 2.47233 4.47842 2.50298 4.52117C2.54482 4.58055 2.58663 4.63995 2.6284 4.69938C2.69117 4.78839 2.75408 4.87728 2.81752 4.96582C2.87446 5.04546 2.93055 5.12565 2.9865 5.20599C3.00396 5.22994 3.02142 5.2539 3.03941 5.27858C3.1188 5.39392 3.15449 5.45372 3.15511 5.59677C3.11891 5.71861 3.07281 5.82504 3.01556 5.93853C2.91099 6.15105 2.82865 6.36659 2.75464 6.59149C2.69623 6.76628 2.69623 6.76628 2.62334 6.83917C2.54981 6.85976 2.54981 6.85976 2.45731 6.87718C2.40474 6.88728 2.40474 6.88728 2.35111 6.89759C2.2957 6.90783 2.2957 6.90783 2.23917 6.91828C2.2053 6.92474 2.17143 6.9312 2.13653 6.93786C2.00971 6.96197 1.88281 6.98562 1.75591 7.00933C1.4724 7.06275 1.18889 7.11616 0.896782 7.1712C0.896782 8.04776 0.896782 8.92432 0.896782 9.82745C1.46037 9.93002 1.46037 9.93002 2.02424 10.031C2.09481 10.0442 2.16538 10.0574 2.23593 10.0706C2.2727 10.077 2.30947 10.0833 2.34736 10.0898C2.3824 10.0965 2.41744 10.1032 2.45354 10.1102C2.48399 10.1157 2.51445 10.1212 2.54582 10.1269C2.67197 10.1799 2.70467 10.2826 2.75601 10.4031C2.76556 10.4293 2.77511 10.4555 2.78495 10.4826C2.80132 10.5267 2.80132 10.5267 2.81802 10.5717C2.84018 10.6324 2.86232 10.6931 2.88443 10.7538C2.9417 10.9082 3.00307 11.0522 3.08222 11.1967C3.13634 11.3034 3.15455 11.3535 3.159 11.4761C3.11111 11.6176 3.04098 11.72 2.95123 11.8383C2.91527 11.8874 2.87939 11.9365 2.84358 11.9857C2.81464 12.0251 2.81464 12.0251 2.78511 12.0654C2.66981 12.2254 2.55969 12.389 2.44903 12.5522C2.42685 12.5848 2.40468 12.6174 2.38183 12.651C2.32948 12.728 2.27717 12.8051 2.22491 12.8821C2.27721 13.0101 2.36361 13.0962 2.46039 13.1916C2.48615 13.2173 2.48615 13.2173 2.51243 13.2436C2.56905 13.3002 2.6259 13.3565 2.68275 13.4129C2.72212 13.4521 2.76148 13.4914 2.80083 13.5307C2.90428 13.6339 3.00794 13.7369 3.11163 13.8398C3.21747 13.945 3.32312 14.0503 3.42878 14.1557C3.63603 14.3622 3.84349 14.5685 4.05108 14.7747C4.16443 14.7308 4.25864 14.685 4.35756 14.6141C4.38394 14.5954 4.41032 14.5767 4.4375 14.5573C4.46543 14.5373 4.49337 14.5173 4.52215 14.4966C4.58153 14.4548 4.64093 14.413 4.70036 14.3712C4.78937 14.3084 4.87826 14.2455 4.96679 14.1821C5.04644 14.1252 5.12663 14.0691 5.20696 14.0131C5.23092 13.9957 5.25487 13.9782 5.27955 13.9602C5.39489 13.8808 5.4547 13.8451 5.59775 13.8445C5.71959 13.8807 5.82601 13.9268 5.93951 13.9841C6.15203 14.0886 6.36756 14.171 6.59246 14.245C6.76725 14.3034 6.76725 14.3034 6.84014 14.3763C6.86073 14.4498 6.86073 14.4498 6.87816 14.5423C6.88489 14.5774 6.89163 14.6124 6.89856 14.6485C6.90881 14.7039 6.90881 14.7039 6.91926 14.7604C6.92572 14.7943 6.93218 14.8282 6.93884 14.8631C6.96294 14.9899 6.9866 15.1168 7.01031 15.2437C7.06372 15.5272 7.11714 15.8107 7.17217 16.1028C8.04874 16.1028 8.9253 16.1028 9.82842 16.1028C9.931 15.5392 9.931 15.5392 10.032 14.9754C10.0452 14.9048 10.0584 14.8342 10.0716 14.7637C10.0779 14.7269 10.0842 14.6901 10.0908 14.6523C10.1008 14.5997 10.1008 14.5997 10.1111 14.5461C10.1167 14.5156 10.1222 14.4852 10.1279 14.4538C10.1809 14.3277 10.2836 14.2949 10.4041 14.2436C10.4303 14.2341 10.4565 14.2245 10.4835 14.2147C10.513 14.2038 10.5424 14.1928 10.5727 14.1816C10.6334 14.1594 10.6941 14.1373 10.7548 14.1152C10.9091 14.0579 11.0532 13.9965 11.1977 13.9174C11.3016 13.865 11.3549 13.8451 11.4735 13.8383C11.6351 13.8946 11.7586 13.9844 11.8953 14.0857C11.9537 14.1279 12.0122 14.17 12.0707 14.2121C12.1005 14.2337 12.1303 14.2553 12.1609 14.2775C12.3086 14.3835 12.4589 14.4857 12.6092 14.5879C12.6623 14.6242 12.7154 14.6604 12.7685 14.6966C12.8067 14.7227 12.8449 14.7487 12.8831 14.7747C13.011 14.7224 13.0972 14.636 13.1925 14.5392C13.2183 14.5135 13.2183 14.5135 13.2446 14.4872C13.3012 14.4306 13.3575 14.3737 13.4138 14.3169C13.4531 14.2775 13.4924 14.2381 13.5316 14.1988C13.6348 14.0953 13.7378 13.9917 13.8408 13.888C13.946 13.7822 14.0513 13.6765 14.1566 13.5708C14.3632 13.3636 14.5695 13.1561 14.7757 12.9485C14.7318 12.8352 14.686 12.741 14.6151 12.6421C14.5964 12.6157 14.5776 12.5893 14.5583 12.5621C14.5383 12.5342 14.5183 12.5063 14.4976 12.4775C14.4558 12.4181 14.414 12.3587 14.3722 12.2993C14.3094 12.2103 14.2465 12.1214 14.1831 12.0328C14.1261 11.9532 14.0701 11.873 14.0141 11.7927C13.9966 11.7687 13.9792 11.7447 13.9612 11.7201C13.8818 11.6047 13.8461 11.5449 13.8455 11.4019C13.8817 11.28 13.9278 11.1736 13.985 11.0601C14.0896 10.8476 14.1719 10.6321 14.246 10.4072C14.3044 10.2324 14.3044 10.2324 14.3773 10.1595C14.4508 10.1389 14.4508 10.1389 14.5433 10.1215C14.5783 10.1147 14.6134 10.108 14.6495 10.1011C14.6864 10.0942 14.7234 10.0874 14.7614 10.0804C14.8122 10.0707 14.8122 10.0707 14.8641 10.0608C14.9909 10.0367 15.1178 10.013 15.2447 9.98931C15.67 9.90919 15.67 9.90919 16.1038 9.82745C16.1038 8.95088 16.1038 8.07432 16.1038 7.1712C15.5418 7.07261 15.5418 7.07261 14.9794 6.97658C14.9089 6.96373 14.8384 6.95078 14.7679 6.93774C14.713 6.92902 14.713 6.92902 14.657 6.92013C14.4054 6.87196 14.4054 6.87196 14.326 6.7795C14.2913 6.71163 14.2666 6.64638 14.2444 6.57354C14.2321 6.54486 14.2198 6.51619 14.2071 6.48664C14.1927 6.44953 14.1927 6.44953 14.178 6.41168C14.1671 6.38377 14.1561 6.35586 14.1448 6.32711C14.1227 6.27004 14.1006 6.21298 14.0784 6.15591C14.026 6.02233 13.9723 5.89569 13.902 5.77044C13.8356 5.63893 13.8349 5.55513 13.8792 5.41143C13.9285 5.32177 13.9876 5.24175 14.0494 5.16033C14.0853 5.11127 14.1212 5.06216 14.157 5.01299C14.1763 4.98667 14.1956 4.96035 14.2155 4.93323C14.3308 4.77324 14.4409 4.60968 14.5516 4.44647C14.5737 4.41385 14.5959 4.38123 14.6188 4.34763C14.6711 4.27062 14.7234 4.19358 14.7757 4.11651C14.7234 3.98857 14.637 3.90243 14.5402 3.80708C14.5144 3.7813 14.5144 3.7813 14.4882 3.75501C14.4315 3.69844 14.3747 3.64211 14.3178 3.58578C14.2785 3.54653 14.2391 3.50726 14.1998 3.46798C14.0963 3.36478 13.9927 3.26178 13.889 3.15882C13.7831 3.05366 13.6775 2.94832 13.5718 2.84299C13.3646 2.63645 13.1571 2.43012 12.9495 2.22393C12.8362 2.26785 12.742 2.3136 12.643 2.3845C12.6167 2.40324 12.5903 2.42199 12.5631 2.4413C12.5352 2.46133 12.5072 2.48137 12.4784 2.50201C12.4191 2.54385 12.3597 2.58565 12.3002 2.62743C12.2112 2.6902 12.1223 2.7531 12.0338 2.81655C11.9542 2.87348 11.874 2.92957 11.7936 2.98553C11.7697 3.00299 11.7457 3.02044 11.721 3.03843C11.6073 3.11673 11.546 3.15327 11.4052 3.1553C11.2697 3.11448 11.1495 3.06005 11.0237 2.9959C10.7946 2.8829 10.5668 2.79634 10.3224 2.72224C10.2269 2.68877 10.2269 2.68877 10.1605 2.62237C10.1399 2.54884 10.1399 2.54884 10.1224 2.45634C10.1157 2.42129 10.109 2.38624 10.102 2.35014C10.0918 2.29473 10.0918 2.29473 10.0813 2.2382C10.0749 2.20432 10.0684 2.17045 10.0618 2.13555C10.0377 2.00873 10.014 1.88183 9.99029 1.75494C9.91016 1.32967 9.91016 1.32967 9.82842 0.895806C8.95186 0.895806 8.0753 0.895806 7.17217 0.895806Z" fill="white"/>
<path d="M11.8305 4.83541C11.8826 4.88363 11.9345 4.93204 11.9862 4.98068C12.0078 5.00015 12.0294 5.01963 12.0517 5.03969C12.9411 5.87431 13.4004 7.13999 13.4564 8.33627C13.496 9.72817 12.9638 10.983 12.0194 11.9865C11.9902 12.019 11.9902 12.019 11.9604 12.052C11.1257 12.9414 9.86006 13.4007 8.66378 13.4568C7.27296 13.4963 6.01571 12.9648 5.01351 12.0197C4.99113 11.9991 4.96874 11.9785 4.94568 11.9572C4.18107 11.2277 3.74083 10.1953 3.58578 9.16427C3.58141 9.13675 3.57704 9.10923 3.57255 9.08087C3.41455 7.85745 3.76276 6.53301 4.51339 5.55343C4.66054 5.36588 4.81679 5.18728 4.98031 5.01388C5.00094 4.99149 5.02157 4.96911 5.04282 4.94605C5.77232 4.18144 6.80475 3.7412 7.83578 3.58615C7.8633 3.58178 7.89082 3.57741 7.91917 3.57292C9.34826 3.38836 10.7666 3.89165 11.8305 4.83541ZM5.31234 5.31271C5.28893 5.33402 5.26551 5.35534 5.24139 5.3773C4.44813 6.12068 4.02308 7.26097 3.9789 8.33004C3.95017 9.41954 4.28066 10.5312 5.01351 11.3557C5.07394 11.265 5.11485 11.1771 5.15656 11.077C5.53599 10.1681 6.23078 9.47851 7.13851 9.09786C7.90375 8.80626 8.77733 8.74789 9.56234 8.99825C9.58507 9.00537 9.60779 9.01249 9.63121 9.01982C10.5268 9.30841 11.2655 9.9263 11.6981 10.7654C11.7953 10.9587 11.8793 11.1521 11.953 11.3557C12.5984 10.7689 12.9454 9.74335 13.0112 8.89242C13.0677 7.6603 12.746 6.48553 11.9129 5.55111C11.8391 5.47025 11.7633 5.39154 11.6873 5.31271C11.666 5.2893 11.6447 5.26588 11.6227 5.24176C10.8794 4.4485 9.73908 4.02345 8.67 3.97927C7.38056 3.94527 6.2356 4.42324 5.31234 5.31271ZM6.27523 10.1604C6.24993 10.1832 6.22464 10.206 6.19858 10.2295C5.78482 10.616 5.46882 11.1937 5.37874 11.7541C6.22943 12.5853 7.36715 13.0234 8.55396 13.0242C9.71576 13.0063 10.7828 12.5536 11.6209 11.7541C11.5586 11.4112 11.4209 11.127 11.2557 10.8244C11.2308 10.7767 11.2308 10.7767 11.2054 10.7281C10.8039 10.0255 10.0538 9.54299 9.2863 9.33344C8.18712 9.06576 7.08345 9.38631 6.27523 10.1604Z" fill="white"/>
<path d="M9.48461 5.25345C9.89468 5.56065 10.1751 5.92633 10.2789 6.43644C10.3445 6.9312 10.2743 7.38525 9.99381 7.80179C9.70129 8.17611 9.33022 8.46712 8.85271 8.55612C8.31155 8.61393 7.82007 8.53991 7.38075 8.19659C7.03135 7.89367 6.75705 7.51013 6.7067 7.03811C6.67375 6.47621 6.78362 5.99113 7.15702 5.55227C7.75962 4.92898 8.74494 4.76197 9.48461 5.25345ZM7.39709 5.95888C7.17485 6.26925 7.10704 6.59613 7.13834 6.97171C7.19338 7.24472 7.28204 7.46339 7.47037 7.66897C7.48779 7.68939 7.50521 7.70981 7.52316 7.73084C7.74141 7.97066 8.04828 8.116 8.37088 8.14225C8.7694 8.15578 9.097 8.07051 9.39615 7.80179C9.42684 7.77566 9.42684 7.77566 9.45815 7.749C9.70772 7.52139 9.84228 7.21236 9.86826 6.87832C9.88122 6.45496 9.74276 6.10026 9.45841 5.7847C9.18446 5.52776 8.79815 5.39162 8.42574 5.40078C8.00245 5.44848 7.66964 5.63737 7.39709 5.95888Z" fill="white"/>
</g>
<defs>
<clipPath id="clip0_657_45269">
<rect width="17" height="17" fill="white"/>
</clipPath>
</defs>
</svg>
