<svg width="17" height="17" viewBox="0 0 17 17" fill="none" xmlns="http://www.w3.org/2000/svg">
<path d="M3.37153 0.00908757C3.42253 0.00895593 3.47352 0.00879393 3.52452 0.00860436C3.66412 0.0081752 3.80371 0.00818297 3.9433 0.00826611C4.09407 0.00828051 4.24484 0.00789167 4.39561 0.00755821C4.69081 0.0069743 4.986 0.00678014 5.2812 0.00674087C5.52125 0.00670738 5.7613 0.00656257 6.00135 0.00633963C6.68248 0.00571996 7.36361 0.00539507 8.04474 0.00544788C8.08143 0.00545069 8.11813 0.0054535 8.15594 0.0054564C8.19268 0.00545928 8.22942 0.00546216 8.26728 0.00546512C8.86251 0.00549372 9.45774 0.00482039 10.053 0.0038278C10.6647 0.00281582 11.2764 0.00233075 11.8881 0.00239151C12.2313 0.00241484 12.5745 0.00222292 12.9177 0.00146397C13.21 0.000821806 13.5022 0.000671064 13.7945 0.0011479C13.9435 0.00137708 14.0924 0.00138407 14.2414 0.000771106C14.3781 0.000214562 14.5147 0.000321235 14.6514 0.000931875C14.7236 0.00108972 14.7959 0.000561589 14.8681 0C15.4501 0.00428878 15.9619 0.193717 16.3892 0.566184C16.8678 1.04175 16.9977 1.56257 16.9948 2.20189C16.995 2.25851 16.9952 2.31514 16.9954 2.37176C16.996 2.52649 16.9958 2.68121 16.9955 2.83595C16.9954 3.00316 16.9958 3.17037 16.9962 3.33758C16.9969 3.66482 16.9969 3.99207 16.9967 4.31931C16.9965 4.58538 16.9966 4.85144 16.9968 5.1175C16.9968 5.15541 16.9969 5.19332 16.9969 5.23237C16.9969 5.30939 16.997 5.38641 16.9971 5.46342C16.9976 6.18521 16.9974 6.907 16.9969 7.62879C16.9966 8.28865 16.9971 8.94851 16.9979 9.60837C16.9989 10.2865 16.9992 10.9646 16.999 11.6427C16.9988 12.0231 16.9989 12.4036 16.9996 12.7841C17.0001 13.108 17.0002 13.4319 16.9995 13.7558C16.9992 13.9209 16.9991 14.086 16.9997 14.2512C17.0002 14.4026 17 14.5539 16.9993 14.7053C16.9992 14.7599 16.9993 14.8144 16.9997 14.869C17.0037 15.4688 16.8384 15.9811 16.3962 16.4271C15.9181 16.8501 15.3857 16.9979 14.7373 16.995C14.6862 16.9951 14.6351 16.9953 14.584 16.9956C14.4446 16.9961 14.3053 16.9959 14.166 16.9957C14.0153 16.9955 13.8646 16.9959 13.7139 16.9963C13.4191 16.9969 13.1243 16.9969 12.8295 16.9967C12.5898 16.9966 12.35 16.9966 12.1103 16.9968C12.0761 16.9969 12.042 16.9969 12.0067 16.9969C11.9373 16.997 11.8679 16.997 11.7984 16.9971C11.1479 16.9976 10.4973 16.9974 9.84676 16.997C9.25227 16.9966 8.65777 16.9971 8.06328 16.9979C7.45208 16.9988 6.84088 16.9991 6.22969 16.9989C5.88685 16.9988 5.54402 16.9988 5.20119 16.9994C4.90934 17 4.6175 17 4.32566 16.9994C4.17691 16.9991 4.02818 16.999 3.87943 16.9995C3.74297 17 3.60653 16.9999 3.47008 16.9992C3.39796 16.999 3.32584 16.9995 3.25373 17C2.68366 16.9955 2.16639 16.8143 1.74961 16.4447C1.32837 16.0225 1.13497 15.55 1.13841 14.9791C1.13846 14.9457 1.13851 14.9124 1.13857 14.878C1.13878 14.7719 1.13925 14.6658 1.13973 14.5596C1.13991 14.4875 1.14008 14.4154 1.14024 14.3433C1.14065 14.1669 1.1413 13.9904 1.14207 13.814C1.09321 13.8152 1.04434 13.8165 0.993999 13.8177C0.929199 13.8187 0.864399 13.8197 0.799598 13.8206C0.751412 13.8219 0.751412 13.8219 0.702251 13.8233C0.506839 13.8254 0.37254 13.8116 0.203789 13.7084C0.0284516 13.5262 0.00307814 13.413 0.00543052 13.1723C0.0240555 13.0029 0.111393 12.909 0.243666 12.8C0.527145 12.6371 0.763388 12.723 1.14207 12.723C1.14207 12.0378 1.14207 11.3526 1.14207 10.6467C0.919135 10.6467 0.6962 10.6467 0.466508 10.6467C0.0999236 10.4748 0.0999236 10.4748 0.0161328 10.2947C-0.0123561 10.108 -0.0094418 9.95835 0.0771211 9.78665C0.166258 9.69647 0.166258 9.69647 0.391446 9.5557C0.639152 9.5557 0.886858 9.5557 1.14207 9.5557C1.14207 8.85888 1.14207 8.16207 1.14207 7.44414C0.894365 7.44414 0.646658 7.44414 0.391446 7.44414C0.102488 7.26351 0.102488 7.26351 0.0161328 7.09221C-0.0126344 6.90752 -0.00755275 6.75599 0.0724297 6.58412C0.166258 6.49394 0.166258 6.49394 0.466508 6.35317C0.689444 6.35317 0.91238 6.35317 1.14207 6.35317C1.14207 5.66797 1.14207 4.98277 1.14207 4.2768C0.90675 4.2768 0.671429 4.2768 0.428977 4.2768C0.218374 4.17807 0.118836 4.11749 0.0161328 3.92488C-0.00373627 3.73796 -0.00877432 3.58447 0.0818125 3.41459C0.206529 3.28465 0.31304 3.19175 0.507219 3.18184C0.551147 3.18212 0.551147 3.18212 0.595962 3.1824C0.627772 3.18251 0.659582 3.18262 0.692356 3.18274C0.725423 3.18304 0.758491 3.18333 0.792561 3.18363C0.842816 3.18387 0.842816 3.18387 0.894086 3.18412C0.97675 3.18453 1.05941 3.18511 1.14207 3.18583C1.14148 3.14202 1.14089 3.09821 1.14028 3.05306C1.13823 2.8889 1.13695 2.72473 1.13589 2.56056C1.13532 2.4898 1.13456 2.41905 1.13358 2.3483C1.12336 1.59208 1.12336 1.59208 1.25466 1.28543C1.27861 1.22712 1.27861 1.22712 1.30305 1.16762C1.57002 0.658899 1.99821 0.283059 2.56826 0.0888842C2.8372 0.00976379 3.091 0.00843676 3.37153 0.00908757ZM2.4652 1.45658C2.32293 1.68391 2.2893 1.88302 2.29455 2.14105C2.29478 2.18615 2.29478 2.18615 2.29503 2.23216C2.29565 2.32718 2.29707 2.42217 2.2985 2.51717C2.29907 2.58201 2.29958 2.64686 2.30004 2.7117C2.30128 2.86975 2.30322 3.02779 2.30554 3.18583C2.37884 3.18781 2.37884 3.18781 2.45361 3.18982C2.51841 3.19213 2.58321 3.19447 2.64801 3.19683C2.6962 3.19802 2.6962 3.19802 2.74536 3.19924C2.93712 3.20684 3.07886 3.22539 3.24382 3.3266C3.38846 3.50863 3.42062 3.62944 3.39395 3.85449C3.33765 3.97327 3.33765 3.97327 3.28135 4.06565C3.28135 4.08888 3.28135 4.1121 3.28135 4.13603C3.23723 4.15237 3.23723 4.15237 3.19222 4.16903C3.09658 4.20391 3.09658 4.20391 3.01864 4.24161C2.66565 4.25903 2.66565 4.25903 2.30554 4.2768C2.30554 4.96201 2.30554 5.64721 2.30554 6.35317C2.62137 6.37059 2.62137 6.37059 2.94357 6.38836C3.24531 6.50962 3.24531 6.50962 3.35642 6.6699C3.41109 6.8237 3.42659 6.97301 3.36697 7.12644C3.28176 7.2782 3.21958 7.31701 3.05617 7.40895C2.68461 7.42637 2.68461 7.42637 2.30554 7.44414C2.30554 8.14095 2.30554 8.83777 2.30554 9.5557C2.6771 9.57312 2.6771 9.57312 3.05617 9.59089C3.32639 9.75981 3.32639 9.75981 3.39395 9.94281C3.42306 10.1324 3.39557 10.273 3.28135 10.4355C2.99526 10.69 2.72424 10.6236 2.30554 10.6467C2.30554 11.3319 2.30554 12.0171 2.30554 12.723C2.54086 12.7346 2.77618 12.7463 3.01864 12.7582C3.08056 12.7931 3.14249 12.8279 3.20629 12.8638C3.23106 12.8638 3.25583 12.8638 3.28135 12.8638C3.29297 12.8914 3.30458 12.919 3.31654 12.9474C3.35374 13.0371 3.35374 13.0371 3.39395 13.1102C3.41515 13.3048 3.40725 13.4405 3.28135 13.6028C3.28135 13.6261 3.28135 13.6493 3.28135 13.6732C3.25194 13.6841 3.22252 13.695 3.19222 13.7062C3.09658 13.7411 3.09658 13.7411 3.01864 13.7788C2.96435 13.7841 2.90984 13.7876 2.85532 13.7899C2.82338 13.7914 2.79145 13.7929 2.75855 13.7944C2.70848 13.7965 2.70848 13.7965 2.6574 13.7986C2.62372 13.8001 2.59005 13.8016 2.55536 13.8032C2.47209 13.8069 2.38882 13.8105 2.30554 13.814C2.30181 14.0037 2.29909 14.1933 2.29729 14.383C2.29654 14.4474 2.29552 14.5118 2.29422 14.5762C2.29238 14.6693 2.29154 14.7623 2.29088 14.8553C2.29011 14.8837 2.28933 14.9121 2.28853 14.9414C2.28842 15.2041 2.38365 15.4 2.53542 15.6176C2.82723 15.8794 3.12909 15.9161 3.52004 15.9127C3.56944 15.913 3.61885 15.9133 3.66975 15.9135C3.80598 15.9143 3.94218 15.9139 4.0784 15.9134C4.22567 15.913 4.37292 15.9136 4.52019 15.9141C4.80831 15.9149 5.09643 15.9147 5.38456 15.9142C5.6188 15.9138 5.85303 15.9137 6.08727 15.9139C6.13734 15.914 6.13734 15.914 6.18842 15.914C6.25624 15.9141 6.32406 15.9141 6.39188 15.9142C7.02733 15.9147 7.66277 15.9141 8.29821 15.9131C8.84305 15.9124 9.38787 15.9125 9.93271 15.9133C10.5659 15.9142 11.1992 15.9146 11.8324 15.9141C11.8999 15.914 11.9675 15.914 12.0351 15.9139C12.0683 15.9139 12.1016 15.9139 12.1358 15.9138C12.3697 15.9137 12.6035 15.9139 12.8374 15.9144C13.1225 15.9148 13.4077 15.9147 13.6928 15.9138C13.8382 15.9133 13.9835 15.9131 14.1289 15.9137C14.2867 15.9143 14.4445 15.9136 14.6023 15.9127C14.6708 15.9133 14.6708 15.9133 14.7407 15.9139C15.054 15.9105 15.3143 15.8563 15.5507 15.6526C15.746 15.4584 15.8308 15.2474 15.8312 14.9824C15.8314 14.9595 15.8316 14.9367 15.8317 14.9131C15.8322 14.8368 15.8319 14.7604 15.8316 14.6841C15.8318 14.6287 15.832 14.5733 15.8323 14.5178C15.8329 14.3658 15.8328 14.2138 15.8326 14.0617C15.8325 13.8976 15.8331 13.7336 15.8335 13.5695C15.8343 13.2482 15.8345 12.9268 15.8344 12.6055C15.8344 12.3442 15.8345 12.083 15.8348 11.8218C15.8349 11.7466 15.8349 11.6713 15.835 11.5961C15.8351 11.5586 15.8351 11.5212 15.8351 11.4826C15.8359 10.7743 15.8358 10.0659 15.8356 9.35761C15.8354 8.70973 15.8361 8.06186 15.8374 7.41398C15.8386 6.74865 15.8392 6.08332 15.839 5.41799C15.839 5.04449 15.8391 4.671 15.8401 4.2975C15.8409 3.97952 15.841 3.66154 15.8403 3.34355C15.84 3.18135 15.8399 3.01917 15.8407 2.85697C15.8414 2.70837 15.8412 2.55979 15.8404 2.41119C15.8402 2.35755 15.8404 2.30391 15.8409 2.25027C15.8439 1.91182 15.8188 1.61891 15.5633 1.35928C15.2787 1.10625 14.9919 1.09406 14.6158 1.09559C14.5665 1.09538 14.5172 1.09516 14.4664 1.09494C14.3299 1.09436 14.1935 1.09444 14.057 1.09464C13.9097 1.09473 13.7623 1.09422 13.615 1.09379C13.3265 1.09305 13.038 1.09289 12.7494 1.09295C12.5149 1.093 12.2803 1.09286 12.0458 1.0926C11.9782 1.09253 11.9106 1.09245 11.843 1.09238C11.8093 1.09234 11.7757 1.09231 11.741 1.09227C11.1048 1.0916 10.4686 1.09164 9.83243 1.09188C9.25071 1.09208 8.669 1.09134 8.08728 1.09018C7.4897 1.08899 6.89213 1.08846 6.29455 1.08862C5.95916 1.0887 5.62378 1.08852 5.28839 1.08764C5.00284 1.0869 4.7173 1.08677 4.43175 1.08744C4.28614 1.08776 4.14054 1.0878 3.99493 1.08707C3.83687 1.08629 3.67885 1.08688 3.5208 1.0876C3.47505 1.08716 3.4293 1.08672 3.38216 1.08626C3.00581 1.08993 2.71242 1.18187 2.4652 1.45658Z" fill="white"/>
<path d="M12.361 9.8422C12.466 9.9197 12.5656 10.0004 12.6646 10.0846C12.6839 10.1009 12.7031 10.1172 12.7229 10.134C13.5882 10.8774 14.1112 11.912 14.1754 13.0119C14.1944 13.4852 14.1944 13.4852 14.0157 13.6742C13.8083 13.8094 13.6591 13.8354 13.4097 13.8329C13.376 13.8331 13.3422 13.8333 13.3074 13.8335C13.1948 13.8341 13.0821 13.8336 12.9694 13.8332C12.8884 13.8334 12.8075 13.8336 12.7265 13.8339C12.5069 13.8346 12.2873 13.8343 12.0677 13.8339C11.8378 13.8335 11.6079 13.8339 11.3781 13.8341C10.992 13.8343 10.606 13.834 10.2199 13.8333C9.77368 13.8326 9.32745 13.8328 8.88122 13.8336C8.49799 13.8342 8.11477 13.8343 7.73155 13.8339C7.50271 13.8337 7.27387 13.8337 7.04503 13.8342C6.82988 13.8346 6.61474 13.8343 6.39959 13.8335C6.32066 13.8333 6.24173 13.8333 6.1628 13.8337C6.05499 13.834 5.94723 13.8336 5.83943 13.8329C5.80825 13.8332 5.77706 13.8335 5.74494 13.8338C5.53244 13.8311 5.40916 13.7873 5.23342 13.6742C5.07265 13.508 5.06499 13.3022 5.07362 13.0875C5.17257 11.8897 5.69205 10.8132 6.65961 10.0142C8.31461 8.76754 10.6295 8.66319 12.361 9.8422ZM7.00208 11.2558C6.66901 11.6554 6.32183 12.2022 6.32183 12.724C8.50164 12.724 10.6815 12.724 12.9273 12.724C12.8534 12.1001 12.5459 11.5697 12.1016 11.1051C12.0814 11.0832 12.0611 11.0613 12.0402 11.0387C11.4995 10.4909 10.6786 10.1436 9.88847 10.1064C8.75062 10.076 7.75978 10.4337 7.00208 11.2558Z" fill="white"/>
<path d="M11.3861 3.72834C11.4377 3.76922 11.4886 3.81104 11.5386 3.85371C11.5811 3.88944 11.5811 3.88944 11.6246 3.92589C12.1485 4.38913 12.4451 5.03691 12.4845 5.70806C12.4948 6.50704 12.2195 7.19497 11.6337 7.78195C10.9961 8.34296 10.2459 8.53097 9.39252 8.5111C8.66805 8.48038 8.05517 8.17047 7.56024 7.68971C7.53256 7.66485 7.50489 7.63999 7.47638 7.61437C7.00561 7.1661 6.77891 6.47831 6.7627 5.86189C6.78807 5.04105 7.12295 4.37838 7.75669 3.81426C8.12232 3.51916 8.58795 3.30663 9.06149 3.22025C9.09555 3.2139 9.12961 3.20754 9.1647 3.201C9.9649 3.09639 10.7369 3.27391 11.3861 3.72834ZM8.57358 4.62795C8.54107 4.64827 8.50856 4.6686 8.47506 4.68954C8.1444 4.98328 7.95962 5.37109 7.93452 5.79591C7.9395 6.27594 8.12981 6.66888 8.48283 7.01431C8.86898 7.34247 9.29973 7.43647 9.80727 7.4204C10.2426 7.39442 10.6214 7.1685 10.9169 6.87725C11.2092 6.54151 11.3507 6.11378 11.3134 5.68373C11.2421 5.24046 11.0301 4.87798 10.6633 4.58946C10.5022 4.48202 10.3354 4.40904 10.1499 4.34641C10.1245 4.33779 10.0991 4.32917 10.0729 4.32029C9.54163 4.1697 9.00186 4.31956 8.57358 4.62795Z" fill="white"/>
</svg>
