<svg width="25" height="25" viewBox="0 0 25 25" fill="none" xmlns="http://www.w3.org/2000/svg">
<g clip-path="url(#clip0_657_45210)">
<path d="M1.34277 0.0687437C0.800781 0.239642 0.415039 0.576556 0.175781 1.0746L0.0244141 1.39199V4.17519V6.95839L0.185547 7.28554C0.380859 7.68593 0.766602 8.05214 1.16211 8.21327L1.44043 8.32558L5.54199 8.34023C8.48633 8.34999 9.72656 8.34023 9.93652 8.30117C10.7178 8.1498 11.2744 7.59316 11.4258 6.81191C11.4648 6.60683 11.4746 5.75722 11.4648 3.97988C11.4502 1.45546 11.4502 1.44081 11.3379 1.16249C11.1768 0.766986 10.8105 0.381244 10.4102 0.185931L10.083 0.0247984L5.81055 0.0150328C2.45117 0.00526714 1.49414 0.0199156 1.34277 0.0687437Z" fill="white"/>
<path d="M14.8873 0.0687428C14.3697 0.205462 13.8668 0.659563 13.6617 1.16249L13.5494 1.44081L13.5348 7.10488C13.525 11.1967 13.5348 12.8519 13.5738 13.0619C13.7252 13.8432 14.2818 14.3998 15.0631 14.5512C15.2731 14.5902 16.5133 14.6 19.4576 14.5902L23.5592 14.5756L23.8375 14.4633C24.233 14.3021 24.6188 13.9359 24.8141 13.5355L24.9752 13.2084V7.30019V1.39198L24.8238 1.0746C24.6285 0.664446 24.3356 0.371477 23.9352 0.181047L23.608 0.0247974L19.36 0.0150318C16.1031 0.010149 15.0582 0.0199146 14.8873 0.0687428Z" fill="white"/>
<path d="M1.46484 10.4551C0.917969 10.5625 0.405273 10.9775 0.15625 11.5146L0.0244141 11.793V17.7012V23.6094L0.175781 23.9268C0.366211 24.332 0.668945 24.6348 1.07422 24.8252L1.3916 24.9766H5.73731H10.083L10.4102 24.8154C10.8105 24.6201 11.1768 24.2344 11.3379 23.8389L11.4502 23.5605L11.4648 17.8965C11.4746 13.8047 11.4648 12.1494 11.4258 11.9395C11.2793 11.1729 10.7324 10.6162 9.9707 10.4551C9.6582 10.3916 1.80664 10.3867 1.46484 10.4551Z" fill="white"/>
<path d="M14.9654 16.7197C14.233 16.9004 13.7203 17.4424 13.5738 18.1895C13.5348 18.3945 13.525 19.2393 13.5348 21.0215C13.5494 23.5459 13.5494 23.5605 13.6617 23.8389C13.8229 24.2344 14.1891 24.6201 14.5895 24.8154L14.9166 24.9766H19.2623H23.608L23.9352 24.8203C24.3356 24.6299 24.6285 24.3369 24.8238 23.9268L24.9752 23.6094V20.8262V18.043L24.8141 17.7158C24.6188 17.3154 24.233 16.9492 23.8375 16.7881L23.5592 16.6758L19.3844 16.666C16.2154 16.6611 15.151 16.6709 14.9654 16.7197Z" fill="white"/>
</g>
<defs>
<clipPath id="clip0_657_45210">
<rect width="25" height="25" fill="white"/>
</clipPath>
</defs>
</svg>
