<svg width="17" height="17" viewBox="0 0 17 17" fill="none" xmlns="http://www.w3.org/2000/svg">
<g clip-path="url(#clip0_657_45237)">
<path d="M0.638174 2.86152C0.688934 2.87994 0.739527 2.89882 0.789971 2.91808C0.817896 2.92834 0.845821 2.9386 0.874592 2.94918C0.966474 2.98306 1.05811 3.01754 1.14976 3.05206C1.21414 3.076 1.27853 3.0999 1.34294 3.12378C1.44386 3.16121 1.54476 3.19871 1.64559 3.23639C1.89055 3.3279 2.13624 3.41723 2.38229 3.50575C2.48531 3.54303 2.5883 3.58036 2.69129 3.61772C2.75729 3.64159 2.82334 3.66532 2.88944 3.68892C3.41832 3.878 3.89209 4.05619 4.17747 4.57318C4.23677 4.7008 4.26669 4.81864 4.28784 4.95761C4.2961 5.01072 4.2961 5.01072 4.30453 5.0649C4.30849 5.09164 4.31244 5.11838 4.31651 5.14593C4.35258 5.14292 4.35258 5.14292 4.38938 5.13985C4.61884 5.12072 4.8483 5.10168 5.07778 5.08271C5.19568 5.07297 5.31358 5.0632 5.43147 5.05335C5.5678 5.04197 5.70414 5.0307 5.84048 5.01947C5.86262 5.01764 5.88476 5.01581 5.90757 5.01392C6.21368 4.98869 6.51932 4.96832 6.82628 4.95747C6.99471 4.94148 7.12983 4.89418 7.27029 4.80093C7.3057 4.77804 7.3057 4.77804 7.34183 4.75468C7.37896 4.73058 7.37896 4.73058 7.41685 4.70599C8.07704 4.29014 8.81684 4.13402 9.59027 4.28357C9.97147 4.37178 10.3204 4.54683 10.6696 4.7187C11.6728 5.23916 11.6728 5.23916 12.7501 5.47796C12.761 5.45267 12.7719 5.42737 12.7832 5.40131C13.045 4.83288 13.4694 4.63523 14.0298 4.42779C14.2147 4.3605 14.3999 4.29425 14.5854 4.22844C14.7311 4.17664 14.8767 4.12436 15.0224 4.07215C15.1048 4.04265 15.1873 4.01326 15.2698 3.98399C15.4777 3.91 15.6844 3.83398 15.89 3.75369C15.9303 3.73809 15.9707 3.7225 16.0124 3.70643C16.0887 3.67685 16.1647 3.64676 16.2406 3.61606C16.435 3.54109 16.6313 3.46648 16.8341 3.55218C16.9206 3.61865 16.9891 3.67262 17.0155 3.78219C17.0215 3.86168 17.0222 3.93969 17.0212 4.0194C17.0214 4.0498 17.0217 4.08019 17.022 4.11151C17.0226 4.2134 17.0221 4.31526 17.0216 4.41715C17.0218 4.49018 17.0221 4.56321 17.0225 4.63624C17.0232 4.83463 17.0229 5.03302 17.0224 5.23141C17.022 5.4389 17.0224 5.64639 17.0226 5.85387C17.023 6.22466 17.0224 6.59544 17.0216 6.96623C17.0209 7.30237 17.021 7.63851 17.0217 7.97465C17.0226 8.36507 17.023 8.75548 17.0225 9.1459C17.0222 9.35254 17.0222 9.55918 17.0227 9.76582C17.0232 9.96009 17.0229 10.1543 17.0219 10.3486C17.0217 10.42 17.0218 10.4913 17.0221 10.5627C17.0226 10.66 17.022 10.7572 17.0212 10.8545C17.0216 10.8828 17.0219 10.9112 17.0223 10.9404C17.0199 11.0834 17.0131 11.1391 16.922 11.2555C16.7714 11.3689 16.633 11.3602 16.452 11.3605C16.4241 11.3606 16.3962 11.3607 16.3675 11.3608C16.3084 11.361 16.2492 11.3611 16.1901 11.3611C16.1005 11.3611 16.0109 11.3617 15.9213 11.3624C15.8637 11.3625 15.8061 11.3625 15.7485 11.3626C15.722 11.3628 15.6956 11.363 15.6683 11.3633C15.2257 11.3615 14.8904 11.2114 14.5636 10.9156C14.5099 10.8569 14.5099 10.8569 14.5099 10.7905C14.1002 10.9907 14.1002 10.9907 13.707 11.2211C13.6466 11.2553 13.6466 11.2553 13.5802 11.2553C13.5864 11.2842 13.5926 11.3131 13.599 11.3429C13.6335 11.6102 13.5287 11.8708 13.372 12.0843C13.1444 12.3516 12.914 12.5072 12.5633 12.5399C12.4098 12.5572 12.4098 12.5572 12.2902 12.6457C12.2589 12.6974 12.229 12.7499 12.2003 12.8031C12.0508 13.0504 11.7596 13.1776 11.4959 13.2676C11.4077 13.2832 11.3225 13.2799 11.2332 13.2785C11.0069 13.2756 11.0069 13.2756 10.8147 13.3817C10.7779 13.4394 10.743 13.4983 10.7099 13.5583C10.5857 13.7692 10.3514 13.9065 10.1255 13.9896C9.90077 14.039 9.63079 14.0449 9.40761 13.989C9.30323 13.9741 9.25494 14.0055 9.16416 14.0568C8.80753 14.2563 8.32152 14.213 7.9372 14.1097C7.38794 13.9351 6.96027 13.5918 6.50791 13.2475C6.45037 13.2039 6.39283 13.1602 6.33528 13.1166C6.02127 12.8783 5.70879 12.6383 5.39973 12.3936C5.34465 12.3501 5.28936 12.3069 5.234 12.2639C4.89069 11.9963 4.55547 11.7192 4.22053 11.4413C3.80153 11.0956 3.37002 10.766 2.93131 10.4458C2.8042 10.3529 2.67861 10.2593 2.55674 10.1596C2.45265 10.2069 2.37249 10.265 2.28489 10.3381C2.06593 10.5115 1.82607 10.6267 1.54386 10.6303C1.51449 10.6308 1.48512 10.6312 1.45487 10.6316C1.40765 10.632 1.40765 10.632 1.35948 10.6324C1.3269 10.6326 1.29432 10.6329 1.26075 10.6332C1.1919 10.6336 1.12305 10.634 1.05419 10.6342C0.948963 10.6348 0.843767 10.6363 0.738545 10.6377C0.671599 10.6381 0.604652 10.6384 0.537705 10.6386C0.506296 10.6392 0.474887 10.6397 0.442526 10.6403C0.299633 10.6399 0.221072 10.6379 0.0972369 10.5613C-0.023091 10.4302 -0.00491164 10.307 -0.00501004 10.1373C-0.00515554 10.1071 -0.00530103 10.0769 -0.00545094 10.0458C-0.00589652 9.94409 -0.00610088 9.84236 -0.006304 9.74063C-0.00656625 9.66794 -0.0068408 9.59526 -0.00712678 9.52257C-0.00799829 9.28334 -0.00850568 9.04412 -0.00897905 8.80489C-0.00915697 8.72265 -0.00933552 8.6404 -0.0095147 8.55816C-0.0102329 8.21617 -0.0108551 7.87417 -0.0112287 7.53217C-0.011326 7.44341 -0.0114243 7.35465 -0.0115244 7.26588C-0.0115492 7.24382 -0.0115739 7.22176 -0.0115995 7.19903C-0.0120197 6.84154 -0.013123 6.48406 -0.0145061 6.12658C-0.0159141 5.75967 -0.0166835 5.39276 -0.0168706 5.02585C-0.0169921 4.8198 -0.0173937 4.61375 -0.0184678 4.4077C-0.0194635 4.2139 -0.0196772 4.02012 -0.0192851 3.82632C-0.0192778 3.75513 -0.0195556 3.68393 -0.0201369 3.61274C-0.0208866 3.51566 -0.0206166 3.41863 -0.0200876 3.32154C-0.0205486 3.29326 -0.0210095 3.26498 -0.0214844 3.23585C-0.0195405 3.09141 -0.0134465 3.03779 0.0802191 2.92121C0.255429 2.78598 0.43389 2.7949 0.638174 2.86152ZM0.730569 3.7182C0.730569 5.75621 0.730569 7.79421 0.730569 9.89398C1.38371 9.95554 1.38371 9.95554 1.88878 9.70781C2.04804 9.49057 2.1332 9.2423 2.22484 8.99153C2.24348 8.94152 2.26217 8.89154 2.28089 8.84156C2.32014 8.73661 2.35915 8.63156 2.39797 8.52644C2.45564 8.37038 2.51411 8.21463 2.57281 8.05895C2.67917 7.77674 2.78502 7.49434 2.89073 7.21188C2.93997 7.08037 2.98924 6.94887 3.03851 6.81737C3.09416 6.66883 3.14981 6.52029 3.20543 6.37173C3.21378 6.34945 3.22212 6.32717 3.23072 6.30422C3.24713 6.26036 3.26352 6.21649 3.27987 6.17261C3.32223 6.05903 3.36524 5.94576 3.4092 5.83279C3.41832 5.80913 3.42743 5.78547 3.43683 5.76109C3.45411 5.71626 3.47158 5.6715 3.48928 5.62683C3.59485 5.35162 3.60047 5.14877 3.48643 4.88031C3.31369 4.5746 2.90546 4.48926 2.5963 4.37902C2.55198 4.36308 2.50767 4.34713 2.46336 4.33117C2.34731 4.28941 2.2312 4.24786 2.11507 4.20634C2.02082 4.17261 1.92661 4.13872 1.83241 4.10483C1.71906 4.06405 1.60568 4.02335 1.4923 3.98265C1.47107 3.97503 1.44984 3.96741 1.42797 3.95956C1.367 3.93769 1.30602 3.91587 1.24503 3.89406C1.21051 3.88171 1.176 3.86935 1.14044 3.85662C1.00431 3.80904 0.867373 3.7638 0.730569 3.7182ZM15.9898 4.50951C15.9529 4.52283 15.916 4.53614 15.8779 4.54987C15.8378 4.56449 15.7978 4.57912 15.7565 4.59419C15.7147 4.60936 15.6729 4.62451 15.631 4.63966C15.543 4.67155 15.455 4.70355 15.3671 4.73563C15.2559 4.7762 15.1445 4.81656 15.0332 4.85685C14.7698 4.95219 14.5069 5.04854 14.2442 5.14593C14.2149 5.15679 14.1855 5.16765 14.1553 5.17883C14.0845 5.20521 14.0139 5.23208 13.9435 5.25929C13.8903 5.27968 13.8903 5.27968 13.836 5.30049C13.6485 5.39374 13.5307 5.53293 13.4454 5.7218C13.3355 6.10431 13.597 6.55316 13.7301 6.9092C13.7479 6.95693 13.7656 7.00467 13.7833 7.05241C13.8303 7.17884 13.8774 7.30522 13.9246 7.43158C13.9538 7.50989 13.983 7.5882 14.0122 7.66653C14.1183 7.95118 14.2246 8.23576 14.3311 8.52027C14.3875 8.67102 14.4438 8.82181 14.5 8.97264C14.562 9.13876 14.6242 9.30477 14.6867 9.47067C14.7083 9.5281 14.7298 9.58557 14.7512 9.64307C14.9395 10.1783 14.9395 10.1783 15.3379 10.5643C15.6229 10.6766 15.9901 10.6244 16.2696 10.6244C16.2696 8.58644 16.2696 6.54843 16.2696 4.44867C16.1602 4.44867 16.0925 4.47226 15.9898 4.50951ZM7.4044 5.64398C7.38547 5.65958 7.36655 5.67518 7.34705 5.69125C6.87248 6.08445 6.44132 6.49622 6.15513 7.04889C6.14374 7.07031 6.13235 7.09173 6.12062 7.11381C6.0428 7.27224 6.02595 7.39341 6.04307 7.56976C6.13174 7.67943 6.20534 7.76143 6.34903 7.77689C6.71274 7.7868 7.02472 7.6699 7.30479 7.43695C7.36804 7.36981 7.42696 7.30146 7.4839 7.22891C7.60898 7.09379 7.77223 7.08213 7.94602 7.04889C8.20596 6.99651 8.42005 6.91008 8.65185 6.78261C8.80163 6.72615 8.87594 6.73711 9.03135 6.77288C9.10022 6.81296 9.10022 6.81296 9.15379 6.86627C9.17562 6.88711 9.19744 6.90796 9.21993 6.92943C9.24536 6.95447 9.27078 6.97951 9.29698 7.00531C9.36642 7.07078 9.43648 7.13558 9.50657 7.20038C9.5252 7.21768 9.54383 7.23498 9.56302 7.25281C9.70371 7.3828 9.84927 7.50507 9.99865 7.62501C10.1077 7.71382 10.2138 7.80556 10.32 7.89764C10.4732 8.03004 10.6289 8.1577 10.789 8.28155C10.9792 8.4287 11.1614 8.58334 11.3422 8.74176C11.4637 8.84819 11.5867 8.95207 11.7125 9.05352C11.8666 9.17828 12.0135 9.30943 12.1591 9.44392C12.2304 9.50897 12.3025 9.5722 12.3757 9.6351C12.5379 9.77665 12.6896 9.92819 12.8414 10.0807C12.8831 10.1222 12.8831 10.1222 12.9256 10.1645C12.9524 10.1914 12.9793 10.2183 13.0069 10.246C13.0309 10.2701 13.055 10.2941 13.0798 10.319C13.1517 10.3954 13.2169 10.4753 13.2814 10.558C13.4504 10.4926 13.6085 10.4115 13.769 10.3277C13.7978 10.313 13.8266 10.2983 13.8562 10.2831C13.8837 10.2688 13.9112 10.2544 13.9396 10.2396C13.9771 10.2202 13.9771 10.2202 14.0154 10.2003C14.088 10.1591 14.088 10.1591 14.1446 10.06C14.1241 9.96386 14.1241 9.96386 14.0808 9.85641C14.0732 9.83583 14.0656 9.81526 14.0577 9.79406C14.0322 9.72538 14.006 9.65697 13.9798 9.58854C13.9616 9.54015 13.9435 9.49175 13.9255 9.44334C13.8769 9.31369 13.8279 9.18425 13.7787 9.05485C13.7282 8.92179 13.6782 8.78854 13.6282 8.6553C13.5492 8.44497 13.4699 8.23475 13.3904 8.0246C13.298 7.78024 13.2063 7.53561 13.1152 7.29078C13.092 7.22853 13.0688 7.16628 13.0456 7.10403C13.035 7.07557 13.0244 7.04711 13.0135 7.01779C13.0033 6.99038 12.993 6.96298 12.9825 6.93475C12.9724 6.90766 12.9623 6.88057 12.9519 6.85266C12.9242 6.77822 12.8963 6.70382 12.8684 6.62944C12.8534 6.58928 12.8383 6.54913 12.8229 6.50776C12.8098 6.47473 12.7968 6.44169 12.7833 6.40765C12.774 6.38239 12.7646 6.35712 12.755 6.3311C12.7001 6.25001 12.6465 6.24126 12.5531 6.21544C12.519 6.20561 12.4849 6.19579 12.4498 6.18567C12.4126 6.17538 12.3754 6.16508 12.3371 6.15448C11.6022 5.93818 10.9087 5.66705 10.222 5.32965C9.18815 4.82497 8.29536 4.90711 7.4044 5.64398ZM5.88818 5.75506C5.84964 5.75838 5.81109 5.76171 5.77137 5.76514C5.72976 5.76894 5.68815 5.77274 5.64528 5.77666C5.60268 5.78039 5.56007 5.78413 5.51618 5.78797C5.40301 5.79789 5.28986 5.80805 5.17671 5.81827C5.06122 5.82865 4.9457 5.8388 4.83018 5.84897C4.6036 5.86895 4.37704 5.88919 4.15049 5.9096C4.03785 6.20404 3.92526 6.49849 3.81272 6.79296C3.76175 6.92634 3.71074 7.05971 3.65968 7.19306C3.55413 7.4687 3.44881 7.74442 3.34405 8.02036C3.29563 8.14788 3.24705 8.27534 3.19819 8.40269C3.14958 8.52938 3.10132 8.65621 3.05332 8.78313C3.03525 8.8307 3.01706 8.87823 2.99874 8.9257C2.97355 8.99103 2.94882 9.05651 2.9242 9.12205C2.91009 9.15905 2.89598 9.19605 2.88145 9.23417C2.85539 9.33018 2.84991 9.37217 2.88877 9.46234C3.10695 9.68423 3.3859 9.85952 3.63656 10.043C4.04186 10.3401 4.43739 10.648 4.81896 10.975C4.92968 11.0693 5.0426 11.1603 5.15657 11.2506C5.22382 11.304 5.2908 11.3576 5.35761 11.4115C5.59961 11.6065 5.84402 11.7978 6.09141 11.9859C6.23814 12.0976 6.38393 12.2103 6.52908 12.324C6.7634 12.5074 6.99947 12.6883 7.23838 12.8657C7.27587 12.8937 7.27587 12.8937 7.31411 12.9223C7.54622 13.0935 7.78725 13.2639 8.06223 13.3575C8.09121 13.3676 8.12019 13.3778 8.15004 13.3882C8.31476 13.4376 8.46072 13.4501 8.63291 13.4467C8.49678 13.2843 8.35535 13.1318 8.20452 12.983C8.18324 12.9619 8.16196 12.9407 8.14004 12.9189C8.05008 12.8295 7.95992 12.7403 7.86977 12.651C7.8035 12.5854 7.73735 12.5196 7.67119 12.4539C7.64124 12.4243 7.64124 12.4243 7.61069 12.3942C7.12988 11.9161 7.12988 11.9161 7.12632 11.7077C7.12958 11.6024 7.1399 11.5518 7.1865 11.4545C7.28925 11.3743 7.36329 11.3597 7.49026 11.3434C7.70762 11.3747 7.85785 11.5732 7.99713 11.7272C8.04126 11.7751 8.08546 11.8229 8.12971 11.8707C8.15242 11.8952 8.17514 11.9198 8.19854 11.9451C8.3759 12.1347 8.55949 12.3182 8.74278 12.5021C8.81228 12.5719 8.88141 12.6421 8.95055 12.7122C8.9957 12.7576 9.04088 12.8029 9.08608 12.8483C9.11629 12.8791 9.11629 12.8791 9.1471 12.9105C9.31754 13.0801 9.50708 13.2597 9.74937 13.3014C9.90762 13.2721 10.0333 13.2208 10.1379 13.0947C10.1698 13.0475 10.1985 12.9982 10.2267 12.9487C10.1792 12.8403 10.1214 12.769 10.0375 12.6861C9.99978 12.6485 9.99978 12.6485 9.96126 12.6102C9.93401 12.5834 9.90676 12.5566 9.87868 12.529C9.85058 12.501 9.82248 12.4731 9.79354 12.4443C9.70357 12.355 9.61339 12.2658 9.52317 12.1767C9.43358 12.088 9.34403 11.9993 9.25459 11.9105C9.19895 11.8552 9.14322 11.8001 9.0874 11.7451C8.60502 11.2667 8.60502 11.2667 8.5333 11.0561C8.53852 10.9048 8.55734 10.7996 8.66612 10.6909C8.78629 10.6508 8.87172 10.6469 8.99815 10.6577C9.1646 10.7517 9.28119 10.8718 9.40709 11.0122C9.64904 11.2766 9.89927 11.5318 10.1526 11.7851C10.2255 11.858 10.2981 11.9312 10.3707 12.0045C10.4177 12.0516 10.4648 12.0987 10.5119 12.1458C10.5332 12.1674 10.5545 12.1889 10.5764 12.2111C10.8127 12.4525 10.8127 12.4525 11.119 12.5689C11.3084 12.556 11.4874 12.4808 11.6253 12.351C11.6627 12.2657 11.6538 12.2384 11.6212 12.1518C11.5626 12.079 11.5626 12.079 11.487 12.0068C11.4443 11.9642 11.4443 11.9642 11.4007 11.9208C11.3541 11.8752 11.3541 11.8752 11.3065 11.8286C11.2744 11.7967 11.2422 11.7647 11.2101 11.7328C11.1253 11.6486 11.0403 11.5647 10.9552 11.4809C10.8197 11.3473 10.6845 11.2133 10.5494 11.0793C10.5025 11.0329 10.4555 10.9866 10.4085 10.9403C10.2577 10.7912 10.1118 10.6405 9.97435 10.479C9.89535 10.3877 9.80679 10.3069 9.71863 10.2246C9.62068 10.1118 9.59422 10.0237 9.60203 9.8753C9.62832 9.76405 9.64868 9.70829 9.72862 9.62835C9.88253 9.57705 10.006 9.56844 10.154 9.6408C10.3559 9.79303 10.5301 9.98732 10.694 10.1787C10.8356 10.3409 10.9866 10.4927 11.139 10.6447C11.1685 10.6742 11.198 10.7037 11.2283 10.7342C11.3061 10.8119 11.3838 10.8895 11.4617 10.9672C11.525 11.0305 11.5883 11.0939 11.6516 11.1573C11.7276 11.2335 11.8037 11.3095 11.8798 11.3855C11.908 11.4138 11.9362 11.442 11.9652 11.4712C11.9917 11.4975 12.0182 11.5239 12.0455 11.5511C12.0686 11.5742 12.0918 11.5973 12.1156 11.6211C12.266 11.7735 12.266 11.7735 12.4637 11.8239C12.6147 11.7771 12.7092 11.7017 12.8165 11.5873C12.8768 11.4667 12.8757 11.351 12.8497 11.2221C12.6975 10.9518 12.4724 10.7313 12.2524 10.5158C12.2021 10.4665 12.1521 10.4169 12.1023 10.3673C11.9254 10.1918 11.7448 10.0221 11.5548 9.86078C11.5165 9.82768 11.4782 9.79456 11.44 9.76143C11.2343 9.58448 11.0272 9.40982 10.8165 9.23887C10.715 9.15551 10.615 9.07037 10.5151 8.98504C10.3678 8.85944 10.2178 8.73834 10.0648 8.61981C9.74668 8.3728 9.44505 8.10673 9.14756 7.83538C9.12141 7.81236 9.09526 7.78933 9.06831 7.76561C8.99815 7.70257 8.99815 7.70257 8.94147 7.64161C8.88127 7.58391 8.84731 7.55554 8.76573 7.53656C8.65128 7.56532 8.5503 7.60769 8.4429 7.65653C8.34292 7.69883 8.26651 7.71598 8.15977 7.72747C7.98159 7.75774 7.90569 7.8571 7.78714 7.98649C7.401 8.36069 6.86895 8.48731 6.34627 8.48195C6.13602 8.47446 5.95828 8.44776 5.77744 8.33343C5.75626 8.32051 5.73507 8.30758 5.71324 8.29426C5.52343 8.15629 5.41468 7.95653 5.3458 7.73578C5.2667 7.23383 5.42643 6.76241 5.7166 6.35295C5.86236 6.15497 6.01795 5.96513 6.17588 5.77679C6.06605 5.74018 6.00278 5.74487 5.88818 5.75506Z" fill="white"/>
</g>
<defs>
<clipPath id="clip0_657_45237">
<rect width="17" height="17" fill="white"/>
</clipPath>
</defs>
</svg>
