<svg width="18" height="18" viewBox="0 0 18 18" fill="none" xmlns="http://www.w3.org/2000/svg">
<g clip-path="url(#clip0_657_45303)">
<path d="M7.4032 0.904489C7.55366 0.904671 7.70412 0.904501 7.85459 0.904391C8.107 0.904265 8.35942 0.904429 8.61184 0.904767C8.90099 0.905149 9.19013 0.905026 9.47928 0.904639C9.73038 0.904316 9.98147 0.904276 10.2326 0.904458C10.3813 0.904566 10.53 0.904587 10.6787 0.90435C12.3582 0.902046 14.1598 0.969011 15.5038 2.10925C15.5388 2.13657 15.5388 2.13657 15.5745 2.16445C16.5258 2.93243 16.8887 4.28014 17.0269 5.43904C17.0952 6.09339 17.0963 6.74739 17.0953 7.40435C17.0951 7.55493 17.0952 7.7055 17.0954 7.85607C17.0955 8.10864 17.0953 8.3612 17.095 8.61377C17.0946 8.9032 17.0947 9.19262 17.0951 9.48205C17.0954 9.73333 17.0955 9.9846 17.0953 10.2359C17.0952 10.3847 17.0952 10.5336 17.0954 10.6824C17.0977 12.3589 17.0281 14.1629 15.8905 15.5038C15.8632 15.5388 15.8632 15.5388 15.8353 15.5745C15.0796 16.5106 13.7386 16.8933 12.5938 17.0269C11.9269 17.0936 11.2612 17.0963 10.5918 17.0953C10.4413 17.0951 10.2909 17.0952 10.1404 17.0954C9.88803 17.0955 9.63568 17.0953 9.38332 17.095C9.09415 17.0946 8.80499 17.0947 8.51582 17.0951C8.26469 17.0954 8.01357 17.0955 7.76244 17.0953C7.6137 17.0952 7.46496 17.0952 7.31622 17.0954C5.64014 17.0977 3.83658 17.0279 2.49597 15.8905C2.46096 15.8632 2.46096 15.8632 2.42524 15.8353C1.48918 15.0796 1.10646 13.7385 0.972873 12.5938C0.906184 11.9273 0.903422 11.262 0.904489 10.593C0.904671 10.4426 0.904501 10.2922 0.904392 10.1419C0.904265 9.88967 0.904429 9.63746 0.904767 9.38525C0.90515 9.09636 0.905025 8.80748 0.904638 8.51859C0.904316 8.26764 0.904276 8.0167 0.904459 7.76575C0.904567 7.61715 0.904587 7.46854 0.90435 7.31994C0.902044 5.64078 0.969273 3.83967 2.10925 2.49596C2.12746 2.47263 2.14568 2.44929 2.16445 2.42524C2.93242 1.47396 4.28016 1.11097 5.43906 0.972873C6.09303 0.904582 6.74662 0.903443 7.4032 0.904489ZM3.05847 3.16393C2.03355 4.31716 2.06234 5.95102 2.06465 7.40195C2.06483 7.55272 2.06466 7.7035 2.06455 7.85428C2.06442 8.1072 2.06459 8.36013 2.06492 8.61305C2.06531 8.90302 2.06518 9.19298 2.06479 9.48295C2.06447 9.73455 2.06443 9.98615 2.06462 10.2377C2.06472 10.3869 2.06474 10.536 2.06451 10.6851C2.05578 12.9524 2.05578 12.9524 3.11285 14.8912C4.21997 15.9771 5.93922 15.9373 7.37858 15.9351C7.53153 15.9349 7.68449 15.9351 7.83744 15.9352C8.09403 15.9353 8.35062 15.9352 8.60721 15.9348C8.90155 15.9344 9.19589 15.9346 9.49023 15.9349C9.74544 15.9353 10.0007 15.9353 10.2559 15.9351C10.4072 15.935 10.5585 15.935 10.7099 15.9352C12.9643 15.9411 12.9643 15.9411 14.8912 14.8869C15.9823 13.7744 15.9374 12.0435 15.9351 10.5978C15.9349 10.447 15.9351 10.2962 15.9352 10.1455C15.9353 9.89254 15.9352 9.63962 15.9348 9.38669C15.9344 9.09673 15.9346 8.80676 15.9349 8.51679C15.9353 8.26519 15.9353 8.01359 15.9351 7.76199C15.935 7.61288 15.935 7.46377 15.9352 7.31465C15.944 5.04731 15.944 5.04731 14.8869 3.10857C13.9412 2.181 12.5051 2.06849 11.253 2.06898C11.1988 2.06888 11.1446 2.06876 11.0904 2.06863C10.9447 2.06832 10.799 2.06823 10.6532 2.06821C10.5617 2.06818 10.4702 2.06811 10.3786 2.06802C10.0579 2.06769 9.73715 2.06755 9.4164 2.06758C9.11973 2.0676 8.82306 2.06723 8.52639 2.06667C8.26984 2.06621 8.01329 2.06602 7.75674 2.06604C7.60434 2.06605 7.45195 2.06596 7.29955 2.06558C5.00058 2.05728 5.00058 2.05728 3.05847 3.16393Z" fill="white"/>
<path d="M9.31158 11.3152C9.34692 11.315 9.38225 11.3148 9.41866 11.3146C9.4574 11.3146 9.49614 11.3145 9.53605 11.3145C9.59729 11.3142 9.59729 11.3142 9.65976 11.314C9.79514 11.3134 9.93051 11.3132 10.0659 11.313C10.1361 11.3129 10.2063 11.3127 10.2765 11.3126C10.4721 11.3121 10.6677 11.3119 10.8634 11.3118C11.1162 11.3116 11.369 11.311 11.6218 11.31C11.8173 11.3092 12.0128 11.3088 12.2084 11.3088C12.3251 11.3088 12.4418 11.3085 12.5585 11.3079C12.6888 11.3073 12.8191 11.3074 12.9494 11.3076C12.9879 11.3073 13.0264 11.307 13.0661 11.3066C13.2878 11.3079 13.4578 11.3211 13.6277 11.4796C13.7881 11.6894 13.8075 11.8309 13.7808 12.0936C13.704 12.2501 13.6071 12.3463 13.4644 12.4452C13.3613 12.4795 13.294 12.485 13.1866 12.4857C13.1511 12.486 13.1156 12.4863 13.0789 12.4866C13.04 12.4868 13.001 12.4869 12.9609 12.4871C12.9198 12.4874 12.8788 12.4877 12.8365 12.488C12.7003 12.4888 12.5641 12.4894 12.428 12.4899C12.381 12.4901 12.334 12.4903 12.2871 12.4905C12.0917 12.4913 11.8963 12.4919 11.7009 12.4923C11.4213 12.4929 11.1417 12.494 10.8621 12.496C10.6653 12.4974 10.4684 12.4981 10.2716 12.4983C10.1542 12.4984 10.0368 12.4989 9.91932 12.5C9.78811 12.5011 9.65696 12.5011 9.52575 12.5008C9.46785 12.5017 9.46785 12.5017 9.40878 12.5026C9.16923 12.5006 9.00845 12.4618 8.82375 12.3045C8.70141 12.1625 8.6787 11.9957 8.68312 11.8123C8.74085 11.5995 8.85596 11.4764 9.03469 11.3553C9.13773 11.321 9.20425 11.3156 9.31158 11.3152Z" fill="white"/>
<path d="M9.5229 6.06377C9.56438 6.06353 9.60585 6.06328 9.64858 6.06303C9.76176 6.06251 9.87491 6.06263 9.98808 6.06308C10.1069 6.06344 10.2256 6.0631 10.3444 6.06288C10.5438 6.06263 10.7433 6.06296 10.9427 6.06364C11.1728 6.0644 11.4029 6.06415 11.633 6.06338C11.8311 6.06274 12.0291 6.06265 12.2272 6.06302C12.3452 6.06324 12.4633 6.06327 12.5814 6.0628C12.7131 6.06244 12.8448 6.06299 12.9765 6.06377C13.0347 6.06335 13.0347 6.06335 13.0941 6.06291C13.319 6.06538 13.4581 6.08737 13.6403 6.22259C13.7799 6.39796 13.8035 6.54174 13.7944 6.76449C13.767 6.94954 13.6774 7.03837 13.5326 7.14764C13.3997 7.22402 13.306 7.24654 13.1554 7.24706C13.1207 7.24726 13.086 7.24746 13.0502 7.24767C13.0122 7.24771 12.9742 7.24775 12.935 7.24779C12.8749 7.24805 12.8749 7.24805 12.8136 7.24832C12.6806 7.24883 12.5477 7.24907 12.4148 7.24927C12.3225 7.24947 12.2302 7.24967 12.138 7.24987C11.9691 7.25021 11.8002 7.25042 11.6313 7.25052C11.3831 7.25068 11.1349 7.2513 10.8866 7.25232C10.6714 7.25317 10.4561 7.25344 10.2409 7.2535C10.1494 7.25361 10.058 7.25389 9.96653 7.25435C9.83853 7.25495 9.71054 7.25488 9.58254 7.25466C9.5448 7.25498 9.50706 7.2553 9.46817 7.25564C9.20474 7.25417 9.0239 7.23119 8.83049 7.03778C8.70691 6.85771 8.66378 6.71637 8.69975 6.5022C8.7441 6.33917 8.82747 6.24585 8.96121 6.14738C9.13963 6.04991 9.32423 6.06232 9.5229 6.06377Z" fill="white"/>
<path d="M7.35637 10.2894C7.4914 10.403 7.58046 10.4924 7.60713 10.6726C7.61809 10.9393 7.55189 11.1032 7.37513 11.3022C7.27472 11.4068 7.17273 11.5095 7.0699 11.6116C7.03197 11.6496 6.99405 11.6876 6.95615 11.7257C6.87695 11.805 6.79756 11.8842 6.71803 11.9632C6.6164 12.0643 6.51526 12.1658 6.41425 12.2674C6.33614 12.3459 6.25779 12.4241 6.17935 12.5023C6.14197 12.5396 6.10465 12.577 6.06743 12.6145C6.01528 12.6669 5.96281 12.7189 5.91024 12.7709C5.88053 12.8005 5.85082 12.8302 5.82021 12.8607C5.67456 12.9846 5.53634 13.0576 5.34367 13.0558C5.30126 13.0562 5.30126 13.0562 5.25798 13.0566C4.98029 13.0134 4.80659 12.8061 4.61638 12.6163C4.58636 12.5876 4.55633 12.5589 4.5254 12.5293C4.31896 12.3243 4.19304 12.1492 4.17871 11.8536C4.21866 11.6486 4.28781 11.5282 4.45502 11.4003C4.61137 11.312 4.75341 11.2995 4.92784 11.3359C5.09447 11.3897 5.1948 11.4697 5.30852 11.6012C5.41979 11.5521 5.49298 11.4949 5.57738 11.4078C5.61418 11.3702 5.61418 11.3702 5.65173 11.3317C5.67791 11.3046 5.7041 11.2775 5.73108 11.2496C5.78716 11.1925 5.84326 11.1354 5.89938 11.0782C5.98751 10.9881 6.07549 10.8979 6.16319 10.8074C6.24801 10.7201 6.33337 10.6332 6.41882 10.5465C6.4448 10.5194 6.47077 10.4923 6.49753 10.4644C6.75365 10.2058 7.01895 10.1142 7.35637 10.2894Z" fill="white"/>
<path d="M7.28394 4.99588C7.4205 5.08693 7.51945 5.19445 7.59375 5.34305C7.60213 5.4271 7.60213 5.4271 7.60474 5.52762C7.60671 5.57684 7.60671 5.57684 7.60872 5.62705C7.5782 5.83651 7.41976 5.98297 7.27536 6.12813C7.25814 6.14553 7.24091 6.16294 7.22316 6.18087C7.16674 6.23778 7.11006 6.29442 7.05336 6.35105C7.01378 6.39077 6.9742 6.4305 6.93463 6.47023C6.85192 6.55321 6.76907 6.63605 6.68613 6.7188C6.57999 6.82473 6.47426 6.93106 6.36863 7.03751C6.28711 7.11955 6.20535 7.20134 6.12351 7.28306C6.08442 7.32217 6.04542 7.36136 6.00649 7.40064C5.95207 7.4555 5.89732 7.51001 5.84247 7.56445C5.79591 7.61104 5.79591 7.61104 5.74842 7.65857C5.60207 7.78311 5.46948 7.82117 5.27651 7.81469C4.99399 7.77349 4.80143 7.56246 4.61206 7.36673C4.58571 7.34033 4.55936 7.31394 4.5322 7.28674C4.32946 7.08073 4.18359 6.91199 4.18359 6.60868C4.21646 6.43242 4.26539 6.31245 4.39453 6.1868C4.57945 6.08367 4.71555 6.06168 4.92188 6.08133C5.0911 6.14564 5.20751 6.24729 5.34375 6.36258C5.3595 6.34652 5.37525 6.33046 5.39148 6.31391C5.55588 6.14639 5.72079 5.97936 5.88599 5.81262C5.94752 5.75038 6.00893 5.68801 6.07021 5.62551C6.15846 5.53555 6.24716 5.44606 6.33595 5.35665C6.36314 5.32874 6.39032 5.30083 6.41832 5.27207C6.67187 5.01843 6.92026 4.86753 7.28394 4.99588Z" fill="white"/>
</g>
<defs>
<clipPath id="clip0_657_45303">
<rect width="18" height="18" fill="white"/>
</clipPath>
</defs>
</svg>
