<svg width="17" height="17" viewBox="0 0 17 17" fill="none" xmlns="http://www.w3.org/2000/svg">
<g clip-path="url(#clip0_657_45291)">
<path d="M8.89435 0.0522307C9.13116 0.17698 9.3111 0.377909 9.49681 0.56649C9.55759 0.626312 9.62002 0.68187 9.685 0.737045C9.83141 0.86266 9.96538 0.999719 10.1007 1.13697C10.1989 1.23598 10.2979 1.3305 10.4051 1.41978C10.6322 1.61419 10.8009 1.82462 10.8313 2.12924C10.8439 2.41052 10.7589 2.64216 10.5832 2.86062C10.3815 3.07589 10.1788 3.18802 9.88215 3.19823C9.69856 3.20175 9.62145 3.16013 9.42976 3.08824C9.44619 6.78624 9.44619 6.78624 9.46296 10.5589C9.53966 10.4055 9.61636 10.2521 9.69538 10.0941C9.75196 10.0018 9.80727 9.91412 9.8697 9.8264C9.88522 9.8043 9.90075 9.78219 9.91675 9.75942C10.8446 8.4579 12.1492 7.64752 13.7035 7.31659C13.7852 7.30416 13.8629 7.30306 13.9454 7.30504C13.931 7.27961 13.931 7.27961 13.9163 7.25368C13.7952 7.01652 13.7641 6.78357 13.8357 6.52412C13.9567 6.22552 14.1504 6.03926 14.4434 5.91051C14.6673 5.82279 14.8951 5.8228 15.1211 5.90718C15.3367 6.00994 15.4801 6.13448 15.6367 6.3131C15.6825 6.36368 15.7284 6.41422 15.7744 6.46471C15.7965 6.4892 15.8186 6.51369 15.8413 6.53892C15.9266 6.63207 16.0155 6.72055 16.1057 6.80907C16.2243 6.92633 16.336 7.04639 16.4439 7.17352C16.5111 7.24884 16.5829 7.318 16.6556 7.38805C16.9006 7.63014 17.0033 7.82826 17.0125 8.17247C17.0136 8.44226 16.9518 8.63315 16.7721 8.83588C16.7274 8.88083 16.6818 8.92494 16.6355 8.96818C16.5729 9.02733 16.518 9.08822 16.4626 9.15404C16.3545 9.28007 16.2382 9.39638 16.1202 9.51305C16.0036 9.62835 15.8885 9.7431 15.7819 9.8679C15.268 10.4685 15.268 10.4685 14.8923 10.4993C14.5267 10.5056 14.3174 10.4267 14.0507 10.1721C13.8752 9.98236 13.8077 9.80074 13.8084 9.54417C13.8083 9.51263 13.8082 9.48109 13.8082 9.44859C13.8126 9.36363 13.8126 9.36363 13.8458 9.26402C13.2043 9.39158 12.6486 9.70755 12.1524 10.1273C12.1304 10.1445 12.1084 10.1616 12.0857 10.1793C11.4197 10.7173 11.0134 11.5971 10.8653 12.4239C10.8611 12.4466 10.857 12.4693 10.8527 12.4926C10.8415 12.5558 10.8313 12.6191 10.8212 12.6824C10.7911 12.7836 10.7911 12.7836 10.7278 12.8467C10.6325 12.8967 10.5652 12.8942 10.4591 12.8832C10.3362 12.8367 10.3362 12.8367 10.293 12.7504C10.1832 12.0018 10.6434 11.0439 11.0762 10.4543C11.1446 10.3652 11.2161 10.279 11.2891 10.1937C11.3043 10.1757 11.3195 10.1578 11.3352 10.1393C12.0682 9.28118 13.1493 8.70471 14.2774 8.59996C14.3203 8.59527 14.3203 8.59527 14.3641 8.59049C14.5044 8.58155 14.5591 8.58809 14.6779 8.67052C14.755 8.78492 14.7591 8.82969 14.7423 8.96519C14.6792 9.05988 14.6792 9.05988 14.597 9.15196C14.4193 9.34546 14.4193 9.34546 14.3791 9.59398C14.4009 9.73665 14.4636 9.80421 14.5762 9.89488C14.6861 9.94979 14.7905 9.95322 14.9083 9.92809C15.0098 9.86317 15.0901 9.78178 15.1739 9.69566C15.1938 9.67657 15.2136 9.65749 15.2341 9.63782C15.3313 9.54361 15.4222 9.44585 15.5101 9.34288C15.619 9.21623 15.7359 9.09916 15.8546 8.9818C15.9942 8.84356 16.1313 8.7051 16.2574 8.55418C16.2971 8.50711 16.3402 8.46296 16.3837 8.41942C16.4591 8.29579 16.4671 8.17638 16.4356 8.03551C16.3378 7.86003 16.2029 7.72979 16.06 7.59142C15.9121 7.44603 15.7684 7.30084 15.6346 7.14227C15.494 6.98496 15.341 6.83882 15.1909 6.69068C15.1431 6.64333 15.0957 6.59553 15.0483 6.54772C14.9571 6.45714 14.9571 6.45714 14.8419 6.40855C14.6664 6.41493 14.5678 6.45017 14.4434 6.57457C14.3674 6.68312 14.3614 6.77611 14.377 6.9066C14.4448 7.03397 14.5275 7.12337 14.6323 7.21996C14.7191 7.30459 14.7421 7.33785 14.7796 7.4586C14.7747 7.59147 14.7705 7.642 14.6758 7.73668C14.4903 7.79147 14.2938 7.81101 14.1022 7.83417C12.9351 7.97864 11.9073 8.49392 11.0567 9.29723C11.0302 9.32158 11.0037 9.34593 10.9764 9.37103C10.0665 10.2375 9.50867 11.5498 9.45969 12.8007C9.45823 12.8878 9.45772 12.9749 9.45761 13.062C9.45744 13.0948 9.45728 13.1275 9.45711 13.1612C9.45663 13.2682 9.4564 13.3752 9.45621 13.4822C9.45612 13.519 9.45603 13.5558 9.45593 13.5937C9.45543 13.7879 9.45513 13.9822 9.45498 14.1764C9.4548 14.3767 9.454 14.577 9.45306 14.7773C9.45244 14.9317 9.45226 15.0862 9.45221 15.2407C9.45211 15.3145 9.45185 15.3884 9.45141 15.4622C9.45084 15.5654 9.45091 15.6686 9.45112 15.7719C9.45082 15.8022 9.45051 15.8325 9.4502 15.8637C9.45139 16.0465 9.4754 16.1745 9.56257 16.3363C9.6735 16.4345 9.77961 16.4554 9.9278 16.45C10.0491 16.4242 10.1088 16.3587 10.1934 16.2699C10.2317 16.1551 10.2312 16.0653 10.2319 15.9441C10.232 15.9213 10.2322 15.8984 10.2324 15.8749C10.2327 15.8253 10.233 15.7758 10.2332 15.7262C10.2336 15.6478 10.2343 15.5694 10.235 15.4909C10.2371 15.268 10.2389 15.045 10.24 14.8221C10.2407 14.6857 10.2418 14.5493 10.2433 14.4129C10.2438 14.3609 10.2441 14.3089 10.2442 14.2569C10.2443 14.1843 10.2451 14.1116 10.246 14.039C10.2464 13.9769 10.2464 13.9769 10.2468 13.9137C10.2598 13.8129 10.2598 13.8129 10.3035 13.7507C10.3972 13.6879 10.4807 13.6839 10.5919 13.68C10.6897 13.7247 10.7427 13.7493 10.7911 13.8461C10.7947 13.9201 10.796 13.9942 10.7964 14.0683C10.7966 14.0911 10.7968 14.114 10.7969 14.1375C10.7974 14.2134 10.7976 14.2892 10.7978 14.365C10.798 14.4178 10.7982 14.4706 10.7984 14.5233C10.7987 14.6342 10.7989 14.7451 10.7991 14.856C10.7992 14.9975 10.8 15.139 10.801 15.2805C10.8016 15.3897 10.8018 15.4989 10.8018 15.608C10.8019 15.6602 10.8022 15.7123 10.8026 15.7644C10.8057 16.1616 10.7853 16.4667 10.4987 16.7696C10.2667 16.9757 10.0153 17.0116 9.71496 17.0101C9.51978 16.9942 9.37627 16.9159 9.21186 16.8157C9.10841 16.7971 9.08319 16.8225 8.99604 16.8779C8.97442 16.8935 8.95281 16.9092 8.93054 16.9253C8.72837 17.0551 8.41091 17.031 8.18516 16.9827C8.0435 16.9322 7.92358 16.8555 7.8028 16.7679C7.7802 16.7878 7.7576 16.8076 7.73432 16.8281C7.4805 17.0171 7.25182 17.0316 6.93952 17.0004C6.69389 16.9389 6.47812 16.7775 6.33019 16.5731C6.24103 16.4237 6.20505 16.2962 6.20447 16.1243C6.20429 16.0954 6.20411 16.0665 6.20392 16.0366C6.20389 16.0051 6.20385 15.9737 6.20381 15.9412C6.20365 15.9078 6.20348 15.8744 6.2033 15.84C6.20295 15.7675 6.20266 15.6949 6.20244 15.6223C6.20204 15.5069 6.2014 15.3915 6.20067 15.2762C6.19863 14.9481 6.19684 14.62 6.19572 14.2918C6.19502 14.091 6.19385 13.8902 6.19238 13.6894C6.19191 13.6134 6.19162 13.5373 6.19151 13.4613C6.19067 12.9146 6.17281 12.3704 5.98701 11.8497C5.97859 11.8254 5.97017 11.8012 5.9615 11.7762C5.75996 11.2152 5.45554 10.7598 5.04694 10.3265C5.02456 10.3016 5.00217 10.2767 4.97911 10.251C4.52018 9.76025 3.86097 9.44252 3.22077 9.26402C3.19886 9.26402 3.17694 9.26402 3.15436 9.26402C3.1708 9.31333 3.1708 9.31333 3.18757 9.36363C3.21691 9.65269 3.17778 9.9033 2.99613 10.136C2.80666 10.3378 2.58701 10.4767 2.30717 10.4993C1.94862 10.5054 1.7719 10.4225 1.51133 10.1759C1.48376 10.1489 1.4562 10.1219 1.4278 10.0941C1.38851 10.0562 1.38851 10.0562 1.34843 10.0174C1.23451 9.90566 1.12467 9.79218 1.02106 9.67076C0.913704 9.54534 0.798031 9.42982 0.680731 9.31383C0.524194 9.15887 0.373488 9.00182 0.232489 8.83238C0.207836 8.80431 0.183183 8.77623 0.157782 8.7473C0.0257464 8.56339 -0.0179278 8.39503 -0.014459 8.17039C-0.0139735 8.1352 -0.0139735 8.1352 -0.0134782 8.0993C0.00198423 7.6457 0.355869 7.37772 0.660758 7.07703C0.723011 7.01385 0.781057 6.94927 0.838446 6.8817C0.963229 6.73592 1.09961 6.60264 1.2363 6.46818C1.33644 6.36915 1.43031 6.26908 1.51911 6.15953C1.67031 5.98163 1.86249 5.88067 2.09186 5.8441C2.39767 5.82012 2.65321 5.91166 2.88718 6.10622C3.11364 6.33916 3.19872 6.58273 3.19755 6.90115C3.18299 7.05441 3.12703 7.17141 3.05475 7.30504C3.07708 7.30645 3.0994 7.30786 3.12239 7.30931C3.34567 7.32611 3.55318 7.36305 3.76862 7.42332C3.80007 7.43206 3.83151 7.4408 3.86391 7.44981C5.32932 7.87243 6.57896 8.86 7.3412 10.1783C7.38758 10.2627 7.43185 10.3471 7.47472 10.4333C7.48647 10.4569 7.49823 10.4806 7.51034 10.5049C7.5192 10.5227 7.52805 10.5406 7.53718 10.5589C7.5373 10.5188 7.5373 10.5188 7.53742 10.4778C7.53938 9.8269 7.54189 9.17599 7.545 8.52508C7.5465 8.2103 7.54781 7.89553 7.54868 7.58076C7.54944 7.30646 7.55055 7.03216 7.55207 6.75787C7.55287 6.61257 7.55349 6.46729 7.5537 6.32199C7.5539 6.18532 7.55456 6.04865 7.55558 5.91198C7.55587 5.86175 7.55599 5.81151 7.55594 5.76128C7.55588 5.69282 7.55643 5.62439 7.55714 5.55593C7.55729 5.51758 7.55745 5.47923 7.5576 5.43972C7.57038 5.34605 7.57038 5.34605 7.61388 5.28482C7.70588 5.2219 7.79296 5.219 7.90241 5.21324C7.97919 5.23399 7.97919 5.23399 8.03522 5.27965C8.09459 5.40126 8.10995 5.49907 8.11004 5.63364C8.11023 5.67134 8.11041 5.70904 8.11061 5.74788C8.11041 5.80978 8.11041 5.80978 8.11021 5.87292C8.1103 5.91732 8.11042 5.96172 8.11058 6.00611C8.11091 6.12808 8.11083 6.25003 8.11068 6.372C8.1106 6.50354 8.1109 6.63509 8.11116 6.76664C8.11156 6.99457 8.11173 7.22251 8.11176 7.45044C8.1118 7.78018 8.1123 8.10992 8.11293 8.43966C8.11396 8.97487 8.11476 9.51009 8.11535 10.0453C8.11541 10.0934 8.11541 10.0934 8.11546 10.1424C8.11585 10.4999 8.11619 10.8574 8.11647 11.2148C8.11657 11.3445 8.11668 11.4742 8.11678 11.6038C8.11682 11.6518 8.11682 11.6518 8.11686 11.7008C8.11729 12.234 8.11811 12.7672 8.11923 13.3004C8.1199 13.6294 8.12024 13.9584 8.12016 14.2873C8.12012 14.5127 8.12044 14.738 8.12104 14.9633C8.12138 15.0934 8.12155 15.2235 8.12128 15.3535C8.12105 15.4726 8.12126 15.5916 8.12184 15.7106C8.12204 15.7742 8.12173 15.8377 8.12142 15.9013C8.12169 15.939 8.12196 15.9767 8.12224 16.0155C8.12228 16.0643 8.12228 16.0643 8.12232 16.1141C8.14001 16.2405 8.18913 16.3343 8.29047 16.4131C8.40587 16.4474 8.5147 16.455 8.63288 16.4359C8.77421 16.3615 8.77421 16.3615 8.8653 16.2367C8.86855 16.1624 8.86957 16.0881 8.86963 16.0138C8.86969 15.9905 8.86976 15.9672 8.86982 15.9432C8.87 15.8644 8.86994 15.7855 8.86988 15.7067C8.86997 15.6499 8.87006 15.5931 8.87017 15.5364C8.87043 15.3797 8.87048 15.2231 8.8705 15.0665C8.87056 14.8978 8.87082 14.7291 8.87105 14.5604C8.87143 14.2679 8.87171 13.9754 8.87192 13.6829C8.87226 13.2207 8.87294 12.7586 8.87368 12.2965C8.87393 12.1385 8.87418 11.9805 8.87442 11.8225C8.87451 11.7633 8.87451 11.7633 8.87461 11.7029C8.8753 11.2531 8.87593 10.8034 8.87652 10.3536C8.87658 10.3125 8.87663 10.2714 8.87669 10.229C8.87756 9.56235 8.87818 8.89569 8.87873 8.22902C8.87931 7.54514 8.88027 6.86127 8.88155 6.17739C8.88233 5.75525 8.88279 5.33311 8.88286 4.91097C8.88293 4.62179 8.88335 4.33261 8.88407 4.04343C8.88447 3.87644 8.8847 3.70945 8.88451 3.54246C8.88433 3.38969 8.88461 3.23693 8.88526 3.08416C8.88541 3.02879 8.88539 2.97342 8.88519 2.91805C8.88494 2.84297 8.88531 2.76791 8.88582 2.69282C8.88587 2.65106 8.88591 2.6093 8.88596 2.56628C8.89955 2.4483 8.92699 2.3855 8.99811 2.29137C9.10637 2.23724 9.17668 2.24265 9.29694 2.25816C9.39422 2.32639 9.47711 2.4083 9.56257 2.49059C9.68305 2.59312 9.75709 2.63398 9.91328 2.62547C10.02 2.60693 10.0672 2.58581 10.1602 2.52379C10.2452 2.39633 10.2823 2.27875 10.2598 2.12535C10.1657 1.9524 10.0349 1.83195 9.89045 1.70201C9.84566 1.66103 9.80091 1.62 9.75621 1.57893C9.72357 1.54897 9.72357 1.54897 9.69027 1.5184C9.60743 1.44122 9.52788 1.36143 9.44843 1.28075C9.33522 1.16604 9.21853 1.05879 9.09591 0.954292C9.00142 0.870243 8.91454 0.779235 8.82743 0.68763C8.70522 0.575945 8.60522 0.556851 8.44015 0.549499C8.24528 0.590415 8.10585 0.752152 7.97297 0.89061C7.8647 1.00127 7.75722 1.11017 7.63886 1.21019C7.49497 1.33246 7.36424 1.46714 7.23177 1.60148C7.11179 1.72254 6.98888 1.83673 6.85612 1.9439C6.77889 2.01992 6.74409 2.08877 6.73291 2.19669C6.74366 2.34614 6.76625 2.43744 6.87726 2.54246C6.96682 2.60821 7.01102 2.62429 7.12421 2.64415C7.28663 2.61462 7.38251 2.54327 7.50086 2.43002C7.67763 2.26242 7.67763 2.26242 7.8277 2.23741C7.93866 2.25875 7.99061 2.27696 8.06843 2.35777C8.10151 2.45703 8.10621 2.52389 8.10698 2.6276C8.1073 2.66229 8.10762 2.69697 8.10795 2.73271C8.10816 2.7889 8.10816 2.7889 8.10837 2.84622C8.10856 2.88475 8.10875 2.92327 8.10895 2.96296C8.10926 3.04452 8.10948 3.12607 8.10961 3.20763C8.10993 3.33239 8.11096 3.45713 8.11201 3.58188C8.11222 3.66108 8.1124 3.74028 8.11252 3.81949C8.11294 3.85681 8.11334 3.89414 8.11377 3.93259C8.11367 3.96749 8.11357 4.00239 8.11347 4.03834C8.11365 4.08423 8.11365 4.08423 8.11383 4.13105C8.09904 4.23543 8.06328 4.29808 8.00202 4.38316C7.90972 4.42931 7.83871 4.4225 7.7364 4.41637C7.61354 4.36988 7.61354 4.36988 7.57038 4.28355C7.5675 4.19394 7.56654 4.1052 7.56714 4.01559C7.56721 3.97594 7.56721 3.97594 7.56728 3.93548C7.56747 3.8509 7.56788 3.76633 7.5683 3.68175C7.56847 3.62446 7.56862 3.56718 7.56876 3.5099C7.56913 3.36934 7.5697 3.22879 7.57038 3.08824C7.55231 3.09526 7.53424 3.10229 7.51563 3.10952C7.49183 3.11864 7.46804 3.12775 7.44353 3.13715C7.41998 3.14622 7.39643 3.1553 7.37217 3.16466C7.17975 3.23086 6.97064 3.21068 6.78388 3.13597C6.51249 2.99712 6.32962 2.80373 6.20905 2.52379C6.1414 2.30576 6.15041 2.05361 6.23032 1.84027C6.38497 1.56564 6.65195 1.34577 6.88621 1.14093C6.98647 1.05044 7.08129 0.955607 7.17609 0.859482C7.30454 0.729394 7.43539 0.604876 7.57505 0.486854C7.64396 0.425612 7.70622 0.35989 7.7696 0.292953C8.05776 -0.000321949 8.50558 -0.106813 8.89435 0.0522307ZM1.75153 6.69286C1.72013 6.72842 1.68866 6.76391 1.65711 6.79934C1.64123 6.81721 1.62535 6.83509 1.60899 6.85351C1.53211 6.93789 1.45104 7.01741 1.3697 7.09752C1.24913 7.21672 1.13554 7.33827 1.02586 7.46742C0.915283 7.59054 0.794939 7.70426 0.675933 7.81917C0.546174 7.95775 0.509309 8.06859 0.515105 8.25652C0.546673 8.40804 0.656923 8.49441 0.763739 8.59996C0.810926 8.6509 0.857479 8.70238 0.904082 8.75386C1.07904 8.94654 1.26062 9.13113 1.4457 9.31409C1.53606 9.40559 1.62 9.50098 1.70354 9.59865C1.91748 9.86025 1.91748 9.86025 2.21638 9.97166C2.36336 9.96926 2.44515 9.92706 2.55671 9.82848C2.6458 9.70203 2.67868 9.59231 2.65372 9.43691C2.59847 9.30463 2.49053 9.21296 2.39212 9.11111C2.29782 9.00058 2.28248 8.94262 2.29108 8.79918C2.32284 8.70635 2.33601 8.67711 2.4239 8.63316C3.42298 8.56119 4.43739 9.07625 5.1721 9.70837C5.25344 9.78032 5.33303 9.85374 5.41218 9.92809C5.43174 9.94551 5.4513 9.96292 5.47145 9.98087C6.19389 10.6521 6.67037 11.7512 6.71036 12.7306C6.71177 12.8207 6.71224 12.9107 6.71234 13.0008C6.7125 13.0349 6.71267 13.0689 6.71285 13.104C6.7132 13.1775 6.71349 13.251 6.71371 13.3245C6.71411 13.4409 6.71475 13.5573 6.71548 13.6737C6.71752 14.0045 6.71932 14.3353 6.72043 14.6661C6.72112 14.8688 6.72229 15.0715 6.72377 15.2742C6.72424 15.3513 6.72453 15.4284 6.72464 15.5055C6.7248 15.6133 6.72557 15.721 6.72647 15.8288C6.72637 15.8606 6.72627 15.8923 6.72617 15.9251C6.72833 16.0978 6.74219 16.2207 6.83991 16.3695C6.94444 16.4493 7.04002 16.496 7.17194 16.5023C7.34278 16.4484 7.44084 16.3886 7.53718 16.2367C7.56571 16.1452 7.57459 16.0627 7.57482 15.9671C7.57496 15.9401 7.5751 15.9132 7.57525 15.8854C7.57523 15.8561 7.57522 15.8267 7.5752 15.7965C7.57531 15.7654 7.57543 15.7343 7.57554 15.7022C7.57586 15.5991 7.57592 15.496 7.57596 15.3929C7.57606 15.3208 7.57618 15.2487 7.57629 15.1766C7.57649 15.0252 7.57655 14.8737 7.57653 14.7223C7.57653 14.5298 7.57698 14.3372 7.57755 14.1447C7.57793 13.9956 7.57799 13.8464 7.57797 13.6972C7.57801 13.6264 7.57816 13.5555 7.57842 13.4846C7.58021 12.9432 7.5647 12.405 7.43342 11.8767C7.42636 11.848 7.41931 11.8193 7.41204 11.7898C7.05476 10.4029 6.16291 9.23209 4.93884 8.49554C4.20664 8.06594 3.41086 7.83502 2.56636 7.75934C2.44928 7.7481 2.39132 7.7371 2.29108 7.67027C2.25936 7.55018 2.24437 7.47163 2.29108 7.35484C2.36618 7.26097 2.44818 7.17925 2.53609 7.09739C2.61978 7.00725 2.6529 6.93279 2.66877 6.81114C2.64753 6.63413 2.56182 6.53914 2.42597 6.42931C2.14606 6.28078 1.93369 6.48304 1.75153 6.69286Z" fill="white"/>
<path d="M11.5546 4.92578C11.6899 4.95396 11.7387 5.00222 11.8203 5.11255C11.841 5.21216 11.841 5.21216 11.8203 5.31177C11.7387 5.42209 11.6899 5.47035 11.5546 5.49854C11.4193 5.47035 11.3705 5.42209 11.289 5.31177C11.2682 5.21216 11.2682 5.21216 11.289 5.11255C11.3705 5.00222 11.4193 4.95396 11.5546 4.92578Z" fill="white"/>
<path d="M5.44525 4.92578C5.58053 4.95396 5.62933 5.00222 5.71088 5.11255C5.73163 5.21216 5.73163 5.21216 5.71088 5.31177C5.62933 5.42209 5.58053 5.47035 5.44525 5.49854C5.30997 5.47035 5.26117 5.42209 5.17963 5.31177C5.15887 5.21216 5.15887 5.21216 5.17963 5.11255C5.26117 5.00222 5.30997 4.95396 5.44525 4.92578Z" fill="white"/>
<path d="M12.9492 3.45331C13.0447 3.50519 13.0447 3.50519 13.1152 3.58613C13.136 3.70026 13.136 3.70026 13.1152 3.81855C13.0329 3.93234 12.9872 3.97835 12.8475 4.00116C12.7358 3.98214 12.6906 3.97192 12.6172 3.88495C12.585 3.79423 12.5732 3.71518 12.584 3.61933C12.6863 3.47051 12.7697 3.41964 12.9492 3.45331Z" fill="white"/>
<path d="M4.25003 3.45349C4.34756 3.51989 4.34756 3.51989 4.41604 3.6195C4.42867 3.71636 4.4182 3.79417 4.38284 3.88513C4.31228 3.95361 4.31228 3.95361 4.21682 3.98474C4.09263 3.9826 4.0165 3.97846 3.92007 3.89758C3.86976 3.78513 3.8674 3.70802 3.88479 3.5863C3.99419 3.46081 4.08573 3.42268 4.25003 3.45349Z" fill="white"/>
<path d="M14.6429 2.39008C14.7406 2.45877 14.7705 2.50659 14.8068 2.62043C14.8093 2.74199 14.7828 2.79285 14.7093 2.88813C14.6145 2.93549 14.5487 2.93163 14.4436 2.92133C14.3482 2.87152 14.3482 2.87152 14.2776 2.78852C14.2538 2.69479 14.2538 2.61662 14.2776 2.52289C14.3859 2.39555 14.4783 2.36206 14.6429 2.39008Z" fill="white"/>
<path d="M2.55636 2.39145C2.65182 2.44126 2.65182 2.44126 2.72237 2.52426C2.74619 2.61799 2.74619 2.69616 2.72237 2.78989C2.63692 2.89042 2.5845 2.91811 2.45467 2.9393C2.33255 2.91852 2.29574 2.8904 2.22433 2.78989C2.18528 2.66755 2.18001 2.61449 2.2347 2.49729C2.32832 2.37593 2.4079 2.3769 2.55636 2.39145Z" fill="white"/>
<path d="M10.8574 6.77305C10.9404 6.82493 10.9404 6.82493 10.9902 6.90586C11.0091 7.03816 11.0125 7.10691 10.9342 7.21714C10.8471 7.27838 10.798 7.3017 10.6914 7.3043C10.5756 7.25046 10.5306 7.21251 10.459 7.10508C10.4649 6.99436 10.4737 6.90633 10.5275 6.80833C10.6338 6.75002 10.7411 6.75246 10.8574 6.77305Z" fill="white"/>
<path d="M6.34526 6.7596C6.40869 6.77439 6.40869 6.77439 6.49377 6.84287C6.55599 6.97 6.5458 7.0378 6.5083 7.17282C6.4562 7.25097 6.41953 7.26833 6.33191 7.30149C6.21187 7.30707 6.14464 7.26812 6.04345 7.20603C5.99213 7.10337 6.0005 7.02028 6.01025 6.9072C6.09514 6.76925 6.19199 6.751 6.34526 6.7596Z" fill="white"/>
</g>
<defs>
<clipPath id="clip0_657_45291">
<rect width="17" height="17" fill="white"/>
</clipPath>
</defs>
</svg>
