<svg width="17" height="17" viewBox="0 0 17 17" fill="none" xmlns="http://www.w3.org/2000/svg">
<g clip-path="url(#clip0_657_45276)">
<path d="M10.5792 3.23082C11.2184 3.77017 11.616 4.52403 11.7123 5.35582C11.7158 5.40765 11.7186 5.45954 11.7206 5.51145C11.7219 5.5391 11.7232 5.56675 11.7246 5.59524C11.7331 5.93814 11.6878 6.27938 11.5877 6.60716C11.6174 6.61558 11.6174 6.61558 11.6477 6.62416C11.8627 6.68666 12.0705 6.76125 12.2789 6.84282C12.3123 6.85579 12.3458 6.86876 12.3802 6.88212C12.5614 6.95245 12.7423 7.02337 12.9232 7.09424C12.9595 7.10844 12.9957 7.12265 13.0331 7.13729C13.1053 7.16556 13.1775 7.19386 13.2497 7.22217C13.4424 7.29758 13.6355 7.37099 13.8301 7.44139C13.8683 7.45555 13.9066 7.46972 13.9459 7.48431C14.0116 7.50854 14.0775 7.532 14.1438 7.55443C14.3819 7.64408 14.4837 7.78526 14.6092 8.00169C14.627 8.03198 14.6449 8.06228 14.6632 8.09349C14.7191 8.1909 14.7733 8.28912 14.8271 8.38768C15.0236 8.7429 15.2255 9.09447 15.4309 9.4446C15.4483 9.47443 15.4658 9.50427 15.4838 9.53501C15.5232 9.60196 15.5631 9.66866 15.6032 9.73518C15.6348 9.78799 15.6348 9.78799 15.6671 9.84187C15.6863 9.87379 15.7056 9.90571 15.7255 9.93859C15.7954 10.0735 15.8052 10.1441 15.7713 10.2927C15.6375 10.4231 15.5051 10.4974 15.3298 10.5621C15.3074 10.5707 15.285 10.5793 15.2619 10.5882C15.215 10.6061 15.168 10.6239 15.121 10.6415C15.0488 10.6685 14.9768 10.696 14.9048 10.7236C14.859 10.7411 14.8133 10.7585 14.7675 10.7758C14.7459 10.784 14.7244 10.7922 14.7022 10.8007C14.5506 10.8572 14.5506 10.8572 14.4764 10.8572C14.4766 10.8763 14.4767 10.8955 14.4769 10.9153C14.4805 11.3822 14.4833 11.8492 14.485 12.3161C14.4859 12.542 14.487 12.7678 14.4889 12.9936C14.4908 13.2114 14.4917 13.4293 14.4922 13.6472C14.4925 13.7304 14.4931 13.8135 14.494 13.8967C14.4952 14.0131 14.4953 14.1295 14.4953 14.2458C14.4959 14.2803 14.4965 14.3148 14.4971 14.3504C14.4954 14.584 14.4954 14.584 14.399 14.7114C14.2963 14.7852 14.1931 14.8343 14.0754 14.8781C14.0521 14.8872 14.0287 14.8963 14.0047 14.9057C13.9269 14.9359 13.8489 14.9655 13.7708 14.9951C13.715 15.0167 13.6591 15.0383 13.6033 15.06C13.4826 15.1067 13.3618 15.1531 13.2409 15.1994C13.0441 15.2748 12.8476 15.351 12.6511 15.4274C12.4102 15.521 12.1692 15.6145 11.9281 15.7078C11.5842 15.8409 11.2406 15.9745 10.8971 16.1088C10.7871 16.1518 10.6769 16.1947 10.5668 16.2375C10.2985 16.3419 10.0305 16.447 9.76337 16.5542C9.62942 16.6078 9.49526 16.6609 9.36107 16.714C9.29674 16.7396 9.2325 16.7654 9.16837 16.7915C9.07926 16.8276 8.98986 16.863 8.90036 16.8982C8.87428 16.909 8.84819 16.9198 8.82131 16.931C8.52131 17.0468 8.2824 16.9722 7.99454 16.8547C7.9655 16.8432 7.93647 16.8317 7.90655 16.8199C7.81089 16.7819 7.71544 16.7435 7.61997 16.7051C7.55212 16.6781 7.48426 16.6511 7.41638 16.6242C7.31018 16.5821 7.20399 16.54 7.09785 16.4977C6.74993 16.3592 6.40085 16.2237 6.05155 16.0888C5.88133 16.023 5.71117 15.957 5.54101 15.8911C5.50784 15.8782 5.47468 15.8654 5.4405 15.8521C5.04874 15.7003 4.65713 15.548 4.26593 15.3947C4.21163 15.3734 4.15733 15.3522 4.10303 15.3309C4.06343 15.3154 4.06343 15.3154 4.02303 15.2995C3.86306 15.237 3.70281 15.1752 3.5423 15.114C3.43971 15.0749 3.33725 15.0354 3.2348 14.9959C3.18728 14.9776 3.13969 14.9596 3.09205 14.9417C3.02699 14.9172 2.96215 14.8922 2.89734 14.8671C2.86097 14.8533 2.8246 14.8394 2.78713 14.8252C2.66703 14.7637 2.6057 14.7174 2.52329 14.6091C2.49921 14.488 2.50231 14.3689 2.50444 14.2458C2.50442 14.2092 2.50439 14.1726 2.50437 14.1349C2.50448 14.014 2.50578 13.8931 2.50708 13.7722C2.50739 13.6883 2.50762 13.6044 2.50779 13.5205C2.50836 13.3224 2.50967 13.1242 2.51133 12.9261C2.51319 12.7005 2.5141 12.4748 2.51494 12.2492C2.51667 11.7852 2.51959 11.3212 2.52329 10.8572C2.49286 10.8471 2.49286 10.8471 2.46183 10.8368C2.42173 10.8234 2.42173 10.8234 2.38082 10.8098C2.35437 10.801 2.32792 10.7923 2.30068 10.7832C2.12629 10.7245 1.95452 10.6587 1.78244 10.5936C1.72437 10.5722 1.72437 10.5722 1.66513 10.5504C1.60937 10.5292 1.60937 10.5292 1.55249 10.5076C1.51892 10.495 1.48535 10.4825 1.45076 10.4695C1.35398 10.422 1.29629 10.3761 1.22837 10.2927C1.17879 10.0292 1.31198 9.85184 1.44626 9.63279C1.4804 9.57546 1.51454 9.51813 1.54862 9.46076C1.58405 9.40129 1.61971 9.34197 1.6554 9.28265C1.74654 9.13072 1.83465 8.9771 1.92278 8.8234C1.98482 8.71521 2.04727 8.60726 2.10981 8.49935C2.18163 8.37524 2.25258 8.25073 2.32251 8.12555C2.33733 8.0994 2.35215 8.07326 2.36741 8.04631C2.39408 7.99924 2.42041 7.95198 2.44629 7.90447C2.58333 7.66478 2.79102 7.58146 3.0382 7.49041C3.07939 7.47488 3.07939 7.47488 3.12142 7.45903C3.2111 7.42525 3.30091 7.39182 3.39072 7.35838C3.5164 7.31118 3.64201 7.26383 3.76763 7.21649C3.79942 7.20454 3.83121 7.19258 3.86397 7.18027C4.0785 7.0995 4.2924 7.01726 4.50588 6.93374C4.53363 6.92289 4.56138 6.91203 4.58997 6.90085C4.69644 6.85917 4.80288 6.81742 4.90925 6.7755C4.98167 6.74697 5.05414 6.71856 5.12662 6.69017C5.148 6.68168 5.16938 6.6732 5.1914 6.66446C5.33803 6.60716 5.33803 6.60716 5.41196 6.60716C5.40516 6.58225 5.39835 6.55734 5.39134 6.53167C5.16367 5.66676 5.29695 4.78959 5.73825 4.0149C6.18072 3.28783 6.90514 2.76766 7.72871 2.55946C8.76262 2.32617 9.75437 2.58168 10.5792 3.23082ZM6.5266 3.91706C6.05877 4.46665 5.79557 5.15104 5.8436 5.87669C5.90013 6.38036 6.04318 6.82294 6.34165 7.23802C6.36348 7.26845 6.38531 7.29888 6.4078 7.33023C6.80191 7.8449 7.41585 8.21985 8.05878 8.32438C8.79505 8.41504 9.506 8.26794 10.0998 7.81077C10.1423 7.77513 10.1845 7.73916 10.2264 7.70286C10.2528 7.68296 10.2791 7.66306 10.3063 7.64255C10.7437 7.27436 11.0247 6.69829 11.1229 6.14231C11.1272 6.11865 11.1315 6.09498 11.1359 6.07059C11.2368 5.40278 11.0533 4.71089 10.6632 4.16387C10.5976 4.07924 10.5296 3.99811 10.4588 3.9177C10.4367 3.89241 10.4146 3.86711 10.3918 3.84105C9.94696 3.36487 9.30928 3.07637 8.65977 3.04729C7.82553 3.02302 7.10638 3.31277 6.5266 3.91706ZM5.39133 7.17836C5.33151 7.20229 5.33151 7.20229 5.27047 7.2267C5.22663 7.24431 5.18279 7.26191 5.13894 7.27952C5.09433 7.29739 5.04971 7.31526 5.00509 7.33312C4.88744 7.38023 4.76981 7.42741 4.65219 7.47461C4.53226 7.52272 4.41229 7.57076 4.29233 7.61882C4.05679 7.71317 3.82128 7.8076 3.58579 7.90208C3.69715 7.97632 3.81166 8.02126 3.93572 8.069C3.96135 8.07898 3.98697 8.08895 4.01338 8.09922C4.09908 8.13254 4.18484 8.16569 4.2706 8.19883C4.3315 8.22247 4.3924 8.24612 4.45329 8.26978C4.61716 8.33342 4.78109 8.39691 4.94503 8.46036C5.11376 8.52569 5.28244 8.59112 5.45113 8.65654C5.656 8.73599 5.86087 8.81543 6.06576 8.89481C6.60261 9.10283 7.13914 9.31165 7.67525 9.52157C7.72581 9.54128 7.77641 9.56087 7.82707 9.58032C7.93838 9.62317 8.0483 9.66713 8.15673 9.71687C8.19343 9.73304 8.23013 9.74921 8.26795 9.76587C8.29869 9.78029 8.32943 9.79472 8.36111 9.80959C8.52222 9.83748 8.64766 9.7837 8.79868 9.72825C8.83906 9.71363 8.83906 9.71363 8.88025 9.69872C8.96497 9.66722 9.04916 9.63455 9.13331 9.60154C9.16478 9.5893 9.19625 9.57707 9.22868 9.56447C9.33165 9.52442 9.43455 9.48419 9.53745 9.44395C9.61022 9.41561 9.68298 9.38727 9.75576 9.35895C9.97913 9.27196 10.2024 9.18471 10.4256 9.09739C10.4595 9.08414 10.4934 9.07089 10.5283 9.05724C10.8143 8.94534 11.1003 8.83335 11.3863 8.72127C12.0612 8.45685 12.7375 8.19589 13.4139 7.93528C13.3073 7.84638 13.2016 7.79947 13.0722 7.75046C13.0517 7.74265 13.0313 7.73484 13.0102 7.72679C12.9663 7.71003 12.9224 7.69337 12.8785 7.67679C12.7626 7.6331 12.6471 7.58875 12.5314 7.5445C12.5081 7.53557 12.4847 7.52665 12.4606 7.51745C12.2303 7.42939 12.0012 7.33826 11.7724 7.24632C11.7369 7.23204 11.7013 7.21776 11.6647 7.20306C11.5837 7.17049 11.5027 7.13788 11.4217 7.10521C11.3406 7.18248 11.2839 7.2626 11.2257 7.35862C10.777 8.09769 10.0989 8.58378 9.26352 8.79856C9.01093 8.85674 8.76699 8.87682 8.50815 8.87535C8.45583 8.87507 8.45583 8.87507 8.40245 8.87478C7.55244 8.86158 6.78163 8.52251 6.18818 7.917C5.97737 7.69527 5.81789 7.45012 5.66319 7.18795C5.64603 7.16065 5.62886 7.13334 5.61118 7.10521C5.53763 7.10521 5.45766 7.15177 5.39133 7.17836ZM2.92173 8.26731C2.71094 8.61461 2.50658 8.96532 2.30435 9.31767C2.28402 9.35305 2.26369 9.38843 2.24275 9.42488C2.22309 9.45911 2.20343 9.49333 2.18317 9.5286C2.11099 9.65242 2.03629 9.77461 1.96068 9.89637C1.92034 9.95819 1.92034 9.95819 1.92563 10.0271C2.68323 10.3277 3.44216 10.6246 4.20225 10.9189C4.62065 11.0808 5.03882 11.2434 5.45669 11.4067C5.6963 11.5003 5.93596 11.5938 6.17563 11.6872C6.19921 11.6964 6.22278 11.7056 6.24707 11.7151C6.39404 11.7724 6.5411 11.8295 6.68821 11.8865C6.74133 11.9072 6.74133 11.9072 6.79553 11.9283C6.82718 11.9405 6.85883 11.9527 6.89145 11.9653C6.9186 11.9758 6.94576 11.9864 6.97373 11.9972C7.03793 12.0228 7.03793 12.0228 7.10532 12.0193C7.11697 11.9983 7.12862 11.9773 7.14062 11.9557C7.19656 11.8551 7.2526 11.7546 7.30869 11.654C7.32935 11.617 7.35001 11.58 7.37129 11.5418C7.54008 11.2404 7.71336 10.942 7.89034 10.6453C7.90885 10.614 7.92736 10.5827 7.94642 10.5504C7.97094 10.5093 7.97094 10.5093 7.99594 10.4674C8.03264 10.3969 8.05057 10.3364 8.06821 10.2595C7.27858 9.94478 6.48848 9.63179 5.6933 9.33132C5.13686 9.12092 4.58379 8.90236 4.0315 8.68132C3.66431 8.53471 3.29591 8.39509 2.92173 8.26731ZM13.9133 8.31679C13.8709 8.3332 13.8709 8.3332 13.8277 8.34994C13.7966 8.36205 13.7655 8.37416 13.7335 8.38664C13.7012 8.39919 13.6688 8.41174 13.6355 8.42467C13.5284 8.46624 13.4214 8.50789 13.3143 8.54954C13.2396 8.57855 13.1649 8.60756 13.0902 8.63657C12.5847 8.83296 12.0795 9.03001 11.5744 9.2274C11.259 9.35061 10.9434 9.47337 10.6277 9.5957C10.5912 9.60984 10.5547 9.62398 10.5171 9.63855C10.3389 9.70758 10.1607 9.77657 9.98251 9.8455C9.63132 9.98143 9.28067 10.1185 8.93149 10.2595C8.9723 10.3923 9.02024 10.5074 9.09089 10.6268C9.11874 10.6742 9.11874 10.6742 9.14715 10.7226C9.16706 10.756 9.18698 10.7895 9.20749 10.824C9.22796 10.8586 9.24843 10.8933 9.26952 10.929C9.31229 11.0014 9.35513 11.0738 9.39804 11.1461C9.46154 11.2536 9.52443 11.3613 9.58712 11.4692C9.6259 11.5357 9.66468 11.6021 9.70347 11.6686C9.72167 11.7 9.73987 11.7314 9.75863 11.7638C9.77552 11.7926 9.79241 11.8214 9.80982 11.851C9.83198 11.8891 9.83198 11.8891 9.8546 11.9279C9.89086 11.991 9.89086 11.991 9.96079 12.0193C10.0354 11.9992 10.0354 11.9992 10.1205 11.9644C10.154 11.9515 10.1875 11.9385 10.2221 11.9252C10.2588 11.9108 10.2956 11.8963 10.3334 11.8814C10.3716 11.8666 10.4098 11.8518 10.4492 11.8365C10.5533 11.7961 10.6572 11.7555 10.7612 11.7147C10.8699 11.6722 10.9787 11.6299 11.0876 11.5877C11.2833 11.5115 11.479 11.4352 11.6746 11.3587C11.8579 11.287 12.0413 11.2155 12.2247 11.1441C12.3864 11.081 12.5481 11.018 12.7097 10.9547C13.0235 10.832 13.3375 10.7098 13.6518 10.5882C13.689 10.5738 13.7262 10.5594 13.7645 10.5445C13.947 10.4739 14.1295 10.4032 14.3121 10.3327C14.3784 10.307 14.4446 10.2814 14.5109 10.2557C14.556 10.2383 14.556 10.2383 14.602 10.2206C14.7608 10.1591 14.918 10.0953 15.0741 10.0271C15.0262 9.89897 14.9669 9.78346 14.899 9.66483C14.8883 9.6462 14.8777 9.62758 14.8668 9.60838C14.8322 9.54797 14.7975 9.48765 14.7628 9.42735C14.751 9.40682 14.7392 9.38629 14.7271 9.36515C14.5688 9.08932 14.409 8.81439 14.2461 8.54124C14.2294 8.5132 14.2128 8.48517 14.1956 8.45628C14.1805 8.43107 14.1653 8.40586 14.1497 8.37989C14.1366 8.35799 14.1234 8.33609 14.1099 8.31352C14.0994 8.29827 14.0888 8.28302 14.078 8.26731C14.0195 8.26731 13.9673 8.29581 13.9133 8.31679ZM3.08774 11.0896C3.08774 12.1524 3.08774 13.2152 3.08774 14.3103C3.6086 14.5225 4.12844 14.7341 4.65345 14.9354C4.81258 14.9964 4.97168 15.0575 5.13073 15.1188C5.17244 15.1348 5.21415 15.1509 5.25586 15.167C5.27658 15.1749 5.29731 15.1829 5.31866 15.1911C5.38135 15.2153 5.44405 15.2394 5.50676 15.2635C5.8926 15.412 6.27822 15.561 6.6637 15.7104C6.76345 15.7491 6.86322 15.7877 6.96299 15.8263C7.02518 15.8504 7.08737 15.8745 7.14955 15.8986C7.17907 15.91 7.20858 15.9215 7.23899 15.9333C7.39128 15.9925 7.5432 16.0525 7.69473 16.1137C7.74083 16.1323 7.74083 16.1323 7.78787 16.1512C7.84642 16.1749 7.90493 16.1987 7.9634 16.2226C7.98933 16.2331 8.01526 16.2436 8.04197 16.2544C8.06476 16.2637 8.08754 16.273 8.11101 16.2826C8.16824 16.3061 8.16824 16.3061 8.23423 16.3025C8.23423 14.6151 8.23423 12.9277 8.23423 11.1892C8.11951 11.3317 8.11951 11.3317 8.02749 11.4823C8.01463 11.5059 8.00177 11.5294 7.98852 11.5537C7.9751 11.5786 7.96168 11.6035 7.94785 11.6291C7.83068 11.843 7.71179 12.0556 7.58884 12.2662C7.57514 12.29 7.56144 12.3137 7.54732 12.3382C7.41512 12.5635 7.41512 12.5635 7.33774 12.6169C7.13622 12.6369 6.99039 12.5994 6.80558 12.5229C6.78017 12.5128 6.75476 12.5027 6.72858 12.4924C6.6444 12.4589 6.56048 12.4248 6.47654 12.3907C6.41674 12.3668 6.35691 12.343 6.29707 12.3192C6.20199 12.2814 6.10692 12.2436 6.01192 12.2056C5.66741 12.0678 5.32137 11.9341 4.97526 11.8004C4.17221 11.4902 4.17221 11.4902 3.77645 11.3337C3.75395 11.3248 3.73145 11.3159 3.70828 11.3067C3.60803 11.2671 3.50784 11.2273 3.40774 11.1873C3.37443 11.1741 3.34112 11.1609 3.30681 11.1473C3.27856 11.136 3.25031 11.1247 3.22121 11.1131C3.15555 11.0859 3.15555 11.0859 3.08774 11.0896ZM13.5622 11.1981C13.5181 11.2155 13.5181 11.2155 13.4731 11.2332C13.409 11.2584 13.3448 11.2837 13.2807 11.309C13.1076 11.3774 12.9343 11.4454 12.761 11.5134C12.7249 11.5277 12.6887 11.5419 12.6515 11.5565C12.2206 11.7258 11.7889 11.8929 11.3572 12.06C11.2925 12.085 11.2278 12.1101 11.1631 12.1351C11.1003 12.1595 11.0374 12.1837 10.9745 12.2079C10.81 12.2714 10.6462 12.3362 10.4831 12.403C10.4488 12.4169 10.4145 12.4308 10.3791 12.4451C10.3138 12.4716 10.2485 12.4985 10.1835 12.5258C10.0014 12.5992 9.8587 12.6421 9.66196 12.6169C9.59996 12.572 9.59996 12.572 9.55911 12.5075C9.53535 12.471 9.53535 12.471 9.5111 12.4337C9.49514 12.4065 9.47919 12.3793 9.46274 12.3513C9.44554 12.3226 9.42834 12.2938 9.41062 12.2642C9.35536 12.1694 9.302 12.0738 9.249 11.9778C9.21118 11.9101 9.17336 11.8424 9.13551 11.7748C9.11756 11.7426 9.09961 11.7104 9.08112 11.6772C9.0182 11.5645 8.95447 11.4524 8.88999 11.3407C8.8727 11.3106 8.85541 11.2805 8.83759 11.2495C8.82475 11.2296 8.81191 11.2097 8.79868 11.1892C8.78772 11.1892 8.77677 11.1892 8.76548 11.1892C8.76548 12.8766 8.76548 14.564 8.76548 16.3025C8.95964 16.2378 9.15149 16.1719 9.34251 16.0991C9.36868 16.0892 9.39486 16.0793 9.42182 16.069C9.50813 16.0362 9.59439 16.0034 9.68064 15.9704C9.72589 15.9532 9.72589 15.9532 9.77205 15.9356C10.3018 15.7337 10.8291 15.526 11.3559 15.3163C11.8991 15.1001 12.4442 14.8895 12.9915 14.6838C13.0187 14.6735 13.046 14.6632 13.0741 14.6526C13.1235 14.634 13.173 14.6154 13.2225 14.597C13.4561 14.5088 13.6816 14.409 13.912 14.3103C13.912 13.2475 13.912 12.1846 13.912 11.0896C13.7895 11.0896 13.675 11.1534 13.5622 11.1981Z" fill="white"/>
<path d="M10.3594 4.08348C10.5275 4.24575 10.6139 4.42806 10.6354 4.66039C10.5931 5.15108 10.1151 5.49628 9.78663 5.82742C9.76603 5.8482 9.74544 5.86898 9.72421 5.89038C9.61547 6.00001 9.50661 6.10951 9.39766 6.21894C9.30811 6.30894 9.2188 6.39917 9.1297 6.48962C9.02123 6.59974 8.91234 6.70944 8.80316 6.81886C8.76193 6.86032 8.72084 6.90191 8.6799 6.94364C8.44888 7.17892 8.24522 7.38625 7.91182 7.4558C7.68804 7.45541 7.51546 7.41076 7.3379 7.27098C7.19882 7.12711 7.07823 6.96755 6.95783 6.80803C6.91059 6.74547 6.86267 6.68354 6.81431 6.62183C6.73318 6.51807 6.6535 6.41328 6.57423 6.30809C6.54876 6.27441 6.5233 6.24072 6.49706 6.20602C6.47322 6.17396 6.44938 6.1419 6.42482 6.10887C6.40393 6.08079 6.38304 6.05272 6.36152 6.02379C6.23062 5.82358 6.21198 5.63987 6.2553 5.40785C6.31397 5.21292 6.44138 5.09249 6.60743 4.97997C6.79942 4.88722 7.00608 4.87865 7.21209 4.93288C7.50311 5.05884 7.68978 5.36147 7.86915 5.61083C7.98565 5.5611 8.05957 5.49435 8.14799 5.40435C8.17659 5.37543 8.20518 5.34651 8.23465 5.31671C8.26529 5.28541 8.29594 5.25411 8.32751 5.22186C8.35958 5.18941 8.39167 5.15699 8.42377 5.12459C8.55983 4.98722 8.69546 4.84943 8.83099 4.71153C8.91403 4.62706 8.99732 4.54285 9.08075 4.45877C9.12769 4.41131 9.17435 4.36356 9.221 4.31581C9.2642 4.27227 9.2642 4.27227 9.30828 4.22785C9.34595 4.18955 9.34595 4.18955 9.38438 4.15048C9.67817 3.89983 10.0315 3.89009 10.3594 4.08348ZM9.78323 4.58148C9.73711 4.62808 9.73711 4.62808 9.69007 4.67561C9.67305 4.69267 9.65604 4.70972 9.6385 4.7273C9.58215 4.78388 9.52617 4.84081 9.47017 4.89774C9.43112 4.93706 9.39204 4.97635 9.35295 5.01562C9.24993 5.11921 9.1472 5.22307 9.04455 5.32701C8.88029 5.49323 8.71562 5.65903 8.55093 5.82481C8.4934 5.8828 8.43599 5.94092 8.37861 5.99906C8.34336 6.03465 8.3081 6.07023 8.27284 6.10581C8.2421 6.13692 8.21136 6.16804 8.17969 6.20009C8.08111 6.29448 8.02727 6.33848 7.88991 6.35374C7.73356 6.33757 7.66239 6.27608 7.5598 6.15827C7.51387 6.10102 7.4693 6.04293 7.42506 5.98436C7.29102 5.8101 7.15392 5.64072 7.00587 5.47801C6.95109 5.48897 6.8963 5.49993 6.83986 5.51122C6.80551 5.58171 6.80551 5.58171 6.80665 5.67723C6.85879 5.76895 6.92814 5.84513 6.99757 5.92418C7.03756 5.9714 7.0775 6.01866 7.11741 6.06594C7.13768 6.08968 7.15795 6.11342 7.17883 6.13788C7.26789 6.24362 7.35279 6.35243 7.43751 6.46166C7.54572 6.6008 7.65611 6.73763 7.76954 6.87254C7.94229 6.86143 8.03068 6.76284 8.1459 6.64566C8.16627 6.62546 8.18665 6.60527 8.20764 6.58446C8.27482 6.5177 8.34151 6.45046 8.40819 6.38319C8.45475 6.33663 8.50133 6.2901 8.54793 6.24359C8.64549 6.14607 8.74281 6.04833 8.83997 5.95042C8.96459 5.82486 9.08972 5.69982 9.21502 5.57494C9.31126 5.47894 9.40724 5.38269 9.50316 5.28637C9.54921 5.24016 9.59533 5.19403 9.64153 5.14796C9.706 5.08359 9.77014 5.0189 9.8342 4.95411C9.85338 4.93508 9.87256 4.91605 9.89232 4.89645C9.98123 4.80586 10.043 4.74197 10.0606 4.61473C10.0218 4.55386 10.0218 4.55386 9.96095 4.51512C9.85691 4.50437 9.85691 4.50437 9.78323 4.58148Z" fill="white"/>
<path d="M13.3145 2.78957C13.409 2.84821 13.4148 2.89168 13.4432 3.00124C13.448 3.14033 13.4295 3.17792 13.3477 3.28762C13.2619 3.34955 13.2619 3.34955 13.1596 3.40694C13.1224 3.42813 13.0851 3.44931 13.0467 3.47114C13.0073 3.49298 12.9679 3.51482 12.9285 3.53664C12.8899 3.55844 12.8513 3.58027 12.8127 3.60214C12.7379 3.64435 12.663 3.68632 12.5879 3.72802C12.5232 3.76407 12.4587 3.80052 12.3945 3.83754C12.3683 3.85256 12.3421 3.86759 12.3152 3.88307C12.2818 3.90249 12.2818 3.90249 12.2477 3.92229C12.1443 3.97121 12.0642 3.97127 11.9532 3.95168C11.8534 3.88345 11.8259 3.83625 11.7892 3.72133C11.7867 3.59612 11.8137 3.55416 11.8868 3.45363C11.9664 3.39332 11.9664 3.39332 12.0652 3.33535C12.0833 3.32462 12.1014 3.3139 12.1201 3.30285C12.1859 3.26409 12.2521 3.22606 12.3184 3.18801C12.3784 3.15316 12.4384 3.11832 12.4984 3.08347C12.6217 3.01228 12.745 2.94115 12.8686 2.87063C12.8945 2.8558 12.9205 2.84098 12.9472 2.8257C13.0832 2.75391 13.1667 2.75261 13.3145 2.78957Z" fill="white"/>
<path d="M11.322 0.763756C11.4219 0.829516 11.449 0.879959 11.4883 0.992416C11.5129 1.19415 11.3707 1.37002 11.2722 1.53573C11.2518 1.57121 11.2314 1.60669 11.2105 1.64325C10.8327 2.2963 10.8327 2.2963 10.6911 2.39071C10.545 2.40965 10.482 2.40756 10.3612 2.32015C10.2791 2.20581 10.2795 2.1633 10.2927 2.02547C10.3317 1.93246 10.3317 1.93246 10.3862 1.83728C10.4061 1.80212 10.4261 1.76696 10.4466 1.73073C10.4677 1.69446 10.4888 1.65818 10.5106 1.62081C10.5308 1.58518 10.551 1.54955 10.5719 1.51284C11.0184 0.731797 11.0184 0.731797 11.322 0.763756Z" fill="white"/>
<path d="M3.88513 2.65672C3.98907 2.69928 3.98907 2.69928 4.09343 2.75866C4.11229 2.76925 4.13115 2.77983 4.15058 2.79073C4.2104 2.82446 4.2698 2.85887 4.32922 2.89329C4.3688 2.91564 4.4084 2.93795 4.44803 2.96022C4.56013 3.02357 4.67104 3.08878 4.78162 3.15477C4.81214 3.1729 4.84267 3.19104 4.87412 3.20973C4.90086 3.22643 4.9276 3.24313 4.95515 3.26034C4.97804 3.27455 5.00092 3.28875 5.0245 3.30339C5.09644 3.36845 5.11882 3.42794 5.14685 3.52C5.14176 3.62434 5.12027 3.67621 5.06177 3.7628C4.97156 3.82525 4.90971 3.83901 4.80056 3.83652C4.6221 3.79952 4.46755 3.69538 4.31256 3.6028C4.25082 3.56593 4.18866 3.52986 4.12637 3.49393C3.54178 3.15402 3.54178 3.15402 3.48047 2.97007C3.4873 2.84491 3.50894 2.78734 3.5863 2.68992C3.68846 2.63884 3.7721 2.64909 3.88513 2.65672Z" fill="white"/>
<path d="M5.90995 0.696419C6.03183 0.802367 6.11198 0.911067 6.1892 1.05206C6.21896 1.10586 6.21896 1.10586 6.24931 1.16074C6.26949 1.19789 6.28968 1.23505 6.31047 1.27332C6.35097 1.34691 6.39148 1.42049 6.432 1.49407C6.46022 1.54588 6.46022 1.54588 6.48902 1.59873C6.53145 1.67555 6.57534 1.75098 6.62045 1.82623C6.69642 1.96725 6.69685 2.03315 6.67363 2.19056C6.5846 2.29846 6.52915 2.31991 6.3914 2.34205C6.24323 2.31823 6.20739 2.26846 6.10917 2.15736C6.04976 2.066 6.04976 2.066 5.99595 1.96774C5.97611 1.93187 5.95627 1.896 5.93583 1.85905C5.91565 1.8219 5.89547 1.78474 5.87468 1.74647C5.83417 1.67288 5.79366 1.5993 5.75315 1.52572C5.72492 1.47391 5.72492 1.47391 5.69612 1.42106C5.65369 1.34424 5.6098 1.26881 5.56469 1.19356C5.48872 1.05254 5.48829 0.98664 5.51152 0.829231C5.62692 0.689354 5.73376 0.668101 5.90995 0.696419Z" fill="white"/>
<path d="M12.6506 5.47358C12.678 5.47326 12.7054 5.47295 12.7336 5.47262C12.7632 5.47248 12.7929 5.47233 12.8234 5.47219C12.8539 5.472 12.8843 5.47181 12.9157 5.47162C12.9803 5.4713 13.0448 5.47109 13.1094 5.47096C13.208 5.47064 13.3066 5.46961 13.4052 5.46856C13.4679 5.46834 13.5306 5.46817 13.5933 5.46804C13.6227 5.46763 13.6522 5.46722 13.6825 5.4668C13.8409 5.46737 13.9512 5.47263 14.0782 5.57854C14.1333 5.68866 14.1525 5.74692 14.1218 5.867C14.0789 5.94259 14.0456 5.98871 13.9786 6.04339C13.9111 6.05648 13.9111 6.05648 13.8328 6.05733C13.8034 6.05786 13.7741 6.05839 13.7438 6.05893C13.6963 6.05894 13.6963 6.05894 13.6479 6.05895C13.6153 6.0592 13.5826 6.05946 13.549 6.05972C13.48 6.06008 13.4109 6.06017 13.3419 6.06002C13.2363 6.05999 13.1309 6.06137 13.0253 6.06284C12.9582 6.06301 12.8911 6.0631 12.8241 6.0631C12.7925 6.06365 12.761 6.06419 12.7286 6.06475C12.5757 6.06315 12.5065 6.06004 12.3814 5.96537C12.3185 5.87737 12.3185 5.87737 12.2998 5.77776C12.3226 5.65627 12.3659 5.60007 12.4513 5.51214C12.5261 5.47472 12.5676 5.47436 12.6506 5.47358Z" fill="white"/>
<path d="M3.05814 5.3401C3.08618 5.33967 3.11423 5.33925 3.14312 5.33881C3.17349 5.33856 3.20385 5.33832 3.23514 5.33807C3.28194 5.33766 3.28194 5.33766 3.32969 5.33725C3.39581 5.33679 3.46194 5.33644 3.52806 5.33618C3.62907 5.33561 3.73004 5.33415 3.83105 5.33268C3.89527 5.33235 3.95949 5.33206 4.02371 5.33184C4.05388 5.33126 4.08404 5.33068 4.11512 5.33008C4.25322 5.33055 4.33024 5.33428 4.4511 5.40613C4.54172 5.5077 4.5515 5.57624 4.54913 5.71121C4.49048 5.80424 4.44851 5.86113 4.34991 5.91043C4.30469 5.91405 4.2593 5.91571 4.21394 5.91631C4.1859 5.91673 4.15786 5.91716 4.12896 5.9176C4.0986 5.91784 4.06823 5.91809 4.03694 5.91834C4.00574 5.91861 3.97454 5.91888 3.94239 5.91915C3.87627 5.91961 3.81015 5.91997 3.74403 5.92023C3.64301 5.9208 3.54204 5.92226 3.44104 5.92372C3.37682 5.92406 3.31259 5.92434 3.24837 5.92457C3.2182 5.92515 3.18804 5.92573 3.15696 5.92633C3.01886 5.92586 2.94185 5.92212 2.82098 5.85027C2.73037 5.74871 2.72059 5.68016 2.72296 5.5452C2.81764 5.39501 2.88403 5.3424 3.05814 5.3401Z" fill="white"/>
<path d="M8.59936 -0.000119158C8.68729 0.0459242 8.68729 0.0459242 8.76538 0.132693C8.79032 0.24664 8.78785 0.358852 8.78626 0.475101C8.78634 0.508499 8.78642 0.541897 8.7865 0.576307C8.78647 0.646862 8.78603 0.717418 8.7852 0.787969C8.78406 0.895984 8.78451 1.00391 8.78516 1.11193C8.78493 1.18049 8.78461 1.24906 8.78419 1.31763C8.78435 1.34994 8.78452 1.38224 8.78469 1.41553C8.78079 1.63898 8.78079 1.63898 8.70195 1.74674C8.62702 1.79654 8.58895 1.81084 8.49975 1.80945C8.46688 1.80996 8.46688 1.80996 8.43335 1.81049C8.33002 1.78304 8.29783 1.74711 8.23413 1.66004C8.21343 1.54611 8.21473 1.43317 8.21532 1.31763C8.21512 1.28423 8.21491 1.25083 8.2147 1.21642C8.21446 1.14587 8.21457 1.07531 8.21499 1.00476C8.21545 0.896741 8.21432 0.788817 8.21305 0.680804C8.21302 0.612236 8.21308 0.543668 8.21325 0.475101C8.21281 0.442794 8.21237 0.410487 8.21191 0.377202C8.215 0.153954 8.215 0.153954 8.31222 0.0459242C8.42047 -0.0107622 8.47875 -0.0202216 8.59936 -0.000119158Z" fill="white"/>
</g>
<defs>
<clipPath id="clip0_657_45276">
<rect width="17" height="17" fill="white"/>
</clipPath>
</defs>
</svg>
