<svg width="13" height="15" viewBox="0 0 13 15" fill="none" xmlns="http://www.w3.org/2000/svg">
<path d="M8.94167 4.25762C8.97387 4.25739 9.00608 4.25717 9.03926 4.25694C9.14545 4.25631 9.25164 4.25618 9.35784 4.25611C9.43195 4.25589 9.50605 4.25567 9.58016 4.25544C9.73546 4.25504 9.89075 4.25492 10.046 4.25496C10.2445 4.25496 10.4429 4.25406 10.6413 4.25291C10.7944 4.25217 10.9475 4.25204 11.1006 4.25208C11.1737 4.252 11.2468 4.25171 11.3199 4.25119C11.4225 4.25054 11.525 4.25073 11.6276 4.25113C11.6575 4.25076 11.6873 4.25038 11.7181 4.25C12.0089 4.25285 12.269 4.34231 12.4836 4.54274C12.7243 4.81044 12.7768 5.07791 12.7757 5.42872C12.7759 5.46554 12.776 5.50235 12.7762 5.54028C12.7766 5.6637 12.7766 5.78711 12.7765 5.91053C12.7767 5.99899 12.7769 6.08746 12.7772 6.17593C12.7777 6.39134 12.7779 6.60675 12.778 6.82216C12.778 6.99731 12.7781 7.17247 12.7783 7.34763C12.7789 7.84454 12.7792 8.34144 12.7792 8.83835C12.7792 8.86513 12.7792 8.89191 12.7792 8.91949C12.7792 8.9463 12.7792 8.97311 12.7792 9.00073C12.7791 9.43507 12.7798 9.8694 12.7807 10.3037C12.7817 10.75 12.7821 11.1963 12.7821 11.6425C12.782 11.893 12.7822 12.1434 12.7829 12.3938C12.7835 12.6071 12.7837 12.8203 12.7832 13.0336C12.783 13.1423 12.7831 13.251 12.7836 13.3597C12.7841 13.4778 12.7838 13.5958 12.7833 13.7139C12.7836 13.748 12.784 13.782 12.7843 13.8171C12.7814 14.1198 12.7011 14.3845 12.4914 14.609C12.2838 14.7956 12.0535 14.9004 11.7722 14.9008C11.7136 14.9011 11.7136 14.9011 11.6538 14.9015C11.5899 14.9013 11.5899 14.9013 11.5247 14.9011C11.4788 14.9013 11.4328 14.9014 11.3869 14.9016C11.2608 14.902 11.1347 14.902 11.0086 14.9019C10.8725 14.9019 10.7364 14.9023 10.6003 14.9026C10.3338 14.9031 10.0672 14.9033 9.80069 14.9034C9.584 14.9034 9.36731 14.9035 9.15062 14.9037C8.53612 14.9043 7.92162 14.9046 7.30712 14.9046C7.25743 14.9046 7.25743 14.9046 7.20674 14.9046C7.17358 14.9046 7.14041 14.9046 7.10624 14.9046C6.56885 14.9045 6.03145 14.9052 5.49406 14.9061C4.94213 14.9071 4.39021 14.9075 3.83828 14.9075C3.52847 14.9074 3.21866 14.9076 2.90885 14.9083C2.64505 14.9089 2.38126 14.9091 2.11746 14.9086C1.98292 14.9084 1.8484 14.9084 1.71386 14.909C1.59056 14.9095 1.46727 14.9094 1.34397 14.9088C1.27853 14.9087 1.2131 14.9092 1.14767 14.9097C0.82033 14.9072 0.544662 14.8452 0.300132 14.6168C0.104448 14.3991 0.00883621 14.1656 0.00798874 13.872C0.0078383 13.8504 0.00768777 13.8287 0.00753277 13.8064C0.00711452 13.7344 0.00716672 13.6624 0.00722169 13.5904C0.00702286 13.5385 0.00679687 13.4867 0.00654584 13.4349C0.00596018 13.2944 0.00580396 13.1539 0.00576156 13.0134C0.00571429 12.9255 0.00557165 12.8376 0.00539576 12.7497C0.00478169 12.4427 0.00451057 12.1358 0.00456285 11.8289C0.00460271 11.5433 0.00390266 11.2577 0.00285345 10.9721C0.00198343 10.7265 0.00162857 10.4809 0.00167095 10.2353C0.00168783 10.0888 0.00150178 9.94226 0.00079649 9.79576C0.000150704 9.65785 0.000150058 9.51996 0.000631325 9.38206C0.000700422 9.33165 0.000545343 9.28125 0.000141912 9.23084C-0.00260323 8.86389 0.0323538 8.54766 0.29235 8.26928C0.539936 8.04668 0.793052 7.9757 1.11982 7.97847C1.14997 7.97846 1.18011 7.97845 1.21117 7.97844C1.31034 7.97849 1.40951 7.97901 1.50867 7.97953C1.57762 7.97965 1.64657 7.97975 1.71551 7.97981C1.89663 7.98007 2.07774 7.98072 2.25885 7.98145C2.4438 7.98213 2.62876 7.98244 2.81371 7.98277C3.17635 7.98348 3.53899 7.98461 3.90163 7.98601C3.90059 7.95392 3.90059 7.95392 3.89953 7.92118C3.89673 7.82243 3.89503 7.7237 3.89333 7.62493C3.89222 7.59129 3.89111 7.55765 3.88996 7.52298C3.88565 7.18693 3.97333 6.9281 4.20513 6.68292C4.44947 6.45244 4.67121 6.3819 5.00458 6.38472C5.0498 6.38471 5.0498 6.38471 5.09594 6.38469C5.19511 6.38474 5.29427 6.38526 5.39344 6.38578C5.46239 6.3859 5.53133 6.386 5.60028 6.38606C5.78139 6.38632 5.9625 6.38697 6.14362 6.3877C6.32857 6.38838 6.51352 6.38869 6.69848 6.38902C7.06112 6.38973 7.42376 6.39086 7.7864 6.39226C7.78562 6.33905 7.78562 6.33905 7.78482 6.28476C7.783 6.15172 7.78187 6.01867 7.78093 5.88562C7.78043 5.8283 7.77975 5.77099 7.77889 5.71367C7.77271 5.29522 7.76985 4.93669 8.05112 4.60072C8.31173 4.3381 8.58056 4.25725 8.94167 4.25762ZM8.8821 5.32976C8.8821 8.13476 8.8821 10.9398 8.8821 13.8298C9.81345 13.8298 10.7448 13.8298 11.7044 13.8298C11.7044 11.0248 11.7044 8.21976 11.7044 5.32976C10.773 5.32976 9.84167 5.32976 8.8821 5.32976ZM4.99734 7.45476C4.99734 9.55851 4.99734 11.6623 4.99734 13.8298C5.91773 13.8298 6.83812 13.8298 7.7864 13.8298C7.7864 11.726 7.7864 9.62226 7.7864 7.45476C6.86601 7.45476 5.94562 7.45476 4.99734 7.45476ZM1.07937 9.04851C1.07937 10.6263 1.07937 12.2041 1.07937 13.8298C2.01072 13.8298 2.94206 13.8298 3.90163 13.8298C3.90163 12.2519 3.90163 10.6741 3.90163 9.04851C2.97029 9.04851 2.03894 9.04851 1.07937 9.04851Z" fill="white"/>
<path d="M6.26772 0.010862C6.30499 0.0105348 6.30499 0.0105348 6.34301 0.0102009C6.42545 0.00954503 6.50789 0.0091582 6.59034 0.00882737C6.63261 0.00862439 6.63261 0.00862439 6.67573 0.00841731C6.82501 0.00772424 6.9743 0.00724965 7.12358 0.00693862C7.27743 0.00657205 7.43126 0.00543092 7.58511 0.00411065C7.70366 0.00324019 7.82222 0.00296432 7.94078 0.00284529C7.99746 0.00268403 8.05414 0.00229929 8.11082 0.00168192C8.6664 -0.00399134 8.6664 -0.00399134 8.88213 0.149552C9.02379 0.327532 9.05316 0.4669 9.05402 0.68817C9.05424 0.712477 9.05446 0.736784 9.05468 0.761828C9.05534 0.842254 9.05573 0.922678 9.05606 1.00311C9.05619 1.03061 9.05633 1.05811 9.05647 1.08644C9.05716 1.23199 9.05763 1.37753 9.05795 1.52308C9.05831 1.67325 9.05945 1.8234 9.06077 1.97357C9.06164 2.08919 9.06192 2.20481 9.06204 2.32043C9.0622 2.37578 9.06259 2.43112 9.0632 2.48647C9.06401 2.56404 9.06398 2.64157 9.06375 2.71914C9.06439 2.75322 9.06439 2.75322 9.06504 2.788C9.06326 2.95235 9.01686 3.04387 8.91533 3.17104C8.76814 3.30387 8.65772 3.34983 8.45684 3.34613C8.30536 3.32723 8.17267 3.26877 8.07345 3.15067C7.93479 2.92492 7.94436 2.66777 7.93376 2.41151C7.93233 2.37916 7.9309 2.3468 7.92942 2.31346C7.92592 2.23409 7.92253 2.15471 7.91924 2.07533C7.89381 2.11039 7.89381 2.11039 7.86788 2.14615C7.42345 2.74975 6.91972 3.30886 6.32549 3.76869C6.29054 3.79698 6.25565 3.82535 6.22082 3.85378C5.72556 4.25522 5.18833 4.58785 4.63213 4.8976C4.60782 4.91136 4.58352 4.92513 4.55848 4.93931C2.65801 6.01127 2.65801 6.01127 1.94268 5.86049C1.78049 5.78519 1.68595 5.69064 1.61065 5.52846C1.58562 5.34253 1.58498 5.1853 1.6646 5.01381C1.86136 4.80669 2.08406 4.74597 2.35149 4.6631C3.44 4.31213 4.49823 3.78558 5.3958 3.07143C5.4267 3.0469 5.45761 3.02238 5.48944 2.99711C6.16217 2.45462 6.70755 1.86094 7.18877 1.14565C7.15189 1.1444 7.15189 1.1444 7.11427 1.14312C7.00144 1.13924 6.88862 1.13518 6.77581 1.13112C6.7178 1.12916 6.7178 1.12916 6.65862 1.12716C6.00988 1.10341 6.00988 1.10341 5.82744 0.946427C5.70788 0.804248 5.65304 0.667786 5.66143 0.481583C5.70116 0.274886 5.7907 0.168994 5.96025 0.0499422C6.05886 0.000636976 6.15956 0.0112719 6.26772 0.010862Z" fill="white"/>
</svg>
